M48
; DRILL file {KiCad 7.0.0} date 西元2023年11月15日 (週三) 23時16分36秒
; FORMAT={-:-/ absolute / inch / decimal}
; #@! TF.CreationDate,2023-11-15T23:16:36+08:00
; #@! TF.GenerationSoftware,Kicad,Pcbnew,7.0.0
; #@! TF.FileFunction,Plated,1,2,PTH
FMAT,2
INCH
; #@! TA.AperFunction,Plated,PTH,ViaDrill
T1C0.0157
; #@! TA.AperFunction,Plated,PTH,ComponentDrill
T2C0.0177
; #@! TA.AperFunction,Plated,PTH,ComponentDrill
T3C0.0315
; #@! TA.AperFunction,Plated,PTH,ComponentDrill
T4C0.0394
; #@! TA.AperFunction,Plated,PTH,ComponentDrill
T5C0.0598
; #@! TA.AperFunction,Plated,PTH,ComponentDrill
T6C0.1260
%
G90
G05
T1
X5.3132Y-3.6021
X5.4449Y-3.9953
X5.5224Y-3.9878
X5.543Y-4.7961
X5.551Y-3.5115
X5.5546Y-4.6024
X5.5589Y-3.608
X5.5904Y-3.2733
X5.6041Y-3.608
X5.6976Y-3.8114
X5.7205Y-3.9882
X5.7734Y-4.3954
X5.7805Y-4.3052
X5.801Y-4.0804
X5.8238Y-4.3048
X5.8565Y-3.9816
X5.8667Y-4.3048
X5.8915Y-4.3954
X5.8933Y-3.787
X5.9057Y-4.7737
X5.9201Y-3.9898
X5.9309Y-4.3954
X5.9427Y-4.3249
X5.9663Y-3.0745
X5.9919Y-4.3088
X6.0352Y-4.3088
X6.0817Y-3.9903
X6.1553Y-3.2792
X6.2341Y-3.484
X6.2715Y-4.2871
X6.3128Y-3.0745
X6.3167Y-3.6788
X6.3226Y-3.2733
X6.3719Y-3.3147
X6.3876Y-3.4879
X6.4093Y-2.9328
X6.423Y-4.7861
X6.4365Y-4.6023
X6.4545Y-3.167
X6.5195Y-3.1178
X6.5254Y-3.4879
X6.5274Y-2.8245
X6.5313Y-3.3029
X6.5628Y-3.1158
X6.6219Y-2.9076
X6.7006Y-4.167
X6.7636Y-3.1375
X6.7833Y-3.0194
X6.7852Y-2.9564
X6.79Y-4.7718
X6.86Y-3.1985
X6.9152Y-3.0194
X6.923Y-3.7595
X6.9703Y-3.6158
X7.0608Y-2.8658
X7.1219Y-4.1119
X7.3681Y-4.3233
X7.3732Y-4.1218
T3
X4.9147Y-3.4977
X5.1068Y-3.4977
T4
X5.0512Y-3.08
X5.1057Y-2.9682
X5.1602Y-3.08
X5.2148Y-2.9682
X5.2693Y-3.08
X5.3238Y-2.9682
X5.3783Y-3.08
X5.4329Y-2.9682
X5.4874Y-3.08
X5.8876Y-3.4021
X5.8876Y-3.5021
X5.8876Y-3.6021
T5
X5.1251Y-4.7658
X5.3251Y-4.7658
X6.0019Y-4.7669
X6.2019Y-4.7669
X6.8944Y-4.7677
X7.0944Y-4.7677
T6
X4.4427Y-2.8816
X4.4427Y-4.8029
X4.7772Y-3.0682
X5.7614Y-3.0682
X7.3478Y-2.8816
X7.3482Y-4.8029
T2
G00X7.3772Y-3.2062
M15
G01X7.4087Y-3.2062
M16
G05
G00X7.4087Y-3.4877
M15
G01X7.3772Y-3.4877
M16
G05
T0
M30
