  0
SECTION
  2
HEADER
  9
$ANGBASE
  50
0.0
  9
$ANGDIR
  70
1
  9
$MEASUREMENT
  70
0
  0
ENDSEC
  0
SECTION
  2
TABLES
  0
TABLE
  2
LTYPE
  70
4
  0
LTYPE
  5
40F
  2
CONTINUOUS
  70
0
  3
Solid line
  72
65
  73
0
  40
0.0
  0
LTYPE
  5
410
  2
DASHDOT
 70
0
  3
Dash Dot ____ _ ____ _
 72
65
 73
4
 40
2.0
 49
1.25
 49
-0.25
 49
0.25
 49
-0.25
  0
LTYPE
  5
411
  2
DASHED
 70
0
  3
Dashed __ __ __ __ __
 72
65
 73
2
 40
0.75
 49
0.5
 49
-0.25
  0
LTYPE
  5
43B
  2
DOTTED
 70
0
  3
Dotted .  .  .  .
 72
65
 73
2
 40
0.2
 49
0.0
 49
-0.2
  0
ENDTAB
  0
TABLE
  2
STYLE
  70
4
  0
STYLE
  2
KICAD
  70
0
  40
0
  41
1
  42
1
  50
0
  71
0
  3
isocp.shx
  0
STYLE
  2
KICADB
  70
0
  40
0
  41
1
  42
1
  50
0
  71
0
  3
isocp.shx
  0
STYLE
  2
KICADI
  70
0
  40
0
  41
1
  42
1
  50
15
  71
0
  3
isocp.shx
  0
STYLE
  2
KICADBI
  70
0
  40
0
  41
1
  42
1
  50
15
  71
0
  3
isocp.shx
  0
ENDTAB
  0
TABLE
  2
LAYER
  70
1
  0
LAYER
  2
BLACK
  70
0
  62
7
  6
CONTINUOUS
  0
ENDTAB
  0
ENDSEC
  0
SECTION
  2
ENTITIES
0
LINE
8
BLACK
6
CONTINUOUS
10
4.3206692913385822
20
-2.7595472440944881
11
7.4702755905511813
21
-2.7595472440944881
0
LINE
8
BLACK
6
CONTINUOUS
10
7.4702755905511813
20
-2.7595472440944881
11
7.4702755905511813
21
-4.9249015748031493
0
LINE
8
BLACK
6
CONTINUOUS
10
7.4702755905511813
20
-4.9249015748031493
11
4.3206692913385822
21
-4.9249015748031493
0
LINE
8
BLACK
6
CONTINUOUS
10
4.3206692913385822
20
-4.9249015748031493
11
4.3206692913385822
21
-2.7595472440944881
0
LINE
8
BLACK
6
CONTINUOUS
10
4.3960078740157478
20
-2.8350078740157478
11
4.5219921259842515
21
-2.960992125984252
0
LINE
8
BLACK
6
CONTINUOUS
10
4.5219921259842515
20
-2.8350078740157478
11
4.3960078740157478
21
-2.960992125984252
0
LINE
8
BLACK
6
CONTINUOUS
10
4.3960078740157478
20
-4.7240078740157481
11
4.5219921259842515
21
-4.8499921259842518
0
LINE
8
BLACK
6
CONTINUOUS
10
4.5219921259842515
20
-4.7240078740157481
11
4.3960078740157478
21
-4.8499921259842518
0
LINE
8
BLACK
6
CONTINUOUS
10
7.2680078740157477
20
-2.8350078740157478
11
7.3939921259842514
21
-2.960992125984252
0
LINE
8
BLACK
6
CONTINUOUS
10
7.3939921259842514
20
-2.8350078740157478
11
7.2680078740157477
21
-2.960992125984252
0
LINE
8
BLACK
6
CONTINUOUS
10
7.269007874015748
20
-4.7230078740157477
11
7.3949921259842517
21
-4.8489921259842514
0
LINE
8
BLACK
6
CONTINUOUS
10
7.3949921259842517
20
-4.7230078740157477
11
7.269007874015748
21
-4.8489921259842514
0
LINE
8
BLACK
6
CONTINUOUS
10
4.4213688188976379
20
-5.0495014960629918
11
4.4213688188976379
21
-4.970761338582677
0
LINE
8
BLACK
6
CONTINUOUS
10
4.4213688188976379
20
-4.970761338582677
11
4.4401164566929134
21
-4.970761338582677
0
LINE
8
BLACK
6
CONTINUOUS
10
4.4401164566929134
20
-4.970761338582677
11
4.4513650787401575
21
-4.9745108661417321
0
LINE
8
BLACK
6
CONTINUOUS
10
4.4513650787401575
20
-4.9745108661417321
11
4.4588641338582677
21
-4.9820099212598423
0
LINE
8
BLACK
6
CONTINUOUS
10
4.4588641338582677
20
-4.9820099212598423
11
4.4626136614173229
21
-4.9895089763779525
0
LINE
8
BLACK
6
CONTINUOUS
10
4.4626136614173229
20
-4.9895089763779525
11
4.466363188976378
21
-5.004507086614173
0
LINE
8
BLACK
6
CONTINUOUS
10
4.466363188976378
20
-5.004507086614173
11
4.466363188976378
21
-5.0157557086614171
0
LINE
8
BLACK
6
CONTINUOUS
10
4.466363188976378
20
-5.0157557086614171
11
4.4626136614173229
21
-5.0307538188976375
0
LINE
8
BLACK
6
CONTINUOUS
10
4.4626136614173229
20
-5.0307538188976375
11
4.4588641338582677
21
-5.0382528740157477
0
LINE
8
BLACK
6
CONTINUOUS
10
4.4588641338582677
20
-5.0382528740157477
11
4.4513650787401575
21
-5.0457519685039367
0
LINE
8
BLACK
6
CONTINUOUS
10
4.4513650787401575
20
-5.0457519685039367
11
4.4401164566929134
21
-5.0495014960629918
0
LINE
8
BLACK
6
CONTINUOUS
10
4.4401164566929134
20
-5.0495014960629918
11
4.4213688188976379
21
-5.0495014960629918
0
LINE
8
BLACK
6
CONTINUOUS
10
4.5001089763779527
20
-5.0495014960629918
11
4.5001089763779527
21
-4.9970080314960628
0
LINE
8
BLACK
6
CONTINUOUS
10
4.5001089763779527
20
-5.012006181102362
11
4.5038585039370078
21
-5.004507086614173
0
LINE
8
BLACK
6
CONTINUOUS
10
4.5038585039370078
20
-5.004507086614173
11
4.5076080314960629
21
-5.0007575590551179
0
LINE
8
BLACK
6
CONTINUOUS
10
4.5076080314960629
20
-5.0007575590551179
11
4.5151070866141731
21
-4.9970080314960628
0
LINE
8
BLACK
6
CONTINUOUS
10
4.5151070866141731
20
-4.9970080314960628
11
4.5226061811023621
21
-4.9970080314960628
0
LINE
8
BLACK
6
CONTINUOUS
10
4.5488528740157479
20
-5.0495014960629918
11
4.5488528740157479
21
-4.9970080314960628
0
LINE
8
BLACK
6
CONTINUOUS
10
4.5488528740157479
20
-4.970761338582677
11
4.5451033464566928
21
-4.9745108661417321
0
LINE
8
BLACK
6
CONTINUOUS
10
4.5451033464566928
20
-4.9745108661417321
11
4.5488528740157479
21
-4.9782603937007872
0
LINE
8
BLACK
6
CONTINUOUS
10
4.5488528740157479
20
-4.9782603937007872
11
4.552602401574803
21
-4.9745108661417321
0
LINE
8
BLACK
6
CONTINUOUS
10
4.552602401574803
20
-4.9745108661417321
11
4.5488528740157479
21
-4.970761338582677
0
LINE
8
BLACK
6
CONTINUOUS
10
4.5488528740157479
20
-4.970761338582677
11
4.5488528740157479
21
-4.9782603937007872
0
LINE
8
BLACK
6
CONTINUOUS
10
4.5975967716535431
20
-5.0495014960629918
11
4.5900977165354329
21
-5.0457519685039367
0
LINE
8
BLACK
6
CONTINUOUS
10
4.5900977165354329
20
-5.0457519685039367
11
4.5863481889763777
21
-5.0382528740157477
0
LINE
8
BLACK
6
CONTINUOUS
10
4.5863481889763777
20
-5.0382528740157477
11
4.5863481889763777
21
-4.970761338582677
0
LINE
8
BLACK
6
CONTINUOUS
10
4.638841614173228
20
-5.0495014960629918
11
4.6313425590551178
21
-5.0457519685039367
0
LINE
8
BLACK
6
CONTINUOUS
10
4.6313425590551178
20
-5.0457519685039367
11
4.6275930314960627
21
-5.0382528740157477
0
LINE
8
BLACK
6
CONTINUOUS
10
4.6275930314960627
20
-5.0382528740157477
11
4.6275930314960627
21
-4.970761338582677
0
LINE
8
BLACK
6
CONTINUOUS
10
4.7288303937007869
20
-5.0495014960629918
11
4.7288303937007869
21
-4.970761338582677
0
LINE
8
BLACK
6
CONTINUOUS
10
4.7288303937007869
20
-4.970761338582677
11
4.7550771259842515
21
-5.0270042913385824
0
LINE
8
BLACK
6
CONTINUOUS
10
4.7550771259842515
20
-5.0270042913385824
11
4.7813238188976372
21
-4.970761338582677
0
LINE
8
BLACK
6
CONTINUOUS
10
4.7813238188976372
20
-4.970761338582677
11
4.7813238188976372
21
-5.0495014960629918
0
LINE
8
BLACK
6
CONTINUOUS
10
4.8525649212598427
20
-5.0495014960629918
11
4.8525649212598427
21
-5.0082566535433068
0
LINE
8
BLACK
6
CONTINUOUS
10
4.8525649212598427
20
-5.0082566535433068
11
4.8488153937007876
21
-5.0007575590551179
0
LINE
8
BLACK
6
CONTINUOUS
10
4.8488153937007876
20
-5.0007575590551179
11
4.8413163385826774
21
-4.9970080314960628
0
LINE
8
BLACK
6
CONTINUOUS
10
4.8413163385826774
20
-4.9970080314960628
11
4.8263181889763782
21
-4.9970080314960628
0
LINE
8
BLACK
6
CONTINUOUS
10
4.8263181889763782
20
-4.9970080314960628
11
4.818819133858268
21
-5.0007575590551179
0
LINE
8
BLACK
6
CONTINUOUS
10
4.8525649212598427
20
-5.0457519685039367
11
4.8450658661417325
21
-5.0495014960629918
0
LINE
8
BLACK
6
CONTINUOUS
10
4.8450658661417325
20
-5.0495014960629918
11
4.8263181889763782
21
-5.0495014960629918
0
LINE
8
BLACK
6
CONTINUOUS
10
4.8263181889763782
20
-5.0495014960629918
11
4.818819133858268
21
-5.0457519685039367
0
LINE
8
BLACK
6
CONTINUOUS
10
4.818819133858268
20
-5.0457519685039367
11
4.8150696062992129
21
-5.0382528740157477
0
LINE
8
BLACK
6
CONTINUOUS
10
4.8150696062992129
20
-5.0382528740157477
11
4.8150696062992129
21
-5.0307538188976375
0
LINE
8
BLACK
6
CONTINUOUS
10
4.8150696062992129
20
-5.0307538188976375
11
4.818819133858268
21
-5.0232547637795273
0
LINE
8
BLACK
6
CONTINUOUS
10
4.818819133858268
20
-5.0232547637795273
11
4.8263181889763782
21
-5.0195052362204722
0
LINE
8
BLACK
6
CONTINUOUS
10
4.8263181889763782
20
-5.0195052362204722
11
4.8450658661417325
21
-5.0195052362204722
0
LINE
8
BLACK
6
CONTINUOUS
10
4.8450658661417325
20
-5.0195052362204722
11
4.8525649212598427
21
-5.0157557086614171
0
LINE
8
BLACK
6
CONTINUOUS
10
4.8900602362204726
20
-4.9970080314960628
11
4.8900602362204726
21
-5.0757481889763776
0
LINE
8
BLACK
6
CONTINUOUS
10
4.8900602362204726
20
-5.0007575590551179
11
4.8975592913385828
21
-4.9970080314960628
0
LINE
8
BLACK
6
CONTINUOUS
10
4.8975592913385828
20
-4.9970080314960628
11
4.912557440944882
21
-4.9970080314960628
0
LINE
8
BLACK
6
CONTINUOUS
10
4.912557440944882
20
-4.9970080314960628
11
4.9200564960629922
21
-5.0007575590551179
0
LINE
8
BLACK
6
CONTINUOUS
10
4.9200564960629922
20
-5.0007575590551179
11
4.9238060236220473
21
-5.004507086614173
0
LINE
8
BLACK
6
CONTINUOUS
10
4.9238060236220473
20
-5.004507086614173
11
4.9275555511811024
21
-5.012006181102362
0
LINE
8
BLACK
6
CONTINUOUS
10
4.9275555511811024
20
-5.012006181102362
11
4.9275555511811024
21
-5.0345033464566926
0
LINE
8
BLACK
6
CONTINUOUS
10
4.9275555511811024
20
-5.0345033464566926
11
4.9238060236220473
21
-5.0420024015748028
0
LINE
8
BLACK
6
CONTINUOUS
10
4.9238060236220473
20
-5.0420024015748028
11
4.9200564960629922
21
-5.0457519685039367
0
LINE
8
BLACK
6
CONTINUOUS
10
4.9200564960629922
20
-5.0457519685039367
11
4.912557440944882
21
-5.0495014960629918
0
LINE
8
BLACK
6
CONTINUOUS
10
4.912557440944882
20
-5.0495014960629918
11
4.8975592913385828
21
-5.0495014960629918
0
LINE
8
BLACK
6
CONTINUOUS
10
4.8975592913385828
20
-5.0495014960629918
11
4.8900602362204726
21
-5.0457519685039367
0
LINE
8
BLACK
6
CONTINUOUS
10
4.9613013385826772
20
-5.0420024015748028
11
4.9650508661417323
21
-5.0457519685039367
0
LINE
8
BLACK
6
CONTINUOUS
10
4.9650508661417323
20
-5.0457519685039367
11
4.9613013385826772
21
-5.0495014960629918
0
LINE
8
BLACK
6
CONTINUOUS
10
4.9613013385826772
20
-5.0495014960629918
11
4.9575518110236221
21
-5.0457519685039367
0
LINE
8
BLACK
6
CONTINUOUS
10
4.9575518110236221
20
-5.0457519685039367
11
4.9613013385826772
21
-5.0420024015748028
0
LINE
8
BLACK
6
CONTINUOUS
10
4.9613013385826772
20
-5.0420024015748028
11
4.9613013385826772
21
-5.0495014960629918
0
LINE
8
BLACK
6
CONTINUOUS
10
4.9613013385826772
20
-5.0007575590551179
11
4.9650508661417323
21
-5.004507086614173
0
LINE
8
BLACK
6
CONTINUOUS
10
4.9650508661417323
20
-5.004507086614173
11
4.9613013385826772
21
-5.0082566535433068
0
LINE
8
BLACK
6
CONTINUOUS
10
4.9613013385826772
20
-5.0082566535433068
11
4.9575518110236221
21
-5.004507086614173
0
LINE
8
BLACK
6
CONTINUOUS
10
4.9575518110236221
20
-5.004507086614173
11
4.9613013385826772
21
-5.0007575590551179
0
LINE
8
BLACK
6
CONTINUOUS
10
4.9613013385826772
20
-5.0007575590551179
11
4.9613013385826772
21
-5.0082566535433068
0
LINE
8
BLACK
6
CONTINUOUS
10
4.23996062992126
20
-5.1394685039370076
11
4.3187007874015748
21
-5.2182086614173224
0
LINE
8
BLACK
6
CONTINUOUS
10
4.3187007874015748
20
-5.1394685039370076
11
4.23996062992126
21
-5.2182086614173224
0
LINE
8
BLACK
6
CONTINUOUS
10
4.4138697637795277
20
-5.1361156692913381
11
4.4626136614173229
21
-5.1361156692913381
0
LINE
8
BLACK
6
CONTINUOUS
10
4.4626136614173229
20
-5.1361156692913381
11
4.4363669291338583
21
-5.166111889763779
0
LINE
8
BLACK
6
CONTINUOUS
10
4.4363669291338583
20
-5.166111889763779
11
4.4476155511811024
21
-5.166111889763779
0
LINE
8
BLACK
6
CONTINUOUS
10
4.4476155511811024
20
-5.166111889763779
11
4.4551146062992126
21
-5.1698614173228341
0
LINE
8
BLACK
6
CONTINUOUS
10
4.4551146062992126
20
-5.1698614173228341
11
4.4588641338582677
21
-5.173610984251968
0
LINE
8
BLACK
6
CONTINUOUS
10
4.4588641338582677
20
-5.173610984251968
11
4.4626136614173229
21
-5.1811100393700782
0
LINE
8
BLACK
6
CONTINUOUS
10
4.4626136614173229
20
-5.1811100393700782
11
4.4626136614173229
21
-5.1998576771653546
0
LINE
8
BLACK
6
CONTINUOUS
10
4.4626136614173229
20
-5.1998576771653546
11
4.4588641338582677
21
-5.2073567322834649
0
LINE
8
BLACK
6
CONTINUOUS
10
4.4588641338582677
20
-5.2073567322834649
11
4.4551146062992126
21
-5.2111062992125987
0
LINE
8
BLACK
6
CONTINUOUS
10
4.4551146062992126
20
-5.2111062992125987
11
4.4476155511811024
21
-5.2148558267716538
0
LINE
8
BLACK
6
CONTINUOUS
10
4.4476155511811024
20
-5.2148558267716538
11
4.425118346456693
21
-5.2148558267716538
0
LINE
8
BLACK
6
CONTINUOUS
10
4.425118346456693
20
-5.2148558267716538
11
4.4176192913385828
21
-5.2111062992125987
0
LINE
8
BLACK
6
CONTINUOUS
10
4.4176192913385828
20
-5.2111062992125987
11
4.4138697637795277
21
-5.2073567322834649
0
LINE
8
BLACK
6
CONTINUOUS
10
4.4963594488188976
20
-5.2073567322834649
11
4.5001089763779527
21
-5.2111062992125987
0
LINE
8
BLACK
6
CONTINUOUS
10
4.5001089763779527
20
-5.2111062992125987
11
4.4963594488188976
21
-5.2148558267716538
0
LINE
8
BLACK
6
CONTINUOUS
10
4.4963594488188976
20
-5.2148558267716538
11
4.4926099212598425
21
-5.2111062992125987
0
LINE
8
BLACK
6
CONTINUOUS
10
4.4926099212598425
20
-5.2111062992125987
11
4.4963594488188976
21
-5.2073567322834649
0
LINE
8
BLACK
6
CONTINUOUS
10
4.4963594488188976
20
-5.2073567322834649
11
4.4963594488188976
21
-5.2148558267716538
0
LINE
8
BLACK
6
CONTINUOUS
10
4.5301052362204723
20
-5.1436147244094483
11
4.5338547637795275
21
-5.1398651968503932
0
LINE
8
BLACK
6
CONTINUOUS
10
4.5338547637795275
20
-5.1398651968503932
11
4.5413538188976377
21
-5.1361156692913381
0
LINE
8
BLACK
6
CONTINUOUS
10
4.5413538188976377
20
-5.1361156692913381
11
4.560101496062992
21
-5.1361156692913381
0
LINE
8
BLACK
6
CONTINUOUS
10
4.560101496062992
20
-5.1361156692913381
11
4.5676005511811022
21
-5.1398651968503932
0
LINE
8
BLACK
6
CONTINUOUS
10
4.5676005511811022
20
-5.1398651968503932
11
4.5713500787401573
21
-5.1436147244094483
0
LINE
8
BLACK
6
CONTINUOUS
10
4.5713500787401573
20
-5.1436147244094483
11
4.5750996062992124
21
-5.1511137795275586
0
LINE
8
BLACK
6
CONTINUOUS
10
4.5750996062992124
20
-5.1511137795275586
11
4.5750996062992124
21
-5.1586128346456688
0
LINE
8
BLACK
6
CONTINUOUS
10
4.5750996062992124
20
-5.1586128346456688
11
4.5713500787401573
21
-5.1698614173228341
0
LINE
8
BLACK
6
CONTINUOUS
10
4.5713500787401573
20
-5.1698614173228341
11
4.5263557086614172
21
-5.2148558267716538
0
LINE
8
BLACK
6
CONTINUOUS
10
4.5263557086614172
20
-5.2148558267716538
11
4.5750996062992124
21
-5.2148558267716538
0
LINE
8
BLACK
6
CONTINUOUS
10
4.6238435039370076
20
-5.1361156692913381
11
4.6313425984251966
21
-5.1361156692913381
0
LINE
8
BLACK
6
CONTINUOUS
10
4.6313425984251966
20
-5.1361156692913381
11
4.6388416535433068
21
-5.1398651968503932
0
LINE
8
BLACK
6
CONTINUOUS
10
4.6388416535433068
20
-5.1398651968503932
11
4.6425911811023619
21
-5.1436147244094483
0
LINE
8
BLACK
6
CONTINUOUS
10
4.6425911811023619
20
-5.1436147244094483
11
4.646340708661417
21
-5.1511137795275586
0
LINE
8
BLACK
6
CONTINUOUS
10
4.646340708661417
20
-5.1511137795275586
11
4.6500902362204721
21
-5.166111889763779
0
LINE
8
BLACK
6
CONTINUOUS
10
4.6500902362204721
20
-5.166111889763779
11
4.6500902362204721
21
-5.1848595669291333
0
LINE
8
BLACK
6
CONTINUOUS
10
4.6500902362204721
20
-5.1848595669291333
11
4.646340708661417
21
-5.1998576771653546
0
LINE
8
BLACK
6
CONTINUOUS
10
4.646340708661417
20
-5.1998576771653546
11
4.6425911811023619
21
-5.2073567322834649
0
LINE
8
BLACK
6
CONTINUOUS
10
4.6425911811023619
20
-5.2073567322834649
11
4.6388416535433068
21
-5.2111062992125987
0
LINE
8
BLACK
6
CONTINUOUS
10
4.6388416535433068
20
-5.2111062992125987
11
4.6313425984251966
21
-5.2148558267716538
0
LINE
8
BLACK
6
CONTINUOUS
10
4.6313425984251966
20
-5.2148558267716538
11
4.6238435039370076
21
-5.2148558267716538
0
LINE
8
BLACK
6
CONTINUOUS
10
4.6238435039370076
20
-5.2148558267716538
11
4.6163444488188974
21
-5.2111062992125987
0
LINE
8
BLACK
6
CONTINUOUS
10
4.6163444488188974
20
-5.2111062992125987
11
4.6125949212598423
21
-5.2073567322834649
0
LINE
8
BLACK
6
CONTINUOUS
10
4.6125949212598423
20
-5.2073567322834649
11
4.6088453937007872
21
-5.1998576771653546
0
LINE
8
BLACK
6
CONTINUOUS
10
4.6088453937007872
20
-5.1998576771653546
11
4.6050958661417321
21
-5.1848595669291333
0
LINE
8
BLACK
6
CONTINUOUS
10
4.6050958661417321
20
-5.1848595669291333
11
4.6050958661417321
21
-5.166111889763779
0
LINE
8
BLACK
6
CONTINUOUS
10
4.6050958661417321
20
-5.166111889763779
11
4.6088453937007872
21
-5.1511137795275586
0
LINE
8
BLACK
6
CONTINUOUS
10
4.6088453937007872
20
-5.1511137795275586
11
4.6125949212598423
21
-5.1436147244094483
0
LINE
8
BLACK
6
CONTINUOUS
10
4.6125949212598423
20
-5.1436147244094483
11
4.6163444488188974
21
-5.1398651968503932
0
LINE
8
BLACK
6
CONTINUOUS
10
4.6163444488188974
20
-5.1398651968503932
11
4.6238435039370076
21
-5.1361156692913381
0
LINE
8
BLACK
6
CONTINUOUS
10
4.6988341338582673
20
-5.1361156692913381
11
4.7063332283464563
21
-5.1361156692913381
0
LINE
8
BLACK
6
CONTINUOUS
10
4.7063332283464563
20
-5.1361156692913381
11
4.7138322834645665
21
-5.1398651968503932
0
LINE
8
BLACK
6
CONTINUOUS
10
4.7138322834645665
20
-5.1398651968503932
11
4.7175818110236216
21
-5.1436147244094483
0
LINE
8
BLACK
6
CONTINUOUS
10
4.7175818110236216
20
-5.1436147244094483
11
4.7213313385826767
21
-5.1511137795275586
0
LINE
8
BLACK
6
CONTINUOUS
10
4.7213313385826767
20
-5.1511137795275586
11
4.7250808661417318
21
-5.166111889763779
0
LINE
8
BLACK
6
CONTINUOUS
10
4.7250808661417318
20
-5.166111889763779
11
4.7250808661417318
21
-5.1848595669291333
0
LINE
8
BLACK
6
CONTINUOUS
10
4.7250808661417318
20
-5.1848595669291333
11
4.7213313385826767
21
-5.1998576771653546
0
LINE
8
BLACK
6
CONTINUOUS
10
4.7213313385826767
20
-5.1998576771653546
11
4.7175818110236216
21
-5.2073567322834649
0
LINE
8
BLACK
6
CONTINUOUS
10
4.7175818110236216
20
-5.2073567322834649
11
4.7138322834645665
21
-5.2111062992125987
0
LINE
8
BLACK
6
CONTINUOUS
10
4.7138322834645665
20
-5.2111062992125987
11
4.7063332283464563
21
-5.2148558267716538
0
LINE
8
BLACK
6
CONTINUOUS
10
4.7063332283464563
20
-5.2148558267716538
11
4.6988341338582673
21
-5.2148558267716538
0
LINE
8
BLACK
6
CONTINUOUS
10
4.6988341338582673
20
-5.2148558267716538
11
4.6913350787401571
21
-5.2111062992125987
0
LINE
8
BLACK
6
CONTINUOUS
10
4.6913350787401571
20
-5.2111062992125987
11
4.687585551181102
21
-5.2073567322834649
0
LINE
8
BLACK
6
CONTINUOUS
10
4.687585551181102
20
-5.2073567322834649
11
4.6838360236220469
21
-5.1998576771653546
0
LINE
8
BLACK
6
CONTINUOUS
10
4.6838360236220469
20
-5.1998576771653546
11
4.6800864960629918
21
-5.1848595669291333
0
LINE
8
BLACK
6
CONTINUOUS
10
4.6800864960629918
20
-5.1848595669291333
11
4.6800864960629918
21
-5.166111889763779
0
LINE
8
BLACK
6
CONTINUOUS
10
4.6800864960629918
20
-5.166111889763779
11
4.6838360236220469
21
-5.1511137795275586
0
LINE
8
BLACK
6
CONTINUOUS
10
4.6838360236220469
20
-5.1511137795275586
11
4.687585551181102
21
-5.1436147244094483
0
LINE
8
BLACK
6
CONTINUOUS
10
4.687585551181102
20
-5.1436147244094483
11
4.6913350787401571
21
-5.1398651968503932
0
LINE
8
BLACK
6
CONTINUOUS
10
4.6913350787401571
20
-5.1398651968503932
11
4.6988341338582673
21
-5.1361156692913381
0
LINE
8
BLACK
6
CONTINUOUS
10
4.7588266535433066
20
-5.2148558267716538
11
4.7588266535433066
21
-5.1623623622047239
0
LINE
8
BLACK
6
CONTINUOUS
10
4.7588266535433066
20
-5.1698614173228341
11
4.7625761811023617
21
-5.166111889763779
0
LINE
8
BLACK
6
CONTINUOUS
10
4.7625761811023617
20
-5.166111889763779
11
4.7700752362204719
21
-5.1623623622047239
0
LINE
8
BLACK
6
CONTINUOUS
10
4.7700752362204719
20
-5.1623623622047239
11
4.781323858267716
21
-5.1623623622047239
0
LINE
8
BLACK
6
CONTINUOUS
10
4.781323858267716
20
-5.1623623622047239
11
4.7888229133858262
21
-5.166111889763779
0
LINE
8
BLACK
6
CONTINUOUS
10
4.7888229133858262
20
-5.166111889763779
11
4.7925724409448822
21
-5.173610984251968
0
LINE
8
BLACK
6
CONTINUOUS
10
4.7925724409448822
20
-5.173610984251968
11
4.7925724409448822
21
-5.2148558267716538
0
LINE
8
BLACK
6
CONTINUOUS
10
4.7925724409448822
20
-5.173610984251968
11
4.7963219685039373
21
-5.166111889763779
0
LINE
8
BLACK
6
CONTINUOUS
10
4.7963219685039373
20
-5.166111889763779
11
4.8038210236220475
21
-5.1623623622047239
0
LINE
8
BLACK
6
CONTINUOUS
10
4.8038210236220475
20
-5.1623623622047239
11
4.8150696062992129
21
-5.1623623622047239
0
LINE
8
BLACK
6
CONTINUOUS
10
4.8150696062992129
20
-5.1623623622047239
11
4.8225687007874019
21
-5.166111889763779
0
LINE
8
BLACK
6
CONTINUOUS
10
4.8225687007874019
20
-5.166111889763779
11
4.826318228346457
21
-5.173610984251968
0
LINE
8
BLACK
6
CONTINUOUS
10
4.826318228346457
20
-5.173610984251968
11
4.826318228346457
21
-5.2148558267716538
0
LINE
8
BLACK
6
CONTINUOUS
10
4.8638135433070868
20
-5.2148558267716538
11
4.8638135433070868
21
-5.1623623622047239
0
LINE
8
BLACK
6
CONTINUOUS
10
4.8638135433070868
20
-5.1698614173228341
11
4.8675630708661419
21
-5.166111889763779
0
LINE
8
BLACK
6
CONTINUOUS
10
4.8675630708661419
20
-5.166111889763779
11
4.8750621259842521
21
-5.1623623622047239
0
LINE
8
BLACK
6
CONTINUOUS
10
4.8750621259842521
20
-5.1623623622047239
11
4.8863107480314962
21
-5.1623623622047239
0
LINE
8
BLACK
6
CONTINUOUS
10
4.8863107480314962
20
-5.1623623622047239
11
4.8938098031496065
21
-5.166111889763779
0
LINE
8
BLACK
6
CONTINUOUS
10
4.8938098031496065
20
-5.166111889763779
11
4.8975593307086616
21
-5.173610984251968
0
LINE
8
BLACK
6
CONTINUOUS
10
4.8975593307086616
20
-5.173610984251968
11
4.8975593307086616
21
-5.2148558267716538
0
LINE
8
BLACK
6
CONTINUOUS
10
4.8975593307086616
20
-5.173610984251968
11
4.9013088582677167
21
-5.166111889763779
0
LINE
8
BLACK
6
CONTINUOUS
10
4.9013088582677167
20
-5.166111889763779
11
4.9088079133858269
21
-5.1623623622047239
0
LINE
8
BLACK
6
CONTINUOUS
10
4.9088079133858269
20
-5.1623623622047239
11
4.9200564960629922
21
-5.1623623622047239
0
LINE
8
BLACK
6
CONTINUOUS
10
4.9200564960629922
20
-5.1623623622047239
11
4.9275555905511812
21
-5.166111889763779
0
LINE
8
BLACK
6
CONTINUOUS
10
4.9275555905511812
20
-5.166111889763779
11
4.9313051181102363
21
-5.173610984251968
0
LINE
8
BLACK
6
CONTINUOUS
10
4.9313051181102363
20
-5.173610984251968
11
4.9313051181102363
21
-5.2148558267716538
0
LINE
8
BLACK
6
CONTINUOUS
10
5.0850359055118108
20
-5.132366141732283
11
5.0175443700787401
21
-5.2336034645669294
0
LINE
8
BLACK
6
CONTINUOUS
10
5.1862732677165351
20
-5.1361156692913381
11
5.193772362204724
21
-5.1361156692913381
0
LINE
8
BLACK
6
CONTINUOUS
10
5.193772362204724
20
-5.1361156692913381
11
5.2012714173228343
21
-5.1398651968503932
0
LINE
8
BLACK
6
CONTINUOUS
10
5.2012714173228343
20
-5.1398651968503932
11
5.2050209448818894
21
-5.1436147244094483
0
LINE
8
BLACK
6
CONTINUOUS
10
5.2050209448818894
20
-5.1436147244094483
11
5.2087704724409445
21
-5.1511137795275586
0
LINE
8
BLACK
6
CONTINUOUS
10
5.2087704724409445
20
-5.1511137795275586
11
5.2125199999999996
21
-5.166111889763779
0
LINE
8
BLACK
6
CONTINUOUS
10
5.2125199999999996
20
-5.166111889763779
11
5.2125199999999996
21
-5.1848595669291333
0
LINE
8
BLACK
6
CONTINUOUS
10
5.2125199999999996
20
-5.1848595669291333
11
5.2087704724409445
21
-5.1998576771653546
0
LINE
8
BLACK
6
CONTINUOUS
10
5.2087704724409445
20
-5.1998576771653546
11
5.2050209448818894
21
-5.2073567322834649
0
LINE
8
BLACK
6
CONTINUOUS
10
5.2050209448818894
20
-5.2073567322834649
11
5.2012714173228343
21
-5.2111062992125987
0
LINE
8
BLACK
6
CONTINUOUS
10
5.2012714173228343
20
-5.2111062992125987
11
5.193772362204724
21
-5.2148558267716538
0
LINE
8
BLACK
6
CONTINUOUS
10
5.193772362204724
20
-5.2148558267716538
11
5.1862732677165351
21
-5.2148558267716538
0
LINE
8
BLACK
6
CONTINUOUS
10
5.1862732677165351
20
-5.2148558267716538
11
5.1787742125984249
21
-5.2111062992125987
0
LINE
8
BLACK
6
CONTINUOUS
10
5.1787742125984249
20
-5.2111062992125987
11
5.1750246850393697
21
-5.2073567322834649
0
LINE
8
BLACK
6
CONTINUOUS
10
5.1750246850393697
20
-5.2073567322834649
11
5.1712751574803146
21
-5.1998576771653546
0
LINE
8
BLACK
6
CONTINUOUS
10
5.1712751574803146
20
-5.1998576771653546
11
5.1675256299212595
21
-5.1848595669291333
0
LINE
8
BLACK
6
CONTINUOUS
10
5.1675256299212595
20
-5.1848595669291333
11
5.1675256299212595
21
-5.166111889763779
0
LINE
8
BLACK
6
CONTINUOUS
10
5.1675256299212595
20
-5.166111889763779
11
5.1712751574803146
21
-5.1511137795275586
0
LINE
8
BLACK
6
CONTINUOUS
10
5.1712751574803146
20
-5.1511137795275586
11
5.1750246850393697
21
-5.1436147244094483
0
LINE
8
BLACK
6
CONTINUOUS
10
5.1750246850393697
20
-5.1436147244094483
11
5.1787742125984249
21
-5.1398651968503932
0
LINE
8
BLACK
6
CONTINUOUS
10
5.1787742125984249
20
-5.1398651968503932
11
5.1862732677165351
21
-5.1361156692913381
0
LINE
8
BLACK
6
CONTINUOUS
10
5.2462657874015743
20
-5.2073567322834649
11
5.2500153149606295
21
-5.2111062992125987
0
LINE
8
BLACK
6
CONTINUOUS
10
5.2500153149606295
20
-5.2111062992125987
11
5.2462657874015743
21
-5.2148558267716538
0
LINE
8
BLACK
6
CONTINUOUS
10
5.2462657874015743
20
-5.2148558267716538
11
5.2425162598425192
21
-5.2111062992125987
0
LINE
8
BLACK
6
CONTINUOUS
10
5.2425162598425192
20
-5.2111062992125987
11
5.2462657874015743
21
-5.2073567322834649
0
LINE
8
BLACK
6
CONTINUOUS
10
5.2462657874015743
20
-5.2073567322834649
11
5.2462657874015743
21
-5.2148558267716538
0
LINE
8
BLACK
6
CONTINUOUS
10
5.3250059448818901
20
-5.2148558267716538
11
5.2800115748031491
21
-5.2148558267716538
0
LINE
8
BLACK
6
CONTINUOUS
10
5.3025087401574806
20
-5.2148558267716538
11
5.3025087401574806
21
-5.1361156692913381
0
LINE
8
BLACK
6
CONTINUOUS
10
5.3025087401574806
20
-5.1361156692913381
11
5.2950096850393695
21
-5.1473642519685034
0
LINE
8
BLACK
6
CONTINUOUS
10
5.2950096850393695
20
-5.1473642519685034
11
5.2875106299212593
21
-5.1548633070866137
0
LINE
8
BLACK
6
CONTINUOUS
10
5.2875106299212593
20
-5.1548633070866137
11
5.2800115748031491
21
-5.1586128346456688
0
LINE
8
BLACK
6
CONTINUOUS
10
5.3550022047244097
20
-5.1436147244094483
11
5.3587517322834648
21
-5.1398651968503932
0
LINE
8
BLACK
6
CONTINUOUS
10
5.3587517322834648
20
-5.1398651968503932
11
5.366250787401575
21
-5.1361156692913381
0
LINE
8
BLACK
6
CONTINUOUS
10
5.366250787401575
20
-5.1361156692913381
11
5.3849984645669293
21
-5.1361156692913381
0
LINE
8
BLACK
6
CONTINUOUS
10
5.3849984645669293
20
-5.1361156692913381
11
5.3924975196850395
21
-5.1398651968503932
0
LINE
8
BLACK
6
CONTINUOUS
10
5.3924975196850395
20
-5.1398651968503932
11
5.3962470472440947
21
-5.1436147244094483
0
LINE
8
BLACK
6
CONTINUOUS
10
5.3962470472440947
20
-5.1436147244094483
11
5.3999965748031498
21
-5.1511137795275586
0
LINE
8
BLACK
6
CONTINUOUS
10
5.3999965748031498
20
-5.1511137795275586
11
5.3999965748031498
21
-5.1586128346456688
0
LINE
8
BLACK
6
CONTINUOUS
10
5.3999965748031498
20
-5.1586128346456688
11
5.3962470472440947
21
-5.1698614173228341
0
LINE
8
BLACK
6
CONTINUOUS
10
5.3962470472440947
20
-5.1698614173228341
11
5.3512526771653546
21
-5.2148558267716538
0
LINE
8
BLACK
6
CONTINUOUS
10
5.3512526771653546
20
-5.2148558267716538
11
5.3999965748031498
21
-5.2148558267716538
0
LINE
8
BLACK
6
CONTINUOUS
10
5.4674881496062993
20
-5.1361156692913381
11
5.4524900000000001
21
-5.1361156692913381
0
LINE
8
BLACK
6
CONTINUOUS
10
5.4524900000000001
20
-5.1361156692913381
11
5.4449909448818898
21
-5.1398651968503932
0
LINE
8
BLACK
6
CONTINUOUS
10
5.4449909448818898
20
-5.1398651968503932
11
5.4412414173228347
21
-5.1436147244094483
0
LINE
8
BLACK
6
CONTINUOUS
10
5.4412414173228347
20
-5.1436147244094483
11
5.4337423622047245
21
-5.1548633070866137
0
LINE
8
BLACK
6
CONTINUOUS
10
5.4337423622047245
20
-5.1548633070866137
11
5.4299928346456694
21
-5.1698614173228341
0
LINE
8
BLACK
6
CONTINUOUS
10
5.4299928346456694
20
-5.1698614173228341
11
5.4299928346456694
21
-5.1998576771653546
0
LINE
8
BLACK
6
CONTINUOUS
10
5.4299928346456694
20
-5.1998576771653546
11
5.4337423622047245
21
-5.2073567322834649
0
LINE
8
BLACK
6
CONTINUOUS
10
5.4337423622047245
20
-5.2073567322834649
11
5.4374918897637796
21
-5.2111062992125987
0
LINE
8
BLACK
6
CONTINUOUS
10
5.4374918897637796
20
-5.2111062992125987
11
5.4449909448818898
21
-5.2148558267716538
0
LINE
8
BLACK
6
CONTINUOUS
10
5.4449909448818898
20
-5.2148558267716538
11
5.459989094488189
21
-5.2148558267716538
0
LINE
8
BLACK
6
CONTINUOUS
10
5.459989094488189
20
-5.2148558267716538
11
5.4674881496062993
21
-5.2111062992125987
0
LINE
8
BLACK
6
CONTINUOUS
10
5.4674881496062993
20
-5.2111062992125987
11
5.4712376771653544
21
-5.2073567322834649
0
LINE
8
BLACK
6
CONTINUOUS
10
5.4712376771653544
20
-5.2073567322834649
11
5.4749872047244095
21
-5.1998576771653546
0
LINE
8
BLACK
6
CONTINUOUS
10
5.4749872047244095
20
-5.1998576771653546
11
5.4749872047244095
21
-5.1811100393700782
0
LINE
8
BLACK
6
CONTINUOUS
10
5.4749872047244095
20
-5.1811100393700782
11
5.4712376771653544
21
-5.173610984251968
0
LINE
8
BLACK
6
CONTINUOUS
10
5.4712376771653544
20
-5.173610984251968
11
5.4674881496062993
21
-5.1698614173228341
0
LINE
8
BLACK
6
CONTINUOUS
10
5.4674881496062993
20
-5.1698614173228341
11
5.459989094488189
21
-5.166111889763779
0
LINE
8
BLACK
6
CONTINUOUS
10
5.459989094488189
20
-5.166111889763779
11
5.4449909448818898
21
-5.166111889763779
0
LINE
8
BLACK
6
CONTINUOUS
10
5.4449909448818898
20
-5.166111889763779
11
5.4374918897637796
21
-5.1698614173228341
0
LINE
8
BLACK
6
CONTINUOUS
10
5.4374918897637796
20
-5.1698614173228341
11
5.4337423622047245
21
-5.173610984251968
0
LINE
8
BLACK
6
CONTINUOUS
10
5.4337423622047245
20
-5.173610984251968
11
5.4299928346456694
21
-5.1811100393700782
0
LINE
8
BLACK
6
CONTINUOUS
10
5.5237311023622047
20
-5.1361156692913381
11
5.5312301968503936
21
-5.1361156692913381
0
LINE
8
BLACK
6
CONTINUOUS
10
5.5312301968503936
20
-5.1361156692913381
11
5.5387292519685039
21
-5.1398651968503932
0
LINE
8
BLACK
6
CONTINUOUS
10
5.5387292519685039
20
-5.1398651968503932
11
5.542478779527559
21
-5.1436147244094483
0
LINE
8
BLACK
6
CONTINUOUS
10
5.542478779527559
20
-5.1436147244094483
11
5.5462283070866141
21
-5.1511137795275586
0
LINE
8
BLACK
6
CONTINUOUS
10
5.5462283070866141
20
-5.1511137795275586
11
5.5499778346456692
21
-5.166111889763779
0
LINE
8
BLACK
6
CONTINUOUS
10
5.5499778346456692
20
-5.166111889763779
11
5.5499778346456692
21
-5.1848595669291333
0
LINE
8
BLACK
6
CONTINUOUS
10
5.5499778346456692
20
-5.1848595669291333
11
5.5462283070866141
21
-5.1998576771653546
0
LINE
8
BLACK
6
CONTINUOUS
10
5.5462283070866141
20
-5.1998576771653546
11
5.542478779527559
21
-5.2073567322834649
0
LINE
8
BLACK
6
CONTINUOUS
10
5.542478779527559
20
-5.2073567322834649
11
5.5387292519685039
21
-5.2111062992125987
0
LINE
8
BLACK
6
CONTINUOUS
10
5.5387292519685039
20
-5.2111062992125987
11
5.5312301968503936
21
-5.2148558267716538
0
LINE
8
BLACK
6
CONTINUOUS
10
5.5312301968503936
20
-5.2148558267716538
11
5.5237311023622047
21
-5.2148558267716538
0
LINE
8
BLACK
6
CONTINUOUS
10
5.5237311023622047
20
-5.2148558267716538
11
5.5162320472440944
21
-5.2111062992125987
0
LINE
8
BLACK
6
CONTINUOUS
10
5.5162320472440944
20
-5.2111062992125987
11
5.5124825196850393
21
-5.2073567322834649
0
LINE
8
BLACK
6
CONTINUOUS
10
5.5124825196850393
20
-5.2073567322834649
11
5.5087329921259842
21
-5.1998576771653546
0
LINE
8
BLACK
6
CONTINUOUS
10
5.5087329921259842
20
-5.1998576771653546
11
5.5049834645669291
21
-5.1848595669291333
0
LINE
8
BLACK
6
CONTINUOUS
10
5.5049834645669291
20
-5.1848595669291333
11
5.5049834645669291
21
-5.166111889763779
0
LINE
8
BLACK
6
CONTINUOUS
10
5.5049834645669291
20
-5.166111889763779
11
5.5087329921259842
21
-5.1511137795275586
0
LINE
8
BLACK
6
CONTINUOUS
10
5.5087329921259842
20
-5.1511137795275586
11
5.5124825196850393
21
-5.1436147244094483
0
LINE
8
BLACK
6
CONTINUOUS
10
5.5124825196850393
20
-5.1436147244094483
11
5.5162320472440944
21
-5.1398651968503932
0
LINE
8
BLACK
6
CONTINUOUS
10
5.5162320472440944
20
-5.1398651968503932
11
5.5237311023622047
21
-5.1361156692913381
0
LINE
8
BLACK
6
CONTINUOUS
10
5.5799740944881888
20
-5.1361156692913381
11
5.5799740944881888
21
-5.1511137795275586
0
LINE
8
BLACK
6
CONTINUOUS
10
5.6099703543307085
20
-5.1361156692913381
11
5.6099703543307085
21
-5.1511137795275586
0
LINE
8
BLACK
6
CONTINUOUS
10
5.7262058661417319
20
-5.2448520472440947
11
5.722456299212598
21
-5.2411025196850396
0
LINE
8
BLACK
6
CONTINUOUS
10
5.722456299212598
20
-5.2411025196850396
11
5.7149572440944878
21
-5.2298539370078743
0
LINE
8
BLACK
6
CONTINUOUS
10
5.7149572440944878
20
-5.2298539370078743
11
5.7112077165354327
21
-5.222354881889764
0
LINE
8
BLACK
6
CONTINUOUS
10
5.7112077165354327
20
-5.222354881889764
11
5.7074581889763776
21
-5.2111062992125987
0
LINE
8
BLACK
6
CONTINUOUS
10
5.7074581889763776
20
-5.2111062992125987
11
5.7037086614173225
21
-5.1923586220472444
0
LINE
8
BLACK
6
CONTINUOUS
10
5.7037086614173225
20
-5.1923586220472444
11
5.7037086614173225
21
-5.1773605118110231
0
LINE
8
BLACK
6
CONTINUOUS
10
5.7037086614173225
20
-5.1773605118110231
11
5.7074581889763776
21
-5.1586128346456688
0
LINE
8
BLACK
6
CONTINUOUS
10
5.7074581889763776
20
-5.1586128346456688
11
5.7112077165354327
21
-5.1473642519685034
0
LINE
8
BLACK
6
CONTINUOUS
10
5.7112077165354327
20
-5.1473642519685034
11
5.7149572440944878
21
-5.1398651968503932
0
LINE
8
BLACK
6
CONTINUOUS
10
5.7149572440944878
20
-5.1398651968503932
11
5.722456299212598
21
-5.1286165748031491
0
LINE
8
BLACK
6
CONTINUOUS
10
5.722456299212598
20
-5.1286165748031491
11
5.7262058661417319
21
-5.124867047244094
0
LINE
8
BLACK
6
CONTINUOUS
10
5.7899478740157475
20
-5.1623623622047239
11
5.7899478740157475
21
-5.2148558267716538
0
LINE
8
BLACK
6
CONTINUOUS
10
5.7712001968503932
20
-5.132366141732283
11
5.7524525590551177
21
-5.1886090944881893
0
LINE
8
BLACK
6
CONTINUOUS
10
5.7524525590551177
20
-5.1886090944881893
11
5.8011964566929128
21
-5.1886090944881893
0
LINE
8
BLACK
6
CONTINUOUS
10
5.8911852362204726
20
-5.2148558267716538
11
5.8911852362204726
21
-5.1361156692913381
0
LINE
8
BLACK
6
CONTINUOUS
10
5.9249310236220474
20
-5.2148558267716538
11
5.9249310236220474
21
-5.173610984251968
0
LINE
8
BLACK
6
CONTINUOUS
10
5.9249310236220474
20
-5.173610984251968
11
5.9211814960629923
21
-5.166111889763779
0
LINE
8
BLACK
6
CONTINUOUS
10
5.9211814960629923
20
-5.166111889763779
11
5.913682440944882
21
-5.1623623622047239
0
LINE
8
BLACK
6
CONTINUOUS
10
5.913682440944882
20
-5.1623623622047239
11
5.902433818897638
21
-5.1623623622047239
0
LINE
8
BLACK
6
CONTINUOUS
10
5.902433818897638
20
-5.1623623622047239
11
5.8949347637795277
21
-5.166111889763779
0
LINE
8
BLACK
6
CONTINUOUS
10
5.8949347637795277
20
-5.166111889763779
11
5.8911852362204726
21
-5.1698614173228341
0
LINE
8
BLACK
6
CONTINUOUS
10
5.9736749212598426
20
-5.2148558267716538
11
5.9661758661417323
21
-5.2111062992125987
0
LINE
8
BLACK
6
CONTINUOUS
10
5.9661758661417323
20
-5.2111062992125987
11
5.9624263385826772
21
-5.2073567322834649
0
LINE
8
BLACK
6
CONTINUOUS
10
5.9624263385826772
20
-5.2073567322834649
11
5.9586768110236221
21
-5.1998576771653546
0
LINE
8
BLACK
6
CONTINUOUS
10
5.9586768110236221
20
-5.1998576771653546
11
5.9586768110236221
21
-5.1773605118110231
0
LINE
8
BLACK
6
CONTINUOUS
10
5.9586768110236221
20
-5.1773605118110231
11
5.9624263385826772
21
-5.1698614173228341
0
LINE
8
BLACK
6
CONTINUOUS
10
5.9624263385826772
20
-5.1698614173228341
11
5.9661758661417323
21
-5.166111889763779
0
LINE
8
BLACK
6
CONTINUOUS
10
5.9661758661417323
20
-5.166111889763779
11
5.9736749212598426
21
-5.1623623622047239
0
LINE
8
BLACK
6
CONTINUOUS
10
5.9736749212598426
20
-5.1623623622047239
11
5.9849235433070866
21
-5.1623623622047239
0
LINE
8
BLACK
6
CONTINUOUS
10
5.9849235433070866
20
-5.1623623622047239
11
5.9924225984251969
21
-5.166111889763779
0
LINE
8
BLACK
6
CONTINUOUS
10
5.9924225984251969
20
-5.166111889763779
11
5.996172125984252
21
-5.1698614173228341
0
LINE
8
BLACK
6
CONTINUOUS
10
5.996172125984252
20
-5.1698614173228341
11
5.9999216535433071
21
-5.1773605118110231
0
LINE
8
BLACK
6
CONTINUOUS
10
5.9999216535433071
20
-5.1773605118110231
11
5.9999216535433071
21
-5.1998576771653546
0
LINE
8
BLACK
6
CONTINUOUS
10
5.9999216535433071
20
-5.1998576771653546
11
5.996172125984252
21
-5.2073567322834649
0
LINE
8
BLACK
6
CONTINUOUS
10
5.996172125984252
20
-5.2073567322834649
11
5.9924225984251969
21
-5.2111062992125987
0
LINE
8
BLACK
6
CONTINUOUS
10
5.9924225984251969
20
-5.2111062992125987
11
5.9849235433070866
21
-5.2148558267716538
0
LINE
8
BLACK
6
CONTINUOUS
10
5.9849235433070866
20
-5.2148558267716538
11
5.9736749212598426
21
-5.2148558267716538
0
LINE
8
BLACK
6
CONTINUOUS
10
6.0449160236220472
20
-5.2148558267716538
11
6.0374169685039369
21
-5.2111062992125987
0
LINE
8
BLACK
6
CONTINUOUS
10
6.0374169685039369
20
-5.2111062992125987
11
6.0336674409448818
21
-5.2036072047244097
0
LINE
8
BLACK
6
CONTINUOUS
10
6.0336674409448818
20
-5.2036072047244097
11
6.0336674409448818
21
-5.1361156692913381
0
LINE
8
BLACK
6
CONTINUOUS
10
6.1049085433070864
20
-5.2111062992125987
11
6.0974094881889762
21
-5.2148558267716538
0
LINE
8
BLACK
6
CONTINUOUS
10
6.0974094881889762
20
-5.2148558267716538
11
6.082411338582677
21
-5.2148558267716538
0
LINE
8
BLACK
6
CONTINUOUS
10
6.082411338582677
20
-5.2148558267716538
11
6.0749122834645668
21
-5.2111062992125987
0
LINE
8
BLACK
6
CONTINUOUS
10
6.0749122834645668
20
-5.2111062992125987
11
6.0711627559055117
21
-5.2036072047244097
0
LINE
8
BLACK
6
CONTINUOUS
10
6.0711627559055117
20
-5.2036072047244097
11
6.0711627559055117
21
-5.173610984251968
0
LINE
8
BLACK
6
CONTINUOUS
10
6.0711627559055117
20
-5.173610984251968
11
6.0749122834645668
21
-5.166111889763779
0
LINE
8
BLACK
6
CONTINUOUS
10
6.0749122834645668
20
-5.166111889763779
11
6.082411338582677
21
-5.1623623622047239
0
LINE
8
BLACK
6
CONTINUOUS
10
6.082411338582677
20
-5.1623623622047239
11
6.0974094881889762
21
-5.1623623622047239
0
LINE
8
BLACK
6
CONTINUOUS
10
6.0974094881889762
20
-5.1623623622047239
11
6.1049085433070864
21
-5.166111889763779
0
LINE
8
BLACK
6
CONTINUOUS
10
6.1049085433070864
20
-5.166111889763779
11
6.1086580708661415
21
-5.173610984251968
0
LINE
8
BLACK
6
CONTINUOUS
10
6.1086580708661415
20
-5.173610984251968
11
6.1086580708661415
21
-5.1811100393700782
0
LINE
8
BLACK
6
CONTINUOUS
10
6.1086580708661415
20
-5.1811100393700782
11
6.0711627559055117
21
-5.1886090944881893
0
LINE
8
BLACK
6
CONTINUOUS
10
6.1386543307086612
20
-5.2111062992125987
11
6.1461533858267714
21
-5.2148558267716538
0
LINE
8
BLACK
6
CONTINUOUS
10
6.1461533858267714
20
-5.2148558267716538
11
6.1611514960629918
21
-5.2148558267716538
0
LINE
8
BLACK
6
CONTINUOUS
10
6.1611514960629918
20
-5.2148558267716538
11
6.1686505905511808
21
-5.2111062992125987
0
LINE
8
BLACK
6
CONTINUOUS
10
6.1686505905511808
20
-5.2111062992125987
11
6.1724001181102359
21
-5.2036072047244097
0
LINE
8
BLACK
6
CONTINUOUS
10
6.1724001181102359
20
-5.2036072047244097
11
6.1724001181102359
21
-5.1998576771653546
0
LINE
8
BLACK
6
CONTINUOUS
10
6.1724001181102359
20
-5.1998576771653546
11
6.1686505905511808
21
-5.1923586220472444
0
LINE
8
BLACK
6
CONTINUOUS
10
6.1686505905511808
20
-5.1923586220472444
11
6.1611514960629918
21
-5.1886090944881893
0
LINE
8
BLACK
6
CONTINUOUS
10
6.1611514960629918
20
-5.1886090944881893
11
6.1499029133858265
21
-5.1886090944881893
0
LINE
8
BLACK
6
CONTINUOUS
10
6.1499029133858265
20
-5.1886090944881893
11
6.1424038582677163
21
-5.1848595669291333
0
LINE
8
BLACK
6
CONTINUOUS
10
6.1424038582677163
20
-5.1848595669291333
11
6.1386543307086612
21
-5.1773605118110231
0
LINE
8
BLACK
6
CONTINUOUS
10
6.1386543307086612
20
-5.1773605118110231
11
6.1386543307086612
21
-5.173610984251968
0
LINE
8
BLACK
6
CONTINUOUS
10
6.1386543307086612
20
-5.173610984251968
11
6.1424038582677163
21
-5.166111889763779
0
LINE
8
BLACK
6
CONTINUOUS
10
6.1424038582677163
20
-5.166111889763779
11
6.1499029133858265
21
-5.1623623622047239
0
LINE
8
BLACK
6
CONTINUOUS
10
6.1499029133858265
20
-5.1623623622047239
11
6.1611514960629918
21
-5.1623623622047239
0
LINE
8
BLACK
6
CONTINUOUS
10
6.1611514960629918
20
-5.1623623622047239
11
6.1686505905511808
21
-5.166111889763779
0
LINE
8
BLACK
6
CONTINUOUS
10
6.1986468503937004
20
-5.2448520472440947
11
6.2023963779527556
21
-5.2411025196850396
0
LINE
8
BLACK
6
CONTINUOUS
10
6.2023963779527556
20
-5.2411025196850396
11
6.2098954330708658
21
-5.2298539370078743
0
LINE
8
BLACK
6
CONTINUOUS
10
6.2098954330708658
20
-5.2298539370078743
11
6.2136449606299209
21
-5.222354881889764
0
LINE
8
BLACK
6
CONTINUOUS
10
6.2136449606299209
20
-5.222354881889764
11
6.217394488188976
21
-5.2111062992125987
0
LINE
8
BLACK
6
CONTINUOUS
10
6.217394488188976
20
-5.2111062992125987
11
6.2211440157480311
21
-5.1923586220472444
0
LINE
8
BLACK
6
CONTINUOUS
10
6.2211440157480311
20
-5.1923586220472444
11
6.2211440157480311
21
-5.1773605118110231
0
LINE
8
BLACK
6
CONTINUOUS
10
6.2211440157480311
20
-5.1773605118110231
11
6.217394488188976
21
-5.1586128346456688
0
LINE
8
BLACK
6
CONTINUOUS
10
6.217394488188976
20
-5.1586128346456688
11
6.2136449606299209
21
-5.1473642519685034
0
LINE
8
BLACK
6
CONTINUOUS
10
6.2136449606299209
20
-5.1473642519685034
11
6.2098954330708658
21
-5.1398651968503932
0
LINE
8
BLACK
6
CONTINUOUS
10
6.2098954330708658
20
-5.1398651968503932
11
6.2023963779527556
21
-5.1286165748031491
0
LINE
8
BLACK
6
CONTINUOUS
10
6.2023963779527556
20
-5.1286165748031491
11
6.1986468503937004
21
-5.124867047244094
0
LINE
8
BLACK
6
CONTINUOUS
10
6.3411290551181105
20
-5.2448520472440947
11
6.3373794881889767
21
-5.2411025196850396
0
LINE
8
BLACK
6
CONTINUOUS
10
6.3373794881889767
20
-5.2411025196850396
11
6.3298804330708656
21
-5.2298539370078743
0
LINE
8
BLACK
6
CONTINUOUS
10
6.3298804330708656
20
-5.2298539370078743
11
6.3261309055118105
21
-5.222354881889764
0
LINE
8
BLACK
6
CONTINUOUS
10
6.3261309055118105
20
-5.222354881889764
11
6.3223813779527553
21
-5.2111062992125987
0
LINE
8
BLACK
6
CONTINUOUS
10
6.3223813779527553
20
-5.2111062992125987
11
6.3186318503937002
21
-5.1923586220472444
0
LINE
8
BLACK
6
CONTINUOUS
10
6.3186318503937002
20
-5.1923586220472444
11
6.3186318503937002
21
-5.1773605118110231
0
LINE
8
BLACK
6
CONTINUOUS
10
6.3186318503937002
20
-5.1773605118110231
11
6.3223813779527553
21
-5.1586128346456688
0
LINE
8
BLACK
6
CONTINUOUS
10
6.3223813779527553
20
-5.1586128346456688
11
6.3261309055118105
21
-5.1473642519685034
0
LINE
8
BLACK
6
CONTINUOUS
10
6.3261309055118105
20
-5.1473642519685034
11
6.3298804330708656
21
-5.1398651968503932
0
LINE
8
BLACK
6
CONTINUOUS
10
6.3298804330708656
20
-5.1398651968503932
11
6.3373794881889767
21
-5.1286165748031491
0
LINE
8
BLACK
6
CONTINUOUS
10
6.3373794881889767
20
-5.1286165748031491
11
6.3411290551181105
21
-5.124867047244094
0
LINE
8
BLACK
6
CONTINUOUS
10
6.3711252755905514
20
-5.1623623622047239
11
6.3711252755905514
21
-5.2148558267716538
0
LINE
8
BLACK
6
CONTINUOUS
10
6.3711252755905514
20
-5.1698614173228341
11
6.3748748031496065
21
-5.166111889763779
0
LINE
8
BLACK
6
CONTINUOUS
10
6.3748748031496065
20
-5.166111889763779
11
6.3823738582677167
21
-5.1623623622047239
0
LINE
8
BLACK
6
CONTINUOUS
10
6.3823738582677167
20
-5.1623623622047239
11
6.3936224803149608
21
-5.1623623622047239
0
LINE
8
BLACK
6
CONTINUOUS
10
6.3936224803149608
20
-5.1623623622047239
11
6.4011215354330711
21
-5.166111889763779
0
LINE
8
BLACK
6
CONTINUOUS
10
6.4011215354330711
20
-5.166111889763779
11
6.4048710629921262
21
-5.173610984251968
0
LINE
8
BLACK
6
CONTINUOUS
10
6.4048710629921262
20
-5.173610984251968
11
6.4048710629921262
21
-5.2148558267716538
0
LINE
8
BLACK
6
CONTINUOUS
10
6.4536149606299213
20
-5.2148558267716538
11
6.4461159055118111
21
-5.2111062992125987
0
LINE
8
BLACK
6
CONTINUOUS
10
6.4461159055118111
20
-5.2111062992125987
11
6.442366377952756
21
-5.2073567322834649
0
LINE
8
BLACK
6
CONTINUOUS
10
6.442366377952756
20
-5.2073567322834649
11
6.4386168503937009
21
-5.1998576771653546
0
LINE
8
BLACK
6
CONTINUOUS
10
6.4386168503937009
20
-5.1998576771653546
11
6.4386168503937009
21
-5.1773605118110231
0
LINE
8
BLACK
6
CONTINUOUS
10
6.4386168503937009
20
-5.1773605118110231
11
6.442366377952756
21
-5.1698614173228341
0
LINE
8
BLACK
6
CONTINUOUS
10
6.442366377952756
20
-5.1698614173228341
11
6.4461159055118111
21
-5.166111889763779
0
LINE
8
BLACK
6
CONTINUOUS
10
6.4461159055118111
20
-5.166111889763779
11
6.4536149606299213
21
-5.1623623622047239
0
LINE
8
BLACK
6
CONTINUOUS
10
6.4536149606299213
20
-5.1623623622047239
11
6.4648635826771654
21
-5.1623623622047239
0
LINE
8
BLACK
6
CONTINUOUS
10
6.4648635826771654
20
-5.1623623622047239
11
6.4723626377952757
21
-5.166111889763779
0
LINE
8
BLACK
6
CONTINUOUS
10
6.4723626377952757
20
-5.166111889763779
11
6.4761121653543308
21
-5.1698614173228341
0
LINE
8
BLACK
6
CONTINUOUS
10
6.4761121653543308
20
-5.1698614173228341
11
6.4798616929133859
21
-5.1773605118110231
0
LINE
8
BLACK
6
CONTINUOUS
10
6.4798616929133859
20
-5.1773605118110231
11
6.4798616929133859
21
-5.1998576771653546
0
LINE
8
BLACK
6
CONTINUOUS
10
6.4798616929133859
20
-5.1998576771653546
11
6.4761121653543308
21
-5.2073567322834649
0
LINE
8
BLACK
6
CONTINUOUS
10
6.4761121653543308
20
-5.2073567322834649
11
6.4723626377952757
21
-5.2111062992125987
0
LINE
8
BLACK
6
CONTINUOUS
10
6.4723626377952757
20
-5.2111062992125987
11
6.4648635826771654
21
-5.2148558267716538
0
LINE
8
BLACK
6
CONTINUOUS
10
6.4648635826771654
20
-5.2148558267716538
11
6.4536149606299213
21
-5.2148558267716538
0
LINE
8
BLACK
6
CONTINUOUS
10
6.5023588976377953
20
-5.1623623622047239
11
6.5323551181102362
21
-5.1623623622047239
0
LINE
8
BLACK
6
CONTINUOUS
10
6.5136074803149606
20
-5.1361156692913381
11
6.5136074803149606
21
-5.2036072047244097
0
LINE
8
BLACK
6
CONTINUOUS
10
6.5136074803149606
20
-5.2036072047244097
11
6.5173570078740157
21
-5.2111062992125987
0
LINE
8
BLACK
6
CONTINUOUS
10
6.5173570078740157
20
-5.2111062992125987
11
6.5248560629921259
21
-5.2148558267716538
0
LINE
8
BLACK
6
CONTINUOUS
10
6.5248560629921259
20
-5.2148558267716538
11
6.5323551181102362
21
-5.2148558267716538
0
LINE
8
BLACK
6
CONTINUOUS
10
6.61859437007874
20
-5.1623623622047239
11
6.61859437007874
21
-5.2411025196850396
0
LINE
8
BLACK
6
CONTINUOUS
10
6.61859437007874
20
-5.166111889763779
11
6.6260934251968502
21
-5.1623623622047239
0
LINE
8
BLACK
6
CONTINUOUS
10
6.6260934251968502
20
-5.1623623622047239
11
6.6410915748031494
21
-5.1623623622047239
0
LINE
8
BLACK
6
CONTINUOUS
10
6.6410915748031494
20
-5.1623623622047239
11
6.6485906299212596
21
-5.166111889763779
0
LINE
8
BLACK
6
CONTINUOUS
10
6.6485906299212596
20
-5.166111889763779
11
6.6523401574803147
21
-5.1698614173228341
0
LINE
8
BLACK
6
CONTINUOUS
10
6.6523401574803147
20
-5.1698614173228341
11
6.6560896850393698
21
-5.1773605118110231
0
LINE
8
BLACK
6
CONTINUOUS
10
6.6560896850393698
20
-5.1773605118110231
11
6.6560896850393698
21
-5.1998576771653546
0
LINE
8
BLACK
6
CONTINUOUS
10
6.6560896850393698
20
-5.1998576771653546
11
6.6523401574803147
21
-5.2073567322834649
0
LINE
8
BLACK
6
CONTINUOUS
10
6.6523401574803147
20
-5.2073567322834649
11
6.6485906299212596
21
-5.2111062992125987
0
LINE
8
BLACK
6
CONTINUOUS
10
6.6485906299212596
20
-5.2111062992125987
11
6.6410915748031494
21
-5.2148558267716538
0
LINE
8
BLACK
6
CONTINUOUS
10
6.6410915748031494
20
-5.2148558267716538
11
6.6260934251968502
21
-5.2148558267716538
0
LINE
8
BLACK
6
CONTINUOUS
10
6.6260934251968502
20
-5.2148558267716538
11
6.61859437007874
21
-5.2111062992125987
0
LINE
8
BLACK
6
CONTINUOUS
10
6.7010840551181099
20
-5.2148558267716538
11
6.6935849999999997
21
-5.2111062992125987
0
LINE
8
BLACK
6
CONTINUOUS
10
6.6935849999999997
20
-5.2111062992125987
11
6.6898354724409446
21
-5.2036072047244097
0
LINE
8
BLACK
6
CONTINUOUS
10
6.6898354724409446
20
-5.2036072047244097
11
6.6898354724409446
21
-5.1361156692913381
0
LINE
8
BLACK
6
CONTINUOUS
10
6.7648261023622043
20
-5.2148558267716538
11
6.7648261023622043
21
-5.173610984251968
0
LINE
8
BLACK
6
CONTINUOUS
10
6.7648261023622043
20
-5.173610984251968
11
6.7610765748031492
21
-5.166111889763779
0
LINE
8
BLACK
6
CONTINUOUS
10
6.7610765748031492
20
-5.166111889763779
11
6.7535775196850389
21
-5.1623623622047239
0
LINE
8
BLACK
6
CONTINUOUS
10
6.7535775196850389
20
-5.1623623622047239
11
6.7385793700787397
21
-5.1623623622047239
0
LINE
8
BLACK
6
CONTINUOUS
10
6.7385793700787397
20
-5.1623623622047239
11
6.7310803149606295
21
-5.166111889763779
0
LINE
8
BLACK
6
CONTINUOUS
10
6.7648261023622043
20
-5.2111062992125987
11
6.7573270472440941
21
-5.2148558267716538
0
LINE
8
BLACK
6
CONTINUOUS
10
6.7573270472440941
20
-5.2148558267716538
11
6.7385793700787397
21
-5.2148558267716538
0
LINE
8
BLACK
6
CONTINUOUS
10
6.7385793700787397
20
-5.2148558267716538
11
6.7310803149606295
21
-5.2111062992125987
0
LINE
8
BLACK
6
CONTINUOUS
10
6.7310803149606295
20
-5.2111062992125987
11
6.7273307874015744
21
-5.2036072047244097
0
LINE
8
BLACK
6
CONTINUOUS
10
6.7273307874015744
20
-5.2036072047244097
11
6.7273307874015744
21
-5.1961081496062995
0
LINE
8
BLACK
6
CONTINUOUS
10
6.7273307874015744
20
-5.1961081496062995
11
6.7310803149606295
21
-5.1886090944881893
0
LINE
8
BLACK
6
CONTINUOUS
10
6.7310803149606295
20
-5.1886090944881893
11
6.7385793700787397
21
-5.1848595669291333
0
LINE
8
BLACK
6
CONTINUOUS
10
6.7385793700787397
20
-5.1848595669291333
11
6.7573270472440941
21
-5.1848595669291333
0
LINE
8
BLACK
6
CONTINUOUS
10
6.7573270472440941
20
-5.1848595669291333
11
6.7648261023622043
21
-5.1811100393700782
0
LINE
8
BLACK
6
CONTINUOUS
10
6.7910728346456688
20
-5.1623623622047239
11
6.8210690551181097
21
-5.1623623622047239
0
LINE
8
BLACK
6
CONTINUOUS
10
6.8023214173228341
20
-5.1361156692913381
11
6.8023214173228341
21
-5.2036072047244097
0
LINE
8
BLACK
6
CONTINUOUS
10
6.8023214173228341
20
-5.2036072047244097
11
6.8060709448818892
21
-5.2111062992125987
0
LINE
8
BLACK
6
CONTINUOUS
10
6.8060709448818892
20
-5.2111062992125987
11
6.8135699999999995
21
-5.2148558267716538
0
LINE
8
BLACK
6
CONTINUOUS
10
6.8135699999999995
20
-5.2148558267716538
11
6.8210690551181097
21
-5.2148558267716538
0
LINE
8
BLACK
6
CONTINUOUS
10
6.8773120472440947
20
-5.2111062992125987
11
6.8698129921259845
21
-5.2148558267716538
0
LINE
8
BLACK
6
CONTINUOUS
10
6.8698129921259845
20
-5.2148558267716538
11
6.8548148425196853
21
-5.2148558267716538
0
LINE
8
BLACK
6
CONTINUOUS
10
6.8548148425196853
20
-5.2148558267716538
11
6.8473157874015742
21
-5.2111062992125987
0
LINE
8
BLACK
6
CONTINUOUS
10
6.8473157874015742
20
-5.2111062992125987
11
6.8435662598425191
21
-5.2036072047244097
0
LINE
8
BLACK
6
CONTINUOUS
10
6.8435662598425191
20
-5.2036072047244097
11
6.8435662598425191
21
-5.173610984251968
0
LINE
8
BLACK
6
CONTINUOUS
10
6.8435662598425191
20
-5.173610984251968
11
6.8473157874015742
21
-5.166111889763779
0
LINE
8
BLACK
6
CONTINUOUS
10
6.8473157874015742
20
-5.166111889763779
11
6.8548148425196853
21
-5.1623623622047239
0
LINE
8
BLACK
6
CONTINUOUS
10
6.8548148425196853
20
-5.1623623622047239
11
6.8698129921259845
21
-5.1623623622047239
0
LINE
8
BLACK
6
CONTINUOUS
10
6.8698129921259845
20
-5.1623623622047239
11
6.8773120472440947
21
-5.166111889763779
0
LINE
8
BLACK
6
CONTINUOUS
10
6.8773120472440947
20
-5.166111889763779
11
6.8810615748031498
21
-5.173610984251968
0
LINE
8
BLACK
6
CONTINUOUS
10
6.8810615748031498
20
-5.173610984251968
11
6.8810615748031498
21
-5.1811100393700782
0
LINE
8
BLACK
6
CONTINUOUS
10
6.8810615748031498
20
-5.1811100393700782
11
6.8435662598425191
21
-5.1886090944881893
0
LINE
8
BLACK
6
CONTINUOUS
10
6.9485531496062993
20
-5.2148558267716538
11
6.9485531496062993
21
-5.1361156692913381
0
LINE
8
BLACK
6
CONTINUOUS
10
6.9485531496062993
20
-5.2111062992125987
11
6.9410540944881891
21
-5.2148558267716538
0
LINE
8
BLACK
6
CONTINUOUS
10
6.9410540944881891
20
-5.2148558267716538
11
6.9260559448818899
21
-5.2148558267716538
0
LINE
8
BLACK
6
CONTINUOUS
10
6.9260559448818899
20
-5.2148558267716538
11
6.9185568897637797
21
-5.2111062992125987
0
LINE
8
BLACK
6
CONTINUOUS
10
6.9185568897637797
20
-5.2111062992125987
11
6.9148073622047246
21
-5.2073567322834649
0
LINE
8
BLACK
6
CONTINUOUS
10
6.9148073622047246
20
-5.2073567322834649
11
6.9110578346456695
21
-5.1998576771653546
0
LINE
8
BLACK
6
CONTINUOUS
10
6.9110578346456695
20
-5.1998576771653546
11
6.9110578346456695
21
-5.1773605118110231
0
LINE
8
BLACK
6
CONTINUOUS
10
6.9110578346456695
20
-5.1773605118110231
11
6.9148073622047246
21
-5.1698614173228341
0
LINE
8
BLACK
6
CONTINUOUS
10
6.9148073622047246
20
-5.1698614173228341
11
6.9185568897637797
21
-5.166111889763779
0
LINE
8
BLACK
6
CONTINUOUS
10
6.9185568897637797
20
-5.166111889763779
11
6.9260559448818899
21
-5.1623623622047239
0
LINE
8
BLACK
6
CONTINUOUS
10
6.9260559448818899
20
-5.1623623622047239
11
6.9410540944881891
21
-5.1623623622047239
0
LINE
8
BLACK
6
CONTINUOUS
10
6.9410540944881891
20
-5.1623623622047239
11
6.9485531496062993
21
-5.166111889763779
0
LINE
8
BLACK
6
CONTINUOUS
10
6.978549409448819
20
-5.2448520472440947
11
6.9822989370078741
21
-5.2411025196850396
0
LINE
8
BLACK
6
CONTINUOUS
10
6.9822989370078741
20
-5.2411025196850396
11
6.9897979921259843
21
-5.2298539370078743
0
LINE
8
BLACK
6
CONTINUOUS
10
6.9897979921259843
20
-5.2298539370078743
11
6.9935475196850394
21
-5.222354881889764
0
LINE
8
BLACK
6
CONTINUOUS
10
6.9935475196850394
20
-5.222354881889764
11
6.9972970472440945
21
-5.2111062992125987
0
LINE
8
BLACK
6
CONTINUOUS
10
6.9972970472440945
20
-5.2111062992125987
11
7.0010465748031496
21
-5.1923586220472444
0
LINE
8
BLACK
6
CONTINUOUS
10
7.0010465748031496
20
-5.1923586220472444
11
7.0010465748031496
21
-5.1773605118110231
0
LINE
8
BLACK
6
CONTINUOUS
10
7.0010465748031496
20
-5.1773605118110231
11
6.9972970472440945
21
-5.1586128346456688
0
LINE
8
BLACK
6
CONTINUOUS
10
6.9972970472440945
20
-5.1586128346456688
11
6.9935475196850394
21
-5.1473642519685034
0
LINE
8
BLACK
6
CONTINUOUS
10
6.9935475196850394
20
-5.1473642519685034
11
6.9897979921259843
21
-5.1398651968503932
0
LINE
8
BLACK
6
CONTINUOUS
10
6.9897979921259843
20
-5.1398651968503932
11
6.9822989370078741
21
-5.1286165748031491
0
LINE
8
BLACK
6
CONTINUOUS
10
6.9822989370078741
20
-5.1286165748031491
11
6.978549409448819
21
-5.124867047244094
  0
ENDSEC
  0
EOF
