%TF.GenerationSoftware,KiCad,Pcbnew,7.0.0*%
%TF.CreationDate,2023-11-15T23:16:34+08:00*%
%TF.ProjectId,Explorer,4578706c-6f72-4657-922e-6b696361645f,rev?*%
%TF.SameCoordinates,Original*%
%TF.FileFunction,Paste,Top*%
%TF.FilePolarity,Positive*%
%FSLAX46Y46*%
G04 Gerber Fmt 4.6, Leading zero omitted, Abs format (unit mm)*
G04 Created by KiCad (PCBNEW 7.0.0) date 2023-11-15 23:16:34*
%MOMM*%
%LPD*%
G01*
G04 APERTURE LIST*
G04 Aperture macros list*
%AMRoundRect*
0 Rectangle with rounded corners*
0 $1 Rounding radius*
0 $2 $3 $4 $5 $6 $7 $8 $9 X,Y pos of 4 corners*
0 Add a 4 corners polygon primitive as box body*
4,1,4,$2,$3,$4,$5,$6,$7,$8,$9,$2,$3,0*
0 Add four circle primitives for the rounded corners*
1,1,$1+$1,$2,$3*
1,1,$1+$1,$4,$5*
1,1,$1+$1,$6,$7*
1,1,$1+$1,$8,$9*
0 Add four rect primitives between the rounded corners*
20,1,$1+$1,$2,$3,$4,$5,0*
20,1,$1+$1,$4,$5,$6,$7,0*
20,1,$1+$1,$6,$7,$8,$9,0*
20,1,$1+$1,$8,$9,$2,$3,0*%
G04 Aperture macros list end*
%ADD10RoundRect,0.250000X-0.400000X-1.075000X0.400000X-1.075000X0.400000X1.075000X-0.400000X1.075000X0*%
%ADD11RoundRect,0.250000X-1.050000X-0.550000X1.050000X-0.550000X1.050000X0.550000X-1.050000X0.550000X0*%
%ADD12RoundRect,0.250000X-1.250000X-0.550000X1.250000X-0.550000X1.250000X0.550000X-1.250000X0.550000X0*%
%ADD13RoundRect,0.250000X-1.500000X-0.550000X1.500000X-0.550000X1.500000X0.550000X-1.500000X0.550000X0*%
%ADD14RoundRect,0.075000X-0.662500X-0.075000X0.662500X-0.075000X0.662500X0.075000X-0.662500X0.075000X0*%
%ADD15RoundRect,0.075000X-0.075000X-0.662500X0.075000X-0.662500X0.075000X0.662500X-0.075000X0.662500X0*%
%ADD16RoundRect,0.250001X-0.462499X-1.074999X0.462499X-1.074999X0.462499X1.074999X-0.462499X1.074999X0*%
%ADD17R,1.120000X2.160000*%
%ADD18RoundRect,0.150000X-0.825000X-0.150000X0.825000X-0.150000X0.825000X0.150000X-0.825000X0.150000X0*%
%ADD19RoundRect,0.100000X-0.100000X0.637500X-0.100000X-0.637500X0.100000X-0.637500X0.100000X0.637500X0*%
%ADD20R,1.400000X0.400000*%
%ADD21R,1.450000X1.150000*%
%ADD22R,1.900000X1.750000*%
%ADD23RoundRect,0.250000X0.400000X1.075000X-0.400000X1.075000X-0.400000X-1.075000X0.400000X-1.075000X0*%
%ADD24R,1.600000X2.180000*%
G04 APERTURE END LIST*
D10*
%TO.C,R9*%
X140085000Y-103652500D03*
X143185000Y-103652500D03*
%TD*%
D11*
%TO.C,C7*%
X161795000Y-108892500D03*
X165395000Y-108892500D03*
%TD*%
D10*
%TO.C,R5*%
X140095000Y-99002500D03*
X143195000Y-99002500D03*
%TD*%
D12*
%TO.C,C11*%
X174845000Y-91842500D03*
X179245000Y-91842500D03*
%TD*%
D13*
%TO.C,C3*%
X174595000Y-83392500D03*
X179995000Y-83392500D03*
%TD*%
D11*
%TO.C,C1*%
X161795000Y-102242500D03*
X165395000Y-102242500D03*
%TD*%
%TO.C,C4*%
X161795000Y-95692500D03*
X165395000Y-95692500D03*
%TD*%
D14*
%TO.C,U4*%
X136782500Y-86205000D03*
X136782500Y-86705000D03*
X136782500Y-87205000D03*
X136782500Y-87705000D03*
X136782500Y-88205000D03*
X136782500Y-88705000D03*
X136782500Y-89205000D03*
X136782500Y-89705000D03*
X136782500Y-90205000D03*
X136782500Y-90705000D03*
X136782500Y-91205000D03*
X136782500Y-91705000D03*
D15*
X138195000Y-93117500D03*
X138695000Y-93117500D03*
X139195000Y-93117500D03*
X139695000Y-93117500D03*
X140195000Y-93117500D03*
X140695000Y-93117500D03*
X141195000Y-93117500D03*
X141695000Y-93117500D03*
X142195000Y-93117500D03*
X142695000Y-93117500D03*
X143195000Y-93117500D03*
X143695000Y-93117500D03*
D14*
X145107500Y-91705000D03*
X145107500Y-91205000D03*
X145107500Y-90705000D03*
X145107500Y-90205000D03*
X145107500Y-89705000D03*
X145107500Y-89205000D03*
X145107500Y-88705000D03*
X145107500Y-88205000D03*
X145107500Y-87705000D03*
X145107500Y-87205000D03*
X145107500Y-86705000D03*
X145107500Y-86205000D03*
D15*
X143695000Y-84792500D03*
X143195000Y-84792500D03*
X142695000Y-84792500D03*
X142195000Y-84792500D03*
X141695000Y-84792500D03*
X141195000Y-84792500D03*
X140695000Y-84792500D03*
X140195000Y-84792500D03*
X139695000Y-84792500D03*
X139195000Y-84792500D03*
X138695000Y-84792500D03*
X138195000Y-84792500D03*
%TD*%
D10*
%TO.C,R7*%
X151575000Y-99142500D03*
X154675000Y-99142500D03*
%TD*%
%TO.C,R8*%
X145795000Y-103642500D03*
X148895000Y-103642500D03*
%TD*%
D16*
%TO.C,D2*%
X166757500Y-74242500D03*
X169732500Y-74242500D03*
%TD*%
D17*
%TO.C,SW1*%
X185234999Y-93902499D03*
X185234999Y-100632499D03*
%TD*%
D16*
%TO.C,D1*%
X174057500Y-74242500D03*
X177032500Y-74242500D03*
%TD*%
D10*
%TO.C,R6*%
X145765000Y-99002500D03*
X148865000Y-99002500D03*
%TD*%
D16*
%TO.C,D4*%
X182695000Y-111192500D03*
X185670000Y-111192500D03*
%TD*%
D18*
%TO.C,U3*%
X163945000Y-81635000D03*
X163945000Y-82905000D03*
X163945000Y-84175000D03*
X163945000Y-85445000D03*
X163945000Y-86715000D03*
X163945000Y-87985000D03*
X163945000Y-89255000D03*
X163945000Y-90525000D03*
X168895000Y-90525000D03*
X168895000Y-89255000D03*
X168895000Y-87985000D03*
X168895000Y-86715000D03*
X168895000Y-85445000D03*
X168895000Y-84175000D03*
X168895000Y-82905000D03*
X168895000Y-81635000D03*
%TD*%
D11*
%TO.C,C8*%
X170445000Y-108892500D03*
X174045000Y-108892500D03*
%TD*%
D16*
%TO.C,D3*%
X182663043Y-106322500D03*
X185638043Y-106322500D03*
%TD*%
D19*
%TO.C,U1*%
X154750000Y-107610000D03*
X154100000Y-107610000D03*
X153450000Y-107610000D03*
X152800000Y-107610000D03*
X152150000Y-107610000D03*
X151500000Y-107610000D03*
X150850000Y-107610000D03*
X150200000Y-107610000D03*
X149550000Y-107610000D03*
X148900000Y-107610000D03*
X148250000Y-107610000D03*
X147600000Y-107610000D03*
X146950000Y-107610000D03*
X146300000Y-107610000D03*
X146300000Y-113335000D03*
X146950000Y-113335000D03*
X147600000Y-113335000D03*
X148250000Y-113335000D03*
X148900000Y-113335000D03*
X149550000Y-113335000D03*
X150200000Y-113335000D03*
X150850000Y-113335000D03*
X151500000Y-113335000D03*
X152150000Y-113335000D03*
X152800000Y-113335000D03*
X153450000Y-113335000D03*
X154100000Y-113335000D03*
X154750000Y-113335000D03*
%TD*%
D11*
%TO.C,C17*%
X131245000Y-96442500D03*
X134845000Y-96442500D03*
%TD*%
D10*
%TO.C,R15*%
X131605000Y-102312500D03*
X134705000Y-102312500D03*
%TD*%
D17*
%TO.C,SW2*%
X154754999Y-79122499D03*
X157294999Y-79122499D03*
X157294999Y-72392499D03*
X154754999Y-72392499D03*
%TD*%
D20*
%TO.C,J1*%
X185130999Y-86312499D03*
X185130999Y-85662499D03*
X185130999Y-85012499D03*
X185130999Y-84362499D03*
X185130999Y-83712499D03*
D21*
X185550999Y-87332499D03*
D22*
X187780999Y-86137499D03*
X187780999Y-83887499D03*
D21*
X185550999Y-82692499D03*
%TD*%
D10*
%TO.C,R4*%
X151645000Y-103692500D03*
X154745000Y-103692500D03*
%TD*%
D23*
%TO.C,R3*%
X143185000Y-108342500D03*
X140085000Y-108342500D03*
%TD*%
D11*
%TO.C,C10*%
X174995000Y-99992500D03*
X178595000Y-99992500D03*
%TD*%
D24*
%TO.C,SW3*%
X114594999Y-87402499D03*
X114594999Y-96582499D03*
%TD*%
M02*
