%TF.GenerationSoftware,KiCad,Pcbnew,7.0.9*%
%TF.CreationDate,2023-12-07T12:09:41+08:00*%
%TF.ProjectId,Explorer,4578706c-6f72-4657-922e-6b696361645f,rev?*%
%TF.SameCoordinates,Original*%
%TF.FileFunction,Legend,Bot*%
%TF.FilePolarity,Positive*%
%FSLAX46Y46*%
G04 Gerber Fmt 4.6, Leading zero omitted, Abs format (unit mm)*
G04 Created by KiCad (PCBNEW 7.0.9) date 2023-12-07 12:09:41*
%MOMM*%
%LPD*%
G01*
G04 APERTURE LIST*
%ADD10C,0.150000*%
%ADD11C,0.120000*%
G04 APERTURE END LIST*
D10*
X124552857Y-121034819D02*
X124886190Y-120558628D01*
X125124285Y-121034819D02*
X125124285Y-120034819D01*
X125124285Y-120034819D02*
X124743333Y-120034819D01*
X124743333Y-120034819D02*
X124648095Y-120082438D01*
X124648095Y-120082438D02*
X124600476Y-120130057D01*
X124600476Y-120130057D02*
X124552857Y-120225295D01*
X124552857Y-120225295D02*
X124552857Y-120368152D01*
X124552857Y-120368152D02*
X124600476Y-120463390D01*
X124600476Y-120463390D02*
X124648095Y-120511009D01*
X124648095Y-120511009D02*
X124743333Y-120558628D01*
X124743333Y-120558628D02*
X125124285Y-120558628D01*
X123600476Y-121034819D02*
X124171904Y-121034819D01*
X123886190Y-121034819D02*
X123886190Y-120034819D01*
X123886190Y-120034819D02*
X123981428Y-120177676D01*
X123981428Y-120177676D02*
X124076666Y-120272914D01*
X124076666Y-120272914D02*
X124171904Y-120320533D01*
X123029047Y-120463390D02*
X123124285Y-120415771D01*
X123124285Y-120415771D02*
X123171904Y-120368152D01*
X123171904Y-120368152D02*
X123219523Y-120272914D01*
X123219523Y-120272914D02*
X123219523Y-120225295D01*
X123219523Y-120225295D02*
X123171904Y-120130057D01*
X123171904Y-120130057D02*
X123124285Y-120082438D01*
X123124285Y-120082438D02*
X123029047Y-120034819D01*
X123029047Y-120034819D02*
X122838571Y-120034819D01*
X122838571Y-120034819D02*
X122743333Y-120082438D01*
X122743333Y-120082438D02*
X122695714Y-120130057D01*
X122695714Y-120130057D02*
X122648095Y-120225295D01*
X122648095Y-120225295D02*
X122648095Y-120272914D01*
X122648095Y-120272914D02*
X122695714Y-120368152D01*
X122695714Y-120368152D02*
X122743333Y-120415771D01*
X122743333Y-120415771D02*
X122838571Y-120463390D01*
X122838571Y-120463390D02*
X123029047Y-120463390D01*
X123029047Y-120463390D02*
X123124285Y-120511009D01*
X123124285Y-120511009D02*
X123171904Y-120558628D01*
X123171904Y-120558628D02*
X123219523Y-120653866D01*
X123219523Y-120653866D02*
X123219523Y-120844342D01*
X123219523Y-120844342D02*
X123171904Y-120939580D01*
X123171904Y-120939580D02*
X123124285Y-120987200D01*
X123124285Y-120987200D02*
X123029047Y-121034819D01*
X123029047Y-121034819D02*
X122838571Y-121034819D01*
X122838571Y-121034819D02*
X122743333Y-120987200D01*
X122743333Y-120987200D02*
X122695714Y-120939580D01*
X122695714Y-120939580D02*
X122648095Y-120844342D01*
X122648095Y-120844342D02*
X122648095Y-120653866D01*
X122648095Y-120653866D02*
X122695714Y-120558628D01*
X122695714Y-120558628D02*
X122743333Y-120511009D01*
X122743333Y-120511009D02*
X122838571Y-120463390D01*
X122199866Y-72344819D02*
X122533199Y-71868628D01*
X122771294Y-72344819D02*
X122771294Y-71344819D01*
X122771294Y-71344819D02*
X122390342Y-71344819D01*
X122390342Y-71344819D02*
X122295104Y-71392438D01*
X122295104Y-71392438D02*
X122247485Y-71440057D01*
X122247485Y-71440057D02*
X122199866Y-71535295D01*
X122199866Y-71535295D02*
X122199866Y-71678152D01*
X122199866Y-71678152D02*
X122247485Y-71773390D01*
X122247485Y-71773390D02*
X122295104Y-71821009D01*
X122295104Y-71821009D02*
X122390342Y-71868628D01*
X122390342Y-71868628D02*
X122771294Y-71868628D01*
X121818913Y-71440057D02*
X121771294Y-71392438D01*
X121771294Y-71392438D02*
X121676056Y-71344819D01*
X121676056Y-71344819D02*
X121437961Y-71344819D01*
X121437961Y-71344819D02*
X121342723Y-71392438D01*
X121342723Y-71392438D02*
X121295104Y-71440057D01*
X121295104Y-71440057D02*
X121247485Y-71535295D01*
X121247485Y-71535295D02*
X121247485Y-71630533D01*
X121247485Y-71630533D02*
X121295104Y-71773390D01*
X121295104Y-71773390D02*
X121866532Y-72344819D01*
X121866532Y-72344819D02*
X121247485Y-72344819D01*
X163272857Y-120994819D02*
X163606190Y-120518628D01*
X163844285Y-120994819D02*
X163844285Y-119994819D01*
X163844285Y-119994819D02*
X163463333Y-119994819D01*
X163463333Y-119994819D02*
X163368095Y-120042438D01*
X163368095Y-120042438D02*
X163320476Y-120090057D01*
X163320476Y-120090057D02*
X163272857Y-120185295D01*
X163272857Y-120185295D02*
X163272857Y-120328152D01*
X163272857Y-120328152D02*
X163320476Y-120423390D01*
X163320476Y-120423390D02*
X163368095Y-120471009D01*
X163368095Y-120471009D02*
X163463333Y-120518628D01*
X163463333Y-120518628D02*
X163844285Y-120518628D01*
X162320476Y-120994819D02*
X162891904Y-120994819D01*
X162606190Y-120994819D02*
X162606190Y-119994819D01*
X162606190Y-119994819D02*
X162701428Y-120137676D01*
X162701428Y-120137676D02*
X162796666Y-120232914D01*
X162796666Y-120232914D02*
X162891904Y-120280533D01*
X161844285Y-120994819D02*
X161653809Y-120994819D01*
X161653809Y-120994819D02*
X161558571Y-120947200D01*
X161558571Y-120947200D02*
X161510952Y-120899580D01*
X161510952Y-120899580D02*
X161415714Y-120756723D01*
X161415714Y-120756723D02*
X161368095Y-120566247D01*
X161368095Y-120566247D02*
X161368095Y-120185295D01*
X161368095Y-120185295D02*
X161415714Y-120090057D01*
X161415714Y-120090057D02*
X161463333Y-120042438D01*
X161463333Y-120042438D02*
X161558571Y-119994819D01*
X161558571Y-119994819D02*
X161749047Y-119994819D01*
X161749047Y-119994819D02*
X161844285Y-120042438D01*
X161844285Y-120042438D02*
X161891904Y-120090057D01*
X161891904Y-120090057D02*
X161939523Y-120185295D01*
X161939523Y-120185295D02*
X161939523Y-120423390D01*
X161939523Y-120423390D02*
X161891904Y-120518628D01*
X161891904Y-120518628D02*
X161844285Y-120566247D01*
X161844285Y-120566247D02*
X161749047Y-120613866D01*
X161749047Y-120613866D02*
X161558571Y-120613866D01*
X161558571Y-120613866D02*
X161463333Y-120566247D01*
X161463333Y-120566247D02*
X161415714Y-120518628D01*
X161415714Y-120518628D02*
X161368095Y-120423390D01*
X157592462Y-100029180D02*
X157640081Y-100076800D01*
X157640081Y-100076800D02*
X157782938Y-100124419D01*
X157782938Y-100124419D02*
X157878176Y-100124419D01*
X157878176Y-100124419D02*
X158021033Y-100076800D01*
X158021033Y-100076800D02*
X158116271Y-99981561D01*
X158116271Y-99981561D02*
X158163890Y-99886323D01*
X158163890Y-99886323D02*
X158211509Y-99695847D01*
X158211509Y-99695847D02*
X158211509Y-99552990D01*
X158211509Y-99552990D02*
X158163890Y-99362514D01*
X158163890Y-99362514D02*
X158116271Y-99267276D01*
X158116271Y-99267276D02*
X158021033Y-99172038D01*
X158021033Y-99172038D02*
X157878176Y-99124419D01*
X157878176Y-99124419D02*
X157782938Y-99124419D01*
X157782938Y-99124419D02*
X157640081Y-99172038D01*
X157640081Y-99172038D02*
X157592462Y-99219657D01*
X157211509Y-99219657D02*
X157163890Y-99172038D01*
X157163890Y-99172038D02*
X157068652Y-99124419D01*
X157068652Y-99124419D02*
X156830557Y-99124419D01*
X156830557Y-99124419D02*
X156735319Y-99172038D01*
X156735319Y-99172038D02*
X156687700Y-99219657D01*
X156687700Y-99219657D02*
X156640081Y-99314895D01*
X156640081Y-99314895D02*
X156640081Y-99410133D01*
X156640081Y-99410133D02*
X156687700Y-99552990D01*
X156687700Y-99552990D02*
X157259128Y-100124419D01*
X157259128Y-100124419D02*
X156640081Y-100124419D01*
X175684057Y-88524280D02*
X175731676Y-88571900D01*
X175731676Y-88571900D02*
X175874533Y-88619519D01*
X175874533Y-88619519D02*
X175969771Y-88619519D01*
X175969771Y-88619519D02*
X176112628Y-88571900D01*
X176112628Y-88571900D02*
X176207866Y-88476661D01*
X176207866Y-88476661D02*
X176255485Y-88381423D01*
X176255485Y-88381423D02*
X176303104Y-88190947D01*
X176303104Y-88190947D02*
X176303104Y-88048090D01*
X176303104Y-88048090D02*
X176255485Y-87857614D01*
X176255485Y-87857614D02*
X176207866Y-87762376D01*
X176207866Y-87762376D02*
X176112628Y-87667138D01*
X176112628Y-87667138D02*
X175969771Y-87619519D01*
X175969771Y-87619519D02*
X175874533Y-87619519D01*
X175874533Y-87619519D02*
X175731676Y-87667138D01*
X175731676Y-87667138D02*
X175684057Y-87714757D01*
X174731676Y-88619519D02*
X175303104Y-88619519D01*
X175017390Y-88619519D02*
X175017390Y-87619519D01*
X175017390Y-87619519D02*
X175112628Y-87762376D01*
X175112628Y-87762376D02*
X175207866Y-87857614D01*
X175207866Y-87857614D02*
X175303104Y-87905233D01*
X174350723Y-87714757D02*
X174303104Y-87667138D01*
X174303104Y-87667138D02*
X174207866Y-87619519D01*
X174207866Y-87619519D02*
X173969771Y-87619519D01*
X173969771Y-87619519D02*
X173874533Y-87667138D01*
X173874533Y-87667138D02*
X173826914Y-87714757D01*
X173826914Y-87714757D02*
X173779295Y-87809995D01*
X173779295Y-87809995D02*
X173779295Y-87905233D01*
X173779295Y-87905233D02*
X173826914Y-88048090D01*
X173826914Y-88048090D02*
X174398342Y-88619519D01*
X174398342Y-88619519D02*
X173779295Y-88619519D01*
X173083457Y-114932619D02*
X173416790Y-114456428D01*
X173654885Y-114932619D02*
X173654885Y-113932619D01*
X173654885Y-113932619D02*
X173273933Y-113932619D01*
X173273933Y-113932619D02*
X173178695Y-113980238D01*
X173178695Y-113980238D02*
X173131076Y-114027857D01*
X173131076Y-114027857D02*
X173083457Y-114123095D01*
X173083457Y-114123095D02*
X173083457Y-114265952D01*
X173083457Y-114265952D02*
X173131076Y-114361190D01*
X173131076Y-114361190D02*
X173178695Y-114408809D01*
X173178695Y-114408809D02*
X173273933Y-114456428D01*
X173273933Y-114456428D02*
X173654885Y-114456428D01*
X172702504Y-114027857D02*
X172654885Y-113980238D01*
X172654885Y-113980238D02*
X172559647Y-113932619D01*
X172559647Y-113932619D02*
X172321552Y-113932619D01*
X172321552Y-113932619D02*
X172226314Y-113980238D01*
X172226314Y-113980238D02*
X172178695Y-114027857D01*
X172178695Y-114027857D02*
X172131076Y-114123095D01*
X172131076Y-114123095D02*
X172131076Y-114218333D01*
X172131076Y-114218333D02*
X172178695Y-114361190D01*
X172178695Y-114361190D02*
X172750123Y-114932619D01*
X172750123Y-114932619D02*
X172131076Y-114932619D01*
X171512028Y-113932619D02*
X171416790Y-113932619D01*
X171416790Y-113932619D02*
X171321552Y-113980238D01*
X171321552Y-113980238D02*
X171273933Y-114027857D01*
X171273933Y-114027857D02*
X171226314Y-114123095D01*
X171226314Y-114123095D02*
X171178695Y-114313571D01*
X171178695Y-114313571D02*
X171178695Y-114551666D01*
X171178695Y-114551666D02*
X171226314Y-114742142D01*
X171226314Y-114742142D02*
X171273933Y-114837380D01*
X171273933Y-114837380D02*
X171321552Y-114885000D01*
X171321552Y-114885000D02*
X171416790Y-114932619D01*
X171416790Y-114932619D02*
X171512028Y-114932619D01*
X171512028Y-114932619D02*
X171607266Y-114885000D01*
X171607266Y-114885000D02*
X171654885Y-114837380D01*
X171654885Y-114837380D02*
X171702504Y-114742142D01*
X171702504Y-114742142D02*
X171750123Y-114551666D01*
X171750123Y-114551666D02*
X171750123Y-114313571D01*
X171750123Y-114313571D02*
X171702504Y-114123095D01*
X171702504Y-114123095D02*
X171654885Y-114027857D01*
X171654885Y-114027857D02*
X171607266Y-113980238D01*
X171607266Y-113980238D02*
X171512028Y-113932619D01*
X153974704Y-88532619D02*
X153974704Y-89342142D01*
X153974704Y-89342142D02*
X153927085Y-89437380D01*
X153927085Y-89437380D02*
X153879466Y-89485000D01*
X153879466Y-89485000D02*
X153784228Y-89532619D01*
X153784228Y-89532619D02*
X153593752Y-89532619D01*
X153593752Y-89532619D02*
X153498514Y-89485000D01*
X153498514Y-89485000D02*
X153450895Y-89437380D01*
X153450895Y-89437380D02*
X153403276Y-89342142D01*
X153403276Y-89342142D02*
X153403276Y-88532619D01*
X153022323Y-88532619D02*
X152403276Y-88532619D01*
X152403276Y-88532619D02*
X152736609Y-88913571D01*
X152736609Y-88913571D02*
X152593752Y-88913571D01*
X152593752Y-88913571D02*
X152498514Y-88961190D01*
X152498514Y-88961190D02*
X152450895Y-89008809D01*
X152450895Y-89008809D02*
X152403276Y-89104047D01*
X152403276Y-89104047D02*
X152403276Y-89342142D01*
X152403276Y-89342142D02*
X152450895Y-89437380D01*
X152450895Y-89437380D02*
X152498514Y-89485000D01*
X152498514Y-89485000D02*
X152593752Y-89532619D01*
X152593752Y-89532619D02*
X152879466Y-89532619D01*
X152879466Y-89532619D02*
X152974704Y-89485000D01*
X152974704Y-89485000D02*
X153022323Y-89437380D01*
X134145257Y-114881819D02*
X134478590Y-114405628D01*
X134716685Y-114881819D02*
X134716685Y-113881819D01*
X134716685Y-113881819D02*
X134335733Y-113881819D01*
X134335733Y-113881819D02*
X134240495Y-113929438D01*
X134240495Y-113929438D02*
X134192876Y-113977057D01*
X134192876Y-113977057D02*
X134145257Y-114072295D01*
X134145257Y-114072295D02*
X134145257Y-114215152D01*
X134145257Y-114215152D02*
X134192876Y-114310390D01*
X134192876Y-114310390D02*
X134240495Y-114358009D01*
X134240495Y-114358009D02*
X134335733Y-114405628D01*
X134335733Y-114405628D02*
X134716685Y-114405628D01*
X133192876Y-114881819D02*
X133764304Y-114881819D01*
X133478590Y-114881819D02*
X133478590Y-113881819D01*
X133478590Y-113881819D02*
X133573828Y-114024676D01*
X133573828Y-114024676D02*
X133669066Y-114119914D01*
X133669066Y-114119914D02*
X133764304Y-114167533D01*
X132859542Y-113881819D02*
X132192876Y-113881819D01*
X132192876Y-113881819D02*
X132621447Y-114881819D01*
X132862057Y-98238380D02*
X132909676Y-98286000D01*
X132909676Y-98286000D02*
X133052533Y-98333619D01*
X133052533Y-98333619D02*
X133147771Y-98333619D01*
X133147771Y-98333619D02*
X133290628Y-98286000D01*
X133290628Y-98286000D02*
X133385866Y-98190761D01*
X133385866Y-98190761D02*
X133433485Y-98095523D01*
X133433485Y-98095523D02*
X133481104Y-97905047D01*
X133481104Y-97905047D02*
X133481104Y-97762190D01*
X133481104Y-97762190D02*
X133433485Y-97571714D01*
X133433485Y-97571714D02*
X133385866Y-97476476D01*
X133385866Y-97476476D02*
X133290628Y-97381238D01*
X133290628Y-97381238D02*
X133147771Y-97333619D01*
X133147771Y-97333619D02*
X133052533Y-97333619D01*
X133052533Y-97333619D02*
X132909676Y-97381238D01*
X132909676Y-97381238D02*
X132862057Y-97428857D01*
X132481104Y-97428857D02*
X132433485Y-97381238D01*
X132433485Y-97381238D02*
X132338247Y-97333619D01*
X132338247Y-97333619D02*
X132100152Y-97333619D01*
X132100152Y-97333619D02*
X132004914Y-97381238D01*
X132004914Y-97381238D02*
X131957295Y-97428857D01*
X131957295Y-97428857D02*
X131909676Y-97524095D01*
X131909676Y-97524095D02*
X131909676Y-97619333D01*
X131909676Y-97619333D02*
X131957295Y-97762190D01*
X131957295Y-97762190D02*
X132528723Y-98333619D01*
X132528723Y-98333619D02*
X131909676Y-98333619D01*
X131290628Y-97333619D02*
X131195390Y-97333619D01*
X131195390Y-97333619D02*
X131100152Y-97381238D01*
X131100152Y-97381238D02*
X131052533Y-97428857D01*
X131052533Y-97428857D02*
X131004914Y-97524095D01*
X131004914Y-97524095D02*
X130957295Y-97714571D01*
X130957295Y-97714571D02*
X130957295Y-97952666D01*
X130957295Y-97952666D02*
X131004914Y-98143142D01*
X131004914Y-98143142D02*
X131052533Y-98238380D01*
X131052533Y-98238380D02*
X131100152Y-98286000D01*
X131100152Y-98286000D02*
X131195390Y-98333619D01*
X131195390Y-98333619D02*
X131290628Y-98333619D01*
X131290628Y-98333619D02*
X131385866Y-98286000D01*
X131385866Y-98286000D02*
X131433485Y-98238380D01*
X131433485Y-98238380D02*
X131481104Y-98143142D01*
X131481104Y-98143142D02*
X131528723Y-97952666D01*
X131528723Y-97952666D02*
X131528723Y-97714571D01*
X131528723Y-97714571D02*
X131481104Y-97524095D01*
X131481104Y-97524095D02*
X131433485Y-97428857D01*
X131433485Y-97428857D02*
X131385866Y-97381238D01*
X131385866Y-97381238D02*
X131290628Y-97333619D01*
X136386666Y-72334819D02*
X136719999Y-71858628D01*
X136958094Y-72334819D02*
X136958094Y-71334819D01*
X136958094Y-71334819D02*
X136577142Y-71334819D01*
X136577142Y-71334819D02*
X136481904Y-71382438D01*
X136481904Y-71382438D02*
X136434285Y-71430057D01*
X136434285Y-71430057D02*
X136386666Y-71525295D01*
X136386666Y-71525295D02*
X136386666Y-71668152D01*
X136386666Y-71668152D02*
X136434285Y-71763390D01*
X136434285Y-71763390D02*
X136481904Y-71811009D01*
X136481904Y-71811009D02*
X136577142Y-71858628D01*
X136577142Y-71858628D02*
X136958094Y-71858628D01*
X136053332Y-71334819D02*
X135434285Y-71334819D01*
X135434285Y-71334819D02*
X135767618Y-71715771D01*
X135767618Y-71715771D02*
X135624761Y-71715771D01*
X135624761Y-71715771D02*
X135529523Y-71763390D01*
X135529523Y-71763390D02*
X135481904Y-71811009D01*
X135481904Y-71811009D02*
X135434285Y-71906247D01*
X135434285Y-71906247D02*
X135434285Y-72144342D01*
X135434285Y-72144342D02*
X135481904Y-72239580D01*
X135481904Y-72239580D02*
X135529523Y-72287200D01*
X135529523Y-72287200D02*
X135624761Y-72334819D01*
X135624761Y-72334819D02*
X135910475Y-72334819D01*
X135910475Y-72334819D02*
X136005713Y-72287200D01*
X136005713Y-72287200D02*
X136053332Y-72239580D01*
X132822057Y-107674580D02*
X132869676Y-107722200D01*
X132869676Y-107722200D02*
X133012533Y-107769819D01*
X133012533Y-107769819D02*
X133107771Y-107769819D01*
X133107771Y-107769819D02*
X133250628Y-107722200D01*
X133250628Y-107722200D02*
X133345866Y-107626961D01*
X133345866Y-107626961D02*
X133393485Y-107531723D01*
X133393485Y-107531723D02*
X133441104Y-107341247D01*
X133441104Y-107341247D02*
X133441104Y-107198390D01*
X133441104Y-107198390D02*
X133393485Y-107007914D01*
X133393485Y-107007914D02*
X133345866Y-106912676D01*
X133345866Y-106912676D02*
X133250628Y-106817438D01*
X133250628Y-106817438D02*
X133107771Y-106769819D01*
X133107771Y-106769819D02*
X133012533Y-106769819D01*
X133012533Y-106769819D02*
X132869676Y-106817438D01*
X132869676Y-106817438D02*
X132822057Y-106865057D01*
X131869676Y-107769819D02*
X132441104Y-107769819D01*
X132155390Y-107769819D02*
X132155390Y-106769819D01*
X132155390Y-106769819D02*
X132250628Y-106912676D01*
X132250628Y-106912676D02*
X132345866Y-107007914D01*
X132345866Y-107007914D02*
X132441104Y-107055533D01*
X131393485Y-107769819D02*
X131203009Y-107769819D01*
X131203009Y-107769819D02*
X131107771Y-107722200D01*
X131107771Y-107722200D02*
X131060152Y-107674580D01*
X131060152Y-107674580D02*
X130964914Y-107531723D01*
X130964914Y-107531723D02*
X130917295Y-107341247D01*
X130917295Y-107341247D02*
X130917295Y-106960295D01*
X130917295Y-106960295D02*
X130964914Y-106865057D01*
X130964914Y-106865057D02*
X131012533Y-106817438D01*
X131012533Y-106817438D02*
X131107771Y-106769819D01*
X131107771Y-106769819D02*
X131298247Y-106769819D01*
X131298247Y-106769819D02*
X131393485Y-106817438D01*
X131393485Y-106817438D02*
X131441104Y-106865057D01*
X131441104Y-106865057D02*
X131488723Y-106960295D01*
X131488723Y-106960295D02*
X131488723Y-107198390D01*
X131488723Y-107198390D02*
X131441104Y-107293628D01*
X131441104Y-107293628D02*
X131393485Y-107341247D01*
X131393485Y-107341247D02*
X131298247Y-107388866D01*
X131298247Y-107388866D02*
X131107771Y-107388866D01*
X131107771Y-107388866D02*
X131012533Y-107341247D01*
X131012533Y-107341247D02*
X130964914Y-107293628D01*
X130964914Y-107293628D02*
X130917295Y-107198390D01*
X144060357Y-121014819D02*
X144393690Y-120538628D01*
X144631785Y-121014819D02*
X144631785Y-120014819D01*
X144631785Y-120014819D02*
X144250833Y-120014819D01*
X144250833Y-120014819D02*
X144155595Y-120062438D01*
X144155595Y-120062438D02*
X144107976Y-120110057D01*
X144107976Y-120110057D02*
X144060357Y-120205295D01*
X144060357Y-120205295D02*
X144060357Y-120348152D01*
X144060357Y-120348152D02*
X144107976Y-120443390D01*
X144107976Y-120443390D02*
X144155595Y-120491009D01*
X144155595Y-120491009D02*
X144250833Y-120538628D01*
X144250833Y-120538628D02*
X144631785Y-120538628D01*
X143679404Y-120110057D02*
X143631785Y-120062438D01*
X143631785Y-120062438D02*
X143536547Y-120014819D01*
X143536547Y-120014819D02*
X143298452Y-120014819D01*
X143298452Y-120014819D02*
X143203214Y-120062438D01*
X143203214Y-120062438D02*
X143155595Y-120110057D01*
X143155595Y-120110057D02*
X143107976Y-120205295D01*
X143107976Y-120205295D02*
X143107976Y-120300533D01*
X143107976Y-120300533D02*
X143155595Y-120443390D01*
X143155595Y-120443390D02*
X143727023Y-121014819D01*
X143727023Y-121014819D02*
X143107976Y-121014819D01*
X142203214Y-120014819D02*
X142679404Y-120014819D01*
X142679404Y-120014819D02*
X142727023Y-120491009D01*
X142727023Y-120491009D02*
X142679404Y-120443390D01*
X142679404Y-120443390D02*
X142584166Y-120395771D01*
X142584166Y-120395771D02*
X142346071Y-120395771D01*
X142346071Y-120395771D02*
X142250833Y-120443390D01*
X142250833Y-120443390D02*
X142203214Y-120491009D01*
X142203214Y-120491009D02*
X142155595Y-120586247D01*
X142155595Y-120586247D02*
X142155595Y-120824342D01*
X142155595Y-120824342D02*
X142203214Y-120919580D01*
X142203214Y-120919580D02*
X142250833Y-120967200D01*
X142250833Y-120967200D02*
X142346071Y-121014819D01*
X142346071Y-121014819D02*
X142584166Y-121014819D01*
X142584166Y-121014819D02*
X142679404Y-120967200D01*
X142679404Y-120967200D02*
X142727023Y-120919580D01*
X132739557Y-102998380D02*
X132787176Y-103046000D01*
X132787176Y-103046000D02*
X132930033Y-103093619D01*
X132930033Y-103093619D02*
X133025271Y-103093619D01*
X133025271Y-103093619D02*
X133168128Y-103046000D01*
X133168128Y-103046000D02*
X133263366Y-102950761D01*
X133263366Y-102950761D02*
X133310985Y-102855523D01*
X133310985Y-102855523D02*
X133358604Y-102665047D01*
X133358604Y-102665047D02*
X133358604Y-102522190D01*
X133358604Y-102522190D02*
X133310985Y-102331714D01*
X133310985Y-102331714D02*
X133263366Y-102236476D01*
X133263366Y-102236476D02*
X133168128Y-102141238D01*
X133168128Y-102141238D02*
X133025271Y-102093619D01*
X133025271Y-102093619D02*
X132930033Y-102093619D01*
X132930033Y-102093619D02*
X132787176Y-102141238D01*
X132787176Y-102141238D02*
X132739557Y-102188857D01*
X132358604Y-102188857D02*
X132310985Y-102141238D01*
X132310985Y-102141238D02*
X132215747Y-102093619D01*
X132215747Y-102093619D02*
X131977652Y-102093619D01*
X131977652Y-102093619D02*
X131882414Y-102141238D01*
X131882414Y-102141238D02*
X131834795Y-102188857D01*
X131834795Y-102188857D02*
X131787176Y-102284095D01*
X131787176Y-102284095D02*
X131787176Y-102379333D01*
X131787176Y-102379333D02*
X131834795Y-102522190D01*
X131834795Y-102522190D02*
X132406223Y-103093619D01*
X132406223Y-103093619D02*
X131787176Y-103093619D01*
X130834795Y-103093619D02*
X131406223Y-103093619D01*
X131120509Y-103093619D02*
X131120509Y-102093619D01*
X131120509Y-102093619D02*
X131215747Y-102236476D01*
X131215747Y-102236476D02*
X131310985Y-102331714D01*
X131310985Y-102331714D02*
X131406223Y-102379333D01*
X164930057Y-89792980D02*
X164977676Y-89840600D01*
X164977676Y-89840600D02*
X165120533Y-89888219D01*
X165120533Y-89888219D02*
X165215771Y-89888219D01*
X165215771Y-89888219D02*
X165358628Y-89840600D01*
X165358628Y-89840600D02*
X165453866Y-89745361D01*
X165453866Y-89745361D02*
X165501485Y-89650123D01*
X165501485Y-89650123D02*
X165549104Y-89459647D01*
X165549104Y-89459647D02*
X165549104Y-89316790D01*
X165549104Y-89316790D02*
X165501485Y-89126314D01*
X165501485Y-89126314D02*
X165453866Y-89031076D01*
X165453866Y-89031076D02*
X165358628Y-88935838D01*
X165358628Y-88935838D02*
X165215771Y-88888219D01*
X165215771Y-88888219D02*
X165120533Y-88888219D01*
X165120533Y-88888219D02*
X164977676Y-88935838D01*
X164977676Y-88935838D02*
X164930057Y-88983457D01*
X163977676Y-89888219D02*
X164549104Y-89888219D01*
X164263390Y-89888219D02*
X164263390Y-88888219D01*
X164263390Y-88888219D02*
X164358628Y-89031076D01*
X164358628Y-89031076D02*
X164453866Y-89126314D01*
X164453866Y-89126314D02*
X164549104Y-89173933D01*
X163072914Y-88888219D02*
X163549104Y-88888219D01*
X163549104Y-88888219D02*
X163596723Y-89364409D01*
X163596723Y-89364409D02*
X163549104Y-89316790D01*
X163549104Y-89316790D02*
X163453866Y-89269171D01*
X163453866Y-89269171D02*
X163215771Y-89269171D01*
X163215771Y-89269171D02*
X163120533Y-89316790D01*
X163120533Y-89316790D02*
X163072914Y-89364409D01*
X163072914Y-89364409D02*
X163025295Y-89459647D01*
X163025295Y-89459647D02*
X163025295Y-89697742D01*
X163025295Y-89697742D02*
X163072914Y-89792980D01*
X163072914Y-89792980D02*
X163120533Y-89840600D01*
X163120533Y-89840600D02*
X163215771Y-89888219D01*
X163215771Y-89888219D02*
X163453866Y-89888219D01*
X163453866Y-89888219D02*
X163549104Y-89840600D01*
X163549104Y-89840600D02*
X163596723Y-89792980D01*
X163272857Y-116194819D02*
X163606190Y-115718628D01*
X163844285Y-116194819D02*
X163844285Y-115194819D01*
X163844285Y-115194819D02*
X163463333Y-115194819D01*
X163463333Y-115194819D02*
X163368095Y-115242438D01*
X163368095Y-115242438D02*
X163320476Y-115290057D01*
X163320476Y-115290057D02*
X163272857Y-115385295D01*
X163272857Y-115385295D02*
X163272857Y-115528152D01*
X163272857Y-115528152D02*
X163320476Y-115623390D01*
X163320476Y-115623390D02*
X163368095Y-115671009D01*
X163368095Y-115671009D02*
X163463333Y-115718628D01*
X163463333Y-115718628D02*
X163844285Y-115718628D01*
X162891904Y-115290057D02*
X162844285Y-115242438D01*
X162844285Y-115242438D02*
X162749047Y-115194819D01*
X162749047Y-115194819D02*
X162510952Y-115194819D01*
X162510952Y-115194819D02*
X162415714Y-115242438D01*
X162415714Y-115242438D02*
X162368095Y-115290057D01*
X162368095Y-115290057D02*
X162320476Y-115385295D01*
X162320476Y-115385295D02*
X162320476Y-115480533D01*
X162320476Y-115480533D02*
X162368095Y-115623390D01*
X162368095Y-115623390D02*
X162939523Y-116194819D01*
X162939523Y-116194819D02*
X162320476Y-116194819D01*
X161368095Y-116194819D02*
X161939523Y-116194819D01*
X161653809Y-116194819D02*
X161653809Y-115194819D01*
X161653809Y-115194819D02*
X161749047Y-115337676D01*
X161749047Y-115337676D02*
X161844285Y-115432914D01*
X161844285Y-115432914D02*
X161939523Y-115480533D01*
X144060357Y-116214819D02*
X144393690Y-115738628D01*
X144631785Y-116214819D02*
X144631785Y-115214819D01*
X144631785Y-115214819D02*
X144250833Y-115214819D01*
X144250833Y-115214819D02*
X144155595Y-115262438D01*
X144155595Y-115262438D02*
X144107976Y-115310057D01*
X144107976Y-115310057D02*
X144060357Y-115405295D01*
X144060357Y-115405295D02*
X144060357Y-115548152D01*
X144060357Y-115548152D02*
X144107976Y-115643390D01*
X144107976Y-115643390D02*
X144155595Y-115691009D01*
X144155595Y-115691009D02*
X144250833Y-115738628D01*
X144250833Y-115738628D02*
X144631785Y-115738628D01*
X143679404Y-115310057D02*
X143631785Y-115262438D01*
X143631785Y-115262438D02*
X143536547Y-115214819D01*
X143536547Y-115214819D02*
X143298452Y-115214819D01*
X143298452Y-115214819D02*
X143203214Y-115262438D01*
X143203214Y-115262438D02*
X143155595Y-115310057D01*
X143155595Y-115310057D02*
X143107976Y-115405295D01*
X143107976Y-115405295D02*
X143107976Y-115500533D01*
X143107976Y-115500533D02*
X143155595Y-115643390D01*
X143155595Y-115643390D02*
X143727023Y-116214819D01*
X143727023Y-116214819D02*
X143107976Y-116214819D01*
X142727023Y-115310057D02*
X142679404Y-115262438D01*
X142679404Y-115262438D02*
X142584166Y-115214819D01*
X142584166Y-115214819D02*
X142346071Y-115214819D01*
X142346071Y-115214819D02*
X142250833Y-115262438D01*
X142250833Y-115262438D02*
X142203214Y-115310057D01*
X142203214Y-115310057D02*
X142155595Y-115405295D01*
X142155595Y-115405295D02*
X142155595Y-115500533D01*
X142155595Y-115500533D02*
X142203214Y-115643390D01*
X142203214Y-115643390D02*
X142774642Y-116214819D01*
X142774642Y-116214819D02*
X142155595Y-116214819D01*
X150099462Y-100054580D02*
X150147081Y-100102200D01*
X150147081Y-100102200D02*
X150289938Y-100149819D01*
X150289938Y-100149819D02*
X150385176Y-100149819D01*
X150385176Y-100149819D02*
X150528033Y-100102200D01*
X150528033Y-100102200D02*
X150623271Y-100006961D01*
X150623271Y-100006961D02*
X150670890Y-99911723D01*
X150670890Y-99911723D02*
X150718509Y-99721247D01*
X150718509Y-99721247D02*
X150718509Y-99578390D01*
X150718509Y-99578390D02*
X150670890Y-99387914D01*
X150670890Y-99387914D02*
X150623271Y-99292676D01*
X150623271Y-99292676D02*
X150528033Y-99197438D01*
X150528033Y-99197438D02*
X150385176Y-99149819D01*
X150385176Y-99149819D02*
X150289938Y-99149819D01*
X150289938Y-99149819D02*
X150147081Y-99197438D01*
X150147081Y-99197438D02*
X150099462Y-99245057D01*
X149242319Y-99149819D02*
X149432795Y-99149819D01*
X149432795Y-99149819D02*
X149528033Y-99197438D01*
X149528033Y-99197438D02*
X149575652Y-99245057D01*
X149575652Y-99245057D02*
X149670890Y-99387914D01*
X149670890Y-99387914D02*
X149718509Y-99578390D01*
X149718509Y-99578390D02*
X149718509Y-99959342D01*
X149718509Y-99959342D02*
X149670890Y-100054580D01*
X149670890Y-100054580D02*
X149623271Y-100102200D01*
X149623271Y-100102200D02*
X149528033Y-100149819D01*
X149528033Y-100149819D02*
X149337557Y-100149819D01*
X149337557Y-100149819D02*
X149242319Y-100102200D01*
X149242319Y-100102200D02*
X149194700Y-100054580D01*
X149194700Y-100054580D02*
X149147081Y-99959342D01*
X149147081Y-99959342D02*
X149147081Y-99721247D01*
X149147081Y-99721247D02*
X149194700Y-99626009D01*
X149194700Y-99626009D02*
X149242319Y-99578390D01*
X149242319Y-99578390D02*
X149337557Y-99530771D01*
X149337557Y-99530771D02*
X149528033Y-99530771D01*
X149528033Y-99530771D02*
X149623271Y-99578390D01*
X149623271Y-99578390D02*
X149670890Y-99626009D01*
X149670890Y-99626009D02*
X149718509Y-99721247D01*
X127243957Y-98258380D02*
X127291576Y-98306000D01*
X127291576Y-98306000D02*
X127434433Y-98353619D01*
X127434433Y-98353619D02*
X127529671Y-98353619D01*
X127529671Y-98353619D02*
X127672528Y-98306000D01*
X127672528Y-98306000D02*
X127767766Y-98210761D01*
X127767766Y-98210761D02*
X127815385Y-98115523D01*
X127815385Y-98115523D02*
X127863004Y-97925047D01*
X127863004Y-97925047D02*
X127863004Y-97782190D01*
X127863004Y-97782190D02*
X127815385Y-97591714D01*
X127815385Y-97591714D02*
X127767766Y-97496476D01*
X127767766Y-97496476D02*
X127672528Y-97401238D01*
X127672528Y-97401238D02*
X127529671Y-97353619D01*
X127529671Y-97353619D02*
X127434433Y-97353619D01*
X127434433Y-97353619D02*
X127291576Y-97401238D01*
X127291576Y-97401238D02*
X127243957Y-97448857D01*
X126863004Y-97448857D02*
X126815385Y-97401238D01*
X126815385Y-97401238D02*
X126720147Y-97353619D01*
X126720147Y-97353619D02*
X126482052Y-97353619D01*
X126482052Y-97353619D02*
X126386814Y-97401238D01*
X126386814Y-97401238D02*
X126339195Y-97448857D01*
X126339195Y-97448857D02*
X126291576Y-97544095D01*
X126291576Y-97544095D02*
X126291576Y-97639333D01*
X126291576Y-97639333D02*
X126339195Y-97782190D01*
X126339195Y-97782190D02*
X126910623Y-98353619D01*
X126910623Y-98353619D02*
X126291576Y-98353619D01*
X125434433Y-97686952D02*
X125434433Y-98353619D01*
X125672528Y-97306000D02*
X125910623Y-98020285D01*
X125910623Y-98020285D02*
X125291576Y-98020285D01*
X129231366Y-72362219D02*
X129564699Y-71886028D01*
X129802794Y-72362219D02*
X129802794Y-71362219D01*
X129802794Y-71362219D02*
X129421842Y-71362219D01*
X129421842Y-71362219D02*
X129326604Y-71409838D01*
X129326604Y-71409838D02*
X129278985Y-71457457D01*
X129278985Y-71457457D02*
X129231366Y-71552695D01*
X129231366Y-71552695D02*
X129231366Y-71695552D01*
X129231366Y-71695552D02*
X129278985Y-71790790D01*
X129278985Y-71790790D02*
X129326604Y-71838409D01*
X129326604Y-71838409D02*
X129421842Y-71886028D01*
X129421842Y-71886028D02*
X129802794Y-71886028D01*
X128278985Y-72362219D02*
X128850413Y-72362219D01*
X128564699Y-72362219D02*
X128564699Y-71362219D01*
X128564699Y-71362219D02*
X128659937Y-71505076D01*
X128659937Y-71505076D02*
X128755175Y-71600314D01*
X128755175Y-71600314D02*
X128850413Y-71647933D01*
X176906666Y-72374819D02*
X177239999Y-71898628D01*
X177478094Y-72374819D02*
X177478094Y-71374819D01*
X177478094Y-71374819D02*
X177097142Y-71374819D01*
X177097142Y-71374819D02*
X177001904Y-71422438D01*
X177001904Y-71422438D02*
X176954285Y-71470057D01*
X176954285Y-71470057D02*
X176906666Y-71565295D01*
X176906666Y-71565295D02*
X176906666Y-71708152D01*
X176906666Y-71708152D02*
X176954285Y-71803390D01*
X176954285Y-71803390D02*
X177001904Y-71851009D01*
X177001904Y-71851009D02*
X177097142Y-71898628D01*
X177097142Y-71898628D02*
X177478094Y-71898628D01*
X176049523Y-71708152D02*
X176049523Y-72374819D01*
X176287618Y-71327200D02*
X176525713Y-72041485D01*
X176525713Y-72041485D02*
X175906666Y-72041485D01*
X168274904Y-100241219D02*
X168274904Y-101050742D01*
X168274904Y-101050742D02*
X168227285Y-101145980D01*
X168227285Y-101145980D02*
X168179666Y-101193600D01*
X168179666Y-101193600D02*
X168084428Y-101241219D01*
X168084428Y-101241219D02*
X167893952Y-101241219D01*
X167893952Y-101241219D02*
X167798714Y-101193600D01*
X167798714Y-101193600D02*
X167751095Y-101145980D01*
X167751095Y-101145980D02*
X167703476Y-101050742D01*
X167703476Y-101050742D02*
X167703476Y-100241219D01*
X167274904Y-100336457D02*
X167227285Y-100288838D01*
X167227285Y-100288838D02*
X167132047Y-100241219D01*
X167132047Y-100241219D02*
X166893952Y-100241219D01*
X166893952Y-100241219D02*
X166798714Y-100288838D01*
X166798714Y-100288838D02*
X166751095Y-100336457D01*
X166751095Y-100336457D02*
X166703476Y-100431695D01*
X166703476Y-100431695D02*
X166703476Y-100526933D01*
X166703476Y-100526933D02*
X166751095Y-100669790D01*
X166751095Y-100669790D02*
X167322523Y-101241219D01*
X167322523Y-101241219D02*
X166703476Y-101241219D01*
X127093957Y-105858380D02*
X127141576Y-105906000D01*
X127141576Y-105906000D02*
X127284433Y-105953619D01*
X127284433Y-105953619D02*
X127379671Y-105953619D01*
X127379671Y-105953619D02*
X127522528Y-105906000D01*
X127522528Y-105906000D02*
X127617766Y-105810761D01*
X127617766Y-105810761D02*
X127665385Y-105715523D01*
X127665385Y-105715523D02*
X127713004Y-105525047D01*
X127713004Y-105525047D02*
X127713004Y-105382190D01*
X127713004Y-105382190D02*
X127665385Y-105191714D01*
X127665385Y-105191714D02*
X127617766Y-105096476D01*
X127617766Y-105096476D02*
X127522528Y-105001238D01*
X127522528Y-105001238D02*
X127379671Y-104953619D01*
X127379671Y-104953619D02*
X127284433Y-104953619D01*
X127284433Y-104953619D02*
X127141576Y-105001238D01*
X127141576Y-105001238D02*
X127093957Y-105048857D01*
X126141576Y-105953619D02*
X126713004Y-105953619D01*
X126427290Y-105953619D02*
X126427290Y-104953619D01*
X126427290Y-104953619D02*
X126522528Y-105096476D01*
X126522528Y-105096476D02*
X126617766Y-105191714D01*
X126617766Y-105191714D02*
X126713004Y-105239333D01*
X125284433Y-104953619D02*
X125474909Y-104953619D01*
X125474909Y-104953619D02*
X125570147Y-105001238D01*
X125570147Y-105001238D02*
X125617766Y-105048857D01*
X125617766Y-105048857D02*
X125713004Y-105191714D01*
X125713004Y-105191714D02*
X125760623Y-105382190D01*
X125760623Y-105382190D02*
X125760623Y-105763142D01*
X125760623Y-105763142D02*
X125713004Y-105858380D01*
X125713004Y-105858380D02*
X125665385Y-105906000D01*
X125665385Y-105906000D02*
X125570147Y-105953619D01*
X125570147Y-105953619D02*
X125379671Y-105953619D01*
X125379671Y-105953619D02*
X125284433Y-105906000D01*
X125284433Y-105906000D02*
X125236814Y-105858380D01*
X125236814Y-105858380D02*
X125189195Y-105763142D01*
X125189195Y-105763142D02*
X125189195Y-105525047D01*
X125189195Y-105525047D02*
X125236814Y-105429809D01*
X125236814Y-105429809D02*
X125284433Y-105382190D01*
X125284433Y-105382190D02*
X125379671Y-105334571D01*
X125379671Y-105334571D02*
X125570147Y-105334571D01*
X125570147Y-105334571D02*
X125665385Y-105382190D01*
X125665385Y-105382190D02*
X125713004Y-105429809D01*
X125713004Y-105429809D02*
X125760623Y-105525047D01*
X153908166Y-99978480D02*
X153955785Y-100026100D01*
X153955785Y-100026100D02*
X154098642Y-100073719D01*
X154098642Y-100073719D02*
X154193880Y-100073719D01*
X154193880Y-100073719D02*
X154336737Y-100026100D01*
X154336737Y-100026100D02*
X154431975Y-99930861D01*
X154431975Y-99930861D02*
X154479594Y-99835623D01*
X154479594Y-99835623D02*
X154527213Y-99645147D01*
X154527213Y-99645147D02*
X154527213Y-99502290D01*
X154527213Y-99502290D02*
X154479594Y-99311814D01*
X154479594Y-99311814D02*
X154431975Y-99216576D01*
X154431975Y-99216576D02*
X154336737Y-99121338D01*
X154336737Y-99121338D02*
X154193880Y-99073719D01*
X154193880Y-99073719D02*
X154098642Y-99073719D01*
X154098642Y-99073719D02*
X153955785Y-99121338D01*
X153955785Y-99121338D02*
X153908166Y-99168957D01*
X153003404Y-99073719D02*
X153479594Y-99073719D01*
X153479594Y-99073719D02*
X153527213Y-99549909D01*
X153527213Y-99549909D02*
X153479594Y-99502290D01*
X153479594Y-99502290D02*
X153384356Y-99454671D01*
X153384356Y-99454671D02*
X153146261Y-99454671D01*
X153146261Y-99454671D02*
X153051023Y-99502290D01*
X153051023Y-99502290D02*
X153003404Y-99549909D01*
X153003404Y-99549909D02*
X152955785Y-99645147D01*
X152955785Y-99645147D02*
X152955785Y-99883242D01*
X152955785Y-99883242D02*
X153003404Y-99978480D01*
X153003404Y-99978480D02*
X153051023Y-100026100D01*
X153051023Y-100026100D02*
X153146261Y-100073719D01*
X153146261Y-100073719D02*
X153384356Y-100073719D01*
X153384356Y-100073719D02*
X153479594Y-100026100D01*
X153479594Y-100026100D02*
X153527213Y-99978480D01*
X153830257Y-114907219D02*
X154163590Y-114431028D01*
X154401685Y-114907219D02*
X154401685Y-113907219D01*
X154401685Y-113907219D02*
X154020733Y-113907219D01*
X154020733Y-113907219D02*
X153925495Y-113954838D01*
X153925495Y-113954838D02*
X153877876Y-114002457D01*
X153877876Y-114002457D02*
X153830257Y-114097695D01*
X153830257Y-114097695D02*
X153830257Y-114240552D01*
X153830257Y-114240552D02*
X153877876Y-114335790D01*
X153877876Y-114335790D02*
X153925495Y-114383409D01*
X153925495Y-114383409D02*
X154020733Y-114431028D01*
X154020733Y-114431028D02*
X154401685Y-114431028D01*
X153449304Y-114002457D02*
X153401685Y-113954838D01*
X153401685Y-113954838D02*
X153306447Y-113907219D01*
X153306447Y-113907219D02*
X153068352Y-113907219D01*
X153068352Y-113907219D02*
X152973114Y-113954838D01*
X152973114Y-113954838D02*
X152925495Y-114002457D01*
X152925495Y-114002457D02*
X152877876Y-114097695D01*
X152877876Y-114097695D02*
X152877876Y-114192933D01*
X152877876Y-114192933D02*
X152925495Y-114335790D01*
X152925495Y-114335790D02*
X153496923Y-114907219D01*
X153496923Y-114907219D02*
X152877876Y-114907219D01*
X152020733Y-114240552D02*
X152020733Y-114907219D01*
X152258828Y-113859600D02*
X152496923Y-114573885D01*
X152496923Y-114573885D02*
X151877876Y-114573885D01*
X169686666Y-72464819D02*
X170019999Y-71988628D01*
X170258094Y-72464819D02*
X170258094Y-71464819D01*
X170258094Y-71464819D02*
X169877142Y-71464819D01*
X169877142Y-71464819D02*
X169781904Y-71512438D01*
X169781904Y-71512438D02*
X169734285Y-71560057D01*
X169734285Y-71560057D02*
X169686666Y-71655295D01*
X169686666Y-71655295D02*
X169686666Y-71798152D01*
X169686666Y-71798152D02*
X169734285Y-71893390D01*
X169734285Y-71893390D02*
X169781904Y-71941009D01*
X169781904Y-71941009D02*
X169877142Y-71988628D01*
X169877142Y-71988628D02*
X170258094Y-71988628D01*
X168781904Y-71464819D02*
X169258094Y-71464819D01*
X169258094Y-71464819D02*
X169305713Y-71941009D01*
X169305713Y-71941009D02*
X169258094Y-71893390D01*
X169258094Y-71893390D02*
X169162856Y-71845771D01*
X169162856Y-71845771D02*
X168924761Y-71845771D01*
X168924761Y-71845771D02*
X168829523Y-71893390D01*
X168829523Y-71893390D02*
X168781904Y-71941009D01*
X168781904Y-71941009D02*
X168734285Y-72036247D01*
X168734285Y-72036247D02*
X168734285Y-72274342D01*
X168734285Y-72274342D02*
X168781904Y-72369580D01*
X168781904Y-72369580D02*
X168829523Y-72417200D01*
X168829523Y-72417200D02*
X168924761Y-72464819D01*
X168924761Y-72464819D02*
X169162856Y-72464819D01*
X169162856Y-72464819D02*
X169258094Y-72417200D01*
X169258094Y-72417200D02*
X169305713Y-72369580D01*
X124552857Y-116234819D02*
X124886190Y-115758628D01*
X125124285Y-116234819D02*
X125124285Y-115234819D01*
X125124285Y-115234819D02*
X124743333Y-115234819D01*
X124743333Y-115234819D02*
X124648095Y-115282438D01*
X124648095Y-115282438D02*
X124600476Y-115330057D01*
X124600476Y-115330057D02*
X124552857Y-115425295D01*
X124552857Y-115425295D02*
X124552857Y-115568152D01*
X124552857Y-115568152D02*
X124600476Y-115663390D01*
X124600476Y-115663390D02*
X124648095Y-115711009D01*
X124648095Y-115711009D02*
X124743333Y-115758628D01*
X124743333Y-115758628D02*
X125124285Y-115758628D01*
X123600476Y-116234819D02*
X124171904Y-116234819D01*
X123886190Y-116234819D02*
X123886190Y-115234819D01*
X123886190Y-115234819D02*
X123981428Y-115377676D01*
X123981428Y-115377676D02*
X124076666Y-115472914D01*
X124076666Y-115472914D02*
X124171904Y-115520533D01*
X122743333Y-115234819D02*
X122933809Y-115234819D01*
X122933809Y-115234819D02*
X123029047Y-115282438D01*
X123029047Y-115282438D02*
X123076666Y-115330057D01*
X123076666Y-115330057D02*
X123171904Y-115472914D01*
X123171904Y-115472914D02*
X123219523Y-115663390D01*
X123219523Y-115663390D02*
X123219523Y-116044342D01*
X123219523Y-116044342D02*
X123171904Y-116139580D01*
X123171904Y-116139580D02*
X123124285Y-116187200D01*
X123124285Y-116187200D02*
X123029047Y-116234819D01*
X123029047Y-116234819D02*
X122838571Y-116234819D01*
X122838571Y-116234819D02*
X122743333Y-116187200D01*
X122743333Y-116187200D02*
X122695714Y-116139580D01*
X122695714Y-116139580D02*
X122648095Y-116044342D01*
X122648095Y-116044342D02*
X122648095Y-115806247D01*
X122648095Y-115806247D02*
X122695714Y-115711009D01*
X122695714Y-115711009D02*
X122743333Y-115663390D01*
X122743333Y-115663390D02*
X122838571Y-115615771D01*
X122838571Y-115615771D02*
X123029047Y-115615771D01*
X123029047Y-115615771D02*
X123124285Y-115663390D01*
X123124285Y-115663390D02*
X123171904Y-115711009D01*
X123171904Y-115711009D02*
X123219523Y-115806247D01*
X171134066Y-88472180D02*
X171181685Y-88519800D01*
X171181685Y-88519800D02*
X171324542Y-88567419D01*
X171324542Y-88567419D02*
X171419780Y-88567419D01*
X171419780Y-88567419D02*
X171562637Y-88519800D01*
X171562637Y-88519800D02*
X171657875Y-88424561D01*
X171657875Y-88424561D02*
X171705494Y-88329323D01*
X171705494Y-88329323D02*
X171753113Y-88138847D01*
X171753113Y-88138847D02*
X171753113Y-87995990D01*
X171753113Y-87995990D02*
X171705494Y-87805514D01*
X171705494Y-87805514D02*
X171657875Y-87710276D01*
X171657875Y-87710276D02*
X171562637Y-87615038D01*
X171562637Y-87615038D02*
X171419780Y-87567419D01*
X171419780Y-87567419D02*
X171324542Y-87567419D01*
X171324542Y-87567419D02*
X171181685Y-87615038D01*
X171181685Y-87615038D02*
X171134066Y-87662657D01*
X170657875Y-88567419D02*
X170467399Y-88567419D01*
X170467399Y-88567419D02*
X170372161Y-88519800D01*
X170372161Y-88519800D02*
X170324542Y-88472180D01*
X170324542Y-88472180D02*
X170229304Y-88329323D01*
X170229304Y-88329323D02*
X170181685Y-88138847D01*
X170181685Y-88138847D02*
X170181685Y-87757895D01*
X170181685Y-87757895D02*
X170229304Y-87662657D01*
X170229304Y-87662657D02*
X170276923Y-87615038D01*
X170276923Y-87615038D02*
X170372161Y-87567419D01*
X170372161Y-87567419D02*
X170562637Y-87567419D01*
X170562637Y-87567419D02*
X170657875Y-87615038D01*
X170657875Y-87615038D02*
X170705494Y-87662657D01*
X170705494Y-87662657D02*
X170753113Y-87757895D01*
X170753113Y-87757895D02*
X170753113Y-87995990D01*
X170753113Y-87995990D02*
X170705494Y-88091228D01*
X170705494Y-88091228D02*
X170657875Y-88138847D01*
X170657875Y-88138847D02*
X170562637Y-88186466D01*
X170562637Y-88186466D02*
X170372161Y-88186466D01*
X170372161Y-88186466D02*
X170276923Y-88138847D01*
X170276923Y-88138847D02*
X170229304Y-88091228D01*
X170229304Y-88091228D02*
X170181685Y-87995990D01*
X146216666Y-100149819D02*
X146549999Y-99673628D01*
X146788094Y-100149819D02*
X146788094Y-99149819D01*
X146788094Y-99149819D02*
X146407142Y-99149819D01*
X146407142Y-99149819D02*
X146311904Y-99197438D01*
X146311904Y-99197438D02*
X146264285Y-99245057D01*
X146264285Y-99245057D02*
X146216666Y-99340295D01*
X146216666Y-99340295D02*
X146216666Y-99483152D01*
X146216666Y-99483152D02*
X146264285Y-99578390D01*
X146264285Y-99578390D02*
X146311904Y-99626009D01*
X146311904Y-99626009D02*
X146407142Y-99673628D01*
X146407142Y-99673628D02*
X146788094Y-99673628D01*
X145359523Y-99149819D02*
X145549999Y-99149819D01*
X145549999Y-99149819D02*
X145645237Y-99197438D01*
X145645237Y-99197438D02*
X145692856Y-99245057D01*
X145692856Y-99245057D02*
X145788094Y-99387914D01*
X145788094Y-99387914D02*
X145835713Y-99578390D01*
X145835713Y-99578390D02*
X145835713Y-99959342D01*
X145835713Y-99959342D02*
X145788094Y-100054580D01*
X145788094Y-100054580D02*
X145740475Y-100102200D01*
X145740475Y-100102200D02*
X145645237Y-100149819D01*
X145645237Y-100149819D02*
X145454761Y-100149819D01*
X145454761Y-100149819D02*
X145359523Y-100102200D01*
X145359523Y-100102200D02*
X145311904Y-100054580D01*
X145311904Y-100054580D02*
X145264285Y-99959342D01*
X145264285Y-99959342D02*
X145264285Y-99721247D01*
X145264285Y-99721247D02*
X145311904Y-99626009D01*
X145311904Y-99626009D02*
X145359523Y-99578390D01*
X145359523Y-99578390D02*
X145454761Y-99530771D01*
X145454761Y-99530771D02*
X145645237Y-99530771D01*
X145645237Y-99530771D02*
X145740475Y-99578390D01*
X145740475Y-99578390D02*
X145788094Y-99626009D01*
X145788094Y-99626009D02*
X145835713Y-99721247D01*
D11*
%TO.C,R18*%
X123276263Y-121445000D02*
X124723737Y-121445000D01*
X123276263Y-124155000D02*
X124723737Y-124155000D01*
%TO.C,R2*%
X121259463Y-72845000D02*
X122706937Y-72845000D01*
X121259463Y-75555000D02*
X122706937Y-75555000D01*
%TO.C,R19*%
X161976263Y-121445000D02*
X163423737Y-121445000D01*
X161976263Y-124155000D02*
X163423737Y-124155000D01*
%TO.C,C2*%
X158814600Y-102107948D02*
X158814600Y-103530452D01*
X156094600Y-102107948D02*
X156094600Y-103530452D01*
%TO.C,C12*%
X176371200Y-90650948D02*
X176371200Y-92073452D01*
X173651200Y-90650948D02*
X173651200Y-92073452D01*
%TO.C,R20*%
X173164337Y-118093400D02*
X171716863Y-118093400D01*
X173164337Y-115383400D02*
X171716863Y-115383400D01*
%TO.C,U3*%
X161204400Y-64017000D02*
X145204400Y-64017000D01*
X145204400Y-64017000D02*
X145204400Y-88017000D01*
X145204400Y-88017000D02*
X161204400Y-88017000D01*
X161204400Y-88017000D02*
X161204400Y-64017000D01*
X158504400Y-72517000D02*
G75*
G03*
X158504400Y-72517000I-800000J0D01*
G01*
%TO.C,R17*%
X134251537Y-118068000D02*
X132804063Y-118068000D01*
X134251537Y-115358000D02*
X132804063Y-115358000D01*
%TO.C,C20*%
X131467948Y-98830200D02*
X132890452Y-98830200D01*
X131467948Y-101550200D02*
X132890452Y-101550200D01*
%TO.C,R3*%
X135476263Y-72845000D02*
X136923737Y-72845000D01*
X135476263Y-75555000D02*
X136923737Y-75555000D01*
%TO.C,C19*%
X132890452Y-111050200D02*
X131467948Y-111050200D01*
X132890452Y-108330200D02*
X131467948Y-108330200D01*
%TO.C,R25*%
X142676263Y-121445000D02*
X144123737Y-121445000D01*
X142676263Y-124155000D02*
X144123737Y-124155000D01*
%TO.C,C21*%
X132890452Y-106250200D02*
X131467948Y-106250200D01*
X132890452Y-103530200D02*
X131467948Y-103530200D01*
%TO.C,C15*%
X163525148Y-90486400D02*
X164947652Y-90486400D01*
X163525148Y-93206400D02*
X164947652Y-93206400D01*
%TO.C,R21*%
X161976263Y-116645000D02*
X163423737Y-116645000D01*
X161976263Y-119355000D02*
X163423737Y-119355000D01*
%TO.C,R22*%
X142676263Y-116645000D02*
X144123737Y-116645000D01*
X142676263Y-119355000D02*
X144123737Y-119355000D01*
%TO.C,C6*%
X151296200Y-102133348D02*
X151296200Y-103555852D01*
X148576200Y-102133348D02*
X148576200Y-103555852D01*
%TO.C,C24*%
X127789200Y-100431448D02*
X127789200Y-101853952D01*
X125069200Y-100431448D02*
X125069200Y-101853952D01*
%TO.C,R1*%
X128370163Y-72845000D02*
X129817637Y-72845000D01*
X128370163Y-75555000D02*
X129817637Y-75555000D01*
%TO.C,R4*%
X176076263Y-72845000D02*
X177523737Y-72845000D01*
X176076263Y-75555000D02*
X177523737Y-75555000D01*
%TO.C,U2*%
X169128000Y-104121000D02*
X175138000Y-104121000D01*
X171378000Y-97301000D02*
X175138000Y-97301000D01*
X175138000Y-97301000D02*
X175138000Y-98561000D01*
X175138000Y-104121000D02*
X175138000Y-102861000D01*
%TO.C,C16*%
X127789200Y-108131448D02*
X127789200Y-109553952D01*
X125069200Y-108131448D02*
X125069200Y-109553952D01*
%TO.C,C5*%
X155080800Y-102133348D02*
X155080800Y-103555852D01*
X152360800Y-102133348D02*
X152360800Y-103555852D01*
%TO.C,R24*%
X153911137Y-118068000D02*
X152463663Y-118068000D01*
X153911137Y-115358000D02*
X152463663Y-115358000D01*
%TO.C,R5*%
X168776263Y-72845000D02*
X170223737Y-72845000D01*
X168776263Y-75555000D02*
X170223737Y-75555000D01*
%TO.C,R16*%
X123276263Y-116645000D02*
X124723737Y-116645000D01*
X123276263Y-119355000D02*
X124723737Y-119355000D01*
%TO.C,C9*%
X172371200Y-90650948D02*
X172371200Y-92073452D01*
X169651200Y-90650948D02*
X169651200Y-92073452D01*
%TO.C,R6*%
X147532000Y-102120863D02*
X147532000Y-103568337D01*
X144822000Y-102120863D02*
X144822000Y-103568337D01*
%TD*%
M02*
