  0
SECTION
  2
HEADER
  9
$ANGBASE
  50
0.0
  9
$ANGDIR
  70
1
  9
$MEASUREMENT
  70
0
  0
ENDSEC
  0
SECTION
  2
TABLES
  0
TABLE
  2
LTYPE
  70
4
  0
LTYPE
  5
40F
  2
CONTINUOUS
  70
0
  3
Solid line
  72
65
  73
0
  40
0.0
  0
LTYPE
  5
410
  2
DASHDOT
 70
0
  3
Dash Dot ____ _ ____ _
 72
65
 73
4
 40
2.0
 49
1.25
 49
-0.25
 49
0.25
 49
-0.25
  0
LTYPE
  5
411
  2
DASHED
 70
0
  3
Dashed __ __ __ __ __
 72
65
 73
2
 40
0.75
 49
0.5
 49
-0.25
  0
LTYPE
  5
43B
  2
DOTTED
 70
0
  3
Dotted .  .  .  .
 72
65
 73
2
 40
0.2
 49
0.0
 49
-0.2
  0
ENDTAB
  0
TABLE
  2
STYLE
  70
4
  0
STYLE
  2
KICAD
  70
0
  40
0
  41
1
  42
1
  50
0
  71
0
  3
isocp.shx
  0
STYLE
  2
KICADB
  70
0
  40
0
  41
1
  42
1
  50
0
  71
0
  3
isocp.shx
  0
STYLE
  2
KICADI
  70
0
  40
0
  41
1
  42
1
  50
15
  71
0
  3
isocp.shx
  0
STYLE
  2
KICADBI
  70
0
  40
0
  41
1
  42
1
  50
15
  71
0
  3
isocp.shx
  0
ENDTAB
  0
TABLE
  2
LAYER
  70
1
  0
LAYER
  2
BLACK
  70
0
  62
7
  6
CONTINUOUS
  0
ENDTAB
  0
ENDSEC
  0
SECTION
  2
ENTITIES
0
LINE
8
BLACK
6
CONTINUOUS
10
4.32067
20
-2.75955
11
7.47028
21
-2.75955
0
LINE
8
BLACK
6
CONTINUOUS
10
7.47028
20
-2.75955
11
7.47028
21
-4.9249
0
LINE
8
BLACK
6
CONTINUOUS
10
7.47028
20
-4.9249
11
4.32067
21
-4.9249
0
LINE
8
BLACK
6
CONTINUOUS
10
4.32067
20
-4.9249
11
4.32067
21
-2.75955
0
LINE
8
BLACK
6
CONTINUOUS
10
5.30531
20
-3.59419
11
5.32106
21
-3.60994
0
LINE
8
BLACK
6
CONTINUOUS
10
5.32106
20
-3.59419
11
5.30531
21
-3.60994
0
LINE
8
BLACK
6
CONTINUOUS
10
5.43701
20
-3.9874
11
5.45276
21
-4.00315
0
LINE
8
BLACK
6
CONTINUOUS
10
5.45276
20
-3.9874
11
5.43701
21
-4.00315
0
LINE
8
BLACK
6
CONTINUOUS
10
5.51457
20
-3.97992
11
5.53031
21
-3.99567
0
LINE
8
BLACK
6
CONTINUOUS
10
5.53031
20
-3.97992
11
5.51457
21
-3.99567
0
LINE
8
BLACK
6
CONTINUOUS
10
5.53508
20
-4.78821
11
5.55083
21
-4.80396
0
LINE
8
BLACK
6
CONTINUOUS
10
5.55083
20
-4.78821
11
5.53508
21
-4.80396
0
LINE
8
BLACK
6
CONTINUOUS
10
5.54311
20
-3.50364
11
5.55886
21
-3.51939
0
LINE
8
BLACK
6
CONTINUOUS
10
5.55886
20
-3.50364
11
5.54311
21
-3.51939
0
LINE
8
BLACK
6
CONTINUOUS
10
5.54675
20
-4.59449
11
5.5625
21
-4.61024
0
LINE
8
BLACK
6
CONTINUOUS
10
5.5625
20
-4.59449
11
5.54675
21
-4.61024
0
LINE
8
BLACK
6
CONTINUOUS
10
5.55098
20
-3.6001
11
5.56673
21
-3.61585
0
LINE
8
BLACK
6
CONTINUOUS
10
5.56673
20
-3.6001
11
5.55098
21
-3.61585
0
LINE
8
BLACK
6
CONTINUOUS
10
5.58248
20
-3.26545
11
5.59823
21
-3.2812
0
LINE
8
BLACK
6
CONTINUOUS
10
5.59823
20
-3.26545
11
5.58248
21
-3.2812
0
LINE
8
BLACK
6
CONTINUOUS
10
5.59626
20
-3.6001
11
5.61201
21
-3.61585
0
LINE
8
BLACK
6
CONTINUOUS
10
5.61201
20
-3.6001
11
5.59626
21
-3.61585
0
LINE
8
BLACK
6
CONTINUOUS
10
5.68976
20
-3.80354
11
5.70551
21
-3.81929
0
LINE
8
BLACK
6
CONTINUOUS
10
5.70551
20
-3.80354
11
5.68976
21
-3.81929
0
LINE
8
BLACK
6
CONTINUOUS
10
5.7126
20
-3.98031
11
5.72835
21
-3.99606
0
LINE
8
BLACK
6
CONTINUOUS
10
5.72835
20
-3.98031
11
5.7126
21
-3.99606
0
LINE
8
BLACK
6
CONTINUOUS
10
5.76555
20
-4.3875
11
5.7813
21
-4.40325
0
LINE
8
BLACK
6
CONTINUOUS
10
5.7813
20
-4.3875
11
5.76555
21
-4.40325
0
LINE
8
BLACK
6
CONTINUOUS
10
5.77264
20
-4.29734
11
5.78839
21
-4.31309
0
LINE
8
BLACK
6
CONTINUOUS
10
5.78839
20
-4.29734
11
5.77264
21
-4.31309
0
LINE
8
BLACK
6
CONTINUOUS
10
5.79311
20
-4.07254
11
5.80886
21
-4.08829
0
LINE
8
BLACK
6
CONTINUOUS
10
5.80886
20
-4.07254
11
5.79311
21
-4.08829
0
LINE
8
BLACK
6
CONTINUOUS
10
5.81594
20
-4.29695
11
5.83169
21
-4.3127
0
LINE
8
BLACK
6
CONTINUOUS
10
5.83169
20
-4.29695
11
5.81594
21
-4.3127
0
LINE
8
BLACK
6
CONTINUOUS
10
5.84862
20
-3.97372
11
5.86437
21
-3.98947
0
LINE
8
BLACK
6
CONTINUOUS
10
5.86437
20
-3.97372
11
5.84862
21
-3.98947
0
LINE
8
BLACK
6
CONTINUOUS
10
5.85886
20
-4.29695
11
5.87461
21
-4.3127
0
LINE
8
BLACK
6
CONTINUOUS
10
5.87461
20
-4.29695
11
5.85886
21
-4.3127
0
LINE
8
BLACK
6
CONTINUOUS
10
5.88366
20
-4.3875
11
5.89941
21
-4.40325
0
LINE
8
BLACK
6
CONTINUOUS
10
5.89941
20
-4.3875
11
5.88366
21
-4.40325
0
LINE
8
BLACK
6
CONTINUOUS
10
5.88543
20
-3.77913
11
5.90118
21
-3.79488
0
LINE
8
BLACK
6
CONTINUOUS
10
5.90118
20
-3.77913
11
5.88543
21
-3.79488
0
LINE
8
BLACK
6
CONTINUOUS
10
5.89783
20
-4.76585
11
5.91358
21
-4.78159
0
LINE
8
BLACK
6
CONTINUOUS
10
5.91358
20
-4.76585
11
5.89783
21
-4.78159
0
LINE
8
BLACK
6
CONTINUOUS
10
5.9122
20
-3.98189
11
5.92795
21
-3.99764
0
LINE
8
BLACK
6
CONTINUOUS
10
5.92795
20
-3.98189
11
5.9122
21
-3.99764
0
LINE
8
BLACK
6
CONTINUOUS
10
5.92303
20
-4.3875
11
5.93878
21
-4.40325
0
LINE
8
BLACK
6
CONTINUOUS
10
5.93878
20
-4.3875
11
5.92303
21
-4.40325
0
LINE
8
BLACK
6
CONTINUOUS
10
5.93484
20
-4.31703
11
5.95059
21
-4.33278
0
LINE
8
BLACK
6
CONTINUOUS
10
5.95059
20
-4.31703
11
5.93484
21
-4.33278
0
LINE
8
BLACK
6
CONTINUOUS
10
5.95846
20
-3.06663
11
5.97421
21
-3.08238
0
LINE
8
BLACK
6
CONTINUOUS
10
5.97421
20
-3.06663
11
5.95846
21
-3.08238
0
LINE
8
BLACK
6
CONTINUOUS
10
5.98406
20
-4.30089
11
5.9998
21
-4.31663
0
LINE
8
BLACK
6
CONTINUOUS
10
5.9998
20
-4.30089
11
5.98406
21
-4.31663
0
LINE
8
BLACK
6
CONTINUOUS
10
6.02736
20
-4.30089
11
6.04311
21
-4.31663
0
LINE
8
BLACK
6
CONTINUOUS
10
6.04311
20
-4.30089
11
6.02736
21
-4.31663
0
LINE
8
BLACK
6
CONTINUOUS
10
6.07382
20
-3.98238
11
6.08957
21
-3.99813
0
LINE
8
BLACK
6
CONTINUOUS
10
6.08957
20
-3.98238
11
6.07382
21
-3.99813
0
LINE
8
BLACK
6
CONTINUOUS
10
6.14744
20
-3.27136
11
6.16319
21
-3.28711
0
LINE
8
BLACK
6
CONTINUOUS
10
6.16319
20
-3.27136
11
6.14744
21
-3.28711
0
LINE
8
BLACK
6
CONTINUOUS
10
6.22618
20
-3.47608
11
6.24193
21
-3.49183
0
LINE
8
BLACK
6
CONTINUOUS
10
6.24193
20
-3.47608
11
6.22618
21
-3.49183
0
LINE
8
BLACK
6
CONTINUOUS
10
6.26358
20
-4.27923
11
6.27933
21
-4.29498
0
LINE
8
BLACK
6
CONTINUOUS
10
6.27933
20
-4.27923
11
6.26358
21
-4.29498
0
LINE
8
BLACK
6
CONTINUOUS
10
6.30492
20
-3.06663
11
6.32067
21
-3.08238
0
LINE
8
BLACK
6
CONTINUOUS
10
6.32067
20
-3.06663
11
6.30492
21
-3.08238
0
LINE
8
BLACK
6
CONTINUOUS
10
6.30886
20
-3.67096
11
6.32461
21
-3.68671
0
LINE
8
BLACK
6
CONTINUOUS
10
6.32461
20
-3.67096
11
6.30886
21
-3.68671
0
LINE
8
BLACK
6
CONTINUOUS
10
6.31476
20
-3.26545
11
6.33051
21
-3.2812
0
LINE
8
BLACK
6
CONTINUOUS
10
6.33051
20
-3.26545
11
6.31476
21
-3.2812
0
LINE
8
BLACK
6
CONTINUOUS
10
6.36398
20
-3.30679
11
6.37972
21
-3.32254
0
LINE
8
BLACK
6
CONTINUOUS
10
6.37972
20
-3.30679
11
6.36398
21
-3.32254
0
LINE
8
BLACK
6
CONTINUOUS
10
6.37972
20
-3.48002
11
6.39547
21
-3.49577
0
LINE
8
BLACK
6
CONTINUOUS
10
6.39547
20
-3.48002
11
6.37972
21
-3.49577
0
LINE
8
BLACK
6
CONTINUOUS
10
6.40138
20
-2.9249
11
6.41713
21
-2.94065
0
LINE
8
BLACK
6
CONTINUOUS
10
6.41713
20
-2.9249
11
6.40138
21
-2.94065
0
LINE
8
BLACK
6
CONTINUOUS
10
6.41516
20
-4.77821
11
6.43091
21
-4.79396
0
LINE
8
BLACK
6
CONTINUOUS
10
6.43091
20
-4.77821
11
6.41516
21
-4.79396
0
LINE
8
BLACK
6
CONTINUOUS
10
6.42864
20
-4.59446
11
6.44439
21
-4.61021
0
LINE
8
BLACK
6
CONTINUOUS
10
6.44439
20
-4.59446
11
6.42864
21
-4.61021
0
LINE
8
BLACK
6
CONTINUOUS
10
6.44665
20
-3.15915
11
6.4624
21
-3.1749
0
LINE
8
BLACK
6
CONTINUOUS
10
6.4624
20
-3.15915
11
6.44665
21
-3.1749
0
LINE
8
BLACK
6
CONTINUOUS
10
6.51161
20
-3.10994
11
6.52736
21
-3.12569
0
LINE
8
BLACK
6
CONTINUOUS
10
6.52736
20
-3.10994
11
6.51161
21
-3.12569
0
LINE
8
BLACK
6
CONTINUOUS
10
6.51752
20
-3.48002
11
6.53327
21
-3.49577
0
LINE
8
BLACK
6
CONTINUOUS
10
6.53327
20
-3.48002
11
6.51752
21
-3.49577
0
LINE
8
BLACK
6
CONTINUOUS
10
6.51949
20
-2.81663
11
6.53524
21
-2.83238
0
LINE
8
BLACK
6
CONTINUOUS
10
6.53524
20
-2.81663
11
6.51949
21
-2.83238
0
LINE
8
BLACK
6
CONTINUOUS
10
6.52343
20
-3.29498
11
6.53917
21
-3.31073
0
LINE
8
BLACK
6
CONTINUOUS
10
6.53917
20
-3.29498
11
6.52343
21
-3.31073
0
LINE
8
BLACK
6
CONTINUOUS
10
6.55492
20
-3.10797
11
6.57067
21
-3.12372
0
LINE
8
BLACK
6
CONTINUOUS
10
6.57067
20
-3.10797
11
6.55492
21
-3.12372
0
LINE
8
BLACK
6
CONTINUOUS
10
6.61398
20
-2.8997
11
6.62972
21
-2.91545
0
LINE
8
BLACK
6
CONTINUOUS
10
6.62972
20
-2.8997
11
6.61398
21
-2.91545
0
LINE
8
BLACK
6
CONTINUOUS
10
6.69272
20
-4.15915
11
6.70846
21
-4.1749
0
LINE
8
BLACK
6
CONTINUOUS
10
6.70846
20
-4.15915
11
6.69272
21
-4.1749
0
LINE
8
BLACK
6
CONTINUOUS
10
6.75571
20
-3.12963
11
6.77146
21
-3.14537
0
LINE
8
BLACK
6
CONTINUOUS
10
6.77146
20
-3.12963
11
6.75571
21
-3.14537
0
LINE
8
BLACK
6
CONTINUOUS
10
6.77539
20
-3.01152
11
6.79114
21
-3.02726
0
LINE
8
BLACK
6
CONTINUOUS
10
6.79114
20
-3.01152
11
6.77539
21
-3.02726
0
LINE
8
BLACK
6
CONTINUOUS
10
6.77736
20
-2.94852
11
6.79311
21
-2.96427
0
LINE
8
BLACK
6
CONTINUOUS
10
6.79311
20
-2.94852
11
6.77736
21
-2.96427
0
LINE
8
BLACK
6
CONTINUOUS
10
6.78209
20
-4.76388
11
6.79783
21
-4.77963
0
LINE
8
BLACK
6
CONTINUOUS
10
6.79783
20
-4.76388
11
6.78209
21
-4.77963
0
LINE
8
BLACK
6
CONTINUOUS
10
6.85217
20
-3.19065
11
6.86791
21
-3.2064
0
LINE
8
BLACK
6
CONTINUOUS
10
6.86791
20
-3.19065
11
6.85217
21
-3.2064
0
LINE
8
BLACK
6
CONTINUOUS
10
6.90728
20
-3.01152
11
6.92303
21
-3.02726
0
LINE
8
BLACK
6
CONTINUOUS
10
6.92303
20
-3.01152
11
6.90728
21
-3.02726
0
LINE
8
BLACK
6
CONTINUOUS
10
6.91516
20
-3.75167
11
6.93091
21
-3.76742
0
LINE
8
BLACK
6
CONTINUOUS
10
6.93091
20
-3.75167
11
6.91516
21
-3.76742
0
LINE
8
BLACK
6
CONTINUOUS
10
6.9624
20
-3.60797
11
6.97815
21
-3.62372
0
LINE
8
BLACK
6
CONTINUOUS
10
6.97815
20
-3.60797
11
6.9624
21
-3.62372
0
LINE
8
BLACK
6
CONTINUOUS
10
7.05295
20
-2.85797
11
7.0687
21
-2.87372
0
LINE
8
BLACK
6
CONTINUOUS
10
7.0687
20
-2.85797
11
7.05295
21
-2.87372
0
LINE
8
BLACK
6
CONTINUOUS
10
7.11398
20
-4.10404
11
7.12972
21
-4.11978
0
LINE
8
BLACK
6
CONTINUOUS
10
7.12972
20
-4.10404
11
7.11398
21
-4.11978
0
LINE
8
BLACK
6
CONTINUOUS
10
7.36024
20
-4.31545
11
7.37598
21
-4.3312
0
LINE
8
BLACK
6
CONTINUOUS
10
7.37598
20
-4.31545
11
7.36024
21
-4.3312
0
LINE
8
BLACK
6
CONTINUOUS
10
7.36538
20
-4.11388
11
7.38112
21
-4.12963
0
LINE
8
BLACK
6
CONTINUOUS
10
7.38112
20
-4.11388
11
7.36538
21
-4.12963
0
CIRCLE
8
BLACK
10
7.39295
20
-3.2062
40
0.00885827
0
LINE
8
BLACK
6
CONTINUOUS
10
7.3772
20
-3.21506
11
7.4087
21
-3.21506
0
ARC
8
BLACK
10
7.4087
20
-3.2062
40
0.00885827
50
270
51
450
0
LINE
8
BLACK
6
CONTINUOUS
10
7.4087
20
-3.19734
11
7.3772
21
-3.19734
0
ARC
8
BLACK
10
7.3772
20
-3.2062
40
0.00885827
50
90
51
270
0
CIRCLE
8
BLACK
10
7.39295
20
-3.4877
40
0.00885827
0
LINE
8
BLACK
6
CONTINUOUS
10
7.4087
20
-3.47884
11
7.3772
21
-3.47884
0
ARC
8
BLACK
10
7.3772
20
-3.4877
40
0.00885827
50
450
51
630
0
LINE
8
BLACK
6
CONTINUOUS
10
7.3772
20
-3.49656
11
7.4087
21
-3.49656
0
ARC
8
BLACK
10
7.4087
20
-3.4877
40
0.00885827
50
270
51
450
0
LINE
8
BLACK
6
CONTINUOUS
10
4.91467
20
-3.48199
11
4.91467
21
-3.51348
0
LINE
8
BLACK
6
CONTINUOUS
10
4.89892
20
-3.49774
11
4.93041
21
-3.49774
0
LINE
8
BLACK
6
CONTINUOUS
10
5.10679
20
-3.48199
11
5.10679
21
-3.51348
0
LINE
8
BLACK
6
CONTINUOUS
10
5.09104
20
-3.49774
11
5.12254
21
-3.49774
0
LINE
8
BLACK
6
CONTINUOUS
10
5.0651
20
-3.09394
11
5.0651
21
-3.0661
0
LINE
8
BLACK
6
CONTINUOUS
10
5.0651
20
-3.0661
11
5.03726
21
-3.0661
0
LINE
8
BLACK
6
CONTINUOUS
10
5.03726
20
-3.0661
11
5.03726
21
-3.09394
0
LINE
8
BLACK
6
CONTINUOUS
10
5.03726
20
-3.09394
11
5.0651
21
-3.09394
0
LINE
8
BLACK
6
CONTINUOUS
10
5.11963
20
-2.98213
11
5.11963
21
-2.95429
0
LINE
8
BLACK
6
CONTINUOUS
10
5.11963
20
-2.95429
11
5.09179
21
-2.95429
0
LINE
8
BLACK
6
CONTINUOUS
10
5.09179
20
-2.95429
11
5.09179
21
-2.98213
0
LINE
8
BLACK
6
CONTINUOUS
10
5.09179
20
-2.98213
11
5.11963
21
-2.98213
0
LINE
8
BLACK
6
CONTINUOUS
10
5.17416
20
-3.09394
11
5.17416
21
-3.0661
0
LINE
8
BLACK
6
CONTINUOUS
10
5.17416
20
-3.0661
11
5.14632
21
-3.0661
0
LINE
8
BLACK
6
CONTINUOUS
10
5.14632
20
-3.0661
11
5.14632
21
-3.09394
0
LINE
8
BLACK
6
CONTINUOUS
10
5.14632
20
-3.09394
11
5.17416
21
-3.09394
0
LINE
8
BLACK
6
CONTINUOUS
10
5.22868
20
-2.98213
11
5.22868
21
-2.95429
0
LINE
8
BLACK
6
CONTINUOUS
10
5.22868
20
-2.95429
11
5.20084
21
-2.95429
0
LINE
8
BLACK
6
CONTINUOUS
10
5.20084
20
-2.95429
11
5.20084
21
-2.98213
0
LINE
8
BLACK
6
CONTINUOUS
10
5.20084
20
-2.98213
11
5.22868
21
-2.98213
0
LINE
8
BLACK
6
CONTINUOUS
10
5.28321
20
-3.09394
11
5.28321
21
-3.0661
0
LINE
8
BLACK
6
CONTINUOUS
10
5.28321
20
-3.0661
11
5.25537
21
-3.0661
0
LINE
8
BLACK
6
CONTINUOUS
10
5.25537
20
-3.0661
11
5.25537
21
-3.09394
0
LINE
8
BLACK
6
CONTINUOUS
10
5.25537
20
-3.09394
11
5.28321
21
-3.09394
0
LINE
8
BLACK
6
CONTINUOUS
10
5.33774
20
-2.98213
11
5.33774
21
-2.95429
0
LINE
8
BLACK
6
CONTINUOUS
10
5.33774
20
-2.95429
11
5.3099
21
-2.95429
0
LINE
8
BLACK
6
CONTINUOUS
10
5.3099
20
-2.95429
11
5.3099
21
-2.98213
0
LINE
8
BLACK
6
CONTINUOUS
10
5.3099
20
-2.98213
11
5.33774
21
-2.98213
0
LINE
8
BLACK
6
CONTINUOUS
10
5.39227
20
-3.09394
11
5.39227
21
-3.0661
0
LINE
8
BLACK
6
CONTINUOUS
10
5.39227
20
-3.0661
11
5.36443
21
-3.0661
0
LINE
8
BLACK
6
CONTINUOUS
10
5.36443
20
-3.0661
11
5.36443
21
-3.09394
0
LINE
8
BLACK
6
CONTINUOUS
10
5.36443
20
-3.09394
11
5.39227
21
-3.09394
0
LINE
8
BLACK
6
CONTINUOUS
10
5.44679
20
-2.98213
11
5.44679
21
-2.95429
0
LINE
8
BLACK
6
CONTINUOUS
10
5.44679
20
-2.95429
11
5.41895
21
-2.95429
0
LINE
8
BLACK
6
CONTINUOUS
10
5.41895
20
-2.95429
11
5.41895
21
-2.98213
0
LINE
8
BLACK
6
CONTINUOUS
10
5.41895
20
-2.98213
11
5.44679
21
-2.98213
0
LINE
8
BLACK
6
CONTINUOUS
10
5.50132
20
-3.09394
11
5.50132
21
-3.0661
0
LINE
8
BLACK
6
CONTINUOUS
10
5.50132
20
-3.0661
11
5.47348
21
-3.0661
0
LINE
8
BLACK
6
CONTINUOUS
10
5.47348
20
-3.0661
11
5.47348
21
-3.09394
0
LINE
8
BLACK
6
CONTINUOUS
10
5.47348
20
-3.09394
11
5.50132
21
-3.09394
0
LINE
8
BLACK
6
CONTINUOUS
10
5.90152
20
-3.41599
11
5.90152
21
-3.38815
0
LINE
8
BLACK
6
CONTINUOUS
10
5.90152
20
-3.38815
11
5.87368
21
-3.38815
0
LINE
8
BLACK
6
CONTINUOUS
10
5.87368
20
-3.38815
11
5.87368
21
-3.41599
0
LINE
8
BLACK
6
CONTINUOUS
10
5.87368
20
-3.41599
11
5.90152
21
-3.41599
0
LINE
8
BLACK
6
CONTINUOUS
10
5.90152
20
-3.51599
11
5.90152
21
-3.48815
0
LINE
8
BLACK
6
CONTINUOUS
10
5.90152
20
-3.48815
11
5.87368
21
-3.48815
0
LINE
8
BLACK
6
CONTINUOUS
10
5.87368
20
-3.48815
11
5.87368
21
-3.51599
0
LINE
8
BLACK
6
CONTINUOUS
10
5.87368
20
-3.51599
11
5.90152
21
-3.51599
0
LINE
8
BLACK
6
CONTINUOUS
10
5.90152
20
-3.61599
11
5.90152
21
-3.58815
0
LINE
8
BLACK
6
CONTINUOUS
10
5.90152
20
-3.58815
11
5.87368
21
-3.58815
0
LINE
8
BLACK
6
CONTINUOUS
10
5.87368
20
-3.58815
11
5.87368
21
-3.61599
0
LINE
8
BLACK
6
CONTINUOUS
10
5.87368
20
-3.61599
11
5.90152
21
-3.61599
0
LINE
8
BLACK
6
CONTINUOUS
10
5.1251
20
-4.79577
11
5.15502
21
-4.76585
0
LINE
8
BLACK
6
CONTINUOUS
10
5.15502
20
-4.76585
11
5.1251
21
-4.73593
0
LINE
8
BLACK
6
CONTINUOUS
10
5.1251
20
-4.73593
11
5.09518
21
-4.76585
0
LINE
8
BLACK
6
CONTINUOUS
10
5.09518
20
-4.76585
11
5.1251
21
-4.79577
0
LINE
8
BLACK
6
CONTINUOUS
10
5.3251
20
-4.79577
11
5.35502
21
-4.76585
0
LINE
8
BLACK
6
CONTINUOUS
10
5.35502
20
-4.76585
11
5.3251
21
-4.73593
0
LINE
8
BLACK
6
CONTINUOUS
10
5.3251
20
-4.73593
11
5.29518
21
-4.76585
0
LINE
8
BLACK
6
CONTINUOUS
10
5.29518
20
-4.76585
11
5.3251
21
-4.79577
0
LINE
8
BLACK
6
CONTINUOUS
10
6.00187
20
-4.79678
11
6.03179
21
-4.76686
0
LINE
8
BLACK
6
CONTINUOUS
10
6.03179
20
-4.76686
11
6.00187
21
-4.73694
0
LINE
8
BLACK
6
CONTINUOUS
10
6.00187
20
-4.73694
11
5.97195
21
-4.76686
0
LINE
8
BLACK
6
CONTINUOUS
10
5.97195
20
-4.76686
11
6.00187
21
-4.79678
0
LINE
8
BLACK
6
CONTINUOUS
10
6.20187
20
-4.79678
11
6.23179
21
-4.76686
0
LINE
8
BLACK
6
CONTINUOUS
10
6.23179
20
-4.76686
11
6.20187
21
-4.73694
0
LINE
8
BLACK
6
CONTINUOUS
10
6.20187
20
-4.73694
11
6.17195
21
-4.76686
0
LINE
8
BLACK
6
CONTINUOUS
10
6.17195
20
-4.76686
11
6.20187
21
-4.79678
0
LINE
8
BLACK
6
CONTINUOUS
10
6.89439
20
-4.79764
11
6.92431
21
-4.76772
0
LINE
8
BLACK
6
CONTINUOUS
10
6.92431
20
-4.76772
11
6.89439
21
-4.7378
0
LINE
8
BLACK
6
CONTINUOUS
10
6.89439
20
-4.7378
11
6.86447
21
-4.76772
0
LINE
8
BLACK
6
CONTINUOUS
10
6.86447
20
-4.76772
11
6.89439
21
-4.79764
0
LINE
8
BLACK
6
CONTINUOUS
10
7.09439
20
-4.79764
11
7.12431
21
-4.76772
0
LINE
8
BLACK
6
CONTINUOUS
10
7.12431
20
-4.76772
11
7.09439
21
-4.7378
0
LINE
8
BLACK
6
CONTINUOUS
10
7.09439
20
-4.7378
11
7.06447
21
-4.76772
0
LINE
8
BLACK
6
CONTINUOUS
10
7.06447
20
-4.76772
11
7.09439
21
-4.79764
0
LINE
8
BLACK
6
CONTINUOUS
10
4.37972
20
-2.8186
11
4.50571
21
-2.94459
0
LINE
8
BLACK
6
CONTINUOUS
10
4.50571
20
-2.8186
11
4.37972
21
-2.94459
0
CIRCLE
8
BLACK
10
4.44272
20
-2.88159
40
0.0629921
0
LINE
8
BLACK
6
CONTINUOUS
10
4.37972
20
-4.73986
11
4.50571
21
-4.86585
0
LINE
8
BLACK
6
CONTINUOUS
10
4.50571
20
-4.73986
11
4.37972
21
-4.86585
0
CIRCLE
8
BLACK
10
4.44272
20
-4.80285
40
0.0629921
0
LINE
8
BLACK
6
CONTINUOUS
10
4.71417
20
-3.00522
11
4.84016
21
-3.1312
0
LINE
8
BLACK
6
CONTINUOUS
10
4.84016
20
-3.00522
11
4.71417
21
-3.1312
0
CIRCLE
8
BLACK
10
4.77717
20
-3.06821
40
0.0629921
0
LINE
8
BLACK
6
CONTINUOUS
10
5.69843
20
-3.00522
11
5.82441
21
-3.1312
0
LINE
8
BLACK
6
CONTINUOUS
10
5.82441
20
-3.00522
11
5.69843
21
-3.1312
0
CIRCLE
8
BLACK
10
5.76142
20
-3.06821
40
0.0629921
0
LINE
8
BLACK
6
CONTINUOUS
10
7.28484
20
-2.8186
11
7.41083
21
-2.94459
0
LINE
8
BLACK
6
CONTINUOUS
10
7.41083
20
-2.8186
11
7.28484
21
-2.94459
0
CIRCLE
8
BLACK
10
7.34783
20
-2.88159
40
0.0629921
0
LINE
8
BLACK
6
CONTINUOUS
10
7.28524
20
-4.73986
11
7.41122
21
-4.86585
0
LINE
8
BLACK
6
CONTINUOUS
10
7.41122
20
-4.73986
11
7.28524
21
-4.86585
0
CIRCLE
8
BLACK
10
7.34823
20
-4.80285
40
0.0629921
0
LINE
8
BLACK
6
CONTINUOUS
10
4.41619
20
-5.04241
11
4.41619
21
-4.96367
0
LINE
8
BLACK
6
CONTINUOUS
10
4.41619
20
-4.96367
11
4.43494
21
-4.96367
0
LINE
8
BLACK
6
CONTINUOUS
10
4.43494
20
-4.96367
11
4.44618
21
-4.96742
0
LINE
8
BLACK
6
CONTINUOUS
10
4.44618
20
-4.96742
11
4.45368
21
-4.97492
0
LINE
8
BLACK
6
CONTINUOUS
10
4.45368
20
-4.97492
11
4.45743
21
-4.98242
0
LINE
8
BLACK
6
CONTINUOUS
10
4.45743
20
-4.98242
11
4.46118
21
-4.99742
0
LINE
8
BLACK
6
CONTINUOUS
10
4.46118
20
-4.99742
11
4.46118
21
-5.00867
0
LINE
8
BLACK
6
CONTINUOUS
10
4.46118
20
-5.00867
11
4.45743
21
-5.02366
0
LINE
8
BLACK
6
CONTINUOUS
10
4.45743
20
-5.02366
11
4.45368
21
-5.03116
0
LINE
8
BLACK
6
CONTINUOUS
10
4.45368
20
-5.03116
11
4.44618
21
-5.03866
0
LINE
8
BLACK
6
CONTINUOUS
10
4.44618
20
-5.03866
11
4.43494
21
-5.04241
0
LINE
8
BLACK
6
CONTINUOUS
10
4.43494
20
-5.04241
11
4.41619
21
-5.04241
0
LINE
8
BLACK
6
CONTINUOUS
10
4.49493
20
-5.04241
11
4.49493
21
-4.98992
0
LINE
8
BLACK
6
CONTINUOUS
10
4.49493
20
-5.00492
11
4.49868
21
-4.99742
0
LINE
8
BLACK
6
CONTINUOUS
10
4.49868
20
-4.99742
11
4.50243
21
-4.99367
0
LINE
8
BLACK
6
CONTINUOUS
10
4.50243
20
-4.99367
11
4.50993
21
-4.98992
0
LINE
8
BLACK
6
CONTINUOUS
10
4.50993
20
-4.98992
11
4.51743
21
-4.98992
0
LINE
8
BLACK
6
CONTINUOUS
10
4.54367
20
-5.04241
11
4.54367
21
-4.98992
0
LINE
8
BLACK
6
CONTINUOUS
10
4.54367
20
-4.96367
11
4.53992
21
-4.96742
0
LINE
8
BLACK
6
CONTINUOUS
10
4.53992
20
-4.96742
11
4.54367
21
-4.97117
0
LINE
8
BLACK
6
CONTINUOUS
10
4.54367
20
-4.97117
11
4.54742
21
-4.96742
0
LINE
8
BLACK
6
CONTINUOUS
10
4.54742
20
-4.96742
11
4.54367
21
-4.96367
0
LINE
8
BLACK
6
CONTINUOUS
10
4.54367
20
-4.96367
11
4.54367
21
-4.97117
0
LINE
8
BLACK
6
CONTINUOUS
10
4.59242
20
-5.04241
11
4.58492
21
-5.03866
0
LINE
8
BLACK
6
CONTINUOUS
10
4.58492
20
-5.03866
11
4.58117
21
-5.03116
0
LINE
8
BLACK
6
CONTINUOUS
10
4.58117
20
-5.03116
11
4.58117
21
-4.96367
0
LINE
8
BLACK
6
CONTINUOUS
10
4.63366
20
-5.04241
11
4.62616
21
-5.03866
0
LINE
8
BLACK
6
CONTINUOUS
10
4.62616
20
-5.03866
11
4.62241
21
-5.03116
0
LINE
8
BLACK
6
CONTINUOUS
10
4.62241
20
-5.03116
11
4.62241
21
-4.96367
0
LINE
8
BLACK
6
CONTINUOUS
10
4.7109
20
-5.04241
11
4.7109
21
-4.96367
0
LINE
8
BLACK
6
CONTINUOUS
10
4.7109
20
-4.96367
11
4.73715
21
-5.01991
0
LINE
8
BLACK
6
CONTINUOUS
10
4.73715
20
-5.01991
11
4.7634
21
-4.96367
0
LINE
8
BLACK
6
CONTINUOUS
10
4.7634
20
-4.96367
11
4.7634
21
-5.04241
0
LINE
8
BLACK
6
CONTINUOUS
10
4.83464
20
-5.04241
11
4.83464
21
-5.00117
0
LINE
8
BLACK
6
CONTINUOUS
10
4.83464
20
-5.00117
11
4.83089
21
-4.99367
0
LINE
8
BLACK
6
CONTINUOUS
10
4.83089
20
-4.99367
11
4.82339
21
-4.98992
0
LINE
8
BLACK
6
CONTINUOUS
10
4.82339
20
-4.98992
11
4.80839
21
-4.98992
0
LINE
8
BLACK
6
CONTINUOUS
10
4.80839
20
-4.98992
11
4.80089
21
-4.99367
0
LINE
8
BLACK
6
CONTINUOUS
10
4.83464
20
-5.03866
11
4.82714
21
-5.04241
0
LINE
8
BLACK
6
CONTINUOUS
10
4.82714
20
-5.04241
11
4.80839
21
-5.04241
0
LINE
8
BLACK
6
CONTINUOUS
10
4.80839
20
-5.04241
11
4.80089
21
-5.03866
0
LINE
8
BLACK
6
CONTINUOUS
10
4.80089
20
-5.03866
11
4.79714
21
-5.03116
0
LINE
8
BLACK
6
CONTINUOUS
10
4.79714
20
-5.03116
11
4.79714
21
-5.02366
0
LINE
8
BLACK
6
CONTINUOUS
10
4.79714
20
-5.02366
11
4.80089
21
-5.01617
0
LINE
8
BLACK
6
CONTINUOUS
10
4.80089
20
-5.01617
11
4.80839
21
-5.01242
0
LINE
8
BLACK
6
CONTINUOUS
10
4.80839
20
-5.01242
11
4.82714
21
-5.01242
0
LINE
8
BLACK
6
CONTINUOUS
10
4.82714
20
-5.01242
11
4.83464
21
-5.00867
0
LINE
8
BLACK
6
CONTINUOUS
10
4.87213
20
-4.98992
11
4.87213
21
-5.06866
0
LINE
8
BLACK
6
CONTINUOUS
10
4.87213
20
-4.99367
11
4.87963
21
-4.98992
0
LINE
8
BLACK
6
CONTINUOUS
10
4.87963
20
-4.98992
11
4.89463
21
-4.98992
0
LINE
8
BLACK
6
CONTINUOUS
10
4.89463
20
-4.98992
11
4.90213
21
-4.99367
0
LINE
8
BLACK
6
CONTINUOUS
10
4.90213
20
-4.99367
11
4.90588
21
-4.99742
0
LINE
8
BLACK
6
CONTINUOUS
10
4.90588
20
-4.99742
11
4.90963
21
-5.00492
0
LINE
8
BLACK
6
CONTINUOUS
10
4.90963
20
-5.00492
11
4.90963
21
-5.02741
0
LINE
8
BLACK
6
CONTINUOUS
10
4.90963
20
-5.02741
11
4.90588
21
-5.03491
0
LINE
8
BLACK
6
CONTINUOUS
10
4.90588
20
-5.03491
11
4.90213
21
-5.03866
0
LINE
8
BLACK
6
CONTINUOUS
10
4.90213
20
-5.03866
11
4.89463
21
-5.04241
0
LINE
8
BLACK
6
CONTINUOUS
10
4.89463
20
-5.04241
11
4.87963
21
-5.04241
0
LINE
8
BLACK
6
CONTINUOUS
10
4.87963
20
-5.04241
11
4.87213
21
-5.03866
0
LINE
8
BLACK
6
CONTINUOUS
10
4.94337
20
-5.03491
11
4.94712
21
-5.03866
0
LINE
8
BLACK
6
CONTINUOUS
10
4.94712
20
-5.03866
11
4.94337
21
-5.04241
0
LINE
8
BLACK
6
CONTINUOUS
10
4.94337
20
-5.04241
11
4.93962
21
-5.03866
0
LINE
8
BLACK
6
CONTINUOUS
10
4.93962
20
-5.03866
11
4.94337
21
-5.03491
0
LINE
8
BLACK
6
CONTINUOUS
10
4.94337
20
-5.03491
11
4.94337
21
-5.04241
0
LINE
8
BLACK
6
CONTINUOUS
10
4.94337
20
-4.99367
11
4.94712
21
-4.99742
0
LINE
8
BLACK
6
CONTINUOUS
10
4.94712
20
-4.99742
11
4.94337
21
-5.00117
0
LINE
8
BLACK
6
CONTINUOUS
10
4.94337
20
-5.00117
11
4.93962
21
-4.99742
0
LINE
8
BLACK
6
CONTINUOUS
10
4.93962
20
-4.99742
11
4.94337
21
-4.99367
0
LINE
8
BLACK
6
CONTINUOUS
10
4.94337
20
-4.99367
11
4.94337
21
-5.00117
0
LINE
8
BLACK
6
CONTINUOUS
10
4.30295
20
-5.17096
11
4.3187
21
-5.18671
0
LINE
8
BLACK
6
CONTINUOUS
10
4.3187
20
-5.17096
11
4.30295
21
-5.18671
0
LINE
8
BLACK
6
CONTINUOUS
10
4.43119
20
-5.12903
11
4.43869
21
-5.12903
0
LINE
8
BLACK
6
CONTINUOUS
10
4.43869
20
-5.12903
11
4.44618
21
-5.13278
0
LINE
8
BLACK
6
CONTINUOUS
10
4.44618
20
-5.13278
11
4.44993
21
-5.13653
0
LINE
8
BLACK
6
CONTINUOUS
10
4.44993
20
-5.13653
11
4.45368
21
-5.14402
0
LINE
8
BLACK
6
CONTINUOUS
10
4.45368
20
-5.14402
11
4.45743
21
-5.15902
0
LINE
8
BLACK
6
CONTINUOUS
10
4.45743
20
-5.15902
11
4.45743
21
-5.17777
0
LINE
8
BLACK
6
CONTINUOUS
10
4.45743
20
-5.17777
11
4.45368
21
-5.19277
0
LINE
8
BLACK
6
CONTINUOUS
10
4.45368
20
-5.19277
11
4.44993
21
-5.20027
0
LINE
8
BLACK
6
CONTINUOUS
10
4.44993
20
-5.20027
11
4.44618
21
-5.20402
0
LINE
8
BLACK
6
CONTINUOUS
10
4.44618
20
-5.20402
11
4.43869
21
-5.20777
0
LINE
8
BLACK
6
CONTINUOUS
10
4.43869
20
-5.20777
11
4.43119
21
-5.20777
0
LINE
8
BLACK
6
CONTINUOUS
10
4.43119
20
-5.20777
11
4.42369
21
-5.20402
0
LINE
8
BLACK
6
CONTINUOUS
10
4.42369
20
-5.20402
11
4.41994
21
-5.20027
0
LINE
8
BLACK
6
CONTINUOUS
10
4.41994
20
-5.20027
11
4.41619
21
-5.19277
0
LINE
8
BLACK
6
CONTINUOUS
10
4.41619
20
-5.19277
11
4.41244
21
-5.17777
0
LINE
8
BLACK
6
CONTINUOUS
10
4.41244
20
-5.17777
11
4.41244
21
-5.15902
0
LINE
8
BLACK
6
CONTINUOUS
10
4.41244
20
-5.15902
11
4.41619
21
-5.14402
0
LINE
8
BLACK
6
CONTINUOUS
10
4.41619
20
-5.14402
11
4.41994
21
-5.13653
0
LINE
8
BLACK
6
CONTINUOUS
10
4.41994
20
-5.13653
11
4.42369
21
-5.13278
0
LINE
8
BLACK
6
CONTINUOUS
10
4.42369
20
-5.13278
11
4.43119
21
-5.12903
0
LINE
8
BLACK
6
CONTINUOUS
10
4.49118
20
-5.20027
11
4.49493
21
-5.20402
0
LINE
8
BLACK
6
CONTINUOUS
10
4.49493
20
-5.20402
11
4.49118
21
-5.20777
0
LINE
8
BLACK
6
CONTINUOUS
10
4.49118
20
-5.20777
11
4.48743
21
-5.20402
0
LINE
8
BLACK
6
CONTINUOUS
10
4.48743
20
-5.20402
11
4.49118
21
-5.20027
0
LINE
8
BLACK
6
CONTINUOUS
10
4.49118
20
-5.20027
11
4.49118
21
-5.20777
0
LINE
8
BLACK
6
CONTINUOUS
10
4.56242
20
-5.15527
11
4.56242
21
-5.20777
0
LINE
8
BLACK
6
CONTINUOUS
10
4.54367
20
-5.12528
11
4.52492
21
-5.18152
0
LINE
8
BLACK
6
CONTINUOUS
10
4.52492
20
-5.18152
11
4.57367
21
-5.18152
0
LINE
8
BLACK
6
CONTINUOUS
10
4.61866
20
-5.12903
11
4.62616
21
-5.12903
0
LINE
8
BLACK
6
CONTINUOUS
10
4.62616
20
-5.12903
11
4.63366
21
-5.13278
0
LINE
8
BLACK
6
CONTINUOUS
10
4.63366
20
-5.13278
11
4.63741
21
-5.13653
0
LINE
8
BLACK
6
CONTINUOUS
10
4.63741
20
-5.13653
11
4.64116
21
-5.14402
0
LINE
8
BLACK
6
CONTINUOUS
10
4.64116
20
-5.14402
11
4.64491
21
-5.15902
0
LINE
8
BLACK
6
CONTINUOUS
10
4.64491
20
-5.15902
11
4.64491
21
-5.17777
0
LINE
8
BLACK
6
CONTINUOUS
10
4.64491
20
-5.17777
11
4.64116
21
-5.19277
0
LINE
8
BLACK
6
CONTINUOUS
10
4.64116
20
-5.19277
11
4.63741
21
-5.20027
0
LINE
8
BLACK
6
CONTINUOUS
10
4.63741
20
-5.20027
11
4.63366
21
-5.20402
0
LINE
8
BLACK
6
CONTINUOUS
10
4.63366
20
-5.20402
11
4.62616
21
-5.20777
0
LINE
8
BLACK
6
CONTINUOUS
10
4.62616
20
-5.20777
11
4.61866
21
-5.20777
0
LINE
8
BLACK
6
CONTINUOUS
10
4.61866
20
-5.20777
11
4.61116
21
-5.20402
0
LINE
8
BLACK
6
CONTINUOUS
10
4.61116
20
-5.20402
11
4.60741
21
-5.20027
0
LINE
8
BLACK
6
CONTINUOUS
10
4.60741
20
-5.20027
11
4.60367
21
-5.19277
0
LINE
8
BLACK
6
CONTINUOUS
10
4.60367
20
-5.19277
11
4.59992
21
-5.17777
0
LINE
8
BLACK
6
CONTINUOUS
10
4.59992
20
-5.17777
11
4.59992
21
-5.15902
0
LINE
8
BLACK
6
CONTINUOUS
10
4.59992
20
-5.15902
11
4.60367
21
-5.14402
0
LINE
8
BLACK
6
CONTINUOUS
10
4.60367
20
-5.14402
11
4.60741
21
-5.13653
0
LINE
8
BLACK
6
CONTINUOUS
10
4.60741
20
-5.13653
11
4.61116
21
-5.13278
0
LINE
8
BLACK
6
CONTINUOUS
10
4.61116
20
-5.13278
11
4.61866
21
-5.12903
0
LINE
8
BLACK
6
CONTINUOUS
10
4.69365
20
-5.12903
11
4.70115
21
-5.12903
0
LINE
8
BLACK
6
CONTINUOUS
10
4.70115
20
-5.12903
11
4.70865
21
-5.13278
0
LINE
8
BLACK
6
CONTINUOUS
10
4.70865
20
-5.13278
11
4.7124
21
-5.13653
0
LINE
8
BLACK
6
CONTINUOUS
10
4.7124
20
-5.13653
11
4.71615
21
-5.14402
0
LINE
8
BLACK
6
CONTINUOUS
10
4.71615
20
-5.14402
11
4.7199
21
-5.15902
0
LINE
8
BLACK
6
CONTINUOUS
10
4.7199
20
-5.15902
11
4.7199
21
-5.17777
0
LINE
8
BLACK
6
CONTINUOUS
10
4.7199
20
-5.17777
11
4.71615
21
-5.19277
0
LINE
8
BLACK
6
CONTINUOUS
10
4.71615
20
-5.19277
11
4.7124
21
-5.20027
0
LINE
8
BLACK
6
CONTINUOUS
10
4.7124
20
-5.20027
11
4.70865
21
-5.20402
0
LINE
8
BLACK
6
CONTINUOUS
10
4.70865
20
-5.20402
11
4.70115
21
-5.20777
0
LINE
8
BLACK
6
CONTINUOUS
10
4.70115
20
-5.20777
11
4.69365
21
-5.20777
0
LINE
8
BLACK
6
CONTINUOUS
10
4.69365
20
-5.20777
11
4.68615
21
-5.20402
0
LINE
8
BLACK
6
CONTINUOUS
10
4.68615
20
-5.20402
11
4.68241
21
-5.20027
0
LINE
8
BLACK
6
CONTINUOUS
10
4.68241
20
-5.20027
11
4.67866
21
-5.19277
0
LINE
8
BLACK
6
CONTINUOUS
10
4.67866
20
-5.19277
11
4.67491
21
-5.17777
0
LINE
8
BLACK
6
CONTINUOUS
10
4.67491
20
-5.17777
11
4.67491
21
-5.15902
0
LINE
8
BLACK
6
CONTINUOUS
10
4.67491
20
-5.15902
11
4.67866
21
-5.14402
0
LINE
8
BLACK
6
CONTINUOUS
10
4.67866
20
-5.14402
11
4.68241
21
-5.13653
0
LINE
8
BLACK
6
CONTINUOUS
10
4.68241
20
-5.13653
11
4.68615
21
-5.13278
0
LINE
8
BLACK
6
CONTINUOUS
10
4.68615
20
-5.13278
11
4.69365
21
-5.12903
0
LINE
8
BLACK
6
CONTINUOUS
10
4.75365
20
-5.20777
11
4.75365
21
-5.15527
0
LINE
8
BLACK
6
CONTINUOUS
10
4.75365
20
-5.16277
11
4.7574
21
-5.15902
0
LINE
8
BLACK
6
CONTINUOUS
10
4.7574
20
-5.15902
11
4.7649
21
-5.15527
0
LINE
8
BLACK
6
CONTINUOUS
10
4.7649
20
-5.15527
11
4.77614
21
-5.15527
0
LINE
8
BLACK
6
CONTINUOUS
10
4.77614
20
-5.15527
11
4.78364
21
-5.15902
0
LINE
8
BLACK
6
CONTINUOUS
10
4.78364
20
-5.15902
11
4.78739
21
-5.16652
0
LINE
8
BLACK
6
CONTINUOUS
10
4.78739
20
-5.16652
11
4.78739
21
-5.20777
0
LINE
8
BLACK
6
CONTINUOUS
10
4.78739
20
-5.16652
11
4.79114
21
-5.15902
0
LINE
8
BLACK
6
CONTINUOUS
10
4.79114
20
-5.15902
11
4.79864
21
-5.15527
0
LINE
8
BLACK
6
CONTINUOUS
10
4.79864
20
-5.15527
11
4.80989
21
-5.15527
0
LINE
8
BLACK
6
CONTINUOUS
10
4.80989
20
-5.15527
11
4.81739
21
-5.15902
0
LINE
8
BLACK
6
CONTINUOUS
10
4.81739
20
-5.15902
11
4.82114
21
-5.16652
0
LINE
8
BLACK
6
CONTINUOUS
10
4.82114
20
-5.16652
11
4.82114
21
-5.20777
0
LINE
8
BLACK
6
CONTINUOUS
10
4.85863
20
-5.20777
11
4.85863
21
-5.15527
0
LINE
8
BLACK
6
CONTINUOUS
10
4.85863
20
-5.16277
11
4.86238
21
-5.15902
0
LINE
8
BLACK
6
CONTINUOUS
10
4.86238
20
-5.15902
11
4.86988
21
-5.15527
0
LINE
8
BLACK
6
CONTINUOUS
10
4.86988
20
-5.15527
11
4.88113
21
-5.15527
0
LINE
8
BLACK
6
CONTINUOUS
10
4.88113
20
-5.15527
11
4.88863
21
-5.15902
0
LINE
8
BLACK
6
CONTINUOUS
10
4.88863
20
-5.15902
11
4.89238
21
-5.16652
0
LINE
8
BLACK
6
CONTINUOUS
10
4.89238
20
-5.16652
11
4.89238
21
-5.20777
0
LINE
8
BLACK
6
CONTINUOUS
10
4.89238
20
-5.16652
11
4.89613
21
-5.15902
0
LINE
8
BLACK
6
CONTINUOUS
10
4.89613
20
-5.15902
11
4.90363
21
-5.15527
0
LINE
8
BLACK
6
CONTINUOUS
10
4.90363
20
-5.15527
11
4.91488
21
-5.15527
0
LINE
8
BLACK
6
CONTINUOUS
10
4.91488
20
-5.15527
11
4.92238
21
-5.15902
0
LINE
8
BLACK
6
CONTINUOUS
10
4.92238
20
-5.15902
11
4.92612
21
-5.16652
0
LINE
8
BLACK
6
CONTINUOUS
10
4.92612
20
-5.16652
11
4.92612
21
-5.20777
0
LINE
8
BLACK
6
CONTINUOUS
10
5.06711
20
-5.12528
11
4.99962
21
-5.22651
0
LINE
8
BLACK
6
CONTINUOUS
10
5.1556
20
-5.12903
11
5.1631
21
-5.12903
0
LINE
8
BLACK
6
CONTINUOUS
10
5.1631
20
-5.12903
11
5.17059
21
-5.13278
0
LINE
8
BLACK
6
CONTINUOUS
10
5.17059
20
-5.13278
11
5.17434
21
-5.13653
0
LINE
8
BLACK
6
CONTINUOUS
10
5.17434
20
-5.13653
11
5.17809
21
-5.14402
0
LINE
8
BLACK
6
CONTINUOUS
10
5.17809
20
-5.14402
11
5.18184
21
-5.15902
0
LINE
8
BLACK
6
CONTINUOUS
10
5.18184
20
-5.15902
11
5.18184
21
-5.17777
0
LINE
8
BLACK
6
CONTINUOUS
10
5.18184
20
-5.17777
11
5.17809
21
-5.19277
0
LINE
8
BLACK
6
CONTINUOUS
10
5.17809
20
-5.19277
11
5.17434
21
-5.20027
0
LINE
8
BLACK
6
CONTINUOUS
10
5.17434
20
-5.20027
11
5.17059
21
-5.20402
0
LINE
8
BLACK
6
CONTINUOUS
10
5.17059
20
-5.20402
11
5.1631
21
-5.20777
0
LINE
8
BLACK
6
CONTINUOUS
10
5.1631
20
-5.20777
11
5.1556
21
-5.20777
0
LINE
8
BLACK
6
CONTINUOUS
10
5.1556
20
-5.20777
11
5.1481
21
-5.20402
0
LINE
8
BLACK
6
CONTINUOUS
10
5.1481
20
-5.20402
11
5.14435
21
-5.20027
0
LINE
8
BLACK
6
CONTINUOUS
10
5.14435
20
-5.20027
11
5.1406
21
-5.19277
0
LINE
8
BLACK
6
CONTINUOUS
10
5.1406
20
-5.19277
11
5.13685
21
-5.17777
0
LINE
8
BLACK
6
CONTINUOUS
10
5.13685
20
-5.17777
11
5.13685
21
-5.15902
0
LINE
8
BLACK
6
CONTINUOUS
10
5.13685
20
-5.15902
11
5.1406
21
-5.14402
0
LINE
8
BLACK
6
CONTINUOUS
10
5.1406
20
-5.14402
11
5.14435
21
-5.13653
0
LINE
8
BLACK
6
CONTINUOUS
10
5.14435
20
-5.13653
11
5.1481
21
-5.13278
0
LINE
8
BLACK
6
CONTINUOUS
10
5.1481
20
-5.13278
11
5.1556
21
-5.12903
0
LINE
8
BLACK
6
CONTINUOUS
10
5.21559
20
-5.20027
11
5.21934
21
-5.20402
0
LINE
8
BLACK
6
CONTINUOUS
10
5.21934
20
-5.20402
11
5.21559
21
-5.20777
0
LINE
8
BLACK
6
CONTINUOUS
10
5.21559
20
-5.20777
11
5.21184
21
-5.20402
0
LINE
8
BLACK
6
CONTINUOUS
10
5.21184
20
-5.20402
11
5.21559
21
-5.20027
0
LINE
8
BLACK
6
CONTINUOUS
10
5.21559
20
-5.20027
11
5.21559
21
-5.20777
0
LINE
8
BLACK
6
CONTINUOUS
10
5.26808
20
-5.12903
11
5.27558
21
-5.12903
0
LINE
8
BLACK
6
CONTINUOUS
10
5.27558
20
-5.12903
11
5.28308
21
-5.13278
0
LINE
8
BLACK
6
CONTINUOUS
10
5.28308
20
-5.13278
11
5.28683
21
-5.13653
0
LINE
8
BLACK
6
CONTINUOUS
10
5.28683
20
-5.13653
11
5.29058
21
-5.14402
0
LINE
8
BLACK
6
CONTINUOUS
10
5.29058
20
-5.14402
11
5.29433
21
-5.15902
0
LINE
8
BLACK
6
CONTINUOUS
10
5.29433
20
-5.15902
11
5.29433
21
-5.17777
0
LINE
8
BLACK
6
CONTINUOUS
10
5.29433
20
-5.17777
11
5.29058
21
-5.19277
0
LINE
8
BLACK
6
CONTINUOUS
10
5.29058
20
-5.19277
11
5.28683
21
-5.20027
0
LINE
8
BLACK
6
CONTINUOUS
10
5.28683
20
-5.20027
11
5.28308
21
-5.20402
0
LINE
8
BLACK
6
CONTINUOUS
10
5.28308
20
-5.20402
11
5.27558
21
-5.20777
0
LINE
8
BLACK
6
CONTINUOUS
10
5.27558
20
-5.20777
11
5.26808
21
-5.20777
0
LINE
8
BLACK
6
CONTINUOUS
10
5.26808
20
-5.20777
11
5.26058
21
-5.20402
0
LINE
8
BLACK
6
CONTINUOUS
10
5.26058
20
-5.20402
11
5.25683
21
-5.20027
0
LINE
8
BLACK
6
CONTINUOUS
10
5.25683
20
-5.20027
11
5.25308
21
-5.19277
0
LINE
8
BLACK
6
CONTINUOUS
10
5.25308
20
-5.19277
11
5.24933
21
-5.17777
0
LINE
8
BLACK
6
CONTINUOUS
10
5.24933
20
-5.17777
11
5.24933
21
-5.15902
0
LINE
8
BLACK
6
CONTINUOUS
10
5.24933
20
-5.15902
11
5.25308
21
-5.14402
0
LINE
8
BLACK
6
CONTINUOUS
10
5.25308
20
-5.14402
11
5.25683
21
-5.13653
0
LINE
8
BLACK
6
CONTINUOUS
10
5.25683
20
-5.13653
11
5.26058
21
-5.13278
0
LINE
8
BLACK
6
CONTINUOUS
10
5.26058
20
-5.13278
11
5.26808
21
-5.12903
0
LINE
8
BLACK
6
CONTINUOUS
10
5.36932
20
-5.20777
11
5.32433
21
-5.20777
0
LINE
8
BLACK
6
CONTINUOUS
10
5.34682
20
-5.20777
11
5.34682
21
-5.12903
0
LINE
8
BLACK
6
CONTINUOUS
10
5.34682
20
-5.12903
11
5.33932
21
-5.14027
0
LINE
8
BLACK
6
CONTINUOUS
10
5.33932
20
-5.14027
11
5.33182
21
-5.14777
0
LINE
8
BLACK
6
CONTINUOUS
10
5.33182
20
-5.14777
11
5.32433
21
-5.15152
0
LINE
8
BLACK
6
CONTINUOUS
10
5.44056
20
-5.12903
11
5.40307
21
-5.12903
0
LINE
8
BLACK
6
CONTINUOUS
10
5.40307
20
-5.12903
11
5.39932
21
-5.16652
0
LINE
8
BLACK
6
CONTINUOUS
10
5.39932
20
-5.16652
11
5.40307
21
-5.16277
0
LINE
8
BLACK
6
CONTINUOUS
10
5.40307
20
-5.16277
11
5.41056
21
-5.15902
0
LINE
8
BLACK
6
CONTINUOUS
10
5.41056
20
-5.15902
11
5.42931
21
-5.15902
0
LINE
8
BLACK
6
CONTINUOUS
10
5.42931
20
-5.15902
11
5.43681
21
-5.16277
0
LINE
8
BLACK
6
CONTINUOUS
10
5.43681
20
-5.16277
11
5.44056
21
-5.16652
0
LINE
8
BLACK
6
CONTINUOUS
10
5.44056
20
-5.16652
11
5.44431
21
-5.17402
0
LINE
8
BLACK
6
CONTINUOUS
10
5.44431
20
-5.17402
11
5.44431
21
-5.19277
0
LINE
8
BLACK
6
CONTINUOUS
10
5.44431
20
-5.19277
11
5.44056
21
-5.20027
0
LINE
8
BLACK
6
CONTINUOUS
10
5.44056
20
-5.20027
11
5.43681
21
-5.20402
0
LINE
8
BLACK
6
CONTINUOUS
10
5.43681
20
-5.20402
11
5.42931
21
-5.20777
0
LINE
8
BLACK
6
CONTINUOUS
10
5.42931
20
-5.20777
11
5.41056
21
-5.20777
0
LINE
8
BLACK
6
CONTINUOUS
10
5.41056
20
-5.20777
11
5.40307
21
-5.20402
0
LINE
8
BLACK
6
CONTINUOUS
10
5.40307
20
-5.20402
11
5.39932
21
-5.20027
0
LINE
8
BLACK
6
CONTINUOUS
10
5.47056
20
-5.12903
11
5.52305
21
-5.12903
0
LINE
8
BLACK
6
CONTINUOUS
10
5.52305
20
-5.12903
11
5.4893
21
-5.20777
0
LINE
8
BLACK
6
CONTINUOUS
10
5.5493
20
-5.12903
11
5.5493
21
-5.14402
0
LINE
8
BLACK
6
CONTINUOUS
10
5.57929
20
-5.12903
11
5.57929
21
-5.14402
0
LINE
8
BLACK
6
CONTINUOUS
10
5.68278
20
-5.23776
11
5.67903
21
-5.23401
0
LINE
8
BLACK
6
CONTINUOUS
10
5.67903
20
-5.23401
11
5.67153
21
-5.22276
0
LINE
8
BLACK
6
CONTINUOUS
10
5.67153
20
-5.22276
11
5.66778
21
-5.21527
0
LINE
8
BLACK
6
CONTINUOUS
10
5.66778
20
-5.21527
11
5.66403
21
-5.20402
0
LINE
8
BLACK
6
CONTINUOUS
10
5.66403
20
-5.20402
11
5.66028
21
-5.18527
0
LINE
8
BLACK
6
CONTINUOUS
10
5.66028
20
-5.18527
11
5.66028
21
-5.17027
0
LINE
8
BLACK
6
CONTINUOUS
10
5.66028
20
-5.17027
11
5.66403
21
-5.15152
0
LINE
8
BLACK
6
CONTINUOUS
10
5.66403
20
-5.15152
11
5.66778
21
-5.14027
0
LINE
8
BLACK
6
CONTINUOUS
10
5.66778
20
-5.14027
11
5.67153
21
-5.13278
0
LINE
8
BLACK
6
CONTINUOUS
10
5.67153
20
-5.13278
11
5.67903
21
-5.12153
0
LINE
8
BLACK
6
CONTINUOUS
10
5.67903
20
-5.12153
11
5.68278
21
-5.11778
0
LINE
8
BLACK
6
CONTINUOUS
10
5.75027
20
-5.12903
11
5.71278
21
-5.12903
0
LINE
8
BLACK
6
CONTINUOUS
10
5.71278
20
-5.12903
11
5.70903
21
-5.16652
0
LINE
8
BLACK
6
CONTINUOUS
10
5.70903
20
-5.16652
11
5.71278
21
-5.16277
0
LINE
8
BLACK
6
CONTINUOUS
10
5.71278
20
-5.16277
11
5.72028
21
-5.15902
0
LINE
8
BLACK
6
CONTINUOUS
10
5.72028
20
-5.15902
11
5.73902
21
-5.15902
0
LINE
8
BLACK
6
CONTINUOUS
10
5.73902
20
-5.15902
11
5.74652
21
-5.16277
0
LINE
8
BLACK
6
CONTINUOUS
10
5.74652
20
-5.16277
11
5.75027
21
-5.16652
0
LINE
8
BLACK
6
CONTINUOUS
10
5.75027
20
-5.16652
11
5.75402
21
-5.17402
0
LINE
8
BLACK
6
CONTINUOUS
10
5.75402
20
-5.17402
11
5.75402
21
-5.19277
0
LINE
8
BLACK
6
CONTINUOUS
10
5.75402
20
-5.19277
11
5.75027
21
-5.20027
0
LINE
8
BLACK
6
CONTINUOUS
10
5.75027
20
-5.20027
11
5.74652
21
-5.20402
0
LINE
8
BLACK
6
CONTINUOUS
10
5.74652
20
-5.20402
11
5.73902
21
-5.20777
0
LINE
8
BLACK
6
CONTINUOUS
10
5.73902
20
-5.20777
11
5.72028
21
-5.20777
0
LINE
8
BLACK
6
CONTINUOUS
10
5.72028
20
-5.20777
11
5.71278
21
-5.20402
0
LINE
8
BLACK
6
CONTINUOUS
10
5.71278
20
-5.20402
11
5.70903
21
-5.20027
0
LINE
8
BLACK
6
CONTINUOUS
10
5.79902
20
-5.16277
11
5.79152
21
-5.15902
0
LINE
8
BLACK
6
CONTINUOUS
10
5.79152
20
-5.15902
11
5.78777
21
-5.15527
0
LINE
8
BLACK
6
CONTINUOUS
10
5.78777
20
-5.15527
11
5.78402
21
-5.14777
0
LINE
8
BLACK
6
CONTINUOUS
10
5.78402
20
-5.14777
11
5.78402
21
-5.14402
0
LINE
8
BLACK
6
CONTINUOUS
10
5.78402
20
-5.14402
11
5.78777
21
-5.13653
0
LINE
8
BLACK
6
CONTINUOUS
10
5.78777
20
-5.13653
11
5.79152
21
-5.13278
0
LINE
8
BLACK
6
CONTINUOUS
10
5.79152
20
-5.13278
11
5.79902
21
-5.12903
0
LINE
8
BLACK
6
CONTINUOUS
10
5.79902
20
-5.12903
11
5.81401
21
-5.12903
0
LINE
8
BLACK
6
CONTINUOUS
10
5.81401
20
-5.12903
11
5.82151
21
-5.13278
0
LINE
8
BLACK
6
CONTINUOUS
10
5.82151
20
-5.13278
11
5.82526
21
-5.13653
0
LINE
8
BLACK
6
CONTINUOUS
10
5.82526
20
-5.13653
11
5.82901
21
-5.14402
0
LINE
8
BLACK
6
CONTINUOUS
10
5.82901
20
-5.14402
11
5.82901
21
-5.14777
0
LINE
8
BLACK
6
CONTINUOUS
10
5.82901
20
-5.14777
11
5.82526
21
-5.15527
0
LINE
8
BLACK
6
CONTINUOUS
10
5.82526
20
-5.15527
11
5.82151
21
-5.15902
0
LINE
8
BLACK
6
CONTINUOUS
10
5.82151
20
-5.15902
11
5.81401
21
-5.16277
0
LINE
8
BLACK
6
CONTINUOUS
10
5.81401
20
-5.16277
11
5.79902
21
-5.16277
0
LINE
8
BLACK
6
CONTINUOUS
10
5.79902
20
-5.16277
11
5.79152
21
-5.16652
0
LINE
8
BLACK
6
CONTINUOUS
10
5.79152
20
-5.16652
11
5.78777
21
-5.17027
0
LINE
8
BLACK
6
CONTINUOUS
10
5.78777
20
-5.17027
11
5.78402
21
-5.17777
0
LINE
8
BLACK
6
CONTINUOUS
10
5.78402
20
-5.17777
11
5.78402
21
-5.19277
0
LINE
8
BLACK
6
CONTINUOUS
10
5.78402
20
-5.19277
11
5.78777
21
-5.20027
0
LINE
8
BLACK
6
CONTINUOUS
10
5.78777
20
-5.20027
11
5.79152
21
-5.20402
0
LINE
8
BLACK
6
CONTINUOUS
10
5.79152
20
-5.20402
11
5.79902
21
-5.20777
0
LINE
8
BLACK
6
CONTINUOUS
10
5.79902
20
-5.20777
11
5.81401
21
-5.20777
0
LINE
8
BLACK
6
CONTINUOUS
10
5.81401
20
-5.20777
11
5.82151
21
-5.20402
0
LINE
8
BLACK
6
CONTINUOUS
10
5.82151
20
-5.20402
11
5.82526
21
-5.20027
0
LINE
8
BLACK
6
CONTINUOUS
10
5.82526
20
-5.20027
11
5.82901
21
-5.19277
0
LINE
8
BLACK
6
CONTINUOUS
10
5.82901
20
-5.19277
11
5.82901
21
-5.17777
0
LINE
8
BLACK
6
CONTINUOUS
10
5.82901
20
-5.17777
11
5.82526
21
-5.17027
0
LINE
8
BLACK
6
CONTINUOUS
10
5.82526
20
-5.17027
11
5.82151
21
-5.16652
0
LINE
8
BLACK
6
CONTINUOUS
10
5.82151
20
-5.16652
11
5.81401
21
-5.16277
0
LINE
8
BLACK
6
CONTINUOUS
10
5.91
20
-5.20777
11
5.91
21
-5.12903
0
LINE
8
BLACK
6
CONTINUOUS
10
5.94375
20
-5.20777
11
5.94375
21
-5.16652
0
LINE
8
BLACK
6
CONTINUOUS
10
5.94375
20
-5.16652
11
5.94
21
-5.15902
0
LINE
8
BLACK
6
CONTINUOUS
10
5.94
20
-5.15902
11
5.9325
21
-5.15527
0
LINE
8
BLACK
6
CONTINUOUS
10
5.9325
20
-5.15527
11
5.92125
21
-5.15527
0
LINE
8
BLACK
6
CONTINUOUS
10
5.92125
20
-5.15527
11
5.91375
21
-5.15902
0
LINE
8
BLACK
6
CONTINUOUS
10
5.91375
20
-5.15902
11
5.91
21
-5.16277
0
LINE
8
BLACK
6
CONTINUOUS
10
5.99249
20
-5.20777
11
5.98499
21
-5.20402
0
LINE
8
BLACK
6
CONTINUOUS
10
5.98499
20
-5.20402
11
5.98124
21
-5.20027
0
LINE
8
BLACK
6
CONTINUOUS
10
5.98124
20
-5.20027
11
5.97749
21
-5.19277
0
LINE
8
BLACK
6
CONTINUOUS
10
5.97749
20
-5.19277
11
5.97749
21
-5.17027
0
LINE
8
BLACK
6
CONTINUOUS
10
5.97749
20
-5.17027
11
5.98124
21
-5.16277
0
LINE
8
BLACK
6
CONTINUOUS
10
5.98124
20
-5.16277
11
5.98499
21
-5.15902
0
LINE
8
BLACK
6
CONTINUOUS
10
5.98499
20
-5.15902
11
5.99249
21
-5.15527
0
LINE
8
BLACK
6
CONTINUOUS
10
5.99249
20
-5.15527
11
6.00374
21
-5.15527
0
LINE
8
BLACK
6
CONTINUOUS
10
6.00374
20
-5.15527
11
6.01124
21
-5.15902
0
LINE
8
BLACK
6
CONTINUOUS
10
6.01124
20
-5.15902
11
6.01499
21
-5.16277
0
LINE
8
BLACK
6
CONTINUOUS
10
6.01499
20
-5.16277
11
6.01874
21
-5.17027
0
LINE
8
BLACK
6
CONTINUOUS
10
6.01874
20
-5.17027
11
6.01874
21
-5.19277
0
LINE
8
BLACK
6
CONTINUOUS
10
6.01874
20
-5.19277
11
6.01499
21
-5.20027
0
LINE
8
BLACK
6
CONTINUOUS
10
6.01499
20
-5.20027
11
6.01124
21
-5.20402
0
LINE
8
BLACK
6
CONTINUOUS
10
6.01124
20
-5.20402
11
6.00374
21
-5.20777
0
LINE
8
BLACK
6
CONTINUOUS
10
6.00374
20
-5.20777
11
5.99249
21
-5.20777
0
LINE
8
BLACK
6
CONTINUOUS
10
6.06373
20
-5.20777
11
6.05623
21
-5.20402
0
LINE
8
BLACK
6
CONTINUOUS
10
6.05623
20
-5.20402
11
6.05248
21
-5.19652
0
LINE
8
BLACK
6
CONTINUOUS
10
6.05248
20
-5.19652
11
6.05248
21
-5.12903
0
LINE
8
BLACK
6
CONTINUOUS
10
6.12373
20
-5.20402
11
6.11623
21
-5.20777
0
LINE
8
BLACK
6
CONTINUOUS
10
6.11623
20
-5.20777
11
6.10123
21
-5.20777
0
LINE
8
BLACK
6
CONTINUOUS
10
6.10123
20
-5.20777
11
6.09373
21
-5.20402
0
LINE
8
BLACK
6
CONTINUOUS
10
6.09373
20
-5.20402
11
6.08998
21
-5.19652
0
LINE
8
BLACK
6
CONTINUOUS
10
6.08998
20
-5.19652
11
6.08998
21
-5.16652
0
LINE
8
BLACK
6
CONTINUOUS
10
6.08998
20
-5.16652
11
6.09373
21
-5.15902
0
LINE
8
BLACK
6
CONTINUOUS
10
6.09373
20
-5.15902
11
6.10123
21
-5.15527
0
LINE
8
BLACK
6
CONTINUOUS
10
6.10123
20
-5.15527
11
6.11623
21
-5.15527
0
LINE
8
BLACK
6
CONTINUOUS
10
6.11623
20
-5.15527
11
6.12373
21
-5.15902
0
LINE
8
BLACK
6
CONTINUOUS
10
6.12373
20
-5.15902
11
6.12747
21
-5.16652
0
LINE
8
BLACK
6
CONTINUOUS
10
6.12747
20
-5.16652
11
6.12747
21
-5.17402
0
LINE
8
BLACK
6
CONTINUOUS
10
6.12747
20
-5.17402
11
6.08998
21
-5.18152
0
LINE
8
BLACK
6
CONTINUOUS
10
6.15747
20
-5.20402
11
6.16497
21
-5.20777
0
LINE
8
BLACK
6
CONTINUOUS
10
6.16497
20
-5.20777
11
6.17997
21
-5.20777
0
LINE
8
BLACK
6
CONTINUOUS
10
6.17997
20
-5.20777
11
6.18747
21
-5.20402
0
LINE
8
BLACK
6
CONTINUOUS
10
6.18747
20
-5.20402
11
6.19122
21
-5.19652
0
LINE
8
BLACK
6
CONTINUOUS
10
6.19122
20
-5.19652
11
6.19122
21
-5.19277
0
LINE
8
BLACK
6
CONTINUOUS
10
6.19122
20
-5.19277
11
6.18747
21
-5.18527
0
LINE
8
BLACK
6
CONTINUOUS
10
6.18747
20
-5.18527
11
6.17997
21
-5.18152
0
LINE
8
BLACK
6
CONTINUOUS
10
6.17997
20
-5.18152
11
6.16872
21
-5.18152
0
LINE
8
BLACK
6
CONTINUOUS
10
6.16872
20
-5.18152
11
6.16122
21
-5.17777
0
LINE
8
BLACK
6
CONTINUOUS
10
6.16122
20
-5.17777
11
6.15747
21
-5.17027
0
LINE
8
BLACK
6
CONTINUOUS
10
6.15747
20
-5.17027
11
6.15747
21
-5.16652
0
LINE
8
BLACK
6
CONTINUOUS
10
6.15747
20
-5.16652
11
6.16122
21
-5.15902
0
LINE
8
BLACK
6
CONTINUOUS
10
6.16122
20
-5.15902
11
6.16872
21
-5.15527
0
LINE
8
BLACK
6
CONTINUOUS
10
6.16872
20
-5.15527
11
6.17997
21
-5.15527
0
LINE
8
BLACK
6
CONTINUOUS
10
6.17997
20
-5.15527
11
6.18747
21
-5.15902
0
LINE
8
BLACK
6
CONTINUOUS
10
6.21746
20
-5.23776
11
6.22121
21
-5.23401
0
LINE
8
BLACK
6
CONTINUOUS
10
6.22121
20
-5.23401
11
6.22871
21
-5.22276
0
LINE
8
BLACK
6
CONTINUOUS
10
6.22871
20
-5.22276
11
6.23246
21
-5.21527
0
LINE
8
BLACK
6
CONTINUOUS
10
6.23246
20
-5.21527
11
6.23621
21
-5.20402
0
LINE
8
BLACK
6
CONTINUOUS
10
6.23621
20
-5.20402
11
6.23996
21
-5.18527
0
LINE
8
BLACK
6
CONTINUOUS
10
6.23996
20
-5.18527
11
6.23996
21
-5.17027
0
LINE
8
BLACK
6
CONTINUOUS
10
6.23996
20
-5.17027
11
6.23621
21
-5.15152
0
LINE
8
BLACK
6
CONTINUOUS
10
6.23621
20
-5.15152
11
6.23246
21
-5.14027
0
LINE
8
BLACK
6
CONTINUOUS
10
6.23246
20
-5.14027
11
6.22871
21
-5.13278
0
LINE
8
BLACK
6
CONTINUOUS
10
6.22871
20
-5.13278
11
6.22121
21
-5.12153
0
LINE
8
BLACK
6
CONTINUOUS
10
6.22121
20
-5.12153
11
6.21746
21
-5.11778
0
CIRCLE
8
BLACK
10
4.30984
20
-5.28278
40
0.00885827
0
LINE
8
BLACK
6
CONTINUOUS
10
4.43119
20
-5.23296
11
4.43869
21
-5.23296
0
LINE
8
BLACK
6
CONTINUOUS
10
4.43869
20
-5.23296
11
4.44618
21
-5.23671
0
LINE
8
BLACK
6
CONTINUOUS
10
4.44618
20
-5.23671
11
4.44993
21
-5.24046
0
LINE
8
BLACK
6
CONTINUOUS
10
4.44993
20
-5.24046
11
4.45368
21
-5.24796
0
LINE
8
BLACK
6
CONTINUOUS
10
4.45368
20
-5.24796
11
4.45743
21
-5.26296
0
LINE
8
BLACK
6
CONTINUOUS
10
4.45743
20
-5.26296
11
4.45743
21
-5.28171
0
LINE
8
BLACK
6
CONTINUOUS
10
4.45743
20
-5.28171
11
4.45368
21
-5.29671
0
LINE
8
BLACK
6
CONTINUOUS
10
4.45368
20
-5.29671
11
4.44993
21
-5.3042
0
LINE
8
BLACK
6
CONTINUOUS
10
4.44993
20
-5.3042
11
4.44618
21
-5.30795
0
LINE
8
BLACK
6
CONTINUOUS
10
4.44618
20
-5.30795
11
4.43869
21
-5.3117
0
LINE
8
BLACK
6
CONTINUOUS
10
4.43869
20
-5.3117
11
4.43119
21
-5.3117
0
LINE
8
BLACK
6
CONTINUOUS
10
4.43119
20
-5.3117
11
4.42369
21
-5.30795
0
LINE
8
BLACK
6
CONTINUOUS
10
4.42369
20
-5.30795
11
4.41994
21
-5.3042
0
LINE
8
BLACK
6
CONTINUOUS
10
4.41994
20
-5.3042
11
4.41619
21
-5.29671
0
LINE
8
BLACK
6
CONTINUOUS
10
4.41619
20
-5.29671
11
4.41244
21
-5.28171
0
LINE
8
BLACK
6
CONTINUOUS
10
4.41244
20
-5.28171
11
4.41244
21
-5.26296
0
LINE
8
BLACK
6
CONTINUOUS
10
4.41244
20
-5.26296
11
4.41619
21
-5.24796
0
LINE
8
BLACK
6
CONTINUOUS
10
4.41619
20
-5.24796
11
4.41994
21
-5.24046
0
LINE
8
BLACK
6
CONTINUOUS
10
4.41994
20
-5.24046
11
4.42369
21
-5.23671
0
LINE
8
BLACK
6
CONTINUOUS
10
4.42369
20
-5.23671
11
4.43119
21
-5.23296
0
LINE
8
BLACK
6
CONTINUOUS
10
4.49118
20
-5.3042
11
4.49493
21
-5.30795
0
LINE
8
BLACK
6
CONTINUOUS
10
4.49493
20
-5.30795
11
4.49118
21
-5.3117
0
LINE
8
BLACK
6
CONTINUOUS
10
4.49118
20
-5.3117
11
4.48743
21
-5.30795
0
LINE
8
BLACK
6
CONTINUOUS
10
4.48743
20
-5.30795
11
4.49118
21
-5.3042
0
LINE
8
BLACK
6
CONTINUOUS
10
4.49118
20
-5.3042
11
4.49118
21
-5.3117
0
LINE
8
BLACK
6
CONTINUOUS
10
4.56242
20
-5.25921
11
4.56242
21
-5.3117
0
LINE
8
BLACK
6
CONTINUOUS
10
4.54367
20
-5.22921
11
4.52492
21
-5.28546
0
LINE
8
BLACK
6
CONTINUOUS
10
4.52492
20
-5.28546
11
4.57367
21
-5.28546
0
LINE
8
BLACK
6
CONTINUOUS
10
4.64116
20
-5.23296
11
4.60367
21
-5.23296
0
LINE
8
BLACK
6
CONTINUOUS
10
4.60367
20
-5.23296
11
4.59992
21
-5.27046
0
LINE
8
BLACK
6
CONTINUOUS
10
4.59992
20
-5.27046
11
4.60367
21
-5.26671
0
LINE
8
BLACK
6
CONTINUOUS
10
4.60367
20
-5.26671
11
4.61116
21
-5.26296
0
LINE
8
BLACK
6
CONTINUOUS
10
4.61116
20
-5.26296
11
4.62991
21
-5.26296
0
LINE
8
BLACK
6
CONTINUOUS
10
4.62991
20
-5.26296
11
4.63741
21
-5.26671
0
LINE
8
BLACK
6
CONTINUOUS
10
4.63741
20
-5.26671
11
4.64116
21
-5.27046
0
LINE
8
BLACK
6
CONTINUOUS
10
4.64116
20
-5.27046
11
4.64491
21
-5.27796
0
LINE
8
BLACK
6
CONTINUOUS
10
4.64491
20
-5.27796
11
4.64491
21
-5.29671
0
LINE
8
BLACK
6
CONTINUOUS
10
4.64491
20
-5.29671
11
4.64116
21
-5.3042
0
LINE
8
BLACK
6
CONTINUOUS
10
4.64116
20
-5.3042
11
4.63741
21
-5.30795
0
LINE
8
BLACK
6
CONTINUOUS
10
4.63741
20
-5.30795
11
4.62991
21
-5.3117
0
LINE
8
BLACK
6
CONTINUOUS
10
4.62991
20
-5.3117
11
4.61116
21
-5.3117
0
LINE
8
BLACK
6
CONTINUOUS
10
4.61116
20
-5.3117
11
4.60367
21
-5.30795
0
LINE
8
BLACK
6
CONTINUOUS
10
4.60367
20
-5.30795
11
4.59992
21
-5.3042
0
LINE
8
BLACK
6
CONTINUOUS
10
4.69365
20
-5.23296
11
4.70115
21
-5.23296
0
LINE
8
BLACK
6
CONTINUOUS
10
4.70115
20
-5.23296
11
4.70865
21
-5.23671
0
LINE
8
BLACK
6
CONTINUOUS
10
4.70865
20
-5.23671
11
4.7124
21
-5.24046
0
LINE
8
BLACK
6
CONTINUOUS
10
4.7124
20
-5.24046
11
4.71615
21
-5.24796
0
LINE
8
BLACK
6
CONTINUOUS
10
4.71615
20
-5.24796
11
4.7199
21
-5.26296
0
LINE
8
BLACK
6
CONTINUOUS
10
4.7199
20
-5.26296
11
4.7199
21
-5.28171
0
LINE
8
BLACK
6
CONTINUOUS
10
4.7199
20
-5.28171
11
4.71615
21
-5.29671
0
LINE
8
BLACK
6
CONTINUOUS
10
4.71615
20
-5.29671
11
4.7124
21
-5.3042
0
LINE
8
BLACK
6
CONTINUOUS
10
4.7124
20
-5.3042
11
4.70865
21
-5.30795
0
LINE
8
BLACK
6
CONTINUOUS
10
4.70865
20
-5.30795
11
4.70115
21
-5.3117
0
LINE
8
BLACK
6
CONTINUOUS
10
4.70115
20
-5.3117
11
4.69365
21
-5.3117
0
LINE
8
BLACK
6
CONTINUOUS
10
4.69365
20
-5.3117
11
4.68615
21
-5.30795
0
LINE
8
BLACK
6
CONTINUOUS
10
4.68615
20
-5.30795
11
4.68241
21
-5.3042
0
LINE
8
BLACK
6
CONTINUOUS
10
4.68241
20
-5.3042
11
4.67866
21
-5.29671
0
LINE
8
BLACK
6
CONTINUOUS
10
4.67866
20
-5.29671
11
4.67491
21
-5.28171
0
LINE
8
BLACK
6
CONTINUOUS
10
4.67491
20
-5.28171
11
4.67491
21
-5.26296
0
LINE
8
BLACK
6
CONTINUOUS
10
4.67491
20
-5.26296
11
4.67866
21
-5.24796
0
LINE
8
BLACK
6
CONTINUOUS
10
4.67866
20
-5.24796
11
4.68241
21
-5.24046
0
LINE
8
BLACK
6
CONTINUOUS
10
4.68241
20
-5.24046
11
4.68615
21
-5.23671
0
LINE
8
BLACK
6
CONTINUOUS
10
4.68615
20
-5.23671
11
4.69365
21
-5.23296
0
LINE
8
BLACK
6
CONTINUOUS
10
4.75365
20
-5.3117
11
4.75365
21
-5.25921
0
LINE
8
BLACK
6
CONTINUOUS
10
4.75365
20
-5.26671
11
4.7574
21
-5.26296
0
LINE
8
BLACK
6
CONTINUOUS
10
4.7574
20
-5.26296
11
4.7649
21
-5.25921
0
LINE
8
BLACK
6
CONTINUOUS
10
4.7649
20
-5.25921
11
4.77614
21
-5.25921
0
LINE
8
BLACK
6
CONTINUOUS
10
4.77614
20
-5.25921
11
4.78364
21
-5.26296
0
LINE
8
BLACK
6
CONTINUOUS
10
4.78364
20
-5.26296
11
4.78739
21
-5.27046
0
LINE
8
BLACK
6
CONTINUOUS
10
4.78739
20
-5.27046
11
4.78739
21
-5.3117
0
LINE
8
BLACK
6
CONTINUOUS
10
4.78739
20
-5.27046
11
4.79114
21
-5.26296
0
LINE
8
BLACK
6
CONTINUOUS
10
4.79114
20
-5.26296
11
4.79864
21
-5.25921
0
LINE
8
BLACK
6
CONTINUOUS
10
4.79864
20
-5.25921
11
4.80989
21
-5.25921
0
LINE
8
BLACK
6
CONTINUOUS
10
4.80989
20
-5.25921
11
4.81739
21
-5.26296
0
LINE
8
BLACK
6
CONTINUOUS
10
4.81739
20
-5.26296
11
4.82114
21
-5.27046
0
LINE
8
BLACK
6
CONTINUOUS
10
4.82114
20
-5.27046
11
4.82114
21
-5.3117
0
LINE
8
BLACK
6
CONTINUOUS
10
4.85863
20
-5.3117
11
4.85863
21
-5.25921
0
LINE
8
BLACK
6
CONTINUOUS
10
4.85863
20
-5.26671
11
4.86238
21
-5.26296
0
LINE
8
BLACK
6
CONTINUOUS
10
4.86238
20
-5.26296
11
4.86988
21
-5.25921
0
LINE
8
BLACK
6
CONTINUOUS
10
4.86988
20
-5.25921
11
4.88113
21
-5.25921
0
LINE
8
BLACK
6
CONTINUOUS
10
4.88113
20
-5.25921
11
4.88863
21
-5.26296
0
LINE
8
BLACK
6
CONTINUOUS
10
4.88863
20
-5.26296
11
4.89238
21
-5.27046
0
LINE
8
BLACK
6
CONTINUOUS
10
4.89238
20
-5.27046
11
4.89238
21
-5.3117
0
LINE
8
BLACK
6
CONTINUOUS
10
4.89238
20
-5.27046
11
4.89613
21
-5.26296
0
LINE
8
BLACK
6
CONTINUOUS
10
4.89613
20
-5.26296
11
4.90363
21
-5.25921
0
LINE
8
BLACK
6
CONTINUOUS
10
4.90363
20
-5.25921
11
4.91488
21
-5.25921
0
LINE
8
BLACK
6
CONTINUOUS
10
4.91488
20
-5.25921
11
4.92238
21
-5.26296
0
LINE
8
BLACK
6
CONTINUOUS
10
4.92238
20
-5.26296
11
4.92612
21
-5.27046
0
LINE
8
BLACK
6
CONTINUOUS
10
4.92612
20
-5.27046
11
4.92612
21
-5.3117
0
LINE
8
BLACK
6
CONTINUOUS
10
5.06711
20
-5.22921
11
4.99962
21
-5.33045
0
LINE
8
BLACK
6
CONTINUOUS
10
5.1556
20
-5.23296
11
5.1631
21
-5.23296
0
LINE
8
BLACK
6
CONTINUOUS
10
5.1631
20
-5.23296
11
5.17059
21
-5.23671
0
LINE
8
BLACK
6
CONTINUOUS
10
5.17059
20
-5.23671
11
5.17434
21
-5.24046
0
LINE
8
BLACK
6
CONTINUOUS
10
5.17434
20
-5.24046
11
5.17809
21
-5.24796
0
LINE
8
BLACK
6
CONTINUOUS
10
5.17809
20
-5.24796
11
5.18184
21
-5.26296
0
LINE
8
BLACK
6
CONTINUOUS
10
5.18184
20
-5.26296
11
5.18184
21
-5.28171
0
LINE
8
BLACK
6
CONTINUOUS
10
5.18184
20
-5.28171
11
5.17809
21
-5.29671
0
LINE
8
BLACK
6
CONTINUOUS
10
5.17809
20
-5.29671
11
5.17434
21
-5.3042
0
LINE
8
BLACK
6
CONTINUOUS
10
5.17434
20
-5.3042
11
5.17059
21
-5.30795
0
LINE
8
BLACK
6
CONTINUOUS
10
5.17059
20
-5.30795
11
5.1631
21
-5.3117
0
LINE
8
BLACK
6
CONTINUOUS
10
5.1631
20
-5.3117
11
5.1556
21
-5.3117
0
LINE
8
BLACK
6
CONTINUOUS
10
5.1556
20
-5.3117
11
5.1481
21
-5.30795
0
LINE
8
BLACK
6
CONTINUOUS
10
5.1481
20
-5.30795
11
5.14435
21
-5.3042
0
LINE
8
BLACK
6
CONTINUOUS
10
5.14435
20
-5.3042
11
5.1406
21
-5.29671
0
LINE
8
BLACK
6
CONTINUOUS
10
5.1406
20
-5.29671
11
5.13685
21
-5.28171
0
LINE
8
BLACK
6
CONTINUOUS
10
5.13685
20
-5.28171
11
5.13685
21
-5.26296
0
LINE
8
BLACK
6
CONTINUOUS
10
5.13685
20
-5.26296
11
5.1406
21
-5.24796
0
LINE
8
BLACK
6
CONTINUOUS
10
5.1406
20
-5.24796
11
5.14435
21
-5.24046
0
LINE
8
BLACK
6
CONTINUOUS
10
5.14435
20
-5.24046
11
5.1481
21
-5.23671
0
LINE
8
BLACK
6
CONTINUOUS
10
5.1481
20
-5.23671
11
5.1556
21
-5.23296
0
LINE
8
BLACK
6
CONTINUOUS
10
5.21559
20
-5.3042
11
5.21934
21
-5.30795
0
LINE
8
BLACK
6
CONTINUOUS
10
5.21934
20
-5.30795
11
5.21559
21
-5.3117
0
LINE
8
BLACK
6
CONTINUOUS
10
5.21559
20
-5.3117
11
5.21184
21
-5.30795
0
LINE
8
BLACK
6
CONTINUOUS
10
5.21184
20
-5.30795
11
5.21559
21
-5.3042
0
LINE
8
BLACK
6
CONTINUOUS
10
5.21559
20
-5.3042
11
5.21559
21
-5.3117
0
LINE
8
BLACK
6
CONTINUOUS
10
5.26808
20
-5.23296
11
5.27558
21
-5.23296
0
LINE
8
BLACK
6
CONTINUOUS
10
5.27558
20
-5.23296
11
5.28308
21
-5.23671
0
LINE
8
BLACK
6
CONTINUOUS
10
5.28308
20
-5.23671
11
5.28683
21
-5.24046
0
LINE
8
BLACK
6
CONTINUOUS
10
5.28683
20
-5.24046
11
5.29058
21
-5.24796
0
LINE
8
BLACK
6
CONTINUOUS
10
5.29058
20
-5.24796
11
5.29433
21
-5.26296
0
LINE
8
BLACK
6
CONTINUOUS
10
5.29433
20
-5.26296
11
5.29433
21
-5.28171
0
LINE
8
BLACK
6
CONTINUOUS
10
5.29433
20
-5.28171
11
5.29058
21
-5.29671
0
LINE
8
BLACK
6
CONTINUOUS
10
5.29058
20
-5.29671
11
5.28683
21
-5.3042
0
LINE
8
BLACK
6
CONTINUOUS
10
5.28683
20
-5.3042
11
5.28308
21
-5.30795
0
LINE
8
BLACK
6
CONTINUOUS
10
5.28308
20
-5.30795
11
5.27558
21
-5.3117
0
LINE
8
BLACK
6
CONTINUOUS
10
5.27558
20
-5.3117
11
5.26808
21
-5.3117
0
LINE
8
BLACK
6
CONTINUOUS
10
5.26808
20
-5.3117
11
5.26058
21
-5.30795
0
LINE
8
BLACK
6
CONTINUOUS
10
5.26058
20
-5.30795
11
5.25683
21
-5.3042
0
LINE
8
BLACK
6
CONTINUOUS
10
5.25683
20
-5.3042
11
5.25308
21
-5.29671
0
LINE
8
BLACK
6
CONTINUOUS
10
5.25308
20
-5.29671
11
5.24933
21
-5.28171
0
LINE
8
BLACK
6
CONTINUOUS
10
5.24933
20
-5.28171
11
5.24933
21
-5.26296
0
LINE
8
BLACK
6
CONTINUOUS
10
5.24933
20
-5.26296
11
5.25308
21
-5.24796
0
LINE
8
BLACK
6
CONTINUOUS
10
5.25308
20
-5.24796
11
5.25683
21
-5.24046
0
LINE
8
BLACK
6
CONTINUOUS
10
5.25683
20
-5.24046
11
5.26058
21
-5.23671
0
LINE
8
BLACK
6
CONTINUOUS
10
5.26058
20
-5.23671
11
5.26808
21
-5.23296
0
LINE
8
BLACK
6
CONTINUOUS
10
5.36932
20
-5.3117
11
5.32433
21
-5.3117
0
LINE
8
BLACK
6
CONTINUOUS
10
5.34682
20
-5.3117
11
5.34682
21
-5.23296
0
LINE
8
BLACK
6
CONTINUOUS
10
5.34682
20
-5.23296
11
5.33932
21
-5.24421
0
LINE
8
BLACK
6
CONTINUOUS
10
5.33932
20
-5.24421
11
5.33182
21
-5.25171
0
LINE
8
BLACK
6
CONTINUOUS
10
5.33182
20
-5.25171
11
5.32433
21
-5.25546
0
LINE
8
BLACK
6
CONTINUOUS
10
5.39557
20
-5.23296
11
5.44806
21
-5.23296
0
LINE
8
BLACK
6
CONTINUOUS
10
5.44806
20
-5.23296
11
5.41431
21
-5.3117
0
LINE
8
BLACK
6
CONTINUOUS
10
5.47056
20
-5.23296
11
5.52305
21
-5.23296
0
LINE
8
BLACK
6
CONTINUOUS
10
5.52305
20
-5.23296
11
5.4893
21
-5.3117
0
LINE
8
BLACK
6
CONTINUOUS
10
5.5493
20
-5.23296
11
5.5493
21
-5.24796
0
LINE
8
BLACK
6
CONTINUOUS
10
5.57929
20
-5.23296
11
5.57929
21
-5.24796
0
LINE
8
BLACK
6
CONTINUOUS
10
5.68278
20
-5.3417
11
5.67903
21
-5.33795
0
LINE
8
BLACK
6
CONTINUOUS
10
5.67903
20
-5.33795
11
5.67153
21
-5.3267
0
LINE
8
BLACK
6
CONTINUOUS
10
5.67153
20
-5.3267
11
5.66778
21
-5.3192
0
LINE
8
BLACK
6
CONTINUOUS
10
5.66778
20
-5.3192
11
5.66403
21
-5.30795
0
LINE
8
BLACK
6
CONTINUOUS
10
5.66403
20
-5.30795
11
5.66028
21
-5.28921
0
LINE
8
BLACK
6
CONTINUOUS
10
5.66028
20
-5.28921
11
5.66028
21
-5.27421
0
LINE
8
BLACK
6
CONTINUOUS
10
5.66028
20
-5.27421
11
5.66403
21
-5.25546
0
LINE
8
BLACK
6
CONTINUOUS
10
5.66403
20
-5.25546
11
5.66778
21
-5.24421
0
LINE
8
BLACK
6
CONTINUOUS
10
5.66778
20
-5.24421
11
5.67153
21
-5.23671
0
LINE
8
BLACK
6
CONTINUOUS
10
5.67153
20
-5.23671
11
5.67903
21
-5.22546
0
LINE
8
BLACK
6
CONTINUOUS
10
5.67903
20
-5.22546
11
5.68278
21
-5.22171
0
LINE
8
BLACK
6
CONTINUOUS
10
5.72777
20
-5.23296
11
5.73527
21
-5.23296
0
LINE
8
BLACK
6
CONTINUOUS
10
5.73527
20
-5.23296
11
5.74277
21
-5.23671
0
LINE
8
BLACK
6
CONTINUOUS
10
5.74277
20
-5.23671
11
5.74652
21
-5.24046
0
LINE
8
BLACK
6
CONTINUOUS
10
5.74652
20
-5.24046
11
5.75027
21
-5.24796
0
LINE
8
BLACK
6
CONTINUOUS
10
5.75027
20
-5.24796
11
5.75402
21
-5.26296
0
LINE
8
BLACK
6
CONTINUOUS
10
5.75402
20
-5.26296
11
5.75402
21
-5.28171
0
LINE
8
BLACK
6
CONTINUOUS
10
5.75402
20
-5.28171
11
5.75027
21
-5.29671
0
LINE
8
BLACK
6
CONTINUOUS
10
5.75027
20
-5.29671
11
5.74652
21
-5.3042
0
LINE
8
BLACK
6
CONTINUOUS
10
5.74652
20
-5.3042
11
5.74277
21
-5.30795
0
LINE
8
BLACK
6
CONTINUOUS
10
5.74277
20
-5.30795
11
5.73527
21
-5.3117
0
LINE
8
BLACK
6
CONTINUOUS
10
5.73527
20
-5.3117
11
5.72777
21
-5.3117
0
LINE
8
BLACK
6
CONTINUOUS
10
5.72777
20
-5.3117
11
5.72028
21
-5.30795
0
LINE
8
BLACK
6
CONTINUOUS
10
5.72028
20
-5.30795
11
5.71653
21
-5.3042
0
LINE
8
BLACK
6
CONTINUOUS
10
5.71653
20
-5.3042
11
5.71278
21
-5.29671
0
LINE
8
BLACK
6
CONTINUOUS
10
5.71278
20
-5.29671
11
5.70903
21
-5.28171
0
LINE
8
BLACK
6
CONTINUOUS
10
5.70903
20
-5.28171
11
5.70903
21
-5.26296
0
LINE
8
BLACK
6
CONTINUOUS
10
5.70903
20
-5.26296
11
5.71278
21
-5.24796
0
LINE
8
BLACK
6
CONTINUOUS
10
5.71278
20
-5.24796
11
5.71653
21
-5.24046
0
LINE
8
BLACK
6
CONTINUOUS
10
5.71653
20
-5.24046
11
5.72028
21
-5.23671
0
LINE
8
BLACK
6
CONTINUOUS
10
5.72028
20
-5.23671
11
5.72777
21
-5.23296
0
LINE
8
BLACK
6
CONTINUOUS
10
5.83501
20
-5.3117
11
5.83501
21
-5.23296
0
LINE
8
BLACK
6
CONTINUOUS
10
5.86876
20
-5.3117
11
5.86876
21
-5.27046
0
LINE
8
BLACK
6
CONTINUOUS
10
5.86876
20
-5.27046
11
5.86501
21
-5.26296
0
LINE
8
BLACK
6
CONTINUOUS
10
5.86501
20
-5.26296
11
5.85751
21
-5.25921
0
LINE
8
BLACK
6
CONTINUOUS
10
5.85751
20
-5.25921
11
5.84626
21
-5.25921
0
LINE
8
BLACK
6
CONTINUOUS
10
5.84626
20
-5.25921
11
5.83876
21
-5.26296
0
LINE
8
BLACK
6
CONTINUOUS
10
5.83876
20
-5.26296
11
5.83501
21
-5.26671
0
LINE
8
BLACK
6
CONTINUOUS
10
5.9175
20
-5.3117
11
5.91
21
-5.30795
0
LINE
8
BLACK
6
CONTINUOUS
10
5.91
20
-5.30795
11
5.90625
21
-5.3042
0
LINE
8
BLACK
6
CONTINUOUS
10
5.90625
20
-5.3042
11
5.9025
21
-5.29671
0
LINE
8
BLACK
6
CONTINUOUS
10
5.9025
20
-5.29671
11
5.9025
21
-5.27421
0
LINE
8
BLACK
6
CONTINUOUS
10
5.9025
20
-5.27421
11
5.90625
21
-5.26671
0
LINE
8
BLACK
6
CONTINUOUS
10
5.90625
20
-5.26671
11
5.91
21
-5.26296
0
LINE
8
BLACK
6
CONTINUOUS
10
5.91
20
-5.26296
11
5.9175
21
-5.25921
0
LINE
8
BLACK
6
CONTINUOUS
10
5.9175
20
-5.25921
11
5.92875
21
-5.25921
0
LINE
8
BLACK
6
CONTINUOUS
10
5.92875
20
-5.25921
11
5.93625
21
-5.26296
0
LINE
8
BLACK
6
CONTINUOUS
10
5.93625
20
-5.26296
11
5.94
21
-5.26671
0
LINE
8
BLACK
6
CONTINUOUS
10
5.94
20
-5.26671
11
5.94375
21
-5.27421
0
LINE
8
BLACK
6
CONTINUOUS
10
5.94375
20
-5.27421
11
5.94375
21
-5.29671
0
LINE
8
BLACK
6
CONTINUOUS
10
5.94375
20
-5.29671
11
5.94
21
-5.3042
0
LINE
8
BLACK
6
CONTINUOUS
10
5.94
20
-5.3042
11
5.93625
21
-5.30795
0
LINE
8
BLACK
6
CONTINUOUS
10
5.93625
20
-5.30795
11
5.92875
21
-5.3117
0
LINE
8
BLACK
6
CONTINUOUS
10
5.92875
20
-5.3117
11
5.9175
21
-5.3117
0
LINE
8
BLACK
6
CONTINUOUS
10
5.98874
20
-5.3117
11
5.98124
21
-5.30795
0
LINE
8
BLACK
6
CONTINUOUS
10
5.98124
20
-5.30795
11
5.97749
21
-5.30045
0
LINE
8
BLACK
6
CONTINUOUS
10
5.97749
20
-5.30045
11
5.97749
21
-5.23296
0
LINE
8
BLACK
6
CONTINUOUS
10
6.04873
20
-5.30795
11
6.04124
21
-5.3117
0
LINE
8
BLACK
6
CONTINUOUS
10
6.04124
20
-5.3117
11
6.02624
21
-5.3117
0
LINE
8
BLACK
6
CONTINUOUS
10
6.02624
20
-5.3117
11
6.01874
21
-5.30795
0
LINE
8
BLACK
6
CONTINUOUS
10
6.01874
20
-5.30795
11
6.01499
21
-5.30045
0
LINE
8
BLACK
6
CONTINUOUS
10
6.01499
20
-5.30045
11
6.01499
21
-5.27046
0
LINE
8
BLACK
6
CONTINUOUS
10
6.01499
20
-5.27046
11
6.01874
21
-5.26296
0
LINE
8
BLACK
6
CONTINUOUS
10
6.01874
20
-5.26296
11
6.02624
21
-5.25921
0
LINE
8
BLACK
6
CONTINUOUS
10
6.02624
20
-5.25921
11
6.04124
21
-5.25921
0
LINE
8
BLACK
6
CONTINUOUS
10
6.04124
20
-5.25921
11
6.04873
21
-5.26296
0
LINE
8
BLACK
6
CONTINUOUS
10
6.04873
20
-5.26296
11
6.05248
21
-5.27046
0
LINE
8
BLACK
6
CONTINUOUS
10
6.05248
20
-5.27046
11
6.05248
21
-5.27796
0
LINE
8
BLACK
6
CONTINUOUS
10
6.05248
20
-5.27796
11
6.01499
21
-5.28546
0
LINE
8
BLACK
6
CONTINUOUS
10
6.08248
20
-5.30795
11
6.08998
21
-5.3117
0
LINE
8
BLACK
6
CONTINUOUS
10
6.08998
20
-5.3117
11
6.10498
21
-5.3117
0
LINE
8
BLACK
6
CONTINUOUS
10
6.10498
20
-5.3117
11
6.11248
21
-5.30795
0
LINE
8
BLACK
6
CONTINUOUS
10
6.11248
20
-5.30795
11
6.11623
21
-5.30045
0
LINE
8
BLACK
6
CONTINUOUS
10
6.11623
20
-5.30045
11
6.11623
21
-5.29671
0
LINE
8
BLACK
6
CONTINUOUS
10
6.11623
20
-5.29671
11
6.11248
21
-5.28921
0
LINE
8
BLACK
6
CONTINUOUS
10
6.11248
20
-5.28921
11
6.10498
21
-5.28546
0
LINE
8
BLACK
6
CONTINUOUS
10
6.10498
20
-5.28546
11
6.09373
21
-5.28546
0
LINE
8
BLACK
6
CONTINUOUS
10
6.09373
20
-5.28546
11
6.08623
21
-5.28171
0
LINE
8
BLACK
6
CONTINUOUS
10
6.08623
20
-5.28171
11
6.08248
21
-5.27421
0
LINE
8
BLACK
6
CONTINUOUS
10
6.08248
20
-5.27421
11
6.08248
21
-5.27046
0
LINE
8
BLACK
6
CONTINUOUS
10
6.08248
20
-5.27046
11
6.08623
21
-5.26296
0
LINE
8
BLACK
6
CONTINUOUS
10
6.08623
20
-5.26296
11
6.09373
21
-5.25921
0
LINE
8
BLACK
6
CONTINUOUS
10
6.09373
20
-5.25921
11
6.10498
21
-5.25921
0
LINE
8
BLACK
6
CONTINUOUS
10
6.10498
20
-5.25921
11
6.11248
21
-5.26296
0
LINE
8
BLACK
6
CONTINUOUS
10
6.19722
20
-5.28171
11
6.25721
21
-5.28171
0
LINE
8
BLACK
6
CONTINUOUS
10
6.22721
20
-5.3117
11
6.22721
21
-5.25171
0
LINE
8
BLACK
6
CONTINUOUS
10
6.3382
20
-5.24046
11
6.34195
21
-5.23671
0
LINE
8
BLACK
6
CONTINUOUS
10
6.34195
20
-5.23671
11
6.34945
21
-5.23296
0
LINE
8
BLACK
6
CONTINUOUS
10
6.34945
20
-5.23296
11
6.36819
21
-5.23296
0
LINE
8
BLACK
6
CONTINUOUS
10
6.36819
20
-5.23296
11
6.37569
21
-5.23671
0
LINE
8
BLACK
6
CONTINUOUS
10
6.37569
20
-5.23671
11
6.37944
21
-5.24046
0
LINE
8
BLACK
6
CONTINUOUS
10
6.37944
20
-5.24046
11
6.38319
21
-5.24796
0
LINE
8
BLACK
6
CONTINUOUS
10
6.38319
20
-5.24796
11
6.38319
21
-5.25546
0
LINE
8
BLACK
6
CONTINUOUS
10
6.38319
20
-5.25546
11
6.37944
21
-5.26671
0
LINE
8
BLACK
6
CONTINUOUS
10
6.37944
20
-5.26671
11
6.33445
21
-5.3117
0
LINE
8
BLACK
6
CONTINUOUS
10
6.33445
20
-5.3117
11
6.38319
21
-5.3117
0
LINE
8
BLACK
6
CONTINUOUS
10
6.46043
20
-5.30795
11
6.46793
21
-5.3117
0
LINE
8
BLACK
6
CONTINUOUS
10
6.46793
20
-5.3117
11
6.48293
21
-5.3117
0
LINE
8
BLACK
6
CONTINUOUS
10
6.48293
20
-5.3117
11
6.49043
21
-5.30795
0
LINE
8
BLACK
6
CONTINUOUS
10
6.49043
20
-5.30795
11
6.49418
21
-5.30045
0
LINE
8
BLACK
6
CONTINUOUS
10
6.49418
20
-5.30045
11
6.49418
21
-5.29671
0
LINE
8
BLACK
6
CONTINUOUS
10
6.49418
20
-5.29671
11
6.49043
21
-5.28921
0
LINE
8
BLACK
6
CONTINUOUS
10
6.49043
20
-5.28921
11
6.48293
21
-5.28546
0
LINE
8
BLACK
6
CONTINUOUS
10
6.48293
20
-5.28546
11
6.47168
21
-5.28546
0
LINE
8
BLACK
6
CONTINUOUS
10
6.47168
20
-5.28546
11
6.46418
21
-5.28171
0
LINE
8
BLACK
6
CONTINUOUS
10
6.46418
20
-5.28171
11
6.46043
21
-5.27421
0
LINE
8
BLACK
6
CONTINUOUS
10
6.46043
20
-5.27421
11
6.46043
21
-5.27046
0
LINE
8
BLACK
6
CONTINUOUS
10
6.46043
20
-5.27046
11
6.46418
21
-5.26296
0
LINE
8
BLACK
6
CONTINUOUS
10
6.46418
20
-5.26296
11
6.47168
21
-5.25921
0
LINE
8
BLACK
6
CONTINUOUS
10
6.47168
20
-5.25921
11
6.48293
21
-5.25921
0
LINE
8
BLACK
6
CONTINUOUS
10
6.48293
20
-5.25921
11
6.49043
21
-5.26296
0
LINE
8
BLACK
6
CONTINUOUS
10
6.53917
20
-5.3117
11
6.53167
21
-5.30795
0
LINE
8
BLACK
6
CONTINUOUS
10
6.53167
20
-5.30795
11
6.52792
21
-5.30045
0
LINE
8
BLACK
6
CONTINUOUS
10
6.52792
20
-5.30045
11
6.52792
21
-5.23296
0
LINE
8
BLACK
6
CONTINUOUS
10
6.58042
20
-5.3117
11
6.57292
21
-5.30795
0
LINE
8
BLACK
6
CONTINUOUS
10
6.57292
20
-5.30795
11
6.56917
21
-5.3042
0
LINE
8
BLACK
6
CONTINUOUS
10
6.56917
20
-5.3042
11
6.56542
21
-5.29671
0
LINE
8
BLACK
6
CONTINUOUS
10
6.56542
20
-5.29671
11
6.56542
21
-5.27421
0
LINE
8
BLACK
6
CONTINUOUS
10
6.56542
20
-5.27421
11
6.56917
21
-5.26671
0
LINE
8
BLACK
6
CONTINUOUS
10
6.56917
20
-5.26671
11
6.57292
21
-5.26296
0
LINE
8
BLACK
6
CONTINUOUS
10
6.57292
20
-5.26296
11
6.58042
21
-5.25921
0
LINE
8
BLACK
6
CONTINUOUS
10
6.58042
20
-5.25921
11
6.59167
21
-5.25921
0
LINE
8
BLACK
6
CONTINUOUS
10
6.59167
20
-5.25921
11
6.59917
21
-5.26296
0
LINE
8
BLACK
6
CONTINUOUS
10
6.59917
20
-5.26296
11
6.60292
21
-5.26671
0
LINE
8
BLACK
6
CONTINUOUS
10
6.60292
20
-5.26671
11
6.60666
21
-5.27421
0
LINE
8
BLACK
6
CONTINUOUS
10
6.60666
20
-5.27421
11
6.60666
21
-5.29671
0
LINE
8
BLACK
6
CONTINUOUS
10
6.60666
20
-5.29671
11
6.60292
21
-5.3042
0
LINE
8
BLACK
6
CONTINUOUS
10
6.60292
20
-5.3042
11
6.59917
21
-5.30795
0
LINE
8
BLACK
6
CONTINUOUS
10
6.59917
20
-5.30795
11
6.59167
21
-5.3117
0
LINE
8
BLACK
6
CONTINUOUS
10
6.59167
20
-5.3117
11
6.58042
21
-5.3117
0
LINE
8
BLACK
6
CONTINUOUS
10
6.62916
20
-5.25921
11
6.65916
21
-5.25921
0
LINE
8
BLACK
6
CONTINUOUS
10
6.64041
20
-5.23296
11
6.64041
21
-5.30045
0
LINE
8
BLACK
6
CONTINUOUS
10
6.64041
20
-5.30045
11
6.64416
21
-5.30795
0
LINE
8
BLACK
6
CONTINUOUS
10
6.64416
20
-5.30795
11
6.65166
21
-5.3117
0
LINE
8
BLACK
6
CONTINUOUS
10
6.65166
20
-5.3117
11
6.65916
21
-5.3117
0
LINE
8
BLACK
6
CONTINUOUS
10
6.68166
20
-5.30795
11
6.68915
21
-5.3117
0
LINE
8
BLACK
6
CONTINUOUS
10
6.68915
20
-5.3117
11
6.70415
21
-5.3117
0
LINE
8
BLACK
6
CONTINUOUS
10
6.70415
20
-5.3117
11
6.71165
21
-5.30795
0
LINE
8
BLACK
6
CONTINUOUS
10
6.71165
20
-5.30795
11
6.7154
21
-5.30045
0
LINE
8
BLACK
6
CONTINUOUS
10
6.7154
20
-5.30045
11
6.7154
21
-5.29671
0
LINE
8
BLACK
6
CONTINUOUS
10
6.7154
20
-5.29671
11
6.71165
21
-5.28921
0
LINE
8
BLACK
6
CONTINUOUS
10
6.71165
20
-5.28921
11
6.70415
21
-5.28546
0
LINE
8
BLACK
6
CONTINUOUS
10
6.70415
20
-5.28546
11
6.6929
21
-5.28546
0
LINE
8
BLACK
6
CONTINUOUS
10
6.6929
20
-5.28546
11
6.68541
21
-5.28171
0
LINE
8
BLACK
6
CONTINUOUS
10
6.68541
20
-5.28171
11
6.68166
21
-5.27421
0
LINE
8
BLACK
6
CONTINUOUS
10
6.68166
20
-5.27421
11
6.68166
21
-5.27046
0
LINE
8
BLACK
6
CONTINUOUS
10
6.68166
20
-5.27046
11
6.68541
21
-5.26296
0
LINE
8
BLACK
6
CONTINUOUS
10
6.68541
20
-5.26296
11
6.6929
21
-5.25921
0
LINE
8
BLACK
6
CONTINUOUS
10
6.6929
20
-5.25921
11
6.70415
21
-5.25921
0
LINE
8
BLACK
6
CONTINUOUS
10
6.70415
20
-5.25921
11
6.71165
21
-5.26296
0
LINE
8
BLACK
6
CONTINUOUS
10
6.74165
20
-5.3417
11
6.7454
21
-5.33795
0
LINE
8
BLACK
6
CONTINUOUS
10
6.7454
20
-5.33795
11
6.7529
21
-5.3267
0
LINE
8
BLACK
6
CONTINUOUS
10
6.7529
20
-5.3267
11
6.75665
21
-5.3192
0
LINE
8
BLACK
6
CONTINUOUS
10
6.75665
20
-5.3192
11
6.7604
21
-5.30795
0
LINE
8
BLACK
6
CONTINUOUS
10
6.7604
20
-5.30795
11
6.76415
21
-5.28921
0
LINE
8
BLACK
6
CONTINUOUS
10
6.76415
20
-5.28921
11
6.76415
21
-5.27421
0
LINE
8
BLACK
6
CONTINUOUS
10
6.76415
20
-5.27421
11
6.7604
21
-5.25546
0
LINE
8
BLACK
6
CONTINUOUS
10
6.7604
20
-5.25546
11
6.75665
21
-5.24421
0
LINE
8
BLACK
6
CONTINUOUS
10
6.75665
20
-5.24421
11
6.7529
21
-5.23671
0
LINE
8
BLACK
6
CONTINUOUS
10
6.7529
20
-5.23671
11
6.7454
21
-5.22546
0
LINE
8
BLACK
6
CONTINUOUS
10
6.7454
20
-5.22546
11
6.74165
21
-5.22171
0
LINE
8
BLACK
6
CONTINUOUS
10
4.30295
20
-5.37096
11
4.30295
21
-5.40246
0
LINE
8
BLACK
6
CONTINUOUS
10
4.2872
20
-5.38671
11
4.3187
21
-5.38671
0
LINE
8
BLACK
6
CONTINUOUS
10
4.43119
20
-5.3369
11
4.43869
21
-5.3369
0
LINE
8
BLACK
6
CONTINUOUS
10
4.43869
20
-5.3369
11
4.44618
21
-5.34065
0
LINE
8
BLACK
6
CONTINUOUS
10
4.44618
20
-5.34065
11
4.44993
21
-5.3444
0
LINE
8
BLACK
6
CONTINUOUS
10
4.44993
20
-5.3444
11
4.45368
21
-5.3519
0
LINE
8
BLACK
6
CONTINUOUS
10
4.45368
20
-5.3519
11
4.45743
21
-5.3669
0
LINE
8
BLACK
6
CONTINUOUS
10
4.45743
20
-5.3669
11
4.45743
21
-5.38564
0
LINE
8
BLACK
6
CONTINUOUS
10
4.45743
20
-5.38564
11
4.45368
21
-5.40064
0
LINE
8
BLACK
6
CONTINUOUS
10
4.45368
20
-5.40064
11
4.44993
21
-5.40814
0
LINE
8
BLACK
6
CONTINUOUS
10
4.44993
20
-5.40814
11
4.44618
21
-5.41189
0
LINE
8
BLACK
6
CONTINUOUS
10
4.44618
20
-5.41189
11
4.43869
21
-5.41564
0
LINE
8
BLACK
6
CONTINUOUS
10
4.43869
20
-5.41564
11
4.43119
21
-5.41564
0
LINE
8
BLACK
6
CONTINUOUS
10
4.43119
20
-5.41564
11
4.42369
21
-5.41189
0
LINE
8
BLACK
6
CONTINUOUS
10
4.42369
20
-5.41189
11
4.41994
21
-5.40814
0
LINE
8
BLACK
6
CONTINUOUS
10
4.41994
20
-5.40814
11
4.41619
21
-5.40064
0
LINE
8
BLACK
6
CONTINUOUS
10
4.41619
20
-5.40064
11
4.41244
21
-5.38564
0
LINE
8
BLACK
6
CONTINUOUS
10
4.41244
20
-5.38564
11
4.41244
21
-5.3669
0
LINE
8
BLACK
6
CONTINUOUS
10
4.41244
20
-5.3669
11
4.41619
21
-5.3519
0
LINE
8
BLACK
6
CONTINUOUS
10
4.41619
20
-5.3519
11
4.41994
21
-5.3444
0
LINE
8
BLACK
6
CONTINUOUS
10
4.41994
20
-5.3444
11
4.42369
21
-5.34065
0
LINE
8
BLACK
6
CONTINUOUS
10
4.42369
20
-5.34065
11
4.43119
21
-5.3369
0
LINE
8
BLACK
6
CONTINUOUS
10
4.49118
20
-5.40814
11
4.49493
21
-5.41189
0
LINE
8
BLACK
6
CONTINUOUS
10
4.49493
20
-5.41189
11
4.49118
21
-5.41564
0
LINE
8
BLACK
6
CONTINUOUS
10
4.49118
20
-5.41564
11
4.48743
21
-5.41189
0
LINE
8
BLACK
6
CONTINUOUS
10
4.48743
20
-5.41189
11
4.49118
21
-5.40814
0
LINE
8
BLACK
6
CONTINUOUS
10
4.49118
20
-5.40814
11
4.49118
21
-5.41564
0
LINE
8
BLACK
6
CONTINUOUS
10
4.53992
20
-5.37065
11
4.53242
21
-5.3669
0
LINE
8
BLACK
6
CONTINUOUS
10
4.53242
20
-5.3669
11
4.52867
21
-5.36315
0
LINE
8
BLACK
6
CONTINUOUS
10
4.52867
20
-5.36315
11
4.52492
21
-5.35565
0
LINE
8
BLACK
6
CONTINUOUS
10
4.52492
20
-5.35565
11
4.52492
21
-5.3519
0
LINE
8
BLACK
6
CONTINUOUS
10
4.52492
20
-5.3519
11
4.52867
21
-5.3444
0
LINE
8
BLACK
6
CONTINUOUS
10
4.52867
20
-5.3444
11
4.53242
21
-5.34065
0
LINE
8
BLACK
6
CONTINUOUS
10
4.53242
20
-5.34065
11
4.53992
21
-5.3369
0
LINE
8
BLACK
6
CONTINUOUS
10
4.53992
20
-5.3369
11
4.55492
21
-5.3369
0
LINE
8
BLACK
6
CONTINUOUS
10
4.55492
20
-5.3369
11
4.56242
21
-5.34065
0
LINE
8
BLACK
6
CONTINUOUS
10
4.56242
20
-5.34065
11
4.56617
21
-5.3444
0
LINE
8
BLACK
6
CONTINUOUS
10
4.56617
20
-5.3444
11
4.56992
21
-5.3519
0
LINE
8
BLACK
6
CONTINUOUS
10
4.56992
20
-5.3519
11
4.56992
21
-5.35565
0
LINE
8
BLACK
6
CONTINUOUS
10
4.56992
20
-5.35565
11
4.56617
21
-5.36315
0
LINE
8
BLACK
6
CONTINUOUS
10
4.56617
20
-5.36315
11
4.56242
21
-5.3669
0
LINE
8
BLACK
6
CONTINUOUS
10
4.56242
20
-5.3669
11
4.55492
21
-5.37065
0
LINE
8
BLACK
6
CONTINUOUS
10
4.55492
20
-5.37065
11
4.53992
21
-5.37065
0
LINE
8
BLACK
6
CONTINUOUS
10
4.53992
20
-5.37065
11
4.53242
21
-5.3744
0
LINE
8
BLACK
6
CONTINUOUS
10
4.53242
20
-5.3744
11
4.52867
21
-5.37814
0
LINE
8
BLACK
6
CONTINUOUS
10
4.52867
20
-5.37814
11
4.52492
21
-5.38564
0
LINE
8
BLACK
6
CONTINUOUS
10
4.52492
20
-5.38564
11
4.52492
21
-5.40064
0
LINE
8
BLACK
6
CONTINUOUS
10
4.52492
20
-5.40064
11
4.52867
21
-5.40814
0
LINE
8
BLACK
6
CONTINUOUS
10
4.52867
20
-5.40814
11
4.53242
21
-5.41189
0
LINE
8
BLACK
6
CONTINUOUS
10
4.53242
20
-5.41189
11
4.53992
21
-5.41564
0
LINE
8
BLACK
6
CONTINUOUS
10
4.53992
20
-5.41564
11
4.55492
21
-5.41564
0
LINE
8
BLACK
6
CONTINUOUS
10
4.55492
20
-5.41564
11
4.56242
21
-5.41189
0
LINE
8
BLACK
6
CONTINUOUS
10
4.56242
20
-5.41189
11
4.56617
21
-5.40814
0
LINE
8
BLACK
6
CONTINUOUS
10
4.56617
20
-5.40814
11
4.56992
21
-5.40064
0
LINE
8
BLACK
6
CONTINUOUS
10
4.56992
20
-5.40064
11
4.56992
21
-5.38564
0
LINE
8
BLACK
6
CONTINUOUS
10
4.56992
20
-5.38564
11
4.56617
21
-5.37814
0
LINE
8
BLACK
6
CONTINUOUS
10
4.56617
20
-5.37814
11
4.56242
21
-5.3744
0
LINE
8
BLACK
6
CONTINUOUS
10
4.56242
20
-5.3744
11
4.55492
21
-5.37065
0
LINE
8
BLACK
6
CONTINUOUS
10
4.61866
20
-5.3369
11
4.62616
21
-5.3369
0
LINE
8
BLACK
6
CONTINUOUS
10
4.62616
20
-5.3369
11
4.63366
21
-5.34065
0
LINE
8
BLACK
6
CONTINUOUS
10
4.63366
20
-5.34065
11
4.63741
21
-5.3444
0
LINE
8
BLACK
6
CONTINUOUS
10
4.63741
20
-5.3444
11
4.64116
21
-5.3519
0
LINE
8
BLACK
6
CONTINUOUS
10
4.64116
20
-5.3519
11
4.64491
21
-5.3669
0
LINE
8
BLACK
6
CONTINUOUS
10
4.64491
20
-5.3669
11
4.64491
21
-5.38564
0
LINE
8
BLACK
6
CONTINUOUS
10
4.64491
20
-5.38564
11
4.64116
21
-5.40064
0
LINE
8
BLACK
6
CONTINUOUS
10
4.64116
20
-5.40064
11
4.63741
21
-5.40814
0
LINE
8
BLACK
6
CONTINUOUS
10
4.63741
20
-5.40814
11
4.63366
21
-5.41189
0
LINE
8
BLACK
6
CONTINUOUS
10
4.63366
20
-5.41189
11
4.62616
21
-5.41564
0
LINE
8
BLACK
6
CONTINUOUS
10
4.62616
20
-5.41564
11
4.61866
21
-5.41564
0
LINE
8
BLACK
6
CONTINUOUS
10
4.61866
20
-5.41564
11
4.61116
21
-5.41189
0
LINE
8
BLACK
6
CONTINUOUS
10
4.61116
20
-5.41189
11
4.60741
21
-5.40814
0
LINE
8
BLACK
6
CONTINUOUS
10
4.60741
20
-5.40814
11
4.60367
21
-5.40064
0
LINE
8
BLACK
6
CONTINUOUS
10
4.60367
20
-5.40064
11
4.59992
21
-5.38564
0
LINE
8
BLACK
6
CONTINUOUS
10
4.59992
20
-5.38564
11
4.59992
21
-5.3669
0
LINE
8
BLACK
6
CONTINUOUS
10
4.59992
20
-5.3669
11
4.60367
21
-5.3519
0
LINE
8
BLACK
6
CONTINUOUS
10
4.60367
20
-5.3519
11
4.60741
21
-5.3444
0
LINE
8
BLACK
6
CONTINUOUS
10
4.60741
20
-5.3444
11
4.61116
21
-5.34065
0
LINE
8
BLACK
6
CONTINUOUS
10
4.61116
20
-5.34065
11
4.61866
21
-5.3369
0
LINE
8
BLACK
6
CONTINUOUS
10
4.69365
20
-5.3369
11
4.70115
21
-5.3369
0
LINE
8
BLACK
6
CONTINUOUS
10
4.70115
20
-5.3369
11
4.70865
21
-5.34065
0
LINE
8
BLACK
6
CONTINUOUS
10
4.70865
20
-5.34065
11
4.7124
21
-5.3444
0
LINE
8
BLACK
6
CONTINUOUS
10
4.7124
20
-5.3444
11
4.71615
21
-5.3519
0
LINE
8
BLACK
6
CONTINUOUS
10
4.71615
20
-5.3519
11
4.7199
21
-5.3669
0
LINE
8
BLACK
6
CONTINUOUS
10
4.7199
20
-5.3669
11
4.7199
21
-5.38564
0
LINE
8
BLACK
6
CONTINUOUS
10
4.7199
20
-5.38564
11
4.71615
21
-5.40064
0
LINE
8
BLACK
6
CONTINUOUS
10
4.71615
20
-5.40064
11
4.7124
21
-5.40814
0
LINE
8
BLACK
6
CONTINUOUS
10
4.7124
20
-5.40814
11
4.70865
21
-5.41189
0
LINE
8
BLACK
6
CONTINUOUS
10
4.70865
20
-5.41189
11
4.70115
21
-5.41564
0
LINE
8
BLACK
6
CONTINUOUS
10
4.70115
20
-5.41564
11
4.69365
21
-5.41564
0
LINE
8
BLACK
6
CONTINUOUS
10
4.69365
20
-5.41564
11
4.68615
21
-5.41189
0
LINE
8
BLACK
6
CONTINUOUS
10
4.68615
20
-5.41189
11
4.68241
21
-5.40814
0
LINE
8
BLACK
6
CONTINUOUS
10
4.68241
20
-5.40814
11
4.67866
21
-5.40064
0
LINE
8
BLACK
6
CONTINUOUS
10
4.67866
20
-5.40064
11
4.67491
21
-5.38564
0
LINE
8
BLACK
6
CONTINUOUS
10
4.67491
20
-5.38564
11
4.67491
21
-5.3669
0
LINE
8
BLACK
6
CONTINUOUS
10
4.67491
20
-5.3669
11
4.67866
21
-5.3519
0
LINE
8
BLACK
6
CONTINUOUS
10
4.67866
20
-5.3519
11
4.68241
21
-5.3444
0
LINE
8
BLACK
6
CONTINUOUS
10
4.68241
20
-5.3444
11
4.68615
21
-5.34065
0
LINE
8
BLACK
6
CONTINUOUS
10
4.68615
20
-5.34065
11
4.69365
21
-5.3369
0
LINE
8
BLACK
6
CONTINUOUS
10
4.75365
20
-5.41564
11
4.75365
21
-5.36315
0
LINE
8
BLACK
6
CONTINUOUS
10
4.75365
20
-5.37065
11
4.7574
21
-5.3669
0
LINE
8
BLACK
6
CONTINUOUS
10
4.7574
20
-5.3669
11
4.7649
21
-5.36315
0
LINE
8
BLACK
6
CONTINUOUS
10
4.7649
20
-5.36315
11
4.77614
21
-5.36315
0
LINE
8
BLACK
6
CONTINUOUS
10
4.77614
20
-5.36315
11
4.78364
21
-5.3669
0
LINE
8
BLACK
6
CONTINUOUS
10
4.78364
20
-5.3669
11
4.78739
21
-5.3744
0
LINE
8
BLACK
6
CONTINUOUS
10
4.78739
20
-5.3744
11
4.78739
21
-5.41564
0
LINE
8
BLACK
6
CONTINUOUS
10
4.78739
20
-5.3744
11
4.79114
21
-5.3669
0
LINE
8
BLACK
6
CONTINUOUS
10
4.79114
20
-5.3669
11
4.79864
21
-5.36315
0
LINE
8
BLACK
6
CONTINUOUS
10
4.79864
20
-5.36315
11
4.80989
21
-5.36315
0
LINE
8
BLACK
6
CONTINUOUS
10
4.80989
20
-5.36315
11
4.81739
21
-5.3669
0
LINE
8
BLACK
6
CONTINUOUS
10
4.81739
20
-5.3669
11
4.82114
21
-5.3744
0
LINE
8
BLACK
6
CONTINUOUS
10
4.82114
20
-5.3744
11
4.82114
21
-5.41564
0
LINE
8
BLACK
6
CONTINUOUS
10
4.85863
20
-5.41564
11
4.85863
21
-5.36315
0
LINE
8
BLACK
6
CONTINUOUS
10
4.85863
20
-5.37065
11
4.86238
21
-5.3669
0
LINE
8
BLACK
6
CONTINUOUS
10
4.86238
20
-5.3669
11
4.86988
21
-5.36315
0
LINE
8
BLACK
6
CONTINUOUS
10
4.86988
20
-5.36315
11
4.88113
21
-5.36315
0
LINE
8
BLACK
6
CONTINUOUS
10
4.88113
20
-5.36315
11
4.88863
21
-5.3669
0
LINE
8
BLACK
6
CONTINUOUS
10
4.88863
20
-5.3669
11
4.89238
21
-5.3744
0
LINE
8
BLACK
6
CONTINUOUS
10
4.89238
20
-5.3744
11
4.89238
21
-5.41564
0
LINE
8
BLACK
6
CONTINUOUS
10
4.89238
20
-5.3744
11
4.89613
21
-5.3669
0
LINE
8
BLACK
6
CONTINUOUS
10
4.89613
20
-5.3669
11
4.90363
21
-5.36315
0
LINE
8
BLACK
6
CONTINUOUS
10
4.90363
20
-5.36315
11
4.91488
21
-5.36315
0
LINE
8
BLACK
6
CONTINUOUS
10
4.91488
20
-5.36315
11
4.92238
21
-5.3669
0
LINE
8
BLACK
6
CONTINUOUS
10
4.92238
20
-5.3669
11
4.92612
21
-5.3744
0
LINE
8
BLACK
6
CONTINUOUS
10
4.92612
20
-5.3744
11
4.92612
21
-5.41564
0
LINE
8
BLACK
6
CONTINUOUS
10
5.06711
20
-5.33315
11
4.99962
21
-5.43439
0
LINE
8
BLACK
6
CONTINUOUS
10
5.1556
20
-5.3369
11
5.1631
21
-5.3369
0
LINE
8
BLACK
6
CONTINUOUS
10
5.1631
20
-5.3369
11
5.17059
21
-5.34065
0
LINE
8
BLACK
6
CONTINUOUS
10
5.17059
20
-5.34065
11
5.17434
21
-5.3444
0
LINE
8
BLACK
6
CONTINUOUS
10
5.17434
20
-5.3444
11
5.17809
21
-5.3519
0
LINE
8
BLACK
6
CONTINUOUS
10
5.17809
20
-5.3519
11
5.18184
21
-5.3669
0
LINE
8
BLACK
6
CONTINUOUS
10
5.18184
20
-5.3669
11
5.18184
21
-5.38564
0
LINE
8
BLACK
6
CONTINUOUS
10
5.18184
20
-5.38564
11
5.17809
21
-5.40064
0
LINE
8
BLACK
6
CONTINUOUS
10
5.17809
20
-5.40064
11
5.17434
21
-5.40814
0
LINE
8
BLACK
6
CONTINUOUS
10
5.17434
20
-5.40814
11
5.17059
21
-5.41189
0
LINE
8
BLACK
6
CONTINUOUS
10
5.17059
20
-5.41189
11
5.1631
21
-5.41564
0
LINE
8
BLACK
6
CONTINUOUS
10
5.1631
20
-5.41564
11
5.1556
21
-5.41564
0
LINE
8
BLACK
6
CONTINUOUS
10
5.1556
20
-5.41564
11
5.1481
21
-5.41189
0
LINE
8
BLACK
6
CONTINUOUS
10
5.1481
20
-5.41189
11
5.14435
21
-5.40814
0
LINE
8
BLACK
6
CONTINUOUS
10
5.14435
20
-5.40814
11
5.1406
21
-5.40064
0
LINE
8
BLACK
6
CONTINUOUS
10
5.1406
20
-5.40064
11
5.13685
21
-5.38564
0
LINE
8
BLACK
6
CONTINUOUS
10
5.13685
20
-5.38564
11
5.13685
21
-5.3669
0
LINE
8
BLACK
6
CONTINUOUS
10
5.13685
20
-5.3669
11
5.1406
21
-5.3519
0
LINE
8
BLACK
6
CONTINUOUS
10
5.1406
20
-5.3519
11
5.14435
21
-5.3444
0
LINE
8
BLACK
6
CONTINUOUS
10
5.14435
20
-5.3444
11
5.1481
21
-5.34065
0
LINE
8
BLACK
6
CONTINUOUS
10
5.1481
20
-5.34065
11
5.1556
21
-5.3369
0
LINE
8
BLACK
6
CONTINUOUS
10
5.21559
20
-5.40814
11
5.21934
21
-5.41189
0
LINE
8
BLACK
6
CONTINUOUS
10
5.21934
20
-5.41189
11
5.21559
21
-5.41564
0
LINE
8
BLACK
6
CONTINUOUS
10
5.21559
20
-5.41564
11
5.21184
21
-5.41189
0
LINE
8
BLACK
6
CONTINUOUS
10
5.21184
20
-5.41189
11
5.21559
21
-5.40814
0
LINE
8
BLACK
6
CONTINUOUS
10
5.21559
20
-5.40814
11
5.21559
21
-5.41564
0
LINE
8
BLACK
6
CONTINUOUS
10
5.26808
20
-5.3369
11
5.27558
21
-5.3369
0
LINE
8
BLACK
6
CONTINUOUS
10
5.27558
20
-5.3369
11
5.28308
21
-5.34065
0
LINE
8
BLACK
6
CONTINUOUS
10
5.28308
20
-5.34065
11
5.28683
21
-5.3444
0
LINE
8
BLACK
6
CONTINUOUS
10
5.28683
20
-5.3444
11
5.29058
21
-5.3519
0
LINE
8
BLACK
6
CONTINUOUS
10
5.29058
20
-5.3519
11
5.29433
21
-5.3669
0
LINE
8
BLACK
6
CONTINUOUS
10
5.29433
20
-5.3669
11
5.29433
21
-5.38564
0
LINE
8
BLACK
6
CONTINUOUS
10
5.29433
20
-5.38564
11
5.29058
21
-5.40064
0
LINE
8
BLACK
6
CONTINUOUS
10
5.29058
20
-5.40064
11
5.28683
21
-5.40814
0
LINE
8
BLACK
6
CONTINUOUS
10
5.28683
20
-5.40814
11
5.28308
21
-5.41189
0
LINE
8
BLACK
6
CONTINUOUS
10
5.28308
20
-5.41189
11
5.27558
21
-5.41564
0
LINE
8
BLACK
6
CONTINUOUS
10
5.27558
20
-5.41564
11
5.26808
21
-5.41564
0
LINE
8
BLACK
6
CONTINUOUS
10
5.26808
20
-5.41564
11
5.26058
21
-5.41189
0
LINE
8
BLACK
6
CONTINUOUS
10
5.26058
20
-5.41189
11
5.25683
21
-5.40814
0
LINE
8
BLACK
6
CONTINUOUS
10
5.25683
20
-5.40814
11
5.25308
21
-5.40064
0
LINE
8
BLACK
6
CONTINUOUS
10
5.25308
20
-5.40064
11
5.24933
21
-5.38564
0
LINE
8
BLACK
6
CONTINUOUS
10
5.24933
20
-5.38564
11
5.24933
21
-5.3669
0
LINE
8
BLACK
6
CONTINUOUS
10
5.24933
20
-5.3669
11
5.25308
21
-5.3519
0
LINE
8
BLACK
6
CONTINUOUS
10
5.25308
20
-5.3519
11
5.25683
21
-5.3444
0
LINE
8
BLACK
6
CONTINUOUS
10
5.25683
20
-5.3444
11
5.26058
21
-5.34065
0
LINE
8
BLACK
6
CONTINUOUS
10
5.26058
20
-5.34065
11
5.26808
21
-5.3369
0
LINE
8
BLACK
6
CONTINUOUS
10
5.32058
20
-5.3369
11
5.36932
21
-5.3369
0
LINE
8
BLACK
6
CONTINUOUS
10
5.36932
20
-5.3369
11
5.34307
21
-5.3669
0
LINE
8
BLACK
6
CONTINUOUS
10
5.34307
20
-5.3669
11
5.35432
21
-5.3669
0
LINE
8
BLACK
6
CONTINUOUS
10
5.35432
20
-5.3669
11
5.36182
21
-5.37065
0
LINE
8
BLACK
6
CONTINUOUS
10
5.36182
20
-5.37065
11
5.36557
21
-5.3744
0
LINE
8
BLACK
6
CONTINUOUS
10
5.36557
20
-5.3744
11
5.36932
21
-5.38189
0
LINE
8
BLACK
6
CONTINUOUS
10
5.36932
20
-5.38189
11
5.36932
21
-5.40064
0
LINE
8
BLACK
6
CONTINUOUS
10
5.36932
20
-5.40064
11
5.36557
21
-5.40814
0
LINE
8
BLACK
6
CONTINUOUS
10
5.36557
20
-5.40814
11
5.36182
21
-5.41189
0
LINE
8
BLACK
6
CONTINUOUS
10
5.36182
20
-5.41189
11
5.35432
21
-5.41564
0
LINE
8
BLACK
6
CONTINUOUS
10
5.35432
20
-5.41564
11
5.33182
21
-5.41564
0
LINE
8
BLACK
6
CONTINUOUS
10
5.33182
20
-5.41564
11
5.32433
21
-5.41189
0
LINE
8
BLACK
6
CONTINUOUS
10
5.32433
20
-5.41189
11
5.32058
21
-5.40814
0
LINE
8
BLACK
6
CONTINUOUS
10
5.44431
20
-5.41564
11
5.39932
21
-5.41564
0
LINE
8
BLACK
6
CONTINUOUS
10
5.42181
20
-5.41564
11
5.42181
21
-5.3369
0
LINE
8
BLACK
6
CONTINUOUS
10
5.42181
20
-5.3369
11
5.41431
21
-5.34815
0
LINE
8
BLACK
6
CONTINUOUS
10
5.41431
20
-5.34815
11
5.40681
21
-5.35565
0
LINE
8
BLACK
6
CONTINUOUS
10
5.40681
20
-5.35565
11
5.39932
21
-5.3594
0
LINE
8
BLACK
6
CONTINUOUS
10
5.51555
20
-5.3369
11
5.47806
21
-5.3369
0
LINE
8
BLACK
6
CONTINUOUS
10
5.47806
20
-5.3369
11
5.47431
21
-5.3744
0
LINE
8
BLACK
6
CONTINUOUS
10
5.47431
20
-5.3744
11
5.47806
21
-5.37065
0
LINE
8
BLACK
6
CONTINUOUS
10
5.47806
20
-5.37065
11
5.48555
21
-5.3669
0
LINE
8
BLACK
6
CONTINUOUS
10
5.48555
20
-5.3669
11
5.5043
21
-5.3669
0
LINE
8
BLACK
6
CONTINUOUS
10
5.5043
20
-5.3669
11
5.5118
21
-5.37065
0
LINE
8
BLACK
6
CONTINUOUS
10
5.5118
20
-5.37065
11
5.51555
21
-5.3744
0
LINE
8
BLACK
6
CONTINUOUS
10
5.51555
20
-5.3744
11
5.5193
21
-5.38189
0
LINE
8
BLACK
6
CONTINUOUS
10
5.5193
20
-5.38189
11
5.5193
21
-5.40064
0
LINE
8
BLACK
6
CONTINUOUS
10
5.5193
20
-5.40064
11
5.51555
21
-5.40814
0
LINE
8
BLACK
6
CONTINUOUS
10
5.51555
20
-5.40814
11
5.5118
21
-5.41189
0
LINE
8
BLACK
6
CONTINUOUS
10
5.5118
20
-5.41189
11
5.5043
21
-5.41564
0
LINE
8
BLACK
6
CONTINUOUS
10
5.5043
20
-5.41564
11
5.48555
21
-5.41564
0
LINE
8
BLACK
6
CONTINUOUS
10
5.48555
20
-5.41564
11
5.47806
21
-5.41189
0
LINE
8
BLACK
6
CONTINUOUS
10
5.47806
20
-5.41189
11
5.47431
21
-5.40814
0
LINE
8
BLACK
6
CONTINUOUS
10
5.5493
20
-5.3369
11
5.5493
21
-5.3519
0
LINE
8
BLACK
6
CONTINUOUS
10
5.57929
20
-5.3369
11
5.57929
21
-5.3519
0
LINE
8
BLACK
6
CONTINUOUS
10
5.68278
20
-5.44564
11
5.67903
21
-5.44189
0
LINE
8
BLACK
6
CONTINUOUS
10
5.67903
20
-5.44189
11
5.67153
21
-5.43064
0
LINE
8
BLACK
6
CONTINUOUS
10
5.67153
20
-5.43064
11
5.66778
21
-5.42314
0
LINE
8
BLACK
6
CONTINUOUS
10
5.66778
20
-5.42314
11
5.66403
21
-5.41189
0
LINE
8
BLACK
6
CONTINUOUS
10
5.66403
20
-5.41189
11
5.66028
21
-5.39314
0
LINE
8
BLACK
6
CONTINUOUS
10
5.66028
20
-5.39314
11
5.66028
21
-5.37814
0
LINE
8
BLACK
6
CONTINUOUS
10
5.66028
20
-5.37814
11
5.66403
21
-5.3594
0
LINE
8
BLACK
6
CONTINUOUS
10
5.66403
20
-5.3594
11
5.66778
21
-5.34815
0
LINE
8
BLACK
6
CONTINUOUS
10
5.66778
20
-5.34815
11
5.67153
21
-5.34065
0
LINE
8
BLACK
6
CONTINUOUS
10
5.67153
20
-5.34065
11
5.67903
21
-5.3294
0
LINE
8
BLACK
6
CONTINUOUS
10
5.67903
20
-5.3294
11
5.68278
21
-5.32565
0
LINE
8
BLACK
6
CONTINUOUS
10
5.70903
20
-5.3444
11
5.71278
21
-5.34065
0
LINE
8
BLACK
6
CONTINUOUS
10
5.71278
20
-5.34065
11
5.72028
21
-5.3369
0
LINE
8
BLACK
6
CONTINUOUS
10
5.72028
20
-5.3369
11
5.73902
21
-5.3369
0
LINE
8
BLACK
6
CONTINUOUS
10
5.73902
20
-5.3369
11
5.74652
21
-5.34065
0
LINE
8
BLACK
6
CONTINUOUS
10
5.74652
20
-5.34065
11
5.75027
21
-5.3444
0
LINE
8
BLACK
6
CONTINUOUS
10
5.75027
20
-5.3444
11
5.75402
21
-5.3519
0
LINE
8
BLACK
6
CONTINUOUS
10
5.75402
20
-5.3519
11
5.75402
21
-5.3594
0
LINE
8
BLACK
6
CONTINUOUS
10
5.75402
20
-5.3594
11
5.75027
21
-5.37065
0
LINE
8
BLACK
6
CONTINUOUS
10
5.75027
20
-5.37065
11
5.70528
21
-5.41564
0
LINE
8
BLACK
6
CONTINUOUS
10
5.70528
20
-5.41564
11
5.75402
21
-5.41564
0
LINE
8
BLACK
6
CONTINUOUS
10
5.83501
20
-5.41564
11
5.83501
21
-5.3369
0
LINE
8
BLACK
6
CONTINUOUS
10
5.86876
20
-5.41564
11
5.86876
21
-5.3744
0
LINE
8
BLACK
6
CONTINUOUS
10
5.86876
20
-5.3744
11
5.86501
21
-5.3669
0
LINE
8
BLACK
6
CONTINUOUS
10
5.86501
20
-5.3669
11
5.85751
21
-5.36315
0
LINE
8
BLACK
6
CONTINUOUS
10
5.85751
20
-5.36315
11
5.84626
21
-5.36315
0
LINE
8
BLACK
6
CONTINUOUS
10
5.84626
20
-5.36315
11
5.83876
21
-5.3669
0
LINE
8
BLACK
6
CONTINUOUS
10
5.83876
20
-5.3669
11
5.83501
21
-5.37065
0
LINE
8
BLACK
6
CONTINUOUS
10
5.9175
20
-5.41564
11
5.91
21
-5.41189
0
LINE
8
BLACK
6
CONTINUOUS
10
5.91
20
-5.41189
11
5.90625
21
-5.40814
0
LINE
8
BLACK
6
CONTINUOUS
10
5.90625
20
-5.40814
11
5.9025
21
-5.40064
0
LINE
8
BLACK
6
CONTINUOUS
10
5.9025
20
-5.40064
11
5.9025
21
-5.37814
0
LINE
8
BLACK
6
CONTINUOUS
10
5.9025
20
-5.37814
11
5.90625
21
-5.37065
0
LINE
8
BLACK
6
CONTINUOUS
10
5.90625
20
-5.37065
11
5.91
21
-5.3669
0
LINE
8
BLACK
6
CONTINUOUS
10
5.91
20
-5.3669
11
5.9175
21
-5.36315
0
LINE
8
BLACK
6
CONTINUOUS
10
5.9175
20
-5.36315
11
5.92875
21
-5.36315
0
LINE
8
BLACK
6
CONTINUOUS
10
5.92875
20
-5.36315
11
5.93625
21
-5.3669
0
LINE
8
BLACK
6
CONTINUOUS
10
5.93625
20
-5.3669
11
5.94
21
-5.37065
0
LINE
8
BLACK
6
CONTINUOUS
10
5.94
20
-5.37065
11
5.94375
21
-5.37814
0
LINE
8
BLACK
6
CONTINUOUS
10
5.94375
20
-5.37814
11
5.94375
21
-5.40064
0
LINE
8
BLACK
6
CONTINUOUS
10
5.94375
20
-5.40064
11
5.94
21
-5.40814
0
LINE
8
BLACK
6
CONTINUOUS
10
5.94
20
-5.40814
11
5.93625
21
-5.41189
0
LINE
8
BLACK
6
CONTINUOUS
10
5.93625
20
-5.41189
11
5.92875
21
-5.41564
0
LINE
8
BLACK
6
CONTINUOUS
10
5.92875
20
-5.41564
11
5.9175
21
-5.41564
0
LINE
8
BLACK
6
CONTINUOUS
10
5.98874
20
-5.41564
11
5.98124
21
-5.41189
0
LINE
8
BLACK
6
CONTINUOUS
10
5.98124
20
-5.41189
11
5.97749
21
-5.40439
0
LINE
8
BLACK
6
CONTINUOUS
10
5.97749
20
-5.40439
11
5.97749
21
-5.3369
0
LINE
8
BLACK
6
CONTINUOUS
10
6.04873
20
-5.41189
11
6.04124
21
-5.41564
0
LINE
8
BLACK
6
CONTINUOUS
10
6.04124
20
-5.41564
11
6.02624
21
-5.41564
0
LINE
8
BLACK
6
CONTINUOUS
10
6.02624
20
-5.41564
11
6.01874
21
-5.41189
0
LINE
8
BLACK
6
CONTINUOUS
10
6.01874
20
-5.41189
11
6.01499
21
-5.40439
0
LINE
8
BLACK
6
CONTINUOUS
10
6.01499
20
-5.40439
11
6.01499
21
-5.3744
0
LINE
8
BLACK
6
CONTINUOUS
10
6.01499
20
-5.3744
11
6.01874
21
-5.3669
0
LINE
8
BLACK
6
CONTINUOUS
10
6.01874
20
-5.3669
11
6.02624
21
-5.36315
0
LINE
8
BLACK
6
CONTINUOUS
10
6.02624
20
-5.36315
11
6.04124
21
-5.36315
0
LINE
8
BLACK
6
CONTINUOUS
10
6.04124
20
-5.36315
11
6.04873
21
-5.3669
0
LINE
8
BLACK
6
CONTINUOUS
10
6.04873
20
-5.3669
11
6.05248
21
-5.3744
0
LINE
8
BLACK
6
CONTINUOUS
10
6.05248
20
-5.3744
11
6.05248
21
-5.38189
0
LINE
8
BLACK
6
CONTINUOUS
10
6.05248
20
-5.38189
11
6.01499
21
-5.38939
0
LINE
8
BLACK
6
CONTINUOUS
10
6.08248
20
-5.41189
11
6.08998
21
-5.41564
0
LINE
8
BLACK
6
CONTINUOUS
10
6.08998
20
-5.41564
11
6.10498
21
-5.41564
0
LINE
8
BLACK
6
CONTINUOUS
10
6.10498
20
-5.41564
11
6.11248
21
-5.41189
0
LINE
8
BLACK
6
CONTINUOUS
10
6.11248
20
-5.41189
11
6.11623
21
-5.40439
0
LINE
8
BLACK
6
CONTINUOUS
10
6.11623
20
-5.40439
11
6.11623
21
-5.40064
0
LINE
8
BLACK
6
CONTINUOUS
10
6.11623
20
-5.40064
11
6.11248
21
-5.39314
0
LINE
8
BLACK
6
CONTINUOUS
10
6.11248
20
-5.39314
11
6.10498
21
-5.38939
0
LINE
8
BLACK
6
CONTINUOUS
10
6.10498
20
-5.38939
11
6.09373
21
-5.38939
0
LINE
8
BLACK
6
CONTINUOUS
10
6.09373
20
-5.38939
11
6.08623
21
-5.38564
0
LINE
8
BLACK
6
CONTINUOUS
10
6.08623
20
-5.38564
11
6.08248
21
-5.37814
0
LINE
8
BLACK
6
CONTINUOUS
10
6.08248
20
-5.37814
11
6.08248
21
-5.3744
0
LINE
8
BLACK
6
CONTINUOUS
10
6.08248
20
-5.3744
11
6.08623
21
-5.3669
0
LINE
8
BLACK
6
CONTINUOUS
10
6.08623
20
-5.3669
11
6.09373
21
-5.36315
0
LINE
8
BLACK
6
CONTINUOUS
10
6.09373
20
-5.36315
11
6.10498
21
-5.36315
0
LINE
8
BLACK
6
CONTINUOUS
10
6.10498
20
-5.36315
11
6.11248
21
-5.3669
0
LINE
8
BLACK
6
CONTINUOUS
10
6.14247
20
-5.44564
11
6.14622
21
-5.44189
0
LINE
8
BLACK
6
CONTINUOUS
10
6.14622
20
-5.44189
11
6.15372
21
-5.43064
0
LINE
8
BLACK
6
CONTINUOUS
10
6.15372
20
-5.43064
11
6.15747
21
-5.42314
0
LINE
8
BLACK
6
CONTINUOUS
10
6.15747
20
-5.42314
11
6.16122
21
-5.41189
0
LINE
8
BLACK
6
CONTINUOUS
10
6.16122
20
-5.41189
11
6.16497
21
-5.39314
0
LINE
8
BLACK
6
CONTINUOUS
10
6.16497
20
-5.39314
11
6.16497
21
-5.37814
0
LINE
8
BLACK
6
CONTINUOUS
10
6.16497
20
-5.37814
11
6.16122
21
-5.3594
0
LINE
8
BLACK
6
CONTINUOUS
10
6.16122
20
-5.3594
11
6.15747
21
-5.34815
0
LINE
8
BLACK
6
CONTINUOUS
10
6.15747
20
-5.34815
11
6.15372
21
-5.34065
0
LINE
8
BLACK
6
CONTINUOUS
10
6.15372
20
-5.34065
11
6.14622
21
-5.3294
0
LINE
8
BLACK
6
CONTINUOUS
10
6.14622
20
-5.3294
11
6.14247
21
-5.32565
0
LINE
8
BLACK
6
CONTINUOUS
10
4.31294
20
-5.50457
11
4.31294
21
-5.47673
0
LINE
8
BLACK
6
CONTINUOUS
10
4.31294
20
-5.47673
11
4.2851
21
-5.47673
0
LINE
8
BLACK
6
CONTINUOUS
10
4.2851
20
-5.47673
11
4.2851
21
-5.50457
0
LINE
8
BLACK
6
CONTINUOUS
10
4.2851
20
-5.50457
11
4.31294
21
-5.50457
0
LINE
8
BLACK
6
CONTINUOUS
10
4.45743
20
-5.51958
11
4.41244
21
-5.51958
0
LINE
8
BLACK
6
CONTINUOUS
10
4.43494
20
-5.51958
11
4.43494
21
-5.44084
0
LINE
8
BLACK
6
CONTINUOUS
10
4.43494
20
-5.44084
11
4.42744
21
-5.45209
0
LINE
8
BLACK
6
CONTINUOUS
10
4.42744
20
-5.45209
11
4.41994
21
-5.45958
0
LINE
8
BLACK
6
CONTINUOUS
10
4.41994
20
-5.45958
11
4.41244
21
-5.46333
0
LINE
8
BLACK
6
CONTINUOUS
10
4.49118
20
-5.51208
11
4.49493
21
-5.51583
0
LINE
8
BLACK
6
CONTINUOUS
10
4.49493
20
-5.51583
11
4.49118
21
-5.51958
0
LINE
8
BLACK
6
CONTINUOUS
10
4.49118
20
-5.51958
11
4.48743
21
-5.51583
0
LINE
8
BLACK
6
CONTINUOUS
10
4.48743
20
-5.51583
11
4.49118
21
-5.51208
0
LINE
8
BLACK
6
CONTINUOUS
10
4.49118
20
-5.51208
11
4.49118
21
-5.51958
0
LINE
8
BLACK
6
CONTINUOUS
10
4.54367
20
-5.44084
11
4.55117
21
-5.44084
0
LINE
8
BLACK
6
CONTINUOUS
10
4.55117
20
-5.44084
11
4.55867
21
-5.44459
0
LINE
8
BLACK
6
CONTINUOUS
10
4.55867
20
-5.44459
11
4.56242
21
-5.44834
0
LINE
8
BLACK
6
CONTINUOUS
10
4.56242
20
-5.44834
11
4.56617
21
-5.45584
0
LINE
8
BLACK
6
CONTINUOUS
10
4.56617
20
-5.45584
11
4.56992
21
-5.47083
0
LINE
8
BLACK
6
CONTINUOUS
10
4.56992
20
-5.47083
11
4.56992
21
-5.48958
0
LINE
8
BLACK
6
CONTINUOUS
10
4.56992
20
-5.48958
11
4.56617
21
-5.50458
0
LINE
8
BLACK
6
CONTINUOUS
10
4.56617
20
-5.50458
11
4.56242
21
-5.51208
0
LINE
8
BLACK
6
CONTINUOUS
10
4.56242
20
-5.51208
11
4.55867
21
-5.51583
0
LINE
8
BLACK
6
CONTINUOUS
10
4.55867
20
-5.51583
11
4.55117
21
-5.51958
0
LINE
8
BLACK
6
CONTINUOUS
10
4.55117
20
-5.51958
11
4.54367
21
-5.51958
0
LINE
8
BLACK
6
CONTINUOUS
10
4.54367
20
-5.51958
11
4.53617
21
-5.51583
0
LINE
8
BLACK
6
CONTINUOUS
10
4.53617
20
-5.51583
11
4.53242
21
-5.51208
0
LINE
8
BLACK
6
CONTINUOUS
10
4.53242
20
-5.51208
11
4.52867
21
-5.50458
0
LINE
8
BLACK
6
CONTINUOUS
10
4.52867
20
-5.50458
11
4.52492
21
-5.48958
0
LINE
8
BLACK
6
CONTINUOUS
10
4.52492
20
-5.48958
11
4.52492
21
-5.47083
0
LINE
8
BLACK
6
CONTINUOUS
10
4.52492
20
-5.47083
11
4.52867
21
-5.45584
0
LINE
8
BLACK
6
CONTINUOUS
10
4.52867
20
-5.45584
11
4.53242
21
-5.44834
0
LINE
8
BLACK
6
CONTINUOUS
10
4.53242
20
-5.44834
11
4.53617
21
-5.44459
0
LINE
8
BLACK
6
CONTINUOUS
10
4.53617
20
-5.44459
11
4.54367
21
-5.44084
0
LINE
8
BLACK
6
CONTINUOUS
10
4.61866
20
-5.44084
11
4.62616
21
-5.44084
0
LINE
8
BLACK
6
CONTINUOUS
10
4.62616
20
-5.44084
11
4.63366
21
-5.44459
0
LINE
8
BLACK
6
CONTINUOUS
10
4.63366
20
-5.44459
11
4.63741
21
-5.44834
0
LINE
8
BLACK
6
CONTINUOUS
10
4.63741
20
-5.44834
11
4.64116
21
-5.45584
0
LINE
8
BLACK
6
CONTINUOUS
10
4.64116
20
-5.45584
11
4.64491
21
-5.47083
0
LINE
8
BLACK
6
CONTINUOUS
10
4.64491
20
-5.47083
11
4.64491
21
-5.48958
0
LINE
8
BLACK
6
CONTINUOUS
10
4.64491
20
-5.48958
11
4.64116
21
-5.50458
0
LINE
8
BLACK
6
CONTINUOUS
10
4.64116
20
-5.50458
11
4.63741
21
-5.51208
0
LINE
8
BLACK
6
CONTINUOUS
10
4.63741
20
-5.51208
11
4.63366
21
-5.51583
0
LINE
8
BLACK
6
CONTINUOUS
10
4.63366
20
-5.51583
11
4.62616
21
-5.51958
0
LINE
8
BLACK
6
CONTINUOUS
10
4.62616
20
-5.51958
11
4.61866
21
-5.51958
0
LINE
8
BLACK
6
CONTINUOUS
10
4.61866
20
-5.51958
11
4.61116
21
-5.51583
0
LINE
8
BLACK
6
CONTINUOUS
10
4.61116
20
-5.51583
11
4.60741
21
-5.51208
0
LINE
8
BLACK
6
CONTINUOUS
10
4.60741
20
-5.51208
11
4.60367
21
-5.50458
0
LINE
8
BLACK
6
CONTINUOUS
10
4.60367
20
-5.50458
11
4.59992
21
-5.48958
0
LINE
8
BLACK
6
CONTINUOUS
10
4.59992
20
-5.48958
11
4.59992
21
-5.47083
0
LINE
8
BLACK
6
CONTINUOUS
10
4.59992
20
-5.47083
11
4.60367
21
-5.45584
0
LINE
8
BLACK
6
CONTINUOUS
10
4.60367
20
-5.45584
11
4.60741
21
-5.44834
0
LINE
8
BLACK
6
CONTINUOUS
10
4.60741
20
-5.44834
11
4.61116
21
-5.44459
0
LINE
8
BLACK
6
CONTINUOUS
10
4.61116
20
-5.44459
11
4.61866
21
-5.44084
0
LINE
8
BLACK
6
CONTINUOUS
10
4.69365
20
-5.44084
11
4.70115
21
-5.44084
0
LINE
8
BLACK
6
CONTINUOUS
10
4.70115
20
-5.44084
11
4.70865
21
-5.44459
0
LINE
8
BLACK
6
CONTINUOUS
10
4.70865
20
-5.44459
11
4.7124
21
-5.44834
0
LINE
8
BLACK
6
CONTINUOUS
10
4.7124
20
-5.44834
11
4.71615
21
-5.45584
0
LINE
8
BLACK
6
CONTINUOUS
10
4.71615
20
-5.45584
11
4.7199
21
-5.47083
0
LINE
8
BLACK
6
CONTINUOUS
10
4.7199
20
-5.47083
11
4.7199
21
-5.48958
0
LINE
8
BLACK
6
CONTINUOUS
10
4.7199
20
-5.48958
11
4.71615
21
-5.50458
0
LINE
8
BLACK
6
CONTINUOUS
10
4.71615
20
-5.50458
11
4.7124
21
-5.51208
0
LINE
8
BLACK
6
CONTINUOUS
10
4.7124
20
-5.51208
11
4.70865
21
-5.51583
0
LINE
8
BLACK
6
CONTINUOUS
10
4.70865
20
-5.51583
11
4.70115
21
-5.51958
0
LINE
8
BLACK
6
CONTINUOUS
10
4.70115
20
-5.51958
11
4.69365
21
-5.51958
0
LINE
8
BLACK
6
CONTINUOUS
10
4.69365
20
-5.51958
11
4.68615
21
-5.51583
0
LINE
8
BLACK
6
CONTINUOUS
10
4.68615
20
-5.51583
11
4.68241
21
-5.51208
0
LINE
8
BLACK
6
CONTINUOUS
10
4.68241
20
-5.51208
11
4.67866
21
-5.50458
0
LINE
8
BLACK
6
CONTINUOUS
10
4.67866
20
-5.50458
11
4.67491
21
-5.48958
0
LINE
8
BLACK
6
CONTINUOUS
10
4.67491
20
-5.48958
11
4.67491
21
-5.47083
0
LINE
8
BLACK
6
CONTINUOUS
10
4.67491
20
-5.47083
11
4.67866
21
-5.45584
0
LINE
8
BLACK
6
CONTINUOUS
10
4.67866
20
-5.45584
11
4.68241
21
-5.44834
0
LINE
8
BLACK
6
CONTINUOUS
10
4.68241
20
-5.44834
11
4.68615
21
-5.44459
0
LINE
8
BLACK
6
CONTINUOUS
10
4.68615
20
-5.44459
11
4.69365
21
-5.44084
0
LINE
8
BLACK
6
CONTINUOUS
10
4.75365
20
-5.51958
11
4.75365
21
-5.46708
0
LINE
8
BLACK
6
CONTINUOUS
10
4.75365
20
-5.47458
11
4.7574
21
-5.47083
0
LINE
8
BLACK
6
CONTINUOUS
10
4.7574
20
-5.47083
11
4.7649
21
-5.46708
0
LINE
8
BLACK
6
CONTINUOUS
10
4.7649
20
-5.46708
11
4.77614
21
-5.46708
0
LINE
8
BLACK
6
CONTINUOUS
10
4.77614
20
-5.46708
11
4.78364
21
-5.47083
0
LINE
8
BLACK
6
CONTINUOUS
10
4.78364
20
-5.47083
11
4.78739
21
-5.47833
0
LINE
8
BLACK
6
CONTINUOUS
10
4.78739
20
-5.47833
11
4.78739
21
-5.51958
0
LINE
8
BLACK
6
CONTINUOUS
10
4.78739
20
-5.47833
11
4.79114
21
-5.47083
0
LINE
8
BLACK
6
CONTINUOUS
10
4.79114
20
-5.47083
11
4.79864
21
-5.46708
0
LINE
8
BLACK
6
CONTINUOUS
10
4.79864
20
-5.46708
11
4.80989
21
-5.46708
0
LINE
8
BLACK
6
CONTINUOUS
10
4.80989
20
-5.46708
11
4.81739
21
-5.47083
0
LINE
8
BLACK
6
CONTINUOUS
10
4.81739
20
-5.47083
11
4.82114
21
-5.47833
0
LINE
8
BLACK
6
CONTINUOUS
10
4.82114
20
-5.47833
11
4.82114
21
-5.51958
0
LINE
8
BLACK
6
CONTINUOUS
10
4.85863
20
-5.51958
11
4.85863
21
-5.46708
0
LINE
8
BLACK
6
CONTINUOUS
10
4.85863
20
-5.47458
11
4.86238
21
-5.47083
0
LINE
8
BLACK
6
CONTINUOUS
10
4.86238
20
-5.47083
11
4.86988
21
-5.46708
0
LINE
8
BLACK
6
CONTINUOUS
10
4.86988
20
-5.46708
11
4.88113
21
-5.46708
0
LINE
8
BLACK
6
CONTINUOUS
10
4.88113
20
-5.46708
11
4.88863
21
-5.47083
0
LINE
8
BLACK
6
CONTINUOUS
10
4.88863
20
-5.47083
11
4.89238
21
-5.47833
0
LINE
8
BLACK
6
CONTINUOUS
10
4.89238
20
-5.47833
11
4.89238
21
-5.51958
0
LINE
8
BLACK
6
CONTINUOUS
10
4.89238
20
-5.47833
11
4.89613
21
-5.47083
0
LINE
8
BLACK
6
CONTINUOUS
10
4.89613
20
-5.47083
11
4.90363
21
-5.46708
0
LINE
8
BLACK
6
CONTINUOUS
10
4.90363
20
-5.46708
11
4.91488
21
-5.46708
0
LINE
8
BLACK
6
CONTINUOUS
10
4.91488
20
-5.46708
11
4.92238
21
-5.47083
0
LINE
8
BLACK
6
CONTINUOUS
10
4.92238
20
-5.47083
11
4.92612
21
-5.47833
0
LINE
8
BLACK
6
CONTINUOUS
10
4.92612
20
-5.47833
11
4.92612
21
-5.51958
0
LINE
8
BLACK
6
CONTINUOUS
10
5.06711
20
-5.43709
11
4.99962
21
-5.53832
0
LINE
8
BLACK
6
CONTINUOUS
10
5.1556
20
-5.44084
11
5.1631
21
-5.44084
0
LINE
8
BLACK
6
CONTINUOUS
10
5.1631
20
-5.44084
11
5.17059
21
-5.44459
0
LINE
8
BLACK
6
CONTINUOUS
10
5.17059
20
-5.44459
11
5.17434
21
-5.44834
0
LINE
8
BLACK
6
CONTINUOUS
10
5.17434
20
-5.44834
11
5.17809
21
-5.45584
0
LINE
8
BLACK
6
CONTINUOUS
10
5.17809
20
-5.45584
11
5.18184
21
-5.47083
0
LINE
8
BLACK
6
CONTINUOUS
10
5.18184
20
-5.47083
11
5.18184
21
-5.48958
0
LINE
8
BLACK
6
CONTINUOUS
10
5.18184
20
-5.48958
11
5.17809
21
-5.50458
0
LINE
8
BLACK
6
CONTINUOUS
10
5.17809
20
-5.50458
11
5.17434
21
-5.51208
0
LINE
8
BLACK
6
CONTINUOUS
10
5.17434
20
-5.51208
11
5.17059
21
-5.51583
0
LINE
8
BLACK
6
CONTINUOUS
10
5.17059
20
-5.51583
11
5.1631
21
-5.51958
0
LINE
8
BLACK
6
CONTINUOUS
10
5.1631
20
-5.51958
11
5.1556
21
-5.51958
0
LINE
8
BLACK
6
CONTINUOUS
10
5.1556
20
-5.51958
11
5.1481
21
-5.51583
0
LINE
8
BLACK
6
CONTINUOUS
10
5.1481
20
-5.51583
11
5.14435
21
-5.51208
0
LINE
8
BLACK
6
CONTINUOUS
10
5.14435
20
-5.51208
11
5.1406
21
-5.50458
0
LINE
8
BLACK
6
CONTINUOUS
10
5.1406
20
-5.50458
11
5.13685
21
-5.48958
0
LINE
8
BLACK
6
CONTINUOUS
10
5.13685
20
-5.48958
11
5.13685
21
-5.47083
0
LINE
8
BLACK
6
CONTINUOUS
10
5.13685
20
-5.47083
11
5.1406
21
-5.45584
0
LINE
8
BLACK
6
CONTINUOUS
10
5.1406
20
-5.45584
11
5.14435
21
-5.44834
0
LINE
8
BLACK
6
CONTINUOUS
10
5.14435
20
-5.44834
11
5.1481
21
-5.44459
0
LINE
8
BLACK
6
CONTINUOUS
10
5.1481
20
-5.44459
11
5.1556
21
-5.44084
0
LINE
8
BLACK
6
CONTINUOUS
10
5.21559
20
-5.51208
11
5.21934
21
-5.51583
0
LINE
8
BLACK
6
CONTINUOUS
10
5.21934
20
-5.51583
11
5.21559
21
-5.51958
0
LINE
8
BLACK
6
CONTINUOUS
10
5.21559
20
-5.51958
11
5.21184
21
-5.51583
0
LINE
8
BLACK
6
CONTINUOUS
10
5.21184
20
-5.51583
11
5.21559
21
-5.51208
0
LINE
8
BLACK
6
CONTINUOUS
10
5.21559
20
-5.51208
11
5.21559
21
-5.51958
0
LINE
8
BLACK
6
CONTINUOUS
10
5.26808
20
-5.44084
11
5.27558
21
-5.44084
0
LINE
8
BLACK
6
CONTINUOUS
10
5.27558
20
-5.44084
11
5.28308
21
-5.44459
0
LINE
8
BLACK
6
CONTINUOUS
10
5.28308
20
-5.44459
11
5.28683
21
-5.44834
0
LINE
8
BLACK
6
CONTINUOUS
10
5.28683
20
-5.44834
11
5.29058
21
-5.45584
0
LINE
8
BLACK
6
CONTINUOUS
10
5.29058
20
-5.45584
11
5.29433
21
-5.47083
0
LINE
8
BLACK
6
CONTINUOUS
10
5.29433
20
-5.47083
11
5.29433
21
-5.48958
0
LINE
8
BLACK
6
CONTINUOUS
10
5.29433
20
-5.48958
11
5.29058
21
-5.50458
0
LINE
8
BLACK
6
CONTINUOUS
10
5.29058
20
-5.50458
11
5.28683
21
-5.51208
0
LINE
8
BLACK
6
CONTINUOUS
10
5.28683
20
-5.51208
11
5.28308
21
-5.51583
0
LINE
8
BLACK
6
CONTINUOUS
10
5.28308
20
-5.51583
11
5.27558
21
-5.51958
0
LINE
8
BLACK
6
CONTINUOUS
10
5.27558
20
-5.51958
11
5.26808
21
-5.51958
0
LINE
8
BLACK
6
CONTINUOUS
10
5.26808
20
-5.51958
11
5.26058
21
-5.51583
0
LINE
8
BLACK
6
CONTINUOUS
10
5.26058
20
-5.51583
11
5.25683
21
-5.51208
0
LINE
8
BLACK
6
CONTINUOUS
10
5.25683
20
-5.51208
11
5.25308
21
-5.50458
0
LINE
8
BLACK
6
CONTINUOUS
10
5.25308
20
-5.50458
11
5.24933
21
-5.48958
0
LINE
8
BLACK
6
CONTINUOUS
10
5.24933
20
-5.48958
11
5.24933
21
-5.47083
0
LINE
8
BLACK
6
CONTINUOUS
10
5.24933
20
-5.47083
11
5.25308
21
-5.45584
0
LINE
8
BLACK
6
CONTINUOUS
10
5.25308
20
-5.45584
11
5.25683
21
-5.44834
0
LINE
8
BLACK
6
CONTINUOUS
10
5.25683
20
-5.44834
11
5.26058
21
-5.44459
0
LINE
8
BLACK
6
CONTINUOUS
10
5.26058
20
-5.44459
11
5.26808
21
-5.44084
0
LINE
8
BLACK
6
CONTINUOUS
10
5.32058
20
-5.44084
11
5.36932
21
-5.44084
0
LINE
8
BLACK
6
CONTINUOUS
10
5.36932
20
-5.44084
11
5.34307
21
-5.47083
0
LINE
8
BLACK
6
CONTINUOUS
10
5.34307
20
-5.47083
11
5.35432
21
-5.47083
0
LINE
8
BLACK
6
CONTINUOUS
10
5.35432
20
-5.47083
11
5.36182
21
-5.47458
0
LINE
8
BLACK
6
CONTINUOUS
10
5.36182
20
-5.47458
11
5.36557
21
-5.47833
0
LINE
8
BLACK
6
CONTINUOUS
10
5.36557
20
-5.47833
11
5.36932
21
-5.48583
0
LINE
8
BLACK
6
CONTINUOUS
10
5.36932
20
-5.48583
11
5.36932
21
-5.50458
0
LINE
8
BLACK
6
CONTINUOUS
10
5.36932
20
-5.50458
11
5.36557
21
-5.51208
0
LINE
8
BLACK
6
CONTINUOUS
10
5.36557
20
-5.51208
11
5.36182
21
-5.51583
0
LINE
8
BLACK
6
CONTINUOUS
10
5.36182
20
-5.51583
11
5.35432
21
-5.51958
0
LINE
8
BLACK
6
CONTINUOUS
10
5.35432
20
-5.51958
11
5.33182
21
-5.51958
0
LINE
8
BLACK
6
CONTINUOUS
10
5.33182
20
-5.51958
11
5.32433
21
-5.51583
0
LINE
8
BLACK
6
CONTINUOUS
10
5.32433
20
-5.51583
11
5.32058
21
-5.51208
0
LINE
8
BLACK
6
CONTINUOUS
10
5.40681
20
-5.51958
11
5.42181
21
-5.51958
0
LINE
8
BLACK
6
CONTINUOUS
10
5.42181
20
-5.51958
11
5.42931
21
-5.51583
0
LINE
8
BLACK
6
CONTINUOUS
10
5.42931
20
-5.51583
11
5.43306
21
-5.51208
0
LINE
8
BLACK
6
CONTINUOUS
10
5.43306
20
-5.51208
11
5.44056
21
-5.50083
0
LINE
8
BLACK
6
CONTINUOUS
10
5.44056
20
-5.50083
11
5.44431
21
-5.48583
0
LINE
8
BLACK
6
CONTINUOUS
10
5.44431
20
-5.48583
11
5.44431
21
-5.45584
0
LINE
8
BLACK
6
CONTINUOUS
10
5.44431
20
-5.45584
11
5.44056
21
-5.44834
0
LINE
8
BLACK
6
CONTINUOUS
10
5.44056
20
-5.44834
11
5.43681
21
-5.44459
0
LINE
8
BLACK
6
CONTINUOUS
10
5.43681
20
-5.44459
11
5.42931
21
-5.44084
0
LINE
8
BLACK
6
CONTINUOUS
10
5.42931
20
-5.44084
11
5.41431
21
-5.44084
0
LINE
8
BLACK
6
CONTINUOUS
10
5.41431
20
-5.44084
11
5.40681
21
-5.44459
0
LINE
8
BLACK
6
CONTINUOUS
10
5.40681
20
-5.44459
11
5.40307
21
-5.44834
0
LINE
8
BLACK
6
CONTINUOUS
10
5.40307
20
-5.44834
11
5.39932
21
-5.45584
0
LINE
8
BLACK
6
CONTINUOUS
10
5.39932
20
-5.45584
11
5.39932
21
-5.47458
0
LINE
8
BLACK
6
CONTINUOUS
10
5.39932
20
-5.47458
11
5.40307
21
-5.48208
0
LINE
8
BLACK
6
CONTINUOUS
10
5.40307
20
-5.48208
11
5.40681
21
-5.48583
0
LINE
8
BLACK
6
CONTINUOUS
10
5.40681
20
-5.48583
11
5.41431
21
-5.48958
0
LINE
8
BLACK
6
CONTINUOUS
10
5.41431
20
-5.48958
11
5.42931
21
-5.48958
0
LINE
8
BLACK
6
CONTINUOUS
10
5.42931
20
-5.48958
11
5.43681
21
-5.48583
0
LINE
8
BLACK
6
CONTINUOUS
10
5.43681
20
-5.48583
11
5.44056
21
-5.48208
0
LINE
8
BLACK
6
CONTINUOUS
10
5.44056
20
-5.48208
11
5.44431
21
-5.47458
0
LINE
8
BLACK
6
CONTINUOUS
10
5.5118
20
-5.46708
11
5.5118
21
-5.51958
0
LINE
8
BLACK
6
CONTINUOUS
10
5.49305
20
-5.43709
11
5.47431
21
-5.49333
0
LINE
8
BLACK
6
CONTINUOUS
10
5.47431
20
-5.49333
11
5.52305
21
-5.49333
0
LINE
8
BLACK
6
CONTINUOUS
10
5.5493
20
-5.44084
11
5.5493
21
-5.45584
0
LINE
8
BLACK
6
CONTINUOUS
10
5.57929
20
-5.44084
11
5.57929
21
-5.45584
0
LINE
8
BLACK
6
CONTINUOUS
10
5.68278
20
-5.54957
11
5.67903
21
-5.54582
0
LINE
8
BLACK
6
CONTINUOUS
10
5.67903
20
-5.54582
11
5.67153
21
-5.53458
0
LINE
8
BLACK
6
CONTINUOUS
10
5.67153
20
-5.53458
11
5.66778
21
-5.52708
0
LINE
8
BLACK
6
CONTINUOUS
10
5.66778
20
-5.52708
11
5.66403
21
-5.51583
0
LINE
8
BLACK
6
CONTINUOUS
10
5.66403
20
-5.51583
11
5.66028
21
-5.49708
0
LINE
8
BLACK
6
CONTINUOUS
10
5.66028
20
-5.49708
11
5.66028
21
-5.48208
0
LINE
8
BLACK
6
CONTINUOUS
10
5.66028
20
-5.48208
11
5.66403
21
-5.46333
0
LINE
8
BLACK
6
CONTINUOUS
10
5.66403
20
-5.46333
11
5.66778
21
-5.45209
0
LINE
8
BLACK
6
CONTINUOUS
10
5.66778
20
-5.45209
11
5.67153
21
-5.44459
0
LINE
8
BLACK
6
CONTINUOUS
10
5.67153
20
-5.44459
11
5.67903
21
-5.43334
0
LINE
8
BLACK
6
CONTINUOUS
10
5.67903
20
-5.43334
11
5.68278
21
-5.42959
0
LINE
8
BLACK
6
CONTINUOUS
10
5.75402
20
-5.51958
11
5.70903
21
-5.51958
0
LINE
8
BLACK
6
CONTINUOUS
10
5.73152
20
-5.51958
11
5.73152
21
-5.44084
0
LINE
8
BLACK
6
CONTINUOUS
10
5.73152
20
-5.44084
11
5.72403
21
-5.45209
0
LINE
8
BLACK
6
CONTINUOUS
10
5.72403
20
-5.45209
11
5.71653
21
-5.45958
0
LINE
8
BLACK
6
CONTINUOUS
10
5.71653
20
-5.45958
11
5.70903
21
-5.46333
0
LINE
8
BLACK
6
CONTINUOUS
10
5.78402
20
-5.44834
11
5.78777
21
-5.44459
0
LINE
8
BLACK
6
CONTINUOUS
10
5.78777
20
-5.44459
11
5.79527
21
-5.44084
0
LINE
8
BLACK
6
CONTINUOUS
10
5.79527
20
-5.44084
11
5.81401
21
-5.44084
0
LINE
8
BLACK
6
CONTINUOUS
10
5.81401
20
-5.44084
11
5.82151
21
-5.44459
0
LINE
8
BLACK
6
CONTINUOUS
10
5.82151
20
-5.44459
11
5.82526
21
-5.44834
0
LINE
8
BLACK
6
CONTINUOUS
10
5.82526
20
-5.44834
11
5.82901
21
-5.45584
0
LINE
8
BLACK
6
CONTINUOUS
10
5.82901
20
-5.45584
11
5.82901
21
-5.46333
0
LINE
8
BLACK
6
CONTINUOUS
10
5.82901
20
-5.46333
11
5.82526
21
-5.47458
0
LINE
8
BLACK
6
CONTINUOUS
10
5.82526
20
-5.47458
11
5.78027
21
-5.51958
0
LINE
8
BLACK
6
CONTINUOUS
10
5.78027
20
-5.51958
11
5.82901
21
-5.51958
0
LINE
8
BLACK
6
CONTINUOUS
10
5.91
20
-5.51958
11
5.91
21
-5.44084
0
LINE
8
BLACK
6
CONTINUOUS
10
5.94375
20
-5.51958
11
5.94375
21
-5.47833
0
LINE
8
BLACK
6
CONTINUOUS
10
5.94375
20
-5.47833
11
5.94
21
-5.47083
0
LINE
8
BLACK
6
CONTINUOUS
10
5.94
20
-5.47083
11
5.9325
21
-5.46708
0
LINE
8
BLACK
6
CONTINUOUS
10
5.9325
20
-5.46708
11
5.92125
21
-5.46708
0
LINE
8
BLACK
6
CONTINUOUS
10
5.92125
20
-5.46708
11
5.91375
21
-5.47083
0
LINE
8
BLACK
6
CONTINUOUS
10
5.91375
20
-5.47083
11
5.91
21
-5.47458
0
LINE
8
BLACK
6
CONTINUOUS
10
5.99249
20
-5.51958
11
5.98499
21
-5.51583
0
LINE
8
BLACK
6
CONTINUOUS
10
5.98499
20
-5.51583
11
5.98124
21
-5.51208
0
LINE
8
BLACK
6
CONTINUOUS
10
5.98124
20
-5.51208
11
5.97749
21
-5.50458
0
LINE
8
BLACK
6
CONTINUOUS
10
5.97749
20
-5.50458
11
5.97749
21
-5.48208
0
LINE
8
BLACK
6
CONTINUOUS
10
5.97749
20
-5.48208
11
5.98124
21
-5.47458
0
LINE
8
BLACK
6
CONTINUOUS
10
5.98124
20
-5.47458
11
5.98499
21
-5.47083
0
LINE
8
BLACK
6
CONTINUOUS
10
5.98499
20
-5.47083
11
5.99249
21
-5.46708
0
LINE
8
BLACK
6
CONTINUOUS
10
5.99249
20
-5.46708
11
6.00374
21
-5.46708
0
LINE
8
BLACK
6
CONTINUOUS
10
6.00374
20
-5.46708
11
6.01124
21
-5.47083
0
LINE
8
BLACK
6
CONTINUOUS
10
6.01124
20
-5.47083
11
6.01499
21
-5.47458
0
LINE
8
BLACK
6
CONTINUOUS
10
6.01499
20
-5.47458
11
6.01874
21
-5.48208
0
LINE
8
BLACK
6
CONTINUOUS
10
6.01874
20
-5.48208
11
6.01874
21
-5.50458
0
LINE
8
BLACK
6
CONTINUOUS
10
6.01874
20
-5.50458
11
6.01499
21
-5.51208
0
LINE
8
BLACK
6
CONTINUOUS
10
6.01499
20
-5.51208
11
6.01124
21
-5.51583
0
LINE
8
BLACK
6
CONTINUOUS
10
6.01124
20
-5.51583
11
6.00374
21
-5.51958
0
LINE
8
BLACK
6
CONTINUOUS
10
6.00374
20
-5.51958
11
5.99249
21
-5.51958
0
LINE
8
BLACK
6
CONTINUOUS
10
6.06373
20
-5.51958
11
6.05623
21
-5.51583
0
LINE
8
BLACK
6
CONTINUOUS
10
6.05623
20
-5.51583
11
6.05248
21
-5.50833
0
LINE
8
BLACK
6
CONTINUOUS
10
6.05248
20
-5.50833
11
6.05248
21
-5.44084
0
LINE
8
BLACK
6
CONTINUOUS
10
6.12373
20
-5.51583
11
6.11623
21
-5.51958
0
LINE
8
BLACK
6
CONTINUOUS
10
6.11623
20
-5.51958
11
6.10123
21
-5.51958
0
LINE
8
BLACK
6
CONTINUOUS
10
6.10123
20
-5.51958
11
6.09373
21
-5.51583
0
LINE
8
BLACK
6
CONTINUOUS
10
6.09373
20
-5.51583
11
6.08998
21
-5.50833
0
LINE
8
BLACK
6
CONTINUOUS
10
6.08998
20
-5.50833
11
6.08998
21
-5.47833
0
LINE
8
BLACK
6
CONTINUOUS
10
6.08998
20
-5.47833
11
6.09373
21
-5.47083
0
LINE
8
BLACK
6
CONTINUOUS
10
6.09373
20
-5.47083
11
6.10123
21
-5.46708
0
LINE
8
BLACK
6
CONTINUOUS
10
6.10123
20
-5.46708
11
6.11623
21
-5.46708
0
LINE
8
BLACK
6
CONTINUOUS
10
6.11623
20
-5.46708
11
6.12373
21
-5.47083
0
LINE
8
BLACK
6
CONTINUOUS
10
6.12373
20
-5.47083
11
6.12747
21
-5.47833
0
LINE
8
BLACK
6
CONTINUOUS
10
6.12747
20
-5.47833
11
6.12747
21
-5.48583
0
LINE
8
BLACK
6
CONTINUOUS
10
6.12747
20
-5.48583
11
6.08998
21
-5.49333
0
LINE
8
BLACK
6
CONTINUOUS
10
6.15747
20
-5.51583
11
6.16497
21
-5.51958
0
LINE
8
BLACK
6
CONTINUOUS
10
6.16497
20
-5.51958
11
6.17997
21
-5.51958
0
LINE
8
BLACK
6
CONTINUOUS
10
6.17997
20
-5.51958
11
6.18747
21
-5.51583
0
LINE
8
BLACK
6
CONTINUOUS
10
6.18747
20
-5.51583
11
6.19122
21
-5.50833
0
LINE
8
BLACK
6
CONTINUOUS
10
6.19122
20
-5.50833
11
6.19122
21
-5.50458
0
LINE
8
BLACK
6
CONTINUOUS
10
6.19122
20
-5.50458
11
6.18747
21
-5.49708
0
LINE
8
BLACK
6
CONTINUOUS
10
6.18747
20
-5.49708
11
6.17997
21
-5.49333
0
LINE
8
BLACK
6
CONTINUOUS
10
6.17997
20
-5.49333
11
6.16872
21
-5.49333
0
LINE
8
BLACK
6
CONTINUOUS
10
6.16872
20
-5.49333
11
6.16122
21
-5.48958
0
LINE
8
BLACK
6
CONTINUOUS
10
6.16122
20
-5.48958
11
6.15747
21
-5.48208
0
LINE
8
BLACK
6
CONTINUOUS
10
6.15747
20
-5.48208
11
6.15747
21
-5.47833
0
LINE
8
BLACK
6
CONTINUOUS
10
6.15747
20
-5.47833
11
6.16122
21
-5.47083
0
LINE
8
BLACK
6
CONTINUOUS
10
6.16122
20
-5.47083
11
6.16872
21
-5.46708
0
LINE
8
BLACK
6
CONTINUOUS
10
6.16872
20
-5.46708
11
6.17997
21
-5.46708
0
LINE
8
BLACK
6
CONTINUOUS
10
6.17997
20
-5.46708
11
6.18747
21
-5.47083
0
LINE
8
BLACK
6
CONTINUOUS
10
6.21746
20
-5.54957
11
6.22121
21
-5.54582
0
LINE
8
BLACK
6
CONTINUOUS
10
6.22121
20
-5.54582
11
6.22871
21
-5.53458
0
LINE
8
BLACK
6
CONTINUOUS
10
6.22871
20
-5.53458
11
6.23246
21
-5.52708
0
LINE
8
BLACK
6
CONTINUOUS
10
6.23246
20
-5.52708
11
6.23621
21
-5.51583
0
LINE
8
BLACK
6
CONTINUOUS
10
6.23621
20
-5.51583
11
6.23996
21
-5.49708
0
LINE
8
BLACK
6
CONTINUOUS
10
6.23996
20
-5.49708
11
6.23996
21
-5.48208
0
LINE
8
BLACK
6
CONTINUOUS
10
6.23996
20
-5.48208
11
6.23621
21
-5.46333
0
LINE
8
BLACK
6
CONTINUOUS
10
6.23621
20
-5.46333
11
6.23246
21
-5.45209
0
LINE
8
BLACK
6
CONTINUOUS
10
6.23246
20
-5.45209
11
6.22871
21
-5.44459
0
LINE
8
BLACK
6
CONTINUOUS
10
6.22871
20
-5.44459
11
6.22121
21
-5.43334
0
LINE
8
BLACK
6
CONTINUOUS
10
6.22121
20
-5.43334
11
6.21746
21
-5.42959
0
LINE
8
BLACK
6
CONTINUOUS
10
4.28878
20
-5.62451
11
4.3187
21
-5.59459
0
LINE
8
BLACK
6
CONTINUOUS
10
4.3187
20
-5.59459
11
4.28878
21
-5.56467
0
LINE
8
BLACK
6
CONTINUOUS
10
4.28878
20
-5.56467
11
4.25886
21
-5.59459
0
LINE
8
BLACK
6
CONTINUOUS
10
4.25886
20
-5.59459
11
4.28878
21
-5.62451
0
LINE
8
BLACK
6
CONTINUOUS
10
4.45743
20
-5.62351
11
4.41244
21
-5.62351
0
LINE
8
BLACK
6
CONTINUOUS
10
4.43494
20
-5.62351
11
4.43494
21
-5.54477
0
LINE
8
BLACK
6
CONTINUOUS
10
4.43494
20
-5.54477
11
4.42744
21
-5.55602
0
LINE
8
BLACK
6
CONTINUOUS
10
4.42744
20
-5.55602
11
4.41994
21
-5.56352
0
LINE
8
BLACK
6
CONTINUOUS
10
4.41994
20
-5.56352
11
4.41244
21
-5.56727
0
LINE
8
BLACK
6
CONTINUOUS
10
4.49118
20
-5.61602
11
4.49493
21
-5.61976
0
LINE
8
BLACK
6
CONTINUOUS
10
4.49493
20
-5.61976
11
4.49118
21
-5.62351
0
LINE
8
BLACK
6
CONTINUOUS
10
4.49118
20
-5.62351
11
4.48743
21
-5.61976
0
LINE
8
BLACK
6
CONTINUOUS
10
4.48743
20
-5.61976
11
4.49118
21
-5.61602
0
LINE
8
BLACK
6
CONTINUOUS
10
4.49118
20
-5.61602
11
4.49118
21
-5.62351
0
LINE
8
BLACK
6
CONTINUOUS
10
4.56617
20
-5.54477
11
4.52867
21
-5.54477
0
LINE
8
BLACK
6
CONTINUOUS
10
4.52867
20
-5.54477
11
4.52492
21
-5.58227
0
LINE
8
BLACK
6
CONTINUOUS
10
4.52492
20
-5.58227
11
4.52867
21
-5.57852
0
LINE
8
BLACK
6
CONTINUOUS
10
4.52867
20
-5.57852
11
4.53617
21
-5.57477
0
LINE
8
BLACK
6
CONTINUOUS
10
4.53617
20
-5.57477
11
4.55492
21
-5.57477
0
LINE
8
BLACK
6
CONTINUOUS
10
4.55492
20
-5.57477
11
4.56242
21
-5.57852
0
LINE
8
BLACK
6
CONTINUOUS
10
4.56242
20
-5.57852
11
4.56617
21
-5.58227
0
LINE
8
BLACK
6
CONTINUOUS
10
4.56617
20
-5.58227
11
4.56992
21
-5.58977
0
LINE
8
BLACK
6
CONTINUOUS
10
4.56992
20
-5.58977
11
4.56992
21
-5.60852
0
LINE
8
BLACK
6
CONTINUOUS
10
4.56992
20
-5.60852
11
4.56617
21
-5.61602
0
LINE
8
BLACK
6
CONTINUOUS
10
4.56617
20
-5.61602
11
4.56242
21
-5.61976
0
LINE
8
BLACK
6
CONTINUOUS
10
4.56242
20
-5.61976
11
4.55492
21
-5.62351
0
LINE
8
BLACK
6
CONTINUOUS
10
4.55492
20
-5.62351
11
4.53617
21
-5.62351
0
LINE
8
BLACK
6
CONTINUOUS
10
4.53617
20
-5.62351
11
4.52867
21
-5.61976
0
LINE
8
BLACK
6
CONTINUOUS
10
4.52867
20
-5.61976
11
4.52492
21
-5.61602
0
LINE
8
BLACK
6
CONTINUOUS
10
4.59992
20
-5.55227
11
4.60367
21
-5.54852
0
LINE
8
BLACK
6
CONTINUOUS
10
4.60367
20
-5.54852
11
4.61116
21
-5.54477
0
LINE
8
BLACK
6
CONTINUOUS
10
4.61116
20
-5.54477
11
4.62991
21
-5.54477
0
LINE
8
BLACK
6
CONTINUOUS
10
4.62991
20
-5.54477
11
4.63741
21
-5.54852
0
LINE
8
BLACK
6
CONTINUOUS
10
4.63741
20
-5.54852
11
4.64116
21
-5.55227
0
LINE
8
BLACK
6
CONTINUOUS
10
4.64116
20
-5.55227
11
4.64491
21
-5.55977
0
LINE
8
BLACK
6
CONTINUOUS
10
4.64491
20
-5.55977
11
4.64491
21
-5.56727
0
LINE
8
BLACK
6
CONTINUOUS
10
4.64491
20
-5.56727
11
4.64116
21
-5.57852
0
LINE
8
BLACK
6
CONTINUOUS
10
4.64116
20
-5.57852
11
4.59617
21
-5.62351
0
LINE
8
BLACK
6
CONTINUOUS
10
4.59617
20
-5.62351
11
4.64491
21
-5.62351
0
LINE
8
BLACK
6
CONTINUOUS
10
4.69365
20
-5.54477
11
4.70115
21
-5.54477
0
LINE
8
BLACK
6
CONTINUOUS
10
4.70115
20
-5.54477
11
4.70865
21
-5.54852
0
LINE
8
BLACK
6
CONTINUOUS
10
4.70865
20
-5.54852
11
4.7124
21
-5.55227
0
LINE
8
BLACK
6
CONTINUOUS
10
4.7124
20
-5.55227
11
4.71615
21
-5.55977
0
LINE
8
BLACK
6
CONTINUOUS
10
4.71615
20
-5.55977
11
4.7199
21
-5.57477
0
LINE
8
BLACK
6
CONTINUOUS
10
4.7199
20
-5.57477
11
4.7199
21
-5.59352
0
LINE
8
BLACK
6
CONTINUOUS
10
4.7199
20
-5.59352
11
4.71615
21
-5.60852
0
LINE
8
BLACK
6
CONTINUOUS
10
4.71615
20
-5.60852
11
4.7124
21
-5.61602
0
LINE
8
BLACK
6
CONTINUOUS
10
4.7124
20
-5.61602
11
4.70865
21
-5.61976
0
LINE
8
BLACK
6
CONTINUOUS
10
4.70865
20
-5.61976
11
4.70115
21
-5.62351
0
LINE
8
BLACK
6
CONTINUOUS
10
4.70115
20
-5.62351
11
4.69365
21
-5.62351
0
LINE
8
BLACK
6
CONTINUOUS
10
4.69365
20
-5.62351
11
4.68615
21
-5.61976
0
LINE
8
BLACK
6
CONTINUOUS
10
4.68615
20
-5.61976
11
4.68241
21
-5.61602
0
LINE
8
BLACK
6
CONTINUOUS
10
4.68241
20
-5.61602
11
4.67866
21
-5.60852
0
LINE
8
BLACK
6
CONTINUOUS
10
4.67866
20
-5.60852
11
4.67491
21
-5.59352
0
LINE
8
BLACK
6
CONTINUOUS
10
4.67491
20
-5.59352
11
4.67491
21
-5.57477
0
LINE
8
BLACK
6
CONTINUOUS
10
4.67491
20
-5.57477
11
4.67866
21
-5.55977
0
LINE
8
BLACK
6
CONTINUOUS
10
4.67866
20
-5.55977
11
4.68241
21
-5.55227
0
LINE
8
BLACK
6
CONTINUOUS
10
4.68241
20
-5.55227
11
4.68615
21
-5.54852
0
LINE
8
BLACK
6
CONTINUOUS
10
4.68615
20
-5.54852
11
4.69365
21
-5.54477
0
LINE
8
BLACK
6
CONTINUOUS
10
4.75365
20
-5.62351
11
4.75365
21
-5.57102
0
LINE
8
BLACK
6
CONTINUOUS
10
4.75365
20
-5.57852
11
4.7574
21
-5.57477
0
LINE
8
BLACK
6
CONTINUOUS
10
4.7574
20
-5.57477
11
4.7649
21
-5.57102
0
LINE
8
BLACK
6
CONTINUOUS
10
4.7649
20
-5.57102
11
4.77614
21
-5.57102
0
LINE
8
BLACK
6
CONTINUOUS
10
4.77614
20
-5.57102
11
4.78364
21
-5.57477
0
LINE
8
BLACK
6
CONTINUOUS
10
4.78364
20
-5.57477
11
4.78739
21
-5.58227
0
LINE
8
BLACK
6
CONTINUOUS
10
4.78739
20
-5.58227
11
4.78739
21
-5.62351
0
LINE
8
BLACK
6
CONTINUOUS
10
4.78739
20
-5.58227
11
4.79114
21
-5.57477
0
LINE
8
BLACK
6
CONTINUOUS
10
4.79114
20
-5.57477
11
4.79864
21
-5.57102
0
LINE
8
BLACK
6
CONTINUOUS
10
4.79864
20
-5.57102
11
4.80989
21
-5.57102
0
LINE
8
BLACK
6
CONTINUOUS
10
4.80989
20
-5.57102
11
4.81739
21
-5.57477
0
LINE
8
BLACK
6
CONTINUOUS
10
4.81739
20
-5.57477
11
4.82114
21
-5.58227
0
LINE
8
BLACK
6
CONTINUOUS
10
4.82114
20
-5.58227
11
4.82114
21
-5.62351
0
LINE
8
BLACK
6
CONTINUOUS
10
4.85863
20
-5.62351
11
4.85863
21
-5.57102
0
LINE
8
BLACK
6
CONTINUOUS
10
4.85863
20
-5.57852
11
4.86238
21
-5.57477
0
LINE
8
BLACK
6
CONTINUOUS
10
4.86238
20
-5.57477
11
4.86988
21
-5.57102
0
LINE
8
BLACK
6
CONTINUOUS
10
4.86988
20
-5.57102
11
4.88113
21
-5.57102
0
LINE
8
BLACK
6
CONTINUOUS
10
4.88113
20
-5.57102
11
4.88863
21
-5.57477
0
LINE
8
BLACK
6
CONTINUOUS
10
4.88863
20
-5.57477
11
4.89238
21
-5.58227
0
LINE
8
BLACK
6
CONTINUOUS
10
4.89238
20
-5.58227
11
4.89238
21
-5.62351
0
LINE
8
BLACK
6
CONTINUOUS
10
4.89238
20
-5.58227
11
4.89613
21
-5.57477
0
LINE
8
BLACK
6
CONTINUOUS
10
4.89613
20
-5.57477
11
4.90363
21
-5.57102
0
LINE
8
BLACK
6
CONTINUOUS
10
4.90363
20
-5.57102
11
4.91488
21
-5.57102
0
LINE
8
BLACK
6
CONTINUOUS
10
4.91488
20
-5.57102
11
4.92238
21
-5.57477
0
LINE
8
BLACK
6
CONTINUOUS
10
4.92238
20
-5.57477
11
4.92612
21
-5.58227
0
LINE
8
BLACK
6
CONTINUOUS
10
4.92612
20
-5.58227
11
4.92612
21
-5.62351
0
LINE
8
BLACK
6
CONTINUOUS
10
5.06711
20
-5.54102
11
4.99962
21
-5.64226
0
LINE
8
BLACK
6
CONTINUOUS
10
5.1556
20
-5.54477
11
5.1631
21
-5.54477
0
LINE
8
BLACK
6
CONTINUOUS
10
5.1631
20
-5.54477
11
5.17059
21
-5.54852
0
LINE
8
BLACK
6
CONTINUOUS
10
5.17059
20
-5.54852
11
5.17434
21
-5.55227
0
LINE
8
BLACK
6
CONTINUOUS
10
5.17434
20
-5.55227
11
5.17809
21
-5.55977
0
LINE
8
BLACK
6
CONTINUOUS
10
5.17809
20
-5.55977
11
5.18184
21
-5.57477
0
LINE
8
BLACK
6
CONTINUOUS
10
5.18184
20
-5.57477
11
5.18184
21
-5.59352
0
LINE
8
BLACK
6
CONTINUOUS
10
5.18184
20
-5.59352
11
5.17809
21
-5.60852
0
LINE
8
BLACK
6
CONTINUOUS
10
5.17809
20
-5.60852
11
5.17434
21
-5.61602
0
LINE
8
BLACK
6
CONTINUOUS
10
5.17434
20
-5.61602
11
5.17059
21
-5.61976
0
LINE
8
BLACK
6
CONTINUOUS
10
5.17059
20
-5.61976
11
5.1631
21
-5.62351
0
LINE
8
BLACK
6
CONTINUOUS
10
5.1631
20
-5.62351
11
5.1556
21
-5.62351
0
LINE
8
BLACK
6
CONTINUOUS
10
5.1556
20
-5.62351
11
5.1481
21
-5.61976
0
LINE
8
BLACK
6
CONTINUOUS
10
5.1481
20
-5.61976
11
5.14435
21
-5.61602
0
LINE
8
BLACK
6
CONTINUOUS
10
5.14435
20
-5.61602
11
5.1406
21
-5.60852
0
LINE
8
BLACK
6
CONTINUOUS
10
5.1406
20
-5.60852
11
5.13685
21
-5.59352
0
LINE
8
BLACK
6
CONTINUOUS
10
5.13685
20
-5.59352
11
5.13685
21
-5.57477
0
LINE
8
BLACK
6
CONTINUOUS
10
5.13685
20
-5.57477
11
5.1406
21
-5.55977
0
LINE
8
BLACK
6
CONTINUOUS
10
5.1406
20
-5.55977
11
5.14435
21
-5.55227
0
LINE
8
BLACK
6
CONTINUOUS
10
5.14435
20
-5.55227
11
5.1481
21
-5.54852
0
LINE
8
BLACK
6
CONTINUOUS
10
5.1481
20
-5.54852
11
5.1556
21
-5.54477
0
LINE
8
BLACK
6
CONTINUOUS
10
5.21559
20
-5.61602
11
5.21934
21
-5.61976
0
LINE
8
BLACK
6
CONTINUOUS
10
5.21934
20
-5.61976
11
5.21559
21
-5.62351
0
LINE
8
BLACK
6
CONTINUOUS
10
5.21559
20
-5.62351
11
5.21184
21
-5.61976
0
LINE
8
BLACK
6
CONTINUOUS
10
5.21184
20
-5.61976
11
5.21559
21
-5.61602
0
LINE
8
BLACK
6
CONTINUOUS
10
5.21559
20
-5.61602
11
5.21559
21
-5.62351
0
LINE
8
BLACK
6
CONTINUOUS
10
5.26808
20
-5.54477
11
5.27558
21
-5.54477
0
LINE
8
BLACK
6
CONTINUOUS
10
5.27558
20
-5.54477
11
5.28308
21
-5.54852
0
LINE
8
BLACK
6
CONTINUOUS
10
5.28308
20
-5.54852
11
5.28683
21
-5.55227
0
LINE
8
BLACK
6
CONTINUOUS
10
5.28683
20
-5.55227
11
5.29058
21
-5.55977
0
LINE
8
BLACK
6
CONTINUOUS
10
5.29058
20
-5.55977
11
5.29433
21
-5.57477
0
LINE
8
BLACK
6
CONTINUOUS
10
5.29433
20
-5.57477
11
5.29433
21
-5.59352
0
LINE
8
BLACK
6
CONTINUOUS
10
5.29433
20
-5.59352
11
5.29058
21
-5.60852
0
LINE
8
BLACK
6
CONTINUOUS
10
5.29058
20
-5.60852
11
5.28683
21
-5.61602
0
LINE
8
BLACK
6
CONTINUOUS
10
5.28683
20
-5.61602
11
5.28308
21
-5.61976
0
LINE
8
BLACK
6
CONTINUOUS
10
5.28308
20
-5.61976
11
5.27558
21
-5.62351
0
LINE
8
BLACK
6
CONTINUOUS
10
5.27558
20
-5.62351
11
5.26808
21
-5.62351
0
LINE
8
BLACK
6
CONTINUOUS
10
5.26808
20
-5.62351
11
5.26058
21
-5.61976
0
LINE
8
BLACK
6
CONTINUOUS
10
5.26058
20
-5.61976
11
5.25683
21
-5.61602
0
LINE
8
BLACK
6
CONTINUOUS
10
5.25683
20
-5.61602
11
5.25308
21
-5.60852
0
LINE
8
BLACK
6
CONTINUOUS
10
5.25308
20
-5.60852
11
5.24933
21
-5.59352
0
LINE
8
BLACK
6
CONTINUOUS
10
5.24933
20
-5.59352
11
5.24933
21
-5.57477
0
LINE
8
BLACK
6
CONTINUOUS
10
5.24933
20
-5.57477
11
5.25308
21
-5.55977
0
LINE
8
BLACK
6
CONTINUOUS
10
5.25308
20
-5.55977
11
5.25683
21
-5.55227
0
LINE
8
BLACK
6
CONTINUOUS
10
5.25683
20
-5.55227
11
5.26058
21
-5.54852
0
LINE
8
BLACK
6
CONTINUOUS
10
5.26058
20
-5.54852
11
5.26808
21
-5.54477
0
LINE
8
BLACK
6
CONTINUOUS
10
5.36557
20
-5.54477
11
5.32807
21
-5.54477
0
LINE
8
BLACK
6
CONTINUOUS
10
5.32807
20
-5.54477
11
5.32433
21
-5.58227
0
LINE
8
BLACK
6
CONTINUOUS
10
5.32433
20
-5.58227
11
5.32807
21
-5.57852
0
LINE
8
BLACK
6
CONTINUOUS
10
5.32807
20
-5.57852
11
5.33557
21
-5.57477
0
LINE
8
BLACK
6
CONTINUOUS
10
5.33557
20
-5.57477
11
5.35432
21
-5.57477
0
LINE
8
BLACK
6
CONTINUOUS
10
5.35432
20
-5.57477
11
5.36182
21
-5.57852
0
LINE
8
BLACK
6
CONTINUOUS
10
5.36182
20
-5.57852
11
5.36557
21
-5.58227
0
LINE
8
BLACK
6
CONTINUOUS
10
5.36557
20
-5.58227
11
5.36932
21
-5.58977
0
LINE
8
BLACK
6
CONTINUOUS
10
5.36932
20
-5.58977
11
5.36932
21
-5.60852
0
LINE
8
BLACK
6
CONTINUOUS
10
5.36932
20
-5.60852
11
5.36557
21
-5.61602
0
LINE
8
BLACK
6
CONTINUOUS
10
5.36557
20
-5.61602
11
5.36182
21
-5.61976
0
LINE
8
BLACK
6
CONTINUOUS
10
5.36182
20
-5.61976
11
5.35432
21
-5.62351
0
LINE
8
BLACK
6
CONTINUOUS
10
5.35432
20
-5.62351
11
5.33557
21
-5.62351
0
LINE
8
BLACK
6
CONTINUOUS
10
5.33557
20
-5.62351
11
5.32807
21
-5.61976
0
LINE
8
BLACK
6
CONTINUOUS
10
5.32807
20
-5.61976
11
5.32433
21
-5.61602
0
LINE
8
BLACK
6
CONTINUOUS
10
5.40681
20
-5.62351
11
5.42181
21
-5.62351
0
LINE
8
BLACK
6
CONTINUOUS
10
5.42181
20
-5.62351
11
5.42931
21
-5.61976
0
LINE
8
BLACK
6
CONTINUOUS
10
5.42931
20
-5.61976
11
5.43306
21
-5.61602
0
LINE
8
BLACK
6
CONTINUOUS
10
5.43306
20
-5.61602
11
5.44056
21
-5.60477
0
LINE
8
BLACK
6
CONTINUOUS
10
5.44056
20
-5.60477
11
5.44431
21
-5.58977
0
LINE
8
BLACK
6
CONTINUOUS
10
5.44431
20
-5.58977
11
5.44431
21
-5.55977
0
LINE
8
BLACK
6
CONTINUOUS
10
5.44431
20
-5.55977
11
5.44056
21
-5.55227
0
LINE
8
BLACK
6
CONTINUOUS
10
5.44056
20
-5.55227
11
5.43681
21
-5.54852
0
LINE
8
BLACK
6
CONTINUOUS
10
5.43681
20
-5.54852
11
5.42931
21
-5.54477
0
LINE
8
BLACK
6
CONTINUOUS
10
5.42931
20
-5.54477
11
5.41431
21
-5.54477
0
LINE
8
BLACK
6
CONTINUOUS
10
5.41431
20
-5.54477
11
5.40681
21
-5.54852
0
LINE
8
BLACK
6
CONTINUOUS
10
5.40681
20
-5.54852
11
5.40307
21
-5.55227
0
LINE
8
BLACK
6
CONTINUOUS
10
5.40307
20
-5.55227
11
5.39932
21
-5.55977
0
LINE
8
BLACK
6
CONTINUOUS
10
5.39932
20
-5.55977
11
5.39932
21
-5.57852
0
LINE
8
BLACK
6
CONTINUOUS
10
5.39932
20
-5.57852
11
5.40307
21
-5.58602
0
LINE
8
BLACK
6
CONTINUOUS
10
5.40307
20
-5.58602
11
5.40681
21
-5.58977
0
LINE
8
BLACK
6
CONTINUOUS
10
5.40681
20
-5.58977
11
5.41431
21
-5.59352
0
LINE
8
BLACK
6
CONTINUOUS
10
5.41431
20
-5.59352
11
5.42931
21
-5.59352
0
LINE
8
BLACK
6
CONTINUOUS
10
5.42931
20
-5.59352
11
5.43681
21
-5.58977
0
LINE
8
BLACK
6
CONTINUOUS
10
5.43681
20
-5.58977
11
5.44056
21
-5.58602
0
LINE
8
BLACK
6
CONTINUOUS
10
5.44056
20
-5.58602
11
5.44431
21
-5.57852
0
LINE
8
BLACK
6
CONTINUOUS
10
5.4893
20
-5.57852
11
5.48181
21
-5.57477
0
LINE
8
BLACK
6
CONTINUOUS
10
5.48181
20
-5.57477
11
5.47806
21
-5.57102
0
LINE
8
BLACK
6
CONTINUOUS
10
5.47806
20
-5.57102
11
5.47431
21
-5.56352
0
LINE
8
BLACK
6
CONTINUOUS
10
5.47431
20
-5.56352
11
5.47431
21
-5.55977
0
LINE
8
BLACK
6
CONTINUOUS
10
5.47431
20
-5.55977
11
5.47806
21
-5.55227
0
LINE
8
BLACK
6
CONTINUOUS
10
5.47806
20
-5.55227
11
5.48181
21
-5.54852
0
LINE
8
BLACK
6
CONTINUOUS
10
5.48181
20
-5.54852
11
5.4893
21
-5.54477
0
LINE
8
BLACK
6
CONTINUOUS
10
5.4893
20
-5.54477
11
5.5043
21
-5.54477
0
LINE
8
BLACK
6
CONTINUOUS
10
5.5043
20
-5.54477
11
5.5118
21
-5.54852
0
LINE
8
BLACK
6
CONTINUOUS
10
5.5118
20
-5.54852
11
5.51555
21
-5.55227
0
LINE
8
BLACK
6
CONTINUOUS
10
5.51555
20
-5.55227
11
5.5193
21
-5.55977
0
LINE
8
BLACK
6
CONTINUOUS
10
5.5193
20
-5.55977
11
5.5193
21
-5.56352
0
LINE
8
BLACK
6
CONTINUOUS
10
5.5193
20
-5.56352
11
5.51555
21
-5.57102
0
LINE
8
BLACK
6
CONTINUOUS
10
5.51555
20
-5.57102
11
5.5118
21
-5.57477
0
LINE
8
BLACK
6
CONTINUOUS
10
5.5118
20
-5.57477
11
5.5043
21
-5.57852
0
LINE
8
BLACK
6
CONTINUOUS
10
5.5043
20
-5.57852
11
5.4893
21
-5.57852
0
LINE
8
BLACK
6
CONTINUOUS
10
5.4893
20
-5.57852
11
5.48181
21
-5.58227
0
LINE
8
BLACK
6
CONTINUOUS
10
5.48181
20
-5.58227
11
5.47806
21
-5.58602
0
LINE
8
BLACK
6
CONTINUOUS
10
5.47806
20
-5.58602
11
5.47431
21
-5.59352
0
LINE
8
BLACK
6
CONTINUOUS
10
5.47431
20
-5.59352
11
5.47431
21
-5.60852
0
LINE
8
BLACK
6
CONTINUOUS
10
5.47431
20
-5.60852
11
5.47806
21
-5.61602
0
LINE
8
BLACK
6
CONTINUOUS
10
5.47806
20
-5.61602
11
5.48181
21
-5.61976
0
LINE
8
BLACK
6
CONTINUOUS
10
5.48181
20
-5.61976
11
5.4893
21
-5.62351
0
LINE
8
BLACK
6
CONTINUOUS
10
5.4893
20
-5.62351
11
5.5043
21
-5.62351
0
LINE
8
BLACK
6
CONTINUOUS
10
5.5043
20
-5.62351
11
5.5118
21
-5.61976
0
LINE
8
BLACK
6
CONTINUOUS
10
5.5118
20
-5.61976
11
5.51555
21
-5.61602
0
LINE
8
BLACK
6
CONTINUOUS
10
5.51555
20
-5.61602
11
5.5193
21
-5.60852
0
LINE
8
BLACK
6
CONTINUOUS
10
5.5193
20
-5.60852
11
5.5193
21
-5.59352
0
LINE
8
BLACK
6
CONTINUOUS
10
5.5193
20
-5.59352
11
5.51555
21
-5.58602
0
LINE
8
BLACK
6
CONTINUOUS
10
5.51555
20
-5.58602
11
5.5118
21
-5.58227
0
LINE
8
BLACK
6
CONTINUOUS
10
5.5118
20
-5.58227
11
5.5043
21
-5.57852
0
LINE
8
BLACK
6
CONTINUOUS
10
5.5493
20
-5.54477
11
5.5493
21
-5.55977
0
LINE
8
BLACK
6
CONTINUOUS
10
5.57929
20
-5.54477
11
5.57929
21
-5.55977
0
LINE
8
BLACK
6
CONTINUOUS
10
5.68278
20
-5.65351
11
5.67903
21
-5.64976
0
LINE
8
BLACK
6
CONTINUOUS
10
5.67903
20
-5.64976
11
5.67153
21
-5.63851
0
LINE
8
BLACK
6
CONTINUOUS
10
5.67153
20
-5.63851
11
5.66778
21
-5.63101
0
LINE
8
BLACK
6
CONTINUOUS
10
5.66778
20
-5.63101
11
5.66403
21
-5.61976
0
LINE
8
BLACK
6
CONTINUOUS
10
5.66403
20
-5.61976
11
5.66028
21
-5.60102
0
LINE
8
BLACK
6
CONTINUOUS
10
5.66028
20
-5.60102
11
5.66028
21
-5.58602
0
LINE
8
BLACK
6
CONTINUOUS
10
5.66028
20
-5.58602
11
5.66403
21
-5.56727
0
LINE
8
BLACK
6
CONTINUOUS
10
5.66403
20
-5.56727
11
5.66778
21
-5.55602
0
LINE
8
BLACK
6
CONTINUOUS
10
5.66778
20
-5.55602
11
5.67153
21
-5.54852
0
LINE
8
BLACK
6
CONTINUOUS
10
5.67153
20
-5.54852
11
5.67903
21
-5.53728
0
LINE
8
BLACK
6
CONTINUOUS
10
5.67903
20
-5.53728
11
5.68278
21
-5.53353
0
LINE
8
BLACK
6
CONTINUOUS
10
5.74652
20
-5.54477
11
5.73152
21
-5.54477
0
LINE
8
BLACK
6
CONTINUOUS
10
5.73152
20
-5.54477
11
5.72403
21
-5.54852
0
LINE
8
BLACK
6
CONTINUOUS
10
5.72403
20
-5.54852
11
5.72028
21
-5.55227
0
LINE
8
BLACK
6
CONTINUOUS
10
5.72028
20
-5.55227
11
5.71278
21
-5.56352
0
LINE
8
BLACK
6
CONTINUOUS
10
5.71278
20
-5.56352
11
5.70903
21
-5.57852
0
LINE
8
BLACK
6
CONTINUOUS
10
5.70903
20
-5.57852
11
5.70903
21
-5.60852
0
LINE
8
BLACK
6
CONTINUOUS
10
5.70903
20
-5.60852
11
5.71278
21
-5.61602
0
LINE
8
BLACK
6
CONTINUOUS
10
5.71278
20
-5.61602
11
5.71653
21
-5.61976
0
LINE
8
BLACK
6
CONTINUOUS
10
5.71653
20
-5.61976
11
5.72403
21
-5.62351
0
LINE
8
BLACK
6
CONTINUOUS
10
5.72403
20
-5.62351
11
5.73902
21
-5.62351
0
LINE
8
BLACK
6
CONTINUOUS
10
5.73902
20
-5.62351
11
5.74652
21
-5.61976
0
LINE
8
BLACK
6
CONTINUOUS
10
5.74652
20
-5.61976
11
5.75027
21
-5.61602
0
LINE
8
BLACK
6
CONTINUOUS
10
5.75027
20
-5.61602
11
5.75402
21
-5.60852
0
LINE
8
BLACK
6
CONTINUOUS
10
5.75402
20
-5.60852
11
5.75402
21
-5.58977
0
LINE
8
BLACK
6
CONTINUOUS
10
5.75402
20
-5.58977
11
5.75027
21
-5.58227
0
LINE
8
BLACK
6
CONTINUOUS
10
5.75027
20
-5.58227
11
5.74652
21
-5.57852
0
LINE
8
BLACK
6
CONTINUOUS
10
5.74652
20
-5.57852
11
5.73902
21
-5.57477
0
LINE
8
BLACK
6
CONTINUOUS
10
5.73902
20
-5.57477
11
5.72403
21
-5.57477
0
LINE
8
BLACK
6
CONTINUOUS
10
5.72403
20
-5.57477
11
5.71653
21
-5.57852
0
LINE
8
BLACK
6
CONTINUOUS
10
5.71653
20
-5.57852
11
5.71278
21
-5.58227
0
LINE
8
BLACK
6
CONTINUOUS
10
5.71278
20
-5.58227
11
5.70903
21
-5.58977
0
LINE
8
BLACK
6
CONTINUOUS
10
5.83501
20
-5.62351
11
5.83501
21
-5.54477
0
LINE
8
BLACK
6
CONTINUOUS
10
5.86876
20
-5.62351
11
5.86876
21
-5.58227
0
LINE
8
BLACK
6
CONTINUOUS
10
5.86876
20
-5.58227
11
5.86501
21
-5.57477
0
LINE
8
BLACK
6
CONTINUOUS
10
5.86501
20
-5.57477
11
5.85751
21
-5.57102
0
LINE
8
BLACK
6
CONTINUOUS
10
5.85751
20
-5.57102
11
5.84626
21
-5.57102
0
LINE
8
BLACK
6
CONTINUOUS
10
5.84626
20
-5.57102
11
5.83876
21
-5.57477
0
LINE
8
BLACK
6
CONTINUOUS
10
5.83876
20
-5.57477
11
5.83501
21
-5.57852
0
LINE
8
BLACK
6
CONTINUOUS
10
5.9175
20
-5.62351
11
5.91
21
-5.61976
0
LINE
8
BLACK
6
CONTINUOUS
10
5.91
20
-5.61976
11
5.90625
21
-5.61602
0
LINE
8
BLACK
6
CONTINUOUS
10
5.90625
20
-5.61602
11
5.9025
21
-5.60852
0
LINE
8
BLACK
6
CONTINUOUS
10
5.9025
20
-5.60852
11
5.9025
21
-5.58602
0
LINE
8
BLACK
6
CONTINUOUS
10
5.9025
20
-5.58602
11
5.90625
21
-5.57852
0
LINE
8
BLACK
6
CONTINUOUS
10
5.90625
20
-5.57852
11
5.91
21
-5.57477
0
LINE
8
BLACK
6
CONTINUOUS
10
5.91
20
-5.57477
11
5.9175
21
-5.57102
0
LINE
8
BLACK
6
CONTINUOUS
10
5.9175
20
-5.57102
11
5.92875
21
-5.57102
0
LINE
8
BLACK
6
CONTINUOUS
10
5.92875
20
-5.57102
11
5.93625
21
-5.57477
0
LINE
8
BLACK
6
CONTINUOUS
10
5.93625
20
-5.57477
11
5.94
21
-5.57852
0
LINE
8
BLACK
6
CONTINUOUS
10
5.94
20
-5.57852
11
5.94375
21
-5.58602
0
LINE
8
BLACK
6
CONTINUOUS
10
5.94375
20
-5.58602
11
5.94375
21
-5.60852
0
LINE
8
BLACK
6
CONTINUOUS
10
5.94375
20
-5.60852
11
5.94
21
-5.61602
0
LINE
8
BLACK
6
CONTINUOUS
10
5.94
20
-5.61602
11
5.93625
21
-5.61976
0
LINE
8
BLACK
6
CONTINUOUS
10
5.93625
20
-5.61976
11
5.92875
21
-5.62351
0
LINE
8
BLACK
6
CONTINUOUS
10
5.92875
20
-5.62351
11
5.9175
21
-5.62351
0
LINE
8
BLACK
6
CONTINUOUS
10
5.98874
20
-5.62351
11
5.98124
21
-5.61976
0
LINE
8
BLACK
6
CONTINUOUS
10
5.98124
20
-5.61976
11
5.97749
21
-5.61227
0
LINE
8
BLACK
6
CONTINUOUS
10
5.97749
20
-5.61227
11
5.97749
21
-5.54477
0
LINE
8
BLACK
6
CONTINUOUS
10
6.04873
20
-5.61976
11
6.04124
21
-5.62351
0
LINE
8
BLACK
6
CONTINUOUS
10
6.04124
20
-5.62351
11
6.02624
21
-5.62351
0
LINE
8
BLACK
6
CONTINUOUS
10
6.02624
20
-5.62351
11
6.01874
21
-5.61976
0
LINE
8
BLACK
6
CONTINUOUS
10
6.01874
20
-5.61976
11
6.01499
21
-5.61227
0
LINE
8
BLACK
6
CONTINUOUS
10
6.01499
20
-5.61227
11
6.01499
21
-5.58227
0
LINE
8
BLACK
6
CONTINUOUS
10
6.01499
20
-5.58227
11
6.01874
21
-5.57477
0
LINE
8
BLACK
6
CONTINUOUS
10
6.01874
20
-5.57477
11
6.02624
21
-5.57102
0
LINE
8
BLACK
6
CONTINUOUS
10
6.02624
20
-5.57102
11
6.04124
21
-5.57102
0
LINE
8
BLACK
6
CONTINUOUS
10
6.04124
20
-5.57102
11
6.04873
21
-5.57477
0
LINE
8
BLACK
6
CONTINUOUS
10
6.04873
20
-5.57477
11
6.05248
21
-5.58227
0
LINE
8
BLACK
6
CONTINUOUS
10
6.05248
20
-5.58227
11
6.05248
21
-5.58977
0
LINE
8
BLACK
6
CONTINUOUS
10
6.05248
20
-5.58977
11
6.01499
21
-5.59727
0
LINE
8
BLACK
6
CONTINUOUS
10
6.08248
20
-5.61976
11
6.08998
21
-5.62351
0
LINE
8
BLACK
6
CONTINUOUS
10
6.08998
20
-5.62351
11
6.10498
21
-5.62351
0
LINE
8
BLACK
6
CONTINUOUS
10
6.10498
20
-5.62351
11
6.11248
21
-5.61976
0
LINE
8
BLACK
6
CONTINUOUS
10
6.11248
20
-5.61976
11
6.11623
21
-5.61227
0
LINE
8
BLACK
6
CONTINUOUS
10
6.11623
20
-5.61227
11
6.11623
21
-5.60852
0
LINE
8
BLACK
6
CONTINUOUS
10
6.11623
20
-5.60852
11
6.11248
21
-5.60102
0
LINE
8
BLACK
6
CONTINUOUS
10
6.11248
20
-5.60102
11
6.10498
21
-5.59727
0
LINE
8
BLACK
6
CONTINUOUS
10
6.10498
20
-5.59727
11
6.09373
21
-5.59727
0
LINE
8
BLACK
6
CONTINUOUS
10
6.09373
20
-5.59727
11
6.08623
21
-5.59352
0
LINE
8
BLACK
6
CONTINUOUS
10
6.08623
20
-5.59352
11
6.08248
21
-5.58602
0
LINE
8
BLACK
6
CONTINUOUS
10
6.08248
20
-5.58602
11
6.08248
21
-5.58227
0
LINE
8
BLACK
6
CONTINUOUS
10
6.08248
20
-5.58227
11
6.08623
21
-5.57477
0
LINE
8
BLACK
6
CONTINUOUS
10
6.08623
20
-5.57477
11
6.09373
21
-5.57102
0
LINE
8
BLACK
6
CONTINUOUS
10
6.09373
20
-5.57102
11
6.10498
21
-5.57102
0
LINE
8
BLACK
6
CONTINUOUS
10
6.10498
20
-5.57102
11
6.11248
21
-5.57477
0
LINE
8
BLACK
6
CONTINUOUS
10
6.14247
20
-5.65351
11
6.14622
21
-5.64976
0
LINE
8
BLACK
6
CONTINUOUS
10
6.14622
20
-5.64976
11
6.15372
21
-5.63851
0
LINE
8
BLACK
6
CONTINUOUS
10
6.15372
20
-5.63851
11
6.15747
21
-5.63101
0
LINE
8
BLACK
6
CONTINUOUS
10
6.15747
20
-5.63101
11
6.16122
21
-5.61976
0
LINE
8
BLACK
6
CONTINUOUS
10
6.16122
20
-5.61976
11
6.16497
21
-5.60102
0
LINE
8
BLACK
6
CONTINUOUS
10
6.16497
20
-5.60102
11
6.16497
21
-5.58602
0
LINE
8
BLACK
6
CONTINUOUS
10
6.16497
20
-5.58602
11
6.16122
21
-5.56727
0
LINE
8
BLACK
6
CONTINUOUS
10
6.16122
20
-5.56727
11
6.15747
21
-5.55602
0
LINE
8
BLACK
6
CONTINUOUS
10
6.15747
20
-5.55602
11
6.15372
21
-5.54852
0
LINE
8
BLACK
6
CONTINUOUS
10
6.15372
20
-5.54852
11
6.14622
21
-5.53728
0
LINE
8
BLACK
6
CONTINUOUS
10
6.14622
20
-5.53728
11
6.14247
21
-5.53353
0
LINE
8
BLACK
6
CONTINUOUS
10
4.23996
20
-5.6623
11
4.3187
21
-5.74104
0
LINE
8
BLACK
6
CONTINUOUS
10
4.3187
20
-5.6623
11
4.23996
21
-5.74104
0
CIRCLE
8
BLACK
10
4.27933
20
-5.70167
40
0.0393701
0
LINE
8
BLACK
6
CONTINUOUS
10
4.40869
20
-5.65186
11
4.45743
21
-5.65186
0
LINE
8
BLACK
6
CONTINUOUS
10
4.45743
20
-5.65186
11
4.43119
21
-5.68186
0
LINE
8
BLACK
6
CONTINUOUS
10
4.43119
20
-5.68186
11
4.44244
21
-5.68186
0
LINE
8
BLACK
6
CONTINUOUS
10
4.44244
20
-5.68186
11
4.44993
21
-5.68561
0
LINE
8
BLACK
6
CONTINUOUS
10
4.44993
20
-5.68561
11
4.45368
21
-5.68936
0
LINE
8
BLACK
6
CONTINUOUS
10
4.45368
20
-5.68936
11
4.45743
21
-5.69686
0
LINE
8
BLACK
6
CONTINUOUS
10
4.45743
20
-5.69686
11
4.45743
21
-5.7156
0
LINE
8
BLACK
6
CONTINUOUS
10
4.45743
20
-5.7156
11
4.45368
21
-5.7231
0
LINE
8
BLACK
6
CONTINUOUS
10
4.45368
20
-5.7231
11
4.44993
21
-5.72685
0
LINE
8
BLACK
6
CONTINUOUS
10
4.44993
20
-5.72685
11
4.44244
21
-5.7306
0
LINE
8
BLACK
6
CONTINUOUS
10
4.44244
20
-5.7306
11
4.41994
21
-5.7306
0
LINE
8
BLACK
6
CONTINUOUS
10
4.41994
20
-5.7306
11
4.41244
21
-5.72685
0
LINE
8
BLACK
6
CONTINUOUS
10
4.41244
20
-5.72685
11
4.40869
21
-5.7231
0
LINE
8
BLACK
6
CONTINUOUS
10
4.49118
20
-5.7231
11
4.49493
21
-5.72685
0
LINE
8
BLACK
6
CONTINUOUS
10
4.49493
20
-5.72685
11
4.49118
21
-5.7306
0
LINE
8
BLACK
6
CONTINUOUS
10
4.49118
20
-5.7306
11
4.48743
21
-5.72685
0
LINE
8
BLACK
6
CONTINUOUS
10
4.48743
20
-5.72685
11
4.49118
21
-5.7231
0
LINE
8
BLACK
6
CONTINUOUS
10
4.49118
20
-5.7231
11
4.49118
21
-5.7306
0
LINE
8
BLACK
6
CONTINUOUS
10
4.52492
20
-5.65936
11
4.52867
21
-5.65561
0
LINE
8
BLACK
6
CONTINUOUS
10
4.52867
20
-5.65561
11
4.53617
21
-5.65186
0
LINE
8
BLACK
6
CONTINUOUS
10
4.53617
20
-5.65186
11
4.55492
21
-5.65186
0
LINE
8
BLACK
6
CONTINUOUS
10
4.55492
20
-5.65186
11
4.56242
21
-5.65561
0
LINE
8
BLACK
6
CONTINUOUS
10
4.56242
20
-5.65561
11
4.56617
21
-5.65936
0
LINE
8
BLACK
6
CONTINUOUS
10
4.56617
20
-5.65936
11
4.56992
21
-5.66686
0
LINE
8
BLACK
6
CONTINUOUS
10
4.56992
20
-5.66686
11
4.56992
21
-5.67436
0
LINE
8
BLACK
6
CONTINUOUS
10
4.56992
20
-5.67436
11
4.56617
21
-5.68561
0
LINE
8
BLACK
6
CONTINUOUS
10
4.56617
20
-5.68561
11
4.52118
21
-5.7306
0
LINE
8
BLACK
6
CONTINUOUS
10
4.52118
20
-5.7306
11
4.56992
21
-5.7306
0
LINE
8
BLACK
6
CONTINUOUS
10
4.61866
20
-5.65186
11
4.62616
21
-5.65186
0
LINE
8
BLACK
6
CONTINUOUS
10
4.62616
20
-5.65186
11
4.63366
21
-5.65561
0
LINE
8
BLACK
6
CONTINUOUS
10
4.63366
20
-5.65561
11
4.63741
21
-5.65936
0
LINE
8
BLACK
6
CONTINUOUS
10
4.63741
20
-5.65936
11
4.64116
21
-5.66686
0
LINE
8
BLACK
6
CONTINUOUS
10
4.64116
20
-5.66686
11
4.64491
21
-5.68186
0
LINE
8
BLACK
6
CONTINUOUS
10
4.64491
20
-5.68186
11
4.64491
21
-5.7006
0
LINE
8
BLACK
6
CONTINUOUS
10
4.64491
20
-5.7006
11
4.64116
21
-5.7156
0
LINE
8
BLACK
6
CONTINUOUS
10
4.64116
20
-5.7156
11
4.63741
21
-5.7231
0
LINE
8
BLACK
6
CONTINUOUS
10
4.63741
20
-5.7231
11
4.63366
21
-5.72685
0
LINE
8
BLACK
6
CONTINUOUS
10
4.63366
20
-5.72685
11
4.62616
21
-5.7306
0
LINE
8
BLACK
6
CONTINUOUS
10
4.62616
20
-5.7306
11
4.61866
21
-5.7306
0
LINE
8
BLACK
6
CONTINUOUS
10
4.61866
20
-5.7306
11
4.61116
21
-5.72685
0
LINE
8
BLACK
6
CONTINUOUS
10
4.61116
20
-5.72685
11
4.60741
21
-5.7231
0
LINE
8
BLACK
6
CONTINUOUS
10
4.60741
20
-5.7231
11
4.60367
21
-5.7156
0
LINE
8
BLACK
6
CONTINUOUS
10
4.60367
20
-5.7156
11
4.59992
21
-5.7006
0
LINE
8
BLACK
6
CONTINUOUS
10
4.59992
20
-5.7006
11
4.59992
21
-5.68186
0
LINE
8
BLACK
6
CONTINUOUS
10
4.59992
20
-5.68186
11
4.60367
21
-5.66686
0
LINE
8
BLACK
6
CONTINUOUS
10
4.60367
20
-5.66686
11
4.60741
21
-5.65936
0
LINE
8
BLACK
6
CONTINUOUS
10
4.60741
20
-5.65936
11
4.61116
21
-5.65561
0
LINE
8
BLACK
6
CONTINUOUS
10
4.61116
20
-5.65561
11
4.61866
21
-5.65186
0
LINE
8
BLACK
6
CONTINUOUS
10
4.69365
20
-5.65186
11
4.70115
21
-5.65186
0
LINE
8
BLACK
6
CONTINUOUS
10
4.70115
20
-5.65186
11
4.70865
21
-5.65561
0
LINE
8
BLACK
6
CONTINUOUS
10
4.70865
20
-5.65561
11
4.7124
21
-5.65936
0
LINE
8
BLACK
6
CONTINUOUS
10
4.7124
20
-5.65936
11
4.71615
21
-5.66686
0
LINE
8
BLACK
6
CONTINUOUS
10
4.71615
20
-5.66686
11
4.7199
21
-5.68186
0
LINE
8
BLACK
6
CONTINUOUS
10
4.7199
20
-5.68186
11
4.7199
21
-5.7006
0
LINE
8
BLACK
6
CONTINUOUS
10
4.7199
20
-5.7006
11
4.71615
21
-5.7156
0
LINE
8
BLACK
6
CONTINUOUS
10
4.71615
20
-5.7156
11
4.7124
21
-5.7231
0
LINE
8
BLACK
6
CONTINUOUS
10
4.7124
20
-5.7231
11
4.70865
21
-5.72685
0
LINE
8
BLACK
6
CONTINUOUS
10
4.70865
20
-5.72685
11
4.70115
21
-5.7306
0
LINE
8
BLACK
6
CONTINUOUS
10
4.70115
20
-5.7306
11
4.69365
21
-5.7306
0
LINE
8
BLACK
6
CONTINUOUS
10
4.69365
20
-5.7306
11
4.68615
21
-5.72685
0
LINE
8
BLACK
6
CONTINUOUS
10
4.68615
20
-5.72685
11
4.68241
21
-5.7231
0
LINE
8
BLACK
6
CONTINUOUS
10
4.68241
20
-5.7231
11
4.67866
21
-5.7156
0
LINE
8
BLACK
6
CONTINUOUS
10
4.67866
20
-5.7156
11
4.67491
21
-5.7006
0
LINE
8
BLACK
6
CONTINUOUS
10
4.67491
20
-5.7006
11
4.67491
21
-5.68186
0
LINE
8
BLACK
6
CONTINUOUS
10
4.67491
20
-5.68186
11
4.67866
21
-5.66686
0
LINE
8
BLACK
6
CONTINUOUS
10
4.67866
20
-5.66686
11
4.68241
21
-5.65936
0
LINE
8
BLACK
6
CONTINUOUS
10
4.68241
20
-5.65936
11
4.68615
21
-5.65561
0
LINE
8
BLACK
6
CONTINUOUS
10
4.68615
20
-5.65561
11
4.69365
21
-5.65186
0
LINE
8
BLACK
6
CONTINUOUS
10
4.75365
20
-5.7306
11
4.75365
21
-5.67811
0
LINE
8
BLACK
6
CONTINUOUS
10
4.75365
20
-5.68561
11
4.7574
21
-5.68186
0
LINE
8
BLACK
6
CONTINUOUS
10
4.7574
20
-5.68186
11
4.7649
21
-5.67811
0
LINE
8
BLACK
6
CONTINUOUS
10
4.7649
20
-5.67811
11
4.77614
21
-5.67811
0
LINE
8
BLACK
6
CONTINUOUS
10
4.77614
20
-5.67811
11
4.78364
21
-5.68186
0
LINE
8
BLACK
6
CONTINUOUS
10
4.78364
20
-5.68186
11
4.78739
21
-5.68936
0
LINE
8
BLACK
6
CONTINUOUS
10
4.78739
20
-5.68936
11
4.78739
21
-5.7306
0
LINE
8
BLACK
6
CONTINUOUS
10
4.78739
20
-5.68936
11
4.79114
21
-5.68186
0
LINE
8
BLACK
6
CONTINUOUS
10
4.79114
20
-5.68186
11
4.79864
21
-5.67811
0
LINE
8
BLACK
6
CONTINUOUS
10
4.79864
20
-5.67811
11
4.80989
21
-5.67811
0
LINE
8
BLACK
6
CONTINUOUS
10
4.80989
20
-5.67811
11
4.81739
21
-5.68186
0
LINE
8
BLACK
6
CONTINUOUS
10
4.81739
20
-5.68186
11
4.82114
21
-5.68936
0
LINE
8
BLACK
6
CONTINUOUS
10
4.82114
20
-5.68936
11
4.82114
21
-5.7306
0
LINE
8
BLACK
6
CONTINUOUS
10
4.85863
20
-5.7306
11
4.85863
21
-5.67811
0
LINE
8
BLACK
6
CONTINUOUS
10
4.85863
20
-5.68561
11
4.86238
21
-5.68186
0
LINE
8
BLACK
6
CONTINUOUS
10
4.86238
20
-5.68186
11
4.86988
21
-5.67811
0
LINE
8
BLACK
6
CONTINUOUS
10
4.86988
20
-5.67811
11
4.88113
21
-5.67811
0
LINE
8
BLACK
6
CONTINUOUS
10
4.88113
20
-5.67811
11
4.88863
21
-5.68186
0
LINE
8
BLACK
6
CONTINUOUS
10
4.88863
20
-5.68186
11
4.89238
21
-5.68936
0
LINE
8
BLACK
6
CONTINUOUS
10
4.89238
20
-5.68936
11
4.89238
21
-5.7306
0
LINE
8
BLACK
6
CONTINUOUS
10
4.89238
20
-5.68936
11
4.89613
21
-5.68186
0
LINE
8
BLACK
6
CONTINUOUS
10
4.89613
20
-5.68186
11
4.90363
21
-5.67811
0
LINE
8
BLACK
6
CONTINUOUS
10
4.90363
20
-5.67811
11
4.91488
21
-5.67811
0
LINE
8
BLACK
6
CONTINUOUS
10
4.91488
20
-5.67811
11
4.92238
21
-5.68186
0
LINE
8
BLACK
6
CONTINUOUS
10
4.92238
20
-5.68186
11
4.92612
21
-5.68936
0
LINE
8
BLACK
6
CONTINUOUS
10
4.92612
20
-5.68936
11
4.92612
21
-5.7306
0
LINE
8
BLACK
6
CONTINUOUS
10
5.06711
20
-5.64811
11
4.99962
21
-5.74935
0
LINE
8
BLACK
6
CONTINUOUS
10
5.1556
20
-5.65186
11
5.1631
21
-5.65186
0
LINE
8
BLACK
6
CONTINUOUS
10
5.1631
20
-5.65186
11
5.17059
21
-5.65561
0
LINE
8
BLACK
6
CONTINUOUS
10
5.17059
20
-5.65561
11
5.17434
21
-5.65936
0
LINE
8
BLACK
6
CONTINUOUS
10
5.17434
20
-5.65936
11
5.17809
21
-5.66686
0
LINE
8
BLACK
6
CONTINUOUS
10
5.17809
20
-5.66686
11
5.18184
21
-5.68186
0
LINE
8
BLACK
6
CONTINUOUS
10
5.18184
20
-5.68186
11
5.18184
21
-5.7006
0
LINE
8
BLACK
6
CONTINUOUS
10
5.18184
20
-5.7006
11
5.17809
21
-5.7156
0
LINE
8
BLACK
6
CONTINUOUS
10
5.17809
20
-5.7156
11
5.17434
21
-5.7231
0
LINE
8
BLACK
6
CONTINUOUS
10
5.17434
20
-5.7231
11
5.17059
21
-5.72685
0
LINE
8
BLACK
6
CONTINUOUS
10
5.17059
20
-5.72685
11
5.1631
21
-5.7306
0
LINE
8
BLACK
6
CONTINUOUS
10
5.1631
20
-5.7306
11
5.1556
21
-5.7306
0
LINE
8
BLACK
6
CONTINUOUS
10
5.1556
20
-5.7306
11
5.1481
21
-5.72685
0
LINE
8
BLACK
6
CONTINUOUS
10
5.1481
20
-5.72685
11
5.14435
21
-5.7231
0
LINE
8
BLACK
6
CONTINUOUS
10
5.14435
20
-5.7231
11
5.1406
21
-5.7156
0
LINE
8
BLACK
6
CONTINUOUS
10
5.1406
20
-5.7156
11
5.13685
21
-5.7006
0
LINE
8
BLACK
6
CONTINUOUS
10
5.13685
20
-5.7006
11
5.13685
21
-5.68186
0
LINE
8
BLACK
6
CONTINUOUS
10
5.13685
20
-5.68186
11
5.1406
21
-5.66686
0
LINE
8
BLACK
6
CONTINUOUS
10
5.1406
20
-5.66686
11
5.14435
21
-5.65936
0
LINE
8
BLACK
6
CONTINUOUS
10
5.14435
20
-5.65936
11
5.1481
21
-5.65561
0
LINE
8
BLACK
6
CONTINUOUS
10
5.1481
20
-5.65561
11
5.1556
21
-5.65186
0
LINE
8
BLACK
6
CONTINUOUS
10
5.21559
20
-5.7231
11
5.21934
21
-5.72685
0
LINE
8
BLACK
6
CONTINUOUS
10
5.21934
20
-5.72685
11
5.21559
21
-5.7306
0
LINE
8
BLACK
6
CONTINUOUS
10
5.21559
20
-5.7306
11
5.21184
21
-5.72685
0
LINE
8
BLACK
6
CONTINUOUS
10
5.21184
20
-5.72685
11
5.21559
21
-5.7231
0
LINE
8
BLACK
6
CONTINUOUS
10
5.21559
20
-5.7231
11
5.21559
21
-5.7306
0
LINE
8
BLACK
6
CONTINUOUS
10
5.29433
20
-5.7306
11
5.24933
21
-5.7306
0
LINE
8
BLACK
6
CONTINUOUS
10
5.27183
20
-5.7306
11
5.27183
21
-5.65186
0
LINE
8
BLACK
6
CONTINUOUS
10
5.27183
20
-5.65186
11
5.26433
21
-5.66311
0
LINE
8
BLACK
6
CONTINUOUS
10
5.26433
20
-5.66311
11
5.25683
21
-5.67061
0
LINE
8
BLACK
6
CONTINUOUS
10
5.25683
20
-5.67061
11
5.24933
21
-5.67436
0
LINE
8
BLACK
6
CONTINUOUS
10
5.32433
20
-5.65936
11
5.32807
21
-5.65561
0
LINE
8
BLACK
6
CONTINUOUS
10
5.32807
20
-5.65561
11
5.33557
21
-5.65186
0
LINE
8
BLACK
6
CONTINUOUS
10
5.33557
20
-5.65186
11
5.35432
21
-5.65186
0
LINE
8
BLACK
6
CONTINUOUS
10
5.35432
20
-5.65186
11
5.36182
21
-5.65561
0
LINE
8
BLACK
6
CONTINUOUS
10
5.36182
20
-5.65561
11
5.36557
21
-5.65936
0
LINE
8
BLACK
6
CONTINUOUS
10
5.36557
20
-5.65936
11
5.36932
21
-5.66686
0
LINE
8
BLACK
6
CONTINUOUS
10
5.36932
20
-5.66686
11
5.36932
21
-5.67436
0
LINE
8
BLACK
6
CONTINUOUS
10
5.36932
20
-5.67436
11
5.36557
21
-5.68561
0
LINE
8
BLACK
6
CONTINUOUS
10
5.36557
20
-5.68561
11
5.32058
21
-5.7306
0
LINE
8
BLACK
6
CONTINUOUS
10
5.32058
20
-5.7306
11
5.36932
21
-5.7306
0
LINE
8
BLACK
6
CONTINUOUS
10
5.43681
20
-5.65186
11
5.42181
21
-5.65186
0
LINE
8
BLACK
6
CONTINUOUS
10
5.42181
20
-5.65186
11
5.41431
21
-5.65561
0
LINE
8
BLACK
6
CONTINUOUS
10
5.41431
20
-5.65561
11
5.41056
21
-5.65936
0
LINE
8
BLACK
6
CONTINUOUS
10
5.41056
20
-5.65936
11
5.40307
21
-5.67061
0
LINE
8
BLACK
6
CONTINUOUS
10
5.40307
20
-5.67061
11
5.39932
21
-5.68561
0
LINE
8
BLACK
6
CONTINUOUS
10
5.39932
20
-5.68561
11
5.39932
21
-5.7156
0
LINE
8
BLACK
6
CONTINUOUS
10
5.39932
20
-5.7156
11
5.40307
21
-5.7231
0
LINE
8
BLACK
6
CONTINUOUS
10
5.40307
20
-5.7231
11
5.40681
21
-5.72685
0
LINE
8
BLACK
6
CONTINUOUS
10
5.40681
20
-5.72685
11
5.41431
21
-5.7306
0
LINE
8
BLACK
6
CONTINUOUS
10
5.41431
20
-5.7306
11
5.42931
21
-5.7306
0
LINE
8
BLACK
6
CONTINUOUS
10
5.42931
20
-5.7306
11
5.43681
21
-5.72685
0
LINE
8
BLACK
6
CONTINUOUS
10
5.43681
20
-5.72685
11
5.44056
21
-5.7231
0
LINE
8
BLACK
6
CONTINUOUS
10
5.44056
20
-5.7231
11
5.44431
21
-5.7156
0
LINE
8
BLACK
6
CONTINUOUS
10
5.44431
20
-5.7156
11
5.44431
21
-5.69686
0
LINE
8
BLACK
6
CONTINUOUS
10
5.44431
20
-5.69686
11
5.44056
21
-5.68936
0
LINE
8
BLACK
6
CONTINUOUS
10
5.44056
20
-5.68936
11
5.43681
21
-5.68561
0
LINE
8
BLACK
6
CONTINUOUS
10
5.43681
20
-5.68561
11
5.42931
21
-5.68186
0
LINE
8
BLACK
6
CONTINUOUS
10
5.42931
20
-5.68186
11
5.41431
21
-5.68186
0
LINE
8
BLACK
6
CONTINUOUS
10
5.41431
20
-5.68186
11
5.40681
21
-5.68561
0
LINE
8
BLACK
6
CONTINUOUS
10
5.40681
20
-5.68561
11
5.40307
21
-5.68936
0
LINE
8
BLACK
6
CONTINUOUS
10
5.40307
20
-5.68936
11
5.39932
21
-5.69686
0
LINE
8
BLACK
6
CONTINUOUS
10
5.49305
20
-5.65186
11
5.50055
21
-5.65186
0
LINE
8
BLACK
6
CONTINUOUS
10
5.50055
20
-5.65186
11
5.50805
21
-5.65561
0
LINE
8
BLACK
6
CONTINUOUS
10
5.50805
20
-5.65561
11
5.5118
21
-5.65936
0
LINE
8
BLACK
6
CONTINUOUS
10
5.5118
20
-5.65936
11
5.51555
21
-5.66686
0
LINE
8
BLACK
6
CONTINUOUS
10
5.51555
20
-5.66686
11
5.5193
21
-5.68186
0
LINE
8
BLACK
6
CONTINUOUS
10
5.5193
20
-5.68186
11
5.5193
21
-5.7006
0
LINE
8
BLACK
6
CONTINUOUS
10
5.5193
20
-5.7006
11
5.51555
21
-5.7156
0
LINE
8
BLACK
6
CONTINUOUS
10
5.51555
20
-5.7156
11
5.5118
21
-5.7231
0
LINE
8
BLACK
6
CONTINUOUS
10
5.5118
20
-5.7231
11
5.50805
21
-5.72685
0
LINE
8
BLACK
6
CONTINUOUS
10
5.50805
20
-5.72685
11
5.50055
21
-5.7306
0
LINE
8
BLACK
6
CONTINUOUS
10
5.50055
20
-5.7306
11
5.49305
21
-5.7306
0
LINE
8
BLACK
6
CONTINUOUS
10
5.49305
20
-5.7306
11
5.48555
21
-5.72685
0
LINE
8
BLACK
6
CONTINUOUS
10
5.48555
20
-5.72685
11
5.48181
21
-5.7231
0
LINE
8
BLACK
6
CONTINUOUS
10
5.48181
20
-5.7231
11
5.47806
21
-5.7156
0
LINE
8
BLACK
6
CONTINUOUS
10
5.47806
20
-5.7156
11
5.47431
21
-5.7006
0
LINE
8
BLACK
6
CONTINUOUS
10
5.47431
20
-5.7006
11
5.47431
21
-5.68186
0
LINE
8
BLACK
6
CONTINUOUS
10
5.47431
20
-5.68186
11
5.47806
21
-5.66686
0
LINE
8
BLACK
6
CONTINUOUS
10
5.47806
20
-5.66686
11
5.48181
21
-5.65936
0
LINE
8
BLACK
6
CONTINUOUS
10
5.48181
20
-5.65936
11
5.48555
21
-5.65561
0
LINE
8
BLACK
6
CONTINUOUS
10
5.48555
20
-5.65561
11
5.49305
21
-5.65186
0
LINE
8
BLACK
6
CONTINUOUS
10
5.5493
20
-5.65186
11
5.5493
21
-5.66686
0
LINE
8
BLACK
6
CONTINUOUS
10
5.57929
20
-5.65186
11
5.57929
21
-5.66686
0
LINE
8
BLACK
6
CONTINUOUS
10
5.68278
20
-5.7606
11
5.67903
21
-5.75685
0
LINE
8
BLACK
6
CONTINUOUS
10
5.67903
20
-5.75685
11
5.67153
21
-5.7456
0
LINE
8
BLACK
6
CONTINUOUS
10
5.67153
20
-5.7456
11
5.66778
21
-5.7381
0
LINE
8
BLACK
6
CONTINUOUS
10
5.66778
20
-5.7381
11
5.66403
21
-5.72685
0
LINE
8
BLACK
6
CONTINUOUS
10
5.66403
20
-5.72685
11
5.66028
21
-5.7081
0
LINE
8
BLACK
6
CONTINUOUS
10
5.66028
20
-5.7081
11
5.66028
21
-5.69311
0
LINE
8
BLACK
6
CONTINUOUS
10
5.66028
20
-5.69311
11
5.66403
21
-5.67436
0
LINE
8
BLACK
6
CONTINUOUS
10
5.66403
20
-5.67436
11
5.66778
21
-5.66311
0
LINE
8
BLACK
6
CONTINUOUS
10
5.66778
20
-5.66311
11
5.67153
21
-5.65561
0
LINE
8
BLACK
6
CONTINUOUS
10
5.67153
20
-5.65561
11
5.67903
21
-5.64436
0
LINE
8
BLACK
6
CONTINUOUS
10
5.67903
20
-5.64436
11
5.68278
21
-5.64061
0
LINE
8
BLACK
6
CONTINUOUS
10
5.74652
20
-5.65186
11
5.73152
21
-5.65186
0
LINE
8
BLACK
6
CONTINUOUS
10
5.73152
20
-5.65186
11
5.72403
21
-5.65561
0
LINE
8
BLACK
6
CONTINUOUS
10
5.72403
20
-5.65561
11
5.72028
21
-5.65936
0
LINE
8
BLACK
6
CONTINUOUS
10
5.72028
20
-5.65936
11
5.71278
21
-5.67061
0
LINE
8
BLACK
6
CONTINUOUS
10
5.71278
20
-5.67061
11
5.70903
21
-5.68561
0
LINE
8
BLACK
6
CONTINUOUS
10
5.70903
20
-5.68561
11
5.70903
21
-5.7156
0
LINE
8
BLACK
6
CONTINUOUS
10
5.70903
20
-5.7156
11
5.71278
21
-5.7231
0
LINE
8
BLACK
6
CONTINUOUS
10
5.71278
20
-5.7231
11
5.71653
21
-5.72685
0
LINE
8
BLACK
6
CONTINUOUS
10
5.71653
20
-5.72685
11
5.72403
21
-5.7306
0
LINE
8
BLACK
6
CONTINUOUS
10
5.72403
20
-5.7306
11
5.73902
21
-5.7306
0
LINE
8
BLACK
6
CONTINUOUS
10
5.73902
20
-5.7306
11
5.74652
21
-5.72685
0
LINE
8
BLACK
6
CONTINUOUS
10
5.74652
20
-5.72685
11
5.75027
21
-5.7231
0
LINE
8
BLACK
6
CONTINUOUS
10
5.75027
20
-5.7231
11
5.75402
21
-5.7156
0
LINE
8
BLACK
6
CONTINUOUS
10
5.75402
20
-5.7156
11
5.75402
21
-5.69686
0
LINE
8
BLACK
6
CONTINUOUS
10
5.75402
20
-5.69686
11
5.75027
21
-5.68936
0
LINE
8
BLACK
6
CONTINUOUS
10
5.75027
20
-5.68936
11
5.74652
21
-5.68561
0
LINE
8
BLACK
6
CONTINUOUS
10
5.74652
20
-5.68561
11
5.73902
21
-5.68186
0
LINE
8
BLACK
6
CONTINUOUS
10
5.73902
20
-5.68186
11
5.72403
21
-5.68186
0
LINE
8
BLACK
6
CONTINUOUS
10
5.72403
20
-5.68186
11
5.71653
21
-5.68561
0
LINE
8
BLACK
6
CONTINUOUS
10
5.71653
20
-5.68561
11
5.71278
21
-5.68936
0
LINE
8
BLACK
6
CONTINUOUS
10
5.71278
20
-5.68936
11
5.70903
21
-5.69686
0
LINE
8
BLACK
6
CONTINUOUS
10
5.83501
20
-5.7306
11
5.83501
21
-5.65186
0
LINE
8
BLACK
6
CONTINUOUS
10
5.86876
20
-5.7306
11
5.86876
21
-5.68936
0
LINE
8
BLACK
6
CONTINUOUS
10
5.86876
20
-5.68936
11
5.86501
21
-5.68186
0
LINE
8
BLACK
6
CONTINUOUS
10
5.86501
20
-5.68186
11
5.85751
21
-5.67811
0
LINE
8
BLACK
6
CONTINUOUS
10
5.85751
20
-5.67811
11
5.84626
21
-5.67811
0
LINE
8
BLACK
6
CONTINUOUS
10
5.84626
20
-5.67811
11
5.83876
21
-5.68186
0
LINE
8
BLACK
6
CONTINUOUS
10
5.83876
20
-5.68186
11
5.83501
21
-5.68561
0
LINE
8
BLACK
6
CONTINUOUS
10
5.9175
20
-5.7306
11
5.91
21
-5.72685
0
LINE
8
BLACK
6
CONTINUOUS
10
5.91
20
-5.72685
11
5.90625
21
-5.7231
0
LINE
8
BLACK
6
CONTINUOUS
10
5.90625
20
-5.7231
11
5.9025
21
-5.7156
0
LINE
8
BLACK
6
CONTINUOUS
10
5.9025
20
-5.7156
11
5.9025
21
-5.69311
0
LINE
8
BLACK
6
CONTINUOUS
10
5.9025
20
-5.69311
11
5.90625
21
-5.68561
0
LINE
8
BLACK
6
CONTINUOUS
10
5.90625
20
-5.68561
11
5.91
21
-5.68186
0
LINE
8
BLACK
6
CONTINUOUS
10
5.91
20
-5.68186
11
5.9175
21
-5.67811
0
LINE
8
BLACK
6
CONTINUOUS
10
5.9175
20
-5.67811
11
5.92875
21
-5.67811
0
LINE
8
BLACK
6
CONTINUOUS
10
5.92875
20
-5.67811
11
5.93625
21
-5.68186
0
LINE
8
BLACK
6
CONTINUOUS
10
5.93625
20
-5.68186
11
5.94
21
-5.68561
0
LINE
8
BLACK
6
CONTINUOUS
10
5.94
20
-5.68561
11
5.94375
21
-5.69311
0
LINE
8
BLACK
6
CONTINUOUS
10
5.94375
20
-5.69311
11
5.94375
21
-5.7156
0
LINE
8
BLACK
6
CONTINUOUS
10
5.94375
20
-5.7156
11
5.94
21
-5.7231
0
LINE
8
BLACK
6
CONTINUOUS
10
5.94
20
-5.7231
11
5.93625
21
-5.72685
0
LINE
8
BLACK
6
CONTINUOUS
10
5.93625
20
-5.72685
11
5.92875
21
-5.7306
0
LINE
8
BLACK
6
CONTINUOUS
10
5.92875
20
-5.7306
11
5.9175
21
-5.7306
0
LINE
8
BLACK
6
CONTINUOUS
10
5.98874
20
-5.7306
11
5.98124
21
-5.72685
0
LINE
8
BLACK
6
CONTINUOUS
10
5.98124
20
-5.72685
11
5.97749
21
-5.71935
0
LINE
8
BLACK
6
CONTINUOUS
10
5.97749
20
-5.71935
11
5.97749
21
-5.65186
0
LINE
8
BLACK
6
CONTINUOUS
10
6.04873
20
-5.72685
11
6.04124
21
-5.7306
0
LINE
8
BLACK
6
CONTINUOUS
10
6.04124
20
-5.7306
11
6.02624
21
-5.7306
0
LINE
8
BLACK
6
CONTINUOUS
10
6.02624
20
-5.7306
11
6.01874
21
-5.72685
0
LINE
8
BLACK
6
CONTINUOUS
10
6.01874
20
-5.72685
11
6.01499
21
-5.71935
0
LINE
8
BLACK
6
CONTINUOUS
10
6.01499
20
-5.71935
11
6.01499
21
-5.68936
0
LINE
8
BLACK
6
CONTINUOUS
10
6.01499
20
-5.68936
11
6.01874
21
-5.68186
0
LINE
8
BLACK
6
CONTINUOUS
10
6.01874
20
-5.68186
11
6.02624
21
-5.67811
0
LINE
8
BLACK
6
CONTINUOUS
10
6.02624
20
-5.67811
11
6.04124
21
-5.67811
0
LINE
8
BLACK
6
CONTINUOUS
10
6.04124
20
-5.67811
11
6.04873
21
-5.68186
0
LINE
8
BLACK
6
CONTINUOUS
10
6.04873
20
-5.68186
11
6.05248
21
-5.68936
0
LINE
8
BLACK
6
CONTINUOUS
10
6.05248
20
-5.68936
11
6.05248
21
-5.69686
0
LINE
8
BLACK
6
CONTINUOUS
10
6.05248
20
-5.69686
11
6.01499
21
-5.70435
0
LINE
8
BLACK
6
CONTINUOUS
10
6.08248
20
-5.72685
11
6.08998
21
-5.7306
0
LINE
8
BLACK
6
CONTINUOUS
10
6.08998
20
-5.7306
11
6.10498
21
-5.7306
0
LINE
8
BLACK
6
CONTINUOUS
10
6.10498
20
-5.7306
11
6.11248
21
-5.72685
0
LINE
8
BLACK
6
CONTINUOUS
10
6.11248
20
-5.72685
11
6.11623
21
-5.71935
0
LINE
8
BLACK
6
CONTINUOUS
10
6.11623
20
-5.71935
11
6.11623
21
-5.7156
0
LINE
8
BLACK
6
CONTINUOUS
10
6.11623
20
-5.7156
11
6.11248
21
-5.7081
0
LINE
8
BLACK
6
CONTINUOUS
10
6.11248
20
-5.7081
11
6.10498
21
-5.70435
0
LINE
8
BLACK
6
CONTINUOUS
10
6.10498
20
-5.70435
11
6.09373
21
-5.70435
0
LINE
8
BLACK
6
CONTINUOUS
10
6.09373
20
-5.70435
11
6.08623
21
-5.7006
0
LINE
8
BLACK
6
CONTINUOUS
10
6.08623
20
-5.7006
11
6.08248
21
-5.69311
0
LINE
8
BLACK
6
CONTINUOUS
10
6.08248
20
-5.69311
11
6.08248
21
-5.68936
0
LINE
8
BLACK
6
CONTINUOUS
10
6.08248
20
-5.68936
11
6.08623
21
-5.68186
0
LINE
8
BLACK
6
CONTINUOUS
10
6.08623
20
-5.68186
11
6.09373
21
-5.67811
0
LINE
8
BLACK
6
CONTINUOUS
10
6.09373
20
-5.67811
11
6.10498
21
-5.67811
0
LINE
8
BLACK
6
CONTINUOUS
10
6.10498
20
-5.67811
11
6.11248
21
-5.68186
0
LINE
8
BLACK
6
CONTINUOUS
10
6.14247
20
-5.7606
11
6.14622
21
-5.75685
0
LINE
8
BLACK
6
CONTINUOUS
10
6.14622
20
-5.75685
11
6.15372
21
-5.7456
0
LINE
8
BLACK
6
CONTINUOUS
10
6.15372
20
-5.7456
11
6.15747
21
-5.7381
0
LINE
8
BLACK
6
CONTINUOUS
10
6.15747
20
-5.7381
11
6.16122
21
-5.72685
0
LINE
8
BLACK
6
CONTINUOUS
10
6.16122
20
-5.72685
11
6.16497
21
-5.7081
0
LINE
8
BLACK
6
CONTINUOUS
10
6.16497
20
-5.7081
11
6.16497
21
-5.69311
0
LINE
8
BLACK
6
CONTINUOUS
10
6.16497
20
-5.69311
11
6.16122
21
-5.67436
0
LINE
8
BLACK
6
CONTINUOUS
10
6.16122
20
-5.67436
11
6.15747
21
-5.66311
0
LINE
8
BLACK
6
CONTINUOUS
10
6.15747
20
-5.66311
11
6.15372
21
-5.65561
0
LINE
8
BLACK
6
CONTINUOUS
10
6.15372
20
-5.65561
11
6.14622
21
-5.64436
0
LINE
8
BLACK
6
CONTINUOUS
10
6.14622
20
-5.64436
11
6.14247
21
-5.64061
  0
ENDSEC
  0
EOF
