%TF.GenerationSoftware,KiCad,Pcbnew,7.0.0*%
%TF.CreationDate,2023-11-15T23:16:34+08:00*%
%TF.ProjectId,Explorer,4578706c-6f72-4657-922e-6b696361645f,rev?*%
%TF.SameCoordinates,Original*%
%TF.FileFunction,Legend,Top*%
%TF.FilePolarity,Positive*%
%FSLAX46Y46*%
G04 Gerber Fmt 4.6, Leading zero omitted, Abs format (unit mm)*
G04 Created by KiCad (PCBNEW 7.0.0) date 2023-11-15 23:16:34*
%MOMM*%
%LPD*%
G01*
G04 APERTURE LIST*
%ADD10C,0.200000*%
%ADD11C,0.125000*%
%ADD12C,0.150000*%
%ADD13C,0.500000*%
%ADD14C,0.120000*%
G04 APERTURE END LIST*
D10*
X113143333Y-111113571D02*
X113143333Y-112327857D01*
X113143333Y-112327857D02*
X113105238Y-112470714D01*
X113105238Y-112470714D02*
X113067142Y-112542142D01*
X113067142Y-112542142D02*
X112990952Y-112613571D01*
X112990952Y-112613571D02*
X112876666Y-112613571D01*
X112876666Y-112613571D02*
X112800476Y-112542142D01*
X113143333Y-112042142D02*
X113067142Y-112113571D01*
X113067142Y-112113571D02*
X112914761Y-112113571D01*
X112914761Y-112113571D02*
X112838571Y-112042142D01*
X112838571Y-112042142D02*
X112800476Y-111970714D01*
X112800476Y-111970714D02*
X112762380Y-111827857D01*
X112762380Y-111827857D02*
X112762380Y-111399285D01*
X112762380Y-111399285D02*
X112800476Y-111256428D01*
X112800476Y-111256428D02*
X112838571Y-111185000D01*
X112838571Y-111185000D02*
X112914761Y-111113571D01*
X112914761Y-111113571D02*
X113067142Y-111113571D01*
X113067142Y-111113571D02*
X113143333Y-111185000D01*
X113524286Y-112113571D02*
X113524286Y-111113571D01*
X113524286Y-110613571D02*
X113486190Y-110685000D01*
X113486190Y-110685000D02*
X113524286Y-110756428D01*
X113524286Y-110756428D02*
X113562381Y-110685000D01*
X113562381Y-110685000D02*
X113524286Y-110613571D01*
X113524286Y-110613571D02*
X113524286Y-110756428D01*
X113790952Y-111113571D02*
X114095714Y-111113571D01*
X113905238Y-110613571D02*
X113905238Y-111899285D01*
X113905238Y-111899285D02*
X113943333Y-112042142D01*
X113943333Y-112042142D02*
X114019523Y-112113571D01*
X114019523Y-112113571D02*
X114095714Y-112113571D01*
X114362381Y-112113571D02*
X114362381Y-110613571D01*
X114705238Y-112113571D02*
X114705238Y-111327857D01*
X114705238Y-111327857D02*
X114667143Y-111185000D01*
X114667143Y-111185000D02*
X114590952Y-111113571D01*
X114590952Y-111113571D02*
X114476666Y-111113571D01*
X114476666Y-111113571D02*
X114400476Y-111185000D01*
X114400476Y-111185000D02*
X114362381Y-111256428D01*
X115429048Y-111113571D02*
X115429048Y-112113571D01*
X115086191Y-111113571D02*
X115086191Y-111899285D01*
X115086191Y-111899285D02*
X115124286Y-112042142D01*
X115124286Y-112042142D02*
X115200476Y-112113571D01*
X115200476Y-112113571D02*
X115314762Y-112113571D01*
X115314762Y-112113571D02*
X115390953Y-112042142D01*
X115390953Y-112042142D02*
X115429048Y-111970714D01*
X115810001Y-112113571D02*
X115810001Y-110613571D01*
X115810001Y-111185000D02*
X115886191Y-111113571D01*
X115886191Y-111113571D02*
X116038572Y-111113571D01*
X116038572Y-111113571D02*
X116114763Y-111185000D01*
X116114763Y-111185000D02*
X116152858Y-111256428D01*
X116152858Y-111256428D02*
X116190953Y-111399285D01*
X116190953Y-111399285D02*
X116190953Y-111827857D01*
X116190953Y-111827857D02*
X116152858Y-111970714D01*
X116152858Y-111970714D02*
X116114763Y-112042142D01*
X116114763Y-112042142D02*
X116038572Y-112113571D01*
X116038572Y-112113571D02*
X115886191Y-112113571D01*
X115886191Y-112113571D02*
X115810001Y-112042142D01*
X116533811Y-111970714D02*
X116571906Y-112042142D01*
X116571906Y-112042142D02*
X116533811Y-112113571D01*
X116533811Y-112113571D02*
X116495715Y-112042142D01*
X116495715Y-112042142D02*
X116533811Y-111970714D01*
X116533811Y-111970714D02*
X116533811Y-112113571D01*
X117257620Y-112042142D02*
X117181429Y-112113571D01*
X117181429Y-112113571D02*
X117029048Y-112113571D01*
X117029048Y-112113571D02*
X116952858Y-112042142D01*
X116952858Y-112042142D02*
X116914763Y-111970714D01*
X116914763Y-111970714D02*
X116876667Y-111827857D01*
X116876667Y-111827857D02*
X116876667Y-111399285D01*
X116876667Y-111399285D02*
X116914763Y-111256428D01*
X116914763Y-111256428D02*
X116952858Y-111185000D01*
X116952858Y-111185000D02*
X117029048Y-111113571D01*
X117029048Y-111113571D02*
X117181429Y-111113571D01*
X117181429Y-111113571D02*
X117257620Y-111185000D01*
X117714762Y-112113571D02*
X117638572Y-112042142D01*
X117638572Y-112042142D02*
X117600477Y-111970714D01*
X117600477Y-111970714D02*
X117562381Y-111827857D01*
X117562381Y-111827857D02*
X117562381Y-111399285D01*
X117562381Y-111399285D02*
X117600477Y-111256428D01*
X117600477Y-111256428D02*
X117638572Y-111185000D01*
X117638572Y-111185000D02*
X117714762Y-111113571D01*
X117714762Y-111113571D02*
X117829048Y-111113571D01*
X117829048Y-111113571D02*
X117905239Y-111185000D01*
X117905239Y-111185000D02*
X117943334Y-111256428D01*
X117943334Y-111256428D02*
X117981429Y-111399285D01*
X117981429Y-111399285D02*
X117981429Y-111827857D01*
X117981429Y-111827857D02*
X117943334Y-111970714D01*
X117943334Y-111970714D02*
X117905239Y-112042142D01*
X117905239Y-112042142D02*
X117829048Y-112113571D01*
X117829048Y-112113571D02*
X117714762Y-112113571D01*
X118324287Y-112113571D02*
X118324287Y-111113571D01*
X118324287Y-111256428D02*
X118362382Y-111185000D01*
X118362382Y-111185000D02*
X118438572Y-111113571D01*
X118438572Y-111113571D02*
X118552858Y-111113571D01*
X118552858Y-111113571D02*
X118629049Y-111185000D01*
X118629049Y-111185000D02*
X118667144Y-111327857D01*
X118667144Y-111327857D02*
X118667144Y-112113571D01*
X118667144Y-111327857D02*
X118705239Y-111185000D01*
X118705239Y-111185000D02*
X118781430Y-111113571D01*
X118781430Y-111113571D02*
X118895715Y-111113571D01*
X118895715Y-111113571D02*
X118971906Y-111185000D01*
X118971906Y-111185000D02*
X119010001Y-111327857D01*
X119010001Y-111327857D02*
X119010001Y-112113571D01*
X119962382Y-110542142D02*
X119276668Y-112470714D01*
X120229049Y-112113571D02*
X120229049Y-110613571D01*
X120229049Y-111185000D02*
X120305239Y-111113571D01*
X120305239Y-111113571D02*
X120457620Y-111113571D01*
X120457620Y-111113571D02*
X120533811Y-111185000D01*
X120533811Y-111185000D02*
X120571906Y-111256428D01*
X120571906Y-111256428D02*
X120610001Y-111399285D01*
X120610001Y-111399285D02*
X120610001Y-111827857D01*
X120610001Y-111827857D02*
X120571906Y-111970714D01*
X120571906Y-111970714D02*
X120533811Y-112042142D01*
X120533811Y-112042142D02*
X120457620Y-112113571D01*
X120457620Y-112113571D02*
X120305239Y-112113571D01*
X120305239Y-112113571D02*
X120229049Y-112042142D01*
X121295716Y-112042142D02*
X121219525Y-112113571D01*
X121219525Y-112113571D02*
X121067144Y-112113571D01*
X121067144Y-112113571D02*
X120990954Y-112042142D01*
X120990954Y-112042142D02*
X120952859Y-111970714D01*
X120952859Y-111970714D02*
X120914763Y-111827857D01*
X120914763Y-111827857D02*
X120914763Y-111399285D01*
X120914763Y-111399285D02*
X120952859Y-111256428D01*
X120952859Y-111256428D02*
X120990954Y-111185000D01*
X120990954Y-111185000D02*
X121067144Y-111113571D01*
X121067144Y-111113571D02*
X121219525Y-111113571D01*
X121219525Y-111113571D02*
X121295716Y-111185000D01*
X121752858Y-112113571D02*
X121676668Y-112042142D01*
X121676668Y-112042142D02*
X121638573Y-111899285D01*
X121638573Y-111899285D02*
X121638573Y-110613571D01*
X122019525Y-112042142D02*
X122095716Y-112113571D01*
X122095716Y-112113571D02*
X122248097Y-112113571D01*
X122248097Y-112113571D02*
X122324287Y-112042142D01*
X122324287Y-112042142D02*
X122362383Y-111899285D01*
X122362383Y-111899285D02*
X122362383Y-111827857D01*
X122362383Y-111827857D02*
X122324287Y-111685000D01*
X122324287Y-111685000D02*
X122248097Y-111613571D01*
X122248097Y-111613571D02*
X122133811Y-111613571D01*
X122133811Y-111613571D02*
X122057621Y-111542142D01*
X122057621Y-111542142D02*
X122019525Y-111399285D01*
X122019525Y-111399285D02*
X122019525Y-111327857D01*
X122019525Y-111327857D02*
X122057621Y-111185000D01*
X122057621Y-111185000D02*
X122133811Y-111113571D01*
X122133811Y-111113571D02*
X122248097Y-111113571D01*
X122248097Y-111113571D02*
X122324287Y-111185000D01*
X122629049Y-111113571D02*
X122781430Y-112113571D01*
X122781430Y-112113571D02*
X122933811Y-111399285D01*
X122933811Y-111399285D02*
X123086192Y-112113571D01*
X123086192Y-112113571D02*
X123238573Y-111113571D01*
X123657620Y-112113571D02*
X123581430Y-112042142D01*
X123581430Y-112042142D02*
X123543335Y-111899285D01*
X123543335Y-111899285D02*
X123543335Y-110613571D01*
X124114764Y-110613571D02*
X124190954Y-110613571D01*
X124190954Y-110613571D02*
X124267145Y-110685000D01*
X124267145Y-110685000D02*
X124305240Y-110756428D01*
X124305240Y-110756428D02*
X124343335Y-110899285D01*
X124343335Y-110899285D02*
X124381430Y-111185000D01*
X124381430Y-111185000D02*
X124381430Y-111542142D01*
X124381430Y-111542142D02*
X124343335Y-111827857D01*
X124343335Y-111827857D02*
X124305240Y-111970714D01*
X124305240Y-111970714D02*
X124267145Y-112042142D01*
X124267145Y-112042142D02*
X124190954Y-112113571D01*
X124190954Y-112113571D02*
X124114764Y-112113571D01*
X124114764Y-112113571D02*
X124038573Y-112042142D01*
X124038573Y-112042142D02*
X124000478Y-111970714D01*
X124000478Y-111970714D02*
X123962383Y-111827857D01*
X123962383Y-111827857D02*
X123924287Y-111542142D01*
X123924287Y-111542142D02*
X123924287Y-111185000D01*
X123924287Y-111185000D02*
X123962383Y-110899285D01*
X123962383Y-110899285D02*
X124000478Y-110756428D01*
X124000478Y-110756428D02*
X124038573Y-110685000D01*
X124038573Y-110685000D02*
X124114764Y-110613571D01*
X124838573Y-111256428D02*
X124762383Y-111185000D01*
X124762383Y-111185000D02*
X124724288Y-111113571D01*
X124724288Y-111113571D02*
X124686192Y-110970714D01*
X124686192Y-110970714D02*
X124686192Y-110899285D01*
X124686192Y-110899285D02*
X124724288Y-110756428D01*
X124724288Y-110756428D02*
X124762383Y-110685000D01*
X124762383Y-110685000D02*
X124838573Y-110613571D01*
X124838573Y-110613571D02*
X124990954Y-110613571D01*
X124990954Y-110613571D02*
X125067145Y-110685000D01*
X125067145Y-110685000D02*
X125105240Y-110756428D01*
X125105240Y-110756428D02*
X125143335Y-110899285D01*
X125143335Y-110899285D02*
X125143335Y-110970714D01*
X125143335Y-110970714D02*
X125105240Y-111113571D01*
X125105240Y-111113571D02*
X125067145Y-111185000D01*
X125067145Y-111185000D02*
X124990954Y-111256428D01*
X124990954Y-111256428D02*
X124838573Y-111256428D01*
X124838573Y-111256428D02*
X124762383Y-111327857D01*
X124762383Y-111327857D02*
X124724288Y-111399285D01*
X124724288Y-111399285D02*
X124686192Y-111542142D01*
X124686192Y-111542142D02*
X124686192Y-111827857D01*
X124686192Y-111827857D02*
X124724288Y-111970714D01*
X124724288Y-111970714D02*
X124762383Y-112042142D01*
X124762383Y-112042142D02*
X124838573Y-112113571D01*
X124838573Y-112113571D02*
X124990954Y-112113571D01*
X124990954Y-112113571D02*
X125067145Y-112042142D01*
X125067145Y-112042142D02*
X125105240Y-111970714D01*
X125105240Y-111970714D02*
X125143335Y-111827857D01*
X125143335Y-111827857D02*
X125143335Y-111542142D01*
X125143335Y-111542142D02*
X125105240Y-111399285D01*
X125105240Y-111399285D02*
X125067145Y-111327857D01*
X125067145Y-111327857D02*
X124990954Y-111256428D01*
X125448097Y-110756428D02*
X125486193Y-110685000D01*
X125486193Y-110685000D02*
X125562383Y-110613571D01*
X125562383Y-110613571D02*
X125752859Y-110613571D01*
X125752859Y-110613571D02*
X125829050Y-110685000D01*
X125829050Y-110685000D02*
X125867145Y-110756428D01*
X125867145Y-110756428D02*
X125905240Y-110899285D01*
X125905240Y-110899285D02*
X125905240Y-111042142D01*
X125905240Y-111042142D02*
X125867145Y-111256428D01*
X125867145Y-111256428D02*
X125410002Y-112113571D01*
X125410002Y-112113571D02*
X125905240Y-112113571D01*
X126171907Y-110613571D02*
X126705241Y-110613571D01*
X126705241Y-110613571D02*
X126362383Y-112113571D01*
X127581431Y-110542142D02*
X126895717Y-112470714D01*
X128152860Y-112042142D02*
X128076669Y-112113571D01*
X128076669Y-112113571D02*
X127924288Y-112113571D01*
X127924288Y-112113571D02*
X127848098Y-112042142D01*
X127848098Y-112042142D02*
X127810002Y-111899285D01*
X127810002Y-111899285D02*
X127810002Y-111327857D01*
X127810002Y-111327857D02*
X127848098Y-111185000D01*
X127848098Y-111185000D02*
X127924288Y-111113571D01*
X127924288Y-111113571D02*
X128076669Y-111113571D01*
X128076669Y-111113571D02*
X128152860Y-111185000D01*
X128152860Y-111185000D02*
X128190955Y-111327857D01*
X128190955Y-111327857D02*
X128190955Y-111470714D01*
X128190955Y-111470714D02*
X127810002Y-111613571D01*
X128457621Y-112113571D02*
X128876669Y-111113571D01*
X128457621Y-111113571D02*
X128876669Y-112113571D01*
X129181431Y-111113571D02*
X129181431Y-112613571D01*
X129181431Y-111185000D02*
X129257621Y-111113571D01*
X129257621Y-111113571D02*
X129410002Y-111113571D01*
X129410002Y-111113571D02*
X129486193Y-111185000D01*
X129486193Y-111185000D02*
X129524288Y-111256428D01*
X129524288Y-111256428D02*
X129562383Y-111399285D01*
X129562383Y-111399285D02*
X129562383Y-111827857D01*
X129562383Y-111827857D02*
X129524288Y-111970714D01*
X129524288Y-111970714D02*
X129486193Y-112042142D01*
X129486193Y-112042142D02*
X129410002Y-112113571D01*
X129410002Y-112113571D02*
X129257621Y-112113571D01*
X129257621Y-112113571D02*
X129181431Y-112042142D01*
X130019526Y-112113571D02*
X129943336Y-112042142D01*
X129943336Y-112042142D02*
X129905241Y-111899285D01*
X129905241Y-111899285D02*
X129905241Y-110613571D01*
X130438574Y-112113571D02*
X130362384Y-112042142D01*
X130362384Y-112042142D02*
X130324289Y-111970714D01*
X130324289Y-111970714D02*
X130286193Y-111827857D01*
X130286193Y-111827857D02*
X130286193Y-111399285D01*
X130286193Y-111399285D02*
X130324289Y-111256428D01*
X130324289Y-111256428D02*
X130362384Y-111185000D01*
X130362384Y-111185000D02*
X130438574Y-111113571D01*
X130438574Y-111113571D02*
X130552860Y-111113571D01*
X130552860Y-111113571D02*
X130629051Y-111185000D01*
X130629051Y-111185000D02*
X130667146Y-111256428D01*
X130667146Y-111256428D02*
X130705241Y-111399285D01*
X130705241Y-111399285D02*
X130705241Y-111827857D01*
X130705241Y-111827857D02*
X130667146Y-111970714D01*
X130667146Y-111970714D02*
X130629051Y-112042142D01*
X130629051Y-112042142D02*
X130552860Y-112113571D01*
X130552860Y-112113571D02*
X130438574Y-112113571D01*
X131048099Y-112113571D02*
X131048099Y-111113571D01*
X131048099Y-111399285D02*
X131086194Y-111256428D01*
X131086194Y-111256428D02*
X131124289Y-111185000D01*
X131124289Y-111185000D02*
X131200480Y-111113571D01*
X131200480Y-111113571D02*
X131276670Y-111113571D01*
X131848099Y-112042142D02*
X131771908Y-112113571D01*
X131771908Y-112113571D02*
X131619527Y-112113571D01*
X131619527Y-112113571D02*
X131543337Y-112042142D01*
X131543337Y-112042142D02*
X131505241Y-111899285D01*
X131505241Y-111899285D02*
X131505241Y-111327857D01*
X131505241Y-111327857D02*
X131543337Y-111185000D01*
X131543337Y-111185000D02*
X131619527Y-111113571D01*
X131619527Y-111113571D02*
X131771908Y-111113571D01*
X131771908Y-111113571D02*
X131848099Y-111185000D01*
X131848099Y-111185000D02*
X131886194Y-111327857D01*
X131886194Y-111327857D02*
X131886194Y-111470714D01*
X131886194Y-111470714D02*
X131505241Y-111613571D01*
X132229051Y-112113571D02*
X132229051Y-111113571D01*
X132229051Y-111399285D02*
X132267146Y-111256428D01*
X132267146Y-111256428D02*
X132305241Y-111185000D01*
X132305241Y-111185000D02*
X132381432Y-111113571D01*
X132381432Y-111113571D02*
X132457622Y-111113571D01*
D11*
G36*
X171209119Y-73606737D02*
G01*
X171219995Y-73607602D01*
X171230514Y-73609042D01*
X171240677Y-73611059D01*
X171250483Y-73613653D01*
X171259933Y-73616822D01*
X171269026Y-73620568D01*
X171277762Y-73624890D01*
X171286142Y-73629788D01*
X171294165Y-73635262D01*
X171301831Y-73641313D01*
X171309141Y-73647940D01*
X171316095Y-73655143D01*
X171322692Y-73662923D01*
X171328932Y-73671279D01*
X171334815Y-73680211D01*
X171340343Y-73689719D01*
X171345513Y-73699803D01*
X171350327Y-73710464D01*
X171354784Y-73721701D01*
X171358885Y-73733515D01*
X171362629Y-73745904D01*
X171366017Y-73758870D01*
X171369048Y-73772412D01*
X171371722Y-73786531D01*
X171374040Y-73801225D01*
X171376001Y-73816496D01*
X171377606Y-73832343D01*
X171378854Y-73848767D01*
X171379745Y-73865766D01*
X171380280Y-73883342D01*
X171380458Y-73901495D01*
X171380363Y-73914112D01*
X171380078Y-73926470D01*
X171379603Y-73938570D01*
X171378938Y-73950412D01*
X171378082Y-73961995D01*
X171377037Y-73973319D01*
X171375801Y-73984385D01*
X171374375Y-73995192D01*
X171372759Y-74005741D01*
X171370953Y-74016031D01*
X171368957Y-74026063D01*
X171366771Y-74035836D01*
X171364395Y-74045350D01*
X171361829Y-74054606D01*
X171359072Y-74063604D01*
X171356126Y-74072342D01*
X171352989Y-74080823D01*
X171349662Y-74089044D01*
X171346145Y-74097008D01*
X171342438Y-74104712D01*
X171338541Y-74112158D01*
X171334454Y-74119346D01*
X171330177Y-74126275D01*
X171325710Y-74132945D01*
X171321052Y-74139357D01*
X171316205Y-74145510D01*
X171311167Y-74151405D01*
X171305939Y-74157041D01*
X171300522Y-74162419D01*
X171294914Y-74167538D01*
X171289116Y-74172399D01*
X171283128Y-74177001D01*
X171420514Y-74622500D01*
X171336250Y-74622500D01*
X171215961Y-74215835D01*
X171143421Y-74215835D01*
X171143421Y-74622500D01*
X171071369Y-74622500D01*
X171071369Y-73731257D01*
X171143421Y-73731257D01*
X171143421Y-74091027D01*
X171195811Y-74091027D01*
X171202865Y-74090856D01*
X171209677Y-74090344D01*
X171216248Y-74089490D01*
X171222578Y-74088295D01*
X171228667Y-74086758D01*
X171234514Y-74084879D01*
X171240119Y-74082659D01*
X171245484Y-74080097D01*
X171250607Y-74077194D01*
X171255488Y-74073949D01*
X171260128Y-74070363D01*
X171266636Y-74064343D01*
X171272600Y-74057554D01*
X171278022Y-74049997D01*
X171279708Y-74047308D01*
X171284466Y-74038649D01*
X171288756Y-74029067D01*
X171292577Y-74018562D01*
X171295931Y-74007133D01*
X171298817Y-73994782D01*
X171301235Y-73981508D01*
X171303185Y-73967311D01*
X171304225Y-73957333D01*
X171305057Y-73946945D01*
X171305681Y-73936147D01*
X171306097Y-73924938D01*
X171306305Y-73913320D01*
X171306331Y-73907356D01*
X171306228Y-73895809D01*
X171305920Y-73884676D01*
X171305408Y-73873957D01*
X171304690Y-73863652D01*
X171303767Y-73853761D01*
X171301997Y-73839701D01*
X171299767Y-73826573D01*
X171297074Y-73814376D01*
X171293921Y-73803111D01*
X171290305Y-73792778D01*
X171286228Y-73783376D01*
X171281690Y-73774906D01*
X171280075Y-73772290D01*
X171274878Y-73764957D01*
X171269089Y-73758345D01*
X171262708Y-73752455D01*
X171258125Y-73748929D01*
X171253278Y-73745723D01*
X171248168Y-73742838D01*
X171242795Y-73740273D01*
X171237158Y-73738029D01*
X171231258Y-73736106D01*
X171225095Y-73734503D01*
X171218668Y-73733221D01*
X171211978Y-73732259D01*
X171205025Y-73731618D01*
X171197808Y-73731297D01*
X171194101Y-73731257D01*
X171143421Y-73731257D01*
X171071369Y-73731257D01*
X171071369Y-73606449D01*
X171197887Y-73606449D01*
X171209119Y-73606737D01*
G37*
G36*
X171841589Y-74622500D02*
G01*
X171759890Y-74622500D01*
X171640333Y-74196051D01*
X171516868Y-74622500D01*
X171442862Y-74622500D01*
X171600765Y-74092004D01*
X171453365Y-73606449D01*
X171530912Y-73606449D01*
X171642409Y-73981606D01*
X171754883Y-73606449D01*
X171829621Y-73606449D01*
X171682342Y-74087852D01*
X171841589Y-74622500D01*
G37*
G36*
X172022350Y-73606578D02*
G01*
X172029114Y-73606964D01*
X172035783Y-73607606D01*
X172042356Y-73608506D01*
X172048835Y-73609663D01*
X172055217Y-73611077D01*
X172061505Y-73612749D01*
X172067697Y-73614677D01*
X172073793Y-73616863D01*
X172079794Y-73619305D01*
X172085700Y-73622005D01*
X172091510Y-73624962D01*
X172097225Y-73628176D01*
X172102845Y-73631647D01*
X172108369Y-73635376D01*
X172113797Y-73639361D01*
X172119131Y-73643604D01*
X172124369Y-73648103D01*
X172129511Y-73652860D01*
X172134558Y-73657874D01*
X172139510Y-73663145D01*
X172144366Y-73668673D01*
X172149127Y-73674458D01*
X172153792Y-73680501D01*
X172158362Y-73686800D01*
X172162837Y-73693357D01*
X172167216Y-73700171D01*
X172171500Y-73707241D01*
X172175688Y-73714569D01*
X172179781Y-73722155D01*
X172183779Y-73729997D01*
X172187681Y-73738096D01*
X172191483Y-73746425D01*
X172195164Y-73754957D01*
X172198724Y-73763690D01*
X172202164Y-73772626D01*
X172205483Y-73781764D01*
X172208681Y-73791104D01*
X172211759Y-73800647D01*
X172214716Y-73810392D01*
X172217552Y-73820339D01*
X172220267Y-73830489D01*
X172222862Y-73840840D01*
X172225336Y-73851394D01*
X172227690Y-73862151D01*
X172229923Y-73873109D01*
X172232035Y-73884270D01*
X172234026Y-73895633D01*
X172235897Y-73907198D01*
X172237647Y-73918966D01*
X172239276Y-73930935D01*
X172240785Y-73943107D01*
X172242173Y-73955482D01*
X172243440Y-73968058D01*
X172244586Y-73980837D01*
X172245612Y-73993818D01*
X172246517Y-74007002D01*
X172247302Y-74020387D01*
X172247966Y-74033975D01*
X172248509Y-74047766D01*
X172248931Y-74061758D01*
X172249233Y-74075953D01*
X172249414Y-74090350D01*
X172249474Y-74104949D01*
X172249412Y-74120467D01*
X172249224Y-74135758D01*
X172248912Y-74150822D01*
X172248475Y-74165659D01*
X172247912Y-74180268D01*
X172247225Y-74194651D01*
X172246412Y-74208806D01*
X172245475Y-74222735D01*
X172244413Y-74236436D01*
X172243225Y-74249911D01*
X172241913Y-74263158D01*
X172240476Y-74276178D01*
X172238913Y-74288972D01*
X172237226Y-74301538D01*
X172235414Y-74313877D01*
X172233476Y-74325989D01*
X172231414Y-74337874D01*
X172229227Y-74349531D01*
X172226915Y-74360962D01*
X172224478Y-74372166D01*
X172221915Y-74383142D01*
X172219228Y-74393892D01*
X172216416Y-74404414D01*
X172213479Y-74414710D01*
X172210417Y-74424778D01*
X172207230Y-74434620D01*
X172203918Y-74444234D01*
X172200481Y-74453621D01*
X172196919Y-74462781D01*
X172193232Y-74471714D01*
X172189420Y-74480420D01*
X172185483Y-74488899D01*
X172181436Y-74497118D01*
X172177279Y-74505077D01*
X172173011Y-74512775D01*
X172168634Y-74520211D01*
X172164146Y-74527387D01*
X172159548Y-74534302D01*
X172154840Y-74540956D01*
X172150022Y-74547349D01*
X172145093Y-74553481D01*
X172140055Y-74559352D01*
X172134906Y-74564962D01*
X172129647Y-74570312D01*
X172124277Y-74575400D01*
X172118798Y-74580227D01*
X172113208Y-74584794D01*
X172107508Y-74589099D01*
X172101698Y-74593144D01*
X172095778Y-74596927D01*
X172089747Y-74600450D01*
X172083607Y-74603712D01*
X172077356Y-74606713D01*
X172070995Y-74609453D01*
X172064524Y-74611931D01*
X172057942Y-74614149D01*
X172051251Y-74616106D01*
X172044449Y-74617803D01*
X172037537Y-74619238D01*
X172030514Y-74620412D01*
X172023382Y-74621325D01*
X172016139Y-74621978D01*
X172008787Y-74622369D01*
X172001324Y-74622500D01*
X171894101Y-74622500D01*
X171894101Y-73731257D01*
X171966153Y-73731257D01*
X171966153Y-74497691D01*
X171995218Y-74497691D01*
X172006217Y-74497312D01*
X172016867Y-74496174D01*
X172027169Y-74494278D01*
X172037120Y-74491623D01*
X172046723Y-74488210D01*
X172055977Y-74484039D01*
X172064881Y-74479108D01*
X172073436Y-74473420D01*
X172081642Y-74466973D01*
X172089499Y-74459767D01*
X172097007Y-74451803D01*
X172104165Y-74443080D01*
X172110974Y-74433599D01*
X172117434Y-74423360D01*
X172123545Y-74412361D01*
X172129307Y-74400605D01*
X172134719Y-74388090D01*
X172139783Y-74374816D01*
X172144497Y-74360784D01*
X172148862Y-74345994D01*
X172152877Y-74330445D01*
X172156544Y-74314137D01*
X172159861Y-74297071D01*
X172162829Y-74279247D01*
X172165448Y-74260664D01*
X172167718Y-74241322D01*
X172169638Y-74221222D01*
X172171210Y-74200364D01*
X172172432Y-74178747D01*
X172173305Y-74156372D01*
X172173829Y-74133238D01*
X172174003Y-74109345D01*
X172173842Y-74086084D01*
X172173357Y-74063561D01*
X172172550Y-74041777D01*
X172171420Y-74020731D01*
X172169966Y-74000423D01*
X172168190Y-73980854D01*
X172166091Y-73962024D01*
X172163669Y-73943932D01*
X172160924Y-73926578D01*
X172157856Y-73909963D01*
X172154465Y-73894086D01*
X172150751Y-73878948D01*
X172146714Y-73864548D01*
X172142354Y-73850887D01*
X172137671Y-73837964D01*
X172132665Y-73825779D01*
X172127336Y-73814333D01*
X172121685Y-73803626D01*
X172115710Y-73793657D01*
X172109413Y-73784426D01*
X172102792Y-73775934D01*
X172095848Y-73768180D01*
X172088582Y-73761165D01*
X172080993Y-73754888D01*
X172073080Y-73749349D01*
X172064845Y-73744550D01*
X172056287Y-73740488D01*
X172047405Y-73737165D01*
X172038201Y-73734580D01*
X172028674Y-73732734D01*
X172018824Y-73731627D01*
X172008651Y-73731257D01*
X171966153Y-73731257D01*
X171894101Y-73731257D01*
X171894101Y-73606449D01*
X172015490Y-73606449D01*
X172022350Y-73606578D01*
G37*
D12*
G36*
X152040446Y-89586575D02*
G01*
X152040446Y-89379579D01*
X152054871Y-89385372D01*
X152069249Y-89390981D01*
X152083579Y-89396406D01*
X152097862Y-89401647D01*
X152112098Y-89406704D01*
X152126287Y-89411577D01*
X152140428Y-89416267D01*
X152154523Y-89420772D01*
X152168570Y-89425094D01*
X152196522Y-89433185D01*
X152224286Y-89440541D01*
X152251860Y-89447161D01*
X152279246Y-89453046D01*
X152306443Y-89458195D01*
X152333451Y-89462609D01*
X152360270Y-89466287D01*
X152386900Y-89469229D01*
X152413341Y-89471436D01*
X152439594Y-89472907D01*
X152465657Y-89473643D01*
X152478618Y-89473735D01*
X152500076Y-89473503D01*
X152520853Y-89472807D01*
X152540948Y-89471648D01*
X152560363Y-89470025D01*
X152579096Y-89467939D01*
X152597148Y-89465388D01*
X152614519Y-89462375D01*
X152631209Y-89458897D01*
X152647217Y-89454956D01*
X152662544Y-89450551D01*
X152677190Y-89445682D01*
X152691155Y-89440350D01*
X152717041Y-89428294D01*
X152740202Y-89414384D01*
X152760638Y-89398619D01*
X152778350Y-89380999D01*
X152793336Y-89361524D01*
X152805598Y-89340195D01*
X152815135Y-89317011D01*
X152821947Y-89291972D01*
X152826034Y-89265079D01*
X152827397Y-89236331D01*
X152826785Y-89217708D01*
X152824949Y-89199897D01*
X152821890Y-89182898D01*
X152817608Y-89166710D01*
X152812102Y-89151333D01*
X152805372Y-89136768D01*
X152797418Y-89123015D01*
X152788241Y-89110072D01*
X152777841Y-89097942D01*
X152766217Y-89086622D01*
X152757787Y-89079527D01*
X152743415Y-89068951D01*
X152726403Y-89057970D01*
X152713595Y-89050424D01*
X152699613Y-89042697D01*
X152684457Y-89034790D01*
X152668128Y-89026703D01*
X152650626Y-89018435D01*
X152631950Y-89009988D01*
X152612100Y-89001359D01*
X152591077Y-88992551D01*
X152568881Y-88983562D01*
X152545511Y-88974393D01*
X152520967Y-88965044D01*
X152495250Y-88955514D01*
X152468360Y-88945804D01*
X152441721Y-88936114D01*
X152416027Y-88926186D01*
X152391277Y-88916021D01*
X152367472Y-88905618D01*
X152344611Y-88894978D01*
X152322695Y-88884100D01*
X152301724Y-88872985D01*
X152281697Y-88861632D01*
X152262615Y-88850041D01*
X152244477Y-88838213D01*
X152227283Y-88826147D01*
X152211034Y-88813844D01*
X152195730Y-88801303D01*
X152181370Y-88788525D01*
X152167955Y-88775509D01*
X152155484Y-88762255D01*
X152143905Y-88748588D01*
X152133073Y-88734423D01*
X152122988Y-88719760D01*
X152113650Y-88704599D01*
X152105059Y-88688939D01*
X152097215Y-88672782D01*
X152090119Y-88656127D01*
X152083769Y-88638974D01*
X152078166Y-88621322D01*
X152073310Y-88603173D01*
X152069201Y-88584526D01*
X152065840Y-88565380D01*
X152063225Y-88545737D01*
X152061358Y-88525595D01*
X152060237Y-88504956D01*
X152059863Y-88483818D01*
X152060396Y-88461007D01*
X152061993Y-88438824D01*
X152064655Y-88417272D01*
X152068381Y-88396349D01*
X152073173Y-88376056D01*
X152079029Y-88356392D01*
X152085950Y-88337359D01*
X152093935Y-88318954D01*
X152102986Y-88301180D01*
X152113101Y-88284035D01*
X152124281Y-88267520D01*
X152136525Y-88251635D01*
X152149834Y-88236379D01*
X152164209Y-88221753D01*
X152179647Y-88207757D01*
X152196151Y-88194391D01*
X152213572Y-88181747D01*
X152231763Y-88169919D01*
X152250723Y-88158906D01*
X152270454Y-88148710D01*
X152290955Y-88139329D01*
X152312225Y-88130763D01*
X152334266Y-88123014D01*
X152357076Y-88116080D01*
X152380657Y-88109962D01*
X152405007Y-88104660D01*
X152430127Y-88100173D01*
X152456018Y-88096503D01*
X152482678Y-88093648D01*
X152510108Y-88091608D01*
X152538308Y-88090385D01*
X152567278Y-88089977D01*
X152582130Y-88090060D01*
X152596918Y-88090310D01*
X152611642Y-88090727D01*
X152626303Y-88091311D01*
X152655433Y-88092978D01*
X152684308Y-88095312D01*
X152712929Y-88098313D01*
X152741295Y-88101981D01*
X152769407Y-88106316D01*
X152797263Y-88111318D01*
X152824865Y-88116986D01*
X152852212Y-88123322D01*
X152879304Y-88130324D01*
X152906142Y-88137993D01*
X152932725Y-88146330D01*
X152959053Y-88155333D01*
X152985126Y-88165003D01*
X153010945Y-88175340D01*
X152936573Y-88366582D01*
X152910754Y-88356378D01*
X152885231Y-88346833D01*
X152860002Y-88337945D01*
X152835067Y-88329716D01*
X152810428Y-88322146D01*
X152786083Y-88315234D01*
X152762033Y-88308980D01*
X152738278Y-88303384D01*
X152714818Y-88298447D01*
X152691653Y-88294168D01*
X152668782Y-88290547D01*
X152646207Y-88287585D01*
X152623926Y-88285280D01*
X152601939Y-88283635D01*
X152580248Y-88282647D01*
X152558852Y-88282318D01*
X152541000Y-88282517D01*
X152523715Y-88283112D01*
X152506997Y-88284105D01*
X152490845Y-88285495D01*
X152475260Y-88287282D01*
X152460242Y-88289466D01*
X152445791Y-88292048D01*
X152418588Y-88298402D01*
X152393653Y-88306345D01*
X152370984Y-88315876D01*
X152350582Y-88326996D01*
X152332447Y-88339704D01*
X152316579Y-88354001D01*
X152302978Y-88369886D01*
X152291643Y-88387360D01*
X152282576Y-88406422D01*
X152275775Y-88427073D01*
X152271241Y-88449313D01*
X152268974Y-88473141D01*
X152268691Y-88485650D01*
X152269258Y-88504062D01*
X152270958Y-88521791D01*
X152273792Y-88538838D01*
X152277759Y-88555202D01*
X152282859Y-88570884D01*
X152289093Y-88585882D01*
X152296460Y-88600198D01*
X152304961Y-88613832D01*
X152314595Y-88626783D01*
X152325363Y-88639051D01*
X152333171Y-88646851D01*
X152346599Y-88658422D01*
X152362563Y-88670193D01*
X152381065Y-88682164D01*
X152394810Y-88690256D01*
X152409682Y-88698436D01*
X152425682Y-88706705D01*
X152442809Y-88715063D01*
X152461064Y-88723509D01*
X152480447Y-88732044D01*
X152500958Y-88740668D01*
X152522597Y-88749381D01*
X152545363Y-88758182D01*
X152569256Y-88767072D01*
X152594278Y-88776051D01*
X152607212Y-88780573D01*
X152623075Y-88786305D01*
X152638607Y-88792052D01*
X152653809Y-88797814D01*
X152668681Y-88803591D01*
X152683221Y-88809384D01*
X152697432Y-88815191D01*
X152711311Y-88821013D01*
X152724860Y-88826850D01*
X152750967Y-88838569D01*
X152775751Y-88850349D01*
X152799212Y-88862188D01*
X152821352Y-88874088D01*
X152842168Y-88886048D01*
X152861663Y-88898068D01*
X152879835Y-88910148D01*
X152896685Y-88922288D01*
X152912213Y-88934488D01*
X152926418Y-88946748D01*
X152939301Y-88959069D01*
X152950861Y-88971449D01*
X152961464Y-88984036D01*
X152971383Y-88997066D01*
X152980618Y-89010540D01*
X152989169Y-89024458D01*
X152997036Y-89038819D01*
X153004219Y-89053624D01*
X153010718Y-89068872D01*
X153016532Y-89084564D01*
X153021663Y-89100700D01*
X153026109Y-89117279D01*
X153029872Y-89134302D01*
X153032950Y-89151769D01*
X153035344Y-89169680D01*
X153037054Y-89188034D01*
X153038080Y-89206831D01*
X153038422Y-89226072D01*
X153037850Y-89251104D01*
X153036133Y-89275457D01*
X153033270Y-89299132D01*
X153029263Y-89322129D01*
X153024111Y-89344447D01*
X153017814Y-89366087D01*
X153010373Y-89387048D01*
X153001786Y-89407331D01*
X152992054Y-89426936D01*
X152981178Y-89445862D01*
X152969157Y-89464110D01*
X152955990Y-89481680D01*
X152941679Y-89498572D01*
X152926223Y-89514785D01*
X152909622Y-89530319D01*
X152891877Y-89545176D01*
X152873089Y-89559195D01*
X152853363Y-89572310D01*
X152832697Y-89584520D01*
X152811093Y-89595826D01*
X152788551Y-89606227D01*
X152765069Y-89615724D01*
X152740648Y-89624316D01*
X152715289Y-89632004D01*
X152688991Y-89638787D01*
X152661754Y-89644667D01*
X152633578Y-89649641D01*
X152604464Y-89653711D01*
X152589555Y-89655407D01*
X152574411Y-89656877D01*
X152559032Y-89658120D01*
X152543418Y-89659138D01*
X152527570Y-89659929D01*
X152511488Y-89660495D01*
X152495170Y-89660834D01*
X152478618Y-89660947D01*
X152461509Y-89660874D01*
X152444620Y-89660656D01*
X152427952Y-89660293D01*
X152411504Y-89659785D01*
X152395277Y-89659131D01*
X152379270Y-89658332D01*
X152363484Y-89657388D01*
X152347917Y-89656299D01*
X152332572Y-89655064D01*
X152317446Y-89653684D01*
X152302541Y-89652159D01*
X152287856Y-89650488D01*
X152259148Y-89646712D01*
X152231322Y-89642354D01*
X152204377Y-89637415D01*
X152178314Y-89631895D01*
X152153132Y-89625794D01*
X152128831Y-89619113D01*
X152105413Y-89611850D01*
X152082876Y-89604006D01*
X152061220Y-89595581D01*
X152040446Y-89586575D01*
G37*
G36*
X153702274Y-88582370D02*
G01*
X153902309Y-88582370D01*
X154054351Y-89123857D01*
X154061937Y-89151502D01*
X154069034Y-89178107D01*
X154075641Y-89203674D01*
X154081759Y-89228202D01*
X154087388Y-89251691D01*
X154092527Y-89274141D01*
X154097176Y-89295551D01*
X154101337Y-89315923D01*
X154105008Y-89335256D01*
X154108189Y-89353550D01*
X154110881Y-89370805D01*
X154113083Y-89387021D01*
X154114796Y-89402198D01*
X154116448Y-89423015D01*
X154116999Y-89441495D01*
X154115866Y-89426498D01*
X154115838Y-89411363D01*
X154116390Y-89392117D01*
X154117524Y-89368761D01*
X154119238Y-89341295D01*
X154120313Y-89326021D01*
X154121534Y-89309719D01*
X154122899Y-89292390D01*
X154124410Y-89274033D01*
X154126066Y-89254649D01*
X154127868Y-89234237D01*
X154129814Y-89212797D01*
X154131906Y-89190330D01*
X154134144Y-89166836D01*
X154136526Y-89142314D01*
X154139054Y-89116764D01*
X154141727Y-89090187D01*
X154144545Y-89062582D01*
X154147508Y-89033950D01*
X154150617Y-89004290D01*
X154153871Y-88973603D01*
X154157270Y-88941888D01*
X154160815Y-88909146D01*
X154164505Y-88875376D01*
X154168340Y-88840579D01*
X154172320Y-88804754D01*
X154245593Y-88113424D01*
X154444528Y-88113424D01*
X154248890Y-89637500D01*
X154034200Y-89637500D01*
X153858712Y-89035563D01*
X153853639Y-89018018D01*
X153848769Y-89000919D01*
X153844102Y-88984266D01*
X153839638Y-88968060D01*
X153835378Y-88952301D01*
X153831321Y-88936988D01*
X153827467Y-88922122D01*
X153823816Y-88907702D01*
X153818721Y-88886909D01*
X153814083Y-88867121D01*
X153809902Y-88848338D01*
X153806179Y-88830559D01*
X153802913Y-88813785D01*
X153801926Y-88808417D01*
X153797763Y-88829977D01*
X153793382Y-88851518D01*
X153790339Y-88865868D01*
X153787199Y-88880209D01*
X153783962Y-88894541D01*
X153780628Y-88908865D01*
X153777196Y-88923181D01*
X153773667Y-88937488D01*
X153770040Y-88951786D01*
X153766317Y-88966075D01*
X153762496Y-88980356D01*
X153758577Y-88994629D01*
X153754561Y-89008893D01*
X153750448Y-89023148D01*
X153746238Y-89037395D01*
X153582840Y-89637500D01*
X153368150Y-89637500D01*
X153155659Y-88113424D01*
X153354595Y-88113424D01*
X153446919Y-88804387D01*
X153449827Y-88827116D01*
X153452689Y-88850057D01*
X153455505Y-88873209D01*
X153458276Y-88896574D01*
X153461001Y-88920150D01*
X153463680Y-88943938D01*
X153466313Y-88967937D01*
X153468900Y-88992149D01*
X153471442Y-89016572D01*
X153473938Y-89041207D01*
X153476388Y-89066054D01*
X153478792Y-89091113D01*
X153481151Y-89116384D01*
X153483463Y-89141866D01*
X153485730Y-89167560D01*
X153487951Y-89193466D01*
X153490035Y-89218778D01*
X153491890Y-89242782D01*
X153493516Y-89265478D01*
X153494912Y-89286866D01*
X153496080Y-89306946D01*
X153497019Y-89325718D01*
X153497729Y-89343182D01*
X153498210Y-89359337D01*
X153498461Y-89374185D01*
X153498410Y-89394004D01*
X153497843Y-89410880D01*
X153496286Y-89428804D01*
X153493813Y-89441495D01*
X153495596Y-89421815D01*
X153497649Y-89402070D01*
X153499970Y-89382260D01*
X153502560Y-89362383D01*
X153505419Y-89342440D01*
X153508548Y-89322432D01*
X153511945Y-89302358D01*
X153515612Y-89282218D01*
X153519547Y-89262012D01*
X153523752Y-89241740D01*
X153528226Y-89221403D01*
X153532968Y-89200999D01*
X153537980Y-89180530D01*
X153543261Y-89159995D01*
X153548811Y-89139394D01*
X153554630Y-89118728D01*
X153702274Y-88582370D01*
G37*
G36*
X155470348Y-89637500D02*
G01*
X154647494Y-89637500D01*
X154647494Y-89488023D01*
X154951577Y-89467506D01*
X154951577Y-88283417D01*
X154647494Y-88262901D01*
X154647494Y-88113424D01*
X155470348Y-88113424D01*
X155470348Y-88262901D01*
X155167365Y-88283417D01*
X155167365Y-89467506D01*
X155470348Y-89488023D01*
X155470348Y-89637500D01*
G37*
G36*
X156341095Y-88090177D02*
G01*
X156357600Y-88090778D01*
X156373856Y-88091780D01*
X156389865Y-88093183D01*
X156405627Y-88094986D01*
X156421141Y-88097190D01*
X156436407Y-88099794D01*
X156451426Y-88102800D01*
X156466197Y-88106206D01*
X156480721Y-88110012D01*
X156494997Y-88114220D01*
X156509025Y-88118828D01*
X156522806Y-88123837D01*
X156549625Y-88135057D01*
X156575454Y-88147880D01*
X156600292Y-88162305D01*
X156624140Y-88178334D01*
X156646998Y-88195965D01*
X156668865Y-88215199D01*
X156679428Y-88225417D01*
X156689743Y-88236036D01*
X156699810Y-88247056D01*
X156709629Y-88258476D01*
X156719201Y-88270297D01*
X156728526Y-88282518D01*
X156737602Y-88295141D01*
X156746438Y-88308107D01*
X156754993Y-88321406D01*
X156763268Y-88335038D01*
X156771262Y-88349002D01*
X156778976Y-88363299D01*
X156786409Y-88377929D01*
X156793562Y-88392892D01*
X156800434Y-88408187D01*
X156807026Y-88423815D01*
X156813337Y-88439776D01*
X156819367Y-88456070D01*
X156825118Y-88472696D01*
X156830587Y-88489655D01*
X156835777Y-88506947D01*
X156840685Y-88524571D01*
X156845314Y-88542528D01*
X156849661Y-88560818D01*
X156853728Y-88579441D01*
X156857515Y-88598396D01*
X156861021Y-88617684D01*
X156864247Y-88637305D01*
X156867192Y-88657259D01*
X156869857Y-88677545D01*
X156872241Y-88698164D01*
X156874345Y-88719116D01*
X156876168Y-88740401D01*
X156877711Y-88762018D01*
X156878973Y-88783968D01*
X156879955Y-88806251D01*
X156880656Y-88828866D01*
X156881077Y-88851815D01*
X156881217Y-88875095D01*
X156881076Y-88898355D01*
X156880651Y-88921283D01*
X156879942Y-88943881D01*
X156878950Y-88966148D01*
X156877675Y-88988085D01*
X156876117Y-89009691D01*
X156874275Y-89030967D01*
X156872150Y-89051912D01*
X156869741Y-89072526D01*
X156867049Y-89092810D01*
X156864074Y-89112764D01*
X156860815Y-89132386D01*
X156857273Y-89151678D01*
X156853448Y-89170640D01*
X156849339Y-89189271D01*
X156844947Y-89207571D01*
X156840272Y-89225541D01*
X156835313Y-89243180D01*
X156830071Y-89260488D01*
X156824545Y-89277466D01*
X156818736Y-89294114D01*
X156812644Y-89310431D01*
X156806269Y-89326417D01*
X156799610Y-89342073D01*
X156792667Y-89357398D01*
X156785442Y-89372392D01*
X156777933Y-89387056D01*
X156770140Y-89401389D01*
X156762064Y-89415392D01*
X156753705Y-89429064D01*
X156745063Y-89442406D01*
X156736137Y-89455416D01*
X156726971Y-89468061D01*
X156717561Y-89480305D01*
X156707908Y-89492147D01*
X156698012Y-89503588D01*
X156687873Y-89514627D01*
X156677490Y-89525265D01*
X156666864Y-89535501D01*
X156655995Y-89545336D01*
X156633526Y-89563802D01*
X156610085Y-89580662D01*
X156585670Y-89595916D01*
X156560282Y-89609564D01*
X156533921Y-89621607D01*
X156506587Y-89632044D01*
X156492555Y-89636661D01*
X156478279Y-89640875D01*
X156463761Y-89644689D01*
X156448999Y-89648101D01*
X156433994Y-89651112D01*
X156418745Y-89653721D01*
X156403254Y-89655929D01*
X156387518Y-89657735D01*
X156371540Y-89659140D01*
X156355318Y-89660144D01*
X156338854Y-89660746D01*
X156322145Y-89660947D01*
X156287704Y-89660177D01*
X156254357Y-89657868D01*
X156222102Y-89654021D01*
X156190941Y-89648634D01*
X156160874Y-89641707D01*
X156131899Y-89633242D01*
X156104018Y-89623237D01*
X156077231Y-89611694D01*
X156051537Y-89598611D01*
X156026936Y-89583989D01*
X156003428Y-89567828D01*
X155981014Y-89550127D01*
X155959694Y-89530888D01*
X155939466Y-89510109D01*
X155920332Y-89487791D01*
X155902292Y-89463934D01*
X155885345Y-89438538D01*
X155869491Y-89411603D01*
X155854730Y-89383129D01*
X155841063Y-89353115D01*
X155828490Y-89321562D01*
X155817009Y-89288470D01*
X155806622Y-89253839D01*
X155797329Y-89217669D01*
X155789128Y-89179960D01*
X155782021Y-89140711D01*
X155776008Y-89099923D01*
X155771088Y-89057596D01*
X155767261Y-89013730D01*
X155764527Y-88968325D01*
X155762887Y-88921381D01*
X155762358Y-88874363D01*
X155988754Y-88874363D01*
X155989079Y-88910923D01*
X155990056Y-88946322D01*
X155991684Y-88980560D01*
X155993963Y-89013638D01*
X155996893Y-89045556D01*
X156000475Y-89076312D01*
X156004707Y-89105909D01*
X156009591Y-89134344D01*
X156015126Y-89161619D01*
X156021312Y-89187733D01*
X156028149Y-89212687D01*
X156035637Y-89236479D01*
X156043776Y-89259112D01*
X156052567Y-89280583D01*
X156062009Y-89300894D01*
X156072102Y-89320045D01*
X156082846Y-89338035D01*
X156094241Y-89354864D01*
X156106287Y-89370532D01*
X156118985Y-89385040D01*
X156132334Y-89398387D01*
X156146333Y-89410574D01*
X156160984Y-89421600D01*
X156176287Y-89431465D01*
X156192240Y-89440170D01*
X156208844Y-89447714D01*
X156226100Y-89454098D01*
X156244007Y-89459321D01*
X156262565Y-89463383D01*
X156281774Y-89466284D01*
X156301634Y-89468025D01*
X156322145Y-89468606D01*
X156343223Y-89468042D01*
X156363590Y-89466350D01*
X156383248Y-89463531D01*
X156402196Y-89459584D01*
X156420434Y-89454509D01*
X156437962Y-89448307D01*
X156454781Y-89440977D01*
X156470889Y-89432519D01*
X156486288Y-89422933D01*
X156500977Y-89412220D01*
X156514956Y-89400379D01*
X156528225Y-89387410D01*
X156540785Y-89373314D01*
X156552634Y-89358089D01*
X156563774Y-89341738D01*
X156574204Y-89324258D01*
X156583964Y-89305542D01*
X156593095Y-89285572D01*
X156601595Y-89264349D01*
X156609467Y-89241872D01*
X156616708Y-89218141D01*
X156623320Y-89193157D01*
X156629302Y-89166919D01*
X156634654Y-89139427D01*
X156639377Y-89110682D01*
X156641502Y-89095839D01*
X156643470Y-89080683D01*
X156645280Y-89065213D01*
X156646933Y-89049430D01*
X156648429Y-89033334D01*
X156649767Y-89016924D01*
X156650947Y-89000201D01*
X156651971Y-88983164D01*
X156652836Y-88965814D01*
X156653545Y-88948151D01*
X156654096Y-88930174D01*
X156654489Y-88911884D01*
X156654725Y-88893280D01*
X156654804Y-88874363D01*
X156654724Y-88855290D01*
X156654485Y-88836541D01*
X156654086Y-88818116D01*
X156653528Y-88800014D01*
X156652809Y-88782235D01*
X156651932Y-88764780D01*
X156650895Y-88747648D01*
X156649698Y-88730840D01*
X156648342Y-88714355D01*
X156646826Y-88698193D01*
X156645150Y-88682355D01*
X156643315Y-88666840D01*
X156641321Y-88651649D01*
X156639166Y-88636781D01*
X156636853Y-88622237D01*
X156631746Y-88594118D01*
X156626002Y-88567294D01*
X156619619Y-88541763D01*
X156612598Y-88517525D01*
X156604939Y-88494582D01*
X156596641Y-88472932D01*
X156587705Y-88452576D01*
X156578131Y-88433513D01*
X156573105Y-88424467D01*
X156562559Y-88407254D01*
X156551346Y-88391151D01*
X156539467Y-88376159D01*
X156526920Y-88362277D01*
X156513707Y-88349506D01*
X156499826Y-88337845D01*
X156485279Y-88327295D01*
X156470065Y-88317855D01*
X156454184Y-88309526D01*
X156437636Y-88302308D01*
X156420421Y-88296200D01*
X156402539Y-88291202D01*
X156383991Y-88287316D01*
X156364775Y-88284539D01*
X156344893Y-88282873D01*
X156324344Y-88282318D01*
X156303697Y-88282896D01*
X156283706Y-88284631D01*
X156264370Y-88287522D01*
X156245690Y-88291569D01*
X156227665Y-88296772D01*
X156210295Y-88303132D01*
X156193582Y-88310648D01*
X156177523Y-88319321D01*
X156162120Y-88329150D01*
X156147372Y-88340135D01*
X156133280Y-88352276D01*
X156119844Y-88365574D01*
X156107062Y-88380029D01*
X156094937Y-88395639D01*
X156083466Y-88412406D01*
X156072651Y-88430329D01*
X156062492Y-88449409D01*
X156052988Y-88469645D01*
X156044139Y-88491037D01*
X156035946Y-88513586D01*
X156028409Y-88537290D01*
X156021526Y-88562152D01*
X156015300Y-88588169D01*
X156009728Y-88615343D01*
X156004812Y-88643673D01*
X156000552Y-88673160D01*
X155996947Y-88703803D01*
X155993997Y-88735602D01*
X155991703Y-88768558D01*
X155990065Y-88802670D01*
X155989082Y-88837938D01*
X155988754Y-88874363D01*
X155762358Y-88874363D01*
X155762341Y-88872897D01*
X155762890Y-88824729D01*
X155764536Y-88778090D01*
X155767280Y-88732981D01*
X155771122Y-88689400D01*
X155776062Y-88647349D01*
X155782099Y-88606827D01*
X155789233Y-88567834D01*
X155797466Y-88530370D01*
X155806796Y-88494435D01*
X155817224Y-88460029D01*
X155828749Y-88427153D01*
X155841372Y-88395805D01*
X155855093Y-88365987D01*
X155869912Y-88337698D01*
X155885828Y-88310938D01*
X155902841Y-88285707D01*
X155920953Y-88262005D01*
X155940162Y-88239833D01*
X155960469Y-88219189D01*
X155981873Y-88200075D01*
X156004375Y-88182490D01*
X156027975Y-88166434D01*
X156052672Y-88151907D01*
X156078467Y-88138909D01*
X156105360Y-88127441D01*
X156133350Y-88117501D01*
X156162438Y-88109091D01*
X156192624Y-88102210D01*
X156223907Y-88096858D01*
X156256289Y-88093035D01*
X156289767Y-88090741D01*
X156324344Y-88089977D01*
X156341095Y-88090177D01*
G37*
G36*
X152040446Y-87086575D02*
G01*
X152040446Y-86879579D01*
X152054871Y-86885372D01*
X152069249Y-86890981D01*
X152083579Y-86896406D01*
X152097862Y-86901647D01*
X152112098Y-86906704D01*
X152126287Y-86911577D01*
X152140428Y-86916267D01*
X152154523Y-86920772D01*
X152168570Y-86925094D01*
X152196522Y-86933185D01*
X152224286Y-86940541D01*
X152251860Y-86947161D01*
X152279246Y-86953046D01*
X152306443Y-86958195D01*
X152333451Y-86962609D01*
X152360270Y-86966287D01*
X152386900Y-86969229D01*
X152413341Y-86971436D01*
X152439594Y-86972907D01*
X152465657Y-86973643D01*
X152478618Y-86973735D01*
X152500076Y-86973503D01*
X152520853Y-86972807D01*
X152540948Y-86971648D01*
X152560363Y-86970025D01*
X152579096Y-86967939D01*
X152597148Y-86965388D01*
X152614519Y-86962375D01*
X152631209Y-86958897D01*
X152647217Y-86954956D01*
X152662544Y-86950551D01*
X152677190Y-86945682D01*
X152691155Y-86940350D01*
X152717041Y-86928294D01*
X152740202Y-86914384D01*
X152760638Y-86898619D01*
X152778350Y-86880999D01*
X152793336Y-86861524D01*
X152805598Y-86840195D01*
X152815135Y-86817011D01*
X152821947Y-86791972D01*
X152826034Y-86765079D01*
X152827397Y-86736331D01*
X152826785Y-86717708D01*
X152824949Y-86699897D01*
X152821890Y-86682898D01*
X152817608Y-86666710D01*
X152812102Y-86651333D01*
X152805372Y-86636768D01*
X152797418Y-86623015D01*
X152788241Y-86610072D01*
X152777841Y-86597942D01*
X152766217Y-86586622D01*
X152757787Y-86579527D01*
X152743415Y-86568951D01*
X152726403Y-86557970D01*
X152713595Y-86550424D01*
X152699613Y-86542697D01*
X152684457Y-86534790D01*
X152668128Y-86526703D01*
X152650626Y-86518435D01*
X152631950Y-86509988D01*
X152612100Y-86501359D01*
X152591077Y-86492551D01*
X152568881Y-86483562D01*
X152545511Y-86474393D01*
X152520967Y-86465044D01*
X152495250Y-86455514D01*
X152468360Y-86445804D01*
X152441721Y-86436114D01*
X152416027Y-86426186D01*
X152391277Y-86416021D01*
X152367472Y-86405618D01*
X152344611Y-86394978D01*
X152322695Y-86384100D01*
X152301724Y-86372985D01*
X152281697Y-86361632D01*
X152262615Y-86350041D01*
X152244477Y-86338213D01*
X152227283Y-86326147D01*
X152211034Y-86313844D01*
X152195730Y-86301303D01*
X152181370Y-86288525D01*
X152167955Y-86275509D01*
X152155484Y-86262255D01*
X152143905Y-86248588D01*
X152133073Y-86234423D01*
X152122988Y-86219760D01*
X152113650Y-86204599D01*
X152105059Y-86188939D01*
X152097215Y-86172782D01*
X152090119Y-86156127D01*
X152083769Y-86138974D01*
X152078166Y-86121322D01*
X152073310Y-86103173D01*
X152069201Y-86084526D01*
X152065840Y-86065380D01*
X152063225Y-86045737D01*
X152061358Y-86025595D01*
X152060237Y-86004956D01*
X152059863Y-85983818D01*
X152060396Y-85961007D01*
X152061993Y-85938824D01*
X152064655Y-85917272D01*
X152068381Y-85896349D01*
X152073173Y-85876056D01*
X152079029Y-85856392D01*
X152085950Y-85837359D01*
X152093935Y-85818954D01*
X152102986Y-85801180D01*
X152113101Y-85784035D01*
X152124281Y-85767520D01*
X152136525Y-85751635D01*
X152149834Y-85736379D01*
X152164209Y-85721753D01*
X152179647Y-85707757D01*
X152196151Y-85694391D01*
X152213572Y-85681747D01*
X152231763Y-85669919D01*
X152250723Y-85658906D01*
X152270454Y-85648710D01*
X152290955Y-85639329D01*
X152312225Y-85630763D01*
X152334266Y-85623014D01*
X152357076Y-85616080D01*
X152380657Y-85609962D01*
X152405007Y-85604660D01*
X152430127Y-85600173D01*
X152456018Y-85596503D01*
X152482678Y-85593648D01*
X152510108Y-85591608D01*
X152538308Y-85590385D01*
X152567278Y-85589977D01*
X152582130Y-85590060D01*
X152596918Y-85590310D01*
X152611642Y-85590727D01*
X152626303Y-85591311D01*
X152655433Y-85592978D01*
X152684308Y-85595312D01*
X152712929Y-85598313D01*
X152741295Y-85601981D01*
X152769407Y-85606316D01*
X152797263Y-85611318D01*
X152824865Y-85616986D01*
X152852212Y-85623322D01*
X152879304Y-85630324D01*
X152906142Y-85637993D01*
X152932725Y-85646330D01*
X152959053Y-85655333D01*
X152985126Y-85665003D01*
X153010945Y-85675340D01*
X152936573Y-85866582D01*
X152910754Y-85856378D01*
X152885231Y-85846833D01*
X152860002Y-85837945D01*
X152835067Y-85829716D01*
X152810428Y-85822146D01*
X152786083Y-85815234D01*
X152762033Y-85808980D01*
X152738278Y-85803384D01*
X152714818Y-85798447D01*
X152691653Y-85794168D01*
X152668782Y-85790547D01*
X152646207Y-85787585D01*
X152623926Y-85785280D01*
X152601939Y-85783635D01*
X152580248Y-85782647D01*
X152558852Y-85782318D01*
X152541000Y-85782517D01*
X152523715Y-85783112D01*
X152506997Y-85784105D01*
X152490845Y-85785495D01*
X152475260Y-85787282D01*
X152460242Y-85789466D01*
X152445791Y-85792048D01*
X152418588Y-85798402D01*
X152393653Y-85806345D01*
X152370984Y-85815876D01*
X152350582Y-85826996D01*
X152332447Y-85839704D01*
X152316579Y-85854001D01*
X152302978Y-85869886D01*
X152291643Y-85887360D01*
X152282576Y-85906422D01*
X152275775Y-85927073D01*
X152271241Y-85949313D01*
X152268974Y-85973141D01*
X152268691Y-85985650D01*
X152269258Y-86004062D01*
X152270958Y-86021791D01*
X152273792Y-86038838D01*
X152277759Y-86055202D01*
X152282859Y-86070884D01*
X152289093Y-86085882D01*
X152296460Y-86100198D01*
X152304961Y-86113832D01*
X152314595Y-86126783D01*
X152325363Y-86139051D01*
X152333171Y-86146851D01*
X152346599Y-86158422D01*
X152362563Y-86170193D01*
X152381065Y-86182164D01*
X152394810Y-86190256D01*
X152409682Y-86198436D01*
X152425682Y-86206705D01*
X152442809Y-86215063D01*
X152461064Y-86223509D01*
X152480447Y-86232044D01*
X152500958Y-86240668D01*
X152522597Y-86249381D01*
X152545363Y-86258182D01*
X152569256Y-86267072D01*
X152594278Y-86276051D01*
X152607212Y-86280573D01*
X152623075Y-86286305D01*
X152638607Y-86292052D01*
X152653809Y-86297814D01*
X152668681Y-86303591D01*
X152683221Y-86309384D01*
X152697432Y-86315191D01*
X152711311Y-86321013D01*
X152724860Y-86326850D01*
X152750967Y-86338569D01*
X152775751Y-86350349D01*
X152799212Y-86362188D01*
X152821352Y-86374088D01*
X152842168Y-86386048D01*
X152861663Y-86398068D01*
X152879835Y-86410148D01*
X152896685Y-86422288D01*
X152912213Y-86434488D01*
X152926418Y-86446748D01*
X152939301Y-86459069D01*
X152950861Y-86471449D01*
X152961464Y-86484036D01*
X152971383Y-86497066D01*
X152980618Y-86510540D01*
X152989169Y-86524458D01*
X152997036Y-86538819D01*
X153004219Y-86553624D01*
X153010718Y-86568872D01*
X153016532Y-86584564D01*
X153021663Y-86600700D01*
X153026109Y-86617279D01*
X153029872Y-86634302D01*
X153032950Y-86651769D01*
X153035344Y-86669680D01*
X153037054Y-86688034D01*
X153038080Y-86706831D01*
X153038422Y-86726072D01*
X153037850Y-86751104D01*
X153036133Y-86775457D01*
X153033270Y-86799132D01*
X153029263Y-86822129D01*
X153024111Y-86844447D01*
X153017814Y-86866087D01*
X153010373Y-86887048D01*
X153001786Y-86907331D01*
X152992054Y-86926936D01*
X152981178Y-86945862D01*
X152969157Y-86964110D01*
X152955990Y-86981680D01*
X152941679Y-86998572D01*
X152926223Y-87014785D01*
X152909622Y-87030319D01*
X152891877Y-87045176D01*
X152873089Y-87059195D01*
X152853363Y-87072310D01*
X152832697Y-87084520D01*
X152811093Y-87095826D01*
X152788551Y-87106227D01*
X152765069Y-87115724D01*
X152740648Y-87124316D01*
X152715289Y-87132004D01*
X152688991Y-87138787D01*
X152661754Y-87144667D01*
X152633578Y-87149641D01*
X152604464Y-87153711D01*
X152589555Y-87155407D01*
X152574411Y-87156877D01*
X152559032Y-87158120D01*
X152543418Y-87159138D01*
X152527570Y-87159929D01*
X152511488Y-87160495D01*
X152495170Y-87160834D01*
X152478618Y-87160947D01*
X152461509Y-87160874D01*
X152444620Y-87160656D01*
X152427952Y-87160293D01*
X152411504Y-87159785D01*
X152395277Y-87159131D01*
X152379270Y-87158332D01*
X152363484Y-87157388D01*
X152347917Y-87156299D01*
X152332572Y-87155064D01*
X152317446Y-87153684D01*
X152302541Y-87152159D01*
X152287856Y-87150488D01*
X152259148Y-87146712D01*
X152231322Y-87142354D01*
X152204377Y-87137415D01*
X152178314Y-87131895D01*
X152153132Y-87125794D01*
X152128831Y-87119113D01*
X152105413Y-87111850D01*
X152082876Y-87104006D01*
X152061220Y-87095581D01*
X152040446Y-87086575D01*
G37*
G36*
X153702274Y-86082370D02*
G01*
X153902309Y-86082370D01*
X154054351Y-86623857D01*
X154061937Y-86651502D01*
X154069034Y-86678107D01*
X154075641Y-86703674D01*
X154081759Y-86728202D01*
X154087388Y-86751691D01*
X154092527Y-86774141D01*
X154097176Y-86795551D01*
X154101337Y-86815923D01*
X154105008Y-86835256D01*
X154108189Y-86853550D01*
X154110881Y-86870805D01*
X154113083Y-86887021D01*
X154114796Y-86902198D01*
X154116448Y-86923015D01*
X154116999Y-86941495D01*
X154115866Y-86926498D01*
X154115838Y-86911363D01*
X154116390Y-86892117D01*
X154117524Y-86868761D01*
X154119238Y-86841295D01*
X154120313Y-86826021D01*
X154121534Y-86809719D01*
X154122899Y-86792390D01*
X154124410Y-86774033D01*
X154126066Y-86754649D01*
X154127868Y-86734237D01*
X154129814Y-86712797D01*
X154131906Y-86690330D01*
X154134144Y-86666836D01*
X154136526Y-86642314D01*
X154139054Y-86616764D01*
X154141727Y-86590187D01*
X154144545Y-86562582D01*
X154147508Y-86533950D01*
X154150617Y-86504290D01*
X154153871Y-86473603D01*
X154157270Y-86441888D01*
X154160815Y-86409146D01*
X154164505Y-86375376D01*
X154168340Y-86340579D01*
X154172320Y-86304754D01*
X154245593Y-85613424D01*
X154444528Y-85613424D01*
X154248890Y-87137500D01*
X154034200Y-87137500D01*
X153858712Y-86535563D01*
X153853639Y-86518018D01*
X153848769Y-86500919D01*
X153844102Y-86484266D01*
X153839638Y-86468060D01*
X153835378Y-86452301D01*
X153831321Y-86436988D01*
X153827467Y-86422122D01*
X153823816Y-86407702D01*
X153818721Y-86386909D01*
X153814083Y-86367121D01*
X153809902Y-86348338D01*
X153806179Y-86330559D01*
X153802913Y-86313785D01*
X153801926Y-86308417D01*
X153797763Y-86329977D01*
X153793382Y-86351518D01*
X153790339Y-86365868D01*
X153787199Y-86380209D01*
X153783962Y-86394541D01*
X153780628Y-86408865D01*
X153777196Y-86423181D01*
X153773667Y-86437488D01*
X153770040Y-86451786D01*
X153766317Y-86466075D01*
X153762496Y-86480356D01*
X153758577Y-86494629D01*
X153754561Y-86508893D01*
X153750448Y-86523148D01*
X153746238Y-86537395D01*
X153582840Y-87137500D01*
X153368150Y-87137500D01*
X153155659Y-85613424D01*
X153354595Y-85613424D01*
X153446919Y-86304387D01*
X153449827Y-86327116D01*
X153452689Y-86350057D01*
X153455505Y-86373209D01*
X153458276Y-86396574D01*
X153461001Y-86420150D01*
X153463680Y-86443938D01*
X153466313Y-86467937D01*
X153468900Y-86492149D01*
X153471442Y-86516572D01*
X153473938Y-86541207D01*
X153476388Y-86566054D01*
X153478792Y-86591113D01*
X153481151Y-86616384D01*
X153483463Y-86641866D01*
X153485730Y-86667560D01*
X153487951Y-86693466D01*
X153490035Y-86718778D01*
X153491890Y-86742782D01*
X153493516Y-86765478D01*
X153494912Y-86786866D01*
X153496080Y-86806946D01*
X153497019Y-86825718D01*
X153497729Y-86843182D01*
X153498210Y-86859337D01*
X153498461Y-86874185D01*
X153498410Y-86894004D01*
X153497843Y-86910880D01*
X153496286Y-86928804D01*
X153493813Y-86941495D01*
X153495596Y-86921815D01*
X153497649Y-86902070D01*
X153499970Y-86882260D01*
X153502560Y-86862383D01*
X153505419Y-86842440D01*
X153508548Y-86822432D01*
X153511945Y-86802358D01*
X153515612Y-86782218D01*
X153519547Y-86762012D01*
X153523752Y-86741740D01*
X153528226Y-86721403D01*
X153532968Y-86700999D01*
X153537980Y-86680530D01*
X153543261Y-86659995D01*
X153548811Y-86639394D01*
X153554630Y-86618728D01*
X153702274Y-86082370D01*
G37*
G36*
X155597110Y-86904858D02*
G01*
X155597110Y-87096100D01*
X155576862Y-87103953D01*
X155556141Y-87111299D01*
X155534947Y-87118138D01*
X155513282Y-87124471D01*
X155491144Y-87130297D01*
X155468534Y-87135616D01*
X155445451Y-87140429D01*
X155421897Y-87144735D01*
X155397870Y-87148535D01*
X155373371Y-87151828D01*
X155348399Y-87154614D01*
X155322955Y-87156894D01*
X155297040Y-87158667D01*
X155270651Y-87159934D01*
X155243791Y-87160694D01*
X155216458Y-87160947D01*
X155196364Y-87160746D01*
X155176567Y-87160144D01*
X155157066Y-87159140D01*
X155137861Y-87157735D01*
X155118953Y-87155929D01*
X155100341Y-87153721D01*
X155082024Y-87151112D01*
X155064005Y-87148101D01*
X155046281Y-87144689D01*
X155028854Y-87140875D01*
X155011723Y-87136661D01*
X154994888Y-87132044D01*
X154978349Y-87127026D01*
X154962107Y-87121607D01*
X154946161Y-87115786D01*
X154930511Y-87109564D01*
X154915157Y-87102941D01*
X154900100Y-87095916D01*
X154885338Y-87088489D01*
X154870873Y-87080662D01*
X154856705Y-87072432D01*
X154842832Y-87063802D01*
X154829256Y-87054770D01*
X154815976Y-87045336D01*
X154802992Y-87035501D01*
X154790305Y-87025265D01*
X154777914Y-87014627D01*
X154765818Y-87003588D01*
X154754020Y-86992147D01*
X154742517Y-86980305D01*
X154731311Y-86968061D01*
X154720401Y-86955416D01*
X154709830Y-86942404D01*
X154699594Y-86929060D01*
X154689694Y-86915382D01*
X154680129Y-86901372D01*
X154670900Y-86887029D01*
X154662007Y-86872353D01*
X154653449Y-86857345D01*
X154645227Y-86842004D01*
X154637341Y-86826330D01*
X154629790Y-86810323D01*
X154622575Y-86793984D01*
X154615695Y-86777312D01*
X154609151Y-86760307D01*
X154602942Y-86742970D01*
X154597069Y-86725299D01*
X154591532Y-86707296D01*
X154586330Y-86688961D01*
X154581464Y-86670292D01*
X154576934Y-86651291D01*
X154572739Y-86631957D01*
X154568879Y-86612290D01*
X154565356Y-86592291D01*
X154562168Y-86571959D01*
X154559315Y-86551294D01*
X154556798Y-86530296D01*
X154554617Y-86508966D01*
X154552771Y-86487303D01*
X154551261Y-86465307D01*
X154550086Y-86442978D01*
X154549247Y-86420317D01*
X154548744Y-86397323D01*
X154548576Y-86373996D01*
X154548759Y-86351588D01*
X154549309Y-86329472D01*
X154550225Y-86307647D01*
X154551507Y-86286115D01*
X154553155Y-86264874D01*
X154555170Y-86243926D01*
X154557552Y-86223269D01*
X154560300Y-86202904D01*
X154563414Y-86182831D01*
X154566894Y-86163051D01*
X154570741Y-86143562D01*
X154574954Y-86124365D01*
X154579534Y-86105460D01*
X154584480Y-86086847D01*
X154589792Y-86068526D01*
X154595471Y-86050497D01*
X154601516Y-86032760D01*
X154607927Y-86015314D01*
X154614705Y-85998161D01*
X154621849Y-85981300D01*
X154629359Y-85964730D01*
X154637236Y-85948453D01*
X154645479Y-85932467D01*
X154654089Y-85916774D01*
X154663065Y-85901372D01*
X154672407Y-85886262D01*
X154682116Y-85871445D01*
X154692191Y-85856919D01*
X154702632Y-85842685D01*
X154713440Y-85828743D01*
X154724614Y-85815093D01*
X154736154Y-85801735D01*
X154748034Y-85788707D01*
X154760181Y-85776093D01*
X154772595Y-85763892D01*
X154785276Y-85752104D01*
X154798223Y-85740731D01*
X154811438Y-85729771D01*
X154824919Y-85719224D01*
X154838668Y-85709091D01*
X154852683Y-85699372D01*
X154866965Y-85690066D01*
X154881514Y-85681174D01*
X154896330Y-85672695D01*
X154911413Y-85664630D01*
X154926763Y-85656979D01*
X154942379Y-85649741D01*
X154958263Y-85642916D01*
X154974413Y-85636506D01*
X154990831Y-85630509D01*
X155007515Y-85624925D01*
X155024466Y-85619755D01*
X155041684Y-85614999D01*
X155059169Y-85610656D01*
X155076921Y-85606727D01*
X155094940Y-85603212D01*
X155113225Y-85600110D01*
X155131778Y-85597421D01*
X155150597Y-85595147D01*
X155169684Y-85593286D01*
X155189037Y-85591838D01*
X155208657Y-85590804D01*
X155228544Y-85590184D01*
X155248698Y-85589977D01*
X155277220Y-85590349D01*
X155305359Y-85591465D01*
X155333114Y-85593326D01*
X155360485Y-85595930D01*
X155387473Y-85599279D01*
X155414077Y-85603372D01*
X155440298Y-85608209D01*
X155466135Y-85613790D01*
X155491589Y-85620116D01*
X155516659Y-85627186D01*
X155541346Y-85635000D01*
X155565649Y-85643558D01*
X155589569Y-85652860D01*
X155613105Y-85662906D01*
X155636257Y-85673697D01*
X155659026Y-85685232D01*
X155568168Y-85866948D01*
X155547342Y-85856700D01*
X155526631Y-85847113D01*
X155506035Y-85838187D01*
X155485553Y-85829923D01*
X155465185Y-85822319D01*
X155444932Y-85815377D01*
X155424793Y-85809096D01*
X155404769Y-85803476D01*
X155384860Y-85798517D01*
X155365064Y-85794219D01*
X155345384Y-85790583D01*
X155325818Y-85787607D01*
X155306366Y-85785293D01*
X155287029Y-85783640D01*
X155267806Y-85782649D01*
X155248698Y-85782318D01*
X155222019Y-85782941D01*
X155196022Y-85784808D01*
X155170705Y-85787921D01*
X155146070Y-85792279D01*
X155122116Y-85797881D01*
X155098844Y-85804729D01*
X155076252Y-85812822D01*
X155054342Y-85822160D01*
X155033113Y-85832743D01*
X155012565Y-85844571D01*
X154992698Y-85857645D01*
X154973513Y-85871963D01*
X154955008Y-85887526D01*
X154937185Y-85904335D01*
X154920044Y-85922388D01*
X154903583Y-85941687D01*
X154888011Y-85962014D01*
X154873444Y-85983246D01*
X154859881Y-86005382D01*
X154847323Y-86028423D01*
X154835770Y-86052369D01*
X154825221Y-86077218D01*
X154815677Y-86102973D01*
X154807137Y-86129631D01*
X154799603Y-86157195D01*
X154793073Y-86185662D01*
X154790184Y-86200235D01*
X154787547Y-86215034D01*
X154785161Y-86230060D01*
X154783026Y-86245311D01*
X154781142Y-86260788D01*
X154779510Y-86276492D01*
X154778129Y-86292422D01*
X154776998Y-86308577D01*
X154776119Y-86324959D01*
X154775491Y-86341567D01*
X154775115Y-86358402D01*
X154774989Y-86375462D01*
X154775107Y-86393529D01*
X154775460Y-86411321D01*
X154776048Y-86428840D01*
X154776872Y-86446084D01*
X154777932Y-86463055D01*
X154779227Y-86479751D01*
X154780757Y-86496173D01*
X154782522Y-86512322D01*
X154784523Y-86528196D01*
X154786760Y-86543796D01*
X154789232Y-86559122D01*
X154791939Y-86574174D01*
X154794882Y-86588952D01*
X154798060Y-86603456D01*
X154805122Y-86631642D01*
X154813127Y-86658732D01*
X154822073Y-86684725D01*
X154831960Y-86709622D01*
X154842789Y-86733423D01*
X154854560Y-86756127D01*
X154867273Y-86777736D01*
X154880927Y-86798248D01*
X154895523Y-86817663D01*
X154911026Y-86835942D01*
X154927402Y-86853041D01*
X154944651Y-86868960D01*
X154962774Y-86883701D01*
X154981769Y-86897262D01*
X155001637Y-86909644D01*
X155022378Y-86920847D01*
X155043992Y-86930870D01*
X155066479Y-86939714D01*
X155089839Y-86947379D01*
X155114072Y-86953865D01*
X155139178Y-86959172D01*
X155165157Y-86963299D01*
X155192009Y-86966247D01*
X155219734Y-86968016D01*
X155248332Y-86968606D01*
X155265193Y-86968357D01*
X155282713Y-86967610D01*
X155300891Y-86966364D01*
X155319727Y-86964621D01*
X155339221Y-86962380D01*
X155359374Y-86959641D01*
X155380186Y-86956404D01*
X155401655Y-86952669D01*
X155423783Y-86948436D01*
X155446569Y-86943704D01*
X155470014Y-86938475D01*
X155494116Y-86932748D01*
X155518877Y-86926522D01*
X155544297Y-86919799D01*
X155570374Y-86912578D01*
X155597110Y-86904858D01*
G37*
G36*
X155915847Y-87137500D02*
G01*
X155915847Y-85613424D01*
X156132002Y-85613424D01*
X156132002Y-86945158D01*
X156786329Y-86945158D01*
X156786329Y-87137500D01*
X155915847Y-87137500D01*
G37*
G36*
X158203792Y-87137500D02*
G01*
X157958695Y-87137500D01*
X157498541Y-86426386D01*
X157368848Y-86531899D01*
X157368848Y-87137500D01*
X157153426Y-87137500D01*
X157153426Y-85613424D01*
X157368848Y-85613424D01*
X157368848Y-86339192D01*
X157472529Y-86195943D01*
X157942941Y-85613424D01*
X158188771Y-85613424D01*
X157641423Y-86279841D01*
X158203792Y-87137500D01*
G37*
D11*
G36*
X178545593Y-74672500D02*
G01*
X178473663Y-74672500D01*
X178473663Y-73784677D01*
X178330048Y-73784677D01*
X178330048Y-73656449D01*
X178688841Y-73656449D01*
X178688841Y-73784677D01*
X178545593Y-73784677D01*
X178545593Y-74672500D01*
G37*
G36*
X179129089Y-74672500D02*
G01*
X179047390Y-74672500D01*
X178927833Y-74246051D01*
X178804368Y-74672500D01*
X178730362Y-74672500D01*
X178888265Y-74142004D01*
X178740865Y-73656449D01*
X178818412Y-73656449D01*
X178929909Y-74031606D01*
X179042383Y-73656449D01*
X179117121Y-73656449D01*
X178969842Y-74137852D01*
X179129089Y-74672500D01*
G37*
G36*
X179309850Y-73656578D02*
G01*
X179316614Y-73656964D01*
X179323283Y-73657606D01*
X179329856Y-73658506D01*
X179336335Y-73659663D01*
X179342717Y-73661077D01*
X179349005Y-73662749D01*
X179355197Y-73664677D01*
X179361293Y-73666863D01*
X179367294Y-73669305D01*
X179373200Y-73672005D01*
X179379010Y-73674962D01*
X179384725Y-73678176D01*
X179390345Y-73681647D01*
X179395869Y-73685376D01*
X179401297Y-73689361D01*
X179406631Y-73693604D01*
X179411869Y-73698103D01*
X179417011Y-73702860D01*
X179422058Y-73707874D01*
X179427010Y-73713145D01*
X179431866Y-73718673D01*
X179436627Y-73724458D01*
X179441292Y-73730501D01*
X179445862Y-73736800D01*
X179450337Y-73743357D01*
X179454716Y-73750171D01*
X179459000Y-73757241D01*
X179463188Y-73764569D01*
X179467281Y-73772155D01*
X179471279Y-73779997D01*
X179475181Y-73788096D01*
X179478983Y-73796425D01*
X179482664Y-73804957D01*
X179486224Y-73813690D01*
X179489664Y-73822626D01*
X179492983Y-73831764D01*
X179496181Y-73841104D01*
X179499259Y-73850647D01*
X179502216Y-73860392D01*
X179505052Y-73870339D01*
X179507767Y-73880489D01*
X179510362Y-73890840D01*
X179512836Y-73901394D01*
X179515190Y-73912151D01*
X179517423Y-73923109D01*
X179519535Y-73934270D01*
X179521526Y-73945633D01*
X179523397Y-73957198D01*
X179525147Y-73968966D01*
X179526776Y-73980935D01*
X179528285Y-73993107D01*
X179529673Y-74005482D01*
X179530940Y-74018058D01*
X179532086Y-74030837D01*
X179533112Y-74043818D01*
X179534017Y-74057002D01*
X179534802Y-74070387D01*
X179535466Y-74083975D01*
X179536009Y-74097766D01*
X179536431Y-74111758D01*
X179536733Y-74125953D01*
X179536914Y-74140350D01*
X179536974Y-74154949D01*
X179536912Y-74170467D01*
X179536724Y-74185758D01*
X179536412Y-74200822D01*
X179535975Y-74215659D01*
X179535412Y-74230268D01*
X179534725Y-74244651D01*
X179533912Y-74258806D01*
X179532975Y-74272735D01*
X179531913Y-74286436D01*
X179530725Y-74299911D01*
X179529413Y-74313158D01*
X179527976Y-74326178D01*
X179526413Y-74338972D01*
X179524726Y-74351538D01*
X179522914Y-74363877D01*
X179520976Y-74375989D01*
X179518914Y-74387874D01*
X179516727Y-74399531D01*
X179514415Y-74410962D01*
X179511978Y-74422166D01*
X179509415Y-74433142D01*
X179506728Y-74443892D01*
X179503916Y-74454414D01*
X179500979Y-74464710D01*
X179497917Y-74474778D01*
X179494730Y-74484620D01*
X179491418Y-74494234D01*
X179487981Y-74503621D01*
X179484419Y-74512781D01*
X179480732Y-74521714D01*
X179476920Y-74530420D01*
X179472983Y-74538899D01*
X179468936Y-74547118D01*
X179464779Y-74555077D01*
X179460511Y-74562775D01*
X179456134Y-74570211D01*
X179451646Y-74577387D01*
X179447048Y-74584302D01*
X179442340Y-74590956D01*
X179437522Y-74597349D01*
X179432593Y-74603481D01*
X179427555Y-74609352D01*
X179422406Y-74614962D01*
X179417147Y-74620312D01*
X179411777Y-74625400D01*
X179406298Y-74630227D01*
X179400708Y-74634794D01*
X179395008Y-74639099D01*
X179389198Y-74643144D01*
X179383278Y-74646927D01*
X179377247Y-74650450D01*
X179371107Y-74653712D01*
X179364856Y-74656713D01*
X179358495Y-74659453D01*
X179352024Y-74661931D01*
X179345442Y-74664149D01*
X179338751Y-74666106D01*
X179331949Y-74667803D01*
X179325037Y-74669238D01*
X179318014Y-74670412D01*
X179310882Y-74671325D01*
X179303639Y-74671978D01*
X179296287Y-74672369D01*
X179288824Y-74672500D01*
X179181601Y-74672500D01*
X179181601Y-73781257D01*
X179253653Y-73781257D01*
X179253653Y-74547691D01*
X179282718Y-74547691D01*
X179293717Y-74547312D01*
X179304367Y-74546174D01*
X179314669Y-74544278D01*
X179324620Y-74541623D01*
X179334223Y-74538210D01*
X179343477Y-74534039D01*
X179352381Y-74529108D01*
X179360936Y-74523420D01*
X179369142Y-74516973D01*
X179376999Y-74509767D01*
X179384507Y-74501803D01*
X179391665Y-74493080D01*
X179398474Y-74483599D01*
X179404934Y-74473360D01*
X179411045Y-74462361D01*
X179416807Y-74450605D01*
X179422219Y-74438090D01*
X179427283Y-74424816D01*
X179431997Y-74410784D01*
X179436362Y-74395994D01*
X179440377Y-74380445D01*
X179444044Y-74364137D01*
X179447361Y-74347071D01*
X179450329Y-74329247D01*
X179452948Y-74310664D01*
X179455218Y-74291322D01*
X179457138Y-74271222D01*
X179458710Y-74250364D01*
X179459932Y-74228747D01*
X179460805Y-74206372D01*
X179461329Y-74183238D01*
X179461503Y-74159345D01*
X179461342Y-74136084D01*
X179460857Y-74113561D01*
X179460050Y-74091777D01*
X179458920Y-74070731D01*
X179457466Y-74050423D01*
X179455690Y-74030854D01*
X179453591Y-74012024D01*
X179451169Y-73993932D01*
X179448424Y-73976578D01*
X179445356Y-73959963D01*
X179441965Y-73944086D01*
X179438251Y-73928948D01*
X179434214Y-73914548D01*
X179429854Y-73900887D01*
X179425171Y-73887964D01*
X179420165Y-73875779D01*
X179414836Y-73864333D01*
X179409185Y-73853626D01*
X179403210Y-73843657D01*
X179396913Y-73834426D01*
X179390292Y-73825934D01*
X179383348Y-73818180D01*
X179376082Y-73811165D01*
X179368493Y-73804888D01*
X179360580Y-73799349D01*
X179352345Y-73794550D01*
X179343787Y-73790488D01*
X179334905Y-73787165D01*
X179325701Y-73784580D01*
X179316174Y-73782734D01*
X179306324Y-73781627D01*
X179296151Y-73781257D01*
X179253653Y-73781257D01*
X179181601Y-73781257D01*
X179181601Y-73656449D01*
X179302990Y-73656449D01*
X179309850Y-73656578D01*
G37*
G36*
X187040982Y-111818550D02*
G01*
X187040982Y-111680553D01*
X187045790Y-111684414D01*
X187050583Y-111688154D01*
X187055359Y-111691770D01*
X187060120Y-111695264D01*
X187064866Y-111698636D01*
X187069595Y-111701885D01*
X187074309Y-111705011D01*
X187079007Y-111708015D01*
X187083690Y-111710896D01*
X187093007Y-111716290D01*
X187102262Y-111721194D01*
X187111453Y-111725607D01*
X187120582Y-111729531D01*
X187129647Y-111732963D01*
X187138650Y-111735906D01*
X187147590Y-111738358D01*
X187156466Y-111740319D01*
X187165280Y-111741790D01*
X187174031Y-111742771D01*
X187182719Y-111743262D01*
X187187039Y-111743323D01*
X187194192Y-111743168D01*
X187201117Y-111742705D01*
X187207816Y-111741932D01*
X187214287Y-111740850D01*
X187220532Y-111739459D01*
X187226549Y-111737759D01*
X187232339Y-111735750D01*
X187237903Y-111733431D01*
X187243239Y-111730804D01*
X187248348Y-111727867D01*
X187253230Y-111724621D01*
X187257885Y-111721066D01*
X187266513Y-111713029D01*
X187274234Y-111703756D01*
X187281046Y-111693246D01*
X187286950Y-111681499D01*
X187291945Y-111668516D01*
X187296032Y-111654296D01*
X187299211Y-111638840D01*
X187301482Y-111622148D01*
X187302844Y-111604219D01*
X187303299Y-111585054D01*
X187303095Y-111572639D01*
X187302483Y-111560765D01*
X187301463Y-111549432D01*
X187300036Y-111538640D01*
X187298200Y-111528389D01*
X187295957Y-111518679D01*
X187293306Y-111509510D01*
X187290247Y-111500881D01*
X187286780Y-111492794D01*
X187282905Y-111485248D01*
X187280095Y-111480518D01*
X187275305Y-111473467D01*
X187269634Y-111466146D01*
X187265365Y-111461116D01*
X187260704Y-111455965D01*
X187255652Y-111450693D01*
X187250209Y-111445302D01*
X187244375Y-111439790D01*
X187238150Y-111434158D01*
X187231533Y-111428406D01*
X187224525Y-111422534D01*
X187217127Y-111416541D01*
X187209337Y-111410429D01*
X187201155Y-111404196D01*
X187192583Y-111397842D01*
X187183620Y-111391369D01*
X187174740Y-111384909D01*
X187166175Y-111378291D01*
X187157925Y-111371514D01*
X187149990Y-111364579D01*
X187142370Y-111357485D01*
X187135065Y-111350233D01*
X187128074Y-111342823D01*
X187121399Y-111335254D01*
X187115038Y-111327527D01*
X187108992Y-111319642D01*
X187103261Y-111311598D01*
X187097844Y-111303396D01*
X187092743Y-111295035D01*
X187087956Y-111286516D01*
X187083485Y-111277839D01*
X187079328Y-111269003D01*
X187075468Y-111259892D01*
X187071857Y-111250449D01*
X187068496Y-111240673D01*
X187065383Y-111230566D01*
X187062519Y-111220126D01*
X187059905Y-111209355D01*
X187057539Y-111198251D01*
X187055423Y-111186816D01*
X187053555Y-111175048D01*
X187051936Y-111162949D01*
X187050567Y-111150517D01*
X187049446Y-111137753D01*
X187048575Y-111124658D01*
X187047952Y-111111230D01*
X187047579Y-111097470D01*
X187047454Y-111083379D01*
X187047632Y-111068171D01*
X187048164Y-111053383D01*
X187049051Y-111039014D01*
X187050293Y-111025066D01*
X187051891Y-111011537D01*
X187053843Y-110998428D01*
X187056150Y-110985739D01*
X187058811Y-110973469D01*
X187061828Y-110961620D01*
X187065200Y-110950190D01*
X187068927Y-110939180D01*
X187073008Y-110928590D01*
X187077444Y-110918419D01*
X187082236Y-110908669D01*
X187087382Y-110899338D01*
X187092883Y-110890427D01*
X187098690Y-110881998D01*
X187104754Y-110874112D01*
X187111074Y-110866771D01*
X187117651Y-110859973D01*
X187124485Y-110853719D01*
X187131575Y-110848009D01*
X187138922Y-110842843D01*
X187146525Y-110838220D01*
X187154385Y-110834141D01*
X187162502Y-110830607D01*
X187170875Y-110827615D01*
X187179506Y-110825168D01*
X187188392Y-110823265D01*
X187197536Y-110821905D01*
X187206936Y-110821090D01*
X187216592Y-110820818D01*
X187221543Y-110820873D01*
X187226472Y-110821040D01*
X187231380Y-110821318D01*
X187236267Y-110821707D01*
X187245977Y-110822818D01*
X187255602Y-110824375D01*
X187265143Y-110826375D01*
X187274598Y-110828820D01*
X187283969Y-110831710D01*
X187293254Y-110835045D01*
X187302455Y-110838824D01*
X187311570Y-110843048D01*
X187320601Y-110847716D01*
X187329547Y-110852829D01*
X187338408Y-110858386D01*
X187347184Y-110864388D01*
X187355875Y-110870835D01*
X187364481Y-110877726D01*
X187339691Y-111005221D01*
X187331084Y-110998419D01*
X187322577Y-110992055D01*
X187314167Y-110986130D01*
X187305855Y-110980644D01*
X187297642Y-110975597D01*
X187289527Y-110970989D01*
X187281511Y-110966820D01*
X187273592Y-110963089D01*
X187265772Y-110959798D01*
X187258051Y-110956945D01*
X187250427Y-110954531D01*
X187242902Y-110952556D01*
X187235475Y-110951020D01*
X187228146Y-110949923D01*
X187220916Y-110949265D01*
X187213784Y-110949045D01*
X187207833Y-110949178D01*
X187202071Y-110949575D01*
X187196499Y-110950237D01*
X187191115Y-110951163D01*
X187185920Y-110952355D01*
X187180914Y-110953811D01*
X187176097Y-110955532D01*
X187167029Y-110959768D01*
X187158717Y-110965063D01*
X187151161Y-110971417D01*
X187144360Y-110978830D01*
X187138315Y-110987302D01*
X187133026Y-110996834D01*
X187128492Y-111007424D01*
X187124714Y-111019073D01*
X187121692Y-111031781D01*
X187119425Y-111045549D01*
X187117913Y-111060375D01*
X187117158Y-111076260D01*
X187117063Y-111084600D01*
X187117252Y-111096875D01*
X187117819Y-111108694D01*
X187118764Y-111120059D01*
X187120086Y-111130968D01*
X187121786Y-111141422D01*
X187123864Y-111151421D01*
X187126320Y-111160965D01*
X187129153Y-111170054D01*
X187132365Y-111178688D01*
X187135954Y-111186867D01*
X187138557Y-111192067D01*
X187143033Y-111199781D01*
X187148354Y-111207629D01*
X187154521Y-111215609D01*
X187159103Y-111221004D01*
X187164060Y-111226457D01*
X187169394Y-111231970D01*
X187175103Y-111237542D01*
X187181188Y-111243173D01*
X187187649Y-111248863D01*
X187194486Y-111254612D01*
X187201699Y-111260420D01*
X187209287Y-111266288D01*
X187217252Y-111272215D01*
X187225592Y-111278200D01*
X187229904Y-111281215D01*
X187235191Y-111285037D01*
X187240369Y-111288868D01*
X187245436Y-111292709D01*
X187250393Y-111296561D01*
X187255240Y-111300422D01*
X187259977Y-111304294D01*
X187264603Y-111308175D01*
X187269120Y-111312066D01*
X187277822Y-111319879D01*
X187286083Y-111327732D01*
X187293904Y-111335625D01*
X187301284Y-111343558D01*
X187308222Y-111351532D01*
X187314721Y-111359545D01*
X187320778Y-111367598D01*
X187326395Y-111375692D01*
X187331571Y-111383825D01*
X187336306Y-111391999D01*
X187340600Y-111400212D01*
X187344453Y-111408466D01*
X187347988Y-111416857D01*
X187351294Y-111425544D01*
X187354372Y-111434527D01*
X187357223Y-111443805D01*
X187359845Y-111453379D01*
X187362239Y-111463249D01*
X187364406Y-111473415D01*
X187366344Y-111483876D01*
X187368054Y-111494633D01*
X187369536Y-111505686D01*
X187370790Y-111517035D01*
X187371816Y-111528679D01*
X187372614Y-111540620D01*
X187373184Y-111552856D01*
X187373526Y-111565387D01*
X187373640Y-111578215D01*
X187373450Y-111594902D01*
X187372877Y-111611138D01*
X187371923Y-111626921D01*
X187370587Y-111642252D01*
X187368870Y-111657131D01*
X187366771Y-111671558D01*
X187364291Y-111685532D01*
X187361428Y-111699054D01*
X187358184Y-111712124D01*
X187354559Y-111724741D01*
X187350552Y-111736907D01*
X187346163Y-111748620D01*
X187341393Y-111759881D01*
X187336241Y-111770690D01*
X187330707Y-111781046D01*
X187324792Y-111790950D01*
X187318529Y-111800296D01*
X187311954Y-111809040D01*
X187305065Y-111817180D01*
X187297864Y-111824717D01*
X187290350Y-111831651D01*
X187282523Y-111837982D01*
X187274382Y-111843711D01*
X187265929Y-111848836D01*
X187257163Y-111853358D01*
X187248084Y-111857278D01*
X187238692Y-111860594D01*
X187228988Y-111863307D01*
X187224018Y-111864438D01*
X187218970Y-111865418D01*
X187213844Y-111866247D01*
X187208639Y-111866925D01*
X187203356Y-111867453D01*
X187197996Y-111867830D01*
X187192556Y-111868056D01*
X187187039Y-111868131D01*
X187181336Y-111868083D01*
X187175706Y-111867937D01*
X187170150Y-111867695D01*
X187164668Y-111867356D01*
X187159259Y-111866921D01*
X187153923Y-111866388D01*
X187148661Y-111865758D01*
X187143472Y-111865032D01*
X187138357Y-111864209D01*
X187133315Y-111863289D01*
X187128347Y-111862272D01*
X187123452Y-111861159D01*
X187113882Y-111858641D01*
X187104607Y-111855736D01*
X187095625Y-111852443D01*
X187086938Y-111848763D01*
X187078544Y-111844696D01*
X187070443Y-111840242D01*
X187062637Y-111835400D01*
X187055125Y-111830170D01*
X187047906Y-111824554D01*
X187040982Y-111818550D01*
G37*
G36*
X187663190Y-111852500D02*
G01*
X187591261Y-111852500D01*
X187591261Y-110964677D01*
X187447646Y-110964677D01*
X187447646Y-110836449D01*
X187806439Y-110836449D01*
X187806439Y-110964677D01*
X187663190Y-110964677D01*
X187663190Y-111852500D01*
G37*
G36*
X188252793Y-111852500D02*
G01*
X188178665Y-111852500D01*
X188129206Y-111543044D01*
X187966174Y-111543044D01*
X187915982Y-111852500D01*
X187842587Y-111852500D01*
X187915131Y-111414816D01*
X187986812Y-111414816D01*
X188108445Y-111414816D01*
X188064359Y-111136624D01*
X188062717Y-111126198D01*
X188061150Y-111116168D01*
X188059657Y-111106536D01*
X188057556Y-111092832D01*
X188055624Y-111080020D01*
X188053858Y-111068102D01*
X188052261Y-111057077D01*
X188050830Y-111046945D01*
X188049184Y-111034824D01*
X188047834Y-111024291D01*
X188047018Y-111017433D01*
X188045850Y-111028128D01*
X188044409Y-111040064D01*
X188043058Y-111050505D01*
X188041531Y-111061740D01*
X188039829Y-111073769D01*
X188038437Y-111083312D01*
X188036947Y-111093301D01*
X188035358Y-111103737D01*
X188034806Y-111107315D01*
X187986812Y-111414816D01*
X187915131Y-111414816D01*
X188010992Y-110836449D01*
X188083654Y-110836449D01*
X188252793Y-111852500D01*
G37*
G36*
X188503386Y-111852500D02*
G01*
X188431456Y-111852500D01*
X188431456Y-110964677D01*
X188287841Y-110964677D01*
X188287841Y-110836449D01*
X188646634Y-110836449D01*
X188646634Y-110964677D01*
X188503386Y-110964677D01*
X188503386Y-111852500D01*
G37*
D13*
X113555952Y-108170000D02*
X114508333Y-108170000D01*
X113258333Y-109027142D02*
X114300000Y-106027142D01*
X114300000Y-106027142D02*
X114591666Y-109027142D01*
X115508333Y-107027142D02*
X115258333Y-109027142D01*
X115472619Y-107312857D02*
X115585714Y-107170000D01*
X115585714Y-107170000D02*
X115794047Y-107027142D01*
X115794047Y-107027142D02*
X116079762Y-107027142D01*
X116079762Y-107027142D02*
X116252381Y-107170000D01*
X116252381Y-107170000D02*
X116311905Y-107455714D01*
X116311905Y-107455714D02*
X116115476Y-109027142D01*
X117127381Y-107027142D02*
X117353571Y-109027142D01*
X118079762Y-107027142D02*
X117353571Y-109027142D01*
X117353571Y-109027142D02*
X117073810Y-109741428D01*
X117073810Y-109741428D02*
X116960714Y-109884285D01*
X116960714Y-109884285D02*
X116752381Y-110027142D01*
X118407143Y-108884285D02*
X118675000Y-109027142D01*
X118675000Y-109027142D02*
X119151191Y-109027142D01*
X119151191Y-109027142D02*
X119359524Y-108884285D01*
X119359524Y-108884285D02*
X119472619Y-108741428D01*
X119472619Y-108741428D02*
X119603572Y-108455714D01*
X119603572Y-108455714D02*
X119639286Y-108170000D01*
X119639286Y-108170000D02*
X119579762Y-107884285D01*
X119579762Y-107884285D02*
X119502381Y-107741428D01*
X119502381Y-107741428D02*
X119329762Y-107598571D01*
X119329762Y-107598571D02*
X118966667Y-107455714D01*
X118966667Y-107455714D02*
X118794048Y-107312857D01*
X118794048Y-107312857D02*
X118716667Y-107170000D01*
X118716667Y-107170000D02*
X118657143Y-106884285D01*
X118657143Y-106884285D02*
X118692857Y-106598571D01*
X118692857Y-106598571D02*
X118823810Y-106312857D01*
X118823810Y-106312857D02*
X118936905Y-106170000D01*
X118936905Y-106170000D02*
X119145238Y-106027142D01*
X119145238Y-106027142D02*
X119621429Y-106027142D01*
X119621429Y-106027142D02*
X119889286Y-106170000D01*
X120389286Y-109027142D02*
X120764286Y-106027142D01*
X121246429Y-109027142D02*
X121442858Y-107455714D01*
X121442858Y-107455714D02*
X121383334Y-107170000D01*
X121383334Y-107170000D02*
X121210715Y-107027142D01*
X121210715Y-107027142D02*
X120925000Y-107027142D01*
X120925000Y-107027142D02*
X120716667Y-107170000D01*
X120716667Y-107170000D02*
X120603572Y-107312857D01*
X123055953Y-109027142D02*
X123252382Y-107455714D01*
X123252382Y-107455714D02*
X123192858Y-107170000D01*
X123192858Y-107170000D02*
X123020239Y-107027142D01*
X123020239Y-107027142D02*
X122639286Y-107027142D01*
X122639286Y-107027142D02*
X122430953Y-107170000D01*
X123073810Y-108884285D02*
X122865477Y-109027142D01*
X122865477Y-109027142D02*
X122389286Y-109027142D01*
X122389286Y-109027142D02*
X122216667Y-108884285D01*
X122216667Y-108884285D02*
X122157143Y-108598571D01*
X122157143Y-108598571D02*
X122192858Y-108312857D01*
X122192858Y-108312857D02*
X122323810Y-108027142D01*
X122323810Y-108027142D02*
X122532143Y-107884285D01*
X122532143Y-107884285D02*
X123008334Y-107884285D01*
X123008334Y-107884285D02*
X123216667Y-107741428D01*
X124008334Y-109027142D02*
X124383334Y-106027142D01*
X124341667Y-107884285D02*
X124770239Y-109027142D01*
X125020239Y-107027142D02*
X124115477Y-108170000D01*
X126407144Y-108884285D02*
X126198811Y-109027142D01*
X126198811Y-109027142D02*
X125817858Y-109027142D01*
X125817858Y-109027142D02*
X125645239Y-108884285D01*
X125645239Y-108884285D02*
X125585715Y-108598571D01*
X125585715Y-108598571D02*
X125728573Y-107455714D01*
X125728573Y-107455714D02*
X125859525Y-107170000D01*
X125859525Y-107170000D02*
X126067858Y-107027142D01*
X126067858Y-107027142D02*
X126448811Y-107027142D01*
X126448811Y-107027142D02*
X126621430Y-107170000D01*
X126621430Y-107170000D02*
X126680954Y-107455714D01*
X126680954Y-107455714D02*
X126645239Y-107741428D01*
X126645239Y-107741428D02*
X125657144Y-108027142D01*
X127377382Y-108741428D02*
X127454763Y-108884285D01*
X127454763Y-108884285D02*
X127341668Y-109027142D01*
X127341668Y-109027142D02*
X127264287Y-108884285D01*
X127264287Y-108884285D02*
X127377382Y-108741428D01*
X127377382Y-108741428D02*
X127341668Y-109027142D01*
X128579763Y-109027142D02*
X128407144Y-108884285D01*
X128407144Y-108884285D02*
X128329763Y-108741428D01*
X128329763Y-108741428D02*
X128270240Y-108455714D01*
X128270240Y-108455714D02*
X128377382Y-107598571D01*
X128377382Y-107598571D02*
X128508335Y-107312857D01*
X128508335Y-107312857D02*
X128621430Y-107170000D01*
X128621430Y-107170000D02*
X128829763Y-107027142D01*
X128829763Y-107027142D02*
X129115478Y-107027142D01*
X129115478Y-107027142D02*
X129288097Y-107170000D01*
X129288097Y-107170000D02*
X129365478Y-107312857D01*
X129365478Y-107312857D02*
X129425002Y-107598571D01*
X129425002Y-107598571D02*
X129317859Y-108455714D01*
X129317859Y-108455714D02*
X129186906Y-108741428D01*
X129186906Y-108741428D02*
X129073811Y-108884285D01*
X129073811Y-108884285D02*
X128865478Y-109027142D01*
X128865478Y-109027142D02*
X128579763Y-109027142D01*
X130103573Y-109027142D02*
X130353573Y-107027142D01*
X130282145Y-107598571D02*
X130413097Y-107312857D01*
X130413097Y-107312857D02*
X130526192Y-107170000D01*
X130526192Y-107170000D02*
X130734526Y-107027142D01*
X130734526Y-107027142D02*
X130925002Y-107027142D01*
X132448811Y-107027142D02*
X132145240Y-109455714D01*
X132145240Y-109455714D02*
X132014287Y-109741428D01*
X132014287Y-109741428D02*
X131901192Y-109884285D01*
X131901192Y-109884285D02*
X131692859Y-110027142D01*
X131692859Y-110027142D02*
X131407144Y-110027142D01*
X131407144Y-110027142D02*
X131234525Y-109884285D01*
X132216668Y-108884285D02*
X132008335Y-109027142D01*
X132008335Y-109027142D02*
X131627382Y-109027142D01*
X131627382Y-109027142D02*
X131454763Y-108884285D01*
X131454763Y-108884285D02*
X131377382Y-108741428D01*
X131377382Y-108741428D02*
X131317859Y-108455714D01*
X131317859Y-108455714D02*
X131425001Y-107598571D01*
X131425001Y-107598571D02*
X131555954Y-107312857D01*
X131555954Y-107312857D02*
X131669049Y-107170000D01*
X131669049Y-107170000D02*
X131877382Y-107027142D01*
X131877382Y-107027142D02*
X132258335Y-107027142D01*
X132258335Y-107027142D02*
X132430954Y-107170000D01*
D11*
G36*
X187262235Y-106016742D02*
G01*
X187272987Y-106017621D01*
X187283387Y-106019085D01*
X187293434Y-106021136D01*
X187303129Y-106023772D01*
X187312471Y-106026994D01*
X187321460Y-106030801D01*
X187330097Y-106035195D01*
X187338382Y-106040174D01*
X187346314Y-106045739D01*
X187353893Y-106051890D01*
X187361120Y-106058627D01*
X187367994Y-106065949D01*
X187374516Y-106073858D01*
X187380685Y-106082352D01*
X187386502Y-106091432D01*
X187391966Y-106101098D01*
X187397078Y-106111349D01*
X187401837Y-106122186D01*
X187406244Y-106133609D01*
X187410298Y-106145618D01*
X187413999Y-106158213D01*
X187417348Y-106171394D01*
X187420345Y-106185160D01*
X187422989Y-106199512D01*
X187425280Y-106214450D01*
X187427219Y-106229974D01*
X187428806Y-106246083D01*
X187430040Y-106262779D01*
X187430921Y-106280060D01*
X187431450Y-106297927D01*
X187431626Y-106316379D01*
X187431435Y-106335231D01*
X187430863Y-106353562D01*
X187429909Y-106371371D01*
X187428573Y-106388660D01*
X187426856Y-106405428D01*
X187424757Y-106421675D01*
X187422276Y-106437401D01*
X187419414Y-106452606D01*
X187416170Y-106467290D01*
X187412544Y-106481453D01*
X187408537Y-106495096D01*
X187404149Y-106508217D01*
X187399378Y-106520817D01*
X187394226Y-106532897D01*
X187388693Y-106544456D01*
X187382777Y-106555493D01*
X187376517Y-106565904D01*
X187369916Y-106575643D01*
X187362976Y-106584711D01*
X187355697Y-106593107D01*
X187348078Y-106600831D01*
X187340119Y-106607883D01*
X187331820Y-106614264D01*
X187323182Y-106619973D01*
X187314204Y-106625011D01*
X187304887Y-106629377D01*
X187295230Y-106633071D01*
X187290274Y-106634666D01*
X187285233Y-106636093D01*
X187280107Y-106637353D01*
X187274896Y-106638444D01*
X187269601Y-106639368D01*
X187264220Y-106640123D01*
X187258755Y-106640711D01*
X187253205Y-106641131D01*
X187247569Y-106641383D01*
X187241849Y-106641467D01*
X187180178Y-106641467D01*
X187180178Y-107032500D01*
X187108493Y-107032500D01*
X187108493Y-106141257D01*
X187180178Y-106141257D01*
X187180178Y-106516659D01*
X187234644Y-106516659D01*
X187242813Y-106516476D01*
X187250682Y-106515930D01*
X187258250Y-106515019D01*
X187265518Y-106513743D01*
X187272485Y-106512103D01*
X187279152Y-106510098D01*
X187285518Y-106507729D01*
X187291583Y-106504996D01*
X187297348Y-106501898D01*
X187302813Y-106498436D01*
X187307977Y-106494609D01*
X187312840Y-106490418D01*
X187317403Y-106485862D01*
X187321665Y-106480942D01*
X187327495Y-106472878D01*
X187329288Y-106470008D01*
X187334330Y-106460745D01*
X187338875Y-106450542D01*
X187342925Y-106439399D01*
X187346479Y-106427315D01*
X187349537Y-106414292D01*
X187351300Y-106405087D01*
X187352842Y-106395464D01*
X187354165Y-106385423D01*
X187355267Y-106374965D01*
X187356148Y-106364088D01*
X187356809Y-106352794D01*
X187357250Y-106341082D01*
X187357471Y-106328952D01*
X187357498Y-106322730D01*
X187357389Y-106311565D01*
X187357060Y-106300755D01*
X187356512Y-106290299D01*
X187355745Y-106280197D01*
X187354758Y-106270450D01*
X187352128Y-106252019D01*
X187348621Y-106235006D01*
X187344237Y-106219411D01*
X187338976Y-106205233D01*
X187332838Y-106192474D01*
X187325824Y-106181132D01*
X187317933Y-106171207D01*
X187309165Y-106162701D01*
X187304452Y-106158979D01*
X187299520Y-106155612D01*
X187294369Y-106152599D01*
X187288999Y-106149941D01*
X187283409Y-106147637D01*
X187277600Y-106145688D01*
X187271572Y-106144093D01*
X187265325Y-106142852D01*
X187258859Y-106141966D01*
X187252173Y-106141435D01*
X187245269Y-106141257D01*
X187180178Y-106141257D01*
X187108493Y-106141257D01*
X187108493Y-106016449D01*
X187251130Y-106016449D01*
X187262235Y-106016742D01*
G37*
G36*
X187650467Y-106329080D02*
G01*
X187717146Y-106329080D01*
X187767826Y-106690071D01*
X187770355Y-106708501D01*
X187772721Y-106726238D01*
X187774923Y-106743283D01*
X187776962Y-106759634D01*
X187778839Y-106775294D01*
X187780552Y-106790260D01*
X187782101Y-106804534D01*
X187783488Y-106818115D01*
X187784712Y-106831004D01*
X187785772Y-106843200D01*
X187786670Y-106854703D01*
X187787404Y-106865514D01*
X187787975Y-106875632D01*
X187788525Y-106889510D01*
X187788709Y-106901830D01*
X187788331Y-106891832D01*
X187788322Y-106881742D01*
X187788506Y-106868911D01*
X187788884Y-106853341D01*
X187789455Y-106835030D01*
X187789814Y-106824847D01*
X187790221Y-106813979D01*
X187790676Y-106802427D01*
X187791179Y-106790189D01*
X187791731Y-106777266D01*
X187792332Y-106763658D01*
X187792981Y-106749365D01*
X187793678Y-106734387D01*
X187794424Y-106718724D01*
X187795218Y-106702376D01*
X187796061Y-106685343D01*
X187796952Y-106667625D01*
X187797891Y-106649221D01*
X187798879Y-106630133D01*
X187799915Y-106610360D01*
X187801000Y-106589902D01*
X187802133Y-106568759D01*
X187803314Y-106546930D01*
X187804544Y-106524417D01*
X187805823Y-106501219D01*
X187807149Y-106477336D01*
X187831574Y-106016449D01*
X187897885Y-106016449D01*
X187832673Y-107032500D01*
X187761109Y-107032500D01*
X187702613Y-106631209D01*
X187700922Y-106619512D01*
X187699299Y-106608112D01*
X187697743Y-106597011D01*
X187696255Y-106586207D01*
X187694835Y-106575700D01*
X187693483Y-106565492D01*
X187692198Y-106555581D01*
X187690981Y-106545968D01*
X187689283Y-106532106D01*
X187687737Y-106518914D01*
X187686343Y-106506392D01*
X187685102Y-106494539D01*
X187684014Y-106483357D01*
X187683685Y-106479778D01*
X187682297Y-106494151D01*
X187680837Y-106508512D01*
X187679822Y-106518078D01*
X187678776Y-106527639D01*
X187677697Y-106537194D01*
X187676585Y-106546743D01*
X187675441Y-106556287D01*
X187674265Y-106565825D01*
X187673056Y-106575357D01*
X187671815Y-106584883D01*
X187670541Y-106594404D01*
X187669235Y-106603919D01*
X187667896Y-106613428D01*
X187666525Y-106622932D01*
X187665122Y-106632430D01*
X187610656Y-107032500D01*
X187539093Y-107032500D01*
X187468262Y-106016449D01*
X187534574Y-106016449D01*
X187565349Y-106477091D01*
X187566318Y-106492244D01*
X187567272Y-106507538D01*
X187568211Y-106522973D01*
X187569135Y-106538549D01*
X187570043Y-106554266D01*
X187570936Y-106570125D01*
X187571814Y-106586125D01*
X187572676Y-106602266D01*
X187573523Y-106618548D01*
X187574355Y-106634971D01*
X187575172Y-106651536D01*
X187575973Y-106668242D01*
X187576760Y-106685089D01*
X187577530Y-106702077D01*
X187578286Y-106719207D01*
X187579026Y-106736477D01*
X187579721Y-106753352D01*
X187580339Y-106769355D01*
X187580881Y-106784485D01*
X187581347Y-106798744D01*
X187581736Y-106812130D01*
X187582049Y-106824645D01*
X187582286Y-106836288D01*
X187582446Y-106847058D01*
X187582530Y-106856957D01*
X187582513Y-106870169D01*
X187582324Y-106881420D01*
X187581805Y-106893369D01*
X187580980Y-106901830D01*
X187581575Y-106888710D01*
X187582259Y-106875547D01*
X187583033Y-106862340D01*
X187583896Y-106849088D01*
X187584849Y-106835793D01*
X187585892Y-106822454D01*
X187587024Y-106809072D01*
X187588247Y-106795645D01*
X187589558Y-106782174D01*
X187590960Y-106768660D01*
X187592451Y-106755102D01*
X187594032Y-106741499D01*
X187595703Y-106727853D01*
X187597463Y-106714163D01*
X187599313Y-106700429D01*
X187601253Y-106686652D01*
X187650467Y-106329080D01*
G37*
G36*
X188089858Y-106016737D02*
G01*
X188100733Y-106017602D01*
X188111253Y-106019042D01*
X188121415Y-106021059D01*
X188131221Y-106023653D01*
X188140671Y-106026822D01*
X188149764Y-106030568D01*
X188158500Y-106034890D01*
X188166880Y-106039788D01*
X188174903Y-106045262D01*
X188182570Y-106051313D01*
X188189880Y-106057940D01*
X188196833Y-106065143D01*
X188203430Y-106072923D01*
X188209670Y-106081279D01*
X188215554Y-106090211D01*
X188221081Y-106099719D01*
X188226251Y-106109803D01*
X188231065Y-106120464D01*
X188235523Y-106131701D01*
X188239623Y-106143515D01*
X188243367Y-106155904D01*
X188246755Y-106168870D01*
X188249786Y-106182412D01*
X188252460Y-106196531D01*
X188254778Y-106211225D01*
X188256739Y-106226496D01*
X188258344Y-106242343D01*
X188259592Y-106258767D01*
X188260484Y-106275766D01*
X188261018Y-106293342D01*
X188261197Y-106311495D01*
X188261102Y-106324112D01*
X188260817Y-106336470D01*
X188260341Y-106348570D01*
X188259676Y-106360412D01*
X188258820Y-106371995D01*
X188257775Y-106383319D01*
X188256539Y-106394385D01*
X188255114Y-106405192D01*
X188253498Y-106415741D01*
X188251692Y-106426031D01*
X188249696Y-106436063D01*
X188247510Y-106445836D01*
X188245133Y-106455350D01*
X188242567Y-106464606D01*
X188239811Y-106473604D01*
X188236864Y-106482342D01*
X188233727Y-106490823D01*
X188230401Y-106499044D01*
X188226884Y-106507008D01*
X188223177Y-106514712D01*
X188219280Y-106522158D01*
X188215193Y-106529346D01*
X188210915Y-106536275D01*
X188206448Y-106542945D01*
X188201791Y-106549357D01*
X188196943Y-106555510D01*
X188191906Y-106561405D01*
X188186678Y-106567041D01*
X188181260Y-106572419D01*
X188175652Y-106577538D01*
X188169854Y-106582399D01*
X188163866Y-106587001D01*
X188301253Y-107032500D01*
X188216989Y-107032500D01*
X188096699Y-106625835D01*
X188024159Y-106625835D01*
X188024159Y-107032500D01*
X187952107Y-107032500D01*
X187952107Y-106141257D01*
X188024159Y-106141257D01*
X188024159Y-106501027D01*
X188076549Y-106501027D01*
X188083603Y-106500856D01*
X188090416Y-106500344D01*
X188096987Y-106499490D01*
X188103317Y-106498295D01*
X188109405Y-106496758D01*
X188115252Y-106494879D01*
X188120858Y-106492659D01*
X188126222Y-106490097D01*
X188131345Y-106487194D01*
X188136226Y-106483949D01*
X188140867Y-106480363D01*
X188147374Y-106474343D01*
X188153339Y-106467554D01*
X188158760Y-106459997D01*
X188160447Y-106457308D01*
X188165204Y-106448649D01*
X188169494Y-106439067D01*
X188173316Y-106428562D01*
X188176670Y-106417133D01*
X188179555Y-106404782D01*
X188181973Y-106391508D01*
X188183923Y-106377311D01*
X188184963Y-106367333D01*
X188185795Y-106356945D01*
X188186419Y-106346147D01*
X188186835Y-106334938D01*
X188187043Y-106323320D01*
X188187069Y-106317356D01*
X188186966Y-106305809D01*
X188186659Y-106294676D01*
X188186146Y-106283957D01*
X188185428Y-106273652D01*
X188184505Y-106263761D01*
X188182736Y-106249701D01*
X188180505Y-106236573D01*
X188177813Y-106224376D01*
X188174659Y-106213111D01*
X188171044Y-106202778D01*
X188166967Y-106193376D01*
X188162428Y-106184906D01*
X188160813Y-106182290D01*
X188155617Y-106174957D01*
X188149828Y-106168345D01*
X188143446Y-106162455D01*
X188138863Y-106158929D01*
X188134016Y-106155723D01*
X188128906Y-106152838D01*
X188123533Y-106150273D01*
X188117896Y-106148029D01*
X188111996Y-106146106D01*
X188105833Y-106144503D01*
X188099406Y-106143221D01*
X188092716Y-106142259D01*
X188085763Y-106141618D01*
X188078546Y-106141297D01*
X188074839Y-106141257D01*
X188024159Y-106141257D01*
X187952107Y-106141257D01*
X187952107Y-106016449D01*
X188078625Y-106016449D01*
X188089858Y-106016737D01*
G37*
D12*
G36*
X152587428Y-91416844D02*
G01*
X153045750Y-91416844D01*
X153045750Y-92179614D01*
X153019370Y-92189463D01*
X152992804Y-92198676D01*
X152966053Y-92207254D01*
X152939115Y-92215197D01*
X152911991Y-92222504D01*
X152884681Y-92229176D01*
X152857185Y-92235213D01*
X152829503Y-92240614D01*
X152801635Y-92245379D01*
X152773581Y-92249509D01*
X152745341Y-92253004D01*
X152716915Y-92255864D01*
X152688303Y-92258087D01*
X152659504Y-92259676D01*
X152630520Y-92260629D01*
X152601350Y-92260947D01*
X152584226Y-92260743D01*
X152567338Y-92260130D01*
X152550686Y-92259108D01*
X152534271Y-92257678D01*
X152518091Y-92255840D01*
X152502148Y-92253592D01*
X152486441Y-92250937D01*
X152470970Y-92247872D01*
X152455735Y-92244399D01*
X152440736Y-92240518D01*
X152425974Y-92236228D01*
X152411447Y-92231529D01*
X152397157Y-92226422D01*
X152383103Y-92220906D01*
X152369285Y-92214981D01*
X152355703Y-92208648D01*
X152342357Y-92201907D01*
X152329247Y-92194757D01*
X152316374Y-92187198D01*
X152303736Y-92179230D01*
X152291335Y-92170854D01*
X152279170Y-92162070D01*
X152267241Y-92152877D01*
X152255548Y-92143275D01*
X152244091Y-92133265D01*
X152232870Y-92122846D01*
X152221886Y-92112019D01*
X152211138Y-92100783D01*
X152200625Y-92089138D01*
X152190349Y-92077085D01*
X152180309Y-92064623D01*
X152170505Y-92051753D01*
X152160971Y-92038523D01*
X152151739Y-92024981D01*
X152142810Y-92011128D01*
X152134184Y-91996964D01*
X152125860Y-91982489D01*
X152117839Y-91967702D01*
X152110121Y-91952604D01*
X152102705Y-91937195D01*
X152095592Y-91921475D01*
X152088782Y-91905443D01*
X152082274Y-91889100D01*
X152076069Y-91872446D01*
X152070167Y-91855481D01*
X152064567Y-91838204D01*
X152059271Y-91820616D01*
X152054276Y-91802717D01*
X152049585Y-91784506D01*
X152045196Y-91765984D01*
X152041110Y-91747151D01*
X152037326Y-91728007D01*
X152033845Y-91708551D01*
X152030667Y-91688785D01*
X152027792Y-91668706D01*
X152025219Y-91648317D01*
X152022949Y-91627616D01*
X152020982Y-91606604D01*
X152019317Y-91585281D01*
X152017955Y-91563647D01*
X152016895Y-91541701D01*
X152016139Y-91519444D01*
X152015685Y-91496876D01*
X152015533Y-91473996D01*
X152015699Y-91451297D01*
X152016197Y-91428904D01*
X152017027Y-91406815D01*
X152018189Y-91385033D01*
X152019684Y-91363556D01*
X152021510Y-91342384D01*
X152023668Y-91321518D01*
X152026158Y-91300958D01*
X152028980Y-91280703D01*
X152032134Y-91260754D01*
X152035620Y-91241110D01*
X152039439Y-91221772D01*
X152043589Y-91202739D01*
X152048071Y-91184012D01*
X152052885Y-91165590D01*
X152058032Y-91147474D01*
X152063510Y-91129664D01*
X152069320Y-91112159D01*
X152075463Y-91094959D01*
X152081937Y-91078065D01*
X152088743Y-91061477D01*
X152095882Y-91045194D01*
X152103352Y-91029217D01*
X152111154Y-91013545D01*
X152119289Y-90998179D01*
X152127755Y-90983118D01*
X152136554Y-90968363D01*
X152145684Y-90953914D01*
X152155147Y-90939770D01*
X152164941Y-90925931D01*
X152175068Y-90912398D01*
X152185526Y-90899171D01*
X152196276Y-90886300D01*
X152207276Y-90873839D01*
X152218527Y-90861786D01*
X152230028Y-90850141D01*
X152241780Y-90838905D01*
X152253782Y-90828078D01*
X152266034Y-90817659D01*
X152278537Y-90807648D01*
X152291290Y-90798047D01*
X152304294Y-90788854D01*
X152317548Y-90780069D01*
X152331053Y-90771693D01*
X152344808Y-90763726D01*
X152358814Y-90756167D01*
X152373070Y-90749017D01*
X152387576Y-90742275D01*
X152402333Y-90735942D01*
X152417340Y-90730018D01*
X152432598Y-90724502D01*
X152448107Y-90719395D01*
X152463865Y-90714696D01*
X152479874Y-90710406D01*
X152496134Y-90706524D01*
X152512644Y-90703051D01*
X152529404Y-90699987D01*
X152546415Y-90697331D01*
X152563677Y-90695084D01*
X152581188Y-90693245D01*
X152598951Y-90691815D01*
X152616963Y-90690794D01*
X152635226Y-90690181D01*
X152653740Y-90689977D01*
X152678719Y-90690349D01*
X152703462Y-90691465D01*
X152727972Y-90693326D01*
X152752246Y-90695930D01*
X152776286Y-90699279D01*
X152800091Y-90703372D01*
X152823661Y-90708209D01*
X152846997Y-90713790D01*
X152870098Y-90720116D01*
X152892964Y-90727186D01*
X152915596Y-90735000D01*
X152937993Y-90743558D01*
X152960155Y-90752860D01*
X152982082Y-90762906D01*
X153003775Y-90773697D01*
X153025233Y-90785232D01*
X152941336Y-90974275D01*
X152921555Y-90963140D01*
X152901963Y-90952723D01*
X152882560Y-90943024D01*
X152863346Y-90934044D01*
X152844321Y-90925782D01*
X152825485Y-90918239D01*
X152806837Y-90911414D01*
X152788379Y-90905307D01*
X152770109Y-90899919D01*
X152752029Y-90895250D01*
X152734137Y-90891298D01*
X152716434Y-90888065D01*
X152698920Y-90885551D01*
X152681595Y-90883755D01*
X152664459Y-90882677D01*
X152647512Y-90882318D01*
X152623888Y-90882928D01*
X152600920Y-90884757D01*
X152578608Y-90887805D01*
X152556951Y-90892073D01*
X152535949Y-90897559D01*
X152515603Y-90904266D01*
X152495913Y-90912191D01*
X152476878Y-90921336D01*
X152458498Y-90931700D01*
X152440773Y-90943283D01*
X152423705Y-90956086D01*
X152407291Y-90970108D01*
X152391533Y-90985349D01*
X152376431Y-91001810D01*
X152361984Y-91019490D01*
X152348192Y-91038389D01*
X152335193Y-91058343D01*
X152323033Y-91079279D01*
X152311712Y-91101196D01*
X152301229Y-91124096D01*
X152291585Y-91147977D01*
X152282779Y-91172839D01*
X152274812Y-91198684D01*
X152267684Y-91225510D01*
X152261394Y-91253318D01*
X152255943Y-91282107D01*
X152253532Y-91296870D01*
X152251330Y-91311879D01*
X152249339Y-91327133D01*
X152247556Y-91342632D01*
X152245984Y-91358377D01*
X152244621Y-91374367D01*
X152243468Y-91390602D01*
X152242525Y-91407083D01*
X152241791Y-91423810D01*
X152241267Y-91440782D01*
X152240952Y-91457999D01*
X152240847Y-91475462D01*
X152241233Y-91511954D01*
X152242389Y-91547288D01*
X152244315Y-91581463D01*
X152247013Y-91614480D01*
X152250481Y-91646338D01*
X152254719Y-91677038D01*
X152259728Y-91706579D01*
X152265508Y-91734962D01*
X152272059Y-91762187D01*
X152279380Y-91788252D01*
X152287472Y-91813160D01*
X152296334Y-91836909D01*
X152305968Y-91859499D01*
X152316371Y-91880931D01*
X152327546Y-91901205D01*
X152339491Y-91920320D01*
X152352207Y-91938276D01*
X152365693Y-91955074D01*
X152379950Y-91970714D01*
X152394978Y-91985195D01*
X152410776Y-91998517D01*
X152427345Y-92010681D01*
X152444685Y-92021687D01*
X152462795Y-92031534D01*
X152481676Y-92040223D01*
X152501328Y-92047753D01*
X152521750Y-92054125D01*
X152542943Y-92059338D01*
X152564907Y-92063392D01*
X152587641Y-92066289D01*
X152611146Y-92068026D01*
X152635422Y-92068606D01*
X152653894Y-92068367D01*
X152672353Y-92067652D01*
X152690799Y-92066461D01*
X152709233Y-92064793D01*
X152727653Y-92062649D01*
X152746061Y-92060027D01*
X152764456Y-92056930D01*
X152782838Y-92053356D01*
X152801207Y-92049305D01*
X152819563Y-92044778D01*
X152831793Y-92041495D01*
X152831793Y-91609185D01*
X152587428Y-91609185D01*
X152587428Y-91416844D01*
G37*
G36*
X154303845Y-92237500D02*
G01*
X154063510Y-92237500D01*
X153465603Y-90996624D01*
X153472930Y-90992594D01*
X153474283Y-91009707D01*
X153475592Y-91026563D01*
X153476859Y-91043161D01*
X153478082Y-91059501D01*
X153479263Y-91075584D01*
X153480401Y-91091409D01*
X153481496Y-91106977D01*
X153482547Y-91122287D01*
X153483556Y-91137339D01*
X153484522Y-91152134D01*
X153486326Y-91180951D01*
X153487957Y-91208737D01*
X153489417Y-91235493D01*
X153490705Y-91261219D01*
X153491821Y-91285914D01*
X153492766Y-91309579D01*
X153493538Y-91332213D01*
X153494139Y-91353817D01*
X153494569Y-91374391D01*
X153494826Y-91393934D01*
X153494912Y-91412447D01*
X153494912Y-92237500D01*
X153294511Y-92237500D01*
X153294511Y-90713424D01*
X153533014Y-90713424D01*
X154127257Y-91949904D01*
X154121029Y-91953934D01*
X154119812Y-91935101D01*
X154118633Y-91916660D01*
X154117493Y-91898611D01*
X154116392Y-91880953D01*
X154115329Y-91863686D01*
X154114305Y-91846811D01*
X154113320Y-91830327D01*
X154112373Y-91814234D01*
X154111465Y-91798533D01*
X154110596Y-91783224D01*
X154109765Y-91768305D01*
X154108220Y-91739643D01*
X154106829Y-91712546D01*
X154105592Y-91687015D01*
X154104510Y-91663050D01*
X154103583Y-91640650D01*
X154102810Y-91619816D01*
X154102192Y-91600548D01*
X154101728Y-91582845D01*
X154101419Y-91566708D01*
X154101245Y-91545437D01*
X154101245Y-90713424D01*
X154303845Y-90713424D01*
X154303845Y-92237500D01*
G37*
G36*
X154939550Y-90713617D02*
G01*
X154959843Y-90714196D01*
X154979850Y-90715160D01*
X154999570Y-90716510D01*
X155019005Y-90718245D01*
X155038153Y-90720366D01*
X155057015Y-90722873D01*
X155075591Y-90725766D01*
X155093881Y-90729044D01*
X155111884Y-90732708D01*
X155129601Y-90736758D01*
X155147032Y-90741193D01*
X155164177Y-90746014D01*
X155181035Y-90751221D01*
X155197607Y-90756814D01*
X155213893Y-90762792D01*
X155229893Y-90769156D01*
X155245607Y-90775905D01*
X155261034Y-90783040D01*
X155276175Y-90790561D01*
X155291030Y-90798468D01*
X155305599Y-90806760D01*
X155319881Y-90815438D01*
X155333878Y-90824501D01*
X155347588Y-90833950D01*
X155361012Y-90843785D01*
X155374149Y-90854006D01*
X155387001Y-90864612D01*
X155399566Y-90875604D01*
X155411845Y-90886982D01*
X155423837Y-90898745D01*
X155435544Y-90910894D01*
X155446949Y-90923388D01*
X155457992Y-90936185D01*
X155468673Y-90949285D01*
X155478992Y-90962689D01*
X155488949Y-90976396D01*
X155498544Y-90990407D01*
X155507777Y-91004721D01*
X155516648Y-91019338D01*
X155525156Y-91034259D01*
X155533303Y-91049483D01*
X155541087Y-91065011D01*
X155548510Y-91080842D01*
X155555570Y-91096976D01*
X155562269Y-91113414D01*
X155568605Y-91130155D01*
X155574579Y-91147199D01*
X155580191Y-91164547D01*
X155585441Y-91182199D01*
X155590329Y-91200153D01*
X155594855Y-91218411D01*
X155599019Y-91236973D01*
X155602821Y-91255838D01*
X155606260Y-91275006D01*
X155609338Y-91294478D01*
X155612053Y-91314253D01*
X155614407Y-91334331D01*
X155616398Y-91354713D01*
X155618028Y-91375399D01*
X155619295Y-91396387D01*
X155620200Y-91417679D01*
X155620743Y-91439275D01*
X155620924Y-91461174D01*
X155620737Y-91484451D01*
X155620174Y-91507387D01*
X155619237Y-91529983D01*
X155617925Y-91552238D01*
X155616237Y-91574153D01*
X155614175Y-91595727D01*
X155611738Y-91616960D01*
X155608926Y-91637853D01*
X155605739Y-91658405D01*
X155602177Y-91678617D01*
X155598240Y-91698487D01*
X155593928Y-91718018D01*
X155589241Y-91737208D01*
X155584179Y-91756057D01*
X155578742Y-91774565D01*
X155572930Y-91792733D01*
X155566744Y-91810561D01*
X155560182Y-91828047D01*
X155553245Y-91845193D01*
X155545934Y-91861999D01*
X155538247Y-91878464D01*
X155530186Y-91894588D01*
X155521750Y-91910372D01*
X155512938Y-91925815D01*
X155503752Y-91940918D01*
X155494191Y-91955680D01*
X155484255Y-91970101D01*
X155473943Y-91984182D01*
X155463257Y-91997922D01*
X155452196Y-92011321D01*
X155440760Y-92024380D01*
X155428949Y-92037098D01*
X155416808Y-92049428D01*
X155404337Y-92061366D01*
X155391535Y-92072912D01*
X155378402Y-92084067D01*
X155364939Y-92094831D01*
X155351146Y-92105203D01*
X155337021Y-92115184D01*
X155322566Y-92124774D01*
X155307781Y-92133972D01*
X155292665Y-92142779D01*
X155277218Y-92151194D01*
X155261441Y-92159218D01*
X155245333Y-92166850D01*
X155228894Y-92174091D01*
X155212125Y-92180941D01*
X155195026Y-92187399D01*
X155177595Y-92193466D01*
X155159835Y-92199141D01*
X155141743Y-92204425D01*
X155123321Y-92209318D01*
X155104569Y-92213819D01*
X155085486Y-92217929D01*
X155066072Y-92221647D01*
X155046328Y-92224974D01*
X155026253Y-92227910D01*
X155005847Y-92230454D01*
X154985111Y-92232607D01*
X154964044Y-92234368D01*
X154942647Y-92235738D01*
X154920919Y-92236717D01*
X154898861Y-92237304D01*
X154876472Y-92237500D01*
X154554804Y-92237500D01*
X154554804Y-90900636D01*
X154770959Y-90900636D01*
X154770959Y-92050287D01*
X154858154Y-92050287D01*
X154891152Y-92049718D01*
X154923103Y-92048012D01*
X154954007Y-92045168D01*
X154983862Y-92041185D01*
X155012671Y-92036066D01*
X155040431Y-92029808D01*
X155067145Y-92022413D01*
X155092810Y-92013880D01*
X155117428Y-92004209D01*
X155140998Y-91993401D01*
X155163521Y-91981455D01*
X155184996Y-91968371D01*
X155205424Y-91954149D01*
X155224804Y-91938790D01*
X155243137Y-91922292D01*
X155260422Y-91904658D01*
X155276659Y-91885885D01*
X155291849Y-91865975D01*
X155305991Y-91844927D01*
X155319086Y-91822741D01*
X155331133Y-91799417D01*
X155342132Y-91774956D01*
X155352084Y-91749357D01*
X155360989Y-91722620D01*
X155368845Y-91694746D01*
X155375655Y-91665734D01*
X155381416Y-91635584D01*
X155386130Y-91604296D01*
X155389797Y-91571871D01*
X155392416Y-91538308D01*
X155393987Y-91503607D01*
X155394511Y-91467768D01*
X155394027Y-91432876D01*
X155392573Y-91399092D01*
X155390151Y-91366415D01*
X155386760Y-91334847D01*
X155382400Y-91304385D01*
X155377072Y-91275032D01*
X155370774Y-91246786D01*
X155363507Y-91219648D01*
X155355272Y-91193617D01*
X155346068Y-91168695D01*
X155335895Y-91144880D01*
X155324753Y-91122172D01*
X155312642Y-91100572D01*
X155299563Y-91080080D01*
X155285514Y-91060696D01*
X155270497Y-91042419D01*
X155254510Y-91025250D01*
X155237555Y-91009189D01*
X155219631Y-90994235D01*
X155200739Y-90980389D01*
X155180877Y-90967651D01*
X155160046Y-90956020D01*
X155138247Y-90945497D01*
X155115479Y-90936082D01*
X155091742Y-90927774D01*
X155067036Y-90920575D01*
X155041361Y-90914482D01*
X155014717Y-90909498D01*
X154987105Y-90905621D01*
X154958523Y-90902852D01*
X154928973Y-90901190D01*
X154898454Y-90900636D01*
X154770959Y-90900636D01*
X154554804Y-90900636D01*
X154554804Y-90713424D01*
X154918970Y-90713424D01*
X154939550Y-90713617D01*
G37*
%TO.C,R9*%
X141468333Y-101869880D02*
X141135000Y-101393690D01*
X140896905Y-101869880D02*
X140896905Y-100869880D01*
X140896905Y-100869880D02*
X141277857Y-100869880D01*
X141277857Y-100869880D02*
X141373095Y-100917500D01*
X141373095Y-100917500D02*
X141420714Y-100965119D01*
X141420714Y-100965119D02*
X141468333Y-101060357D01*
X141468333Y-101060357D02*
X141468333Y-101203214D01*
X141468333Y-101203214D02*
X141420714Y-101298452D01*
X141420714Y-101298452D02*
X141373095Y-101346071D01*
X141373095Y-101346071D02*
X141277857Y-101393690D01*
X141277857Y-101393690D02*
X140896905Y-101393690D01*
X141944524Y-101869880D02*
X142135000Y-101869880D01*
X142135000Y-101869880D02*
X142230238Y-101822261D01*
X142230238Y-101822261D02*
X142277857Y-101774642D01*
X142277857Y-101774642D02*
X142373095Y-101631785D01*
X142373095Y-101631785D02*
X142420714Y-101441309D01*
X142420714Y-101441309D02*
X142420714Y-101060357D01*
X142420714Y-101060357D02*
X142373095Y-100965119D01*
X142373095Y-100965119D02*
X142325476Y-100917500D01*
X142325476Y-100917500D02*
X142230238Y-100869880D01*
X142230238Y-100869880D02*
X142039762Y-100869880D01*
X142039762Y-100869880D02*
X141944524Y-100917500D01*
X141944524Y-100917500D02*
X141896905Y-100965119D01*
X141896905Y-100965119D02*
X141849286Y-101060357D01*
X141849286Y-101060357D02*
X141849286Y-101298452D01*
X141849286Y-101298452D02*
X141896905Y-101393690D01*
X141896905Y-101393690D02*
X141944524Y-101441309D01*
X141944524Y-101441309D02*
X142039762Y-101488928D01*
X142039762Y-101488928D02*
X142230238Y-101488928D01*
X142230238Y-101488928D02*
X142325476Y-101441309D01*
X142325476Y-101441309D02*
X142373095Y-101393690D01*
X142373095Y-101393690D02*
X142420714Y-101298452D01*
%TO.C,J6*%
X115661666Y-78609880D02*
X115661666Y-79324166D01*
X115661666Y-79324166D02*
X115614047Y-79467023D01*
X115614047Y-79467023D02*
X115518809Y-79562261D01*
X115518809Y-79562261D02*
X115375952Y-79609880D01*
X115375952Y-79609880D02*
X115280714Y-79609880D01*
X116566428Y-78609880D02*
X116375952Y-78609880D01*
X116375952Y-78609880D02*
X116280714Y-78657500D01*
X116280714Y-78657500D02*
X116233095Y-78705119D01*
X116233095Y-78705119D02*
X116137857Y-78847976D01*
X116137857Y-78847976D02*
X116090238Y-79038452D01*
X116090238Y-79038452D02*
X116090238Y-79419404D01*
X116090238Y-79419404D02*
X116137857Y-79514642D01*
X116137857Y-79514642D02*
X116185476Y-79562261D01*
X116185476Y-79562261D02*
X116280714Y-79609880D01*
X116280714Y-79609880D02*
X116471190Y-79609880D01*
X116471190Y-79609880D02*
X116566428Y-79562261D01*
X116566428Y-79562261D02*
X116614047Y-79514642D01*
X116614047Y-79514642D02*
X116661666Y-79419404D01*
X116661666Y-79419404D02*
X116661666Y-79181309D01*
X116661666Y-79181309D02*
X116614047Y-79086071D01*
X116614047Y-79086071D02*
X116566428Y-79038452D01*
X116566428Y-79038452D02*
X116471190Y-78990833D01*
X116471190Y-78990833D02*
X116280714Y-78990833D01*
X116280714Y-78990833D02*
X116185476Y-79038452D01*
X116185476Y-79038452D02*
X116137857Y-79086071D01*
X116137857Y-79086071D02*
X116090238Y-79181309D01*
%TO.C,J2*%
X136716666Y-115307380D02*
X136716666Y-116021666D01*
X136716666Y-116021666D02*
X136669047Y-116164523D01*
X136669047Y-116164523D02*
X136573809Y-116259761D01*
X136573809Y-116259761D02*
X136430952Y-116307380D01*
X136430952Y-116307380D02*
X136335714Y-116307380D01*
X137145238Y-115402619D02*
X137192857Y-115355000D01*
X137192857Y-115355000D02*
X137288095Y-115307380D01*
X137288095Y-115307380D02*
X137526190Y-115307380D01*
X137526190Y-115307380D02*
X137621428Y-115355000D01*
X137621428Y-115355000D02*
X137669047Y-115402619D01*
X137669047Y-115402619D02*
X137716666Y-115497857D01*
X137716666Y-115497857D02*
X137716666Y-115593095D01*
X137716666Y-115593095D02*
X137669047Y-115735952D01*
X137669047Y-115735952D02*
X137097619Y-116307380D01*
X137097619Y-116307380D02*
X137716666Y-116307380D01*
%TO.C,C7*%
X163428333Y-105964642D02*
X163380714Y-106012261D01*
X163380714Y-106012261D02*
X163237857Y-106059880D01*
X163237857Y-106059880D02*
X163142619Y-106059880D01*
X163142619Y-106059880D02*
X162999762Y-106012261D01*
X162999762Y-106012261D02*
X162904524Y-105917023D01*
X162904524Y-105917023D02*
X162856905Y-105821785D01*
X162856905Y-105821785D02*
X162809286Y-105631309D01*
X162809286Y-105631309D02*
X162809286Y-105488452D01*
X162809286Y-105488452D02*
X162856905Y-105297976D01*
X162856905Y-105297976D02*
X162904524Y-105202738D01*
X162904524Y-105202738D02*
X162999762Y-105107500D01*
X162999762Y-105107500D02*
X163142619Y-105059880D01*
X163142619Y-105059880D02*
X163237857Y-105059880D01*
X163237857Y-105059880D02*
X163380714Y-105107500D01*
X163380714Y-105107500D02*
X163428333Y-105155119D01*
X163761667Y-105059880D02*
X164428333Y-105059880D01*
X164428333Y-105059880D02*
X163999762Y-106059880D01*
%TO.C,R5*%
X141478333Y-97089880D02*
X141145000Y-96613690D01*
X140906905Y-97089880D02*
X140906905Y-96089880D01*
X140906905Y-96089880D02*
X141287857Y-96089880D01*
X141287857Y-96089880D02*
X141383095Y-96137500D01*
X141383095Y-96137500D02*
X141430714Y-96185119D01*
X141430714Y-96185119D02*
X141478333Y-96280357D01*
X141478333Y-96280357D02*
X141478333Y-96423214D01*
X141478333Y-96423214D02*
X141430714Y-96518452D01*
X141430714Y-96518452D02*
X141383095Y-96566071D01*
X141383095Y-96566071D02*
X141287857Y-96613690D01*
X141287857Y-96613690D02*
X140906905Y-96613690D01*
X142383095Y-96089880D02*
X141906905Y-96089880D01*
X141906905Y-96089880D02*
X141859286Y-96566071D01*
X141859286Y-96566071D02*
X141906905Y-96518452D01*
X141906905Y-96518452D02*
X142002143Y-96470833D01*
X142002143Y-96470833D02*
X142240238Y-96470833D01*
X142240238Y-96470833D02*
X142335476Y-96518452D01*
X142335476Y-96518452D02*
X142383095Y-96566071D01*
X142383095Y-96566071D02*
X142430714Y-96661309D01*
X142430714Y-96661309D02*
X142430714Y-96899404D01*
X142430714Y-96899404D02*
X142383095Y-96994642D01*
X142383095Y-96994642D02*
X142335476Y-97042261D01*
X142335476Y-97042261D02*
X142240238Y-97089880D01*
X142240238Y-97089880D02*
X142002143Y-97089880D01*
X142002143Y-97089880D02*
X141906905Y-97042261D01*
X141906905Y-97042261D02*
X141859286Y-96994642D01*
%TO.C,C11*%
X176602142Y-88264642D02*
X176554523Y-88312261D01*
X176554523Y-88312261D02*
X176411666Y-88359880D01*
X176411666Y-88359880D02*
X176316428Y-88359880D01*
X176316428Y-88359880D02*
X176173571Y-88312261D01*
X176173571Y-88312261D02*
X176078333Y-88217023D01*
X176078333Y-88217023D02*
X176030714Y-88121785D01*
X176030714Y-88121785D02*
X175983095Y-87931309D01*
X175983095Y-87931309D02*
X175983095Y-87788452D01*
X175983095Y-87788452D02*
X176030714Y-87597976D01*
X176030714Y-87597976D02*
X176078333Y-87502738D01*
X176078333Y-87502738D02*
X176173571Y-87407500D01*
X176173571Y-87407500D02*
X176316428Y-87359880D01*
X176316428Y-87359880D02*
X176411666Y-87359880D01*
X176411666Y-87359880D02*
X176554523Y-87407500D01*
X176554523Y-87407500D02*
X176602142Y-87455119D01*
X177554523Y-88359880D02*
X176983095Y-88359880D01*
X177268809Y-88359880D02*
X177268809Y-87359880D01*
X177268809Y-87359880D02*
X177173571Y-87502738D01*
X177173571Y-87502738D02*
X177078333Y-87597976D01*
X177078333Y-87597976D02*
X176983095Y-87645595D01*
X178506904Y-88359880D02*
X177935476Y-88359880D01*
X178221190Y-88359880D02*
X178221190Y-87359880D01*
X178221190Y-87359880D02*
X178125952Y-87502738D01*
X178125952Y-87502738D02*
X178030714Y-87597976D01*
X178030714Y-87597976D02*
X177935476Y-87645595D01*
%TO.C,C3*%
X177228333Y-79314642D02*
X177180714Y-79362261D01*
X177180714Y-79362261D02*
X177037857Y-79409880D01*
X177037857Y-79409880D02*
X176942619Y-79409880D01*
X176942619Y-79409880D02*
X176799762Y-79362261D01*
X176799762Y-79362261D02*
X176704524Y-79267023D01*
X176704524Y-79267023D02*
X176656905Y-79171785D01*
X176656905Y-79171785D02*
X176609286Y-78981309D01*
X176609286Y-78981309D02*
X176609286Y-78838452D01*
X176609286Y-78838452D02*
X176656905Y-78647976D01*
X176656905Y-78647976D02*
X176704524Y-78552738D01*
X176704524Y-78552738D02*
X176799762Y-78457500D01*
X176799762Y-78457500D02*
X176942619Y-78409880D01*
X176942619Y-78409880D02*
X177037857Y-78409880D01*
X177037857Y-78409880D02*
X177180714Y-78457500D01*
X177180714Y-78457500D02*
X177228333Y-78505119D01*
X177561667Y-78409880D02*
X178180714Y-78409880D01*
X178180714Y-78409880D02*
X177847381Y-78790833D01*
X177847381Y-78790833D02*
X177990238Y-78790833D01*
X177990238Y-78790833D02*
X178085476Y-78838452D01*
X178085476Y-78838452D02*
X178133095Y-78886071D01*
X178133095Y-78886071D02*
X178180714Y-78981309D01*
X178180714Y-78981309D02*
X178180714Y-79219404D01*
X178180714Y-79219404D02*
X178133095Y-79314642D01*
X178133095Y-79314642D02*
X178085476Y-79362261D01*
X178085476Y-79362261D02*
X177990238Y-79409880D01*
X177990238Y-79409880D02*
X177704524Y-79409880D01*
X177704524Y-79409880D02*
X177609286Y-79362261D01*
X177609286Y-79362261D02*
X177561667Y-79314642D01*
%TO.C,C1*%
X163428333Y-99314642D02*
X163380714Y-99362261D01*
X163380714Y-99362261D02*
X163237857Y-99409880D01*
X163237857Y-99409880D02*
X163142619Y-99409880D01*
X163142619Y-99409880D02*
X162999762Y-99362261D01*
X162999762Y-99362261D02*
X162904524Y-99267023D01*
X162904524Y-99267023D02*
X162856905Y-99171785D01*
X162856905Y-99171785D02*
X162809286Y-98981309D01*
X162809286Y-98981309D02*
X162809286Y-98838452D01*
X162809286Y-98838452D02*
X162856905Y-98647976D01*
X162856905Y-98647976D02*
X162904524Y-98552738D01*
X162904524Y-98552738D02*
X162999762Y-98457500D01*
X162999762Y-98457500D02*
X163142619Y-98409880D01*
X163142619Y-98409880D02*
X163237857Y-98409880D01*
X163237857Y-98409880D02*
X163380714Y-98457500D01*
X163380714Y-98457500D02*
X163428333Y-98505119D01*
X164380714Y-99409880D02*
X163809286Y-99409880D01*
X164095000Y-99409880D02*
X164095000Y-98409880D01*
X164095000Y-98409880D02*
X163999762Y-98552738D01*
X163999762Y-98552738D02*
X163904524Y-98647976D01*
X163904524Y-98647976D02*
X163809286Y-98695595D01*
%TO.C,C4*%
X163428333Y-92764642D02*
X163380714Y-92812261D01*
X163380714Y-92812261D02*
X163237857Y-92859880D01*
X163237857Y-92859880D02*
X163142619Y-92859880D01*
X163142619Y-92859880D02*
X162999762Y-92812261D01*
X162999762Y-92812261D02*
X162904524Y-92717023D01*
X162904524Y-92717023D02*
X162856905Y-92621785D01*
X162856905Y-92621785D02*
X162809286Y-92431309D01*
X162809286Y-92431309D02*
X162809286Y-92288452D01*
X162809286Y-92288452D02*
X162856905Y-92097976D01*
X162856905Y-92097976D02*
X162904524Y-92002738D01*
X162904524Y-92002738D02*
X162999762Y-91907500D01*
X162999762Y-91907500D02*
X163142619Y-91859880D01*
X163142619Y-91859880D02*
X163237857Y-91859880D01*
X163237857Y-91859880D02*
X163380714Y-91907500D01*
X163380714Y-91907500D02*
X163428333Y-91955119D01*
X164285476Y-92193214D02*
X164285476Y-92859880D01*
X164047381Y-91812261D02*
X163809286Y-92526547D01*
X163809286Y-92526547D02*
X164428333Y-92526547D01*
%TO.C,U4*%
X144633095Y-83259880D02*
X144633095Y-84069404D01*
X144633095Y-84069404D02*
X144680714Y-84164642D01*
X144680714Y-84164642D02*
X144728333Y-84212261D01*
X144728333Y-84212261D02*
X144823571Y-84259880D01*
X144823571Y-84259880D02*
X145014047Y-84259880D01*
X145014047Y-84259880D02*
X145109285Y-84212261D01*
X145109285Y-84212261D02*
X145156904Y-84164642D01*
X145156904Y-84164642D02*
X145204523Y-84069404D01*
X145204523Y-84069404D02*
X145204523Y-83259880D01*
X146109285Y-83593214D02*
X146109285Y-84259880D01*
X145871190Y-83212261D02*
X145633095Y-83926547D01*
X145633095Y-83926547D02*
X146252142Y-83926547D01*
%TO.C,R7*%
X153008333Y-97359880D02*
X152675000Y-96883690D01*
X152436905Y-97359880D02*
X152436905Y-96359880D01*
X152436905Y-96359880D02*
X152817857Y-96359880D01*
X152817857Y-96359880D02*
X152913095Y-96407500D01*
X152913095Y-96407500D02*
X152960714Y-96455119D01*
X152960714Y-96455119D02*
X153008333Y-96550357D01*
X153008333Y-96550357D02*
X153008333Y-96693214D01*
X153008333Y-96693214D02*
X152960714Y-96788452D01*
X152960714Y-96788452D02*
X152913095Y-96836071D01*
X152913095Y-96836071D02*
X152817857Y-96883690D01*
X152817857Y-96883690D02*
X152436905Y-96883690D01*
X153341667Y-96359880D02*
X154008333Y-96359880D01*
X154008333Y-96359880D02*
X153579762Y-97359880D01*
%TO.C,Y1*%
X127006309Y-85283690D02*
X127006309Y-85759880D01*
X126672976Y-84759880D02*
X127006309Y-85283690D01*
X127006309Y-85283690D02*
X127339642Y-84759880D01*
X128196785Y-85759880D02*
X127625357Y-85759880D01*
X127911071Y-85759880D02*
X127911071Y-84759880D01*
X127911071Y-84759880D02*
X127815833Y-84902738D01*
X127815833Y-84902738D02*
X127720595Y-84997976D01*
X127720595Y-84997976D02*
X127625357Y-85045595D01*
%TO.C,R8*%
X147178333Y-101859880D02*
X146845000Y-101383690D01*
X146606905Y-101859880D02*
X146606905Y-100859880D01*
X146606905Y-100859880D02*
X146987857Y-100859880D01*
X146987857Y-100859880D02*
X147083095Y-100907500D01*
X147083095Y-100907500D02*
X147130714Y-100955119D01*
X147130714Y-100955119D02*
X147178333Y-101050357D01*
X147178333Y-101050357D02*
X147178333Y-101193214D01*
X147178333Y-101193214D02*
X147130714Y-101288452D01*
X147130714Y-101288452D02*
X147083095Y-101336071D01*
X147083095Y-101336071D02*
X146987857Y-101383690D01*
X146987857Y-101383690D02*
X146606905Y-101383690D01*
X147749762Y-101288452D02*
X147654524Y-101240833D01*
X147654524Y-101240833D02*
X147606905Y-101193214D01*
X147606905Y-101193214D02*
X147559286Y-101097976D01*
X147559286Y-101097976D02*
X147559286Y-101050357D01*
X147559286Y-101050357D02*
X147606905Y-100955119D01*
X147606905Y-100955119D02*
X147654524Y-100907500D01*
X147654524Y-100907500D02*
X147749762Y-100859880D01*
X147749762Y-100859880D02*
X147940238Y-100859880D01*
X147940238Y-100859880D02*
X148035476Y-100907500D01*
X148035476Y-100907500D02*
X148083095Y-100955119D01*
X148083095Y-100955119D02*
X148130714Y-101050357D01*
X148130714Y-101050357D02*
X148130714Y-101097976D01*
X148130714Y-101097976D02*
X148083095Y-101193214D01*
X148083095Y-101193214D02*
X148035476Y-101240833D01*
X148035476Y-101240833D02*
X147940238Y-101288452D01*
X147940238Y-101288452D02*
X147749762Y-101288452D01*
X147749762Y-101288452D02*
X147654524Y-101336071D01*
X147654524Y-101336071D02*
X147606905Y-101383690D01*
X147606905Y-101383690D02*
X147559286Y-101478928D01*
X147559286Y-101478928D02*
X147559286Y-101669404D01*
X147559286Y-101669404D02*
X147606905Y-101764642D01*
X147606905Y-101764642D02*
X147654524Y-101812261D01*
X147654524Y-101812261D02*
X147749762Y-101859880D01*
X147749762Y-101859880D02*
X147940238Y-101859880D01*
X147940238Y-101859880D02*
X148035476Y-101812261D01*
X148035476Y-101812261D02*
X148083095Y-101764642D01*
X148083095Y-101764642D02*
X148130714Y-101669404D01*
X148130714Y-101669404D02*
X148130714Y-101478928D01*
X148130714Y-101478928D02*
X148083095Y-101383690D01*
X148083095Y-101383690D02*
X148035476Y-101336071D01*
X148035476Y-101336071D02*
X147940238Y-101288452D01*
%TO.C,D2*%
X167506905Y-72329880D02*
X167506905Y-71329880D01*
X167506905Y-71329880D02*
X167745000Y-71329880D01*
X167745000Y-71329880D02*
X167887857Y-71377500D01*
X167887857Y-71377500D02*
X167983095Y-71472738D01*
X167983095Y-71472738D02*
X168030714Y-71567976D01*
X168030714Y-71567976D02*
X168078333Y-71758452D01*
X168078333Y-71758452D02*
X168078333Y-71901309D01*
X168078333Y-71901309D02*
X168030714Y-72091785D01*
X168030714Y-72091785D02*
X167983095Y-72187023D01*
X167983095Y-72187023D02*
X167887857Y-72282261D01*
X167887857Y-72282261D02*
X167745000Y-72329880D01*
X167745000Y-72329880D02*
X167506905Y-72329880D01*
X168459286Y-71425119D02*
X168506905Y-71377500D01*
X168506905Y-71377500D02*
X168602143Y-71329880D01*
X168602143Y-71329880D02*
X168840238Y-71329880D01*
X168840238Y-71329880D02*
X168935476Y-71377500D01*
X168935476Y-71377500D02*
X168983095Y-71425119D01*
X168983095Y-71425119D02*
X169030714Y-71520357D01*
X169030714Y-71520357D02*
X169030714Y-71615595D01*
X169030714Y-71615595D02*
X168983095Y-71758452D01*
X168983095Y-71758452D02*
X168411667Y-72329880D01*
X168411667Y-72329880D02*
X169030714Y-72329880D01*
%TO.C,SW1*%
X183951667Y-92212261D02*
X184094524Y-92259880D01*
X184094524Y-92259880D02*
X184332619Y-92259880D01*
X184332619Y-92259880D02*
X184427857Y-92212261D01*
X184427857Y-92212261D02*
X184475476Y-92164642D01*
X184475476Y-92164642D02*
X184523095Y-92069404D01*
X184523095Y-92069404D02*
X184523095Y-91974166D01*
X184523095Y-91974166D02*
X184475476Y-91878928D01*
X184475476Y-91878928D02*
X184427857Y-91831309D01*
X184427857Y-91831309D02*
X184332619Y-91783690D01*
X184332619Y-91783690D02*
X184142143Y-91736071D01*
X184142143Y-91736071D02*
X184046905Y-91688452D01*
X184046905Y-91688452D02*
X183999286Y-91640833D01*
X183999286Y-91640833D02*
X183951667Y-91545595D01*
X183951667Y-91545595D02*
X183951667Y-91450357D01*
X183951667Y-91450357D02*
X183999286Y-91355119D01*
X183999286Y-91355119D02*
X184046905Y-91307500D01*
X184046905Y-91307500D02*
X184142143Y-91259880D01*
X184142143Y-91259880D02*
X184380238Y-91259880D01*
X184380238Y-91259880D02*
X184523095Y-91307500D01*
X184856429Y-91259880D02*
X185094524Y-92259880D01*
X185094524Y-92259880D02*
X185285000Y-91545595D01*
X185285000Y-91545595D02*
X185475476Y-92259880D01*
X185475476Y-92259880D02*
X185713572Y-91259880D01*
X186618333Y-92259880D02*
X186046905Y-92259880D01*
X186332619Y-92259880D02*
X186332619Y-91259880D01*
X186332619Y-91259880D02*
X186237381Y-91402738D01*
X186237381Y-91402738D02*
X186142143Y-91497976D01*
X186142143Y-91497976D02*
X186046905Y-91545595D01*
%TO.C,D1*%
X174806905Y-72329880D02*
X174806905Y-71329880D01*
X174806905Y-71329880D02*
X175045000Y-71329880D01*
X175045000Y-71329880D02*
X175187857Y-71377500D01*
X175187857Y-71377500D02*
X175283095Y-71472738D01*
X175283095Y-71472738D02*
X175330714Y-71567976D01*
X175330714Y-71567976D02*
X175378333Y-71758452D01*
X175378333Y-71758452D02*
X175378333Y-71901309D01*
X175378333Y-71901309D02*
X175330714Y-72091785D01*
X175330714Y-72091785D02*
X175283095Y-72187023D01*
X175283095Y-72187023D02*
X175187857Y-72282261D01*
X175187857Y-72282261D02*
X175045000Y-72329880D01*
X175045000Y-72329880D02*
X174806905Y-72329880D01*
X176330714Y-72329880D02*
X175759286Y-72329880D01*
X176045000Y-72329880D02*
X176045000Y-71329880D01*
X176045000Y-71329880D02*
X175949762Y-71472738D01*
X175949762Y-71472738D02*
X175854524Y-71567976D01*
X175854524Y-71567976D02*
X175759286Y-71615595D01*
%TO.C,J5*%
X149161666Y-83359880D02*
X149161666Y-84074166D01*
X149161666Y-84074166D02*
X149114047Y-84217023D01*
X149114047Y-84217023D02*
X149018809Y-84312261D01*
X149018809Y-84312261D02*
X148875952Y-84359880D01*
X148875952Y-84359880D02*
X148780714Y-84359880D01*
X150114047Y-83359880D02*
X149637857Y-83359880D01*
X149637857Y-83359880D02*
X149590238Y-83836071D01*
X149590238Y-83836071D02*
X149637857Y-83788452D01*
X149637857Y-83788452D02*
X149733095Y-83740833D01*
X149733095Y-83740833D02*
X149971190Y-83740833D01*
X149971190Y-83740833D02*
X150066428Y-83788452D01*
X150066428Y-83788452D02*
X150114047Y-83836071D01*
X150114047Y-83836071D02*
X150161666Y-83931309D01*
X150161666Y-83931309D02*
X150161666Y-84169404D01*
X150161666Y-84169404D02*
X150114047Y-84264642D01*
X150114047Y-84264642D02*
X150066428Y-84312261D01*
X150066428Y-84312261D02*
X149971190Y-84359880D01*
X149971190Y-84359880D02*
X149733095Y-84359880D01*
X149733095Y-84359880D02*
X149637857Y-84312261D01*
X149637857Y-84312261D02*
X149590238Y-84264642D01*
%TO.C,R6*%
X147198333Y-97219880D02*
X146865000Y-96743690D01*
X146626905Y-97219880D02*
X146626905Y-96219880D01*
X146626905Y-96219880D02*
X147007857Y-96219880D01*
X147007857Y-96219880D02*
X147103095Y-96267500D01*
X147103095Y-96267500D02*
X147150714Y-96315119D01*
X147150714Y-96315119D02*
X147198333Y-96410357D01*
X147198333Y-96410357D02*
X147198333Y-96553214D01*
X147198333Y-96553214D02*
X147150714Y-96648452D01*
X147150714Y-96648452D02*
X147103095Y-96696071D01*
X147103095Y-96696071D02*
X147007857Y-96743690D01*
X147007857Y-96743690D02*
X146626905Y-96743690D01*
X148055476Y-96219880D02*
X147865000Y-96219880D01*
X147865000Y-96219880D02*
X147769762Y-96267500D01*
X147769762Y-96267500D02*
X147722143Y-96315119D01*
X147722143Y-96315119D02*
X147626905Y-96457976D01*
X147626905Y-96457976D02*
X147579286Y-96648452D01*
X147579286Y-96648452D02*
X147579286Y-97029404D01*
X147579286Y-97029404D02*
X147626905Y-97124642D01*
X147626905Y-97124642D02*
X147674524Y-97172261D01*
X147674524Y-97172261D02*
X147769762Y-97219880D01*
X147769762Y-97219880D02*
X147960238Y-97219880D01*
X147960238Y-97219880D02*
X148055476Y-97172261D01*
X148055476Y-97172261D02*
X148103095Y-97124642D01*
X148103095Y-97124642D02*
X148150714Y-97029404D01*
X148150714Y-97029404D02*
X148150714Y-96791309D01*
X148150714Y-96791309D02*
X148103095Y-96696071D01*
X148103095Y-96696071D02*
X148055476Y-96648452D01*
X148055476Y-96648452D02*
X147960238Y-96600833D01*
X147960238Y-96600833D02*
X147769762Y-96600833D01*
X147769762Y-96600833D02*
X147674524Y-96648452D01*
X147674524Y-96648452D02*
X147626905Y-96696071D01*
X147626905Y-96696071D02*
X147579286Y-96791309D01*
%TO.C,D4*%
X183444405Y-109279880D02*
X183444405Y-108279880D01*
X183444405Y-108279880D02*
X183682500Y-108279880D01*
X183682500Y-108279880D02*
X183825357Y-108327500D01*
X183825357Y-108327500D02*
X183920595Y-108422738D01*
X183920595Y-108422738D02*
X183968214Y-108517976D01*
X183968214Y-108517976D02*
X184015833Y-108708452D01*
X184015833Y-108708452D02*
X184015833Y-108851309D01*
X184015833Y-108851309D02*
X183968214Y-109041785D01*
X183968214Y-109041785D02*
X183920595Y-109137023D01*
X183920595Y-109137023D02*
X183825357Y-109232261D01*
X183825357Y-109232261D02*
X183682500Y-109279880D01*
X183682500Y-109279880D02*
X183444405Y-109279880D01*
X184872976Y-108613214D02*
X184872976Y-109279880D01*
X184634881Y-108232261D02*
X184396786Y-108946547D01*
X184396786Y-108946547D02*
X185015833Y-108946547D01*
%TO.C,U3*%
X165658095Y-79547380D02*
X165658095Y-80356904D01*
X165658095Y-80356904D02*
X165705714Y-80452142D01*
X165705714Y-80452142D02*
X165753333Y-80499761D01*
X165753333Y-80499761D02*
X165848571Y-80547380D01*
X165848571Y-80547380D02*
X166039047Y-80547380D01*
X166039047Y-80547380D02*
X166134285Y-80499761D01*
X166134285Y-80499761D02*
X166181904Y-80452142D01*
X166181904Y-80452142D02*
X166229523Y-80356904D01*
X166229523Y-80356904D02*
X166229523Y-79547380D01*
X166610476Y-79547380D02*
X167229523Y-79547380D01*
X167229523Y-79547380D02*
X166896190Y-79928333D01*
X166896190Y-79928333D02*
X167039047Y-79928333D01*
X167039047Y-79928333D02*
X167134285Y-79975952D01*
X167134285Y-79975952D02*
X167181904Y-80023571D01*
X167181904Y-80023571D02*
X167229523Y-80118809D01*
X167229523Y-80118809D02*
X167229523Y-80356904D01*
X167229523Y-80356904D02*
X167181904Y-80452142D01*
X167181904Y-80452142D02*
X167134285Y-80499761D01*
X167134285Y-80499761D02*
X167039047Y-80547380D01*
X167039047Y-80547380D02*
X166753333Y-80547380D01*
X166753333Y-80547380D02*
X166658095Y-80499761D01*
X166658095Y-80499761D02*
X166610476Y-80452142D01*
%TO.C,C8*%
X172078333Y-105964642D02*
X172030714Y-106012261D01*
X172030714Y-106012261D02*
X171887857Y-106059880D01*
X171887857Y-106059880D02*
X171792619Y-106059880D01*
X171792619Y-106059880D02*
X171649762Y-106012261D01*
X171649762Y-106012261D02*
X171554524Y-105917023D01*
X171554524Y-105917023D02*
X171506905Y-105821785D01*
X171506905Y-105821785D02*
X171459286Y-105631309D01*
X171459286Y-105631309D02*
X171459286Y-105488452D01*
X171459286Y-105488452D02*
X171506905Y-105297976D01*
X171506905Y-105297976D02*
X171554524Y-105202738D01*
X171554524Y-105202738D02*
X171649762Y-105107500D01*
X171649762Y-105107500D02*
X171792619Y-105059880D01*
X171792619Y-105059880D02*
X171887857Y-105059880D01*
X171887857Y-105059880D02*
X172030714Y-105107500D01*
X172030714Y-105107500D02*
X172078333Y-105155119D01*
X172649762Y-105488452D02*
X172554524Y-105440833D01*
X172554524Y-105440833D02*
X172506905Y-105393214D01*
X172506905Y-105393214D02*
X172459286Y-105297976D01*
X172459286Y-105297976D02*
X172459286Y-105250357D01*
X172459286Y-105250357D02*
X172506905Y-105155119D01*
X172506905Y-105155119D02*
X172554524Y-105107500D01*
X172554524Y-105107500D02*
X172649762Y-105059880D01*
X172649762Y-105059880D02*
X172840238Y-105059880D01*
X172840238Y-105059880D02*
X172935476Y-105107500D01*
X172935476Y-105107500D02*
X172983095Y-105155119D01*
X172983095Y-105155119D02*
X173030714Y-105250357D01*
X173030714Y-105250357D02*
X173030714Y-105297976D01*
X173030714Y-105297976D02*
X172983095Y-105393214D01*
X172983095Y-105393214D02*
X172935476Y-105440833D01*
X172935476Y-105440833D02*
X172840238Y-105488452D01*
X172840238Y-105488452D02*
X172649762Y-105488452D01*
X172649762Y-105488452D02*
X172554524Y-105536071D01*
X172554524Y-105536071D02*
X172506905Y-105583690D01*
X172506905Y-105583690D02*
X172459286Y-105678928D01*
X172459286Y-105678928D02*
X172459286Y-105869404D01*
X172459286Y-105869404D02*
X172506905Y-105964642D01*
X172506905Y-105964642D02*
X172554524Y-106012261D01*
X172554524Y-106012261D02*
X172649762Y-106059880D01*
X172649762Y-106059880D02*
X172840238Y-106059880D01*
X172840238Y-106059880D02*
X172935476Y-106012261D01*
X172935476Y-106012261D02*
X172983095Y-105964642D01*
X172983095Y-105964642D02*
X173030714Y-105869404D01*
X173030714Y-105869404D02*
X173030714Y-105678928D01*
X173030714Y-105678928D02*
X172983095Y-105583690D01*
X172983095Y-105583690D02*
X172935476Y-105536071D01*
X172935476Y-105536071D02*
X172840238Y-105488452D01*
%TO.C,D3*%
X183412448Y-104409880D02*
X183412448Y-103409880D01*
X183412448Y-103409880D02*
X183650543Y-103409880D01*
X183650543Y-103409880D02*
X183793400Y-103457500D01*
X183793400Y-103457500D02*
X183888638Y-103552738D01*
X183888638Y-103552738D02*
X183936257Y-103647976D01*
X183936257Y-103647976D02*
X183983876Y-103838452D01*
X183983876Y-103838452D02*
X183983876Y-103981309D01*
X183983876Y-103981309D02*
X183936257Y-104171785D01*
X183936257Y-104171785D02*
X183888638Y-104267023D01*
X183888638Y-104267023D02*
X183793400Y-104362261D01*
X183793400Y-104362261D02*
X183650543Y-104409880D01*
X183650543Y-104409880D02*
X183412448Y-104409880D01*
X184317210Y-103409880D02*
X184936257Y-103409880D01*
X184936257Y-103409880D02*
X184602924Y-103790833D01*
X184602924Y-103790833D02*
X184745781Y-103790833D01*
X184745781Y-103790833D02*
X184841019Y-103838452D01*
X184841019Y-103838452D02*
X184888638Y-103886071D01*
X184888638Y-103886071D02*
X184936257Y-103981309D01*
X184936257Y-103981309D02*
X184936257Y-104219404D01*
X184936257Y-104219404D02*
X184888638Y-104314642D01*
X184888638Y-104314642D02*
X184841019Y-104362261D01*
X184841019Y-104362261D02*
X184745781Y-104409880D01*
X184745781Y-104409880D02*
X184460067Y-104409880D01*
X184460067Y-104409880D02*
X184364829Y-104362261D01*
X184364829Y-104362261D02*
X184317210Y-104314642D01*
%TO.C,J3*%
X181606666Y-115527380D02*
X181606666Y-116241666D01*
X181606666Y-116241666D02*
X181559047Y-116384523D01*
X181559047Y-116384523D02*
X181463809Y-116479761D01*
X181463809Y-116479761D02*
X181320952Y-116527380D01*
X181320952Y-116527380D02*
X181225714Y-116527380D01*
X181987619Y-115527380D02*
X182606666Y-115527380D01*
X182606666Y-115527380D02*
X182273333Y-115908333D01*
X182273333Y-115908333D02*
X182416190Y-115908333D01*
X182416190Y-115908333D02*
X182511428Y-115955952D01*
X182511428Y-115955952D02*
X182559047Y-116003571D01*
X182559047Y-116003571D02*
X182606666Y-116098809D01*
X182606666Y-116098809D02*
X182606666Y-116336904D01*
X182606666Y-116336904D02*
X182559047Y-116432142D01*
X182559047Y-116432142D02*
X182511428Y-116479761D01*
X182511428Y-116479761D02*
X182416190Y-116527380D01*
X182416190Y-116527380D02*
X182130476Y-116527380D01*
X182130476Y-116527380D02*
X182035238Y-116479761D01*
X182035238Y-116479761D02*
X181987619Y-116432142D01*
%TO.C,J4*%
X159016666Y-115277380D02*
X159016666Y-115991666D01*
X159016666Y-115991666D02*
X158969047Y-116134523D01*
X158969047Y-116134523D02*
X158873809Y-116229761D01*
X158873809Y-116229761D02*
X158730952Y-116277380D01*
X158730952Y-116277380D02*
X158635714Y-116277380D01*
X159921428Y-115610714D02*
X159921428Y-116277380D01*
X159683333Y-115229761D02*
X159445238Y-115944047D01*
X159445238Y-115944047D02*
X160064285Y-115944047D01*
%TO.C,U1*%
X156433095Y-105709880D02*
X156433095Y-106519404D01*
X156433095Y-106519404D02*
X156480714Y-106614642D01*
X156480714Y-106614642D02*
X156528333Y-106662261D01*
X156528333Y-106662261D02*
X156623571Y-106709880D01*
X156623571Y-106709880D02*
X156814047Y-106709880D01*
X156814047Y-106709880D02*
X156909285Y-106662261D01*
X156909285Y-106662261D02*
X156956904Y-106614642D01*
X156956904Y-106614642D02*
X157004523Y-106519404D01*
X157004523Y-106519404D02*
X157004523Y-105709880D01*
X158004523Y-106709880D02*
X157433095Y-106709880D01*
X157718809Y-106709880D02*
X157718809Y-105709880D01*
X157718809Y-105709880D02*
X157623571Y-105852738D01*
X157623571Y-105852738D02*
X157528333Y-105947976D01*
X157528333Y-105947976D02*
X157433095Y-105995595D01*
%TO.C,C17*%
X132902142Y-93414642D02*
X132854523Y-93462261D01*
X132854523Y-93462261D02*
X132711666Y-93509880D01*
X132711666Y-93509880D02*
X132616428Y-93509880D01*
X132616428Y-93509880D02*
X132473571Y-93462261D01*
X132473571Y-93462261D02*
X132378333Y-93367023D01*
X132378333Y-93367023D02*
X132330714Y-93271785D01*
X132330714Y-93271785D02*
X132283095Y-93081309D01*
X132283095Y-93081309D02*
X132283095Y-92938452D01*
X132283095Y-92938452D02*
X132330714Y-92747976D01*
X132330714Y-92747976D02*
X132378333Y-92652738D01*
X132378333Y-92652738D02*
X132473571Y-92557500D01*
X132473571Y-92557500D02*
X132616428Y-92509880D01*
X132616428Y-92509880D02*
X132711666Y-92509880D01*
X132711666Y-92509880D02*
X132854523Y-92557500D01*
X132854523Y-92557500D02*
X132902142Y-92605119D01*
X133854523Y-93509880D02*
X133283095Y-93509880D01*
X133568809Y-93509880D02*
X133568809Y-92509880D01*
X133568809Y-92509880D02*
X133473571Y-92652738D01*
X133473571Y-92652738D02*
X133378333Y-92747976D01*
X133378333Y-92747976D02*
X133283095Y-92795595D01*
X134187857Y-92509880D02*
X134854523Y-92509880D01*
X134854523Y-92509880D02*
X134425952Y-93509880D01*
%TO.C,R15*%
X132512142Y-100479880D02*
X132178809Y-100003690D01*
X131940714Y-100479880D02*
X131940714Y-99479880D01*
X131940714Y-99479880D02*
X132321666Y-99479880D01*
X132321666Y-99479880D02*
X132416904Y-99527500D01*
X132416904Y-99527500D02*
X132464523Y-99575119D01*
X132464523Y-99575119D02*
X132512142Y-99670357D01*
X132512142Y-99670357D02*
X132512142Y-99813214D01*
X132512142Y-99813214D02*
X132464523Y-99908452D01*
X132464523Y-99908452D02*
X132416904Y-99956071D01*
X132416904Y-99956071D02*
X132321666Y-100003690D01*
X132321666Y-100003690D02*
X131940714Y-100003690D01*
X133464523Y-100479880D02*
X132893095Y-100479880D01*
X133178809Y-100479880D02*
X133178809Y-99479880D01*
X133178809Y-99479880D02*
X133083571Y-99622738D01*
X133083571Y-99622738D02*
X132988333Y-99717976D01*
X132988333Y-99717976D02*
X132893095Y-99765595D01*
X134369285Y-99479880D02*
X133893095Y-99479880D01*
X133893095Y-99479880D02*
X133845476Y-99956071D01*
X133845476Y-99956071D02*
X133893095Y-99908452D01*
X133893095Y-99908452D02*
X133988333Y-99860833D01*
X133988333Y-99860833D02*
X134226428Y-99860833D01*
X134226428Y-99860833D02*
X134321666Y-99908452D01*
X134321666Y-99908452D02*
X134369285Y-99956071D01*
X134369285Y-99956071D02*
X134416904Y-100051309D01*
X134416904Y-100051309D02*
X134416904Y-100289404D01*
X134416904Y-100289404D02*
X134369285Y-100384642D01*
X134369285Y-100384642D02*
X134321666Y-100432261D01*
X134321666Y-100432261D02*
X134226428Y-100479880D01*
X134226428Y-100479880D02*
X133988333Y-100479880D01*
X133988333Y-100479880D02*
X133893095Y-100432261D01*
X133893095Y-100432261D02*
X133845476Y-100384642D01*
%TO.C,SW2*%
X160461667Y-76062261D02*
X160604524Y-76109880D01*
X160604524Y-76109880D02*
X160842619Y-76109880D01*
X160842619Y-76109880D02*
X160937857Y-76062261D01*
X160937857Y-76062261D02*
X160985476Y-76014642D01*
X160985476Y-76014642D02*
X161033095Y-75919404D01*
X161033095Y-75919404D02*
X161033095Y-75824166D01*
X161033095Y-75824166D02*
X160985476Y-75728928D01*
X160985476Y-75728928D02*
X160937857Y-75681309D01*
X160937857Y-75681309D02*
X160842619Y-75633690D01*
X160842619Y-75633690D02*
X160652143Y-75586071D01*
X160652143Y-75586071D02*
X160556905Y-75538452D01*
X160556905Y-75538452D02*
X160509286Y-75490833D01*
X160509286Y-75490833D02*
X160461667Y-75395595D01*
X160461667Y-75395595D02*
X160461667Y-75300357D01*
X160461667Y-75300357D02*
X160509286Y-75205119D01*
X160509286Y-75205119D02*
X160556905Y-75157500D01*
X160556905Y-75157500D02*
X160652143Y-75109880D01*
X160652143Y-75109880D02*
X160890238Y-75109880D01*
X160890238Y-75109880D02*
X161033095Y-75157500D01*
X161366429Y-75109880D02*
X161604524Y-76109880D01*
X161604524Y-76109880D02*
X161795000Y-75395595D01*
X161795000Y-75395595D02*
X161985476Y-76109880D01*
X161985476Y-76109880D02*
X162223572Y-75109880D01*
X162556905Y-75205119D02*
X162604524Y-75157500D01*
X162604524Y-75157500D02*
X162699762Y-75109880D01*
X162699762Y-75109880D02*
X162937857Y-75109880D01*
X162937857Y-75109880D02*
X163033095Y-75157500D01*
X163033095Y-75157500D02*
X163080714Y-75205119D01*
X163080714Y-75205119D02*
X163128333Y-75300357D01*
X163128333Y-75300357D02*
X163128333Y-75395595D01*
X163128333Y-75395595D02*
X163080714Y-75538452D01*
X163080714Y-75538452D02*
X162509286Y-76109880D01*
X162509286Y-76109880D02*
X163128333Y-76109880D01*
%TO.C,J1*%
X182648380Y-85345833D02*
X183362666Y-85345833D01*
X183362666Y-85345833D02*
X183505523Y-85393452D01*
X183505523Y-85393452D02*
X183600761Y-85488690D01*
X183600761Y-85488690D02*
X183648380Y-85631547D01*
X183648380Y-85631547D02*
X183648380Y-85726785D01*
X183648380Y-84345833D02*
X183648380Y-84917261D01*
X183648380Y-84631547D02*
X182648380Y-84631547D01*
X182648380Y-84631547D02*
X182791238Y-84726785D01*
X182791238Y-84726785D02*
X182886476Y-84822023D01*
X182886476Y-84822023D02*
X182934095Y-84917261D01*
%TO.C,R4*%
X153028333Y-101809880D02*
X152695000Y-101333690D01*
X152456905Y-101809880D02*
X152456905Y-100809880D01*
X152456905Y-100809880D02*
X152837857Y-100809880D01*
X152837857Y-100809880D02*
X152933095Y-100857500D01*
X152933095Y-100857500D02*
X152980714Y-100905119D01*
X152980714Y-100905119D02*
X153028333Y-101000357D01*
X153028333Y-101000357D02*
X153028333Y-101143214D01*
X153028333Y-101143214D02*
X152980714Y-101238452D01*
X152980714Y-101238452D02*
X152933095Y-101286071D01*
X152933095Y-101286071D02*
X152837857Y-101333690D01*
X152837857Y-101333690D02*
X152456905Y-101333690D01*
X153885476Y-101143214D02*
X153885476Y-101809880D01*
X153647381Y-100762261D02*
X153409286Y-101476547D01*
X153409286Y-101476547D02*
X154028333Y-101476547D01*
%TO.C,R3*%
X141388333Y-106529880D02*
X141055000Y-106053690D01*
X140816905Y-106529880D02*
X140816905Y-105529880D01*
X140816905Y-105529880D02*
X141197857Y-105529880D01*
X141197857Y-105529880D02*
X141293095Y-105577500D01*
X141293095Y-105577500D02*
X141340714Y-105625119D01*
X141340714Y-105625119D02*
X141388333Y-105720357D01*
X141388333Y-105720357D02*
X141388333Y-105863214D01*
X141388333Y-105863214D02*
X141340714Y-105958452D01*
X141340714Y-105958452D02*
X141293095Y-106006071D01*
X141293095Y-106006071D02*
X141197857Y-106053690D01*
X141197857Y-106053690D02*
X140816905Y-106053690D01*
X141721667Y-105529880D02*
X142340714Y-105529880D01*
X142340714Y-105529880D02*
X142007381Y-105910833D01*
X142007381Y-105910833D02*
X142150238Y-105910833D01*
X142150238Y-105910833D02*
X142245476Y-105958452D01*
X142245476Y-105958452D02*
X142293095Y-106006071D01*
X142293095Y-106006071D02*
X142340714Y-106101309D01*
X142340714Y-106101309D02*
X142340714Y-106339404D01*
X142340714Y-106339404D02*
X142293095Y-106434642D01*
X142293095Y-106434642D02*
X142245476Y-106482261D01*
X142245476Y-106482261D02*
X142150238Y-106529880D01*
X142150238Y-106529880D02*
X141864524Y-106529880D01*
X141864524Y-106529880D02*
X141769286Y-106482261D01*
X141769286Y-106482261D02*
X141721667Y-106434642D01*
%TO.C,C10*%
X176602142Y-97014642D02*
X176554523Y-97062261D01*
X176554523Y-97062261D02*
X176411666Y-97109880D01*
X176411666Y-97109880D02*
X176316428Y-97109880D01*
X176316428Y-97109880D02*
X176173571Y-97062261D01*
X176173571Y-97062261D02*
X176078333Y-96967023D01*
X176078333Y-96967023D02*
X176030714Y-96871785D01*
X176030714Y-96871785D02*
X175983095Y-96681309D01*
X175983095Y-96681309D02*
X175983095Y-96538452D01*
X175983095Y-96538452D02*
X176030714Y-96347976D01*
X176030714Y-96347976D02*
X176078333Y-96252738D01*
X176078333Y-96252738D02*
X176173571Y-96157500D01*
X176173571Y-96157500D02*
X176316428Y-96109880D01*
X176316428Y-96109880D02*
X176411666Y-96109880D01*
X176411666Y-96109880D02*
X176554523Y-96157500D01*
X176554523Y-96157500D02*
X176602142Y-96205119D01*
X177554523Y-97109880D02*
X176983095Y-97109880D01*
X177268809Y-97109880D02*
X177268809Y-96109880D01*
X177268809Y-96109880D02*
X177173571Y-96252738D01*
X177173571Y-96252738D02*
X177078333Y-96347976D01*
X177078333Y-96347976D02*
X176983095Y-96395595D01*
X178173571Y-96109880D02*
X178268809Y-96109880D01*
X178268809Y-96109880D02*
X178364047Y-96157500D01*
X178364047Y-96157500D02*
X178411666Y-96205119D01*
X178411666Y-96205119D02*
X178459285Y-96300357D01*
X178459285Y-96300357D02*
X178506904Y-96490833D01*
X178506904Y-96490833D02*
X178506904Y-96728928D01*
X178506904Y-96728928D02*
X178459285Y-96919404D01*
X178459285Y-96919404D02*
X178411666Y-97014642D01*
X178411666Y-97014642D02*
X178364047Y-97062261D01*
X178364047Y-97062261D02*
X178268809Y-97109880D01*
X178268809Y-97109880D02*
X178173571Y-97109880D01*
X178173571Y-97109880D02*
X178078333Y-97062261D01*
X178078333Y-97062261D02*
X178030714Y-97014642D01*
X178030714Y-97014642D02*
X177983095Y-96919404D01*
X177983095Y-96919404D02*
X177935476Y-96728928D01*
X177935476Y-96728928D02*
X177935476Y-96490833D01*
X177935476Y-96490833D02*
X177983095Y-96300357D01*
X177983095Y-96300357D02*
X178030714Y-96205119D01*
X178030714Y-96205119D02*
X178078333Y-96157500D01*
X178078333Y-96157500D02*
X178173571Y-96109880D01*
%TO.C,SW3*%
X113311667Y-85522261D02*
X113454524Y-85569880D01*
X113454524Y-85569880D02*
X113692619Y-85569880D01*
X113692619Y-85569880D02*
X113787857Y-85522261D01*
X113787857Y-85522261D02*
X113835476Y-85474642D01*
X113835476Y-85474642D02*
X113883095Y-85379404D01*
X113883095Y-85379404D02*
X113883095Y-85284166D01*
X113883095Y-85284166D02*
X113835476Y-85188928D01*
X113835476Y-85188928D02*
X113787857Y-85141309D01*
X113787857Y-85141309D02*
X113692619Y-85093690D01*
X113692619Y-85093690D02*
X113502143Y-85046071D01*
X113502143Y-85046071D02*
X113406905Y-84998452D01*
X113406905Y-84998452D02*
X113359286Y-84950833D01*
X113359286Y-84950833D02*
X113311667Y-84855595D01*
X113311667Y-84855595D02*
X113311667Y-84760357D01*
X113311667Y-84760357D02*
X113359286Y-84665119D01*
X113359286Y-84665119D02*
X113406905Y-84617500D01*
X113406905Y-84617500D02*
X113502143Y-84569880D01*
X113502143Y-84569880D02*
X113740238Y-84569880D01*
X113740238Y-84569880D02*
X113883095Y-84617500D01*
X114216429Y-84569880D02*
X114454524Y-85569880D01*
X114454524Y-85569880D02*
X114645000Y-84855595D01*
X114645000Y-84855595D02*
X114835476Y-85569880D01*
X114835476Y-85569880D02*
X115073572Y-84569880D01*
X115359286Y-84569880D02*
X115978333Y-84569880D01*
X115978333Y-84569880D02*
X115645000Y-84950833D01*
X115645000Y-84950833D02*
X115787857Y-84950833D01*
X115787857Y-84950833D02*
X115883095Y-84998452D01*
X115883095Y-84998452D02*
X115930714Y-85046071D01*
X115930714Y-85046071D02*
X115978333Y-85141309D01*
X115978333Y-85141309D02*
X115978333Y-85379404D01*
X115978333Y-85379404D02*
X115930714Y-85474642D01*
X115930714Y-85474642D02*
X115883095Y-85522261D01*
X115883095Y-85522261D02*
X115787857Y-85569880D01*
X115787857Y-85569880D02*
X115502143Y-85569880D01*
X115502143Y-85569880D02*
X115406905Y-85522261D01*
X115406905Y-85522261D02*
X115359286Y-85474642D01*
D14*
%TO.C,R9*%
X140911263Y-102297500D02*
X142358737Y-102297500D01*
X140911263Y-105007500D02*
X142358737Y-105007500D01*
%TO.C,J6*%
X149325000Y-80992500D02*
X118355000Y-80992500D01*
X149325000Y-70512500D02*
X149325000Y-80992500D01*
X128550000Y-81886838D02*
X128050000Y-81886838D01*
X128300000Y-81453825D02*
X128550000Y-81886838D01*
X128050000Y-81886838D02*
X128300000Y-81453825D01*
X118355000Y-80992500D02*
X118355000Y-70512500D01*
%TO.C,J2*%
X137797500Y-124862500D02*
X137797500Y-117242500D01*
X137797500Y-117242500D02*
X127637500Y-117242500D01*
X127637500Y-124862500D02*
X137797500Y-124862500D01*
X127637500Y-118512500D02*
X137797500Y-118512500D01*
X127637500Y-117242500D02*
X127637500Y-124862500D01*
%TO.C,C7*%
X160595000Y-107332500D02*
X161095000Y-107332500D01*
X160845000Y-107082500D02*
X160845000Y-107582500D01*
X161335000Y-107696937D02*
X161335000Y-107832500D01*
X161335000Y-107696937D02*
X162399437Y-106632500D01*
X161335000Y-110088063D02*
X161335000Y-109952500D01*
X161335000Y-110088063D02*
X162399437Y-111152500D01*
X162399437Y-106632500D02*
X165855000Y-106632500D01*
X162399437Y-111152500D02*
X165855000Y-111152500D01*
X165855000Y-106632500D02*
X165855000Y-107832500D01*
X165855000Y-111152500D02*
X165855000Y-109952500D01*
%TO.C,R5*%
X140921263Y-97647500D02*
X142368737Y-97647500D01*
X140921263Y-100357500D02*
X142368737Y-100357500D01*
%TO.C,C11*%
X173420000Y-90157500D02*
X174045000Y-90157500D01*
X173732500Y-89845000D02*
X173732500Y-90470000D01*
X174285000Y-90146937D02*
X174285000Y-90782500D01*
X174285000Y-90146937D02*
X175349437Y-89082500D01*
X174285000Y-93538063D02*
X174285000Y-92902500D01*
X174285000Y-93538063D02*
X175349437Y-94602500D01*
X175349437Y-89082500D02*
X179805000Y-89082500D01*
X175349437Y-94602500D02*
X179805000Y-94602500D01*
X179805000Y-89082500D02*
X179805000Y-90782500D01*
X179805000Y-94602500D02*
X179805000Y-92902500D01*
%TO.C,C3*%
X172857500Y-81545000D02*
X173645000Y-81545000D01*
X173251250Y-81151250D02*
X173251250Y-81938750D01*
X173885000Y-81046937D02*
X173885000Y-82332500D01*
X173885000Y-81046937D02*
X174949437Y-79982500D01*
X173885000Y-85738063D02*
X173885000Y-84452500D01*
X173885000Y-85738063D02*
X174949437Y-86802500D01*
X174949437Y-79982500D02*
X180705000Y-79982500D01*
X174949437Y-86802500D02*
X180705000Y-86802500D01*
X180705000Y-79982500D02*
X180705000Y-82332500D01*
X180705000Y-86802500D02*
X180705000Y-84452500D01*
%TO.C,C1*%
X160595000Y-100682500D02*
X161095000Y-100682500D01*
X160845000Y-100432500D02*
X160845000Y-100932500D01*
X161335000Y-101046937D02*
X161335000Y-101182500D01*
X161335000Y-101046937D02*
X162399437Y-99982500D01*
X161335000Y-103438063D02*
X161335000Y-103302500D01*
X161335000Y-103438063D02*
X162399437Y-104502500D01*
X162399437Y-99982500D02*
X165855000Y-99982500D01*
X162399437Y-104502500D02*
X165855000Y-104502500D01*
X165855000Y-99982500D02*
X165855000Y-101182500D01*
X165855000Y-104502500D02*
X165855000Y-103302500D01*
%TO.C,C4*%
X160595000Y-94132500D02*
X161095000Y-94132500D01*
X160845000Y-93882500D02*
X160845000Y-94382500D01*
X161335000Y-94496937D02*
X161335000Y-94632500D01*
X161335000Y-94496937D02*
X162399437Y-93432500D01*
X161335000Y-96888063D02*
X161335000Y-96752500D01*
X161335000Y-96888063D02*
X162399437Y-97952500D01*
X162399437Y-93432500D02*
X165855000Y-93432500D01*
X162399437Y-97952500D02*
X165855000Y-97952500D01*
X165855000Y-93432500D02*
X165855000Y-94632500D01*
X165855000Y-97952500D02*
X165855000Y-96752500D01*
%TO.C,U4*%
X137335000Y-85345000D02*
X137335000Y-85795000D01*
X137335000Y-85795000D02*
X136045000Y-85795000D01*
X137335000Y-92565000D02*
X137335000Y-92115000D01*
X137785000Y-85345000D02*
X137335000Y-85345000D01*
X137785000Y-92565000D02*
X137335000Y-92565000D01*
X144105000Y-85345000D02*
X144555000Y-85345000D01*
X144105000Y-92565000D02*
X144555000Y-92565000D01*
X144555000Y-85345000D02*
X144555000Y-85795000D01*
X144555000Y-92565000D02*
X144555000Y-92115000D01*
%TO.C,R7*%
X152401263Y-97787500D02*
X153848737Y-97787500D01*
X152401263Y-100497500D02*
X153848737Y-100497500D01*
%TO.C,Y1*%
X124147500Y-86317500D02*
X130397500Y-86317500D01*
X124147500Y-91367500D02*
X130397500Y-91367500D01*
X124147500Y-86317500D02*
G75*
G03*
X124147500Y-91367500I0J-2525000D01*
G01*
X130397500Y-91367500D02*
G75*
G03*
X130397500Y-86317500I0J2525000D01*
G01*
%TO.C,R8*%
X146621263Y-102287500D02*
X148068737Y-102287500D01*
X146621263Y-104997500D02*
X148068737Y-104997500D01*
%TO.C,D2*%
X165785000Y-72657500D02*
X165785000Y-75827500D01*
X165785000Y-75827500D02*
X169845000Y-75827500D01*
X169845000Y-72657500D02*
X165785000Y-72657500D01*
%TO.C,SW1*%
X187585000Y-93617500D02*
X186202000Y-93617500D01*
X187585000Y-93617500D02*
X187585000Y-95000500D01*
X187345000Y-93857500D02*
X186035000Y-93857500D01*
X187345000Y-93857500D02*
X187345000Y-100677500D01*
X184435000Y-93857500D02*
X183125000Y-93857500D01*
X183125000Y-93857500D02*
X183125000Y-100677500D01*
X185870000Y-95457500D02*
X184600000Y-95457500D01*
X185750000Y-95457500D02*
X185750000Y-96664167D01*
X185630000Y-95457500D02*
X185630000Y-96664167D01*
X185510000Y-95457500D02*
X185510000Y-96664167D01*
X185390000Y-95457500D02*
X185390000Y-96664167D01*
X185270000Y-95457500D02*
X185270000Y-96664167D01*
X185150000Y-95457500D02*
X185150000Y-96664167D01*
X185030000Y-95457500D02*
X185030000Y-96664167D01*
X184910000Y-95457500D02*
X184910000Y-96664167D01*
X184790000Y-95457500D02*
X184790000Y-96664167D01*
X184670000Y-95457500D02*
X184670000Y-96664167D01*
X184600000Y-95457500D02*
X184600000Y-99077500D01*
X185870000Y-96664167D02*
X184600000Y-96664167D01*
X185870000Y-99077500D02*
X185870000Y-95457500D01*
X184600000Y-99077500D02*
X185870000Y-99077500D01*
X187345000Y-100677500D02*
X186035000Y-100677500D01*
X184435000Y-100677500D02*
X183125000Y-100677500D01*
%TO.C,D1*%
X173085000Y-72657500D02*
X173085000Y-75827500D01*
X173085000Y-75827500D02*
X177145000Y-75827500D01*
X177145000Y-72657500D02*
X173085000Y-72657500D01*
%TO.C,J5*%
X148215000Y-85082500D02*
X149545000Y-85082500D01*
X148215000Y-86412500D02*
X148215000Y-85082500D01*
X148215000Y-87682500D02*
X148215000Y-92822500D01*
X148215000Y-87682500D02*
X150875000Y-87682500D01*
X148215000Y-92822500D02*
X150875000Y-92822500D01*
X150875000Y-87682500D02*
X150875000Y-92822500D01*
%TO.C,R6*%
X146591263Y-97647500D02*
X148038737Y-97647500D01*
X146591263Y-100357500D02*
X148038737Y-100357500D01*
%TO.C,D4*%
X181722500Y-109607500D02*
X181722500Y-112777500D01*
X181722500Y-112777500D02*
X185782500Y-112777500D01*
X185782500Y-109607500D02*
X181722500Y-109607500D01*
%TO.C,U3*%
X166420000Y-81020000D02*
X162970000Y-81020000D01*
X166420000Y-81020000D02*
X168370000Y-81020000D01*
X166420000Y-91140000D02*
X164470000Y-91140000D01*
X166420000Y-91140000D02*
X168370000Y-91140000D01*
%TO.C,C8*%
X169245000Y-107332500D02*
X169745000Y-107332500D01*
X169495000Y-107082500D02*
X169495000Y-107582500D01*
X169985000Y-107696937D02*
X169985000Y-107832500D01*
X169985000Y-107696937D02*
X171049437Y-106632500D01*
X169985000Y-110088063D02*
X169985000Y-109952500D01*
X169985000Y-110088063D02*
X171049437Y-111152500D01*
X171049437Y-106632500D02*
X174505000Y-106632500D01*
X171049437Y-111152500D02*
X174505000Y-111152500D01*
X174505000Y-106632500D02*
X174505000Y-107832500D01*
X174505000Y-111152500D02*
X174505000Y-109952500D01*
%TO.C,D3*%
X181690543Y-104737500D02*
X181690543Y-107907500D01*
X181690543Y-107907500D02*
X185750543Y-107907500D01*
X185750543Y-104737500D02*
X181690543Y-104737500D01*
%TO.C,J3*%
X182737500Y-124910000D02*
X182737500Y-117290000D01*
X182737500Y-117290000D02*
X172577500Y-117290000D01*
X172577500Y-124910000D02*
X182737500Y-124910000D01*
X172577500Y-118560000D02*
X182737500Y-118560000D01*
X172577500Y-117290000D02*
X172577500Y-124910000D01*
%TO.C,J4*%
X160067500Y-124888300D02*
X160067500Y-117268300D01*
X160067500Y-117268300D02*
X149907500Y-117268300D01*
X149907500Y-124888300D02*
X160067500Y-124888300D01*
X149907500Y-118538300D02*
X160067500Y-118538300D01*
X149907500Y-117268300D02*
X149907500Y-124888300D01*
%TO.C,U1*%
X155485000Y-108162500D02*
X155210000Y-108162500D01*
X155210000Y-108162500D02*
X155210000Y-106872500D01*
X145565000Y-108162500D02*
X145840000Y-108162500D01*
X155485000Y-110472500D02*
X155485000Y-108162500D01*
X155485000Y-110472500D02*
X155485000Y-112782500D01*
X145565000Y-110472500D02*
X145565000Y-108162500D01*
X145565000Y-110472500D02*
X145565000Y-112782500D01*
X155485000Y-112782500D02*
X155210000Y-112782500D01*
X145565000Y-112782500D02*
X145840000Y-112782500D01*
%TO.C,C17*%
X130045000Y-94882500D02*
X130545000Y-94882500D01*
X130295000Y-94632500D02*
X130295000Y-95132500D01*
X130785000Y-95246937D02*
X130785000Y-95382500D01*
X130785000Y-95246937D02*
X131849437Y-94182500D01*
X130785000Y-97638063D02*
X130785000Y-97502500D01*
X130785000Y-97638063D02*
X131849437Y-98702500D01*
X131849437Y-94182500D02*
X135305000Y-94182500D01*
X131849437Y-98702500D02*
X135305000Y-98702500D01*
X135305000Y-94182500D02*
X135305000Y-95382500D01*
X135305000Y-98702500D02*
X135305000Y-97502500D01*
%TO.C,R15*%
X132431263Y-100957500D02*
X133878737Y-100957500D01*
X132431263Y-103667500D02*
X133878737Y-103667500D01*
%TO.C,SW2*%
X152405000Y-79407500D02*
X153788000Y-79407500D01*
X152405000Y-79407500D02*
X152405000Y-78024500D01*
X152645000Y-79167500D02*
X153955000Y-79167500D01*
X152645000Y-79167500D02*
X152645000Y-72347500D01*
X155555000Y-79167500D02*
X156495000Y-79167500D01*
X158095000Y-79167500D02*
X159405000Y-79167500D01*
X159405000Y-79167500D02*
X159405000Y-72347500D01*
X154120000Y-77567500D02*
X155390000Y-77567500D01*
X154240000Y-77567500D02*
X154240000Y-76360833D01*
X154360000Y-77567500D02*
X154360000Y-76360833D01*
X154480000Y-77567500D02*
X154480000Y-76360833D01*
X154600000Y-77567500D02*
X154600000Y-76360833D01*
X154720000Y-77567500D02*
X154720000Y-76360833D01*
X154840000Y-77567500D02*
X154840000Y-76360833D01*
X154960000Y-77567500D02*
X154960000Y-76360833D01*
X155080000Y-77567500D02*
X155080000Y-76360833D01*
X155200000Y-77567500D02*
X155200000Y-76360833D01*
X155320000Y-77567500D02*
X155320000Y-76360833D01*
X155390000Y-77567500D02*
X155390000Y-73947500D01*
X156660000Y-77567500D02*
X157930000Y-77567500D01*
X156780000Y-77567500D02*
X156780000Y-76360833D01*
X156900000Y-77567500D02*
X156900000Y-76360833D01*
X157020000Y-77567500D02*
X157020000Y-76360833D01*
X157140000Y-77567500D02*
X157140000Y-76360833D01*
X157260000Y-77567500D02*
X157260000Y-76360833D01*
X157380000Y-77567500D02*
X157380000Y-76360833D01*
X157500000Y-77567500D02*
X157500000Y-76360833D01*
X157620000Y-77567500D02*
X157620000Y-76360833D01*
X157740000Y-77567500D02*
X157740000Y-76360833D01*
X157860000Y-77567500D02*
X157860000Y-76360833D01*
X157930000Y-77567500D02*
X157930000Y-73947500D01*
X154120000Y-76360833D02*
X155390000Y-76360833D01*
X156660000Y-76360833D02*
X157930000Y-76360833D01*
X154120000Y-73947500D02*
X154120000Y-77567500D01*
X155390000Y-73947500D02*
X154120000Y-73947500D01*
X156660000Y-73947500D02*
X156660000Y-77567500D01*
X157930000Y-73947500D02*
X156660000Y-73947500D01*
X152645000Y-72347500D02*
X153955000Y-72347500D01*
X155555000Y-72347500D02*
X156495000Y-72347500D01*
X158095000Y-72347500D02*
X159405000Y-72347500D01*
%TO.C,J1*%
X184871000Y-88822500D02*
X184871000Y-88162500D01*
X186601000Y-88822500D02*
X184871000Y-88822500D01*
X189171000Y-88822500D02*
X188961000Y-88822500D01*
X184171000Y-86772500D02*
X184561000Y-86772500D01*
X184171000Y-86772500D02*
X184171000Y-86322500D01*
X184871000Y-81202500D02*
X184871000Y-81852500D01*
X186601000Y-81202500D02*
X184871000Y-81202500D01*
X189171000Y-81202500D02*
X188961000Y-81202500D01*
%TO.C,R4*%
X152471263Y-102337500D02*
X153918737Y-102337500D01*
X152471263Y-105047500D02*
X153918737Y-105047500D01*
%TO.C,R3*%
X142358737Y-109697500D02*
X140911263Y-109697500D01*
X142358737Y-106987500D02*
X140911263Y-106987500D01*
%TO.C,C10*%
X173795000Y-98432500D02*
X174295000Y-98432500D01*
X174045000Y-98182500D02*
X174045000Y-98682500D01*
X174535000Y-98796937D02*
X174535000Y-98932500D01*
X174535000Y-98796937D02*
X175599437Y-97732500D01*
X174535000Y-101188063D02*
X174535000Y-101052500D01*
X174535000Y-101188063D02*
X175599437Y-102252500D01*
X175599437Y-97732500D02*
X179055000Y-97732500D01*
X175599437Y-102252500D02*
X179055000Y-102252500D01*
X179055000Y-97732500D02*
X179055000Y-98932500D01*
X179055000Y-102252500D02*
X179055000Y-101052500D01*
%TO.C,SW3*%
X116405000Y-88932500D02*
X116405000Y-95052500D01*
X112785000Y-88932500D02*
X116405000Y-88932500D01*
X116405000Y-95052500D02*
X112785000Y-95052500D01*
X112785000Y-95052500D02*
X112785000Y-88932500D01*
%TD*%
M02*
