  0
SECTION
  2
HEADER
  9
$ANGBASE
  50
0.0
  9
$ANGDIR
  70
1
  9
$MEASUREMENT
  70
0
  0
ENDSEC
  0
SECTION
  2
TABLES
  0
TABLE
  2
LTYPE
  70
4
  0
LTYPE
  5
40F
  2
CONTINUOUS
  70
0
  3
Solid line
  72
65
  73
0
  40
0.0
  0
LTYPE
  5
410
  2
DASHDOT
 70
0
  3
Dash Dot ____ _ ____ _
 72
65
 73
4
 40
2.0
 49
1.25
 49
-0.25
 49
0.25
 49
-0.25
  0
LTYPE
  5
411
  2
DASHED
 70
0
  3
Dashed __ __ __ __ __
 72
65
 73
2
 40
0.75
 49
0.5
 49
-0.25
  0
LTYPE
  5
43B
  2
DOTTED
 70
0
  3
Dotted .  .  .  .
 72
65
 73
2
 40
0.2
 49
0.0
 49
-0.2
  0
ENDTAB
  0
TABLE
  2
STYLE
  70
4
  0
STYLE
  2
KICAD
  70
0
  40
0
  41
1
  42
1
  50
0
  71
0
  3
isocp.shx
  0
STYLE
  2
KICADB
  70
0
  40
0
  41
1
  42
1
  50
0
  71
0
  3
isocp.shx
  0
STYLE
  2
KICADI
  70
0
  40
0
  41
1
  42
1
  50
15
  71
0
  3
isocp.shx
  0
STYLE
  2
KICADBI
  70
0
  40
0
  41
1
  42
1
  50
15
  71
0
  3
isocp.shx
  0
ENDTAB
  0
TABLE
  2
LAYER
  70
1
  0
LAYER
  2
BLACK
  70
0
  62
7
  6
CONTINUOUS
  0
ENDTAB
  0
ENDSEC
  0
SECTION
  2
ENTITIES
0
LINE
8
BLACK
6
CONTINUOUS
10
4.32067
20
-2.75955
11
7.47028
21
-2.75955
0
LINE
8
BLACK
6
CONTINUOUS
10
7.47028
20
-2.75955
11
7.47028
21
-4.9249
0
LINE
8
BLACK
6
CONTINUOUS
10
7.47028
20
-4.9249
11
4.32067
21
-4.9249
0
LINE
8
BLACK
6
CONTINUOUS
10
4.32067
20
-4.9249
11
4.32067
21
-2.75955
0
LINE
8
BLACK
6
CONTINUOUS
10
4.41619
20
-5.04241
11
4.41619
21
-4.96367
0
LINE
8
BLACK
6
CONTINUOUS
10
4.41619
20
-4.96367
11
4.43494
21
-4.96367
0
LINE
8
BLACK
6
CONTINUOUS
10
4.43494
20
-4.96367
11
4.44618
21
-4.96742
0
LINE
8
BLACK
6
CONTINUOUS
10
4.44618
20
-4.96742
11
4.45368
21
-4.97492
0
LINE
8
BLACK
6
CONTINUOUS
10
4.45368
20
-4.97492
11
4.45743
21
-4.98242
0
LINE
8
BLACK
6
CONTINUOUS
10
4.45743
20
-4.98242
11
4.46118
21
-4.99742
0
LINE
8
BLACK
6
CONTINUOUS
10
4.46118
20
-4.99742
11
4.46118
21
-5.00867
0
LINE
8
BLACK
6
CONTINUOUS
10
4.46118
20
-5.00867
11
4.45743
21
-5.02366
0
LINE
8
BLACK
6
CONTINUOUS
10
4.45743
20
-5.02366
11
4.45368
21
-5.03116
0
LINE
8
BLACK
6
CONTINUOUS
10
4.45368
20
-5.03116
11
4.44618
21
-5.03866
0
LINE
8
BLACK
6
CONTINUOUS
10
4.44618
20
-5.03866
11
4.43494
21
-5.04241
0
LINE
8
BLACK
6
CONTINUOUS
10
4.43494
20
-5.04241
11
4.41619
21
-5.04241
0
LINE
8
BLACK
6
CONTINUOUS
10
4.49493
20
-5.04241
11
4.49493
21
-4.98992
0
LINE
8
BLACK
6
CONTINUOUS
10
4.49493
20
-5.00492
11
4.49868
21
-4.99742
0
LINE
8
BLACK
6
CONTINUOUS
10
4.49868
20
-4.99742
11
4.50243
21
-4.99367
0
LINE
8
BLACK
6
CONTINUOUS
10
4.50243
20
-4.99367
11
4.50993
21
-4.98992
0
LINE
8
BLACK
6
CONTINUOUS
10
4.50993
20
-4.98992
11
4.51743
21
-4.98992
0
LINE
8
BLACK
6
CONTINUOUS
10
4.54367
20
-5.04241
11
4.54367
21
-4.98992
0
LINE
8
BLACK
6
CONTINUOUS
10
4.54367
20
-4.96367
11
4.53992
21
-4.96742
0
LINE
8
BLACK
6
CONTINUOUS
10
4.53992
20
-4.96742
11
4.54367
21
-4.97117
0
LINE
8
BLACK
6
CONTINUOUS
10
4.54367
20
-4.97117
11
4.54742
21
-4.96742
0
LINE
8
BLACK
6
CONTINUOUS
10
4.54742
20
-4.96742
11
4.54367
21
-4.96367
0
LINE
8
BLACK
6
CONTINUOUS
10
4.54367
20
-4.96367
11
4.54367
21
-4.97117
0
LINE
8
BLACK
6
CONTINUOUS
10
4.59242
20
-5.04241
11
4.58492
21
-5.03866
0
LINE
8
BLACK
6
CONTINUOUS
10
4.58492
20
-5.03866
11
4.58117
21
-5.03116
0
LINE
8
BLACK
6
CONTINUOUS
10
4.58117
20
-5.03116
11
4.58117
21
-4.96367
0
LINE
8
BLACK
6
CONTINUOUS
10
4.63366
20
-5.04241
11
4.62616
21
-5.03866
0
LINE
8
BLACK
6
CONTINUOUS
10
4.62616
20
-5.03866
11
4.62241
21
-5.03116
0
LINE
8
BLACK
6
CONTINUOUS
10
4.62241
20
-5.03116
11
4.62241
21
-4.96367
0
LINE
8
BLACK
6
CONTINUOUS
10
4.7109
20
-5.04241
11
4.7109
21
-4.96367
0
LINE
8
BLACK
6
CONTINUOUS
10
4.7109
20
-4.96367
11
4.73715
21
-5.01991
0
LINE
8
BLACK
6
CONTINUOUS
10
4.73715
20
-5.01991
11
4.7634
21
-4.96367
0
LINE
8
BLACK
6
CONTINUOUS
10
4.7634
20
-4.96367
11
4.7634
21
-5.04241
0
LINE
8
BLACK
6
CONTINUOUS
10
4.83464
20
-5.04241
11
4.83464
21
-5.00117
0
LINE
8
BLACK
6
CONTINUOUS
10
4.83464
20
-5.00117
11
4.83089
21
-4.99367
0
LINE
8
BLACK
6
CONTINUOUS
10
4.83089
20
-4.99367
11
4.82339
21
-4.98992
0
LINE
8
BLACK
6
CONTINUOUS
10
4.82339
20
-4.98992
11
4.80839
21
-4.98992
0
LINE
8
BLACK
6
CONTINUOUS
10
4.80839
20
-4.98992
11
4.80089
21
-4.99367
0
LINE
8
BLACK
6
CONTINUOUS
10
4.83464
20
-5.03866
11
4.82714
21
-5.04241
0
LINE
8
BLACK
6
CONTINUOUS
10
4.82714
20
-5.04241
11
4.80839
21
-5.04241
0
LINE
8
BLACK
6
CONTINUOUS
10
4.80839
20
-5.04241
11
4.80089
21
-5.03866
0
LINE
8
BLACK
6
CONTINUOUS
10
4.80089
20
-5.03866
11
4.79714
21
-5.03116
0
LINE
8
BLACK
6
CONTINUOUS
10
4.79714
20
-5.03116
11
4.79714
21
-5.02366
0
LINE
8
BLACK
6
CONTINUOUS
10
4.79714
20
-5.02366
11
4.80089
21
-5.01617
0
LINE
8
BLACK
6
CONTINUOUS
10
4.80089
20
-5.01617
11
4.80839
21
-5.01242
0
LINE
8
BLACK
6
CONTINUOUS
10
4.80839
20
-5.01242
11
4.82714
21
-5.01242
0
LINE
8
BLACK
6
CONTINUOUS
10
4.82714
20
-5.01242
11
4.83464
21
-5.00867
0
LINE
8
BLACK
6
CONTINUOUS
10
4.87213
20
-4.98992
11
4.87213
21
-5.06866
0
LINE
8
BLACK
6
CONTINUOUS
10
4.87213
20
-4.99367
11
4.87963
21
-4.98992
0
LINE
8
BLACK
6
CONTINUOUS
10
4.87963
20
-4.98992
11
4.89463
21
-4.98992
0
LINE
8
BLACK
6
CONTINUOUS
10
4.89463
20
-4.98992
11
4.90213
21
-4.99367
0
LINE
8
BLACK
6
CONTINUOUS
10
4.90213
20
-4.99367
11
4.90588
21
-4.99742
0
LINE
8
BLACK
6
CONTINUOUS
10
4.90588
20
-4.99742
11
4.90963
21
-5.00492
0
LINE
8
BLACK
6
CONTINUOUS
10
4.90963
20
-5.00492
11
4.90963
21
-5.02741
0
LINE
8
BLACK
6
CONTINUOUS
10
4.90963
20
-5.02741
11
4.90588
21
-5.03491
0
LINE
8
BLACK
6
CONTINUOUS
10
4.90588
20
-5.03491
11
4.90213
21
-5.03866
0
LINE
8
BLACK
6
CONTINUOUS
10
4.90213
20
-5.03866
11
4.89463
21
-5.04241
0
LINE
8
BLACK
6
CONTINUOUS
10
4.89463
20
-5.04241
11
4.87963
21
-5.04241
0
LINE
8
BLACK
6
CONTINUOUS
10
4.87963
20
-5.04241
11
4.87213
21
-5.03866
0
LINE
8
BLACK
6
CONTINUOUS
10
4.94337
20
-5.03491
11
4.94712
21
-5.03866
0
LINE
8
BLACK
6
CONTINUOUS
10
4.94712
20
-5.03866
11
4.94337
21
-5.04241
0
LINE
8
BLACK
6
CONTINUOUS
10
4.94337
20
-5.04241
11
4.93962
21
-5.03866
0
LINE
8
BLACK
6
CONTINUOUS
10
4.93962
20
-5.03866
11
4.94337
21
-5.03491
0
LINE
8
BLACK
6
CONTINUOUS
10
4.94337
20
-5.03491
11
4.94337
21
-5.04241
0
LINE
8
BLACK
6
CONTINUOUS
10
4.94337
20
-4.99367
11
4.94712
21
-4.99742
0
LINE
8
BLACK
6
CONTINUOUS
10
4.94712
20
-4.99742
11
4.94337
21
-5.00117
0
LINE
8
BLACK
6
CONTINUOUS
10
4.94337
20
-5.00117
11
4.93962
21
-4.99742
0
LINE
8
BLACK
6
CONTINUOUS
10
4.93962
20
-4.99742
11
4.94337
21
-4.99367
0
LINE
8
BLACK
6
CONTINUOUS
10
4.94337
20
-4.99367
11
4.94337
21
-5.00117
  0
ENDSEC
  0
EOF
