M48
; DRILL file {KiCad 7.0.9} date 西元2023年12月07日 (週四) 12時09分40秒
; FORMAT={-:-/ absolute / inch / decimal}
; #@! TF.CreationDate,2023-12-07T12:09:40+08:00
; #@! TF.GenerationSoftware,Kicad,Pcbnew,7.0.9
; #@! TF.FileFunction,Plated,1,2,PTH
FMAT,2
INCH
; #@! TA.AperFunction,Plated,PTH,ViaDrill
T1C0.0157
; #@! TA.AperFunction,Plated,PTH,ComponentDrill
T2C0.0315
; #@! TA.AperFunction,Plated,PTH,ComponentDrill
T3C0.0374
; #@! TA.AperFunction,Plated,PTH,ComponentDrill
T4C0.0394
; #@! TA.AperFunction,Plated,PTH,ComponentDrill
T5C0.0598
; #@! TA.AperFunction,Plated,PTH,ComponentDrill
T6C0.0906
; #@! TA.AperFunction,Plated,PTH,ComponentDrill
T7C0.1260
%
G90
G05
T1
X4.8025Y-2.9213
X4.8819Y-4.8346
X4.945Y-4.56
X5.077Y-4.367
X5.0824Y-2.9213
X5.123Y-4.236
X5.133Y-4.034
X5.198Y-4.367
X5.2606Y-3.0339
X5.2606Y-3.1319
X5.283Y-4.036
X5.283Y-4.236
X5.318Y-4.079
X5.3622Y-2.9213
X5.4122Y-3.2012
X5.499Y-2.979
X5.499Y-3.029
X5.5118Y-4.004
X5.5421Y-3.2972
X5.644Y-4.1
X5.6457Y-4.8346
X5.71Y-4.555
X5.766Y-3.211
X5.766Y-3.369
X5.8201Y-3.0067
X5.896Y-3.287
X5.896Y-2.917
X5.915Y-4.28
X5.96Y-4.28
X5.979Y-3.016
X5.979Y-4.078
X6.005Y-4.28
X6.019Y-4.051
X6.026Y-3.856
X6.05Y-4.28
X6.069Y-3.856
X6.0858Y-4.0516
X6.095Y-4.28
X6.1004Y-3.45
X6.112Y-3.857
X6.14Y-4.28
X6.149Y-3.101
X6.2118Y-4.052
X6.225Y-3.196
X6.278Y-2.894
X6.278Y-2.944
X6.343Y-3.512
X6.4055Y-4.6457
X6.4055Y-4.8346
X6.528Y-2.898
X6.582Y-4.006
X6.6732Y-2.9213
X6.775Y-3.775
X6.781Y-3.875
X6.813Y-3.486
X6.9606Y-2.9213
T2
X4.961Y-3.559
X4.961Y-3.73
X5.261Y-3.559
X5.261Y-3.73
T3
X7.1128Y-3.7918
X7.1128Y-3.8902
X7.1915Y-3.7918
X7.1915Y-3.8902
T4
X4.576Y-3.6793
X4.576Y-3.7883
X4.576Y-3.8974
X4.576Y-4.0065
X4.6878Y-3.6248
X4.6878Y-3.7338
X4.6878Y-3.8429
X4.6878Y-3.9519
X4.6878Y-4.061
X4.991Y-3.338
X5.091Y-3.338
X5.191Y-3.338
X5.491Y-3.5811
X5.591Y-3.5811
X5.691Y-3.5811
T5
X5.1543Y-4.7638
X5.3543Y-4.7638
X5.927Y-4.763
X6.127Y-4.763
X6.691Y-4.7638
X6.891Y-4.7638
T6
X7.3041Y-3.6048
X7.3041Y-4.0772
T7
X4.676Y-3.3507
X4.676Y-4.335
T0
M30
