M48
; DRILL file {KiCad 8.0.3} date 2024-12-23T21:53:12+0800
; FORMAT={-:-/ absolute / inch / decimal}
; #@! TF.CreationDate,2024-12-23T21:53:12+08:00
; #@! TF.GenerationSoftware,Kicad,Pcbnew,8.0.3
; #@! TF.FileFunction,Plated,1,2,PTH
FMAT,2
INCH
; #@! TA.AperFunction,Plated,PTH,ViaDrill
T1C0.0157
; #@! TA.AperFunction,Plated,PTH,ComponentDrill
T2C0.0354
; #@! TA.AperFunction,Plated,PTH,ComponentDrill
T3C0.0394
; #@! TA.AperFunction,Plated,PTH,ComponentDrill
T4C0.0433
; #@! TA.AperFunction,Plated,PTH,ComponentDrill
T5C0.0591
; #@! TA.AperFunction,Plated,PTH,ComponentDrill
T6C0.0598
; #@! TA.AperFunction,Plated,PTH,ComponentDrill
T7C0.0669
; #@! TA.AperFunction,Plated,PTH,ComponentDrill
T8C0.1260
%
G90
G05
T1
X1.8031Y-3.5315
X1.8031Y-3.561
X1.8031Y-3.5886
X1.8031Y-3.6181
X1.8031Y-3.6476
X1.8031Y-3.6772
X1.8031Y-3.7067
X1.8031Y-3.7362
X1.8031Y-3.7657
X1.8031Y-3.7953
X1.8031Y-3.8248
X1.8031Y-3.8543
X1.8031Y-3.8839
X1.8031Y-3.9134
X1.8268Y-5.5748
X1.8268Y-5.6142
X1.8268Y-5.6535
X1.8268Y-5.6929
X1.8268Y-5.7323
X1.8268Y-5.7717
X1.8268Y-5.811
X1.8268Y-5.8504
X1.8346Y-3.5315
X1.8346Y-3.561
X1.8346Y-3.5886
X1.8346Y-3.6181
X1.8346Y-3.6476
X1.8346Y-3.6772
X1.8346Y-3.7067
X1.8346Y-3.7362
X1.8346Y-3.7657
X1.8346Y-3.7953
X1.8346Y-3.8248
X1.8346Y-3.8543
X1.8346Y-3.8839
X1.8346Y-3.9134
X1.8661Y-5.5748
X1.8661Y-5.6142
X1.8661Y-5.6535
X1.8661Y-5.6929
X1.8661Y-5.7323
X1.8661Y-5.7717
X1.8661Y-5.811
X1.8661Y-5.8504
X1.8819Y-3.0669
X1.8819Y-3.1063
X1.8819Y-3.1457
X1.8819Y-3.185
X1.8819Y-3.2244
X1.8819Y-3.2638
X1.8819Y-3.3031
X1.8819Y-3.3425
X1.8819Y-3.3819
X1.9173Y-3.0669
X1.9173Y-3.1063
X1.9173Y-3.1457
X1.9173Y-3.185
X1.9173Y-3.2244
X1.9173Y-3.2638
X1.9173Y-3.3031
X1.9173Y-3.3425
X1.9173Y-3.3819
X2.0394Y-5.5748
X2.0394Y-5.6142
X2.0394Y-5.6535
X2.0394Y-5.6929
X2.0394Y-5.7323
X2.0394Y-5.7717
X2.0394Y-5.811
X2.0394Y-5.8504
X2.0787Y-5.5748
X2.0787Y-5.6142
X2.0787Y-5.6535
X2.0787Y-5.6929
X2.0787Y-5.7323
X2.0787Y-5.7717
X2.0787Y-5.811
X2.0787Y-5.8504
X2.1098Y-3.7244
X2.1181Y-5.5748
X2.1181Y-5.6142
X2.1181Y-5.6535
X2.1181Y-5.6929
X2.1181Y-5.7323
X2.1181Y-5.7717
X2.1181Y-5.811
X2.1181Y-5.8504
X2.122Y-6.122
X2.122Y-6.1614
X2.122Y-6.2008
X2.122Y-6.2402
X2.1248Y-3.5193
X2.1299Y-3.6614
X2.1299Y-3.6929
X2.1575Y-4.0079
X2.1575Y-5.5748
X2.1575Y-5.6142
X2.1575Y-5.6535
X2.1575Y-5.6929
X2.1575Y-5.7323
X2.1575Y-5.7717
X2.1575Y-5.811
X2.1575Y-5.8504
X2.1614Y-3.6614
X2.1614Y-3.6929
X2.1614Y-6.122
X2.1614Y-6.1614
X2.1614Y-6.2008
X2.1614Y-6.2402
X2.1929Y-3.8957
X2.1969Y-5.5748
X2.1969Y-5.6142
X2.1969Y-5.6535
X2.1969Y-5.6929
X2.1969Y-5.7323
X2.1969Y-5.7717
X2.1969Y-5.811
X2.1969Y-5.8504
X2.2008Y-6.122
X2.2008Y-6.1614
X2.2008Y-6.2008
X2.2008Y-6.2402
X2.2205Y-3.8957
X2.2402Y-6.122
X2.2402Y-6.1614
X2.2402Y-6.2008
X2.2402Y-6.2402
X2.251Y-3.6624
X2.251Y-3.6939
X2.2795Y-6.122
X2.2795Y-6.1614
X2.2795Y-6.2008
X2.2795Y-6.2402
X2.2825Y-3.6624
X2.2825Y-3.6939
X2.3031Y-3.9793
X2.3031Y-4.0108
X2.3268Y-5.1693
X2.3268Y-5.2087
X2.3268Y-5.248
X2.3268Y-5.2874
X2.3268Y-5.3268
X2.3268Y-5.3661
X2.3268Y-5.4055
X2.3268Y-5.4449
X2.3346Y-3.9793
X2.3346Y-4.0108
X2.3661Y-5.1693
X2.3661Y-5.2087
X2.3661Y-5.248
X2.3661Y-5.2874
X2.3661Y-5.3268
X2.3661Y-5.3661
X2.3661Y-5.4055
X2.3661Y-5.4449
X2.375Y-4.0167
X2.4016Y-3.6969
X2.4055Y-5.1693
X2.4055Y-5.2087
X2.4055Y-5.248
X2.4055Y-5.2874
X2.4055Y-5.3268
X2.4055Y-5.3661
X2.4055Y-5.4055
X2.4055Y-5.4449
X2.4409Y-3.6969
X2.4449Y-5.1693
X2.4449Y-5.2087
X2.4449Y-5.248
X2.4449Y-5.2874
X2.4449Y-5.3268
X2.4449Y-5.3661
X2.4449Y-5.4055
X2.4449Y-5.4449
X2.4634Y-5.6886
X2.4803Y-3.6969
X2.4843Y-5.1693
X2.4843Y-5.2087
X2.4843Y-5.248
X2.4843Y-5.2874
X2.4843Y-5.3268
X2.4843Y-5.3661
X2.4843Y-5.4055
X2.4843Y-5.4449
X2.4854Y-5.6591
X2.5197Y-3.6969
X2.5236Y-5.1693
X2.5236Y-5.2087
X2.5236Y-5.248
X2.5236Y-5.2874
X2.5236Y-5.3268
X2.5236Y-5.3661
X2.5236Y-5.4055
X2.5236Y-5.4449
X2.5472Y-2.752
X2.5472Y-2.7913
X2.5472Y-2.8307
X2.5581Y-5.7384
X2.5591Y-3.6969
X2.563Y-5.1693
X2.563Y-5.2087
X2.563Y-5.248
X2.563Y-5.2874
X2.563Y-5.3268
X2.563Y-5.3661
X2.563Y-5.4055
X2.563Y-5.4449
X2.5827Y-2.752
X2.5827Y-2.7913
X2.5827Y-2.8307
X2.5846Y-4.8696
X2.5984Y-3.6969
X2.6024Y-5.1693
X2.6024Y-5.2087
X2.6024Y-5.248
X2.6024Y-5.2874
X2.6024Y-5.3268
X2.6024Y-5.3661
X2.6024Y-5.4055
X2.6024Y-5.4449
X2.626Y-2.752
X2.626Y-2.7913
X2.626Y-2.8307
X2.6276Y-5.7925
X2.6276Y-5.9866
X2.6378Y-3.6969
X2.6382Y-5.6469
X2.6614Y-2.752
X2.6614Y-2.7913
X2.6614Y-2.8307
X2.6638Y-4.6703
X2.6772Y-3.6969
X2.6835Y-3.489
X2.6835Y-3.539
X2.6886Y-3.2683
X2.689Y-3.7598
X2.689Y-3.7992
X2.689Y-3.8386
X2.689Y-3.878
X2.689Y-3.9173
X2.689Y-3.9567
X2.689Y-3.9961
X2.689Y-4.0354
X2.7126Y-3.1299
X2.7126Y-3.2283
X2.7126Y-3.311
X2.7259Y-4.7532
X2.8031Y-5.2992
X2.8031Y-5.3386
X2.8031Y-5.378
X2.8031Y-5.4173
X2.8031Y-5.4567
X2.8031Y-5.4961
X2.811Y-3.9882
X2.811Y-4.0276
X2.8368Y-5.6187
X2.8386Y-2.752
X2.8386Y-2.7913
X2.8386Y-2.8327
X2.8425Y-5.2992
X2.8425Y-5.3386
X2.8425Y-5.378
X2.8425Y-5.4173
X2.8425Y-5.4567
X2.8425Y-5.4961
X2.8465Y-3.9882
X2.8465Y-4.0276
X2.874Y-2.752
X2.874Y-2.7913
X2.874Y-2.8327
X2.8819Y-5.2992
X2.8819Y-5.3386
X2.8819Y-5.378
X2.8819Y-5.4173
X2.8819Y-5.4567
X2.8819Y-5.4961
X2.8898Y-3.9882
X2.8898Y-4.0276
X2.8917Y-2.9685
X2.8976Y-3.5705
X2.9055Y-3.0906
X2.9173Y-2.752
X2.9173Y-2.7913
X2.9213Y-5.2992
X2.9213Y-5.3386
X2.9213Y-5.378
X2.9213Y-5.4173
X2.9213Y-5.4567
X2.9213Y-5.4961
X2.9252Y-3.9882
X2.9252Y-4.0276
X2.937Y-3.0906
X2.9502Y-2.84
X2.9528Y-2.752
X2.9528Y-2.7913
X2.9646Y-3.9882
X2.9646Y-4.0276
X2.9646Y-5.7106
X2.9828Y-4.592
X2.9961Y-2.752
X2.9961Y-2.7913
X2.9961Y-5.7106
X3.0Y-3.9882
X3.0Y-4.0276
X3.0069Y-4.5207
X3.0315Y-2.752
X3.0315Y-2.7913
X3.0315Y-2.8307
X3.0437Y-2.6329
X3.0463Y-4.4262
X3.072Y-3.639
X3.072Y-3.689
X3.0748Y-2.752
X3.0748Y-2.7913
X3.0748Y-2.8307
X3.0752Y-5.9866
X3.1102Y-2.752
X3.1102Y-2.7913
X3.1102Y-2.8307
X3.1181Y-5.2992
X3.1181Y-5.3386
X3.1181Y-5.378
X3.1181Y-5.4173
X3.1181Y-5.4567
X3.1181Y-5.4961
X3.1535Y-4.8858
X3.1535Y-4.9252
X3.1535Y-4.9646
X3.1535Y-5.0039
X3.1535Y-5.0433
X3.1535Y-5.0827
X3.1535Y-5.122
X3.1535Y-5.1614
X3.1575Y-5.2992
X3.1575Y-5.3386
X3.1575Y-5.378
X3.1575Y-5.4173
X3.1575Y-5.4567
X3.1575Y-5.4961
X3.1614Y-3.8543
X3.1614Y-3.8937
X3.185Y-6.122
X3.185Y-6.1614
X3.185Y-6.2008
X3.185Y-6.2402
X3.1929Y-4.8858
X3.1929Y-4.9252
X3.1929Y-4.9646
X3.1929Y-5.0039
X3.1929Y-5.0433
X3.1929Y-5.0827
X3.1929Y-5.122
X3.1929Y-5.1614
X3.1969Y-3.8543
X3.1969Y-3.8937
X3.1969Y-5.2992
X3.1969Y-5.3386
X3.1969Y-5.378
X3.1969Y-5.4173
X3.1969Y-5.4567
X3.1969Y-5.4961
X3.2178Y-3.1101
X3.2244Y-6.122
X3.2244Y-6.1614
X3.2244Y-6.2008
X3.2244Y-6.2402
X3.2293Y-3.2559
X3.2293Y-3.2874
X3.2293Y-3.3622
X3.2323Y-4.8858
X3.2323Y-4.9252
X3.2323Y-4.9646
X3.2323Y-5.0039
X3.2323Y-5.0433
X3.2323Y-5.0827
X3.2323Y-5.122
X3.2323Y-5.1614
X3.2362Y-5.2992
X3.2362Y-5.3386
X3.2362Y-5.378
X3.2362Y-5.4173
X3.2362Y-5.4567
X3.2362Y-5.4961
X3.2402Y-3.8543
X3.2402Y-3.8937
X3.2638Y-6.122
X3.2638Y-6.1614
X3.2638Y-6.2008
X3.2638Y-6.2402
X3.2717Y-4.8858
X3.2717Y-4.9252
X3.2717Y-4.9646
X3.2717Y-5.0039
X3.2717Y-5.0433
X3.2717Y-5.0827
X3.2717Y-5.122
X3.2717Y-5.1614
X3.2756Y-3.8543
X3.2756Y-3.8937
X3.2874Y-4.4094
X3.2874Y-4.4843
X3.3031Y-6.122
X3.3031Y-6.1614
X3.3031Y-6.2008
X3.3031Y-6.2402
X3.311Y-4.5197
X3.311Y-4.8858
X3.311Y-4.9252
X3.311Y-4.9646
X3.311Y-5.0039
X3.311Y-5.0433
X3.311Y-5.0827
X3.311Y-5.122
X3.311Y-5.1614
X3.322Y-3.0689
X3.322Y-3.1181
X3.3425Y-6.122
X3.3425Y-6.1614
X3.3425Y-6.2008
X3.3425Y-6.2402
X3.3504Y-4.8858
X3.3504Y-4.9252
X3.3504Y-4.9646
X3.3504Y-5.0039
X3.3504Y-5.0433
X3.3504Y-5.0827
X3.3504Y-5.122
X3.3504Y-5.1614
X3.3898Y-4.8858
X3.3898Y-4.9252
X3.3898Y-4.9646
X3.3898Y-5.0039
X3.3898Y-5.0433
X3.3898Y-5.0827
X3.3898Y-5.122
X3.3898Y-5.1614
X3.4016Y-5.2992
X3.4016Y-5.3386
X3.4016Y-5.378
X3.4016Y-5.4173
X3.4016Y-5.4567
X3.4016Y-5.4961
X3.4291Y-4.8858
X3.4291Y-4.9252
X3.4291Y-4.9646
X3.4291Y-5.0039
X3.4291Y-5.0433
X3.4291Y-5.0827
X3.4291Y-5.122
X3.4291Y-5.1614
X3.4307Y-3.5598
X3.437Y-3.4465
X3.4409Y-5.2992
X3.4409Y-5.3386
X3.4409Y-5.378
X3.4409Y-5.4173
X3.4409Y-5.4567
X3.4409Y-5.4961
X3.4685Y-3.7756
X3.4685Y-4.8858
X3.4685Y-4.9252
X3.4685Y-4.9646
X3.4685Y-5.0039
X3.4685Y-5.0433
X3.4685Y-5.0827
X3.4685Y-5.122
X3.4685Y-5.1614
X3.4717Y-3.6136
X3.4803Y-5.2992
X3.4803Y-5.3386
X3.4803Y-5.378
X3.4803Y-5.4173
X3.4803Y-5.4567
X3.4803Y-5.4961
X3.4872Y-3.6644
X3.4902Y-3.0315
X3.4961Y-3.1043
X3.4969Y-3.7921
X3.498Y-3.2854
X3.498Y-3.313
X3.498Y-3.3406
X3.5079Y-4.8858
X3.5079Y-4.9252
X3.5079Y-4.9646
X3.5079Y-5.0039
X3.5079Y-5.0433
X3.5079Y-5.0827
X3.5079Y-5.122
X3.5079Y-5.1614
X3.5197Y-5.2992
X3.5197Y-5.3386
X3.5197Y-5.378
X3.5197Y-5.4173
X3.5197Y-5.4567
X3.5197Y-5.4961
X3.5236Y-3.7748
X3.5256Y-3.2854
X3.5256Y-3.313
X3.5256Y-3.3406
X3.5371Y-4.3651
X3.5384Y-4.4892
X3.5441Y-5.6911
X3.5472Y-4.8858
X3.5472Y-4.9252
X3.5472Y-4.9646
X3.5472Y-5.0039
X3.5472Y-5.0433
X3.5472Y-5.0827
X3.5472Y-5.122
X3.5472Y-5.1614
X3.5482Y-4.3356
X3.5525Y-3.7887
X3.5531Y-3.2854
X3.5531Y-3.313
X3.5531Y-3.3406
X3.5591Y-5.2992
X3.5591Y-5.3386
X3.5591Y-5.378
X3.5591Y-5.4173
X3.5591Y-5.4567
X3.5591Y-5.4961
X3.5654Y-5.6579
X3.5728Y-4.0709
X3.5846Y-2.9094
X3.5856Y-3.6496
X3.5856Y-3.688
X3.5866Y-3.9626
X3.5866Y-4.8858
X3.5866Y-4.9252
X3.5866Y-4.9646
X3.5866Y-5.0039
X3.5866Y-5.0433
X3.5866Y-5.0827
X3.5866Y-5.122
X3.5866Y-5.1614
X3.5945Y-2.9606
X3.5984Y-5.2992
X3.5984Y-5.3386
X3.5984Y-5.378
X3.5984Y-5.4173
X3.5984Y-5.4567
X3.5984Y-5.4961
X3.6024Y-3.3593
X3.6181Y-3.1299
X3.626Y-4.8858
X3.626Y-4.9252
X3.626Y-4.9646
X3.626Y-5.0039
X3.626Y-5.0433
X3.626Y-5.0827
X3.626Y-5.122
X3.626Y-5.1614
X3.6378Y-5.2992
X3.6378Y-5.3386
X3.6378Y-5.378
X3.6378Y-5.4173
X3.6378Y-5.4567
X3.6378Y-5.4961
X3.639Y-5.7354
X3.6445Y-4.3787
X3.6457Y-4.1457
X3.6457Y-4.1939
X3.6457Y-4.2451
X3.6484Y-3.461
X3.6575Y-4.4124
X3.661Y-3.6185
X3.665Y-3.4012
X3.6654Y-4.8858
X3.6654Y-4.9252
X3.6654Y-4.9646
X3.6654Y-5.0039
X3.6654Y-5.0433
X3.6654Y-5.0827
X3.6654Y-5.122
X3.6654Y-5.1614
X3.6667Y-4.4636
X3.6772Y-5.2992
X3.6772Y-5.3386
X3.6772Y-5.378
X3.6772Y-5.4173
X3.6772Y-5.4567
X3.6772Y-5.4961
X3.6803Y-3.252
X3.6827Y-3.8449
X3.6837Y-3.5317
X3.6886Y-3.6185
X3.7047Y-4.8858
X3.7047Y-4.9252
X3.7104Y-5.647
X3.7106Y-5.8024
X3.7126Y-4.352
X3.7146Y-3.8996
X3.7148Y-3.2677
X3.7161Y-3.6185
X3.7176Y-3.5317
X3.7197Y-3.3967
X3.7394Y-3.7882
X3.7437Y-3.6185
X3.7441Y-4.8858
X3.7441Y-4.9252
X3.7441Y-5.3898
X3.7441Y-5.4291
X3.7669Y-3.5236
X3.7677Y-4.252
X3.7687Y-4.3071
X3.7713Y-3.6185
X3.7736Y-3.3967
X3.7768Y-4.3612
X3.7815Y-4.0295
X3.7835Y-4.8858
X3.7835Y-4.9252
X3.7835Y-5.3898
X3.7835Y-5.4291
X3.7874Y-4.1298
X3.7911Y-3.5458
X3.7988Y-3.6185
X3.7992Y-3.8839
X3.8182Y-3.8156
X3.8228Y-4.8858
X3.8228Y-4.9252
X3.8228Y-5.3898
X3.8228Y-5.4291
X3.8295Y-3.5591
X3.8346Y-3.2402
X3.8356Y-3.2726
X3.8571Y-3.5591
X3.8622Y-4.8858
X3.8622Y-4.9252
X3.8622Y-5.3898
X3.8622Y-5.4291
X3.877Y-4.4252
X3.8815Y-5.6185
X3.8818Y-4.1315
X3.8937Y-3.8307
X3.8937Y-3.8661
X3.8937Y-3.9016
X3.8937Y-3.9409
X3.8976Y-3.6693
X3.8976Y-3.6969
X3.8992Y-3.3055
X3.8992Y-3.3449
X3.9016Y-4.8858
X3.9016Y-4.9252
X3.9016Y-5.3898
X3.9016Y-5.4291
X3.9016Y-5.9598
X3.9169Y-5.6185
X3.9213Y-4.0295
X3.9252Y-3.6969
X3.9252Y-3.8307
X3.9252Y-3.8661
X3.9252Y-3.9016
X3.9252Y-3.9409
X3.9346Y-3.3055
X3.9346Y-3.3449
X3.9409Y-4.4134
X3.9409Y-4.4528
X3.9409Y-4.4921
X3.9409Y-4.5315
X3.9409Y-4.5709
X3.9409Y-4.6102
X3.9409Y-4.6496
X3.9409Y-4.689
X3.9409Y-4.7283
X3.9409Y-4.7677
X3.9409Y-4.8071
X3.9409Y-4.8465
X3.9409Y-4.8858
X3.9409Y-4.9252
X3.9409Y-5.3898
X3.9409Y-5.4291
X3.9625Y-5.1949
X3.963Y-5.2457
X3.9803Y-4.4134
X3.9803Y-4.4528
X3.9803Y-4.4921
X3.9803Y-4.5315
X3.9803Y-4.5709
X3.9803Y-4.6102
X3.9803Y-4.6496
X3.9803Y-4.689
X3.9803Y-4.7283
X3.9803Y-4.7677
X3.9803Y-4.8071
X3.9803Y-4.8465
X3.9803Y-4.8858
X3.9803Y-4.9252
X3.9803Y-5.3898
X3.9803Y-5.4291
X3.9862Y-3.685
X4.0098Y-3.2508
X4.0098Y-3.2902
X4.0098Y-3.3756
X4.0098Y-3.415
X4.0177Y-3.685
X4.0197Y-4.4134
X4.0197Y-4.4528
X4.0197Y-4.4921
X4.0197Y-4.5315
X4.0197Y-4.5709
X4.0197Y-4.6102
X4.0197Y-4.6496
X4.0197Y-4.689
X4.0197Y-4.7283
X4.0197Y-4.7677
X4.0197Y-4.8071
X4.0197Y-4.8465
X4.0197Y-4.8858
X4.0197Y-4.9252
X4.0197Y-5.3898
X4.0197Y-5.4291
X4.0335Y-3.5443
X4.0453Y-3.2508
X4.0453Y-3.2902
X4.0453Y-3.3756
X4.0453Y-3.415
X4.0492Y-3.685
X4.0539Y-5.0817
X4.0567Y-5.7083
X4.0591Y-4.4134
X4.0591Y-4.4528
X4.0591Y-4.4921
X4.0591Y-4.5315
X4.0591Y-4.5709
X4.0591Y-4.6102
X4.0591Y-4.6496
X4.0591Y-4.689
X4.0591Y-4.7283
X4.0591Y-4.7677
X4.0591Y-4.8071
X4.0591Y-4.8465
X4.0591Y-4.8858
X4.0591Y-4.9252
X4.0591Y-5.3898
X4.0591Y-5.4291
X4.0748Y-5.9866
X4.085Y-3.6457
X4.0882Y-5.7083
X4.0984Y-5.3898
X4.0984Y-5.4291
X4.0988Y-5.2358
X4.1154Y-5.0
X4.1154Y-5.0561
X4.1319Y-3.5059
X4.1378Y-5.2354
X4.1378Y-5.3325
X4.1378Y-5.3898
X4.1378Y-5.4291
X4.1547Y-5.0
X4.1567Y-5.9866
X4.1772Y-2.7933
X4.1772Y-2.8307
X4.1772Y-2.8701
X4.1772Y-5.3898
X4.1772Y-5.4291
X4.2008Y-5.063
X4.2126Y-2.7933
X4.2126Y-2.8307
X4.2126Y-2.8701
X4.2165Y-4.1339
X4.2165Y-4.1732
X4.2165Y-4.8031
X4.2165Y-4.8425
X4.2165Y-4.8819
X4.2165Y-4.9213
X4.2165Y-5.3898
X4.2165Y-5.4291
X4.2283Y-5.063
X4.2559Y-2.7933
X4.2559Y-2.8307
X4.2559Y-2.8701
X4.2559Y-4.1339
X4.2559Y-4.1732
X4.2559Y-4.8031
X4.2559Y-4.8425
X4.2559Y-4.8819
X4.2559Y-4.9213
X4.2559Y-5.063
X4.2559Y-5.3898
X4.2559Y-5.4291
X4.2565Y-3.2695
X4.2628Y-3.5413
X4.2628Y-3.6831
X4.2835Y-5.063
X4.2874Y-6.122
X4.2874Y-6.1614
X4.2874Y-6.2008
X4.2874Y-6.2402
X4.2894Y-5.2719
X4.2904Y-5.1563
X4.2913Y-2.7933
X4.2913Y-2.8307
X4.2913Y-2.8701
X4.2953Y-4.1339
X4.2953Y-4.1732
X4.2953Y-4.8031
X4.2953Y-4.8425
X4.2953Y-4.8819
X4.2953Y-4.9213
X4.2953Y-5.3898
X4.2953Y-5.4291
X4.3031Y-3.815
X4.3031Y-3.8543
X4.3031Y-3.9331
X4.3031Y-3.9724
X4.3209Y-3.565
X4.3268Y-6.122
X4.3268Y-6.1614
X4.3268Y-6.2008
X4.3268Y-6.2402
X4.3346Y-2.752
X4.3346Y-2.7913
X4.3346Y-2.8307
X4.3346Y-2.8701
X4.3346Y-4.1339
X4.3346Y-4.1732
X4.3346Y-4.8031
X4.3346Y-4.8425
X4.3346Y-4.8819
X4.3346Y-4.9213
X4.3346Y-5.3898
X4.3346Y-5.4291
X4.3386Y-3.815
X4.3386Y-3.8543
X4.3386Y-3.9331
X4.3386Y-3.9724
X4.3567Y-3.2695
X4.3661Y-6.122
X4.3661Y-6.1614
X4.3661Y-6.2008
X4.3661Y-6.2402
X4.3701Y-2.752
X4.3701Y-2.7913
X4.3701Y-2.8307
X4.3701Y-2.8701
X4.374Y-3.5039
X4.374Y-4.1339
X4.374Y-4.1732
X4.374Y-4.8031
X4.374Y-4.8425
X4.374Y-4.8819
X4.374Y-4.9213
X4.3819Y-3.815
X4.3819Y-3.8543
X4.3819Y-3.9331
X4.3819Y-3.9724
X4.4055Y-6.122
X4.4055Y-6.1614
X4.4055Y-6.2008
X4.4055Y-6.2402
X4.4134Y-3.1457
X4.4134Y-3.185
X4.4134Y-3.2244
X4.4134Y-3.2638
X4.4134Y-3.3031
X4.4134Y-3.3425
X4.4134Y-4.1339
X4.4134Y-4.1732
X4.4134Y-4.8031
X4.4134Y-4.8425
X4.4134Y-4.8819
X4.4134Y-4.9213
X4.4173Y-3.815
X4.4173Y-3.8543
X4.4173Y-3.9331
X4.4173Y-3.9724
X4.4449Y-6.122
X4.4449Y-6.1614
X4.4449Y-6.2008
X4.4449Y-6.2402
X4.4488Y-3.1457
X4.4488Y-3.185
X4.4488Y-3.2244
X4.4488Y-3.2638
X4.4488Y-3.3031
X4.4488Y-3.3425
X4.4528Y-4.1339
X4.4528Y-4.1732
X4.4528Y-4.8031
X4.4528Y-4.8425
X4.4528Y-4.8819
X4.4528Y-4.9213
X4.4642Y-5.263
X4.4921Y-3.2244
X4.4921Y-3.2638
X4.4921Y-3.3031
X4.4921Y-3.3425
X4.4921Y-4.1339
X4.4921Y-4.1732
X4.4921Y-4.8031
X4.4921Y-4.8425
X4.4921Y-4.8819
X4.4921Y-4.9213
X4.5Y-5.3898
X4.5Y-5.4291
X4.5276Y-3.2244
X4.5276Y-3.2638
X4.5276Y-3.3031
X4.5276Y-3.3425
X4.5315Y-4.1339
X4.5315Y-4.1732
X4.5315Y-4.8031
X4.5315Y-4.8425
X4.5315Y-4.8819
X4.5315Y-4.9213
X4.5394Y-5.3898
X4.5394Y-5.4291
X4.5572Y-5.1957
X4.5579Y-5.2484
X4.5709Y-4.1339
X4.5709Y-4.1732
X4.5709Y-4.8031
X4.5709Y-4.8425
X4.5709Y-4.8819
X4.5709Y-4.9213
X4.5787Y-5.3898
X4.5787Y-5.4291
X4.5835Y-3.2689
X4.6083Y-3.75
X4.6102Y-4.1339
X4.6102Y-4.1732
X4.6102Y-4.8031
X4.6102Y-4.8425
X4.6102Y-4.8819
X4.6102Y-4.9213
X4.6181Y-5.3898
X4.6181Y-5.4291
X4.6301Y-5.6872
X4.6453Y-5.0827
X4.6457Y-3.75
X4.6496Y-4.1339
X4.6496Y-4.1732
X4.6496Y-4.8031
X4.6496Y-4.8425
X4.6496Y-4.8819
X4.6496Y-4.9213
X4.6523Y-5.6579
X4.6575Y-5.3898
X4.6575Y-5.4291
X4.6831Y-3.2689
X4.689Y-4.1339
X4.689Y-4.1732
X4.6917Y-5.2354
X4.6969Y-5.3898
X4.6969Y-5.4291
X4.7079Y-5.0
X4.7079Y-5.0581
X4.7197Y-5.7335
X4.7272Y-5.1594
X4.7283Y-4.1339
X4.7283Y-4.1732
X4.7362Y-3.0669
X4.7362Y-3.1063
X4.7362Y-3.1457
X4.7362Y-3.185
X4.7362Y-3.2244
X4.7362Y-3.2638
X4.7362Y-3.3031
X4.7362Y-3.3425
X4.7362Y-5.3898
X4.7362Y-5.4291
X4.7406Y-5.0
X4.7677Y-4.1339
X4.7677Y-4.1732
X4.7717Y-3.0669
X4.7717Y-3.1063
X4.7717Y-3.1457
X4.7717Y-3.185
X4.7717Y-3.2244
X4.7717Y-3.2638
X4.7717Y-3.3031
X4.7717Y-3.3425
X4.7756Y-5.3898
X4.7756Y-5.4291
X4.7902Y-5.6457
X4.7913Y-5.063
X4.7947Y-5.7837
X4.8071Y-4.1339
X4.8071Y-4.1732
X4.8071Y-4.8031
X4.8071Y-4.8425
X4.8071Y-4.8819
X4.8071Y-4.9213
X4.815Y-3.0669
X4.815Y-3.1063
X4.815Y-3.1457
X4.815Y-3.185
X4.815Y-3.2244
X4.815Y-3.2638
X4.815Y-3.3031
X4.815Y-3.3425
X4.815Y-5.3898
X4.815Y-5.4291
X4.8189Y-5.063
X4.8205Y-3.4872
X4.8224Y-5.3087
X4.8278Y-5.9573
X4.8465Y-4.1339
X4.8465Y-4.1732
X4.8465Y-4.8031
X4.8465Y-4.8425
X4.8465Y-4.8819
X4.8465Y-4.9213
X4.8465Y-5.063
X4.8504Y-3.0669
X4.8504Y-3.1063
X4.8504Y-3.1457
X4.8504Y-3.185
X4.8504Y-3.2244
X4.8504Y-3.2638
X4.8504Y-3.3031
X4.8504Y-3.3425
X4.8543Y-5.3898
X4.8543Y-5.4291
X4.874Y-3.6083
X4.874Y-3.6437
X4.874Y-3.6791
X4.874Y-3.7264
X4.874Y-3.7618
X4.874Y-3.7972
X4.874Y-3.9055
X4.874Y-3.9409
X4.874Y-5.063
X4.8813Y-5.1531
X4.8827Y-5.272
X4.8858Y-4.1339
X4.8858Y-4.1732
X4.8858Y-4.8031
X4.8858Y-4.8425
X4.8858Y-4.8819
X4.8858Y-4.9213
X4.8937Y-5.3898
X4.8937Y-5.4291
X4.9055Y-3.6083
X4.9055Y-3.6437
X4.9055Y-3.6791
X4.9055Y-3.7264
X4.9055Y-3.7618
X4.9055Y-3.7972
X4.9055Y-3.9055
X4.9055Y-3.9409
X4.9071Y-3.4866
X4.9094Y-3.2685
X4.9252Y-4.1339
X4.9252Y-4.1732
X4.9252Y-4.8031
X4.9252Y-4.8425
X4.9252Y-4.8819
X4.9252Y-4.9213
X4.9528Y-3.6083
X4.9528Y-3.6437
X4.9528Y-3.6791
X4.9528Y-3.7264
X4.9528Y-3.7618
X4.9528Y-3.7972
X4.9528Y-3.9055
X4.9528Y-3.9409
X4.9646Y-4.1339
X4.9646Y-4.1732
X4.9646Y-4.8031
X4.9646Y-4.8425
X4.9646Y-4.8819
X4.9646Y-4.9213
X4.9843Y-3.6083
X4.9843Y-3.6437
X4.9843Y-3.6791
X4.9843Y-3.7264
X4.9843Y-3.7618
X4.9843Y-3.7972
X4.9843Y-3.9055
X4.9843Y-3.9409
X5.0039Y-4.1339
X5.0039Y-4.1732
X5.0039Y-4.8031
X5.0039Y-4.8425
X5.0039Y-4.8819
X5.0039Y-4.9213
X5.0049Y-5.6163
X5.0094Y-3.2685
X5.0354Y-3.6083
X5.0354Y-3.6437
X5.0354Y-3.6791
X5.0354Y-3.7264
X5.0354Y-3.7618
X5.0354Y-3.7972
X5.0354Y-3.9055
X5.0354Y-3.9409
X5.0433Y-4.1339
X5.0433Y-4.1732
X5.0433Y-4.8031
X5.0433Y-4.8425
X5.0433Y-4.8819
X5.0433Y-4.9213
X5.0512Y-5.3898
X5.0512Y-5.4291
X5.0598Y-3.2689
X5.0598Y-3.3083
X5.0669Y-3.6083
X5.0669Y-3.6437
X5.0669Y-3.6791
X5.0669Y-3.7264
X5.0669Y-3.7618
X5.0669Y-3.7972
X5.0669Y-3.9055
X5.0669Y-3.9409
X5.0827Y-4.1339
X5.0827Y-4.1732
X5.0827Y-4.8031
X5.0827Y-4.8425
X5.0827Y-4.8819
X5.0827Y-4.9213
X5.0906Y-5.3898
X5.0906Y-5.4291
X5.1093Y-3.4291
X5.1094Y-3.2685
X5.1142Y-3.6083
X5.1142Y-3.6437
X5.1142Y-3.6791
X5.1142Y-3.7264
X5.1142Y-3.7618
X5.1142Y-3.7972
X5.122Y-4.1339
X5.122Y-4.1732
X5.122Y-4.8031
X5.122Y-4.8425
X5.122Y-4.8819
X5.122Y-4.9213
X5.1299Y-5.3898
X5.1299Y-5.4291
X5.1402Y-5.7071
X5.1457Y-3.6083
X5.1457Y-3.6437
X5.1457Y-3.6791
X5.1457Y-3.7264
X5.1457Y-3.7618
X5.1457Y-3.7972
X5.1473Y-5.2575
X5.1517Y-5.1964
X5.1543Y-5.9866
X5.1614Y-2.7913
X5.1614Y-2.8307
X5.1614Y-2.8701
X5.1614Y-2.9094
X5.1614Y-2.9488
X5.1614Y-2.9882
X5.1614Y-3.0276
X5.1614Y-3.0669
X5.1614Y-3.1063
X5.1614Y-3.1457
X5.1614Y-3.185
X5.1614Y-3.2244
X5.1614Y-3.2638
X5.1614Y-3.3031
X5.1614Y-3.3425
X5.1614Y-3.3819
X5.1614Y-4.8031
X5.1614Y-4.8425
X5.1614Y-4.8819
X5.1614Y-4.9213
X5.1693Y-5.3898
X5.1693Y-5.4291
X5.1717Y-5.7071
X5.1969Y-2.7913
X5.1969Y-2.8307
X5.1969Y-2.8701
X5.1969Y-2.9094
X5.1969Y-2.9488
X5.1969Y-2.9882
X5.1969Y-3.0276
X5.1969Y-3.0669
X5.1969Y-3.1063
X5.1969Y-3.1457
X5.1969Y-3.185
X5.1969Y-3.2244
X5.1969Y-3.2638
X5.1969Y-3.3031
X5.1969Y-3.3425
X5.1969Y-3.3819
X5.2008Y-4.8031
X5.2008Y-4.8425
X5.2008Y-4.8819
X5.2008Y-4.9213
X5.2087Y-5.3898
X5.2087Y-5.4291
X5.2299Y-5.0807
X5.2362Y-5.9866
X5.2402Y-2.7913
X5.2402Y-2.8307
X5.2402Y-2.8701
X5.2402Y-2.9094
X5.2402Y-2.9488
X5.2402Y-2.9882
X5.2402Y-3.0276
X5.2402Y-3.0669
X5.2402Y-3.1063
X5.2402Y-3.1457
X5.2402Y-3.185
X5.2402Y-3.2244
X5.2402Y-3.2638
X5.2402Y-3.3031
X5.2402Y-3.3425
X5.2402Y-3.3819
X5.2402Y-4.8031
X5.2402Y-4.8425
X5.2402Y-4.8819
X5.2402Y-4.9213
X5.2417Y-3.9665
X5.248Y-5.3898
X5.248Y-5.4291
X5.2717Y-6.126
X5.2717Y-6.1654
X5.2717Y-6.2047
X5.2717Y-6.2441
X5.2756Y-2.7913
X5.2756Y-2.8307
X5.2756Y-2.8701
X5.2756Y-2.9094
X5.2756Y-2.9488
X5.2756Y-2.9882
X5.2756Y-3.0276
X5.2756Y-3.0669
X5.2756Y-3.1063
X5.2756Y-3.1457
X5.2756Y-3.185
X5.2756Y-3.2244
X5.2756Y-3.2638
X5.2756Y-3.3031
X5.2756Y-3.3425
X5.2756Y-3.3819
X5.2795Y-3.9173
X5.2874Y-5.3898
X5.2874Y-5.4291
X5.2972Y-3.6024
X5.2972Y-3.6299
X5.2984Y-5.0
X5.2984Y-5.0561
X5.311Y-6.126
X5.311Y-6.1654
X5.311Y-6.2047
X5.311Y-6.2441
X5.3189Y-2.7913
X5.3189Y-2.8307
X5.3189Y-2.8701
X5.3189Y-2.9094
X5.3189Y-2.9488
X5.3189Y-2.9882
X5.3189Y-3.0276
X5.3189Y-3.0669
X5.3189Y-3.1063
X5.3248Y-3.6024
X5.3248Y-3.6299
X5.3268Y-5.3898
X5.3268Y-5.4291
X5.3315Y-5.0
X5.3504Y-6.126
X5.3504Y-6.1654
X5.3504Y-6.2047
X5.3504Y-6.2441
X5.3524Y-3.8898
X5.3543Y-2.7913
X5.3543Y-2.8307
X5.3543Y-2.8701
X5.3543Y-2.9094
X5.3543Y-2.9488
X5.3543Y-2.9882
X5.3543Y-3.0276
X5.3543Y-3.0669
X5.3543Y-3.1063
X5.3661Y-5.3898
X5.3661Y-5.4291
X5.3701Y-4.1732
X5.3701Y-4.2126
X5.3701Y-4.252
X5.3701Y-4.2913
X5.3701Y-4.3307
X5.3701Y-4.3701
X5.3701Y-4.4094
X5.3701Y-4.4488
X5.3701Y-4.4882
X5.3701Y-4.5276
X5.3701Y-4.5669
X5.3701Y-4.6063
X5.374Y-4.6457
X5.374Y-4.685
X5.374Y-4.7244
X5.374Y-4.7638
X5.374Y-4.8031
X5.374Y-4.8425
X5.374Y-4.8819
X5.374Y-4.9213
X5.3819Y-5.063
X5.3898Y-6.126
X5.3898Y-6.1654
X5.3898Y-6.2047
X5.3898Y-6.2441
X5.4Y-3.4433
X5.4055Y-5.3898
X5.4055Y-5.4291
X5.4094Y-4.1732
X5.4094Y-4.2126
X5.4094Y-4.252
X5.4094Y-4.2913
X5.4094Y-4.3307
X5.4094Y-4.3701
X5.4094Y-4.4094
X5.4094Y-4.4488
X5.4094Y-4.4882
X5.4094Y-4.5276
X5.4094Y-4.5669
X5.4094Y-4.6063
X5.4094Y-5.063
X5.4134Y-4.6457
X5.4134Y-4.685
X5.4134Y-4.7244
X5.4134Y-4.7638
X5.4134Y-4.8031
X5.4134Y-4.8425
X5.4134Y-4.8819
X5.4134Y-4.9213
X5.4291Y-6.126
X5.4291Y-6.1654
X5.4291Y-6.2047
X5.4291Y-6.2441
X5.437Y-5.063
X5.4449Y-5.3898
X5.4449Y-5.4291
X5.4488Y-4.1732
X5.4488Y-4.2126
X5.4488Y-4.252
X5.4488Y-4.2913
X5.4488Y-4.3307
X5.4488Y-4.3701
X5.4488Y-4.4094
X5.4488Y-4.4488
X5.4488Y-4.4882
X5.4488Y-4.5276
X5.4488Y-4.5669
X5.4488Y-4.6063
X5.4528Y-4.6457
X5.4528Y-4.685
X5.4528Y-4.7244
X5.4528Y-4.7638
X5.4528Y-4.8031
X5.4528Y-4.8425
X5.4528Y-4.8819
X5.4528Y-4.9213
X5.4646Y-5.063
X5.4693Y-5.1945
X5.4736Y-5.2717
X5.4764Y-3.7559
X5.4764Y-3.7953
X5.4764Y-3.8346
X5.4764Y-3.874
X5.4764Y-3.9134
X5.4764Y-3.9528
X5.4764Y-3.9921
X5.4764Y-4.0315
X5.4882Y-4.1732
X5.4882Y-4.2126
X5.4882Y-4.252
X5.4882Y-4.2913
X5.4882Y-4.3307
X5.4882Y-4.3701
X5.4882Y-4.4094
X5.4882Y-4.4488
X5.4882Y-4.4882
X5.4882Y-4.5276
X5.4882Y-4.5669
X5.4882Y-4.6063
X5.4921Y-4.6457
X5.4921Y-4.685
X5.4921Y-4.7244
X5.4921Y-4.7638
X5.4921Y-4.8031
X5.4921Y-4.8425
X5.4921Y-4.8819
X5.4921Y-4.9213
X5.5118Y-3.7559
X5.5118Y-3.7953
X5.5118Y-3.8346
X5.5118Y-3.874
X5.5118Y-3.9134
X5.5118Y-3.9528
X5.5118Y-3.9921
X5.5118Y-4.0315
X5.5551Y-3.5591
X5.5551Y-3.5984
X5.5551Y-3.6378
X5.5551Y-3.6772
X5.5551Y-3.7165
X5.5551Y-3.7559
X5.5551Y-3.7953
X5.5551Y-3.8346
X5.5551Y-3.874
X5.5551Y-3.9134
X5.5551Y-3.9528
X5.5551Y-3.9921
X5.5551Y-4.0315
X5.5906Y-3.5591
X5.5906Y-3.5984
X5.5906Y-3.6378
X5.5906Y-3.6772
X5.5906Y-3.7165
X5.5906Y-3.7559
X5.5906Y-3.7953
X5.5906Y-3.8346
X5.5906Y-3.874
X5.5906Y-3.9134
X5.5906Y-3.9528
X5.5906Y-3.9921
X5.5906Y-4.0315
X5.6319Y-3.874
X5.6319Y-3.9134
X5.6319Y-3.9528
X5.6319Y-3.9921
X5.6319Y-4.0315
X5.6339Y-3.3622
X5.6339Y-3.4016
X5.6339Y-3.4409
X5.6339Y-3.4803
X5.6339Y-3.5197
X5.6339Y-3.5591
X5.6339Y-3.5984
X5.6339Y-3.6378
X5.6339Y-3.6772
X5.6339Y-3.7165
X5.6339Y-3.7559
X5.6339Y-3.7953
X5.6339Y-3.8346
X5.6673Y-3.874
X5.6673Y-3.9134
X5.6673Y-3.9528
X5.6673Y-3.9921
X5.6673Y-4.0315
X5.6693Y-3.3622
X5.6693Y-3.4016
X5.6693Y-3.4409
X5.6693Y-3.4803
X5.6693Y-3.5197
X5.6693Y-3.5591
X5.6693Y-3.5984
X5.6693Y-3.6378
X5.6693Y-3.6772
X5.6693Y-3.7165
X5.6693Y-3.7559
X5.6693Y-3.7953
X5.6693Y-3.8346
T2
X1.8858Y-4.7232
X1.8858Y-4.9594
X1.9843Y-4.7232
X1.9843Y-4.9594
X2.0827Y-4.7232
X2.0827Y-4.9594
T3
X1.9213Y-2.7376
X1.9213Y-2.8376
X1.9213Y-5.2008
X1.9213Y-5.3008
X2.2122Y-3.0157
X2.3122Y-3.0157
X2.4122Y-3.0157
X2.5122Y-3.0157
X2.5591Y-2.6772
X2.6136Y-2.5654
X2.6681Y-2.6772
X2.7226Y-2.5654
X2.7772Y-2.6772
X2.8317Y-2.5654
X2.8862Y-2.6772
X2.9407Y-2.5654
X2.9953Y-2.6772
X3.0748Y-4.6348
X3.0748Y-4.7348
X3.4803Y-4.6348
X3.4803Y-4.7348
X3.7465Y-3.0955
X3.8465Y-3.0955
X3.9465Y-3.0955
X4.0126Y-3.8898
X4.0126Y-3.9898
X4.1126Y-3.8898
X4.1126Y-3.9898
X4.2126Y-3.8898
X4.2126Y-3.9898
X4.485Y-2.6772
X4.5079Y-3.7913
X4.5079Y-3.8913
X4.5079Y-3.9913
X4.5396Y-2.5654
X4.5941Y-2.6772
X4.6486Y-2.5654
X4.7031Y-2.6772
X4.7577Y-2.5654
X4.8122Y-2.6772
X4.8667Y-2.5654
X4.9213Y-2.6772
T4
X3.0917Y-3.8248
X3.0917Y-4.002
X3.3476Y-3.8248
X3.3476Y-4.002
T5
X5.5236Y-3.1496
T6
X1.9291Y-4.2512
X1.9291Y-4.4512
X2.5559Y-6.1398
X2.7559Y-6.1398
X3.6386Y-6.1398
X3.6417Y-2.5197
X3.8386Y-6.1398
X3.8417Y-2.5197
X4.7213Y-6.1398
X4.9213Y-6.1398
T7
X5.4236Y-3.0496
X5.4236Y-3.2496
X5.6236Y-3.0496
X5.6236Y-3.2496
T8
X2.285Y-2.6654
X3.2693Y-2.6654
X4.211Y-2.6654
X5.1953Y-2.6654
M30
