%TF.GenerationSoftware,KiCad,Pcbnew,8.0.3*%
%TF.CreationDate,2025-01-01T00:29:54+08:00*%
%TF.ProjectId,Explorer,4578706c-6f72-4657-922e-6b696361645f,rev?*%
%TF.SameCoordinates,Original*%
%TF.FileFunction,Legend,Bot*%
%TF.FilePolarity,Positive*%
%FSLAX46Y46*%
G04 Gerber Fmt 4.6, Leading zero omitted, Abs format (unit mm)*
G04 Created by KiCad (PCBNEW 8.0.3) date 2025-01-01 00:29:54*
%MOMM*%
%LPD*%
G01*
G04 APERTURE LIST*
%ADD10C,0.150000*%
%ADD11C,0.120000*%
G04 APERTURE END LIST*
D10*
X63695714Y-78447628D02*
X63724286Y-78476200D01*
X63724286Y-78476200D02*
X63810000Y-78504771D01*
X63810000Y-78504771D02*
X63867143Y-78504771D01*
X63867143Y-78504771D02*
X63952857Y-78476200D01*
X63952857Y-78476200D02*
X64010000Y-78419057D01*
X64010000Y-78419057D02*
X64038571Y-78361914D01*
X64038571Y-78361914D02*
X64067143Y-78247628D01*
X64067143Y-78247628D02*
X64067143Y-78161914D01*
X64067143Y-78161914D02*
X64038571Y-78047628D01*
X64038571Y-78047628D02*
X64010000Y-77990485D01*
X64010000Y-77990485D02*
X63952857Y-77933342D01*
X63952857Y-77933342D02*
X63867143Y-77904771D01*
X63867143Y-77904771D02*
X63810000Y-77904771D01*
X63810000Y-77904771D02*
X63724286Y-77933342D01*
X63724286Y-77933342D02*
X63695714Y-77961914D01*
X63495714Y-77904771D02*
X63124286Y-77904771D01*
X63124286Y-77904771D02*
X63324286Y-78133342D01*
X63324286Y-78133342D02*
X63238571Y-78133342D01*
X63238571Y-78133342D02*
X63181429Y-78161914D01*
X63181429Y-78161914D02*
X63152857Y-78190485D01*
X63152857Y-78190485D02*
X63124286Y-78247628D01*
X63124286Y-78247628D02*
X63124286Y-78390485D01*
X63124286Y-78390485D02*
X63152857Y-78447628D01*
X63152857Y-78447628D02*
X63181429Y-78476200D01*
X63181429Y-78476200D02*
X63238571Y-78504771D01*
X63238571Y-78504771D02*
X63410000Y-78504771D01*
X63410000Y-78504771D02*
X63467143Y-78476200D01*
X63467143Y-78476200D02*
X63495714Y-78447628D01*
X62895714Y-77961914D02*
X62867142Y-77933342D01*
X62867142Y-77933342D02*
X62810000Y-77904771D01*
X62810000Y-77904771D02*
X62667142Y-77904771D01*
X62667142Y-77904771D02*
X62610000Y-77933342D01*
X62610000Y-77933342D02*
X62581428Y-77961914D01*
X62581428Y-77961914D02*
X62552857Y-78019057D01*
X62552857Y-78019057D02*
X62552857Y-78076200D01*
X62552857Y-78076200D02*
X62581428Y-78161914D01*
X62581428Y-78161914D02*
X62924285Y-78504771D01*
X62924285Y-78504771D02*
X62552857Y-78504771D01*
X50185714Y-88669771D02*
X50385714Y-88384057D01*
X50528571Y-88669771D02*
X50528571Y-88069771D01*
X50528571Y-88069771D02*
X50300000Y-88069771D01*
X50300000Y-88069771D02*
X50242857Y-88098342D01*
X50242857Y-88098342D02*
X50214286Y-88126914D01*
X50214286Y-88126914D02*
X50185714Y-88184057D01*
X50185714Y-88184057D02*
X50185714Y-88269771D01*
X50185714Y-88269771D02*
X50214286Y-88326914D01*
X50214286Y-88326914D02*
X50242857Y-88355485D01*
X50242857Y-88355485D02*
X50300000Y-88384057D01*
X50300000Y-88384057D02*
X50528571Y-88384057D01*
X49614286Y-88669771D02*
X49957143Y-88669771D01*
X49785714Y-88669771D02*
X49785714Y-88069771D01*
X49785714Y-88069771D02*
X49842857Y-88155485D01*
X49842857Y-88155485D02*
X49900000Y-88212628D01*
X49900000Y-88212628D02*
X49957143Y-88241200D01*
X49414285Y-88069771D02*
X49042857Y-88069771D01*
X49042857Y-88069771D02*
X49242857Y-88298342D01*
X49242857Y-88298342D02*
X49157142Y-88298342D01*
X49157142Y-88298342D02*
X49100000Y-88326914D01*
X49100000Y-88326914D02*
X49071428Y-88355485D01*
X49071428Y-88355485D02*
X49042857Y-88412628D01*
X49042857Y-88412628D02*
X49042857Y-88555485D01*
X49042857Y-88555485D02*
X49071428Y-88612628D01*
X49071428Y-88612628D02*
X49100000Y-88641200D01*
X49100000Y-88641200D02*
X49157142Y-88669771D01*
X49157142Y-88669771D02*
X49328571Y-88669771D01*
X49328571Y-88669771D02*
X49385714Y-88641200D01*
X49385714Y-88641200D02*
X49414285Y-88612628D01*
X107975714Y-130179771D02*
X108175714Y-129894057D01*
X108318571Y-130179771D02*
X108318571Y-129579771D01*
X108318571Y-129579771D02*
X108090000Y-129579771D01*
X108090000Y-129579771D02*
X108032857Y-129608342D01*
X108032857Y-129608342D02*
X108004286Y-129636914D01*
X108004286Y-129636914D02*
X107975714Y-129694057D01*
X107975714Y-129694057D02*
X107975714Y-129779771D01*
X107975714Y-129779771D02*
X108004286Y-129836914D01*
X108004286Y-129836914D02*
X108032857Y-129865485D01*
X108032857Y-129865485D02*
X108090000Y-129894057D01*
X108090000Y-129894057D02*
X108318571Y-129894057D01*
X107775714Y-129579771D02*
X107375714Y-129579771D01*
X107375714Y-129579771D02*
X107632857Y-130179771D01*
X107204285Y-129579771D02*
X106804285Y-129579771D01*
X106804285Y-129579771D02*
X107061428Y-130179771D01*
X84479999Y-108582628D02*
X84508571Y-108611200D01*
X84508571Y-108611200D02*
X84594285Y-108639771D01*
X84594285Y-108639771D02*
X84651428Y-108639771D01*
X84651428Y-108639771D02*
X84737142Y-108611200D01*
X84737142Y-108611200D02*
X84794285Y-108554057D01*
X84794285Y-108554057D02*
X84822856Y-108496914D01*
X84822856Y-108496914D02*
X84851428Y-108382628D01*
X84851428Y-108382628D02*
X84851428Y-108296914D01*
X84851428Y-108296914D02*
X84822856Y-108182628D01*
X84822856Y-108182628D02*
X84794285Y-108125485D01*
X84794285Y-108125485D02*
X84737142Y-108068342D01*
X84737142Y-108068342D02*
X84651428Y-108039771D01*
X84651428Y-108039771D02*
X84594285Y-108039771D01*
X84594285Y-108039771D02*
X84508571Y-108068342D01*
X84508571Y-108068342D02*
X84479999Y-108096914D01*
X83937142Y-108039771D02*
X84222856Y-108039771D01*
X84222856Y-108039771D02*
X84251428Y-108325485D01*
X84251428Y-108325485D02*
X84222856Y-108296914D01*
X84222856Y-108296914D02*
X84165714Y-108268342D01*
X84165714Y-108268342D02*
X84022856Y-108268342D01*
X84022856Y-108268342D02*
X83965714Y-108296914D01*
X83965714Y-108296914D02*
X83937142Y-108325485D01*
X83937142Y-108325485D02*
X83908571Y-108382628D01*
X83908571Y-108382628D02*
X83908571Y-108525485D01*
X83908571Y-108525485D02*
X83937142Y-108582628D01*
X83937142Y-108582628D02*
X83965714Y-108611200D01*
X83965714Y-108611200D02*
X84022856Y-108639771D01*
X84022856Y-108639771D02*
X84165714Y-108639771D01*
X84165714Y-108639771D02*
X84222856Y-108611200D01*
X84222856Y-108611200D02*
X84251428Y-108582628D01*
X78490714Y-82062628D02*
X78519286Y-82091200D01*
X78519286Y-82091200D02*
X78605000Y-82119771D01*
X78605000Y-82119771D02*
X78662143Y-82119771D01*
X78662143Y-82119771D02*
X78747857Y-82091200D01*
X78747857Y-82091200D02*
X78805000Y-82034057D01*
X78805000Y-82034057D02*
X78833571Y-81976914D01*
X78833571Y-81976914D02*
X78862143Y-81862628D01*
X78862143Y-81862628D02*
X78862143Y-81776914D01*
X78862143Y-81776914D02*
X78833571Y-81662628D01*
X78833571Y-81662628D02*
X78805000Y-81605485D01*
X78805000Y-81605485D02*
X78747857Y-81548342D01*
X78747857Y-81548342D02*
X78662143Y-81519771D01*
X78662143Y-81519771D02*
X78605000Y-81519771D01*
X78605000Y-81519771D02*
X78519286Y-81548342D01*
X78519286Y-81548342D02*
X78490714Y-81576914D01*
X77947857Y-81519771D02*
X78233571Y-81519771D01*
X78233571Y-81519771D02*
X78262143Y-81805485D01*
X78262143Y-81805485D02*
X78233571Y-81776914D01*
X78233571Y-81776914D02*
X78176429Y-81748342D01*
X78176429Y-81748342D02*
X78033571Y-81748342D01*
X78033571Y-81748342D02*
X77976429Y-81776914D01*
X77976429Y-81776914D02*
X77947857Y-81805485D01*
X77947857Y-81805485D02*
X77919286Y-81862628D01*
X77919286Y-81862628D02*
X77919286Y-82005485D01*
X77919286Y-82005485D02*
X77947857Y-82062628D01*
X77947857Y-82062628D02*
X77976429Y-82091200D01*
X77976429Y-82091200D02*
X78033571Y-82119771D01*
X78033571Y-82119771D02*
X78176429Y-82119771D01*
X78176429Y-82119771D02*
X78233571Y-82091200D01*
X78233571Y-82091200D02*
X78262143Y-82062628D01*
X77347857Y-82119771D02*
X77690714Y-82119771D01*
X77519285Y-82119771D02*
X77519285Y-81519771D01*
X77519285Y-81519771D02*
X77576428Y-81605485D01*
X77576428Y-81605485D02*
X77633571Y-81662628D01*
X77633571Y-81662628D02*
X77690714Y-81691200D01*
X51215714Y-78447628D02*
X51244286Y-78476200D01*
X51244286Y-78476200D02*
X51330000Y-78504771D01*
X51330000Y-78504771D02*
X51387143Y-78504771D01*
X51387143Y-78504771D02*
X51472857Y-78476200D01*
X51472857Y-78476200D02*
X51530000Y-78419057D01*
X51530000Y-78419057D02*
X51558571Y-78361914D01*
X51558571Y-78361914D02*
X51587143Y-78247628D01*
X51587143Y-78247628D02*
X51587143Y-78161914D01*
X51587143Y-78161914D02*
X51558571Y-78047628D01*
X51558571Y-78047628D02*
X51530000Y-77990485D01*
X51530000Y-77990485D02*
X51472857Y-77933342D01*
X51472857Y-77933342D02*
X51387143Y-77904771D01*
X51387143Y-77904771D02*
X51330000Y-77904771D01*
X51330000Y-77904771D02*
X51244286Y-77933342D01*
X51244286Y-77933342D02*
X51215714Y-77961914D01*
X50987143Y-77961914D02*
X50958571Y-77933342D01*
X50958571Y-77933342D02*
X50901429Y-77904771D01*
X50901429Y-77904771D02*
X50758571Y-77904771D01*
X50758571Y-77904771D02*
X50701429Y-77933342D01*
X50701429Y-77933342D02*
X50672857Y-77961914D01*
X50672857Y-77961914D02*
X50644286Y-78019057D01*
X50644286Y-78019057D02*
X50644286Y-78076200D01*
X50644286Y-78076200D02*
X50672857Y-78161914D01*
X50672857Y-78161914D02*
X51015714Y-78504771D01*
X51015714Y-78504771D02*
X50644286Y-78504771D01*
X50358571Y-78504771D02*
X50244285Y-78504771D01*
X50244285Y-78504771D02*
X50187142Y-78476200D01*
X50187142Y-78476200D02*
X50158571Y-78447628D01*
X50158571Y-78447628D02*
X50101428Y-78361914D01*
X50101428Y-78361914D02*
X50072857Y-78247628D01*
X50072857Y-78247628D02*
X50072857Y-78019057D01*
X50072857Y-78019057D02*
X50101428Y-77961914D01*
X50101428Y-77961914D02*
X50130000Y-77933342D01*
X50130000Y-77933342D02*
X50187142Y-77904771D01*
X50187142Y-77904771D02*
X50301428Y-77904771D01*
X50301428Y-77904771D02*
X50358571Y-77933342D01*
X50358571Y-77933342D02*
X50387142Y-77961914D01*
X50387142Y-77961914D02*
X50415714Y-78019057D01*
X50415714Y-78019057D02*
X50415714Y-78161914D01*
X50415714Y-78161914D02*
X50387142Y-78219057D01*
X50387142Y-78219057D02*
X50358571Y-78247628D01*
X50358571Y-78247628D02*
X50301428Y-78276200D01*
X50301428Y-78276200D02*
X50187142Y-78276200D01*
X50187142Y-78276200D02*
X50130000Y-78247628D01*
X50130000Y-78247628D02*
X50101428Y-78219057D01*
X50101428Y-78219057D02*
X50072857Y-78161914D01*
X93485714Y-107064771D02*
X93685714Y-106779057D01*
X93828571Y-107064771D02*
X93828571Y-106464771D01*
X93828571Y-106464771D02*
X93600000Y-106464771D01*
X93600000Y-106464771D02*
X93542857Y-106493342D01*
X93542857Y-106493342D02*
X93514286Y-106521914D01*
X93514286Y-106521914D02*
X93485714Y-106579057D01*
X93485714Y-106579057D02*
X93485714Y-106664771D01*
X93485714Y-106664771D02*
X93514286Y-106721914D01*
X93514286Y-106721914D02*
X93542857Y-106750485D01*
X93542857Y-106750485D02*
X93600000Y-106779057D01*
X93600000Y-106779057D02*
X93828571Y-106779057D01*
X93200000Y-107064771D02*
X93085714Y-107064771D01*
X93085714Y-107064771D02*
X93028571Y-107036200D01*
X93028571Y-107036200D02*
X93000000Y-107007628D01*
X93000000Y-107007628D02*
X92942857Y-106921914D01*
X92942857Y-106921914D02*
X92914286Y-106807628D01*
X92914286Y-106807628D02*
X92914286Y-106579057D01*
X92914286Y-106579057D02*
X92942857Y-106521914D01*
X92942857Y-106521914D02*
X92971429Y-106493342D01*
X92971429Y-106493342D02*
X93028571Y-106464771D01*
X93028571Y-106464771D02*
X93142857Y-106464771D01*
X93142857Y-106464771D02*
X93200000Y-106493342D01*
X93200000Y-106493342D02*
X93228571Y-106521914D01*
X93228571Y-106521914D02*
X93257143Y-106579057D01*
X93257143Y-106579057D02*
X93257143Y-106721914D01*
X93257143Y-106721914D02*
X93228571Y-106779057D01*
X93228571Y-106779057D02*
X93200000Y-106807628D01*
X93200000Y-106807628D02*
X93142857Y-106836200D01*
X93142857Y-106836200D02*
X93028571Y-106836200D01*
X93028571Y-106836200D02*
X92971429Y-106807628D01*
X92971429Y-106807628D02*
X92942857Y-106779057D01*
X92942857Y-106779057D02*
X92914286Y-106721914D01*
X92400000Y-106664771D02*
X92400000Y-107064771D01*
X92542857Y-106436200D02*
X92685714Y-106864771D01*
X92685714Y-106864771D02*
X92314285Y-106864771D01*
X69310714Y-93362628D02*
X69339286Y-93391200D01*
X69339286Y-93391200D02*
X69425000Y-93419771D01*
X69425000Y-93419771D02*
X69482143Y-93419771D01*
X69482143Y-93419771D02*
X69567857Y-93391200D01*
X69567857Y-93391200D02*
X69625000Y-93334057D01*
X69625000Y-93334057D02*
X69653571Y-93276914D01*
X69653571Y-93276914D02*
X69682143Y-93162628D01*
X69682143Y-93162628D02*
X69682143Y-93076914D01*
X69682143Y-93076914D02*
X69653571Y-92962628D01*
X69653571Y-92962628D02*
X69625000Y-92905485D01*
X69625000Y-92905485D02*
X69567857Y-92848342D01*
X69567857Y-92848342D02*
X69482143Y-92819771D01*
X69482143Y-92819771D02*
X69425000Y-92819771D01*
X69425000Y-92819771D02*
X69339286Y-92848342D01*
X69339286Y-92848342D02*
X69310714Y-92876914D01*
X69110714Y-92819771D02*
X68739286Y-92819771D01*
X68739286Y-92819771D02*
X68939286Y-93048342D01*
X68939286Y-93048342D02*
X68853571Y-93048342D01*
X68853571Y-93048342D02*
X68796429Y-93076914D01*
X68796429Y-93076914D02*
X68767857Y-93105485D01*
X68767857Y-93105485D02*
X68739286Y-93162628D01*
X68739286Y-93162628D02*
X68739286Y-93305485D01*
X68739286Y-93305485D02*
X68767857Y-93362628D01*
X68767857Y-93362628D02*
X68796429Y-93391200D01*
X68796429Y-93391200D02*
X68853571Y-93419771D01*
X68853571Y-93419771D02*
X69025000Y-93419771D01*
X69025000Y-93419771D02*
X69082143Y-93391200D01*
X69082143Y-93391200D02*
X69110714Y-93362628D01*
X68453571Y-93419771D02*
X68339285Y-93419771D01*
X68339285Y-93419771D02*
X68282142Y-93391200D01*
X68282142Y-93391200D02*
X68253571Y-93362628D01*
X68253571Y-93362628D02*
X68196428Y-93276914D01*
X68196428Y-93276914D02*
X68167857Y-93162628D01*
X68167857Y-93162628D02*
X68167857Y-92934057D01*
X68167857Y-92934057D02*
X68196428Y-92876914D01*
X68196428Y-92876914D02*
X68225000Y-92848342D01*
X68225000Y-92848342D02*
X68282142Y-92819771D01*
X68282142Y-92819771D02*
X68396428Y-92819771D01*
X68396428Y-92819771D02*
X68453571Y-92848342D01*
X68453571Y-92848342D02*
X68482142Y-92876914D01*
X68482142Y-92876914D02*
X68510714Y-92934057D01*
X68510714Y-92934057D02*
X68510714Y-93076914D01*
X68510714Y-93076914D02*
X68482142Y-93134057D01*
X68482142Y-93134057D02*
X68453571Y-93162628D01*
X68453571Y-93162628D02*
X68396428Y-93191200D01*
X68396428Y-93191200D02*
X68282142Y-93191200D01*
X68282142Y-93191200D02*
X68225000Y-93162628D01*
X68225000Y-93162628D02*
X68196428Y-93134057D01*
X68196428Y-93134057D02*
X68167857Y-93076914D01*
X51215714Y-85472628D02*
X51244286Y-85501200D01*
X51244286Y-85501200D02*
X51330000Y-85529771D01*
X51330000Y-85529771D02*
X51387143Y-85529771D01*
X51387143Y-85529771D02*
X51472857Y-85501200D01*
X51472857Y-85501200D02*
X51530000Y-85444057D01*
X51530000Y-85444057D02*
X51558571Y-85386914D01*
X51558571Y-85386914D02*
X51587143Y-85272628D01*
X51587143Y-85272628D02*
X51587143Y-85186914D01*
X51587143Y-85186914D02*
X51558571Y-85072628D01*
X51558571Y-85072628D02*
X51530000Y-85015485D01*
X51530000Y-85015485D02*
X51472857Y-84958342D01*
X51472857Y-84958342D02*
X51387143Y-84929771D01*
X51387143Y-84929771D02*
X51330000Y-84929771D01*
X51330000Y-84929771D02*
X51244286Y-84958342D01*
X51244286Y-84958342D02*
X51215714Y-84986914D01*
X51015714Y-84929771D02*
X50644286Y-84929771D01*
X50644286Y-84929771D02*
X50844286Y-85158342D01*
X50844286Y-85158342D02*
X50758571Y-85158342D01*
X50758571Y-85158342D02*
X50701429Y-85186914D01*
X50701429Y-85186914D02*
X50672857Y-85215485D01*
X50672857Y-85215485D02*
X50644286Y-85272628D01*
X50644286Y-85272628D02*
X50644286Y-85415485D01*
X50644286Y-85415485D02*
X50672857Y-85472628D01*
X50672857Y-85472628D02*
X50701429Y-85501200D01*
X50701429Y-85501200D02*
X50758571Y-85529771D01*
X50758571Y-85529771D02*
X50930000Y-85529771D01*
X50930000Y-85529771D02*
X50987143Y-85501200D01*
X50987143Y-85501200D02*
X51015714Y-85472628D01*
X50272857Y-84929771D02*
X50215714Y-84929771D01*
X50215714Y-84929771D02*
X50158571Y-84958342D01*
X50158571Y-84958342D02*
X50130000Y-84986914D01*
X50130000Y-84986914D02*
X50101428Y-85044057D01*
X50101428Y-85044057D02*
X50072857Y-85158342D01*
X50072857Y-85158342D02*
X50072857Y-85301200D01*
X50072857Y-85301200D02*
X50101428Y-85415485D01*
X50101428Y-85415485D02*
X50130000Y-85472628D01*
X50130000Y-85472628D02*
X50158571Y-85501200D01*
X50158571Y-85501200D02*
X50215714Y-85529771D01*
X50215714Y-85529771D02*
X50272857Y-85529771D01*
X50272857Y-85529771D02*
X50330000Y-85501200D01*
X50330000Y-85501200D02*
X50358571Y-85472628D01*
X50358571Y-85472628D02*
X50387142Y-85415485D01*
X50387142Y-85415485D02*
X50415714Y-85301200D01*
X50415714Y-85301200D02*
X50415714Y-85158342D01*
X50415714Y-85158342D02*
X50387142Y-85044057D01*
X50387142Y-85044057D02*
X50358571Y-84986914D01*
X50358571Y-84986914D02*
X50330000Y-84958342D01*
X50330000Y-84958342D02*
X50272857Y-84929771D01*
X79629999Y-122919771D02*
X79829999Y-122634057D01*
X79972856Y-122919771D02*
X79972856Y-122319771D01*
X79972856Y-122319771D02*
X79744285Y-122319771D01*
X79744285Y-122319771D02*
X79687142Y-122348342D01*
X79687142Y-122348342D02*
X79658571Y-122376914D01*
X79658571Y-122376914D02*
X79629999Y-122434057D01*
X79629999Y-122434057D02*
X79629999Y-122519771D01*
X79629999Y-122519771D02*
X79658571Y-122576914D01*
X79658571Y-122576914D02*
X79687142Y-122605485D01*
X79687142Y-122605485D02*
X79744285Y-122634057D01*
X79744285Y-122634057D02*
X79972856Y-122634057D01*
X79344285Y-122919771D02*
X79229999Y-122919771D01*
X79229999Y-122919771D02*
X79172856Y-122891200D01*
X79172856Y-122891200D02*
X79144285Y-122862628D01*
X79144285Y-122862628D02*
X79087142Y-122776914D01*
X79087142Y-122776914D02*
X79058571Y-122662628D01*
X79058571Y-122662628D02*
X79058571Y-122434057D01*
X79058571Y-122434057D02*
X79087142Y-122376914D01*
X79087142Y-122376914D02*
X79115714Y-122348342D01*
X79115714Y-122348342D02*
X79172856Y-122319771D01*
X79172856Y-122319771D02*
X79287142Y-122319771D01*
X79287142Y-122319771D02*
X79344285Y-122348342D01*
X79344285Y-122348342D02*
X79372856Y-122376914D01*
X79372856Y-122376914D02*
X79401428Y-122434057D01*
X79401428Y-122434057D02*
X79401428Y-122576914D01*
X79401428Y-122576914D02*
X79372856Y-122634057D01*
X79372856Y-122634057D02*
X79344285Y-122662628D01*
X79344285Y-122662628D02*
X79287142Y-122691200D01*
X79287142Y-122691200D02*
X79172856Y-122691200D01*
X79172856Y-122691200D02*
X79115714Y-122662628D01*
X79115714Y-122662628D02*
X79087142Y-122634057D01*
X79087142Y-122634057D02*
X79058571Y-122576914D01*
X67595714Y-72137628D02*
X67624286Y-72166200D01*
X67624286Y-72166200D02*
X67710000Y-72194771D01*
X67710000Y-72194771D02*
X67767143Y-72194771D01*
X67767143Y-72194771D02*
X67852857Y-72166200D01*
X67852857Y-72166200D02*
X67910000Y-72109057D01*
X67910000Y-72109057D02*
X67938571Y-72051914D01*
X67938571Y-72051914D02*
X67967143Y-71937628D01*
X67967143Y-71937628D02*
X67967143Y-71851914D01*
X67967143Y-71851914D02*
X67938571Y-71737628D01*
X67938571Y-71737628D02*
X67910000Y-71680485D01*
X67910000Y-71680485D02*
X67852857Y-71623342D01*
X67852857Y-71623342D02*
X67767143Y-71594771D01*
X67767143Y-71594771D02*
X67710000Y-71594771D01*
X67710000Y-71594771D02*
X67624286Y-71623342D01*
X67624286Y-71623342D02*
X67595714Y-71651914D01*
X67081429Y-71794771D02*
X67081429Y-72194771D01*
X67224286Y-71566200D02*
X67367143Y-71994771D01*
X67367143Y-71994771D02*
X66995714Y-71994771D01*
X66681428Y-71851914D02*
X66738571Y-71823342D01*
X66738571Y-71823342D02*
X66767142Y-71794771D01*
X66767142Y-71794771D02*
X66795714Y-71737628D01*
X66795714Y-71737628D02*
X66795714Y-71709057D01*
X66795714Y-71709057D02*
X66767142Y-71651914D01*
X66767142Y-71651914D02*
X66738571Y-71623342D01*
X66738571Y-71623342D02*
X66681428Y-71594771D01*
X66681428Y-71594771D02*
X66567142Y-71594771D01*
X66567142Y-71594771D02*
X66510000Y-71623342D01*
X66510000Y-71623342D02*
X66481428Y-71651914D01*
X66481428Y-71651914D02*
X66452857Y-71709057D01*
X66452857Y-71709057D02*
X66452857Y-71737628D01*
X66452857Y-71737628D02*
X66481428Y-71794771D01*
X66481428Y-71794771D02*
X66510000Y-71823342D01*
X66510000Y-71823342D02*
X66567142Y-71851914D01*
X66567142Y-71851914D02*
X66681428Y-71851914D01*
X66681428Y-71851914D02*
X66738571Y-71880485D01*
X66738571Y-71880485D02*
X66767142Y-71909057D01*
X66767142Y-71909057D02*
X66795714Y-71966200D01*
X66795714Y-71966200D02*
X66795714Y-72080485D01*
X66795714Y-72080485D02*
X66767142Y-72137628D01*
X66767142Y-72137628D02*
X66738571Y-72166200D01*
X66738571Y-72166200D02*
X66681428Y-72194771D01*
X66681428Y-72194771D02*
X66567142Y-72194771D01*
X66567142Y-72194771D02*
X66510000Y-72166200D01*
X66510000Y-72166200D02*
X66481428Y-72137628D01*
X66481428Y-72137628D02*
X66452857Y-72080485D01*
X66452857Y-72080485D02*
X66452857Y-71966200D01*
X66452857Y-71966200D02*
X66481428Y-71909057D01*
X66481428Y-71909057D02*
X66510000Y-71880485D01*
X66510000Y-71880485D02*
X66567142Y-71851914D01*
X76195714Y-118632628D02*
X76224286Y-118661200D01*
X76224286Y-118661200D02*
X76310000Y-118689771D01*
X76310000Y-118689771D02*
X76367143Y-118689771D01*
X76367143Y-118689771D02*
X76452857Y-118661200D01*
X76452857Y-118661200D02*
X76510000Y-118604057D01*
X76510000Y-118604057D02*
X76538571Y-118546914D01*
X76538571Y-118546914D02*
X76567143Y-118432628D01*
X76567143Y-118432628D02*
X76567143Y-118346914D01*
X76567143Y-118346914D02*
X76538571Y-118232628D01*
X76538571Y-118232628D02*
X76510000Y-118175485D01*
X76510000Y-118175485D02*
X76452857Y-118118342D01*
X76452857Y-118118342D02*
X76367143Y-118089771D01*
X76367143Y-118089771D02*
X76310000Y-118089771D01*
X76310000Y-118089771D02*
X76224286Y-118118342D01*
X76224286Y-118118342D02*
X76195714Y-118146914D01*
X75624286Y-118689771D02*
X75967143Y-118689771D01*
X75795714Y-118689771D02*
X75795714Y-118089771D01*
X75795714Y-118089771D02*
X75852857Y-118175485D01*
X75852857Y-118175485D02*
X75910000Y-118232628D01*
X75910000Y-118232628D02*
X75967143Y-118261200D01*
X75081428Y-118089771D02*
X75367142Y-118089771D01*
X75367142Y-118089771D02*
X75395714Y-118375485D01*
X75395714Y-118375485D02*
X75367142Y-118346914D01*
X75367142Y-118346914D02*
X75310000Y-118318342D01*
X75310000Y-118318342D02*
X75167142Y-118318342D01*
X75167142Y-118318342D02*
X75110000Y-118346914D01*
X75110000Y-118346914D02*
X75081428Y-118375485D01*
X75081428Y-118375485D02*
X75052857Y-118432628D01*
X75052857Y-118432628D02*
X75052857Y-118575485D01*
X75052857Y-118575485D02*
X75081428Y-118632628D01*
X75081428Y-118632628D02*
X75110000Y-118661200D01*
X75110000Y-118661200D02*
X75167142Y-118689771D01*
X75167142Y-118689771D02*
X75310000Y-118689771D01*
X75310000Y-118689771D02*
X75367142Y-118661200D01*
X75367142Y-118661200D02*
X75395714Y-118632628D01*
X95835714Y-110012628D02*
X95864286Y-110041200D01*
X95864286Y-110041200D02*
X95950000Y-110069771D01*
X95950000Y-110069771D02*
X96007143Y-110069771D01*
X96007143Y-110069771D02*
X96092857Y-110041200D01*
X96092857Y-110041200D02*
X96150000Y-109984057D01*
X96150000Y-109984057D02*
X96178571Y-109926914D01*
X96178571Y-109926914D02*
X96207143Y-109812628D01*
X96207143Y-109812628D02*
X96207143Y-109726914D01*
X96207143Y-109726914D02*
X96178571Y-109612628D01*
X96178571Y-109612628D02*
X96150000Y-109555485D01*
X96150000Y-109555485D02*
X96092857Y-109498342D01*
X96092857Y-109498342D02*
X96007143Y-109469771D01*
X96007143Y-109469771D02*
X95950000Y-109469771D01*
X95950000Y-109469771D02*
X95864286Y-109498342D01*
X95864286Y-109498342D02*
X95835714Y-109526914D01*
X95635714Y-109469771D02*
X95235714Y-109469771D01*
X95235714Y-109469771D02*
X95492857Y-110069771D01*
X94721428Y-109469771D02*
X95007142Y-109469771D01*
X95007142Y-109469771D02*
X95035714Y-109755485D01*
X95035714Y-109755485D02*
X95007142Y-109726914D01*
X95007142Y-109726914D02*
X94950000Y-109698342D01*
X94950000Y-109698342D02*
X94807142Y-109698342D01*
X94807142Y-109698342D02*
X94750000Y-109726914D01*
X94750000Y-109726914D02*
X94721428Y-109755485D01*
X94721428Y-109755485D02*
X94692857Y-109812628D01*
X94692857Y-109812628D02*
X94692857Y-109955485D01*
X94692857Y-109955485D02*
X94721428Y-110012628D01*
X94721428Y-110012628D02*
X94750000Y-110041200D01*
X94750000Y-110041200D02*
X94807142Y-110069771D01*
X94807142Y-110069771D02*
X94950000Y-110069771D01*
X94950000Y-110069771D02*
X95007142Y-110041200D01*
X95007142Y-110041200D02*
X95035714Y-110012628D01*
X95835714Y-108269771D02*
X96035714Y-107984057D01*
X96178571Y-108269771D02*
X96178571Y-107669771D01*
X96178571Y-107669771D02*
X95950000Y-107669771D01*
X95950000Y-107669771D02*
X95892857Y-107698342D01*
X95892857Y-107698342D02*
X95864286Y-107726914D01*
X95864286Y-107726914D02*
X95835714Y-107784057D01*
X95835714Y-107784057D02*
X95835714Y-107869771D01*
X95835714Y-107869771D02*
X95864286Y-107926914D01*
X95864286Y-107926914D02*
X95892857Y-107955485D01*
X95892857Y-107955485D02*
X95950000Y-107984057D01*
X95950000Y-107984057D02*
X96178571Y-107984057D01*
X95550000Y-108269771D02*
X95435714Y-108269771D01*
X95435714Y-108269771D02*
X95378571Y-108241200D01*
X95378571Y-108241200D02*
X95350000Y-108212628D01*
X95350000Y-108212628D02*
X95292857Y-108126914D01*
X95292857Y-108126914D02*
X95264286Y-108012628D01*
X95264286Y-108012628D02*
X95264286Y-107784057D01*
X95264286Y-107784057D02*
X95292857Y-107726914D01*
X95292857Y-107726914D02*
X95321429Y-107698342D01*
X95321429Y-107698342D02*
X95378571Y-107669771D01*
X95378571Y-107669771D02*
X95492857Y-107669771D01*
X95492857Y-107669771D02*
X95550000Y-107698342D01*
X95550000Y-107698342D02*
X95578571Y-107726914D01*
X95578571Y-107726914D02*
X95607143Y-107784057D01*
X95607143Y-107784057D02*
X95607143Y-107926914D01*
X95607143Y-107926914D02*
X95578571Y-107984057D01*
X95578571Y-107984057D02*
X95550000Y-108012628D01*
X95550000Y-108012628D02*
X95492857Y-108041200D01*
X95492857Y-108041200D02*
X95378571Y-108041200D01*
X95378571Y-108041200D02*
X95321429Y-108012628D01*
X95321429Y-108012628D02*
X95292857Y-107984057D01*
X95292857Y-107984057D02*
X95264286Y-107926914D01*
X95064285Y-107669771D02*
X94664285Y-107669771D01*
X94664285Y-107669771D02*
X94921428Y-108269771D01*
X63675714Y-85472628D02*
X63704286Y-85501200D01*
X63704286Y-85501200D02*
X63790000Y-85529771D01*
X63790000Y-85529771D02*
X63847143Y-85529771D01*
X63847143Y-85529771D02*
X63932857Y-85501200D01*
X63932857Y-85501200D02*
X63990000Y-85444057D01*
X63990000Y-85444057D02*
X64018571Y-85386914D01*
X64018571Y-85386914D02*
X64047143Y-85272628D01*
X64047143Y-85272628D02*
X64047143Y-85186914D01*
X64047143Y-85186914D02*
X64018571Y-85072628D01*
X64018571Y-85072628D02*
X63990000Y-85015485D01*
X63990000Y-85015485D02*
X63932857Y-84958342D01*
X63932857Y-84958342D02*
X63847143Y-84929771D01*
X63847143Y-84929771D02*
X63790000Y-84929771D01*
X63790000Y-84929771D02*
X63704286Y-84958342D01*
X63704286Y-84958342D02*
X63675714Y-84986914D01*
X63475714Y-84929771D02*
X63104286Y-84929771D01*
X63104286Y-84929771D02*
X63304286Y-85158342D01*
X63304286Y-85158342D02*
X63218571Y-85158342D01*
X63218571Y-85158342D02*
X63161429Y-85186914D01*
X63161429Y-85186914D02*
X63132857Y-85215485D01*
X63132857Y-85215485D02*
X63104286Y-85272628D01*
X63104286Y-85272628D02*
X63104286Y-85415485D01*
X63104286Y-85415485D02*
X63132857Y-85472628D01*
X63132857Y-85472628D02*
X63161429Y-85501200D01*
X63161429Y-85501200D02*
X63218571Y-85529771D01*
X63218571Y-85529771D02*
X63390000Y-85529771D01*
X63390000Y-85529771D02*
X63447143Y-85501200D01*
X63447143Y-85501200D02*
X63475714Y-85472628D01*
X62532857Y-85529771D02*
X62875714Y-85529771D01*
X62704285Y-85529771D02*
X62704285Y-84929771D01*
X62704285Y-84929771D02*
X62761428Y-85015485D01*
X62761428Y-85015485D02*
X62818571Y-85072628D01*
X62818571Y-85072628D02*
X62875714Y-85101200D01*
X93485714Y-105289771D02*
X93685714Y-105004057D01*
X93828571Y-105289771D02*
X93828571Y-104689771D01*
X93828571Y-104689771D02*
X93600000Y-104689771D01*
X93600000Y-104689771D02*
X93542857Y-104718342D01*
X93542857Y-104718342D02*
X93514286Y-104746914D01*
X93514286Y-104746914D02*
X93485714Y-104804057D01*
X93485714Y-104804057D02*
X93485714Y-104889771D01*
X93485714Y-104889771D02*
X93514286Y-104946914D01*
X93514286Y-104946914D02*
X93542857Y-104975485D01*
X93542857Y-104975485D02*
X93600000Y-105004057D01*
X93600000Y-105004057D02*
X93828571Y-105004057D01*
X93200000Y-105289771D02*
X93085714Y-105289771D01*
X93085714Y-105289771D02*
X93028571Y-105261200D01*
X93028571Y-105261200D02*
X93000000Y-105232628D01*
X93000000Y-105232628D02*
X92942857Y-105146914D01*
X92942857Y-105146914D02*
X92914286Y-105032628D01*
X92914286Y-105032628D02*
X92914286Y-104804057D01*
X92914286Y-104804057D02*
X92942857Y-104746914D01*
X92942857Y-104746914D02*
X92971429Y-104718342D01*
X92971429Y-104718342D02*
X93028571Y-104689771D01*
X93028571Y-104689771D02*
X93142857Y-104689771D01*
X93142857Y-104689771D02*
X93200000Y-104718342D01*
X93200000Y-104718342D02*
X93228571Y-104746914D01*
X93228571Y-104746914D02*
X93257143Y-104804057D01*
X93257143Y-104804057D02*
X93257143Y-104946914D01*
X93257143Y-104946914D02*
X93228571Y-105004057D01*
X93228571Y-105004057D02*
X93200000Y-105032628D01*
X93200000Y-105032628D02*
X93142857Y-105061200D01*
X93142857Y-105061200D02*
X93028571Y-105061200D01*
X93028571Y-105061200D02*
X92971429Y-105032628D01*
X92971429Y-105032628D02*
X92942857Y-105004057D01*
X92942857Y-105004057D02*
X92914286Y-104946914D01*
X92714285Y-104689771D02*
X92342857Y-104689771D01*
X92342857Y-104689771D02*
X92542857Y-104918342D01*
X92542857Y-104918342D02*
X92457142Y-104918342D01*
X92457142Y-104918342D02*
X92400000Y-104946914D01*
X92400000Y-104946914D02*
X92371428Y-104975485D01*
X92371428Y-104975485D02*
X92342857Y-105032628D01*
X92342857Y-105032628D02*
X92342857Y-105175485D01*
X92342857Y-105175485D02*
X92371428Y-105232628D01*
X92371428Y-105232628D02*
X92400000Y-105261200D01*
X92400000Y-105261200D02*
X92457142Y-105289771D01*
X92457142Y-105289771D02*
X92628571Y-105289771D01*
X92628571Y-105289771D02*
X92685714Y-105261200D01*
X92685714Y-105261200D02*
X92714285Y-105232628D01*
X69310714Y-96819771D02*
X69510714Y-96534057D01*
X69653571Y-96819771D02*
X69653571Y-96219771D01*
X69653571Y-96219771D02*
X69425000Y-96219771D01*
X69425000Y-96219771D02*
X69367857Y-96248342D01*
X69367857Y-96248342D02*
X69339286Y-96276914D01*
X69339286Y-96276914D02*
X69310714Y-96334057D01*
X69310714Y-96334057D02*
X69310714Y-96419771D01*
X69310714Y-96419771D02*
X69339286Y-96476914D01*
X69339286Y-96476914D02*
X69367857Y-96505485D01*
X69367857Y-96505485D02*
X69425000Y-96534057D01*
X69425000Y-96534057D02*
X69653571Y-96534057D01*
X69082143Y-96276914D02*
X69053571Y-96248342D01*
X69053571Y-96248342D02*
X68996429Y-96219771D01*
X68996429Y-96219771D02*
X68853571Y-96219771D01*
X68853571Y-96219771D02*
X68796429Y-96248342D01*
X68796429Y-96248342D02*
X68767857Y-96276914D01*
X68767857Y-96276914D02*
X68739286Y-96334057D01*
X68739286Y-96334057D02*
X68739286Y-96391200D01*
X68739286Y-96391200D02*
X68767857Y-96476914D01*
X68767857Y-96476914D02*
X69110714Y-96819771D01*
X69110714Y-96819771D02*
X68739286Y-96819771D01*
X68539285Y-96219771D02*
X68167857Y-96219771D01*
X68167857Y-96219771D02*
X68367857Y-96448342D01*
X68367857Y-96448342D02*
X68282142Y-96448342D01*
X68282142Y-96448342D02*
X68225000Y-96476914D01*
X68225000Y-96476914D02*
X68196428Y-96505485D01*
X68196428Y-96505485D02*
X68167857Y-96562628D01*
X68167857Y-96562628D02*
X68167857Y-96705485D01*
X68167857Y-96705485D02*
X68196428Y-96762628D01*
X68196428Y-96762628D02*
X68225000Y-96791200D01*
X68225000Y-96791200D02*
X68282142Y-96819771D01*
X68282142Y-96819771D02*
X68453571Y-96819771D01*
X68453571Y-96819771D02*
X68510714Y-96791200D01*
X68510714Y-96791200D02*
X68539285Y-96762628D01*
X82597143Y-120121771D02*
X82254286Y-120121771D01*
X82425714Y-120721771D02*
X82425714Y-120121771D01*
X82054285Y-120721771D02*
X82054285Y-120121771D01*
X82054285Y-120121771D02*
X81825714Y-120121771D01*
X81825714Y-120121771D02*
X81768571Y-120150342D01*
X81768571Y-120150342D02*
X81740000Y-120178914D01*
X81740000Y-120178914D02*
X81711428Y-120236057D01*
X81711428Y-120236057D02*
X81711428Y-120321771D01*
X81711428Y-120321771D02*
X81740000Y-120378914D01*
X81740000Y-120378914D02*
X81768571Y-120407485D01*
X81768571Y-120407485D02*
X81825714Y-120436057D01*
X81825714Y-120436057D02*
X82054285Y-120436057D01*
X81511428Y-120121771D02*
X81140000Y-120121771D01*
X81140000Y-120121771D02*
X81340000Y-120350342D01*
X81340000Y-120350342D02*
X81254285Y-120350342D01*
X81254285Y-120350342D02*
X81197143Y-120378914D01*
X81197143Y-120378914D02*
X81168571Y-120407485D01*
X81168571Y-120407485D02*
X81140000Y-120464628D01*
X81140000Y-120464628D02*
X81140000Y-120607485D01*
X81140000Y-120607485D02*
X81168571Y-120664628D01*
X81168571Y-120664628D02*
X81197143Y-120693200D01*
X81197143Y-120693200D02*
X81254285Y-120721771D01*
X81254285Y-120721771D02*
X81425714Y-120721771D01*
X81425714Y-120721771D02*
X81482857Y-120693200D01*
X81482857Y-120693200D02*
X81511428Y-120664628D01*
X59445714Y-128002628D02*
X59474286Y-128031200D01*
X59474286Y-128031200D02*
X59560000Y-128059771D01*
X59560000Y-128059771D02*
X59617143Y-128059771D01*
X59617143Y-128059771D02*
X59702857Y-128031200D01*
X59702857Y-128031200D02*
X59760000Y-127974057D01*
X59760000Y-127974057D02*
X59788571Y-127916914D01*
X59788571Y-127916914D02*
X59817143Y-127802628D01*
X59817143Y-127802628D02*
X59817143Y-127716914D01*
X59817143Y-127716914D02*
X59788571Y-127602628D01*
X59788571Y-127602628D02*
X59760000Y-127545485D01*
X59760000Y-127545485D02*
X59702857Y-127488342D01*
X59702857Y-127488342D02*
X59617143Y-127459771D01*
X59617143Y-127459771D02*
X59560000Y-127459771D01*
X59560000Y-127459771D02*
X59474286Y-127488342D01*
X59474286Y-127488342D02*
X59445714Y-127516914D01*
X59217143Y-127516914D02*
X59188571Y-127488342D01*
X59188571Y-127488342D02*
X59131429Y-127459771D01*
X59131429Y-127459771D02*
X58988571Y-127459771D01*
X58988571Y-127459771D02*
X58931429Y-127488342D01*
X58931429Y-127488342D02*
X58902857Y-127516914D01*
X58902857Y-127516914D02*
X58874286Y-127574057D01*
X58874286Y-127574057D02*
X58874286Y-127631200D01*
X58874286Y-127631200D02*
X58902857Y-127716914D01*
X58902857Y-127716914D02*
X59245714Y-128059771D01*
X59245714Y-128059771D02*
X58874286Y-128059771D01*
X58674285Y-127459771D02*
X58274285Y-127459771D01*
X58274285Y-127459771D02*
X58531428Y-128059771D01*
X111428571Y-72119771D02*
X111428571Y-71519771D01*
X111428571Y-71519771D02*
X111285714Y-71519771D01*
X111285714Y-71519771D02*
X111200000Y-71548342D01*
X111200000Y-71548342D02*
X111142857Y-71605485D01*
X111142857Y-71605485D02*
X111114286Y-71662628D01*
X111114286Y-71662628D02*
X111085714Y-71776914D01*
X111085714Y-71776914D02*
X111085714Y-71862628D01*
X111085714Y-71862628D02*
X111114286Y-71976914D01*
X111114286Y-71976914D02*
X111142857Y-72034057D01*
X111142857Y-72034057D02*
X111200000Y-72091200D01*
X111200000Y-72091200D02*
X111285714Y-72119771D01*
X111285714Y-72119771D02*
X111428571Y-72119771D01*
X110514286Y-72119771D02*
X110857143Y-72119771D01*
X110685714Y-72119771D02*
X110685714Y-71519771D01*
X110685714Y-71519771D02*
X110742857Y-71605485D01*
X110742857Y-71605485D02*
X110800000Y-71662628D01*
X110800000Y-71662628D02*
X110857143Y-71691200D01*
X110171428Y-71776914D02*
X110228571Y-71748342D01*
X110228571Y-71748342D02*
X110257142Y-71719771D01*
X110257142Y-71719771D02*
X110285714Y-71662628D01*
X110285714Y-71662628D02*
X110285714Y-71634057D01*
X110285714Y-71634057D02*
X110257142Y-71576914D01*
X110257142Y-71576914D02*
X110228571Y-71548342D01*
X110228571Y-71548342D02*
X110171428Y-71519771D01*
X110171428Y-71519771D02*
X110057142Y-71519771D01*
X110057142Y-71519771D02*
X110000000Y-71548342D01*
X110000000Y-71548342D02*
X109971428Y-71576914D01*
X109971428Y-71576914D02*
X109942857Y-71634057D01*
X109942857Y-71634057D02*
X109942857Y-71662628D01*
X109942857Y-71662628D02*
X109971428Y-71719771D01*
X109971428Y-71719771D02*
X110000000Y-71748342D01*
X110000000Y-71748342D02*
X110057142Y-71776914D01*
X110057142Y-71776914D02*
X110171428Y-71776914D01*
X110171428Y-71776914D02*
X110228571Y-71805485D01*
X110228571Y-71805485D02*
X110257142Y-71834057D01*
X110257142Y-71834057D02*
X110285714Y-71891200D01*
X110285714Y-71891200D02*
X110285714Y-72005485D01*
X110285714Y-72005485D02*
X110257142Y-72062628D01*
X110257142Y-72062628D02*
X110228571Y-72091200D01*
X110228571Y-72091200D02*
X110171428Y-72119771D01*
X110171428Y-72119771D02*
X110057142Y-72119771D01*
X110057142Y-72119771D02*
X110000000Y-72091200D01*
X110000000Y-72091200D02*
X109971428Y-72062628D01*
X109971428Y-72062628D02*
X109942857Y-72005485D01*
X109942857Y-72005485D02*
X109942857Y-71891200D01*
X109942857Y-71891200D02*
X109971428Y-71834057D01*
X109971428Y-71834057D02*
X110000000Y-71805485D01*
X110000000Y-71805485D02*
X110057142Y-71776914D01*
X59957143Y-97121771D02*
X59614286Y-97121771D01*
X59785714Y-97721771D02*
X59785714Y-97121771D01*
X59414285Y-97721771D02*
X59414285Y-97121771D01*
X59414285Y-97121771D02*
X59185714Y-97121771D01*
X59185714Y-97121771D02*
X59128571Y-97150342D01*
X59128571Y-97150342D02*
X59100000Y-97178914D01*
X59100000Y-97178914D02*
X59071428Y-97236057D01*
X59071428Y-97236057D02*
X59071428Y-97321771D01*
X59071428Y-97321771D02*
X59100000Y-97378914D01*
X59100000Y-97378914D02*
X59128571Y-97407485D01*
X59128571Y-97407485D02*
X59185714Y-97436057D01*
X59185714Y-97436057D02*
X59414285Y-97436057D01*
X58528571Y-97121771D02*
X58814285Y-97121771D01*
X58814285Y-97121771D02*
X58842857Y-97407485D01*
X58842857Y-97407485D02*
X58814285Y-97378914D01*
X58814285Y-97378914D02*
X58757143Y-97350342D01*
X58757143Y-97350342D02*
X58614285Y-97350342D01*
X58614285Y-97350342D02*
X58557143Y-97378914D01*
X58557143Y-97378914D02*
X58528571Y-97407485D01*
X58528571Y-97407485D02*
X58500000Y-97464628D01*
X58500000Y-97464628D02*
X58500000Y-97607485D01*
X58500000Y-97607485D02*
X58528571Y-97664628D01*
X58528571Y-97664628D02*
X58557143Y-97693200D01*
X58557143Y-97693200D02*
X58614285Y-97721771D01*
X58614285Y-97721771D02*
X58757143Y-97721771D01*
X58757143Y-97721771D02*
X58814285Y-97693200D01*
X58814285Y-97693200D02*
X58842857Y-97664628D01*
X107975714Y-132152628D02*
X108004286Y-132181200D01*
X108004286Y-132181200D02*
X108090000Y-132209771D01*
X108090000Y-132209771D02*
X108147143Y-132209771D01*
X108147143Y-132209771D02*
X108232857Y-132181200D01*
X108232857Y-132181200D02*
X108290000Y-132124057D01*
X108290000Y-132124057D02*
X108318571Y-132066914D01*
X108318571Y-132066914D02*
X108347143Y-131952628D01*
X108347143Y-131952628D02*
X108347143Y-131866914D01*
X108347143Y-131866914D02*
X108318571Y-131752628D01*
X108318571Y-131752628D02*
X108290000Y-131695485D01*
X108290000Y-131695485D02*
X108232857Y-131638342D01*
X108232857Y-131638342D02*
X108147143Y-131609771D01*
X108147143Y-131609771D02*
X108090000Y-131609771D01*
X108090000Y-131609771D02*
X108004286Y-131638342D01*
X108004286Y-131638342D02*
X107975714Y-131666914D01*
X107461429Y-131609771D02*
X107575714Y-131609771D01*
X107575714Y-131609771D02*
X107632857Y-131638342D01*
X107632857Y-131638342D02*
X107661429Y-131666914D01*
X107661429Y-131666914D02*
X107718571Y-131752628D01*
X107718571Y-131752628D02*
X107747143Y-131866914D01*
X107747143Y-131866914D02*
X107747143Y-132095485D01*
X107747143Y-132095485D02*
X107718571Y-132152628D01*
X107718571Y-132152628D02*
X107690000Y-132181200D01*
X107690000Y-132181200D02*
X107632857Y-132209771D01*
X107632857Y-132209771D02*
X107518571Y-132209771D01*
X107518571Y-132209771D02*
X107461429Y-132181200D01*
X107461429Y-132181200D02*
X107432857Y-132152628D01*
X107432857Y-132152628D02*
X107404286Y-132095485D01*
X107404286Y-132095485D02*
X107404286Y-131952628D01*
X107404286Y-131952628D02*
X107432857Y-131895485D01*
X107432857Y-131895485D02*
X107461429Y-131866914D01*
X107461429Y-131866914D02*
X107518571Y-131838342D01*
X107518571Y-131838342D02*
X107632857Y-131838342D01*
X107632857Y-131838342D02*
X107690000Y-131866914D01*
X107690000Y-131866914D02*
X107718571Y-131895485D01*
X107718571Y-131895485D02*
X107747143Y-131952628D01*
X107061428Y-131866914D02*
X107118571Y-131838342D01*
X107118571Y-131838342D02*
X107147142Y-131809771D01*
X107147142Y-131809771D02*
X107175714Y-131752628D01*
X107175714Y-131752628D02*
X107175714Y-131724057D01*
X107175714Y-131724057D02*
X107147142Y-131666914D01*
X107147142Y-131666914D02*
X107118571Y-131638342D01*
X107118571Y-131638342D02*
X107061428Y-131609771D01*
X107061428Y-131609771D02*
X106947142Y-131609771D01*
X106947142Y-131609771D02*
X106890000Y-131638342D01*
X106890000Y-131638342D02*
X106861428Y-131666914D01*
X106861428Y-131666914D02*
X106832857Y-131724057D01*
X106832857Y-131724057D02*
X106832857Y-131752628D01*
X106832857Y-131752628D02*
X106861428Y-131809771D01*
X106861428Y-131809771D02*
X106890000Y-131838342D01*
X106890000Y-131838342D02*
X106947142Y-131866914D01*
X106947142Y-131866914D02*
X107061428Y-131866914D01*
X107061428Y-131866914D02*
X107118571Y-131895485D01*
X107118571Y-131895485D02*
X107147142Y-131924057D01*
X107147142Y-131924057D02*
X107175714Y-131981200D01*
X107175714Y-131981200D02*
X107175714Y-132095485D01*
X107175714Y-132095485D02*
X107147142Y-132152628D01*
X107147142Y-132152628D02*
X107118571Y-132181200D01*
X107118571Y-132181200D02*
X107061428Y-132209771D01*
X107061428Y-132209771D02*
X106947142Y-132209771D01*
X106947142Y-132209771D02*
X106890000Y-132181200D01*
X106890000Y-132181200D02*
X106861428Y-132152628D01*
X106861428Y-132152628D02*
X106832857Y-132095485D01*
X106832857Y-132095485D02*
X106832857Y-131981200D01*
X106832857Y-131981200D02*
X106861428Y-131924057D01*
X106861428Y-131924057D02*
X106890000Y-131895485D01*
X106890000Y-131895485D02*
X106947142Y-131866914D01*
X67732143Y-113371771D02*
X67389286Y-113371771D01*
X67560714Y-113971771D02*
X67560714Y-113371771D01*
X67189285Y-113971771D02*
X67189285Y-113371771D01*
X67189285Y-113371771D02*
X66960714Y-113371771D01*
X66960714Y-113371771D02*
X66903571Y-113400342D01*
X66903571Y-113400342D02*
X66875000Y-113428914D01*
X66875000Y-113428914D02*
X66846428Y-113486057D01*
X66846428Y-113486057D02*
X66846428Y-113571771D01*
X66846428Y-113571771D02*
X66875000Y-113628914D01*
X66875000Y-113628914D02*
X66903571Y-113657485D01*
X66903571Y-113657485D02*
X66960714Y-113686057D01*
X66960714Y-113686057D02*
X67189285Y-113686057D01*
X66275000Y-113971771D02*
X66617857Y-113971771D01*
X66446428Y-113971771D02*
X66446428Y-113371771D01*
X66446428Y-113371771D02*
X66503571Y-113457485D01*
X66503571Y-113457485D02*
X66560714Y-113514628D01*
X66560714Y-113514628D02*
X66617857Y-113543200D01*
X49509999Y-95054771D02*
X49709999Y-94769057D01*
X49852856Y-95054771D02*
X49852856Y-94454771D01*
X49852856Y-94454771D02*
X49624285Y-94454771D01*
X49624285Y-94454771D02*
X49567142Y-94483342D01*
X49567142Y-94483342D02*
X49538571Y-94511914D01*
X49538571Y-94511914D02*
X49509999Y-94569057D01*
X49509999Y-94569057D02*
X49509999Y-94654771D01*
X49509999Y-94654771D02*
X49538571Y-94711914D01*
X49538571Y-94711914D02*
X49567142Y-94740485D01*
X49567142Y-94740485D02*
X49624285Y-94769057D01*
X49624285Y-94769057D02*
X49852856Y-94769057D01*
X48995714Y-94654771D02*
X48995714Y-95054771D01*
X49138571Y-94426200D02*
X49281428Y-94854771D01*
X49281428Y-94854771D02*
X48909999Y-94854771D01*
X69310714Y-98462628D02*
X69339286Y-98491200D01*
X69339286Y-98491200D02*
X69425000Y-98519771D01*
X69425000Y-98519771D02*
X69482143Y-98519771D01*
X69482143Y-98519771D02*
X69567857Y-98491200D01*
X69567857Y-98491200D02*
X69625000Y-98434057D01*
X69625000Y-98434057D02*
X69653571Y-98376914D01*
X69653571Y-98376914D02*
X69682143Y-98262628D01*
X69682143Y-98262628D02*
X69682143Y-98176914D01*
X69682143Y-98176914D02*
X69653571Y-98062628D01*
X69653571Y-98062628D02*
X69625000Y-98005485D01*
X69625000Y-98005485D02*
X69567857Y-97948342D01*
X69567857Y-97948342D02*
X69482143Y-97919771D01*
X69482143Y-97919771D02*
X69425000Y-97919771D01*
X69425000Y-97919771D02*
X69339286Y-97948342D01*
X69339286Y-97948342D02*
X69310714Y-97976914D01*
X68796429Y-98119771D02*
X68796429Y-98519771D01*
X68939286Y-97891200D02*
X69082143Y-98319771D01*
X69082143Y-98319771D02*
X68710714Y-98319771D01*
X68510714Y-97976914D02*
X68482142Y-97948342D01*
X68482142Y-97948342D02*
X68425000Y-97919771D01*
X68425000Y-97919771D02*
X68282142Y-97919771D01*
X68282142Y-97919771D02*
X68225000Y-97948342D01*
X68225000Y-97948342D02*
X68196428Y-97976914D01*
X68196428Y-97976914D02*
X68167857Y-98034057D01*
X68167857Y-98034057D02*
X68167857Y-98091200D01*
X68167857Y-98091200D02*
X68196428Y-98176914D01*
X68196428Y-98176914D02*
X68539285Y-98519771D01*
X68539285Y-98519771D02*
X68167857Y-98519771D01*
X55099999Y-99797628D02*
X55128571Y-99826200D01*
X55128571Y-99826200D02*
X55214285Y-99854771D01*
X55214285Y-99854771D02*
X55271428Y-99854771D01*
X55271428Y-99854771D02*
X55357142Y-99826200D01*
X55357142Y-99826200D02*
X55414285Y-99769057D01*
X55414285Y-99769057D02*
X55442856Y-99711914D01*
X55442856Y-99711914D02*
X55471428Y-99597628D01*
X55471428Y-99597628D02*
X55471428Y-99511914D01*
X55471428Y-99511914D02*
X55442856Y-99397628D01*
X55442856Y-99397628D02*
X55414285Y-99340485D01*
X55414285Y-99340485D02*
X55357142Y-99283342D01*
X55357142Y-99283342D02*
X55271428Y-99254771D01*
X55271428Y-99254771D02*
X55214285Y-99254771D01*
X55214285Y-99254771D02*
X55128571Y-99283342D01*
X55128571Y-99283342D02*
X55099999Y-99311914D01*
X54757142Y-99511914D02*
X54814285Y-99483342D01*
X54814285Y-99483342D02*
X54842856Y-99454771D01*
X54842856Y-99454771D02*
X54871428Y-99397628D01*
X54871428Y-99397628D02*
X54871428Y-99369057D01*
X54871428Y-99369057D02*
X54842856Y-99311914D01*
X54842856Y-99311914D02*
X54814285Y-99283342D01*
X54814285Y-99283342D02*
X54757142Y-99254771D01*
X54757142Y-99254771D02*
X54642856Y-99254771D01*
X54642856Y-99254771D02*
X54585714Y-99283342D01*
X54585714Y-99283342D02*
X54557142Y-99311914D01*
X54557142Y-99311914D02*
X54528571Y-99369057D01*
X54528571Y-99369057D02*
X54528571Y-99397628D01*
X54528571Y-99397628D02*
X54557142Y-99454771D01*
X54557142Y-99454771D02*
X54585714Y-99483342D01*
X54585714Y-99483342D02*
X54642856Y-99511914D01*
X54642856Y-99511914D02*
X54757142Y-99511914D01*
X54757142Y-99511914D02*
X54814285Y-99540485D01*
X54814285Y-99540485D02*
X54842856Y-99569057D01*
X54842856Y-99569057D02*
X54871428Y-99626200D01*
X54871428Y-99626200D02*
X54871428Y-99740485D01*
X54871428Y-99740485D02*
X54842856Y-99797628D01*
X54842856Y-99797628D02*
X54814285Y-99826200D01*
X54814285Y-99826200D02*
X54757142Y-99854771D01*
X54757142Y-99854771D02*
X54642856Y-99854771D01*
X54642856Y-99854771D02*
X54585714Y-99826200D01*
X54585714Y-99826200D02*
X54557142Y-99797628D01*
X54557142Y-99797628D02*
X54528571Y-99740485D01*
X54528571Y-99740485D02*
X54528571Y-99626200D01*
X54528571Y-99626200D02*
X54557142Y-99569057D01*
X54557142Y-99569057D02*
X54585714Y-99540485D01*
X54585714Y-99540485D02*
X54642856Y-99511914D01*
X57485714Y-104569771D02*
X57685714Y-104284057D01*
X57828571Y-104569771D02*
X57828571Y-103969771D01*
X57828571Y-103969771D02*
X57600000Y-103969771D01*
X57600000Y-103969771D02*
X57542857Y-103998342D01*
X57542857Y-103998342D02*
X57514286Y-104026914D01*
X57514286Y-104026914D02*
X57485714Y-104084057D01*
X57485714Y-104084057D02*
X57485714Y-104169771D01*
X57485714Y-104169771D02*
X57514286Y-104226914D01*
X57514286Y-104226914D02*
X57542857Y-104255485D01*
X57542857Y-104255485D02*
X57600000Y-104284057D01*
X57600000Y-104284057D02*
X57828571Y-104284057D01*
X56914286Y-104569771D02*
X57257143Y-104569771D01*
X57085714Y-104569771D02*
X57085714Y-103969771D01*
X57085714Y-103969771D02*
X57142857Y-104055485D01*
X57142857Y-104055485D02*
X57200000Y-104112628D01*
X57200000Y-104112628D02*
X57257143Y-104141200D01*
X56400000Y-104169771D02*
X56400000Y-104569771D01*
X56542857Y-103941200D02*
X56685714Y-104369771D01*
X56685714Y-104369771D02*
X56314285Y-104369771D01*
X118507143Y-95741771D02*
X118164286Y-95741771D01*
X118335714Y-96341771D02*
X118335714Y-95741771D01*
X117964285Y-96341771D02*
X117964285Y-95741771D01*
X117964285Y-95741771D02*
X117735714Y-95741771D01*
X117735714Y-95741771D02*
X117678571Y-95770342D01*
X117678571Y-95770342D02*
X117650000Y-95798914D01*
X117650000Y-95798914D02*
X117621428Y-95856057D01*
X117621428Y-95856057D02*
X117621428Y-95941771D01*
X117621428Y-95941771D02*
X117650000Y-95998914D01*
X117650000Y-95998914D02*
X117678571Y-96027485D01*
X117678571Y-96027485D02*
X117735714Y-96056057D01*
X117735714Y-96056057D02*
X117964285Y-96056057D01*
X117421428Y-95741771D02*
X117021428Y-95741771D01*
X117021428Y-95741771D02*
X117278571Y-96341771D01*
X115535714Y-81399771D02*
X115735714Y-81114057D01*
X115878571Y-81399771D02*
X115878571Y-80799771D01*
X115878571Y-80799771D02*
X115650000Y-80799771D01*
X115650000Y-80799771D02*
X115592857Y-80828342D01*
X115592857Y-80828342D02*
X115564286Y-80856914D01*
X115564286Y-80856914D02*
X115535714Y-80914057D01*
X115535714Y-80914057D02*
X115535714Y-80999771D01*
X115535714Y-80999771D02*
X115564286Y-81056914D01*
X115564286Y-81056914D02*
X115592857Y-81085485D01*
X115592857Y-81085485D02*
X115650000Y-81114057D01*
X115650000Y-81114057D02*
X115878571Y-81114057D01*
X115335714Y-80799771D02*
X114964286Y-80799771D01*
X114964286Y-80799771D02*
X115164286Y-81028342D01*
X115164286Y-81028342D02*
X115078571Y-81028342D01*
X115078571Y-81028342D02*
X115021429Y-81056914D01*
X115021429Y-81056914D02*
X114992857Y-81085485D01*
X114992857Y-81085485D02*
X114964286Y-81142628D01*
X114964286Y-81142628D02*
X114964286Y-81285485D01*
X114964286Y-81285485D02*
X114992857Y-81342628D01*
X114992857Y-81342628D02*
X115021429Y-81371200D01*
X115021429Y-81371200D02*
X115078571Y-81399771D01*
X115078571Y-81399771D02*
X115250000Y-81399771D01*
X115250000Y-81399771D02*
X115307143Y-81371200D01*
X115307143Y-81371200D02*
X115335714Y-81342628D01*
X114421428Y-80799771D02*
X114707142Y-80799771D01*
X114707142Y-80799771D02*
X114735714Y-81085485D01*
X114735714Y-81085485D02*
X114707142Y-81056914D01*
X114707142Y-81056914D02*
X114650000Y-81028342D01*
X114650000Y-81028342D02*
X114507142Y-81028342D01*
X114507142Y-81028342D02*
X114450000Y-81056914D01*
X114450000Y-81056914D02*
X114421428Y-81085485D01*
X114421428Y-81085485D02*
X114392857Y-81142628D01*
X114392857Y-81142628D02*
X114392857Y-81285485D01*
X114392857Y-81285485D02*
X114421428Y-81342628D01*
X114421428Y-81342628D02*
X114450000Y-81371200D01*
X114450000Y-81371200D02*
X114507142Y-81399771D01*
X114507142Y-81399771D02*
X114650000Y-81399771D01*
X114650000Y-81399771D02*
X114707142Y-81371200D01*
X114707142Y-81371200D02*
X114735714Y-81342628D01*
X125035714Y-80644771D02*
X125235714Y-80359057D01*
X125378571Y-80644771D02*
X125378571Y-80044771D01*
X125378571Y-80044771D02*
X125150000Y-80044771D01*
X125150000Y-80044771D02*
X125092857Y-80073342D01*
X125092857Y-80073342D02*
X125064286Y-80101914D01*
X125064286Y-80101914D02*
X125035714Y-80159057D01*
X125035714Y-80159057D02*
X125035714Y-80244771D01*
X125035714Y-80244771D02*
X125064286Y-80301914D01*
X125064286Y-80301914D02*
X125092857Y-80330485D01*
X125092857Y-80330485D02*
X125150000Y-80359057D01*
X125150000Y-80359057D02*
X125378571Y-80359057D01*
X124835714Y-80044771D02*
X124464286Y-80044771D01*
X124464286Y-80044771D02*
X124664286Y-80273342D01*
X124664286Y-80273342D02*
X124578571Y-80273342D01*
X124578571Y-80273342D02*
X124521429Y-80301914D01*
X124521429Y-80301914D02*
X124492857Y-80330485D01*
X124492857Y-80330485D02*
X124464286Y-80387628D01*
X124464286Y-80387628D02*
X124464286Y-80530485D01*
X124464286Y-80530485D02*
X124492857Y-80587628D01*
X124492857Y-80587628D02*
X124521429Y-80616200D01*
X124521429Y-80616200D02*
X124578571Y-80644771D01*
X124578571Y-80644771D02*
X124750000Y-80644771D01*
X124750000Y-80644771D02*
X124807143Y-80616200D01*
X124807143Y-80616200D02*
X124835714Y-80587628D01*
X124264285Y-80044771D02*
X123892857Y-80044771D01*
X123892857Y-80044771D02*
X124092857Y-80273342D01*
X124092857Y-80273342D02*
X124007142Y-80273342D01*
X124007142Y-80273342D02*
X123950000Y-80301914D01*
X123950000Y-80301914D02*
X123921428Y-80330485D01*
X123921428Y-80330485D02*
X123892857Y-80387628D01*
X123892857Y-80387628D02*
X123892857Y-80530485D01*
X123892857Y-80530485D02*
X123921428Y-80587628D01*
X123921428Y-80587628D02*
X123950000Y-80616200D01*
X123950000Y-80616200D02*
X124007142Y-80644771D01*
X124007142Y-80644771D02*
X124178571Y-80644771D01*
X124178571Y-80644771D02*
X124235714Y-80616200D01*
X124235714Y-80616200D02*
X124264285Y-80587628D01*
X55172856Y-123159771D02*
X55172856Y-122559771D01*
X55172856Y-122559771D02*
X55029999Y-122559771D01*
X55029999Y-122559771D02*
X54944285Y-122588342D01*
X54944285Y-122588342D02*
X54887142Y-122645485D01*
X54887142Y-122645485D02*
X54858571Y-122702628D01*
X54858571Y-122702628D02*
X54829999Y-122816914D01*
X54829999Y-122816914D02*
X54829999Y-122902628D01*
X54829999Y-122902628D02*
X54858571Y-123016914D01*
X54858571Y-123016914D02*
X54887142Y-123074057D01*
X54887142Y-123074057D02*
X54944285Y-123131200D01*
X54944285Y-123131200D02*
X55029999Y-123159771D01*
X55029999Y-123159771D02*
X55172856Y-123159771D01*
X54258571Y-123159771D02*
X54601428Y-123159771D01*
X54429999Y-123159771D02*
X54429999Y-122559771D01*
X54429999Y-122559771D02*
X54487142Y-122645485D01*
X54487142Y-122645485D02*
X54544285Y-122702628D01*
X54544285Y-122702628D02*
X54601428Y-122731200D01*
X80700000Y-114932628D02*
X80728572Y-114961200D01*
X80728572Y-114961200D02*
X80814286Y-114989771D01*
X80814286Y-114989771D02*
X80871429Y-114989771D01*
X80871429Y-114989771D02*
X80957143Y-114961200D01*
X80957143Y-114961200D02*
X81014286Y-114904057D01*
X81014286Y-114904057D02*
X81042857Y-114846914D01*
X81042857Y-114846914D02*
X81071429Y-114732628D01*
X81071429Y-114732628D02*
X81071429Y-114646914D01*
X81071429Y-114646914D02*
X81042857Y-114532628D01*
X81042857Y-114532628D02*
X81014286Y-114475485D01*
X81014286Y-114475485D02*
X80957143Y-114418342D01*
X80957143Y-114418342D02*
X80871429Y-114389771D01*
X80871429Y-114389771D02*
X80814286Y-114389771D01*
X80814286Y-114389771D02*
X80728572Y-114418342D01*
X80728572Y-114418342D02*
X80700000Y-114446914D01*
X80128572Y-114989771D02*
X80471429Y-114989771D01*
X80300000Y-114989771D02*
X80300000Y-114389771D01*
X80300000Y-114389771D02*
X80357143Y-114475485D01*
X80357143Y-114475485D02*
X80414286Y-114532628D01*
X80414286Y-114532628D02*
X80471429Y-114561200D01*
X79842857Y-114989771D02*
X79728571Y-114989771D01*
X79728571Y-114989771D02*
X79671428Y-114961200D01*
X79671428Y-114961200D02*
X79642857Y-114932628D01*
X79642857Y-114932628D02*
X79585714Y-114846914D01*
X79585714Y-114846914D02*
X79557143Y-114732628D01*
X79557143Y-114732628D02*
X79557143Y-114504057D01*
X79557143Y-114504057D02*
X79585714Y-114446914D01*
X79585714Y-114446914D02*
X79614286Y-114418342D01*
X79614286Y-114418342D02*
X79671428Y-114389771D01*
X79671428Y-114389771D02*
X79785714Y-114389771D01*
X79785714Y-114389771D02*
X79842857Y-114418342D01*
X79842857Y-114418342D02*
X79871428Y-114446914D01*
X79871428Y-114446914D02*
X79900000Y-114504057D01*
X79900000Y-114504057D02*
X79900000Y-114646914D01*
X79900000Y-114646914D02*
X79871428Y-114704057D01*
X79871428Y-114704057D02*
X79842857Y-114732628D01*
X79842857Y-114732628D02*
X79785714Y-114761200D01*
X79785714Y-114761200D02*
X79671428Y-114761200D01*
X79671428Y-114761200D02*
X79614286Y-114732628D01*
X79614286Y-114732628D02*
X79585714Y-114704057D01*
X79585714Y-114704057D02*
X79557143Y-114646914D01*
X88957142Y-112619771D02*
X88957142Y-113105485D01*
X88957142Y-113105485D02*
X88928571Y-113162628D01*
X88928571Y-113162628D02*
X88900000Y-113191200D01*
X88900000Y-113191200D02*
X88842857Y-113219771D01*
X88842857Y-113219771D02*
X88728571Y-113219771D01*
X88728571Y-113219771D02*
X88671428Y-113191200D01*
X88671428Y-113191200D02*
X88642857Y-113162628D01*
X88642857Y-113162628D02*
X88614285Y-113105485D01*
X88614285Y-113105485D02*
X88614285Y-112619771D01*
X88385714Y-112619771D02*
X88014286Y-112619771D01*
X88014286Y-112619771D02*
X88214286Y-112848342D01*
X88214286Y-112848342D02*
X88128571Y-112848342D01*
X88128571Y-112848342D02*
X88071429Y-112876914D01*
X88071429Y-112876914D02*
X88042857Y-112905485D01*
X88042857Y-112905485D02*
X88014286Y-112962628D01*
X88014286Y-112962628D02*
X88014286Y-113105485D01*
X88014286Y-113105485D02*
X88042857Y-113162628D01*
X88042857Y-113162628D02*
X88071429Y-113191200D01*
X88071429Y-113191200D02*
X88128571Y-113219771D01*
X88128571Y-113219771D02*
X88300000Y-113219771D01*
X88300000Y-113219771D02*
X88357143Y-113191200D01*
X88357143Y-113191200D02*
X88385714Y-113162628D01*
X66529999Y-107592628D02*
X66558571Y-107621200D01*
X66558571Y-107621200D02*
X66644285Y-107649771D01*
X66644285Y-107649771D02*
X66701428Y-107649771D01*
X66701428Y-107649771D02*
X66787142Y-107621200D01*
X66787142Y-107621200D02*
X66844285Y-107564057D01*
X66844285Y-107564057D02*
X66872856Y-107506914D01*
X66872856Y-107506914D02*
X66901428Y-107392628D01*
X66901428Y-107392628D02*
X66901428Y-107306914D01*
X66901428Y-107306914D02*
X66872856Y-107192628D01*
X66872856Y-107192628D02*
X66844285Y-107135485D01*
X66844285Y-107135485D02*
X66787142Y-107078342D01*
X66787142Y-107078342D02*
X66701428Y-107049771D01*
X66701428Y-107049771D02*
X66644285Y-107049771D01*
X66644285Y-107049771D02*
X66558571Y-107078342D01*
X66558571Y-107078342D02*
X66529999Y-107106914D01*
X66301428Y-107106914D02*
X66272856Y-107078342D01*
X66272856Y-107078342D02*
X66215714Y-107049771D01*
X66215714Y-107049771D02*
X66072856Y-107049771D01*
X66072856Y-107049771D02*
X66015714Y-107078342D01*
X66015714Y-107078342D02*
X65987142Y-107106914D01*
X65987142Y-107106914D02*
X65958571Y-107164057D01*
X65958571Y-107164057D02*
X65958571Y-107221200D01*
X65958571Y-107221200D02*
X65987142Y-107306914D01*
X65987142Y-107306914D02*
X66329999Y-107649771D01*
X66329999Y-107649771D02*
X65958571Y-107649771D01*
X115535714Y-79724771D02*
X115735714Y-79439057D01*
X115878571Y-79724771D02*
X115878571Y-79124771D01*
X115878571Y-79124771D02*
X115650000Y-79124771D01*
X115650000Y-79124771D02*
X115592857Y-79153342D01*
X115592857Y-79153342D02*
X115564286Y-79181914D01*
X115564286Y-79181914D02*
X115535714Y-79239057D01*
X115535714Y-79239057D02*
X115535714Y-79324771D01*
X115535714Y-79324771D02*
X115564286Y-79381914D01*
X115564286Y-79381914D02*
X115592857Y-79410485D01*
X115592857Y-79410485D02*
X115650000Y-79439057D01*
X115650000Y-79439057D02*
X115878571Y-79439057D01*
X115335714Y-79124771D02*
X114964286Y-79124771D01*
X114964286Y-79124771D02*
X115164286Y-79353342D01*
X115164286Y-79353342D02*
X115078571Y-79353342D01*
X115078571Y-79353342D02*
X115021429Y-79381914D01*
X115021429Y-79381914D02*
X114992857Y-79410485D01*
X114992857Y-79410485D02*
X114964286Y-79467628D01*
X114964286Y-79467628D02*
X114964286Y-79610485D01*
X114964286Y-79610485D02*
X114992857Y-79667628D01*
X114992857Y-79667628D02*
X115021429Y-79696200D01*
X115021429Y-79696200D02*
X115078571Y-79724771D01*
X115078571Y-79724771D02*
X115250000Y-79724771D01*
X115250000Y-79724771D02*
X115307143Y-79696200D01*
X115307143Y-79696200D02*
X115335714Y-79667628D01*
X114450000Y-79124771D02*
X114564285Y-79124771D01*
X114564285Y-79124771D02*
X114621428Y-79153342D01*
X114621428Y-79153342D02*
X114650000Y-79181914D01*
X114650000Y-79181914D02*
X114707142Y-79267628D01*
X114707142Y-79267628D02*
X114735714Y-79381914D01*
X114735714Y-79381914D02*
X114735714Y-79610485D01*
X114735714Y-79610485D02*
X114707142Y-79667628D01*
X114707142Y-79667628D02*
X114678571Y-79696200D01*
X114678571Y-79696200D02*
X114621428Y-79724771D01*
X114621428Y-79724771D02*
X114507142Y-79724771D01*
X114507142Y-79724771D02*
X114450000Y-79696200D01*
X114450000Y-79696200D02*
X114421428Y-79667628D01*
X114421428Y-79667628D02*
X114392857Y-79610485D01*
X114392857Y-79610485D02*
X114392857Y-79467628D01*
X114392857Y-79467628D02*
X114421428Y-79410485D01*
X114421428Y-79410485D02*
X114450000Y-79381914D01*
X114450000Y-79381914D02*
X114507142Y-79353342D01*
X114507142Y-79353342D02*
X114621428Y-79353342D01*
X114621428Y-79353342D02*
X114678571Y-79381914D01*
X114678571Y-79381914D02*
X114707142Y-79410485D01*
X114707142Y-79410485D02*
X114735714Y-79467628D01*
X123451428Y-95125485D02*
X123365714Y-95154057D01*
X123365714Y-95154057D02*
X123337143Y-95182628D01*
X123337143Y-95182628D02*
X123308571Y-95239771D01*
X123308571Y-95239771D02*
X123308571Y-95325485D01*
X123308571Y-95325485D02*
X123337143Y-95382628D01*
X123337143Y-95382628D02*
X123365714Y-95411200D01*
X123365714Y-95411200D02*
X123422857Y-95439771D01*
X123422857Y-95439771D02*
X123651428Y-95439771D01*
X123651428Y-95439771D02*
X123651428Y-94839771D01*
X123651428Y-94839771D02*
X123451428Y-94839771D01*
X123451428Y-94839771D02*
X123394286Y-94868342D01*
X123394286Y-94868342D02*
X123365714Y-94896914D01*
X123365714Y-94896914D02*
X123337143Y-94954057D01*
X123337143Y-94954057D02*
X123337143Y-95011200D01*
X123337143Y-95011200D02*
X123365714Y-95068342D01*
X123365714Y-95068342D02*
X123394286Y-95096914D01*
X123394286Y-95096914D02*
X123451428Y-95125485D01*
X123451428Y-95125485D02*
X123651428Y-95125485D01*
X123137143Y-94839771D02*
X122794286Y-94839771D01*
X122965714Y-95439771D02*
X122965714Y-94839771D01*
X122280000Y-95439771D02*
X122622857Y-95439771D01*
X122451428Y-95439771D02*
X122451428Y-94839771D01*
X122451428Y-94839771D02*
X122508571Y-94925485D01*
X122508571Y-94925485D02*
X122565714Y-94982628D01*
X122565714Y-94982628D02*
X122622857Y-95011200D01*
X80699999Y-111527628D02*
X80728571Y-111556200D01*
X80728571Y-111556200D02*
X80814285Y-111584771D01*
X80814285Y-111584771D02*
X80871428Y-111584771D01*
X80871428Y-111584771D02*
X80957142Y-111556200D01*
X80957142Y-111556200D02*
X81014285Y-111499057D01*
X81014285Y-111499057D02*
X81042856Y-111441914D01*
X81042856Y-111441914D02*
X81071428Y-111327628D01*
X81071428Y-111327628D02*
X81071428Y-111241914D01*
X81071428Y-111241914D02*
X81042856Y-111127628D01*
X81042856Y-111127628D02*
X81014285Y-111070485D01*
X81014285Y-111070485D02*
X80957142Y-111013342D01*
X80957142Y-111013342D02*
X80871428Y-110984771D01*
X80871428Y-110984771D02*
X80814285Y-110984771D01*
X80814285Y-110984771D02*
X80728571Y-111013342D01*
X80728571Y-111013342D02*
X80699999Y-111041914D01*
X80185714Y-111184771D02*
X80185714Y-111584771D01*
X80328571Y-110956200D02*
X80471428Y-111384771D01*
X80471428Y-111384771D02*
X80099999Y-111384771D01*
X123015714Y-134239771D02*
X123215714Y-133954057D01*
X123358571Y-134239771D02*
X123358571Y-133639771D01*
X123358571Y-133639771D02*
X123130000Y-133639771D01*
X123130000Y-133639771D02*
X123072857Y-133668342D01*
X123072857Y-133668342D02*
X123044286Y-133696914D01*
X123044286Y-133696914D02*
X123015714Y-133754057D01*
X123015714Y-133754057D02*
X123015714Y-133839771D01*
X123015714Y-133839771D02*
X123044286Y-133896914D01*
X123044286Y-133896914D02*
X123072857Y-133925485D01*
X123072857Y-133925485D02*
X123130000Y-133954057D01*
X123130000Y-133954057D02*
X123358571Y-133954057D01*
X122672857Y-133896914D02*
X122730000Y-133868342D01*
X122730000Y-133868342D02*
X122758571Y-133839771D01*
X122758571Y-133839771D02*
X122787143Y-133782628D01*
X122787143Y-133782628D02*
X122787143Y-133754057D01*
X122787143Y-133754057D02*
X122758571Y-133696914D01*
X122758571Y-133696914D02*
X122730000Y-133668342D01*
X122730000Y-133668342D02*
X122672857Y-133639771D01*
X122672857Y-133639771D02*
X122558571Y-133639771D01*
X122558571Y-133639771D02*
X122501429Y-133668342D01*
X122501429Y-133668342D02*
X122472857Y-133696914D01*
X122472857Y-133696914D02*
X122444286Y-133754057D01*
X122444286Y-133754057D02*
X122444286Y-133782628D01*
X122444286Y-133782628D02*
X122472857Y-133839771D01*
X122472857Y-133839771D02*
X122501429Y-133868342D01*
X122501429Y-133868342D02*
X122558571Y-133896914D01*
X122558571Y-133896914D02*
X122672857Y-133896914D01*
X122672857Y-133896914D02*
X122730000Y-133925485D01*
X122730000Y-133925485D02*
X122758571Y-133954057D01*
X122758571Y-133954057D02*
X122787143Y-134011200D01*
X122787143Y-134011200D02*
X122787143Y-134125485D01*
X122787143Y-134125485D02*
X122758571Y-134182628D01*
X122758571Y-134182628D02*
X122730000Y-134211200D01*
X122730000Y-134211200D02*
X122672857Y-134239771D01*
X122672857Y-134239771D02*
X122558571Y-134239771D01*
X122558571Y-134239771D02*
X122501429Y-134211200D01*
X122501429Y-134211200D02*
X122472857Y-134182628D01*
X122472857Y-134182628D02*
X122444286Y-134125485D01*
X122444286Y-134125485D02*
X122444286Y-134011200D01*
X122444286Y-134011200D02*
X122472857Y-133954057D01*
X122472857Y-133954057D02*
X122501429Y-133925485D01*
X122501429Y-133925485D02*
X122558571Y-133896914D01*
X122244285Y-133639771D02*
X121844285Y-133639771D01*
X121844285Y-133639771D02*
X122101428Y-134239771D01*
X51742856Y-69282271D02*
X51742856Y-68682271D01*
X51742856Y-68682271D02*
X51599999Y-68682271D01*
X51599999Y-68682271D02*
X51514285Y-68710842D01*
X51514285Y-68710842D02*
X51457142Y-68767985D01*
X51457142Y-68767985D02*
X51428571Y-68825128D01*
X51428571Y-68825128D02*
X51399999Y-68939414D01*
X51399999Y-68939414D02*
X51399999Y-69025128D01*
X51399999Y-69025128D02*
X51428571Y-69139414D01*
X51428571Y-69139414D02*
X51457142Y-69196557D01*
X51457142Y-69196557D02*
X51514285Y-69253700D01*
X51514285Y-69253700D02*
X51599999Y-69282271D01*
X51599999Y-69282271D02*
X51742856Y-69282271D01*
X51199999Y-68682271D02*
X50799999Y-68682271D01*
X50799999Y-68682271D02*
X51057142Y-69282271D01*
X82078571Y-75889771D02*
X82078571Y-75289771D01*
X82078571Y-75289771D02*
X81935714Y-75289771D01*
X81935714Y-75289771D02*
X81850000Y-75318342D01*
X81850000Y-75318342D02*
X81792857Y-75375485D01*
X81792857Y-75375485D02*
X81764286Y-75432628D01*
X81764286Y-75432628D02*
X81735714Y-75546914D01*
X81735714Y-75546914D02*
X81735714Y-75632628D01*
X81735714Y-75632628D02*
X81764286Y-75746914D01*
X81764286Y-75746914D02*
X81792857Y-75804057D01*
X81792857Y-75804057D02*
X81850000Y-75861200D01*
X81850000Y-75861200D02*
X81935714Y-75889771D01*
X81935714Y-75889771D02*
X82078571Y-75889771D01*
X81164286Y-75889771D02*
X81507143Y-75889771D01*
X81335714Y-75889771D02*
X81335714Y-75289771D01*
X81335714Y-75289771D02*
X81392857Y-75375485D01*
X81392857Y-75375485D02*
X81450000Y-75432628D01*
X81450000Y-75432628D02*
X81507143Y-75461200D01*
X80650000Y-75289771D02*
X80764285Y-75289771D01*
X80764285Y-75289771D02*
X80821428Y-75318342D01*
X80821428Y-75318342D02*
X80850000Y-75346914D01*
X80850000Y-75346914D02*
X80907142Y-75432628D01*
X80907142Y-75432628D02*
X80935714Y-75546914D01*
X80935714Y-75546914D02*
X80935714Y-75775485D01*
X80935714Y-75775485D02*
X80907142Y-75832628D01*
X80907142Y-75832628D02*
X80878571Y-75861200D01*
X80878571Y-75861200D02*
X80821428Y-75889771D01*
X80821428Y-75889771D02*
X80707142Y-75889771D01*
X80707142Y-75889771D02*
X80650000Y-75861200D01*
X80650000Y-75861200D02*
X80621428Y-75832628D01*
X80621428Y-75832628D02*
X80592857Y-75775485D01*
X80592857Y-75775485D02*
X80592857Y-75632628D01*
X80592857Y-75632628D02*
X80621428Y-75575485D01*
X80621428Y-75575485D02*
X80650000Y-75546914D01*
X80650000Y-75546914D02*
X80707142Y-75518342D01*
X80707142Y-75518342D02*
X80821428Y-75518342D01*
X80821428Y-75518342D02*
X80878571Y-75546914D01*
X80878571Y-75546914D02*
X80907142Y-75575485D01*
X80907142Y-75575485D02*
X80935714Y-75632628D01*
X53147142Y-84929771D02*
X53147142Y-85415485D01*
X53147142Y-85415485D02*
X53118571Y-85472628D01*
X53118571Y-85472628D02*
X53090000Y-85501200D01*
X53090000Y-85501200D02*
X53032857Y-85529771D01*
X53032857Y-85529771D02*
X52918571Y-85529771D01*
X52918571Y-85529771D02*
X52861428Y-85501200D01*
X52861428Y-85501200D02*
X52832857Y-85472628D01*
X52832857Y-85472628D02*
X52804285Y-85415485D01*
X52804285Y-85415485D02*
X52804285Y-84929771D01*
X52261429Y-84929771D02*
X52375714Y-84929771D01*
X52375714Y-84929771D02*
X52432857Y-84958342D01*
X52432857Y-84958342D02*
X52461429Y-84986914D01*
X52461429Y-84986914D02*
X52518571Y-85072628D01*
X52518571Y-85072628D02*
X52547143Y-85186914D01*
X52547143Y-85186914D02*
X52547143Y-85415485D01*
X52547143Y-85415485D02*
X52518571Y-85472628D01*
X52518571Y-85472628D02*
X52490000Y-85501200D01*
X52490000Y-85501200D02*
X52432857Y-85529771D01*
X52432857Y-85529771D02*
X52318571Y-85529771D01*
X52318571Y-85529771D02*
X52261429Y-85501200D01*
X52261429Y-85501200D02*
X52232857Y-85472628D01*
X52232857Y-85472628D02*
X52204286Y-85415485D01*
X52204286Y-85415485D02*
X52204286Y-85272628D01*
X52204286Y-85272628D02*
X52232857Y-85215485D01*
X52232857Y-85215485D02*
X52261429Y-85186914D01*
X52261429Y-85186914D02*
X52318571Y-85158342D01*
X52318571Y-85158342D02*
X52432857Y-85158342D01*
X52432857Y-85158342D02*
X52490000Y-85186914D01*
X52490000Y-85186914D02*
X52518571Y-85215485D01*
X52518571Y-85215485D02*
X52547143Y-85272628D01*
X137975714Y-130169771D02*
X138175714Y-129884057D01*
X138318571Y-130169771D02*
X138318571Y-129569771D01*
X138318571Y-129569771D02*
X138090000Y-129569771D01*
X138090000Y-129569771D02*
X138032857Y-129598342D01*
X138032857Y-129598342D02*
X138004286Y-129626914D01*
X138004286Y-129626914D02*
X137975714Y-129684057D01*
X137975714Y-129684057D02*
X137975714Y-129769771D01*
X137975714Y-129769771D02*
X138004286Y-129826914D01*
X138004286Y-129826914D02*
X138032857Y-129855485D01*
X138032857Y-129855485D02*
X138090000Y-129884057D01*
X138090000Y-129884057D02*
X138318571Y-129884057D01*
X137775714Y-129569771D02*
X137375714Y-129569771D01*
X137375714Y-129569771D02*
X137632857Y-130169771D01*
X137118571Y-130169771D02*
X137004285Y-130169771D01*
X137004285Y-130169771D02*
X136947142Y-130141200D01*
X136947142Y-130141200D02*
X136918571Y-130112628D01*
X136918571Y-130112628D02*
X136861428Y-130026914D01*
X136861428Y-130026914D02*
X136832857Y-129912628D01*
X136832857Y-129912628D02*
X136832857Y-129684057D01*
X136832857Y-129684057D02*
X136861428Y-129626914D01*
X136861428Y-129626914D02*
X136890000Y-129598342D01*
X136890000Y-129598342D02*
X136947142Y-129569771D01*
X136947142Y-129569771D02*
X137061428Y-129569771D01*
X137061428Y-129569771D02*
X137118571Y-129598342D01*
X137118571Y-129598342D02*
X137147142Y-129626914D01*
X137147142Y-129626914D02*
X137175714Y-129684057D01*
X137175714Y-129684057D02*
X137175714Y-129826914D01*
X137175714Y-129826914D02*
X137147142Y-129884057D01*
X137147142Y-129884057D02*
X137118571Y-129912628D01*
X137118571Y-129912628D02*
X137061428Y-129941200D01*
X137061428Y-129941200D02*
X136947142Y-129941200D01*
X136947142Y-129941200D02*
X136890000Y-129912628D01*
X136890000Y-129912628D02*
X136861428Y-129884057D01*
X136861428Y-129884057D02*
X136832857Y-129826914D01*
X87717856Y-72044771D02*
X87717856Y-71444771D01*
X87717856Y-71444771D02*
X87574999Y-71444771D01*
X87574999Y-71444771D02*
X87489285Y-71473342D01*
X87489285Y-71473342D02*
X87432142Y-71530485D01*
X87432142Y-71530485D02*
X87403571Y-71587628D01*
X87403571Y-71587628D02*
X87374999Y-71701914D01*
X87374999Y-71701914D02*
X87374999Y-71787628D01*
X87374999Y-71787628D02*
X87403571Y-71901914D01*
X87403571Y-71901914D02*
X87432142Y-71959057D01*
X87432142Y-71959057D02*
X87489285Y-72016200D01*
X87489285Y-72016200D02*
X87574999Y-72044771D01*
X87574999Y-72044771D02*
X87717856Y-72044771D01*
X87089285Y-72044771D02*
X86974999Y-72044771D01*
X86974999Y-72044771D02*
X86917856Y-72016200D01*
X86917856Y-72016200D02*
X86889285Y-71987628D01*
X86889285Y-71987628D02*
X86832142Y-71901914D01*
X86832142Y-71901914D02*
X86803571Y-71787628D01*
X86803571Y-71787628D02*
X86803571Y-71559057D01*
X86803571Y-71559057D02*
X86832142Y-71501914D01*
X86832142Y-71501914D02*
X86860714Y-71473342D01*
X86860714Y-71473342D02*
X86917856Y-71444771D01*
X86917856Y-71444771D02*
X87032142Y-71444771D01*
X87032142Y-71444771D02*
X87089285Y-71473342D01*
X87089285Y-71473342D02*
X87117856Y-71501914D01*
X87117856Y-71501914D02*
X87146428Y-71559057D01*
X87146428Y-71559057D02*
X87146428Y-71701914D01*
X87146428Y-71701914D02*
X87117856Y-71759057D01*
X87117856Y-71759057D02*
X87089285Y-71787628D01*
X87089285Y-71787628D02*
X87032142Y-71816200D01*
X87032142Y-71816200D02*
X86917856Y-71816200D01*
X86917856Y-71816200D02*
X86860714Y-71787628D01*
X86860714Y-71787628D02*
X86832142Y-71759057D01*
X86832142Y-71759057D02*
X86803571Y-71701914D01*
X54765714Y-135439771D02*
X54965714Y-135154057D01*
X55108571Y-135439771D02*
X55108571Y-134839771D01*
X55108571Y-134839771D02*
X54880000Y-134839771D01*
X54880000Y-134839771D02*
X54822857Y-134868342D01*
X54822857Y-134868342D02*
X54794286Y-134896914D01*
X54794286Y-134896914D02*
X54765714Y-134954057D01*
X54765714Y-134954057D02*
X54765714Y-135039771D01*
X54765714Y-135039771D02*
X54794286Y-135096914D01*
X54794286Y-135096914D02*
X54822857Y-135125485D01*
X54822857Y-135125485D02*
X54880000Y-135154057D01*
X54880000Y-135154057D02*
X55108571Y-135154057D01*
X54194286Y-135439771D02*
X54537143Y-135439771D01*
X54365714Y-135439771D02*
X54365714Y-134839771D01*
X54365714Y-134839771D02*
X54422857Y-134925485D01*
X54422857Y-134925485D02*
X54480000Y-134982628D01*
X54480000Y-134982628D02*
X54537143Y-135011200D01*
X53965714Y-134896914D02*
X53937142Y-134868342D01*
X53937142Y-134868342D02*
X53880000Y-134839771D01*
X53880000Y-134839771D02*
X53737142Y-134839771D01*
X53737142Y-134839771D02*
X53680000Y-134868342D01*
X53680000Y-134868342D02*
X53651428Y-134896914D01*
X53651428Y-134896914D02*
X53622857Y-134954057D01*
X53622857Y-134954057D02*
X53622857Y-135011200D01*
X53622857Y-135011200D02*
X53651428Y-135096914D01*
X53651428Y-135096914D02*
X53994285Y-135439771D01*
X53994285Y-135439771D02*
X53622857Y-135439771D01*
X64942856Y-74639771D02*
X64942856Y-75125485D01*
X64942856Y-75125485D02*
X64914285Y-75182628D01*
X64914285Y-75182628D02*
X64885714Y-75211200D01*
X64885714Y-75211200D02*
X64828571Y-75239771D01*
X64828571Y-75239771D02*
X64714285Y-75239771D01*
X64714285Y-75239771D02*
X64657142Y-75211200D01*
X64657142Y-75211200D02*
X64628571Y-75182628D01*
X64628571Y-75182628D02*
X64599999Y-75125485D01*
X64599999Y-75125485D02*
X64599999Y-74639771D01*
X64000000Y-75239771D02*
X64342857Y-75239771D01*
X64171428Y-75239771D02*
X64171428Y-74639771D01*
X64171428Y-74639771D02*
X64228571Y-74725485D01*
X64228571Y-74725485D02*
X64285714Y-74782628D01*
X64285714Y-74782628D02*
X64342857Y-74811200D01*
X63799999Y-74639771D02*
X63428571Y-74639771D01*
X63428571Y-74639771D02*
X63628571Y-74868342D01*
X63628571Y-74868342D02*
X63542856Y-74868342D01*
X63542856Y-74868342D02*
X63485714Y-74896914D01*
X63485714Y-74896914D02*
X63457142Y-74925485D01*
X63457142Y-74925485D02*
X63428571Y-74982628D01*
X63428571Y-74982628D02*
X63428571Y-75125485D01*
X63428571Y-75125485D02*
X63457142Y-75182628D01*
X63457142Y-75182628D02*
X63485714Y-75211200D01*
X63485714Y-75211200D02*
X63542856Y-75239771D01*
X63542856Y-75239771D02*
X63714285Y-75239771D01*
X63714285Y-75239771D02*
X63771428Y-75211200D01*
X63771428Y-75211200D02*
X63799999Y-75182628D01*
X95835714Y-106469771D02*
X96035714Y-106184057D01*
X96178571Y-106469771D02*
X96178571Y-105869771D01*
X96178571Y-105869771D02*
X95950000Y-105869771D01*
X95950000Y-105869771D02*
X95892857Y-105898342D01*
X95892857Y-105898342D02*
X95864286Y-105926914D01*
X95864286Y-105926914D02*
X95835714Y-105984057D01*
X95835714Y-105984057D02*
X95835714Y-106069771D01*
X95835714Y-106069771D02*
X95864286Y-106126914D01*
X95864286Y-106126914D02*
X95892857Y-106155485D01*
X95892857Y-106155485D02*
X95950000Y-106184057D01*
X95950000Y-106184057D02*
X96178571Y-106184057D01*
X95550000Y-106469771D02*
X95435714Y-106469771D01*
X95435714Y-106469771D02*
X95378571Y-106441200D01*
X95378571Y-106441200D02*
X95350000Y-106412628D01*
X95350000Y-106412628D02*
X95292857Y-106326914D01*
X95292857Y-106326914D02*
X95264286Y-106212628D01*
X95264286Y-106212628D02*
X95264286Y-105984057D01*
X95264286Y-105984057D02*
X95292857Y-105926914D01*
X95292857Y-105926914D02*
X95321429Y-105898342D01*
X95321429Y-105898342D02*
X95378571Y-105869771D01*
X95378571Y-105869771D02*
X95492857Y-105869771D01*
X95492857Y-105869771D02*
X95550000Y-105898342D01*
X95550000Y-105898342D02*
X95578571Y-105926914D01*
X95578571Y-105926914D02*
X95607143Y-105984057D01*
X95607143Y-105984057D02*
X95607143Y-106126914D01*
X95607143Y-106126914D02*
X95578571Y-106184057D01*
X95578571Y-106184057D02*
X95550000Y-106212628D01*
X95550000Y-106212628D02*
X95492857Y-106241200D01*
X95492857Y-106241200D02*
X95378571Y-106241200D01*
X95378571Y-106241200D02*
X95321429Y-106212628D01*
X95321429Y-106212628D02*
X95292857Y-106184057D01*
X95292857Y-106184057D02*
X95264286Y-106126914D01*
X94750000Y-105869771D02*
X94864285Y-105869771D01*
X94864285Y-105869771D02*
X94921428Y-105898342D01*
X94921428Y-105898342D02*
X94950000Y-105926914D01*
X94950000Y-105926914D02*
X95007142Y-106012628D01*
X95007142Y-106012628D02*
X95035714Y-106126914D01*
X95035714Y-106126914D02*
X95035714Y-106355485D01*
X95035714Y-106355485D02*
X95007142Y-106412628D01*
X95007142Y-106412628D02*
X94978571Y-106441200D01*
X94978571Y-106441200D02*
X94921428Y-106469771D01*
X94921428Y-106469771D02*
X94807142Y-106469771D01*
X94807142Y-106469771D02*
X94750000Y-106441200D01*
X94750000Y-106441200D02*
X94721428Y-106412628D01*
X94721428Y-106412628D02*
X94692857Y-106355485D01*
X94692857Y-106355485D02*
X94692857Y-106212628D01*
X94692857Y-106212628D02*
X94721428Y-106155485D01*
X94721428Y-106155485D02*
X94750000Y-106126914D01*
X94750000Y-106126914D02*
X94807142Y-106098342D01*
X94807142Y-106098342D02*
X94921428Y-106098342D01*
X94921428Y-106098342D02*
X94978571Y-106126914D01*
X94978571Y-106126914D02*
X95007142Y-106155485D01*
X95007142Y-106155485D02*
X95035714Y-106212628D01*
X67689999Y-124619771D02*
X67975713Y-124619771D01*
X67975713Y-124619771D02*
X67975713Y-124019771D01*
X67232857Y-124219771D02*
X67232857Y-124619771D01*
X67375714Y-123991200D02*
X67518571Y-124419771D01*
X67518571Y-124419771D02*
X67147142Y-124419771D01*
X57885714Y-89472628D02*
X57914286Y-89501200D01*
X57914286Y-89501200D02*
X58000000Y-89529771D01*
X58000000Y-89529771D02*
X58057143Y-89529771D01*
X58057143Y-89529771D02*
X58142857Y-89501200D01*
X58142857Y-89501200D02*
X58200000Y-89444057D01*
X58200000Y-89444057D02*
X58228571Y-89386914D01*
X58228571Y-89386914D02*
X58257143Y-89272628D01*
X58257143Y-89272628D02*
X58257143Y-89186914D01*
X58257143Y-89186914D02*
X58228571Y-89072628D01*
X58228571Y-89072628D02*
X58200000Y-89015485D01*
X58200000Y-89015485D02*
X58142857Y-88958342D01*
X58142857Y-88958342D02*
X58057143Y-88929771D01*
X58057143Y-88929771D02*
X58000000Y-88929771D01*
X58000000Y-88929771D02*
X57914286Y-88958342D01*
X57914286Y-88958342D02*
X57885714Y-88986914D01*
X57657143Y-88986914D02*
X57628571Y-88958342D01*
X57628571Y-88958342D02*
X57571429Y-88929771D01*
X57571429Y-88929771D02*
X57428571Y-88929771D01*
X57428571Y-88929771D02*
X57371429Y-88958342D01*
X57371429Y-88958342D02*
X57342857Y-88986914D01*
X57342857Y-88986914D02*
X57314286Y-89044057D01*
X57314286Y-89044057D02*
X57314286Y-89101200D01*
X57314286Y-89101200D02*
X57342857Y-89186914D01*
X57342857Y-89186914D02*
X57685714Y-89529771D01*
X57685714Y-89529771D02*
X57314286Y-89529771D01*
X56800000Y-88929771D02*
X56914285Y-88929771D01*
X56914285Y-88929771D02*
X56971428Y-88958342D01*
X56971428Y-88958342D02*
X57000000Y-88986914D01*
X57000000Y-88986914D02*
X57057142Y-89072628D01*
X57057142Y-89072628D02*
X57085714Y-89186914D01*
X57085714Y-89186914D02*
X57085714Y-89415485D01*
X57085714Y-89415485D02*
X57057142Y-89472628D01*
X57057142Y-89472628D02*
X57028571Y-89501200D01*
X57028571Y-89501200D02*
X56971428Y-89529771D01*
X56971428Y-89529771D02*
X56857142Y-89529771D01*
X56857142Y-89529771D02*
X56800000Y-89501200D01*
X56800000Y-89501200D02*
X56771428Y-89472628D01*
X56771428Y-89472628D02*
X56742857Y-89415485D01*
X56742857Y-89415485D02*
X56742857Y-89272628D01*
X56742857Y-89272628D02*
X56771428Y-89215485D01*
X56771428Y-89215485D02*
X56800000Y-89186914D01*
X56800000Y-89186914D02*
X56857142Y-89158342D01*
X56857142Y-89158342D02*
X56971428Y-89158342D01*
X56971428Y-89158342D02*
X57028571Y-89186914D01*
X57028571Y-89186914D02*
X57057142Y-89215485D01*
X57057142Y-89215485D02*
X57085714Y-89272628D01*
X125035714Y-82344771D02*
X125235714Y-82059057D01*
X125378571Y-82344771D02*
X125378571Y-81744771D01*
X125378571Y-81744771D02*
X125150000Y-81744771D01*
X125150000Y-81744771D02*
X125092857Y-81773342D01*
X125092857Y-81773342D02*
X125064286Y-81801914D01*
X125064286Y-81801914D02*
X125035714Y-81859057D01*
X125035714Y-81859057D02*
X125035714Y-81944771D01*
X125035714Y-81944771D02*
X125064286Y-82001914D01*
X125064286Y-82001914D02*
X125092857Y-82030485D01*
X125092857Y-82030485D02*
X125150000Y-82059057D01*
X125150000Y-82059057D02*
X125378571Y-82059057D01*
X124835714Y-81744771D02*
X124464286Y-81744771D01*
X124464286Y-81744771D02*
X124664286Y-81973342D01*
X124664286Y-81973342D02*
X124578571Y-81973342D01*
X124578571Y-81973342D02*
X124521429Y-82001914D01*
X124521429Y-82001914D02*
X124492857Y-82030485D01*
X124492857Y-82030485D02*
X124464286Y-82087628D01*
X124464286Y-82087628D02*
X124464286Y-82230485D01*
X124464286Y-82230485D02*
X124492857Y-82287628D01*
X124492857Y-82287628D02*
X124521429Y-82316200D01*
X124521429Y-82316200D02*
X124578571Y-82344771D01*
X124578571Y-82344771D02*
X124750000Y-82344771D01*
X124750000Y-82344771D02*
X124807143Y-82316200D01*
X124807143Y-82316200D02*
X124835714Y-82287628D01*
X123950000Y-81944771D02*
X123950000Y-82344771D01*
X124092857Y-81716200D02*
X124235714Y-82144771D01*
X124235714Y-82144771D02*
X123864285Y-82144771D01*
X93485714Y-108839771D02*
X93685714Y-108554057D01*
X93828571Y-108839771D02*
X93828571Y-108239771D01*
X93828571Y-108239771D02*
X93600000Y-108239771D01*
X93600000Y-108239771D02*
X93542857Y-108268342D01*
X93542857Y-108268342D02*
X93514286Y-108296914D01*
X93514286Y-108296914D02*
X93485714Y-108354057D01*
X93485714Y-108354057D02*
X93485714Y-108439771D01*
X93485714Y-108439771D02*
X93514286Y-108496914D01*
X93514286Y-108496914D02*
X93542857Y-108525485D01*
X93542857Y-108525485D02*
X93600000Y-108554057D01*
X93600000Y-108554057D02*
X93828571Y-108554057D01*
X93200000Y-108839771D02*
X93085714Y-108839771D01*
X93085714Y-108839771D02*
X93028571Y-108811200D01*
X93028571Y-108811200D02*
X93000000Y-108782628D01*
X93000000Y-108782628D02*
X92942857Y-108696914D01*
X92942857Y-108696914D02*
X92914286Y-108582628D01*
X92914286Y-108582628D02*
X92914286Y-108354057D01*
X92914286Y-108354057D02*
X92942857Y-108296914D01*
X92942857Y-108296914D02*
X92971429Y-108268342D01*
X92971429Y-108268342D02*
X93028571Y-108239771D01*
X93028571Y-108239771D02*
X93142857Y-108239771D01*
X93142857Y-108239771D02*
X93200000Y-108268342D01*
X93200000Y-108268342D02*
X93228571Y-108296914D01*
X93228571Y-108296914D02*
X93257143Y-108354057D01*
X93257143Y-108354057D02*
X93257143Y-108496914D01*
X93257143Y-108496914D02*
X93228571Y-108554057D01*
X93228571Y-108554057D02*
X93200000Y-108582628D01*
X93200000Y-108582628D02*
X93142857Y-108611200D01*
X93142857Y-108611200D02*
X93028571Y-108611200D01*
X93028571Y-108611200D02*
X92971429Y-108582628D01*
X92971429Y-108582628D02*
X92942857Y-108554057D01*
X92942857Y-108554057D02*
X92914286Y-108496914D01*
X92371428Y-108239771D02*
X92657142Y-108239771D01*
X92657142Y-108239771D02*
X92685714Y-108525485D01*
X92685714Y-108525485D02*
X92657142Y-108496914D01*
X92657142Y-108496914D02*
X92600000Y-108468342D01*
X92600000Y-108468342D02*
X92457142Y-108468342D01*
X92457142Y-108468342D02*
X92400000Y-108496914D01*
X92400000Y-108496914D02*
X92371428Y-108525485D01*
X92371428Y-108525485D02*
X92342857Y-108582628D01*
X92342857Y-108582628D02*
X92342857Y-108725485D01*
X92342857Y-108725485D02*
X92371428Y-108782628D01*
X92371428Y-108782628D02*
X92400000Y-108811200D01*
X92400000Y-108811200D02*
X92457142Y-108839771D01*
X92457142Y-108839771D02*
X92600000Y-108839771D01*
X92600000Y-108839771D02*
X92657142Y-108811200D01*
X92657142Y-108811200D02*
X92685714Y-108782628D01*
X71385714Y-143932628D02*
X71414286Y-143961200D01*
X71414286Y-143961200D02*
X71500000Y-143989771D01*
X71500000Y-143989771D02*
X71557143Y-143989771D01*
X71557143Y-143989771D02*
X71642857Y-143961200D01*
X71642857Y-143961200D02*
X71700000Y-143904057D01*
X71700000Y-143904057D02*
X71728571Y-143846914D01*
X71728571Y-143846914D02*
X71757143Y-143732628D01*
X71757143Y-143732628D02*
X71757143Y-143646914D01*
X71757143Y-143646914D02*
X71728571Y-143532628D01*
X71728571Y-143532628D02*
X71700000Y-143475485D01*
X71700000Y-143475485D02*
X71642857Y-143418342D01*
X71642857Y-143418342D02*
X71557143Y-143389771D01*
X71557143Y-143389771D02*
X71500000Y-143389771D01*
X71500000Y-143389771D02*
X71414286Y-143418342D01*
X71414286Y-143418342D02*
X71385714Y-143446914D01*
X70871429Y-143389771D02*
X70985714Y-143389771D01*
X70985714Y-143389771D02*
X71042857Y-143418342D01*
X71042857Y-143418342D02*
X71071429Y-143446914D01*
X71071429Y-143446914D02*
X71128571Y-143532628D01*
X71128571Y-143532628D02*
X71157143Y-143646914D01*
X71157143Y-143646914D02*
X71157143Y-143875485D01*
X71157143Y-143875485D02*
X71128571Y-143932628D01*
X71128571Y-143932628D02*
X71100000Y-143961200D01*
X71100000Y-143961200D02*
X71042857Y-143989771D01*
X71042857Y-143989771D02*
X70928571Y-143989771D01*
X70928571Y-143989771D02*
X70871429Y-143961200D01*
X70871429Y-143961200D02*
X70842857Y-143932628D01*
X70842857Y-143932628D02*
X70814286Y-143875485D01*
X70814286Y-143875485D02*
X70814286Y-143732628D01*
X70814286Y-143732628D02*
X70842857Y-143675485D01*
X70842857Y-143675485D02*
X70871429Y-143646914D01*
X70871429Y-143646914D02*
X70928571Y-143618342D01*
X70928571Y-143618342D02*
X71042857Y-143618342D01*
X71042857Y-143618342D02*
X71100000Y-143646914D01*
X71100000Y-143646914D02*
X71128571Y-143675485D01*
X71128571Y-143675485D02*
X71157143Y-143732628D01*
X70614285Y-143389771D02*
X70214285Y-143389771D01*
X70214285Y-143389771D02*
X70471428Y-143989771D01*
X123015714Y-130169771D02*
X123215714Y-129884057D01*
X123358571Y-130169771D02*
X123358571Y-129569771D01*
X123358571Y-129569771D02*
X123130000Y-129569771D01*
X123130000Y-129569771D02*
X123072857Y-129598342D01*
X123072857Y-129598342D02*
X123044286Y-129626914D01*
X123044286Y-129626914D02*
X123015714Y-129684057D01*
X123015714Y-129684057D02*
X123015714Y-129769771D01*
X123015714Y-129769771D02*
X123044286Y-129826914D01*
X123044286Y-129826914D02*
X123072857Y-129855485D01*
X123072857Y-129855485D02*
X123130000Y-129884057D01*
X123130000Y-129884057D02*
X123358571Y-129884057D01*
X122815714Y-129569771D02*
X122415714Y-129569771D01*
X122415714Y-129569771D02*
X122672857Y-130169771D01*
X122101428Y-129826914D02*
X122158571Y-129798342D01*
X122158571Y-129798342D02*
X122187142Y-129769771D01*
X122187142Y-129769771D02*
X122215714Y-129712628D01*
X122215714Y-129712628D02*
X122215714Y-129684057D01*
X122215714Y-129684057D02*
X122187142Y-129626914D01*
X122187142Y-129626914D02*
X122158571Y-129598342D01*
X122158571Y-129598342D02*
X122101428Y-129569771D01*
X122101428Y-129569771D02*
X121987142Y-129569771D01*
X121987142Y-129569771D02*
X121930000Y-129598342D01*
X121930000Y-129598342D02*
X121901428Y-129626914D01*
X121901428Y-129626914D02*
X121872857Y-129684057D01*
X121872857Y-129684057D02*
X121872857Y-129712628D01*
X121872857Y-129712628D02*
X121901428Y-129769771D01*
X121901428Y-129769771D02*
X121930000Y-129798342D01*
X121930000Y-129798342D02*
X121987142Y-129826914D01*
X121987142Y-129826914D02*
X122101428Y-129826914D01*
X122101428Y-129826914D02*
X122158571Y-129855485D01*
X122158571Y-129855485D02*
X122187142Y-129884057D01*
X122187142Y-129884057D02*
X122215714Y-129941200D01*
X122215714Y-129941200D02*
X122215714Y-130055485D01*
X122215714Y-130055485D02*
X122187142Y-130112628D01*
X122187142Y-130112628D02*
X122158571Y-130141200D01*
X122158571Y-130141200D02*
X122101428Y-130169771D01*
X122101428Y-130169771D02*
X121987142Y-130169771D01*
X121987142Y-130169771D02*
X121930000Y-130141200D01*
X121930000Y-130141200D02*
X121901428Y-130112628D01*
X121901428Y-130112628D02*
X121872857Y-130055485D01*
X121872857Y-130055485D02*
X121872857Y-129941200D01*
X121872857Y-129941200D02*
X121901428Y-129884057D01*
X121901428Y-129884057D02*
X121930000Y-129855485D01*
X121930000Y-129855485D02*
X121987142Y-129826914D01*
X54537141Y-131749771D02*
X54537141Y-131149771D01*
X54537141Y-131149771D02*
X54394284Y-131149771D01*
X54394284Y-131149771D02*
X54308570Y-131178342D01*
X54308570Y-131178342D02*
X54251427Y-131235485D01*
X54251427Y-131235485D02*
X54222856Y-131292628D01*
X54222856Y-131292628D02*
X54194284Y-131406914D01*
X54194284Y-131406914D02*
X54194284Y-131492628D01*
X54194284Y-131492628D02*
X54222856Y-131606914D01*
X54222856Y-131606914D02*
X54251427Y-131664057D01*
X54251427Y-131664057D02*
X54308570Y-131721200D01*
X54308570Y-131721200D02*
X54394284Y-131749771D01*
X54394284Y-131749771D02*
X54537141Y-131749771D01*
X53679999Y-131149771D02*
X53794284Y-131149771D01*
X53794284Y-131149771D02*
X53851427Y-131178342D01*
X53851427Y-131178342D02*
X53879999Y-131206914D01*
X53879999Y-131206914D02*
X53937141Y-131292628D01*
X53937141Y-131292628D02*
X53965713Y-131406914D01*
X53965713Y-131406914D02*
X53965713Y-131635485D01*
X53965713Y-131635485D02*
X53937141Y-131692628D01*
X53937141Y-131692628D02*
X53908570Y-131721200D01*
X53908570Y-131721200D02*
X53851427Y-131749771D01*
X53851427Y-131749771D02*
X53737141Y-131749771D01*
X53737141Y-131749771D02*
X53679999Y-131721200D01*
X53679999Y-131721200D02*
X53651427Y-131692628D01*
X53651427Y-131692628D02*
X53622856Y-131635485D01*
X53622856Y-131635485D02*
X53622856Y-131492628D01*
X53622856Y-131492628D02*
X53651427Y-131435485D01*
X53651427Y-131435485D02*
X53679999Y-131406914D01*
X53679999Y-131406914D02*
X53737141Y-131378342D01*
X53737141Y-131378342D02*
X53851427Y-131378342D01*
X53851427Y-131378342D02*
X53908570Y-131406914D01*
X53908570Y-131406914D02*
X53937141Y-131435485D01*
X53937141Y-131435485D02*
X53965713Y-131492628D01*
X71205714Y-125322628D02*
X71234286Y-125351200D01*
X71234286Y-125351200D02*
X71320000Y-125379771D01*
X71320000Y-125379771D02*
X71377143Y-125379771D01*
X71377143Y-125379771D02*
X71462857Y-125351200D01*
X71462857Y-125351200D02*
X71520000Y-125294057D01*
X71520000Y-125294057D02*
X71548571Y-125236914D01*
X71548571Y-125236914D02*
X71577143Y-125122628D01*
X71577143Y-125122628D02*
X71577143Y-125036914D01*
X71577143Y-125036914D02*
X71548571Y-124922628D01*
X71548571Y-124922628D02*
X71520000Y-124865485D01*
X71520000Y-124865485D02*
X71462857Y-124808342D01*
X71462857Y-124808342D02*
X71377143Y-124779771D01*
X71377143Y-124779771D02*
X71320000Y-124779771D01*
X71320000Y-124779771D02*
X71234286Y-124808342D01*
X71234286Y-124808342D02*
X71205714Y-124836914D01*
X70977143Y-124836914D02*
X70948571Y-124808342D01*
X70948571Y-124808342D02*
X70891429Y-124779771D01*
X70891429Y-124779771D02*
X70748571Y-124779771D01*
X70748571Y-124779771D02*
X70691429Y-124808342D01*
X70691429Y-124808342D02*
X70662857Y-124836914D01*
X70662857Y-124836914D02*
X70634286Y-124894057D01*
X70634286Y-124894057D02*
X70634286Y-124951200D01*
X70634286Y-124951200D02*
X70662857Y-125036914D01*
X70662857Y-125036914D02*
X71005714Y-125379771D01*
X71005714Y-125379771D02*
X70634286Y-125379771D01*
X70434285Y-124779771D02*
X70062857Y-124779771D01*
X70062857Y-124779771D02*
X70262857Y-125008342D01*
X70262857Y-125008342D02*
X70177142Y-125008342D01*
X70177142Y-125008342D02*
X70120000Y-125036914D01*
X70120000Y-125036914D02*
X70091428Y-125065485D01*
X70091428Y-125065485D02*
X70062857Y-125122628D01*
X70062857Y-125122628D02*
X70062857Y-125265485D01*
X70062857Y-125265485D02*
X70091428Y-125322628D01*
X70091428Y-125322628D02*
X70120000Y-125351200D01*
X70120000Y-125351200D02*
X70177142Y-125379771D01*
X70177142Y-125379771D02*
X70348571Y-125379771D01*
X70348571Y-125379771D02*
X70405714Y-125351200D01*
X70405714Y-125351200D02*
X70434285Y-125322628D01*
X123015714Y-132162628D02*
X123044286Y-132191200D01*
X123044286Y-132191200D02*
X123130000Y-132219771D01*
X123130000Y-132219771D02*
X123187143Y-132219771D01*
X123187143Y-132219771D02*
X123272857Y-132191200D01*
X123272857Y-132191200D02*
X123330000Y-132134057D01*
X123330000Y-132134057D02*
X123358571Y-132076914D01*
X123358571Y-132076914D02*
X123387143Y-131962628D01*
X123387143Y-131962628D02*
X123387143Y-131876914D01*
X123387143Y-131876914D02*
X123358571Y-131762628D01*
X123358571Y-131762628D02*
X123330000Y-131705485D01*
X123330000Y-131705485D02*
X123272857Y-131648342D01*
X123272857Y-131648342D02*
X123187143Y-131619771D01*
X123187143Y-131619771D02*
X123130000Y-131619771D01*
X123130000Y-131619771D02*
X123044286Y-131648342D01*
X123044286Y-131648342D02*
X123015714Y-131676914D01*
X122815714Y-131619771D02*
X122415714Y-131619771D01*
X122415714Y-131619771D02*
X122672857Y-132219771D01*
X121872857Y-132219771D02*
X122215714Y-132219771D01*
X122044285Y-132219771D02*
X122044285Y-131619771D01*
X122044285Y-131619771D02*
X122101428Y-131705485D01*
X122101428Y-131705485D02*
X122158571Y-131762628D01*
X122158571Y-131762628D02*
X122215714Y-131791200D01*
X118097856Y-87639771D02*
X118097856Y-87039771D01*
X118097856Y-87039771D02*
X117954999Y-87039771D01*
X117954999Y-87039771D02*
X117869285Y-87068342D01*
X117869285Y-87068342D02*
X117812142Y-87125485D01*
X117812142Y-87125485D02*
X117783571Y-87182628D01*
X117783571Y-87182628D02*
X117754999Y-87296914D01*
X117754999Y-87296914D02*
X117754999Y-87382628D01*
X117754999Y-87382628D02*
X117783571Y-87496914D01*
X117783571Y-87496914D02*
X117812142Y-87554057D01*
X117812142Y-87554057D02*
X117869285Y-87611200D01*
X117869285Y-87611200D02*
X117954999Y-87639771D01*
X117954999Y-87639771D02*
X118097856Y-87639771D01*
X117412142Y-87296914D02*
X117469285Y-87268342D01*
X117469285Y-87268342D02*
X117497856Y-87239771D01*
X117497856Y-87239771D02*
X117526428Y-87182628D01*
X117526428Y-87182628D02*
X117526428Y-87154057D01*
X117526428Y-87154057D02*
X117497856Y-87096914D01*
X117497856Y-87096914D02*
X117469285Y-87068342D01*
X117469285Y-87068342D02*
X117412142Y-87039771D01*
X117412142Y-87039771D02*
X117297856Y-87039771D01*
X117297856Y-87039771D02*
X117240714Y-87068342D01*
X117240714Y-87068342D02*
X117212142Y-87096914D01*
X117212142Y-87096914D02*
X117183571Y-87154057D01*
X117183571Y-87154057D02*
X117183571Y-87182628D01*
X117183571Y-87182628D02*
X117212142Y-87239771D01*
X117212142Y-87239771D02*
X117240714Y-87268342D01*
X117240714Y-87268342D02*
X117297856Y-87296914D01*
X117297856Y-87296914D02*
X117412142Y-87296914D01*
X117412142Y-87296914D02*
X117469285Y-87325485D01*
X117469285Y-87325485D02*
X117497856Y-87354057D01*
X117497856Y-87354057D02*
X117526428Y-87411200D01*
X117526428Y-87411200D02*
X117526428Y-87525485D01*
X117526428Y-87525485D02*
X117497856Y-87582628D01*
X117497856Y-87582628D02*
X117469285Y-87611200D01*
X117469285Y-87611200D02*
X117412142Y-87639771D01*
X117412142Y-87639771D02*
X117297856Y-87639771D01*
X117297856Y-87639771D02*
X117240714Y-87611200D01*
X117240714Y-87611200D02*
X117212142Y-87582628D01*
X117212142Y-87582628D02*
X117183571Y-87525485D01*
X117183571Y-87525485D02*
X117183571Y-87411200D01*
X117183571Y-87411200D02*
X117212142Y-87354057D01*
X117212142Y-87354057D02*
X117240714Y-87325485D01*
X117240714Y-87325485D02*
X117297856Y-87296914D01*
X86282856Y-116009771D02*
X86282856Y-115409771D01*
X86282856Y-115409771D02*
X86139999Y-115409771D01*
X86139999Y-115409771D02*
X86054285Y-115438342D01*
X86054285Y-115438342D02*
X85997142Y-115495485D01*
X85997142Y-115495485D02*
X85968571Y-115552628D01*
X85968571Y-115552628D02*
X85939999Y-115666914D01*
X85939999Y-115666914D02*
X85939999Y-115752628D01*
X85939999Y-115752628D02*
X85968571Y-115866914D01*
X85968571Y-115866914D02*
X85997142Y-115924057D01*
X85997142Y-115924057D02*
X86054285Y-115981200D01*
X86054285Y-115981200D02*
X86139999Y-116009771D01*
X86139999Y-116009771D02*
X86282856Y-116009771D01*
X85425714Y-115609771D02*
X85425714Y-116009771D01*
X85568571Y-115381200D02*
X85711428Y-115809771D01*
X85711428Y-115809771D02*
X85339999Y-115809771D01*
X107975714Y-134239771D02*
X108175714Y-133954057D01*
X108318571Y-134239771D02*
X108318571Y-133639771D01*
X108318571Y-133639771D02*
X108090000Y-133639771D01*
X108090000Y-133639771D02*
X108032857Y-133668342D01*
X108032857Y-133668342D02*
X108004286Y-133696914D01*
X108004286Y-133696914D02*
X107975714Y-133754057D01*
X107975714Y-133754057D02*
X107975714Y-133839771D01*
X107975714Y-133839771D02*
X108004286Y-133896914D01*
X108004286Y-133896914D02*
X108032857Y-133925485D01*
X108032857Y-133925485D02*
X108090000Y-133954057D01*
X108090000Y-133954057D02*
X108318571Y-133954057D01*
X107632857Y-133896914D02*
X107690000Y-133868342D01*
X107690000Y-133868342D02*
X107718571Y-133839771D01*
X107718571Y-133839771D02*
X107747143Y-133782628D01*
X107747143Y-133782628D02*
X107747143Y-133754057D01*
X107747143Y-133754057D02*
X107718571Y-133696914D01*
X107718571Y-133696914D02*
X107690000Y-133668342D01*
X107690000Y-133668342D02*
X107632857Y-133639771D01*
X107632857Y-133639771D02*
X107518571Y-133639771D01*
X107518571Y-133639771D02*
X107461429Y-133668342D01*
X107461429Y-133668342D02*
X107432857Y-133696914D01*
X107432857Y-133696914D02*
X107404286Y-133754057D01*
X107404286Y-133754057D02*
X107404286Y-133782628D01*
X107404286Y-133782628D02*
X107432857Y-133839771D01*
X107432857Y-133839771D02*
X107461429Y-133868342D01*
X107461429Y-133868342D02*
X107518571Y-133896914D01*
X107518571Y-133896914D02*
X107632857Y-133896914D01*
X107632857Y-133896914D02*
X107690000Y-133925485D01*
X107690000Y-133925485D02*
X107718571Y-133954057D01*
X107718571Y-133954057D02*
X107747143Y-134011200D01*
X107747143Y-134011200D02*
X107747143Y-134125485D01*
X107747143Y-134125485D02*
X107718571Y-134182628D01*
X107718571Y-134182628D02*
X107690000Y-134211200D01*
X107690000Y-134211200D02*
X107632857Y-134239771D01*
X107632857Y-134239771D02*
X107518571Y-134239771D01*
X107518571Y-134239771D02*
X107461429Y-134211200D01*
X107461429Y-134211200D02*
X107432857Y-134182628D01*
X107432857Y-134182628D02*
X107404286Y-134125485D01*
X107404286Y-134125485D02*
X107404286Y-134011200D01*
X107404286Y-134011200D02*
X107432857Y-133954057D01*
X107432857Y-133954057D02*
X107461429Y-133925485D01*
X107461429Y-133925485D02*
X107518571Y-133896914D01*
X106890000Y-133639771D02*
X107004285Y-133639771D01*
X107004285Y-133639771D02*
X107061428Y-133668342D01*
X107061428Y-133668342D02*
X107090000Y-133696914D01*
X107090000Y-133696914D02*
X107147142Y-133782628D01*
X107147142Y-133782628D02*
X107175714Y-133896914D01*
X107175714Y-133896914D02*
X107175714Y-134125485D01*
X107175714Y-134125485D02*
X107147142Y-134182628D01*
X107147142Y-134182628D02*
X107118571Y-134211200D01*
X107118571Y-134211200D02*
X107061428Y-134239771D01*
X107061428Y-134239771D02*
X106947142Y-134239771D01*
X106947142Y-134239771D02*
X106890000Y-134211200D01*
X106890000Y-134211200D02*
X106861428Y-134182628D01*
X106861428Y-134182628D02*
X106832857Y-134125485D01*
X106832857Y-134125485D02*
X106832857Y-133982628D01*
X106832857Y-133982628D02*
X106861428Y-133925485D01*
X106861428Y-133925485D02*
X106890000Y-133896914D01*
X106890000Y-133896914D02*
X106947142Y-133868342D01*
X106947142Y-133868342D02*
X107061428Y-133868342D01*
X107061428Y-133868342D02*
X107118571Y-133896914D01*
X107118571Y-133896914D02*
X107147142Y-133925485D01*
X107147142Y-133925485D02*
X107175714Y-133982628D01*
X76110714Y-72137628D02*
X76139286Y-72166200D01*
X76139286Y-72166200D02*
X76225000Y-72194771D01*
X76225000Y-72194771D02*
X76282143Y-72194771D01*
X76282143Y-72194771D02*
X76367857Y-72166200D01*
X76367857Y-72166200D02*
X76425000Y-72109057D01*
X76425000Y-72109057D02*
X76453571Y-72051914D01*
X76453571Y-72051914D02*
X76482143Y-71937628D01*
X76482143Y-71937628D02*
X76482143Y-71851914D01*
X76482143Y-71851914D02*
X76453571Y-71737628D01*
X76453571Y-71737628D02*
X76425000Y-71680485D01*
X76425000Y-71680485D02*
X76367857Y-71623342D01*
X76367857Y-71623342D02*
X76282143Y-71594771D01*
X76282143Y-71594771D02*
X76225000Y-71594771D01*
X76225000Y-71594771D02*
X76139286Y-71623342D01*
X76139286Y-71623342D02*
X76110714Y-71651914D01*
X75596429Y-71794771D02*
X75596429Y-72194771D01*
X75739286Y-71566200D02*
X75882143Y-71994771D01*
X75882143Y-71994771D02*
X75510714Y-71994771D01*
X75339285Y-71594771D02*
X74939285Y-71594771D01*
X74939285Y-71594771D02*
X75196428Y-72194771D01*
X78638571Y-72129771D02*
X78638571Y-71529771D01*
X78638571Y-71529771D02*
X78495714Y-71529771D01*
X78495714Y-71529771D02*
X78410000Y-71558342D01*
X78410000Y-71558342D02*
X78352857Y-71615485D01*
X78352857Y-71615485D02*
X78324286Y-71672628D01*
X78324286Y-71672628D02*
X78295714Y-71786914D01*
X78295714Y-71786914D02*
X78295714Y-71872628D01*
X78295714Y-71872628D02*
X78324286Y-71986914D01*
X78324286Y-71986914D02*
X78352857Y-72044057D01*
X78352857Y-72044057D02*
X78410000Y-72101200D01*
X78410000Y-72101200D02*
X78495714Y-72129771D01*
X78495714Y-72129771D02*
X78638571Y-72129771D01*
X78067143Y-71586914D02*
X78038571Y-71558342D01*
X78038571Y-71558342D02*
X77981429Y-71529771D01*
X77981429Y-71529771D02*
X77838571Y-71529771D01*
X77838571Y-71529771D02*
X77781429Y-71558342D01*
X77781429Y-71558342D02*
X77752857Y-71586914D01*
X77752857Y-71586914D02*
X77724286Y-71644057D01*
X77724286Y-71644057D02*
X77724286Y-71701200D01*
X77724286Y-71701200D02*
X77752857Y-71786914D01*
X77752857Y-71786914D02*
X78095714Y-72129771D01*
X78095714Y-72129771D02*
X77724286Y-72129771D01*
X77152857Y-72129771D02*
X77495714Y-72129771D01*
X77324285Y-72129771D02*
X77324285Y-71529771D01*
X77324285Y-71529771D02*
X77381428Y-71615485D01*
X77381428Y-71615485D02*
X77438571Y-71672628D01*
X77438571Y-71672628D02*
X77495714Y-71701200D01*
X137135714Y-93257628D02*
X137164286Y-93286200D01*
X137164286Y-93286200D02*
X137250000Y-93314771D01*
X137250000Y-93314771D02*
X137307143Y-93314771D01*
X137307143Y-93314771D02*
X137392857Y-93286200D01*
X137392857Y-93286200D02*
X137450000Y-93229057D01*
X137450000Y-93229057D02*
X137478571Y-93171914D01*
X137478571Y-93171914D02*
X137507143Y-93057628D01*
X137507143Y-93057628D02*
X137507143Y-92971914D01*
X137507143Y-92971914D02*
X137478571Y-92857628D01*
X137478571Y-92857628D02*
X137450000Y-92800485D01*
X137450000Y-92800485D02*
X137392857Y-92743342D01*
X137392857Y-92743342D02*
X137307143Y-92714771D01*
X137307143Y-92714771D02*
X137250000Y-92714771D01*
X137250000Y-92714771D02*
X137164286Y-92743342D01*
X137164286Y-92743342D02*
X137135714Y-92771914D01*
X136935714Y-92714771D02*
X136564286Y-92714771D01*
X136564286Y-92714771D02*
X136764286Y-92943342D01*
X136764286Y-92943342D02*
X136678571Y-92943342D01*
X136678571Y-92943342D02*
X136621429Y-92971914D01*
X136621429Y-92971914D02*
X136592857Y-93000485D01*
X136592857Y-93000485D02*
X136564286Y-93057628D01*
X136564286Y-93057628D02*
X136564286Y-93200485D01*
X136564286Y-93200485D02*
X136592857Y-93257628D01*
X136592857Y-93257628D02*
X136621429Y-93286200D01*
X136621429Y-93286200D02*
X136678571Y-93314771D01*
X136678571Y-93314771D02*
X136850000Y-93314771D01*
X136850000Y-93314771D02*
X136907143Y-93286200D01*
X136907143Y-93286200D02*
X136935714Y-93257628D01*
X136050000Y-92914771D02*
X136050000Y-93314771D01*
X136192857Y-92686200D02*
X136335714Y-93114771D01*
X136335714Y-93114771D02*
X135964285Y-93114771D01*
X82149999Y-105519771D02*
X82349999Y-105234057D01*
X82492856Y-105519771D02*
X82492856Y-104919771D01*
X82492856Y-104919771D02*
X82264285Y-104919771D01*
X82264285Y-104919771D02*
X82207142Y-104948342D01*
X82207142Y-104948342D02*
X82178571Y-104976914D01*
X82178571Y-104976914D02*
X82149999Y-105034057D01*
X82149999Y-105034057D02*
X82149999Y-105119771D01*
X82149999Y-105119771D02*
X82178571Y-105176914D01*
X82178571Y-105176914D02*
X82207142Y-105205485D01*
X82207142Y-105205485D02*
X82264285Y-105234057D01*
X82264285Y-105234057D02*
X82492856Y-105234057D01*
X81921428Y-104976914D02*
X81892856Y-104948342D01*
X81892856Y-104948342D02*
X81835714Y-104919771D01*
X81835714Y-104919771D02*
X81692856Y-104919771D01*
X81692856Y-104919771D02*
X81635714Y-104948342D01*
X81635714Y-104948342D02*
X81607142Y-104976914D01*
X81607142Y-104976914D02*
X81578571Y-105034057D01*
X81578571Y-105034057D02*
X81578571Y-105091200D01*
X81578571Y-105091200D02*
X81607142Y-105176914D01*
X81607142Y-105176914D02*
X81949999Y-105519771D01*
X81949999Y-105519771D02*
X81578571Y-105519771D01*
X107235714Y-81419771D02*
X107435714Y-81134057D01*
X107578571Y-81419771D02*
X107578571Y-80819771D01*
X107578571Y-80819771D02*
X107350000Y-80819771D01*
X107350000Y-80819771D02*
X107292857Y-80848342D01*
X107292857Y-80848342D02*
X107264286Y-80876914D01*
X107264286Y-80876914D02*
X107235714Y-80934057D01*
X107235714Y-80934057D02*
X107235714Y-81019771D01*
X107235714Y-81019771D02*
X107264286Y-81076914D01*
X107264286Y-81076914D02*
X107292857Y-81105485D01*
X107292857Y-81105485D02*
X107350000Y-81134057D01*
X107350000Y-81134057D02*
X107578571Y-81134057D01*
X107035714Y-80819771D02*
X106664286Y-80819771D01*
X106664286Y-80819771D02*
X106864286Y-81048342D01*
X106864286Y-81048342D02*
X106778571Y-81048342D01*
X106778571Y-81048342D02*
X106721429Y-81076914D01*
X106721429Y-81076914D02*
X106692857Y-81105485D01*
X106692857Y-81105485D02*
X106664286Y-81162628D01*
X106664286Y-81162628D02*
X106664286Y-81305485D01*
X106664286Y-81305485D02*
X106692857Y-81362628D01*
X106692857Y-81362628D02*
X106721429Y-81391200D01*
X106721429Y-81391200D02*
X106778571Y-81419771D01*
X106778571Y-81419771D02*
X106950000Y-81419771D01*
X106950000Y-81419771D02*
X107007143Y-81391200D01*
X107007143Y-81391200D02*
X107035714Y-81362628D01*
X106292857Y-80819771D02*
X106235714Y-80819771D01*
X106235714Y-80819771D02*
X106178571Y-80848342D01*
X106178571Y-80848342D02*
X106150000Y-80876914D01*
X106150000Y-80876914D02*
X106121428Y-80934057D01*
X106121428Y-80934057D02*
X106092857Y-81048342D01*
X106092857Y-81048342D02*
X106092857Y-81191200D01*
X106092857Y-81191200D02*
X106121428Y-81305485D01*
X106121428Y-81305485D02*
X106150000Y-81362628D01*
X106150000Y-81362628D02*
X106178571Y-81391200D01*
X106178571Y-81391200D02*
X106235714Y-81419771D01*
X106235714Y-81419771D02*
X106292857Y-81419771D01*
X106292857Y-81419771D02*
X106350000Y-81391200D01*
X106350000Y-81391200D02*
X106378571Y-81362628D01*
X106378571Y-81362628D02*
X106407142Y-81305485D01*
X106407142Y-81305485D02*
X106435714Y-81191200D01*
X106435714Y-81191200D02*
X106435714Y-81048342D01*
X106435714Y-81048342D02*
X106407142Y-80934057D01*
X106407142Y-80934057D02*
X106378571Y-80876914D01*
X106378571Y-80876914D02*
X106350000Y-80848342D01*
X106350000Y-80848342D02*
X106292857Y-80819771D01*
X55828571Y-72069771D02*
X55828571Y-71469771D01*
X55828571Y-71469771D02*
X55685714Y-71469771D01*
X55685714Y-71469771D02*
X55600000Y-71498342D01*
X55600000Y-71498342D02*
X55542857Y-71555485D01*
X55542857Y-71555485D02*
X55514286Y-71612628D01*
X55514286Y-71612628D02*
X55485714Y-71726914D01*
X55485714Y-71726914D02*
X55485714Y-71812628D01*
X55485714Y-71812628D02*
X55514286Y-71926914D01*
X55514286Y-71926914D02*
X55542857Y-71984057D01*
X55542857Y-71984057D02*
X55600000Y-72041200D01*
X55600000Y-72041200D02*
X55685714Y-72069771D01*
X55685714Y-72069771D02*
X55828571Y-72069771D01*
X55257143Y-71526914D02*
X55228571Y-71498342D01*
X55228571Y-71498342D02*
X55171429Y-71469771D01*
X55171429Y-71469771D02*
X55028571Y-71469771D01*
X55028571Y-71469771D02*
X54971429Y-71498342D01*
X54971429Y-71498342D02*
X54942857Y-71526914D01*
X54942857Y-71526914D02*
X54914286Y-71584057D01*
X54914286Y-71584057D02*
X54914286Y-71641200D01*
X54914286Y-71641200D02*
X54942857Y-71726914D01*
X54942857Y-71726914D02*
X55285714Y-72069771D01*
X55285714Y-72069771D02*
X54914286Y-72069771D01*
X54542857Y-71469771D02*
X54485714Y-71469771D01*
X54485714Y-71469771D02*
X54428571Y-71498342D01*
X54428571Y-71498342D02*
X54400000Y-71526914D01*
X54400000Y-71526914D02*
X54371428Y-71584057D01*
X54371428Y-71584057D02*
X54342857Y-71698342D01*
X54342857Y-71698342D02*
X54342857Y-71841200D01*
X54342857Y-71841200D02*
X54371428Y-71955485D01*
X54371428Y-71955485D02*
X54400000Y-72012628D01*
X54400000Y-72012628D02*
X54428571Y-72041200D01*
X54428571Y-72041200D02*
X54485714Y-72069771D01*
X54485714Y-72069771D02*
X54542857Y-72069771D01*
X54542857Y-72069771D02*
X54600000Y-72041200D01*
X54600000Y-72041200D02*
X54628571Y-72012628D01*
X54628571Y-72012628D02*
X54657142Y-71955485D01*
X54657142Y-71955485D02*
X54685714Y-71841200D01*
X54685714Y-71841200D02*
X54685714Y-71698342D01*
X54685714Y-71698342D02*
X54657142Y-71584057D01*
X54657142Y-71584057D02*
X54628571Y-71526914D01*
X54628571Y-71526914D02*
X54600000Y-71498342D01*
X54600000Y-71498342D02*
X54542857Y-71469771D01*
X104185714Y-104569771D02*
X104385714Y-104284057D01*
X104528571Y-104569771D02*
X104528571Y-103969771D01*
X104528571Y-103969771D02*
X104300000Y-103969771D01*
X104300000Y-103969771D02*
X104242857Y-103998342D01*
X104242857Y-103998342D02*
X104214286Y-104026914D01*
X104214286Y-104026914D02*
X104185714Y-104084057D01*
X104185714Y-104084057D02*
X104185714Y-104169771D01*
X104185714Y-104169771D02*
X104214286Y-104226914D01*
X104214286Y-104226914D02*
X104242857Y-104255485D01*
X104242857Y-104255485D02*
X104300000Y-104284057D01*
X104300000Y-104284057D02*
X104528571Y-104284057D01*
X103900000Y-104569771D02*
X103785714Y-104569771D01*
X103785714Y-104569771D02*
X103728571Y-104541200D01*
X103728571Y-104541200D02*
X103700000Y-104512628D01*
X103700000Y-104512628D02*
X103642857Y-104426914D01*
X103642857Y-104426914D02*
X103614286Y-104312628D01*
X103614286Y-104312628D02*
X103614286Y-104084057D01*
X103614286Y-104084057D02*
X103642857Y-104026914D01*
X103642857Y-104026914D02*
X103671429Y-103998342D01*
X103671429Y-103998342D02*
X103728571Y-103969771D01*
X103728571Y-103969771D02*
X103842857Y-103969771D01*
X103842857Y-103969771D02*
X103900000Y-103998342D01*
X103900000Y-103998342D02*
X103928571Y-104026914D01*
X103928571Y-104026914D02*
X103957143Y-104084057D01*
X103957143Y-104084057D02*
X103957143Y-104226914D01*
X103957143Y-104226914D02*
X103928571Y-104284057D01*
X103928571Y-104284057D02*
X103900000Y-104312628D01*
X103900000Y-104312628D02*
X103842857Y-104341200D01*
X103842857Y-104341200D02*
X103728571Y-104341200D01*
X103728571Y-104341200D02*
X103671429Y-104312628D01*
X103671429Y-104312628D02*
X103642857Y-104284057D01*
X103642857Y-104284057D02*
X103614286Y-104226914D01*
X103271428Y-104226914D02*
X103328571Y-104198342D01*
X103328571Y-104198342D02*
X103357142Y-104169771D01*
X103357142Y-104169771D02*
X103385714Y-104112628D01*
X103385714Y-104112628D02*
X103385714Y-104084057D01*
X103385714Y-104084057D02*
X103357142Y-104026914D01*
X103357142Y-104026914D02*
X103328571Y-103998342D01*
X103328571Y-103998342D02*
X103271428Y-103969771D01*
X103271428Y-103969771D02*
X103157142Y-103969771D01*
X103157142Y-103969771D02*
X103100000Y-103998342D01*
X103100000Y-103998342D02*
X103071428Y-104026914D01*
X103071428Y-104026914D02*
X103042857Y-104084057D01*
X103042857Y-104084057D02*
X103042857Y-104112628D01*
X103042857Y-104112628D02*
X103071428Y-104169771D01*
X103071428Y-104169771D02*
X103100000Y-104198342D01*
X103100000Y-104198342D02*
X103157142Y-104226914D01*
X103157142Y-104226914D02*
X103271428Y-104226914D01*
X103271428Y-104226914D02*
X103328571Y-104255485D01*
X103328571Y-104255485D02*
X103357142Y-104284057D01*
X103357142Y-104284057D02*
X103385714Y-104341200D01*
X103385714Y-104341200D02*
X103385714Y-104455485D01*
X103385714Y-104455485D02*
X103357142Y-104512628D01*
X103357142Y-104512628D02*
X103328571Y-104541200D01*
X103328571Y-104541200D02*
X103271428Y-104569771D01*
X103271428Y-104569771D02*
X103157142Y-104569771D01*
X103157142Y-104569771D02*
X103100000Y-104541200D01*
X103100000Y-104541200D02*
X103071428Y-104512628D01*
X103071428Y-104512628D02*
X103042857Y-104455485D01*
X103042857Y-104455485D02*
X103042857Y-104341200D01*
X103042857Y-104341200D02*
X103071428Y-104284057D01*
X103071428Y-104284057D02*
X103100000Y-104255485D01*
X103100000Y-104255485D02*
X103157142Y-104226914D01*
X82778571Y-81669771D02*
X82778571Y-81069771D01*
X82778571Y-81069771D02*
X82635714Y-81069771D01*
X82635714Y-81069771D02*
X82550000Y-81098342D01*
X82550000Y-81098342D02*
X82492857Y-81155485D01*
X82492857Y-81155485D02*
X82464286Y-81212628D01*
X82464286Y-81212628D02*
X82435714Y-81326914D01*
X82435714Y-81326914D02*
X82435714Y-81412628D01*
X82435714Y-81412628D02*
X82464286Y-81526914D01*
X82464286Y-81526914D02*
X82492857Y-81584057D01*
X82492857Y-81584057D02*
X82550000Y-81641200D01*
X82550000Y-81641200D02*
X82635714Y-81669771D01*
X82635714Y-81669771D02*
X82778571Y-81669771D01*
X81864286Y-81669771D02*
X82207143Y-81669771D01*
X82035714Y-81669771D02*
X82035714Y-81069771D01*
X82035714Y-81069771D02*
X82092857Y-81155485D01*
X82092857Y-81155485D02*
X82150000Y-81212628D01*
X82150000Y-81212628D02*
X82207143Y-81241200D01*
X81492857Y-81069771D02*
X81435714Y-81069771D01*
X81435714Y-81069771D02*
X81378571Y-81098342D01*
X81378571Y-81098342D02*
X81350000Y-81126914D01*
X81350000Y-81126914D02*
X81321428Y-81184057D01*
X81321428Y-81184057D02*
X81292857Y-81298342D01*
X81292857Y-81298342D02*
X81292857Y-81441200D01*
X81292857Y-81441200D02*
X81321428Y-81555485D01*
X81321428Y-81555485D02*
X81350000Y-81612628D01*
X81350000Y-81612628D02*
X81378571Y-81641200D01*
X81378571Y-81641200D02*
X81435714Y-81669771D01*
X81435714Y-81669771D02*
X81492857Y-81669771D01*
X81492857Y-81669771D02*
X81550000Y-81641200D01*
X81550000Y-81641200D02*
X81578571Y-81612628D01*
X81578571Y-81612628D02*
X81607142Y-81555485D01*
X81607142Y-81555485D02*
X81635714Y-81441200D01*
X81635714Y-81441200D02*
X81635714Y-81298342D01*
X81635714Y-81298342D02*
X81607142Y-81184057D01*
X81607142Y-81184057D02*
X81578571Y-81126914D01*
X81578571Y-81126914D02*
X81550000Y-81098342D01*
X81550000Y-81098342D02*
X81492857Y-81069771D01*
X84299999Y-116009771D02*
X84499999Y-115724057D01*
X84642856Y-116009771D02*
X84642856Y-115409771D01*
X84642856Y-115409771D02*
X84414285Y-115409771D01*
X84414285Y-115409771D02*
X84357142Y-115438342D01*
X84357142Y-115438342D02*
X84328571Y-115466914D01*
X84328571Y-115466914D02*
X84299999Y-115524057D01*
X84299999Y-115524057D02*
X84299999Y-115609771D01*
X84299999Y-115609771D02*
X84328571Y-115666914D01*
X84328571Y-115666914D02*
X84357142Y-115695485D01*
X84357142Y-115695485D02*
X84414285Y-115724057D01*
X84414285Y-115724057D02*
X84642856Y-115724057D01*
X83957142Y-115666914D02*
X84014285Y-115638342D01*
X84014285Y-115638342D02*
X84042856Y-115609771D01*
X84042856Y-115609771D02*
X84071428Y-115552628D01*
X84071428Y-115552628D02*
X84071428Y-115524057D01*
X84071428Y-115524057D02*
X84042856Y-115466914D01*
X84042856Y-115466914D02*
X84014285Y-115438342D01*
X84014285Y-115438342D02*
X83957142Y-115409771D01*
X83957142Y-115409771D02*
X83842856Y-115409771D01*
X83842856Y-115409771D02*
X83785714Y-115438342D01*
X83785714Y-115438342D02*
X83757142Y-115466914D01*
X83757142Y-115466914D02*
X83728571Y-115524057D01*
X83728571Y-115524057D02*
X83728571Y-115552628D01*
X83728571Y-115552628D02*
X83757142Y-115609771D01*
X83757142Y-115609771D02*
X83785714Y-115638342D01*
X83785714Y-115638342D02*
X83842856Y-115666914D01*
X83842856Y-115666914D02*
X83957142Y-115666914D01*
X83957142Y-115666914D02*
X84014285Y-115695485D01*
X84014285Y-115695485D02*
X84042856Y-115724057D01*
X84042856Y-115724057D02*
X84071428Y-115781200D01*
X84071428Y-115781200D02*
X84071428Y-115895485D01*
X84071428Y-115895485D02*
X84042856Y-115952628D01*
X84042856Y-115952628D02*
X84014285Y-115981200D01*
X84014285Y-115981200D02*
X83957142Y-116009771D01*
X83957142Y-116009771D02*
X83842856Y-116009771D01*
X83842856Y-116009771D02*
X83785714Y-115981200D01*
X83785714Y-115981200D02*
X83757142Y-115952628D01*
X83757142Y-115952628D02*
X83728571Y-115895485D01*
X83728571Y-115895485D02*
X83728571Y-115781200D01*
X83728571Y-115781200D02*
X83757142Y-115724057D01*
X83757142Y-115724057D02*
X83785714Y-115695485D01*
X83785714Y-115695485D02*
X83842856Y-115666914D01*
X107235714Y-79719771D02*
X107435714Y-79434057D01*
X107578571Y-79719771D02*
X107578571Y-79119771D01*
X107578571Y-79119771D02*
X107350000Y-79119771D01*
X107350000Y-79119771D02*
X107292857Y-79148342D01*
X107292857Y-79148342D02*
X107264286Y-79176914D01*
X107264286Y-79176914D02*
X107235714Y-79234057D01*
X107235714Y-79234057D02*
X107235714Y-79319771D01*
X107235714Y-79319771D02*
X107264286Y-79376914D01*
X107264286Y-79376914D02*
X107292857Y-79405485D01*
X107292857Y-79405485D02*
X107350000Y-79434057D01*
X107350000Y-79434057D02*
X107578571Y-79434057D01*
X107035714Y-79119771D02*
X106664286Y-79119771D01*
X106664286Y-79119771D02*
X106864286Y-79348342D01*
X106864286Y-79348342D02*
X106778571Y-79348342D01*
X106778571Y-79348342D02*
X106721429Y-79376914D01*
X106721429Y-79376914D02*
X106692857Y-79405485D01*
X106692857Y-79405485D02*
X106664286Y-79462628D01*
X106664286Y-79462628D02*
X106664286Y-79605485D01*
X106664286Y-79605485D02*
X106692857Y-79662628D01*
X106692857Y-79662628D02*
X106721429Y-79691200D01*
X106721429Y-79691200D02*
X106778571Y-79719771D01*
X106778571Y-79719771D02*
X106950000Y-79719771D01*
X106950000Y-79719771D02*
X107007143Y-79691200D01*
X107007143Y-79691200D02*
X107035714Y-79662628D01*
X106092857Y-79719771D02*
X106435714Y-79719771D01*
X106264285Y-79719771D02*
X106264285Y-79119771D01*
X106264285Y-79119771D02*
X106321428Y-79205485D01*
X106321428Y-79205485D02*
X106378571Y-79262628D01*
X106378571Y-79262628D02*
X106435714Y-79291200D01*
X88515714Y-109962628D02*
X88544286Y-109991200D01*
X88544286Y-109991200D02*
X88630000Y-110019771D01*
X88630000Y-110019771D02*
X88687143Y-110019771D01*
X88687143Y-110019771D02*
X88772857Y-109991200D01*
X88772857Y-109991200D02*
X88830000Y-109934057D01*
X88830000Y-109934057D02*
X88858571Y-109876914D01*
X88858571Y-109876914D02*
X88887143Y-109762628D01*
X88887143Y-109762628D02*
X88887143Y-109676914D01*
X88887143Y-109676914D02*
X88858571Y-109562628D01*
X88858571Y-109562628D02*
X88830000Y-109505485D01*
X88830000Y-109505485D02*
X88772857Y-109448342D01*
X88772857Y-109448342D02*
X88687143Y-109419771D01*
X88687143Y-109419771D02*
X88630000Y-109419771D01*
X88630000Y-109419771D02*
X88544286Y-109448342D01*
X88544286Y-109448342D02*
X88515714Y-109476914D01*
X87944286Y-110019771D02*
X88287143Y-110019771D01*
X88115714Y-110019771D02*
X88115714Y-109419771D01*
X88115714Y-109419771D02*
X88172857Y-109505485D01*
X88172857Y-109505485D02*
X88230000Y-109562628D01*
X88230000Y-109562628D02*
X88287143Y-109591200D01*
X87744285Y-109419771D02*
X87372857Y-109419771D01*
X87372857Y-109419771D02*
X87572857Y-109648342D01*
X87572857Y-109648342D02*
X87487142Y-109648342D01*
X87487142Y-109648342D02*
X87430000Y-109676914D01*
X87430000Y-109676914D02*
X87401428Y-109705485D01*
X87401428Y-109705485D02*
X87372857Y-109762628D01*
X87372857Y-109762628D02*
X87372857Y-109905485D01*
X87372857Y-109905485D02*
X87401428Y-109962628D01*
X87401428Y-109962628D02*
X87430000Y-109991200D01*
X87430000Y-109991200D02*
X87487142Y-110019771D01*
X87487142Y-110019771D02*
X87658571Y-110019771D01*
X87658571Y-110019771D02*
X87715714Y-109991200D01*
X87715714Y-109991200D02*
X87744285Y-109962628D01*
X51587143Y-74686771D02*
X51244286Y-74686771D01*
X51415714Y-75286771D02*
X51415714Y-74686771D01*
X51044285Y-75286771D02*
X51044285Y-74686771D01*
X51044285Y-74686771D02*
X50815714Y-74686771D01*
X50815714Y-74686771D02*
X50758571Y-74715342D01*
X50758571Y-74715342D02*
X50730000Y-74743914D01*
X50730000Y-74743914D02*
X50701428Y-74801057D01*
X50701428Y-74801057D02*
X50701428Y-74886771D01*
X50701428Y-74886771D02*
X50730000Y-74943914D01*
X50730000Y-74943914D02*
X50758571Y-74972485D01*
X50758571Y-74972485D02*
X50815714Y-75001057D01*
X50815714Y-75001057D02*
X51044285Y-75001057D01*
X50187143Y-74686771D02*
X50301428Y-74686771D01*
X50301428Y-74686771D02*
X50358571Y-74715342D01*
X50358571Y-74715342D02*
X50387143Y-74743914D01*
X50387143Y-74743914D02*
X50444285Y-74829628D01*
X50444285Y-74829628D02*
X50472857Y-74943914D01*
X50472857Y-74943914D02*
X50472857Y-75172485D01*
X50472857Y-75172485D02*
X50444285Y-75229628D01*
X50444285Y-75229628D02*
X50415714Y-75258200D01*
X50415714Y-75258200D02*
X50358571Y-75286771D01*
X50358571Y-75286771D02*
X50244285Y-75286771D01*
X50244285Y-75286771D02*
X50187143Y-75258200D01*
X50187143Y-75258200D02*
X50158571Y-75229628D01*
X50158571Y-75229628D02*
X50130000Y-75172485D01*
X50130000Y-75172485D02*
X50130000Y-75029628D01*
X50130000Y-75029628D02*
X50158571Y-74972485D01*
X50158571Y-74972485D02*
X50187143Y-74943914D01*
X50187143Y-74943914D02*
X50244285Y-74915342D01*
X50244285Y-74915342D02*
X50358571Y-74915342D01*
X50358571Y-74915342D02*
X50415714Y-74943914D01*
X50415714Y-74943914D02*
X50444285Y-74972485D01*
X50444285Y-74972485D02*
X50472857Y-75029628D01*
X85959999Y-105519771D02*
X86159999Y-105234057D01*
X86302856Y-105519771D02*
X86302856Y-104919771D01*
X86302856Y-104919771D02*
X86074285Y-104919771D01*
X86074285Y-104919771D02*
X86017142Y-104948342D01*
X86017142Y-104948342D02*
X85988571Y-104976914D01*
X85988571Y-104976914D02*
X85959999Y-105034057D01*
X85959999Y-105034057D02*
X85959999Y-105119771D01*
X85959999Y-105119771D02*
X85988571Y-105176914D01*
X85988571Y-105176914D02*
X86017142Y-105205485D01*
X86017142Y-105205485D02*
X86074285Y-105234057D01*
X86074285Y-105234057D02*
X86302856Y-105234057D01*
X85759999Y-104919771D02*
X85388571Y-104919771D01*
X85388571Y-104919771D02*
X85588571Y-105148342D01*
X85588571Y-105148342D02*
X85502856Y-105148342D01*
X85502856Y-105148342D02*
X85445714Y-105176914D01*
X85445714Y-105176914D02*
X85417142Y-105205485D01*
X85417142Y-105205485D02*
X85388571Y-105262628D01*
X85388571Y-105262628D02*
X85388571Y-105405485D01*
X85388571Y-105405485D02*
X85417142Y-105462628D01*
X85417142Y-105462628D02*
X85445714Y-105491200D01*
X85445714Y-105491200D02*
X85502856Y-105519771D01*
X85502856Y-105519771D02*
X85674285Y-105519771D01*
X85674285Y-105519771D02*
X85731428Y-105491200D01*
X85731428Y-105491200D02*
X85759999Y-105462628D01*
X64942856Y-87899771D02*
X64942856Y-88385485D01*
X64942856Y-88385485D02*
X64914285Y-88442628D01*
X64914285Y-88442628D02*
X64885714Y-88471200D01*
X64885714Y-88471200D02*
X64828571Y-88499771D01*
X64828571Y-88499771D02*
X64714285Y-88499771D01*
X64714285Y-88499771D02*
X64657142Y-88471200D01*
X64657142Y-88471200D02*
X64628571Y-88442628D01*
X64628571Y-88442628D02*
X64599999Y-88385485D01*
X64599999Y-88385485D02*
X64599999Y-87899771D01*
X64000000Y-88499771D02*
X64342857Y-88499771D01*
X64171428Y-88499771D02*
X64171428Y-87899771D01*
X64171428Y-87899771D02*
X64228571Y-87985485D01*
X64228571Y-87985485D02*
X64285714Y-88042628D01*
X64285714Y-88042628D02*
X64342857Y-88071200D01*
X63428571Y-88499771D02*
X63771428Y-88499771D01*
X63599999Y-88499771D02*
X63599999Y-87899771D01*
X63599999Y-87899771D02*
X63657142Y-87985485D01*
X63657142Y-87985485D02*
X63714285Y-88042628D01*
X63714285Y-88042628D02*
X63771428Y-88071200D01*
X72710714Y-72137628D02*
X72739286Y-72166200D01*
X72739286Y-72166200D02*
X72825000Y-72194771D01*
X72825000Y-72194771D02*
X72882143Y-72194771D01*
X72882143Y-72194771D02*
X72967857Y-72166200D01*
X72967857Y-72166200D02*
X73025000Y-72109057D01*
X73025000Y-72109057D02*
X73053571Y-72051914D01*
X73053571Y-72051914D02*
X73082143Y-71937628D01*
X73082143Y-71937628D02*
X73082143Y-71851914D01*
X73082143Y-71851914D02*
X73053571Y-71737628D01*
X73053571Y-71737628D02*
X73025000Y-71680485D01*
X73025000Y-71680485D02*
X72967857Y-71623342D01*
X72967857Y-71623342D02*
X72882143Y-71594771D01*
X72882143Y-71594771D02*
X72825000Y-71594771D01*
X72825000Y-71594771D02*
X72739286Y-71623342D01*
X72739286Y-71623342D02*
X72710714Y-71651914D01*
X72196429Y-71794771D02*
X72196429Y-72194771D01*
X72339286Y-71566200D02*
X72482143Y-71994771D01*
X72482143Y-71994771D02*
X72110714Y-71994771D01*
X71853571Y-72194771D02*
X71739285Y-72194771D01*
X71739285Y-72194771D02*
X71682142Y-72166200D01*
X71682142Y-72166200D02*
X71653571Y-72137628D01*
X71653571Y-72137628D02*
X71596428Y-72051914D01*
X71596428Y-72051914D02*
X71567857Y-71937628D01*
X71567857Y-71937628D02*
X71567857Y-71709057D01*
X71567857Y-71709057D02*
X71596428Y-71651914D01*
X71596428Y-71651914D02*
X71625000Y-71623342D01*
X71625000Y-71623342D02*
X71682142Y-71594771D01*
X71682142Y-71594771D02*
X71796428Y-71594771D01*
X71796428Y-71594771D02*
X71853571Y-71623342D01*
X71853571Y-71623342D02*
X71882142Y-71651914D01*
X71882142Y-71651914D02*
X71910714Y-71709057D01*
X71910714Y-71709057D02*
X71910714Y-71851914D01*
X71910714Y-71851914D02*
X71882142Y-71909057D01*
X71882142Y-71909057D02*
X71853571Y-71937628D01*
X71853571Y-71937628D02*
X71796428Y-71966200D01*
X71796428Y-71966200D02*
X71682142Y-71966200D01*
X71682142Y-71966200D02*
X71625000Y-71937628D01*
X71625000Y-71937628D02*
X71596428Y-71909057D01*
X71596428Y-71909057D02*
X71567857Y-71851914D01*
X74205356Y-121499771D02*
X74205356Y-120899771D01*
X74205356Y-120899771D02*
X74062499Y-120899771D01*
X74062499Y-120899771D02*
X73976785Y-120928342D01*
X73976785Y-120928342D02*
X73919642Y-120985485D01*
X73919642Y-120985485D02*
X73891071Y-121042628D01*
X73891071Y-121042628D02*
X73862499Y-121156914D01*
X73862499Y-121156914D02*
X73862499Y-121242628D01*
X73862499Y-121242628D02*
X73891071Y-121356914D01*
X73891071Y-121356914D02*
X73919642Y-121414057D01*
X73919642Y-121414057D02*
X73976785Y-121471200D01*
X73976785Y-121471200D02*
X74062499Y-121499771D01*
X74062499Y-121499771D02*
X74205356Y-121499771D01*
X73319642Y-120899771D02*
X73605356Y-120899771D01*
X73605356Y-120899771D02*
X73633928Y-121185485D01*
X73633928Y-121185485D02*
X73605356Y-121156914D01*
X73605356Y-121156914D02*
X73548214Y-121128342D01*
X73548214Y-121128342D02*
X73405356Y-121128342D01*
X73405356Y-121128342D02*
X73348214Y-121156914D01*
X73348214Y-121156914D02*
X73319642Y-121185485D01*
X73319642Y-121185485D02*
X73291071Y-121242628D01*
X73291071Y-121242628D02*
X73291071Y-121385485D01*
X73291071Y-121385485D02*
X73319642Y-121442628D01*
X73319642Y-121442628D02*
X73348214Y-121471200D01*
X73348214Y-121471200D02*
X73405356Y-121499771D01*
X73405356Y-121499771D02*
X73548214Y-121499771D01*
X73548214Y-121499771D02*
X73605356Y-121471200D01*
X73605356Y-121471200D02*
X73633928Y-121442628D01*
X67955714Y-121722628D02*
X67984286Y-121751200D01*
X67984286Y-121751200D02*
X68070000Y-121779771D01*
X68070000Y-121779771D02*
X68127143Y-121779771D01*
X68127143Y-121779771D02*
X68212857Y-121751200D01*
X68212857Y-121751200D02*
X68270000Y-121694057D01*
X68270000Y-121694057D02*
X68298571Y-121636914D01*
X68298571Y-121636914D02*
X68327143Y-121522628D01*
X68327143Y-121522628D02*
X68327143Y-121436914D01*
X68327143Y-121436914D02*
X68298571Y-121322628D01*
X68298571Y-121322628D02*
X68270000Y-121265485D01*
X68270000Y-121265485D02*
X68212857Y-121208342D01*
X68212857Y-121208342D02*
X68127143Y-121179771D01*
X68127143Y-121179771D02*
X68070000Y-121179771D01*
X68070000Y-121179771D02*
X67984286Y-121208342D01*
X67984286Y-121208342D02*
X67955714Y-121236914D01*
X67384286Y-121779771D02*
X67727143Y-121779771D01*
X67555714Y-121779771D02*
X67555714Y-121179771D01*
X67555714Y-121179771D02*
X67612857Y-121265485D01*
X67612857Y-121265485D02*
X67670000Y-121322628D01*
X67670000Y-121322628D02*
X67727143Y-121351200D01*
X67041428Y-121436914D02*
X67098571Y-121408342D01*
X67098571Y-121408342D02*
X67127142Y-121379771D01*
X67127142Y-121379771D02*
X67155714Y-121322628D01*
X67155714Y-121322628D02*
X67155714Y-121294057D01*
X67155714Y-121294057D02*
X67127142Y-121236914D01*
X67127142Y-121236914D02*
X67098571Y-121208342D01*
X67098571Y-121208342D02*
X67041428Y-121179771D01*
X67041428Y-121179771D02*
X66927142Y-121179771D01*
X66927142Y-121179771D02*
X66870000Y-121208342D01*
X66870000Y-121208342D02*
X66841428Y-121236914D01*
X66841428Y-121236914D02*
X66812857Y-121294057D01*
X66812857Y-121294057D02*
X66812857Y-121322628D01*
X66812857Y-121322628D02*
X66841428Y-121379771D01*
X66841428Y-121379771D02*
X66870000Y-121408342D01*
X66870000Y-121408342D02*
X66927142Y-121436914D01*
X66927142Y-121436914D02*
X67041428Y-121436914D01*
X67041428Y-121436914D02*
X67098571Y-121465485D01*
X67098571Y-121465485D02*
X67127142Y-121494057D01*
X67127142Y-121494057D02*
X67155714Y-121551200D01*
X67155714Y-121551200D02*
X67155714Y-121665485D01*
X67155714Y-121665485D02*
X67127142Y-121722628D01*
X67127142Y-121722628D02*
X67098571Y-121751200D01*
X67098571Y-121751200D02*
X67041428Y-121779771D01*
X67041428Y-121779771D02*
X66927142Y-121779771D01*
X66927142Y-121779771D02*
X66870000Y-121751200D01*
X66870000Y-121751200D02*
X66841428Y-121722628D01*
X66841428Y-121722628D02*
X66812857Y-121665485D01*
X66812857Y-121665485D02*
X66812857Y-121551200D01*
X66812857Y-121551200D02*
X66841428Y-121494057D01*
X66841428Y-121494057D02*
X66870000Y-121465485D01*
X66870000Y-121465485D02*
X66927142Y-121436914D01*
X55172856Y-117069771D02*
X55172856Y-116469771D01*
X55172856Y-116469771D02*
X55029999Y-116469771D01*
X55029999Y-116469771D02*
X54944285Y-116498342D01*
X54944285Y-116498342D02*
X54887142Y-116555485D01*
X54887142Y-116555485D02*
X54858571Y-116612628D01*
X54858571Y-116612628D02*
X54829999Y-116726914D01*
X54829999Y-116726914D02*
X54829999Y-116812628D01*
X54829999Y-116812628D02*
X54858571Y-116926914D01*
X54858571Y-116926914D02*
X54887142Y-116984057D01*
X54887142Y-116984057D02*
X54944285Y-117041200D01*
X54944285Y-117041200D02*
X55029999Y-117069771D01*
X55029999Y-117069771D02*
X55172856Y-117069771D01*
X54601428Y-116526914D02*
X54572856Y-116498342D01*
X54572856Y-116498342D02*
X54515714Y-116469771D01*
X54515714Y-116469771D02*
X54372856Y-116469771D01*
X54372856Y-116469771D02*
X54315714Y-116498342D01*
X54315714Y-116498342D02*
X54287142Y-116526914D01*
X54287142Y-116526914D02*
X54258571Y-116584057D01*
X54258571Y-116584057D02*
X54258571Y-116641200D01*
X54258571Y-116641200D02*
X54287142Y-116726914D01*
X54287142Y-116726914D02*
X54629999Y-117069771D01*
X54629999Y-117069771D02*
X54258571Y-117069771D01*
X97503571Y-72069771D02*
X97503571Y-71469771D01*
X97503571Y-71469771D02*
X97360714Y-71469771D01*
X97360714Y-71469771D02*
X97275000Y-71498342D01*
X97275000Y-71498342D02*
X97217857Y-71555485D01*
X97217857Y-71555485D02*
X97189286Y-71612628D01*
X97189286Y-71612628D02*
X97160714Y-71726914D01*
X97160714Y-71726914D02*
X97160714Y-71812628D01*
X97160714Y-71812628D02*
X97189286Y-71926914D01*
X97189286Y-71926914D02*
X97217857Y-71984057D01*
X97217857Y-71984057D02*
X97275000Y-72041200D01*
X97275000Y-72041200D02*
X97360714Y-72069771D01*
X97360714Y-72069771D02*
X97503571Y-72069771D01*
X96589286Y-72069771D02*
X96932143Y-72069771D01*
X96760714Y-72069771D02*
X96760714Y-71469771D01*
X96760714Y-71469771D02*
X96817857Y-71555485D01*
X96817857Y-71555485D02*
X96875000Y-71612628D01*
X96875000Y-71612628D02*
X96932143Y-71641200D01*
X96017857Y-72069771D02*
X96360714Y-72069771D01*
X96189285Y-72069771D02*
X96189285Y-71469771D01*
X96189285Y-71469771D02*
X96246428Y-71555485D01*
X96246428Y-71555485D02*
X96303571Y-71612628D01*
X96303571Y-71612628D02*
X96360714Y-71641200D01*
X78490714Y-83762628D02*
X78519286Y-83791200D01*
X78519286Y-83791200D02*
X78605000Y-83819771D01*
X78605000Y-83819771D02*
X78662143Y-83819771D01*
X78662143Y-83819771D02*
X78747857Y-83791200D01*
X78747857Y-83791200D02*
X78805000Y-83734057D01*
X78805000Y-83734057D02*
X78833571Y-83676914D01*
X78833571Y-83676914D02*
X78862143Y-83562628D01*
X78862143Y-83562628D02*
X78862143Y-83476914D01*
X78862143Y-83476914D02*
X78833571Y-83362628D01*
X78833571Y-83362628D02*
X78805000Y-83305485D01*
X78805000Y-83305485D02*
X78747857Y-83248342D01*
X78747857Y-83248342D02*
X78662143Y-83219771D01*
X78662143Y-83219771D02*
X78605000Y-83219771D01*
X78605000Y-83219771D02*
X78519286Y-83248342D01*
X78519286Y-83248342D02*
X78490714Y-83276914D01*
X77947857Y-83219771D02*
X78233571Y-83219771D01*
X78233571Y-83219771D02*
X78262143Y-83505485D01*
X78262143Y-83505485D02*
X78233571Y-83476914D01*
X78233571Y-83476914D02*
X78176429Y-83448342D01*
X78176429Y-83448342D02*
X78033571Y-83448342D01*
X78033571Y-83448342D02*
X77976429Y-83476914D01*
X77976429Y-83476914D02*
X77947857Y-83505485D01*
X77947857Y-83505485D02*
X77919286Y-83562628D01*
X77919286Y-83562628D02*
X77919286Y-83705485D01*
X77919286Y-83705485D02*
X77947857Y-83762628D01*
X77947857Y-83762628D02*
X77976429Y-83791200D01*
X77976429Y-83791200D02*
X78033571Y-83819771D01*
X78033571Y-83819771D02*
X78176429Y-83819771D01*
X78176429Y-83819771D02*
X78233571Y-83791200D01*
X78233571Y-83791200D02*
X78262143Y-83762628D01*
X77547857Y-83219771D02*
X77490714Y-83219771D01*
X77490714Y-83219771D02*
X77433571Y-83248342D01*
X77433571Y-83248342D02*
X77405000Y-83276914D01*
X77405000Y-83276914D02*
X77376428Y-83334057D01*
X77376428Y-83334057D02*
X77347857Y-83448342D01*
X77347857Y-83448342D02*
X77347857Y-83591200D01*
X77347857Y-83591200D02*
X77376428Y-83705485D01*
X77376428Y-83705485D02*
X77405000Y-83762628D01*
X77405000Y-83762628D02*
X77433571Y-83791200D01*
X77433571Y-83791200D02*
X77490714Y-83819771D01*
X77490714Y-83819771D02*
X77547857Y-83819771D01*
X77547857Y-83819771D02*
X77605000Y-83791200D01*
X77605000Y-83791200D02*
X77633571Y-83762628D01*
X77633571Y-83762628D02*
X77662142Y-83705485D01*
X77662142Y-83705485D02*
X77690714Y-83591200D01*
X77690714Y-83591200D02*
X77690714Y-83448342D01*
X77690714Y-83448342D02*
X77662142Y-83334057D01*
X77662142Y-83334057D02*
X77633571Y-83276914D01*
X77633571Y-83276914D02*
X77605000Y-83248342D01*
X77605000Y-83248342D02*
X77547857Y-83219771D01*
X69310714Y-95062628D02*
X69339286Y-95091200D01*
X69339286Y-95091200D02*
X69425000Y-95119771D01*
X69425000Y-95119771D02*
X69482143Y-95119771D01*
X69482143Y-95119771D02*
X69567857Y-95091200D01*
X69567857Y-95091200D02*
X69625000Y-95034057D01*
X69625000Y-95034057D02*
X69653571Y-94976914D01*
X69653571Y-94976914D02*
X69682143Y-94862628D01*
X69682143Y-94862628D02*
X69682143Y-94776914D01*
X69682143Y-94776914D02*
X69653571Y-94662628D01*
X69653571Y-94662628D02*
X69625000Y-94605485D01*
X69625000Y-94605485D02*
X69567857Y-94548342D01*
X69567857Y-94548342D02*
X69482143Y-94519771D01*
X69482143Y-94519771D02*
X69425000Y-94519771D01*
X69425000Y-94519771D02*
X69339286Y-94548342D01*
X69339286Y-94548342D02*
X69310714Y-94576914D01*
X69110714Y-94519771D02*
X68739286Y-94519771D01*
X68739286Y-94519771D02*
X68939286Y-94748342D01*
X68939286Y-94748342D02*
X68853571Y-94748342D01*
X68853571Y-94748342D02*
X68796429Y-94776914D01*
X68796429Y-94776914D02*
X68767857Y-94805485D01*
X68767857Y-94805485D02*
X68739286Y-94862628D01*
X68739286Y-94862628D02*
X68739286Y-95005485D01*
X68739286Y-95005485D02*
X68767857Y-95062628D01*
X68767857Y-95062628D02*
X68796429Y-95091200D01*
X68796429Y-95091200D02*
X68853571Y-95119771D01*
X68853571Y-95119771D02*
X69025000Y-95119771D01*
X69025000Y-95119771D02*
X69082143Y-95091200D01*
X69082143Y-95091200D02*
X69110714Y-95062628D01*
X68396428Y-94776914D02*
X68453571Y-94748342D01*
X68453571Y-94748342D02*
X68482142Y-94719771D01*
X68482142Y-94719771D02*
X68510714Y-94662628D01*
X68510714Y-94662628D02*
X68510714Y-94634057D01*
X68510714Y-94634057D02*
X68482142Y-94576914D01*
X68482142Y-94576914D02*
X68453571Y-94548342D01*
X68453571Y-94548342D02*
X68396428Y-94519771D01*
X68396428Y-94519771D02*
X68282142Y-94519771D01*
X68282142Y-94519771D02*
X68225000Y-94548342D01*
X68225000Y-94548342D02*
X68196428Y-94576914D01*
X68196428Y-94576914D02*
X68167857Y-94634057D01*
X68167857Y-94634057D02*
X68167857Y-94662628D01*
X68167857Y-94662628D02*
X68196428Y-94719771D01*
X68196428Y-94719771D02*
X68225000Y-94748342D01*
X68225000Y-94748342D02*
X68282142Y-94776914D01*
X68282142Y-94776914D02*
X68396428Y-94776914D01*
X68396428Y-94776914D02*
X68453571Y-94805485D01*
X68453571Y-94805485D02*
X68482142Y-94834057D01*
X68482142Y-94834057D02*
X68510714Y-94891200D01*
X68510714Y-94891200D02*
X68510714Y-95005485D01*
X68510714Y-95005485D02*
X68482142Y-95062628D01*
X68482142Y-95062628D02*
X68453571Y-95091200D01*
X68453571Y-95091200D02*
X68396428Y-95119771D01*
X68396428Y-95119771D02*
X68282142Y-95119771D01*
X68282142Y-95119771D02*
X68225000Y-95091200D01*
X68225000Y-95091200D02*
X68196428Y-95062628D01*
X68196428Y-95062628D02*
X68167857Y-95005485D01*
X68167857Y-95005485D02*
X68167857Y-94891200D01*
X68167857Y-94891200D02*
X68196428Y-94834057D01*
X68196428Y-94834057D02*
X68225000Y-94805485D01*
X68225000Y-94805485D02*
X68282142Y-94776914D01*
X49509999Y-97064771D02*
X49709999Y-96779057D01*
X49852856Y-97064771D02*
X49852856Y-96464771D01*
X49852856Y-96464771D02*
X49624285Y-96464771D01*
X49624285Y-96464771D02*
X49567142Y-96493342D01*
X49567142Y-96493342D02*
X49538571Y-96521914D01*
X49538571Y-96521914D02*
X49509999Y-96579057D01*
X49509999Y-96579057D02*
X49509999Y-96664771D01*
X49509999Y-96664771D02*
X49538571Y-96721914D01*
X49538571Y-96721914D02*
X49567142Y-96750485D01*
X49567142Y-96750485D02*
X49624285Y-96779057D01*
X49624285Y-96779057D02*
X49852856Y-96779057D01*
X48938571Y-97064771D02*
X49281428Y-97064771D01*
X49109999Y-97064771D02*
X49109999Y-96464771D01*
X49109999Y-96464771D02*
X49167142Y-96550485D01*
X49167142Y-96550485D02*
X49224285Y-96607628D01*
X49224285Y-96607628D02*
X49281428Y-96636200D01*
X72304642Y-109469771D02*
X72304642Y-109955485D01*
X72304642Y-109955485D02*
X72276071Y-110012628D01*
X72276071Y-110012628D02*
X72247500Y-110041200D01*
X72247500Y-110041200D02*
X72190357Y-110069771D01*
X72190357Y-110069771D02*
X72076071Y-110069771D01*
X72076071Y-110069771D02*
X72018928Y-110041200D01*
X72018928Y-110041200D02*
X71990357Y-110012628D01*
X71990357Y-110012628D02*
X71961785Y-109955485D01*
X71961785Y-109955485D02*
X71961785Y-109469771D01*
X71704643Y-109526914D02*
X71676071Y-109498342D01*
X71676071Y-109498342D02*
X71618929Y-109469771D01*
X71618929Y-109469771D02*
X71476071Y-109469771D01*
X71476071Y-109469771D02*
X71418929Y-109498342D01*
X71418929Y-109498342D02*
X71390357Y-109526914D01*
X71390357Y-109526914D02*
X71361786Y-109584057D01*
X71361786Y-109584057D02*
X71361786Y-109641200D01*
X71361786Y-109641200D02*
X71390357Y-109726914D01*
X71390357Y-109726914D02*
X71733214Y-110069771D01*
X71733214Y-110069771D02*
X71361786Y-110069771D01*
X98885714Y-143932628D02*
X98914286Y-143961200D01*
X98914286Y-143961200D02*
X99000000Y-143989771D01*
X99000000Y-143989771D02*
X99057143Y-143989771D01*
X99057143Y-143989771D02*
X99142857Y-143961200D01*
X99142857Y-143961200D02*
X99200000Y-143904057D01*
X99200000Y-143904057D02*
X99228571Y-143846914D01*
X99228571Y-143846914D02*
X99257143Y-143732628D01*
X99257143Y-143732628D02*
X99257143Y-143646914D01*
X99257143Y-143646914D02*
X99228571Y-143532628D01*
X99228571Y-143532628D02*
X99200000Y-143475485D01*
X99200000Y-143475485D02*
X99142857Y-143418342D01*
X99142857Y-143418342D02*
X99057143Y-143389771D01*
X99057143Y-143389771D02*
X99000000Y-143389771D01*
X99000000Y-143389771D02*
X98914286Y-143418342D01*
X98914286Y-143418342D02*
X98885714Y-143446914D01*
X98685714Y-143389771D02*
X98285714Y-143389771D01*
X98285714Y-143389771D02*
X98542857Y-143989771D01*
X97942857Y-143389771D02*
X97885714Y-143389771D01*
X97885714Y-143389771D02*
X97828571Y-143418342D01*
X97828571Y-143418342D02*
X97800000Y-143446914D01*
X97800000Y-143446914D02*
X97771428Y-143504057D01*
X97771428Y-143504057D02*
X97742857Y-143618342D01*
X97742857Y-143618342D02*
X97742857Y-143761200D01*
X97742857Y-143761200D02*
X97771428Y-143875485D01*
X97771428Y-143875485D02*
X97800000Y-143932628D01*
X97800000Y-143932628D02*
X97828571Y-143961200D01*
X97828571Y-143961200D02*
X97885714Y-143989771D01*
X97885714Y-143989771D02*
X97942857Y-143989771D01*
X97942857Y-143989771D02*
X98000000Y-143961200D01*
X98000000Y-143961200D02*
X98028571Y-143932628D01*
X98028571Y-143932628D02*
X98057142Y-143875485D01*
X98057142Y-143875485D02*
X98085714Y-143761200D01*
X98085714Y-143761200D02*
X98085714Y-143618342D01*
X98085714Y-143618342D02*
X98057142Y-143504057D01*
X98057142Y-143504057D02*
X98028571Y-143446914D01*
X98028571Y-143446914D02*
X98000000Y-143418342D01*
X98000000Y-143418342D02*
X97942857Y-143389771D01*
X74047143Y-125391771D02*
X73704286Y-125391771D01*
X73875714Y-125991771D02*
X73875714Y-125391771D01*
X73504285Y-125991771D02*
X73504285Y-125391771D01*
X73504285Y-125391771D02*
X73275714Y-125391771D01*
X73275714Y-125391771D02*
X73218571Y-125420342D01*
X73218571Y-125420342D02*
X73190000Y-125448914D01*
X73190000Y-125448914D02*
X73161428Y-125506057D01*
X73161428Y-125506057D02*
X73161428Y-125591771D01*
X73161428Y-125591771D02*
X73190000Y-125648914D01*
X73190000Y-125648914D02*
X73218571Y-125677485D01*
X73218571Y-125677485D02*
X73275714Y-125706057D01*
X73275714Y-125706057D02*
X73504285Y-125706057D01*
X72647143Y-125591771D02*
X72647143Y-125991771D01*
X72790000Y-125363200D02*
X72932857Y-125791771D01*
X72932857Y-125791771D02*
X72561428Y-125791771D01*
X137975714Y-132152628D02*
X138004286Y-132181200D01*
X138004286Y-132181200D02*
X138090000Y-132209771D01*
X138090000Y-132209771D02*
X138147143Y-132209771D01*
X138147143Y-132209771D02*
X138232857Y-132181200D01*
X138232857Y-132181200D02*
X138290000Y-132124057D01*
X138290000Y-132124057D02*
X138318571Y-132066914D01*
X138318571Y-132066914D02*
X138347143Y-131952628D01*
X138347143Y-131952628D02*
X138347143Y-131866914D01*
X138347143Y-131866914D02*
X138318571Y-131752628D01*
X138318571Y-131752628D02*
X138290000Y-131695485D01*
X138290000Y-131695485D02*
X138232857Y-131638342D01*
X138232857Y-131638342D02*
X138147143Y-131609771D01*
X138147143Y-131609771D02*
X138090000Y-131609771D01*
X138090000Y-131609771D02*
X138004286Y-131638342D01*
X138004286Y-131638342D02*
X137975714Y-131666914D01*
X137775714Y-131609771D02*
X137375714Y-131609771D01*
X137375714Y-131609771D02*
X137632857Y-132209771D01*
X137204285Y-131609771D02*
X136832857Y-131609771D01*
X136832857Y-131609771D02*
X137032857Y-131838342D01*
X137032857Y-131838342D02*
X136947142Y-131838342D01*
X136947142Y-131838342D02*
X136890000Y-131866914D01*
X136890000Y-131866914D02*
X136861428Y-131895485D01*
X136861428Y-131895485D02*
X136832857Y-131952628D01*
X136832857Y-131952628D02*
X136832857Y-132095485D01*
X136832857Y-132095485D02*
X136861428Y-132152628D01*
X136861428Y-132152628D02*
X136890000Y-132181200D01*
X136890000Y-132181200D02*
X136947142Y-132209771D01*
X136947142Y-132209771D02*
X137118571Y-132209771D01*
X137118571Y-132209771D02*
X137175714Y-132181200D01*
X137175714Y-132181200D02*
X137204285Y-132152628D01*
X51400000Y-72924771D02*
X51600000Y-72639057D01*
X51742857Y-72924771D02*
X51742857Y-72324771D01*
X51742857Y-72324771D02*
X51514286Y-72324771D01*
X51514286Y-72324771D02*
X51457143Y-72353342D01*
X51457143Y-72353342D02*
X51428572Y-72381914D01*
X51428572Y-72381914D02*
X51400000Y-72439057D01*
X51400000Y-72439057D02*
X51400000Y-72524771D01*
X51400000Y-72524771D02*
X51428572Y-72581914D01*
X51428572Y-72581914D02*
X51457143Y-72610485D01*
X51457143Y-72610485D02*
X51514286Y-72639057D01*
X51514286Y-72639057D02*
X51742857Y-72639057D01*
X50828572Y-72924771D02*
X51171429Y-72924771D01*
X51000000Y-72924771D02*
X51000000Y-72324771D01*
X51000000Y-72324771D02*
X51057143Y-72410485D01*
X51057143Y-72410485D02*
X51114286Y-72467628D01*
X51114286Y-72467628D02*
X51171429Y-72496200D01*
X50285714Y-72324771D02*
X50571428Y-72324771D01*
X50571428Y-72324771D02*
X50600000Y-72610485D01*
X50600000Y-72610485D02*
X50571428Y-72581914D01*
X50571428Y-72581914D02*
X50514286Y-72553342D01*
X50514286Y-72553342D02*
X50371428Y-72553342D01*
X50371428Y-72553342D02*
X50314286Y-72581914D01*
X50314286Y-72581914D02*
X50285714Y-72610485D01*
X50285714Y-72610485D02*
X50257143Y-72667628D01*
X50257143Y-72667628D02*
X50257143Y-72810485D01*
X50257143Y-72810485D02*
X50285714Y-72867628D01*
X50285714Y-72867628D02*
X50314286Y-72896200D01*
X50314286Y-72896200D02*
X50371428Y-72924771D01*
X50371428Y-72924771D02*
X50514286Y-72924771D01*
X50514286Y-72924771D02*
X50571428Y-72896200D01*
X50571428Y-72896200D02*
X50600000Y-72867628D01*
X78851427Y-85549771D02*
X78851427Y-86035485D01*
X78851427Y-86035485D02*
X78822856Y-86092628D01*
X78822856Y-86092628D02*
X78794285Y-86121200D01*
X78794285Y-86121200D02*
X78737142Y-86149771D01*
X78737142Y-86149771D02*
X78622856Y-86149771D01*
X78622856Y-86149771D02*
X78565713Y-86121200D01*
X78565713Y-86121200D02*
X78537142Y-86092628D01*
X78537142Y-86092628D02*
X78508570Y-86035485D01*
X78508570Y-86035485D02*
X78508570Y-85549771D01*
X77908571Y-86149771D02*
X78251428Y-86149771D01*
X78079999Y-86149771D02*
X78079999Y-85549771D01*
X78079999Y-85549771D02*
X78137142Y-85635485D01*
X78137142Y-85635485D02*
X78194285Y-85692628D01*
X78194285Y-85692628D02*
X78251428Y-85721200D01*
X77537142Y-85549771D02*
X77479999Y-85549771D01*
X77479999Y-85549771D02*
X77422856Y-85578342D01*
X77422856Y-85578342D02*
X77394285Y-85606914D01*
X77394285Y-85606914D02*
X77365713Y-85664057D01*
X77365713Y-85664057D02*
X77337142Y-85778342D01*
X77337142Y-85778342D02*
X77337142Y-85921200D01*
X77337142Y-85921200D02*
X77365713Y-86035485D01*
X77365713Y-86035485D02*
X77394285Y-86092628D01*
X77394285Y-86092628D02*
X77422856Y-86121200D01*
X77422856Y-86121200D02*
X77479999Y-86149771D01*
X77479999Y-86149771D02*
X77537142Y-86149771D01*
X77537142Y-86149771D02*
X77594285Y-86121200D01*
X77594285Y-86121200D02*
X77622856Y-86092628D01*
X77622856Y-86092628D02*
X77651427Y-86035485D01*
X77651427Y-86035485D02*
X77679999Y-85921200D01*
X77679999Y-85921200D02*
X77679999Y-85778342D01*
X77679999Y-85778342D02*
X77651427Y-85664057D01*
X77651427Y-85664057D02*
X77622856Y-85606914D01*
X77622856Y-85606914D02*
X77594285Y-85578342D01*
X77594285Y-85578342D02*
X77537142Y-85549771D01*
X137885714Y-134219771D02*
X138085714Y-133934057D01*
X138228571Y-134219771D02*
X138228571Y-133619771D01*
X138228571Y-133619771D02*
X138000000Y-133619771D01*
X138000000Y-133619771D02*
X137942857Y-133648342D01*
X137942857Y-133648342D02*
X137914286Y-133676914D01*
X137914286Y-133676914D02*
X137885714Y-133734057D01*
X137885714Y-133734057D02*
X137885714Y-133819771D01*
X137885714Y-133819771D02*
X137914286Y-133876914D01*
X137914286Y-133876914D02*
X137942857Y-133905485D01*
X137942857Y-133905485D02*
X138000000Y-133934057D01*
X138000000Y-133934057D02*
X138228571Y-133934057D01*
X137542857Y-133876914D02*
X137600000Y-133848342D01*
X137600000Y-133848342D02*
X137628571Y-133819771D01*
X137628571Y-133819771D02*
X137657143Y-133762628D01*
X137657143Y-133762628D02*
X137657143Y-133734057D01*
X137657143Y-133734057D02*
X137628571Y-133676914D01*
X137628571Y-133676914D02*
X137600000Y-133648342D01*
X137600000Y-133648342D02*
X137542857Y-133619771D01*
X137542857Y-133619771D02*
X137428571Y-133619771D01*
X137428571Y-133619771D02*
X137371429Y-133648342D01*
X137371429Y-133648342D02*
X137342857Y-133676914D01*
X137342857Y-133676914D02*
X137314286Y-133734057D01*
X137314286Y-133734057D02*
X137314286Y-133762628D01*
X137314286Y-133762628D02*
X137342857Y-133819771D01*
X137342857Y-133819771D02*
X137371429Y-133848342D01*
X137371429Y-133848342D02*
X137428571Y-133876914D01*
X137428571Y-133876914D02*
X137542857Y-133876914D01*
X137542857Y-133876914D02*
X137600000Y-133905485D01*
X137600000Y-133905485D02*
X137628571Y-133934057D01*
X137628571Y-133934057D02*
X137657143Y-133991200D01*
X137657143Y-133991200D02*
X137657143Y-134105485D01*
X137657143Y-134105485D02*
X137628571Y-134162628D01*
X137628571Y-134162628D02*
X137600000Y-134191200D01*
X137600000Y-134191200D02*
X137542857Y-134219771D01*
X137542857Y-134219771D02*
X137428571Y-134219771D01*
X137428571Y-134219771D02*
X137371429Y-134191200D01*
X137371429Y-134191200D02*
X137342857Y-134162628D01*
X137342857Y-134162628D02*
X137314286Y-134105485D01*
X137314286Y-134105485D02*
X137314286Y-133991200D01*
X137314286Y-133991200D02*
X137342857Y-133934057D01*
X137342857Y-133934057D02*
X137371429Y-133905485D01*
X137371429Y-133905485D02*
X137428571Y-133876914D01*
X136971428Y-133876914D02*
X137028571Y-133848342D01*
X137028571Y-133848342D02*
X137057142Y-133819771D01*
X137057142Y-133819771D02*
X137085714Y-133762628D01*
X137085714Y-133762628D02*
X137085714Y-133734057D01*
X137085714Y-133734057D02*
X137057142Y-133676914D01*
X137057142Y-133676914D02*
X137028571Y-133648342D01*
X137028571Y-133648342D02*
X136971428Y-133619771D01*
X136971428Y-133619771D02*
X136857142Y-133619771D01*
X136857142Y-133619771D02*
X136800000Y-133648342D01*
X136800000Y-133648342D02*
X136771428Y-133676914D01*
X136771428Y-133676914D02*
X136742857Y-133734057D01*
X136742857Y-133734057D02*
X136742857Y-133762628D01*
X136742857Y-133762628D02*
X136771428Y-133819771D01*
X136771428Y-133819771D02*
X136800000Y-133848342D01*
X136800000Y-133848342D02*
X136857142Y-133876914D01*
X136857142Y-133876914D02*
X136971428Y-133876914D01*
X136971428Y-133876914D02*
X137028571Y-133905485D01*
X137028571Y-133905485D02*
X137057142Y-133934057D01*
X137057142Y-133934057D02*
X137085714Y-133991200D01*
X137085714Y-133991200D02*
X137085714Y-134105485D01*
X137085714Y-134105485D02*
X137057142Y-134162628D01*
X137057142Y-134162628D02*
X137028571Y-134191200D01*
X137028571Y-134191200D02*
X136971428Y-134219771D01*
X136971428Y-134219771D02*
X136857142Y-134219771D01*
X136857142Y-134219771D02*
X136800000Y-134191200D01*
X136800000Y-134191200D02*
X136771428Y-134162628D01*
X136771428Y-134162628D02*
X136742857Y-134105485D01*
X136742857Y-134105485D02*
X136742857Y-133991200D01*
X136742857Y-133991200D02*
X136771428Y-133934057D01*
X136771428Y-133934057D02*
X136800000Y-133905485D01*
X136800000Y-133905485D02*
X136857142Y-133876914D01*
X122178571Y-72069771D02*
X122178571Y-71469771D01*
X122178571Y-71469771D02*
X122035714Y-71469771D01*
X122035714Y-71469771D02*
X121950000Y-71498342D01*
X121950000Y-71498342D02*
X121892857Y-71555485D01*
X121892857Y-71555485D02*
X121864286Y-71612628D01*
X121864286Y-71612628D02*
X121835714Y-71726914D01*
X121835714Y-71726914D02*
X121835714Y-71812628D01*
X121835714Y-71812628D02*
X121864286Y-71926914D01*
X121864286Y-71926914D02*
X121892857Y-71984057D01*
X121892857Y-71984057D02*
X121950000Y-72041200D01*
X121950000Y-72041200D02*
X122035714Y-72069771D01*
X122035714Y-72069771D02*
X122178571Y-72069771D01*
X121264286Y-72069771D02*
X121607143Y-72069771D01*
X121435714Y-72069771D02*
X121435714Y-71469771D01*
X121435714Y-71469771D02*
X121492857Y-71555485D01*
X121492857Y-71555485D02*
X121550000Y-71612628D01*
X121550000Y-71612628D02*
X121607143Y-71641200D01*
X120978571Y-72069771D02*
X120864285Y-72069771D01*
X120864285Y-72069771D02*
X120807142Y-72041200D01*
X120807142Y-72041200D02*
X120778571Y-72012628D01*
X120778571Y-72012628D02*
X120721428Y-71926914D01*
X120721428Y-71926914D02*
X120692857Y-71812628D01*
X120692857Y-71812628D02*
X120692857Y-71584057D01*
X120692857Y-71584057D02*
X120721428Y-71526914D01*
X120721428Y-71526914D02*
X120750000Y-71498342D01*
X120750000Y-71498342D02*
X120807142Y-71469771D01*
X120807142Y-71469771D02*
X120921428Y-71469771D01*
X120921428Y-71469771D02*
X120978571Y-71498342D01*
X120978571Y-71498342D02*
X121007142Y-71526914D01*
X121007142Y-71526914D02*
X121035714Y-71584057D01*
X121035714Y-71584057D02*
X121035714Y-71726914D01*
X121035714Y-71726914D02*
X121007142Y-71784057D01*
X121007142Y-71784057D02*
X120978571Y-71812628D01*
X120978571Y-71812628D02*
X120921428Y-71841200D01*
X120921428Y-71841200D02*
X120807142Y-71841200D01*
X120807142Y-71841200D02*
X120750000Y-71812628D01*
X120750000Y-71812628D02*
X120721428Y-71784057D01*
X120721428Y-71784057D02*
X120692857Y-71726914D01*
X125035714Y-78949771D02*
X125235714Y-78664057D01*
X125378571Y-78949771D02*
X125378571Y-78349771D01*
X125378571Y-78349771D02*
X125150000Y-78349771D01*
X125150000Y-78349771D02*
X125092857Y-78378342D01*
X125092857Y-78378342D02*
X125064286Y-78406914D01*
X125064286Y-78406914D02*
X125035714Y-78464057D01*
X125035714Y-78464057D02*
X125035714Y-78549771D01*
X125035714Y-78549771D02*
X125064286Y-78606914D01*
X125064286Y-78606914D02*
X125092857Y-78635485D01*
X125092857Y-78635485D02*
X125150000Y-78664057D01*
X125150000Y-78664057D02*
X125378571Y-78664057D01*
X124835714Y-78349771D02*
X124464286Y-78349771D01*
X124464286Y-78349771D02*
X124664286Y-78578342D01*
X124664286Y-78578342D02*
X124578571Y-78578342D01*
X124578571Y-78578342D02*
X124521429Y-78606914D01*
X124521429Y-78606914D02*
X124492857Y-78635485D01*
X124492857Y-78635485D02*
X124464286Y-78692628D01*
X124464286Y-78692628D02*
X124464286Y-78835485D01*
X124464286Y-78835485D02*
X124492857Y-78892628D01*
X124492857Y-78892628D02*
X124521429Y-78921200D01*
X124521429Y-78921200D02*
X124578571Y-78949771D01*
X124578571Y-78949771D02*
X124750000Y-78949771D01*
X124750000Y-78949771D02*
X124807143Y-78921200D01*
X124807143Y-78921200D02*
X124835714Y-78892628D01*
X124235714Y-78406914D02*
X124207142Y-78378342D01*
X124207142Y-78378342D02*
X124150000Y-78349771D01*
X124150000Y-78349771D02*
X124007142Y-78349771D01*
X124007142Y-78349771D02*
X123950000Y-78378342D01*
X123950000Y-78378342D02*
X123921428Y-78406914D01*
X123921428Y-78406914D02*
X123892857Y-78464057D01*
X123892857Y-78464057D02*
X123892857Y-78521200D01*
X123892857Y-78521200D02*
X123921428Y-78606914D01*
X123921428Y-78606914D02*
X124264285Y-78949771D01*
X124264285Y-78949771D02*
X123892857Y-78949771D01*
X126385714Y-143932628D02*
X126414286Y-143961200D01*
X126414286Y-143961200D02*
X126500000Y-143989771D01*
X126500000Y-143989771D02*
X126557143Y-143989771D01*
X126557143Y-143989771D02*
X126642857Y-143961200D01*
X126642857Y-143961200D02*
X126700000Y-143904057D01*
X126700000Y-143904057D02*
X126728571Y-143846914D01*
X126728571Y-143846914D02*
X126757143Y-143732628D01*
X126757143Y-143732628D02*
X126757143Y-143646914D01*
X126757143Y-143646914D02*
X126728571Y-143532628D01*
X126728571Y-143532628D02*
X126700000Y-143475485D01*
X126700000Y-143475485D02*
X126642857Y-143418342D01*
X126642857Y-143418342D02*
X126557143Y-143389771D01*
X126557143Y-143389771D02*
X126500000Y-143389771D01*
X126500000Y-143389771D02*
X126414286Y-143418342D01*
X126414286Y-143418342D02*
X126385714Y-143446914D01*
X126185714Y-143389771D02*
X125785714Y-143389771D01*
X125785714Y-143389771D02*
X126042857Y-143989771D01*
X125585714Y-143446914D02*
X125557142Y-143418342D01*
X125557142Y-143418342D02*
X125500000Y-143389771D01*
X125500000Y-143389771D02*
X125357142Y-143389771D01*
X125357142Y-143389771D02*
X125300000Y-143418342D01*
X125300000Y-143418342D02*
X125271428Y-143446914D01*
X125271428Y-143446914D02*
X125242857Y-143504057D01*
X125242857Y-143504057D02*
X125242857Y-143561200D01*
X125242857Y-143561200D02*
X125271428Y-143646914D01*
X125271428Y-143646914D02*
X125614285Y-143989771D01*
X125614285Y-143989771D02*
X125242857Y-143989771D01*
X82078571Y-78619771D02*
X82078571Y-78019771D01*
X82078571Y-78019771D02*
X81935714Y-78019771D01*
X81935714Y-78019771D02*
X81850000Y-78048342D01*
X81850000Y-78048342D02*
X81792857Y-78105485D01*
X81792857Y-78105485D02*
X81764286Y-78162628D01*
X81764286Y-78162628D02*
X81735714Y-78276914D01*
X81735714Y-78276914D02*
X81735714Y-78362628D01*
X81735714Y-78362628D02*
X81764286Y-78476914D01*
X81764286Y-78476914D02*
X81792857Y-78534057D01*
X81792857Y-78534057D02*
X81850000Y-78591200D01*
X81850000Y-78591200D02*
X81935714Y-78619771D01*
X81935714Y-78619771D02*
X82078571Y-78619771D01*
X81164286Y-78619771D02*
X81507143Y-78619771D01*
X81335714Y-78619771D02*
X81335714Y-78019771D01*
X81335714Y-78019771D02*
X81392857Y-78105485D01*
X81392857Y-78105485D02*
X81450000Y-78162628D01*
X81450000Y-78162628D02*
X81507143Y-78191200D01*
X80964285Y-78019771D02*
X80564285Y-78019771D01*
X80564285Y-78019771D02*
X80821428Y-78619771D01*
X92670714Y-82707628D02*
X92699286Y-82736200D01*
X92699286Y-82736200D02*
X92785000Y-82764771D01*
X92785000Y-82764771D02*
X92842143Y-82764771D01*
X92842143Y-82764771D02*
X92927857Y-82736200D01*
X92927857Y-82736200D02*
X92985000Y-82679057D01*
X92985000Y-82679057D02*
X93013571Y-82621914D01*
X93013571Y-82621914D02*
X93042143Y-82507628D01*
X93042143Y-82507628D02*
X93042143Y-82421914D01*
X93042143Y-82421914D02*
X93013571Y-82307628D01*
X93013571Y-82307628D02*
X92985000Y-82250485D01*
X92985000Y-82250485D02*
X92927857Y-82193342D01*
X92927857Y-82193342D02*
X92842143Y-82164771D01*
X92842143Y-82164771D02*
X92785000Y-82164771D01*
X92785000Y-82164771D02*
X92699286Y-82193342D01*
X92699286Y-82193342D02*
X92670714Y-82221914D01*
X92156429Y-82364771D02*
X92156429Y-82764771D01*
X92299286Y-82136200D02*
X92442143Y-82564771D01*
X92442143Y-82564771D02*
X92070714Y-82564771D01*
X91585000Y-82364771D02*
X91585000Y-82764771D01*
X91727857Y-82136200D02*
X91870714Y-82564771D01*
X91870714Y-82564771D02*
X91499285Y-82564771D01*
X82597143Y-116729771D02*
X82254286Y-116729771D01*
X82425714Y-117329771D02*
X82425714Y-116729771D01*
X82054285Y-117329771D02*
X82054285Y-116729771D01*
X82054285Y-116729771D02*
X81825714Y-116729771D01*
X81825714Y-116729771D02*
X81768571Y-116758342D01*
X81768571Y-116758342D02*
X81740000Y-116786914D01*
X81740000Y-116786914D02*
X81711428Y-116844057D01*
X81711428Y-116844057D02*
X81711428Y-116929771D01*
X81711428Y-116929771D02*
X81740000Y-116986914D01*
X81740000Y-116986914D02*
X81768571Y-117015485D01*
X81768571Y-117015485D02*
X81825714Y-117044057D01*
X81825714Y-117044057D02*
X82054285Y-117044057D01*
X81482857Y-116786914D02*
X81454285Y-116758342D01*
X81454285Y-116758342D02*
X81397143Y-116729771D01*
X81397143Y-116729771D02*
X81254285Y-116729771D01*
X81254285Y-116729771D02*
X81197143Y-116758342D01*
X81197143Y-116758342D02*
X81168571Y-116786914D01*
X81168571Y-116786914D02*
X81140000Y-116844057D01*
X81140000Y-116844057D02*
X81140000Y-116901200D01*
X81140000Y-116901200D02*
X81168571Y-116986914D01*
X81168571Y-116986914D02*
X81511428Y-117329771D01*
X81511428Y-117329771D02*
X81140000Y-117329771D01*
X59445714Y-123892628D02*
X59474286Y-123921200D01*
X59474286Y-123921200D02*
X59560000Y-123949771D01*
X59560000Y-123949771D02*
X59617143Y-123949771D01*
X59617143Y-123949771D02*
X59702857Y-123921200D01*
X59702857Y-123921200D02*
X59760000Y-123864057D01*
X59760000Y-123864057D02*
X59788571Y-123806914D01*
X59788571Y-123806914D02*
X59817143Y-123692628D01*
X59817143Y-123692628D02*
X59817143Y-123606914D01*
X59817143Y-123606914D02*
X59788571Y-123492628D01*
X59788571Y-123492628D02*
X59760000Y-123435485D01*
X59760000Y-123435485D02*
X59702857Y-123378342D01*
X59702857Y-123378342D02*
X59617143Y-123349771D01*
X59617143Y-123349771D02*
X59560000Y-123349771D01*
X59560000Y-123349771D02*
X59474286Y-123378342D01*
X59474286Y-123378342D02*
X59445714Y-123406914D01*
X59217143Y-123406914D02*
X59188571Y-123378342D01*
X59188571Y-123378342D02*
X59131429Y-123349771D01*
X59131429Y-123349771D02*
X58988571Y-123349771D01*
X58988571Y-123349771D02*
X58931429Y-123378342D01*
X58931429Y-123378342D02*
X58902857Y-123406914D01*
X58902857Y-123406914D02*
X58874286Y-123464057D01*
X58874286Y-123464057D02*
X58874286Y-123521200D01*
X58874286Y-123521200D02*
X58902857Y-123606914D01*
X58902857Y-123606914D02*
X59245714Y-123949771D01*
X59245714Y-123949771D02*
X58874286Y-123949771D01*
X58331428Y-123349771D02*
X58617142Y-123349771D01*
X58617142Y-123349771D02*
X58645714Y-123635485D01*
X58645714Y-123635485D02*
X58617142Y-123606914D01*
X58617142Y-123606914D02*
X58560000Y-123578342D01*
X58560000Y-123578342D02*
X58417142Y-123578342D01*
X58417142Y-123578342D02*
X58360000Y-123606914D01*
X58360000Y-123606914D02*
X58331428Y-123635485D01*
X58331428Y-123635485D02*
X58302857Y-123692628D01*
X58302857Y-123692628D02*
X58302857Y-123835485D01*
X58302857Y-123835485D02*
X58331428Y-123892628D01*
X58331428Y-123892628D02*
X58360000Y-123921200D01*
X58360000Y-123921200D02*
X58417142Y-123949771D01*
X58417142Y-123949771D02*
X58560000Y-123949771D01*
X58560000Y-123949771D02*
X58617142Y-123921200D01*
X58617142Y-123921200D02*
X58645714Y-123892628D01*
X49488214Y-99797628D02*
X49516786Y-99826200D01*
X49516786Y-99826200D02*
X49602500Y-99854771D01*
X49602500Y-99854771D02*
X49659643Y-99854771D01*
X49659643Y-99854771D02*
X49745357Y-99826200D01*
X49745357Y-99826200D02*
X49802500Y-99769057D01*
X49802500Y-99769057D02*
X49831071Y-99711914D01*
X49831071Y-99711914D02*
X49859643Y-99597628D01*
X49859643Y-99597628D02*
X49859643Y-99511914D01*
X49859643Y-99511914D02*
X49831071Y-99397628D01*
X49831071Y-99397628D02*
X49802500Y-99340485D01*
X49802500Y-99340485D02*
X49745357Y-99283342D01*
X49745357Y-99283342D02*
X49659643Y-99254771D01*
X49659643Y-99254771D02*
X49602500Y-99254771D01*
X49602500Y-99254771D02*
X49516786Y-99283342D01*
X49516786Y-99283342D02*
X49488214Y-99311914D01*
X48916786Y-99854771D02*
X49259643Y-99854771D01*
X49088214Y-99854771D02*
X49088214Y-99254771D01*
X49088214Y-99254771D02*
X49145357Y-99340485D01*
X49145357Y-99340485D02*
X49202500Y-99397628D01*
X49202500Y-99397628D02*
X49259643Y-99426200D01*
X48545357Y-99254771D02*
X48488214Y-99254771D01*
X48488214Y-99254771D02*
X48431071Y-99283342D01*
X48431071Y-99283342D02*
X48402500Y-99311914D01*
X48402500Y-99311914D02*
X48373928Y-99369057D01*
X48373928Y-99369057D02*
X48345357Y-99483342D01*
X48345357Y-99483342D02*
X48345357Y-99626200D01*
X48345357Y-99626200D02*
X48373928Y-99740485D01*
X48373928Y-99740485D02*
X48402500Y-99797628D01*
X48402500Y-99797628D02*
X48431071Y-99826200D01*
X48431071Y-99826200D02*
X48488214Y-99854771D01*
X48488214Y-99854771D02*
X48545357Y-99854771D01*
X48545357Y-99854771D02*
X48602500Y-99826200D01*
X48602500Y-99826200D02*
X48631071Y-99797628D01*
X48631071Y-99797628D02*
X48659642Y-99740485D01*
X48659642Y-99740485D02*
X48688214Y-99626200D01*
X48688214Y-99626200D02*
X48688214Y-99483342D01*
X48688214Y-99483342D02*
X48659642Y-99369057D01*
X48659642Y-99369057D02*
X48631071Y-99311914D01*
X48631071Y-99311914D02*
X48602500Y-99283342D01*
X48602500Y-99283342D02*
X48545357Y-99254771D01*
D11*
%TO.C,C32*%
X61775000Y-78940000D02*
X61775000Y-83150000D01*
X64795000Y-78940000D02*
X61775000Y-78940000D01*
X64795000Y-83150000D02*
X64795000Y-78940000D01*
%TO.C,R13*%
X47465000Y-88162742D02*
X47465000Y-88637258D01*
X48510000Y-88162742D02*
X48510000Y-88637258D01*
%TO.C,R77*%
X105182258Y-129377500D02*
X104707742Y-129377500D01*
X105182258Y-130422500D02*
X104707742Y-130422500D01*
%TO.C,C5*%
X82190580Y-107880000D02*
X81909420Y-107880000D01*
X82190580Y-108900000D02*
X81909420Y-108900000D01*
%TO.C,C51*%
X75334420Y-81340000D02*
X75615580Y-81340000D01*
X75334420Y-82360000D02*
X75615580Y-82360000D01*
%TO.C,C29*%
X49320000Y-79605000D02*
X49320000Y-83815000D01*
X49320000Y-83815000D02*
X52340000Y-83815000D01*
X52340000Y-83815000D02*
X52340000Y-79605000D01*
%TO.C,R94*%
X90787258Y-106277500D02*
X90312742Y-106277500D01*
X90787258Y-107322500D02*
X90312742Y-107322500D01*
%TO.C,C39*%
X71409420Y-92640000D02*
X71690580Y-92640000D01*
X71409420Y-93660000D02*
X71690580Y-93660000D01*
%TO.C,C30*%
X50689420Y-86050000D02*
X50970580Y-86050000D01*
X50689420Y-87070000D02*
X50970580Y-87070000D01*
%TO.C,R9*%
X77035242Y-122127500D02*
X77509758Y-122127500D01*
X77035242Y-123172500D02*
X77509758Y-123172500D01*
%TO.C,C48*%
X67059420Y-72790000D02*
X67340580Y-72790000D01*
X67059420Y-73810000D02*
X67340580Y-73810000D01*
%TO.C,C15*%
X71580000Y-115950000D02*
X71580000Y-120160000D01*
X74600000Y-115950000D02*
X71580000Y-115950000D01*
X74600000Y-120160000D02*
X74600000Y-115950000D01*
%TO.C,C75*%
X98165580Y-109290000D02*
X97884420Y-109290000D01*
X98165580Y-110310000D02*
X97884420Y-110310000D01*
%TO.C,R97*%
X97787742Y-107477500D02*
X98262258Y-107477500D01*
X97787742Y-108522500D02*
X98262258Y-108522500D01*
%TO.C,C31*%
X63425580Y-86050000D02*
X63144420Y-86050000D01*
X63425580Y-87070000D02*
X63144420Y-87070000D01*
%TO.C,R93*%
X90787258Y-104502500D02*
X90312742Y-104502500D01*
X90787258Y-105547500D02*
X90312742Y-105547500D01*
%TO.C,R23*%
X71312742Y-96027500D02*
X71787258Y-96027500D01*
X71312742Y-97072500D02*
X71787258Y-97072500D01*
%TO.C,TP3*%
X82540000Y-121900000D02*
G75*
G02*
X81140000Y-121900000I-700000J0D01*
G01*
X81140000Y-121900000D02*
G75*
G02*
X82540000Y-121900000I700000J0D01*
G01*
%TO.C,C27*%
X60227500Y-126290000D02*
X60227500Y-129310000D01*
X60227500Y-129310000D02*
X64437500Y-129310000D01*
X64437500Y-126290000D02*
X60227500Y-126290000D01*
%TO.C,D18*%
X113400000Y-70150000D02*
X118910000Y-70150000D01*
X113400000Y-73450000D02*
X118910000Y-73450000D01*
X118910000Y-73450000D02*
X118910000Y-70150000D01*
%TO.C,TP5*%
X59900000Y-98900000D02*
G75*
G02*
X58500000Y-98900000I-700000J0D01*
G01*
X58500000Y-98900000D02*
G75*
G02*
X59900000Y-98900000I700000J0D01*
G01*
%TO.C,C68*%
X105085580Y-131425000D02*
X104804420Y-131425000D01*
X105085580Y-132445000D02*
X104804420Y-132445000D01*
%TO.C,TP1*%
X67675000Y-115150000D02*
G75*
G02*
X66275000Y-115150000I-700000J0D01*
G01*
X66275000Y-115150000D02*
G75*
G02*
X67675000Y-115150000I700000J0D01*
G01*
%TO.C,R4*%
X51562742Y-94262500D02*
X52037258Y-94262500D01*
X51562742Y-95307500D02*
X52037258Y-95307500D01*
%TO.C,C42*%
X71690580Y-97740000D02*
X71409420Y-97740000D01*
X71690580Y-98760000D02*
X71409420Y-98760000D01*
%TO.C,C8*%
X52540000Y-100290000D02*
X52540000Y-103310000D01*
X52540000Y-103310000D02*
X56750000Y-103310000D01*
X56750000Y-100290000D02*
X52540000Y-100290000D01*
%TO.C,R14*%
X58377500Y-104537258D02*
X58377500Y-104062742D01*
X59422500Y-104537258D02*
X59422500Y-104062742D01*
%TO.C,TP7*%
X118450000Y-97520000D02*
G75*
G02*
X117050000Y-97520000I-700000J0D01*
G01*
X117050000Y-97520000D02*
G75*
G02*
X118450000Y-97520000I700000J0D01*
G01*
%TO.C,R35*%
X118012258Y-80627500D02*
X117537742Y-80627500D01*
X118012258Y-81672500D02*
X117537742Y-81672500D01*
%TO.C,R33*%
X127587258Y-79852500D02*
X127112742Y-79852500D01*
X127587258Y-80897500D02*
X127112742Y-80897500D01*
%TO.C,D1*%
X48300000Y-121242500D02*
X53810000Y-121242500D01*
X48300000Y-124542500D02*
X53810000Y-124542500D01*
X53810000Y-124542500D02*
X53810000Y-121242500D01*
%TO.C,C19*%
X81540000Y-114865580D02*
X81540000Y-114584420D01*
X82560000Y-114865580D02*
X82560000Y-114584420D01*
%TO.C,U3*%
X84832500Y-111390000D02*
X85632500Y-111390000D01*
X84832500Y-114510000D02*
X85632500Y-114510000D01*
X86432500Y-111390000D02*
X85632500Y-111390000D01*
X86432500Y-114510000D02*
X85632500Y-114510000D01*
X84572500Y-114790000D02*
X84092500Y-114790000D01*
X84332500Y-114460000D01*
X84572500Y-114790000D01*
G36*
X84572500Y-114790000D02*
G01*
X84092500Y-114790000D01*
X84332500Y-114460000D01*
X84572500Y-114790000D01*
G37*
%TO.C,C2*%
X67285000Y-105880000D02*
X67285000Y-108900000D01*
X67285000Y-108900000D02*
X71495000Y-108900000D01*
X71495000Y-105880000D02*
X67285000Y-105880000D01*
%TO.C,R36*%
X118007258Y-78932500D02*
X117532742Y-78932500D01*
X118007258Y-79977500D02*
X117532742Y-79977500D01*
%TO.C,BT1*%
X131680000Y-95170000D02*
G75*
G02*
X124620000Y-95170000I-3530000J0D01*
G01*
X124620000Y-95170000D02*
G75*
G02*
X131680000Y-95170000I3530000J0D01*
G01*
%TO.C,C4*%
X81540000Y-111455580D02*
X81540000Y-111174420D01*
X82560000Y-111455580D02*
X82560000Y-111174420D01*
%TO.C,R87*%
X119762742Y-133447500D02*
X120237258Y-133447500D01*
X119762742Y-134492500D02*
X120237258Y-134492500D01*
%TO.C,D7*%
X52265000Y-68212500D02*
X52265000Y-70497500D01*
X52265000Y-70497500D02*
X53735000Y-70497500D01*
X53735000Y-70497500D02*
X53735000Y-68212500D01*
%TO.C,D16*%
X75340000Y-74620000D02*
X75340000Y-76620000D01*
X79350000Y-74620000D02*
X75340000Y-74620000D01*
X79350000Y-76620000D02*
X75340000Y-76620000D01*
%TO.C,U6*%
X53690000Y-80980000D02*
X53690000Y-84740000D01*
X54950000Y-80980000D02*
X53690000Y-80980000D01*
X59250000Y-80980000D02*
X60510000Y-80980000D01*
X60510000Y-80980000D02*
X60510000Y-84740000D01*
X60740000Y-86260000D02*
X60410000Y-86020000D01*
X60740000Y-85780000D01*
X60740000Y-86260000D01*
G36*
X60740000Y-86260000D02*
G01*
X60410000Y-86020000D01*
X60740000Y-85780000D01*
X60740000Y-86260000D01*
G37*
%TO.C,R79*%
X135237258Y-129377500D02*
X134762742Y-129377500D01*
X135237258Y-130422500D02*
X134762742Y-130422500D01*
%TO.C,D9*%
X89800000Y-70150000D02*
X95310000Y-70150000D01*
X89800000Y-73450000D02*
X95310000Y-73450000D01*
X95310000Y-73450000D02*
X95310000Y-70150000D01*
%TO.C,R12*%
X51927500Y-135409758D02*
X51927500Y-134935242D01*
X52972500Y-135409758D02*
X52972500Y-134935242D01*
%TO.C,U13*%
X67400000Y-74780000D02*
X69350000Y-74780000D01*
X67400000Y-84900000D02*
X69350000Y-84900000D01*
X71300000Y-74780000D02*
X69350000Y-74780000D01*
X71300000Y-84900000D02*
X69350000Y-84900000D01*
X72050000Y-74835000D02*
X71810000Y-74505000D01*
X72290000Y-74505000D01*
X72050000Y-74835000D01*
G36*
X72050000Y-74835000D02*
G01*
X71810000Y-74505000D01*
X72290000Y-74505000D01*
X72050000Y-74835000D01*
G37*
%TO.C,R96*%
X97787742Y-105677500D02*
X98262258Y-105677500D01*
X97787742Y-106722500D02*
X98262258Y-106722500D01*
%TO.C,L4*%
X66230000Y-127772064D02*
X66230000Y-126567936D01*
X68950000Y-127772064D02*
X68950000Y-126567936D01*
%TO.C,C26*%
X55040000Y-89990000D02*
X55040000Y-93010000D01*
X55040000Y-93010000D02*
X59250000Y-93010000D01*
X59250000Y-89990000D02*
X55040000Y-89990000D01*
%TO.C,R34*%
X127587258Y-81552500D02*
X127112742Y-81552500D01*
X127587258Y-82597500D02*
X127112742Y-82597500D01*
%TO.C,R95*%
X90787258Y-108052500D02*
X90312742Y-108052500D01*
X90787258Y-109097500D02*
X90312742Y-109097500D01*
%TO.C,C67*%
X71140580Y-144425000D02*
X70859420Y-144425000D01*
X71140580Y-145445000D02*
X70859420Y-145445000D01*
%TO.C,R78*%
X120237258Y-129377500D02*
X119762742Y-129377500D01*
X120237258Y-130422500D02*
X119762742Y-130422500D01*
%TO.C,D6*%
X51715000Y-130682500D02*
X51715000Y-132967500D01*
X51715000Y-132967500D02*
X53185000Y-132967500D01*
X53185000Y-132967500D02*
X53185000Y-130682500D01*
%TO.C,C23*%
X70320000Y-127310580D02*
X70320000Y-127029420D01*
X71340000Y-127310580D02*
X71340000Y-127029420D01*
%TO.C,C71*%
X120140580Y-131425000D02*
X119859420Y-131425000D01*
X120140580Y-132445000D02*
X119859420Y-132445000D01*
%TO.C,D8*%
X115655000Y-88220000D02*
X121165000Y-88220000D01*
X115655000Y-91520000D02*
X121165000Y-91520000D01*
X121165000Y-91520000D02*
X121165000Y-88220000D01*
%TO.C,D4*%
X84180000Y-117835000D02*
X86465000Y-117835000D01*
X86465000Y-116365000D02*
X84180000Y-116365000D01*
X86465000Y-117835000D02*
X86465000Y-116365000D01*
%TO.C,R86*%
X104707742Y-133447500D02*
X105182258Y-133447500D01*
X104707742Y-134492500D02*
X105182258Y-134492500D01*
%TO.C,C47*%
X75850580Y-72790000D02*
X75569420Y-72790000D01*
X75850580Y-73810000D02*
X75569420Y-73810000D01*
%TO.C,D21*%
X80750000Y-70225000D02*
X86260000Y-70225000D01*
X80750000Y-73525000D02*
X86260000Y-73525000D01*
X86260000Y-73525000D02*
X86260000Y-70225000D01*
%TO.C,C34*%
X136240000Y-95029420D02*
X136240000Y-95310580D01*
X137260000Y-95029420D02*
X137260000Y-95310580D01*
%TO.C,R2*%
X81887221Y-105990000D02*
X82212779Y-105990000D01*
X81887221Y-107010000D02*
X82212779Y-107010000D01*
%TO.C,R30*%
X109612258Y-80627500D02*
X109137742Y-80627500D01*
X109612258Y-81672500D02*
X109137742Y-81672500D01*
%TO.C,D20*%
X58000000Y-70150000D02*
X63510000Y-70150000D01*
X58000000Y-73450000D02*
X63510000Y-73450000D01*
X63510000Y-73450000D02*
X63510000Y-70150000D01*
%TO.C,R98*%
X101397500Y-104062742D02*
X101397500Y-104537258D01*
X102442500Y-104062742D02*
X102442500Y-104537258D01*
%TO.C,D10*%
X80400000Y-82130000D02*
X84410000Y-82130000D01*
X80400000Y-84130000D02*
X84410000Y-84130000D01*
X84410000Y-84130000D02*
X84410000Y-82130000D01*
%TO.C,R8*%
X84762742Y-118477500D02*
X85237258Y-118477500D01*
X84762742Y-119522500D02*
X85237258Y-119522500D01*
%TO.C,R31*%
X109612258Y-78932500D02*
X109137742Y-78932500D01*
X109612258Y-79977500D02*
X109137742Y-79977500D01*
%TO.C,C13*%
X85491920Y-109240000D02*
X85773080Y-109240000D01*
X85491920Y-110260000D02*
X85773080Y-110260000D01*
%TO.C,TP6*%
X51530000Y-76465000D02*
G75*
G02*
X50130000Y-76465000I-700000J0D01*
G01*
X50130000Y-76465000D02*
G75*
G02*
X51530000Y-76465000I700000J0D01*
G01*
%TO.C,R3*%
X85697221Y-105990000D02*
X86022779Y-105990000D01*
X85697221Y-107010000D02*
X86022779Y-107010000D01*
%TO.C,U11*%
X67400000Y-86695000D02*
X69350000Y-86695000D01*
X67400000Y-91815000D02*
X69350000Y-91815000D01*
X71300000Y-86695000D02*
X69350000Y-86695000D01*
X71300000Y-91815000D02*
X69350000Y-91815000D01*
X72050000Y-86790000D02*
X71810000Y-86460000D01*
X72290000Y-86460000D01*
X72050000Y-86790000D01*
G36*
X72050000Y-86790000D02*
G01*
X71810000Y-86460000D01*
X72290000Y-86460000D01*
X72050000Y-86790000D01*
G37*
%TO.C,C49*%
X72184420Y-72790000D02*
X72465580Y-72790000D01*
X72184420Y-73810000D02*
X72465580Y-73810000D01*
%TO.C,D5*%
X72277500Y-121915000D02*
X72277500Y-123385000D01*
X72277500Y-123385000D02*
X74562500Y-123385000D01*
X74562500Y-121915000D02*
X72277500Y-121915000D01*
%TO.C,C18*%
X67434420Y-122257500D02*
X67715580Y-122257500D01*
X67434420Y-123277500D02*
X67715580Y-123277500D01*
%TO.C,D2*%
X46835000Y-115150000D02*
X46835000Y-118450000D01*
X52345000Y-115150000D02*
X46835000Y-115150000D01*
X52345000Y-118450000D02*
X46835000Y-118450000D01*
%TO.C,D11*%
X99500000Y-70150000D02*
X105010000Y-70150000D01*
X99500000Y-73450000D02*
X105010000Y-73450000D01*
X105010000Y-73450000D02*
X105010000Y-70150000D01*
%TO.C,C50*%
X75615580Y-83040000D02*
X75334420Y-83040000D01*
X75615580Y-84060000D02*
X75334420Y-84060000D01*
%TO.C,C38*%
X71690580Y-94340000D02*
X71409420Y-94340000D01*
X71690580Y-95360000D02*
X71409420Y-95360000D01*
%TO.C,R1*%
X52037258Y-96277500D02*
X51562742Y-96277500D01*
X52037258Y-97322500D02*
X51562742Y-97322500D01*
%TO.C,U2*%
X72937500Y-111710000D02*
X72937500Y-107950000D01*
X74197500Y-111710000D02*
X72937500Y-111710000D01*
X78497500Y-111710000D02*
X79757500Y-111710000D01*
X79757500Y-111710000D02*
X79757500Y-107950000D01*
X73037500Y-106670000D02*
X72707500Y-106910000D01*
X72707500Y-106430000D01*
X73037500Y-106670000D01*
G36*
X73037500Y-106670000D02*
G01*
X72707500Y-106910000D01*
X72707500Y-106430000D01*
X73037500Y-106670000D01*
G37*
%TO.C,C70*%
X98640580Y-144425000D02*
X98359420Y-144425000D01*
X98640580Y-145445000D02*
X98359420Y-145445000D01*
%TO.C,TP4*%
X73990000Y-127170000D02*
G75*
G02*
X72590000Y-127170000I-700000J0D01*
G01*
X72590000Y-127170000D02*
G75*
G02*
X73990000Y-127170000I700000J0D01*
G01*
%TO.C,C73*%
X135140580Y-131425000D02*
X134859420Y-131425000D01*
X135140580Y-132445000D02*
X134859420Y-132445000D01*
%TO.C,R15*%
X52477500Y-72417742D02*
X52477500Y-72892258D01*
X53522500Y-72417742D02*
X53522500Y-72892258D01*
%TO.C,U10*%
X76020000Y-86725000D02*
X77970000Y-86725000D01*
X76020000Y-95595000D02*
X77970000Y-95595000D01*
X79920000Y-86725000D02*
X77970000Y-86725000D01*
X79920000Y-95595000D02*
X77970000Y-95595000D01*
X80670000Y-86790000D02*
X80430000Y-86460000D01*
X80910000Y-86460000D01*
X80670000Y-86790000D01*
G36*
X80670000Y-86790000D02*
G01*
X80430000Y-86460000D01*
X80910000Y-86460000D01*
X80670000Y-86790000D01*
G37*
%TO.C,R88*%
X134762742Y-133447500D02*
X135237258Y-133447500D01*
X134762742Y-134492500D02*
X135237258Y-134492500D01*
%TO.C,D19*%
X122740000Y-70150000D02*
X122740000Y-73450000D01*
X128250000Y-70150000D02*
X122740000Y-70150000D01*
X128250000Y-73450000D02*
X122740000Y-73450000D01*
%TO.C,R32*%
X127587258Y-78152500D02*
X127112742Y-78152500D01*
X127587258Y-79197500D02*
X127112742Y-79197500D01*
%TO.C,C72*%
X126140580Y-144425000D02*
X125859420Y-144425000D01*
X126140580Y-145445000D02*
X125859420Y-145445000D01*
%TO.C,D17*%
X75340000Y-77350000D02*
X75340000Y-79350000D01*
X79350000Y-77350000D02*
X75340000Y-77350000D01*
X79350000Y-79350000D02*
X75340000Y-79350000D01*
%TO.C,C44*%
X92144420Y-83360000D02*
X92425580Y-83360000D01*
X92144420Y-84380000D02*
X92425580Y-84380000D01*
%TO.C,TP2*%
X82540000Y-118660000D02*
G75*
G02*
X81140000Y-118660000I-700000J0D01*
G01*
X81140000Y-118660000D02*
G75*
G02*
X82540000Y-118660000I700000J0D01*
G01*
%TO.C,C25*%
X60272500Y-122177500D02*
X60272500Y-125197500D01*
X60272500Y-125197500D02*
X64482500Y-125197500D01*
X64482500Y-122177500D02*
X60272500Y-122177500D01*
%TO.C,C10*%
X46640000Y-100290000D02*
X46640000Y-103310000D01*
X46640000Y-103310000D02*
X50850000Y-103310000D01*
X50850000Y-100290000D02*
X46640000Y-100290000D01*
%TD*%
M02*
