%TF.GenerationSoftware,KiCad,Pcbnew,7.0.9*%
%TF.CreationDate,2023-12-07T12:09:41+08:00*%
%TF.ProjectId,Explorer,4578706c-6f72-4657-922e-6b696361645f,rev?*%
%TF.SameCoordinates,Original*%
%TF.FileFunction,Paste,Bot*%
%TF.FilePolarity,Positive*%
%FSLAX46Y46*%
G04 Gerber Fmt 4.6, Leading zero omitted, Abs format (unit mm)*
G04 Created by KiCad (PCBNEW 7.0.9) date 2023-12-07 12:09:41*
%MOMM*%
%LPD*%
G01*
G04 APERTURE LIST*
G04 Aperture macros list*
%AMRoundRect*
0 Rectangle with rounded corners*
0 $1 Rounding radius*
0 $2 $3 $4 $5 $6 $7 $8 $9 X,Y pos of 4 corners*
0 Add a 4 corners polygon primitive as box body*
4,1,4,$2,$3,$4,$5,$6,$7,$8,$9,$2,$3,0*
0 Add four circle primitives for the rounded corners*
1,1,$1+$1,$2,$3*
1,1,$1+$1,$4,$5*
1,1,$1+$1,$6,$7*
1,1,$1+$1,$8,$9*
0 Add four rect primitives between the rounded corners*
20,1,$1+$1,$2,$3,$4,$5,0*
20,1,$1+$1,$4,$5,$6,$7,0*
20,1,$1+$1,$6,$7,$8,$9,0*
20,1,$1+$1,$8,$9,$2,$3,0*%
G04 Aperture macros list end*
%ADD10RoundRect,0.250000X-0.400000X-1.075000X0.400000X-1.075000X0.400000X1.075000X-0.400000X1.075000X0*%
%ADD11RoundRect,0.250000X-1.100000X0.412500X-1.100000X-0.412500X1.100000X-0.412500X1.100000X0.412500X0*%
%ADD12RoundRect,0.250000X0.400000X1.075000X-0.400000X1.075000X-0.400000X-1.075000X0.400000X-1.075000X0*%
%ADD13RoundRect,0.250000X1.750000X0.250000X-1.750000X0.250000X-1.750000X-0.250000X1.750000X-0.250000X0*%
%ADD14RoundRect,0.250000X-0.412500X-1.100000X0.412500X-1.100000X0.412500X1.100000X-0.412500X1.100000X0*%
%ADD15RoundRect,0.250000X0.412500X1.100000X-0.412500X1.100000X-0.412500X-1.100000X0.412500X-1.100000X0*%
%ADD16R,2.000000X1.500000*%
%ADD17R,2.000000X3.800000*%
%ADD18RoundRect,0.250000X-1.075000X0.400000X-1.075000X-0.400000X1.075000X-0.400000X1.075000X0.400000X0*%
G04 APERTURE END LIST*
D10*
%TO.C,R18*%
X122450000Y-122800000D03*
X125550000Y-122800000D03*
%TD*%
%TO.C,R2*%
X120433200Y-74200000D03*
X123533200Y-74200000D03*
%TD*%
%TO.C,R19*%
X161150000Y-122800000D03*
X164250000Y-122800000D03*
%TD*%
D11*
%TO.C,C2*%
X157454600Y-101256700D03*
X157454600Y-104381700D03*
%TD*%
%TO.C,C12*%
X175011200Y-89799700D03*
X175011200Y-92924700D03*
%TD*%
D12*
%TO.C,R20*%
X173990600Y-116738400D03*
X170890600Y-116738400D03*
%TD*%
D13*
%TO.C,U3*%
X162204400Y-72517000D03*
X162204400Y-74517000D03*
X162204400Y-76517000D03*
X162204400Y-78517000D03*
X162204400Y-80517000D03*
X162204400Y-82517000D03*
X162204400Y-84517000D03*
X162204400Y-86517000D03*
X144204400Y-86517000D03*
X144204400Y-84517000D03*
X144204400Y-82517000D03*
X144204400Y-80517000D03*
X144204400Y-78517000D03*
X144204400Y-76517000D03*
X144204400Y-74517000D03*
X144204400Y-72517000D03*
%TD*%
D12*
%TO.C,R17*%
X135077800Y-116713000D03*
X131977800Y-116713000D03*
%TD*%
D14*
%TO.C,C20*%
X130616700Y-100190200D03*
X133741700Y-100190200D03*
%TD*%
D10*
%TO.C,R3*%
X134650000Y-74200000D03*
X137750000Y-74200000D03*
%TD*%
D15*
%TO.C,C19*%
X133741700Y-109690200D03*
X130616700Y-109690200D03*
%TD*%
D10*
%TO.C,R25*%
X141850000Y-122800000D03*
X144950000Y-122800000D03*
%TD*%
D15*
%TO.C,C21*%
X133741700Y-104890200D03*
X130616700Y-104890200D03*
%TD*%
D14*
%TO.C,C15*%
X162673900Y-91846400D03*
X165798900Y-91846400D03*
%TD*%
D10*
%TO.C,R21*%
X161150000Y-118000000D03*
X164250000Y-118000000D03*
%TD*%
%TO.C,R22*%
X141850000Y-118000000D03*
X144950000Y-118000000D03*
%TD*%
D11*
%TO.C,C6*%
X149936200Y-101282100D03*
X149936200Y-104407100D03*
%TD*%
%TO.C,C24*%
X126429200Y-99580200D03*
X126429200Y-102705200D03*
%TD*%
D10*
%TO.C,R1*%
X127543900Y-74200000D03*
X130643900Y-74200000D03*
%TD*%
%TO.C,R4*%
X175250000Y-74200000D03*
X178350000Y-74200000D03*
%TD*%
D16*
%TO.C,U2*%
X170078000Y-103011000D03*
X170078000Y-100711000D03*
D17*
X176378000Y-100711000D03*
D16*
X170078000Y-98411000D03*
%TD*%
D11*
%TO.C,C16*%
X126429200Y-107280200D03*
X126429200Y-110405200D03*
%TD*%
%TO.C,C5*%
X153720800Y-101282100D03*
X153720800Y-104407100D03*
%TD*%
D12*
%TO.C,R24*%
X154737400Y-116713000D03*
X151637400Y-116713000D03*
%TD*%
D10*
%TO.C,R5*%
X167950000Y-74200000D03*
X171050000Y-74200000D03*
%TD*%
%TO.C,R16*%
X122450000Y-118000000D03*
X125550000Y-118000000D03*
%TD*%
D11*
%TO.C,C9*%
X171011200Y-89799700D03*
X171011200Y-92924700D03*
%TD*%
D18*
%TO.C,R6*%
X146177000Y-101294600D03*
X146177000Y-104394600D03*
%TD*%
M02*
