M48
; DRILL file KiCad 10.0.4 date 2026-07-20T00:29:08
; FORMAT={-:-/ absolute / metric / decimal}
; #@! TF.CreationDate,2026-07-20T00:29:08+08:00
; #@! TF.GenerationSoftware,Kicad,Pcbnew,10.0.4
; #@! TF.FileFunction,Plated,1,2,PTH
FMAT,2
METRIC
; #@! TA.AperFunction,Plated,PTH,ComponentDrill
T1C0.300
; #@! TA.AperFunction,Plated,PTH,ViaDrill
T2C0.400
; #@! TA.AperFunction,Plated,PTH,ComponentDrill
T3C0.900
; #@! TA.AperFunction,Plated,PTH,ComponentDrill
T4C1.000
; #@! TA.AperFunction,Plated,PTH,ComponentDrill
T5C1.100
; #@! TA.AperFunction,Plated,PTH,ComponentDrill
T6C1.500
; #@! TA.AperFunction,Plated,PTH,ComponentDrill
T7C1.520
; #@! TA.AperFunction,Plated,PTH,ComponentDrill
T8C1.700
; #@! TA.AperFunction,Plated,PTH,ComponentDrill
T9C3.200
%
G90
G05
T1
X69.123Y-111.0
X69.123Y-112.2
X69.123Y-113.5
X69.123Y-114.6
X70.322Y-111.0
X70.322Y-112.2
X70.322Y-113.5
X70.322Y-114.6
T2
X45.8Y-89.7
X45.8Y-90.45
X45.8Y-91.15
X45.8Y-91.9
X45.8Y-92.65
X45.8Y-93.4
X45.8Y-94.15
X45.8Y-94.9
X45.8Y-95.65
X45.8Y-96.4
X45.8Y-97.15
X45.8Y-97.9
X45.8Y-98.65
X45.8Y-99.4
X45.91Y-124.13
X45.91Y-124.93
X46.4Y-141.6
X46.4Y-142.6
X46.4Y-143.6
X46.4Y-144.6
X46.4Y-145.6
X46.4Y-146.6
X46.4Y-147.6
X46.4Y-148.6
X46.6Y-89.7
X46.6Y-90.45
X46.6Y-91.15
X46.6Y-91.9
X46.6Y-92.65
X46.6Y-93.4
X46.6Y-94.15
X46.6Y-94.9
X46.6Y-95.65
X46.6Y-96.4
X46.6Y-97.15
X46.6Y-97.9
X46.6Y-98.65
X46.6Y-99.4
X46.71Y-124.13
X46.71Y-124.93
X47.4Y-141.6
X47.4Y-142.6
X47.4Y-143.6
X47.4Y-144.6
X47.4Y-145.6
X47.4Y-146.6
X47.4Y-147.6
X47.4Y-148.6
X47.53Y-113.62
X47.53Y-114.42
X47.8Y-77.9
X47.8Y-78.9
X47.8Y-79.9
X47.8Y-80.9
X47.8Y-81.9
X47.8Y-82.9
X47.8Y-83.9
X47.8Y-84.9
X47.8Y-85.9
X48.33Y-113.62
X48.33Y-114.42
X48.7Y-77.9
X48.7Y-78.9
X48.7Y-79.9
X48.7Y-80.9
X48.7Y-81.9
X48.7Y-82.9
X48.7Y-83.9
X48.7Y-84.9
X48.7Y-85.9
X51.8Y-141.6
X51.8Y-142.6
X51.8Y-143.6
X51.8Y-144.6
X51.8Y-145.6
X51.8Y-146.6
X51.8Y-147.6
X51.8Y-148.6
X52.8Y-141.6
X52.8Y-142.6
X52.8Y-143.6
X52.8Y-144.6
X52.8Y-145.6
X52.8Y-146.6
X52.8Y-147.6
X52.8Y-148.6
X52.85Y-84.5
X53.59Y-94.6
X53.8Y-141.6
X53.8Y-142.6
X53.8Y-143.6
X53.8Y-144.6
X53.8Y-145.6
X53.8Y-146.6
X53.8Y-147.6
X53.8Y-148.6
X53.9Y-155.5
X53.9Y-156.5
X53.9Y-157.5
X53.9Y-158.5
X53.97Y-89.39
X54.1Y-93.0
X54.1Y-93.8
X54.21Y-107.72
X54.21Y-108.52
X54.8Y-101.8
X54.8Y-141.6
X54.8Y-142.6
X54.8Y-143.6
X54.8Y-144.6
X54.8Y-145.6
X54.8Y-146.6
X54.8Y-147.6
X54.8Y-148.6
X54.9Y-93.0
X54.9Y-93.8
X54.9Y-155.5
X54.9Y-156.5
X54.9Y-157.5
X54.9Y-158.5
X55.01Y-107.72
X55.01Y-108.52
X55.2Y-87.95
X55.45Y-81.9
X55.5Y-74.95
X55.7Y-98.95
X55.8Y-141.6
X55.8Y-142.6
X55.8Y-143.6
X55.8Y-144.6
X55.8Y-145.6
X55.8Y-146.6
X55.8Y-147.6
X55.8Y-148.6
X55.9Y-155.5
X55.9Y-156.5
X55.9Y-157.5
X55.9Y-158.5
X56.35Y-124.77
X56.35Y-125.77
X56.35Y-126.77
X56.4Y-98.95
X56.9Y-155.5
X56.9Y-156.5
X56.9Y-157.5
X56.9Y-158.5
X57.175Y-93.025
X57.175Y-93.825
X57.35Y-124.77
X57.35Y-125.77
X57.35Y-126.77
X57.9Y-155.5
X57.9Y-156.5
X57.9Y-157.5
X57.9Y-158.5
X57.975Y-93.025
X57.975Y-93.825
X58.35Y-124.77
X58.35Y-125.77
X58.35Y-126.77
X58.5Y-101.075
X58.5Y-101.875
X59.3Y-101.075
X59.3Y-101.875
X60.325Y-102.025
X61.0Y-93.9
X61.25Y-86.25
X61.87Y-78.11
X62.0Y-93.9
X62.57Y-144.49
X63.0Y-93.9
X63.13Y-143.74
X63.35Y-87.75
X63.7Y-74.0
X63.81Y-78.11
X63.97Y-149.51
X64.0Y-93.9
X64.01Y-120.56
X64.01Y-121.56
X64.7Y-69.9
X64.7Y-70.9
X64.7Y-71.9
X64.9Y-92.4
X64.975Y-145.755
X65.0Y-93.9
X65.01Y-120.56
X65.01Y-121.56
X65.31Y-113.87
X65.35Y-109.62
X65.35Y-111.85
X65.6Y-69.9
X65.6Y-70.9
X65.6Y-71.9
X65.65Y-123.688
X65.89Y-149.93
X66.0Y-93.9
X66.7Y-69.9
X66.7Y-70.9
X66.7Y-71.9
X66.74Y-147.13
X66.74Y-152.06
X66.75Y-144.0
X66.85Y-86.3
X67.0Y-93.9
X67.6Y-69.9
X67.6Y-70.9
X67.6Y-71.9
X67.66Y-118.625
X67.67Y-105.21
X67.75Y-86.3
X67.98Y-149.42
X68.0Y-93.9
X68.16Y-88.62
X68.16Y-89.89
X68.21Y-109.58
X68.25Y-74.5
X68.3Y-95.5
X68.3Y-96.5
X68.3Y-97.5
X68.3Y-98.5
X68.3Y-99.5
X68.3Y-100.5
X68.3Y-101.5
X68.3Y-102.5
X68.75Y-90.6
X68.75Y-91.35
X68.86Y-121.11
X68.9Y-82.0
X69.15Y-83.015
X69.16Y-116.13
X69.5Y-90.6
X69.5Y-91.35
X70.12Y-120.83
X70.12Y-121.83
X70.6Y-146.22
X71.12Y-120.83
X71.12Y-121.83
X71.2Y-138.6
X71.2Y-139.6
X71.95Y-144.025
X71.99Y-109.387
X72.15Y-101.11
X72.15Y-102.11
X72.2Y-138.6
X72.2Y-139.6
X72.65Y-116.01
X72.75Y-108.61
X72.85Y-74.5
X73.05Y-101.11
X73.05Y-102.11
X73.2Y-138.6
X73.2Y-139.6
X73.45Y-75.4
X73.55Y-89.0
X73.57Y-86.7
X73.75Y-93.35
X73.8Y-78.5
X73.88Y-148.75
X73.89Y-151.1
X74.04Y-105.12
X74.09Y-116.02
X74.1Y-69.9
X74.1Y-70.9
X74.2Y-138.6
X74.2Y-139.6
X74.25Y-111.49
X74.27Y-110.29
X74.6Y-78.5
X74.935Y-72.135
X75.0Y-69.9
X75.0Y-70.9
X75.01Y-105.05
X75.26Y-108.53
X75.3Y-145.05
X76.1Y-69.9
X76.1Y-70.9
X76.1Y-145.05
X77.0Y-69.9
X77.0Y-70.9
X77.0Y-71.9
X77.31Y-66.875
X77.37Y-108.35
X77.94Y-89.07
X78.05Y-86.95
X78.1Y-69.9
X78.1Y-70.9
X78.1Y-71.9
X78.11Y-152.06
X78.19Y-115.3
X78.19Y-116.3
X78.79Y-94.72
X78.8Y-90.55
X78.8Y-91.3
X78.92Y-92.43
X78.93Y-93.7
X79.0Y-69.9
X79.0Y-70.9
X79.0Y-71.9
X79.15Y-97.78
X79.15Y-98.78
X79.15Y-100.95
X79.15Y-101.95
X79.19Y-115.3
X79.19Y-116.3
X79.2Y-138.6
X79.2Y-139.6
X79.25Y-85.25
X79.68Y-105.29
X80.05Y-97.78
X80.05Y-98.78
X80.05Y-100.95
X80.05Y-101.95
X80.2Y-138.6
X80.2Y-139.6
X80.67Y-104.98
X80.9Y-155.5
X80.9Y-156.5
X80.9Y-157.5
X80.9Y-158.5
X81.2Y-138.6
X81.2Y-139.6
X81.31Y-110.13
X81.31Y-111.13
X81.55Y-82.1
X81.55Y-83.1
X81.732Y-77.048
X81.9Y-155.5
X81.9Y-156.5
X81.9Y-157.5
X81.9Y-158.5
X82.1Y-89.65
X82.15Y-93.2
X82.2Y-138.6
X82.2Y-139.6
X82.31Y-110.13
X82.31Y-111.13
X82.45Y-82.1
X82.45Y-83.1
X82.65Y-85.5
X82.8Y-86.9
X82.8Y-90.25
X82.8Y-91.8
X82.9Y-155.5
X82.9Y-156.5
X82.9Y-157.5
X82.9Y-158.5
X83.64Y-150.18
X83.9Y-155.5
X83.9Y-156.5
X83.9Y-157.5
X83.9Y-158.5
X84.1Y-117.1
X84.1Y-118.1
X84.1Y-119.1
X84.1Y-120.1
X84.1Y-121.1
X84.1Y-122.1
X84.1Y-123.1
X84.1Y-124.1
X84.1Y-125.1
X84.1Y-126.1
X84.1Y-127.1
X84.1Y-128.1
X84.6Y-89.95
X84.62Y-112.91
X84.77Y-77.93
X84.79Y-79.2
X84.9Y-155.5
X84.9Y-156.5
X84.9Y-157.5
X84.9Y-158.5
X85.1Y-117.1
X85.1Y-118.1
X85.1Y-119.1
X85.1Y-120.1
X85.1Y-121.1
X85.1Y-122.1
X85.1Y-123.1
X85.1Y-124.1
X85.1Y-125.1
X85.1Y-126.1
X85.1Y-127.1
X85.1Y-128.1
X85.48Y-95.77
X85.697Y-91.657
X85.8Y-115.2
X86.1Y-117.1
X86.1Y-118.1
X86.1Y-119.1
X86.1Y-120.1
X86.1Y-121.1
X86.1Y-122.1
X86.1Y-123.1
X86.1Y-124.1
X86.1Y-125.1
X86.1Y-126.1
X86.1Y-127.1
X86.1Y-128.1
X86.4Y-138.6
X86.4Y-139.6
X86.422Y-90.932
X86.8Y-115.2
X87.16Y-90.22
X87.196Y-115.895
X87.34Y-93.32
X87.4Y-138.6
X87.4Y-139.6
X87.791Y-87.759
X88.1Y-117.1
X88.1Y-118.1
X88.1Y-119.1
X88.1Y-120.1
X88.1Y-121.1
X88.1Y-122.1
X88.1Y-123.1
X88.1Y-124.1
X88.1Y-125.1
X88.1Y-126.1
X88.1Y-127.1
X88.1Y-128.1
X88.122Y-96.25
X88.2Y-91.05
X88.4Y-138.6
X88.4Y-139.6
X88.65Y-77.0
X88.65Y-92.794
X88.71Y-102.47
X88.71Y-103.47
X88.8Y-78.85
X88.85Y-83.45
X88.85Y-84.15
X88.85Y-84.85
X88.922Y-96.25
X88.96Y-111.15
X89.1Y-117.1
X89.1Y-118.1
X89.1Y-119.1
X89.1Y-120.1
X89.1Y-121.1
X89.1Y-122.1
X89.1Y-123.1
X89.1Y-124.1
X89.1Y-125.1
X89.1Y-126.1
X89.1Y-127.1
X89.1Y-128.1
X89.4Y-87.6
X89.4Y-138.6
X89.4Y-139.6
X89.55Y-83.45
X89.55Y-84.15
X89.55Y-84.85
X89.61Y-102.47
X89.61Y-103.47
X89.725Y-110.105
X89.739Y-96.25
X89.842Y-113.102
X89.875Y-114.025
X90.02Y-144.555
X90.1Y-117.1
X90.1Y-118.1
X90.1Y-119.1
X90.1Y-120.1
X90.1Y-121.1
X90.1Y-122.1
X90.1Y-123.1
X90.1Y-124.1
X90.1Y-125.1
X90.1Y-126.1
X90.1Y-127.1
X90.1Y-128.1
X90.25Y-83.45
X90.25Y-84.15
X90.25Y-84.85
X90.4Y-138.6
X90.4Y-139.6
X90.48Y-93.73
X90.56Y-143.71
X90.575Y-96.25
X91.05Y-73.9
X91.075Y-92.7
X91.19Y-149.37
X91.3Y-75.2
X91.4Y-138.6
X91.4Y-139.6
X91.465Y-93.975
X91.5Y-85.325
X91.71Y-96.64
X91.9Y-79.5
X92.08Y-100.42
X92.11Y-99.42
X92.4Y-138.6
X92.4Y-139.6
X92.43Y-145.68
X92.49Y-119.47
X92.54Y-97.29
X92.57Y-111.22
X92.6Y-105.3
X92.6Y-106.525
X92.6Y-107.825
X92.67Y-87.91
X92.9Y-112.075
X92.937Y-101.613
X92.99Y-91.91
X93.06Y-86.32
X93.134Y-113.375
X93.39Y-151.38
X93.4Y-138.6
X93.4Y-139.6
X93.48Y-82.6
X93.566Y-89.705
X93.69Y-91.91
X94.25Y-147.38
X94.25Y-150.5
X94.3Y-111.58
X94.355Y-83.0
X94.386Y-89.954
X94.39Y-91.91
X94.45Y-143.66
X94.48Y-86.275
X95.09Y-91.91
X95.1Y-136.9
X95.1Y-137.9
X95.39Y-149.3
X95.44Y-109.4
X95.543Y-89.343
X95.65Y-98.54
X95.7Y-108.0
X95.73Y-101.92
X95.79Y-91.91
X95.85Y-86.275
X95.93Y-110.775
X96.062Y-90.003
X96.1Y-136.9
X96.1Y-137.9
X96.2Y-104.896
X96.49Y-91.91
X97.1Y-136.9
X97.1Y-137.9
X97.25Y-90.23
X97.4Y-82.3
X97.425Y-83.125
X97.64Y-102.03
X97.95Y-90.23
X97.98Y-87.19
X98.1Y-136.9
X98.1Y-137.9
X98.475Y-112.4
X98.52Y-146.17
X98.597Y-104.94
X98.66Y-97.96
X98.66Y-98.96
X98.66Y-141.63
X98.8Y-93.4
X98.8Y-94.1
X99.04Y-83.96
X99.04Y-84.96
X99.1Y-136.9
X99.1Y-137.9
X99.275Y-144.03
X99.28Y-102.35
X99.289Y-142.904
X99.29Y-103.58
X99.5Y-94.1
X99.56Y-97.96
X99.56Y-98.96
X99.94Y-83.96
X99.94Y-84.96
X100.1Y-136.9
X100.1Y-137.9
X100.24Y-104.92
X100.57Y-105.8
X100.59Y-132.27
X100.66Y-133.57
X100.83Y-111.28
X101.1Y-136.9
X101.1Y-137.9
X101.25Y-93.6
X101.28Y-150.97
X101.67Y-148.83
X101.85Y-82.57
X101.85Y-83.57
X101.85Y-85.74
X101.85Y-86.74
X102.05Y-93.6
X102.1Y-136.9
X102.1Y-137.9
X102.45Y-90.025
X102.75Y-82.57
X102.75Y-83.57
X102.75Y-85.74
X102.75Y-86.74
X102.85Y-93.6
X103.04Y-144.99
X103.1Y-136.9
X103.1Y-137.9
X103.14Y-152.04
X103.76Y-92.6
X103.76Y-105.08
X103.8Y-133.84
X103.84Y-144.99
X104.1Y-136.9
X104.1Y-137.9
X104.49Y-127.885
X104.95Y-89.05
X105.02Y-126.89
X105.03Y-125.75
X105.085Y-130.805
X105.09Y-132.85
X105.1Y-136.9
X105.1Y-137.9
X105.3Y-105.05
X105.53Y-127.885
X105.53Y-129.3
X105.58Y-152.06
X106.1Y-70.95
X106.1Y-71.9
X106.1Y-72.9
X106.1Y-136.9
X106.1Y-137.9
X106.32Y-96.82
X106.8Y-103.7
X107.0Y-70.95
X107.0Y-71.9
X107.0Y-72.9
X107.1Y-136.9
X107.1Y-137.9
X107.8Y-129.34
X108.1Y-70.95
X108.1Y-71.9
X108.1Y-72.9
X108.1Y-136.9
X108.1Y-137.9
X108.115Y-83.045
X108.27Y-117.21
X108.275Y-89.95
X108.275Y-93.55
X108.389Y-130.98
X108.86Y-132.77
X108.9Y-155.5
X108.9Y-156.5
X108.9Y-157.5
X108.9Y-158.5
X108.95Y-90.95
X109.0Y-70.95
X109.0Y-71.9
X109.0Y-72.9
X109.1Y-136.9
X109.1Y-137.9
X109.25Y-92.6
X109.3Y-96.9
X109.3Y-97.9
X109.3Y-99.9
X109.3Y-100.9
X109.5Y-94.0
X109.75Y-90.55
X109.88Y-133.55
X109.9Y-106.09
X109.9Y-155.5
X109.9Y-156.5
X109.9Y-157.5
X109.9Y-158.5
X110.1Y-69.9
X110.1Y-70.9
X110.1Y-71.9
X110.1Y-72.9
X110.1Y-136.9
X110.1Y-137.9
X110.2Y-96.9
X110.2Y-97.9
X110.2Y-99.9
X110.2Y-100.9
X110.66Y-83.045
X110.81Y-131.73
X110.85Y-150.67
X110.9Y-155.5
X110.9Y-156.5
X110.9Y-157.5
X110.9Y-158.5
X111.0Y-69.9
X111.0Y-70.9
X111.0Y-71.9
X111.0Y-72.9
X111.2Y-93.3
X111.3Y-96.9
X111.3Y-97.9
X111.3Y-99.9
X111.3Y-100.9
X111.35Y-91.05
X111.9Y-88.7
X111.9Y-155.5
X111.9Y-156.5
X111.9Y-157.5
X111.9Y-158.5
X112.1Y-79.9
X112.1Y-80.9
X112.1Y-81.9
X112.1Y-82.9
X112.1Y-83.9
X112.1Y-84.9
X112.2Y-96.9
X112.2Y-97.9
X112.2Y-99.9
X112.2Y-100.9
X112.665Y-117.729
X112.665Y-118.729
X112.665Y-119.729
X112.665Y-120.729
X112.9Y-155.5
X112.9Y-156.5
X112.9Y-157.5
X112.9Y-158.5
X113.0Y-79.9
X113.0Y-80.9
X113.0Y-81.9
X113.0Y-82.9
X113.0Y-83.9
X113.0Y-84.9
X113.2Y-93.1
X113.39Y-133.68
X113.46Y-131.68
X113.665Y-117.729
X113.665Y-118.729
X113.665Y-119.729
X113.665Y-120.729
X113.9Y-91.1
X114.1Y-81.9
X114.1Y-82.9
X114.1Y-83.9
X114.1Y-84.9
X114.3Y-136.9
X114.3Y-137.9
X115.0Y-81.9
X115.0Y-82.9
X115.0Y-83.9
X115.0Y-84.9
X115.3Y-136.9
X115.3Y-137.9
X115.4Y-93.15
X115.4Y-131.91
X116.3Y-136.9
X116.3Y-137.9
X116.42Y-83.03
X116.752Y-95.263
X116.77Y-129.13
X116.8Y-99.95
X117.3Y-93.1
X117.3Y-103.75
X117.3Y-136.9
X117.3Y-137.9
X117.33Y-105.71
X117.39Y-133.98
X117.605Y-144.455
X117.68Y-91.03
X117.72Y-95.26
X118.167Y-143.71
X118.3Y-136.9
X118.3Y-137.9
X118.36Y-149.5
X118.4Y-92.3
X118.58Y-129.49
X118.75Y-102.2
X118.95Y-83.03
X119.225Y-132.78
X119.3Y-136.9
X119.3Y-137.9
X119.58Y-127.595
X119.86Y-87.96
X119.88Y-145.63
X120.02Y-125.57
X120.02Y-126.54
X120.3Y-77.9
X120.3Y-78.9
X120.3Y-79.9
X120.3Y-80.9
X120.3Y-81.9
X120.3Y-82.9
X120.3Y-83.9
X120.3Y-84.9
X120.3Y-136.9
X120.3Y-137.9
X120.398Y-130.126
X120.41Y-127.595
X120.41Y-128.87
X120.9Y-150.68
X121.2Y-77.9
X121.2Y-78.9
X121.2Y-79.9
X121.2Y-80.9
X121.2Y-81.9
X121.2Y-82.9
X121.2Y-83.9
X121.2Y-84.9
X121.3Y-136.9
X121.3Y-137.9
X121.65Y-130.05
X121.67Y-143.71
X121.75Y-93.75
X121.785Y-146.305
X122.3Y-77.9
X122.3Y-78.9
X122.3Y-79.9
X122.3Y-80.9
X122.3Y-81.9
X122.3Y-82.9
X122.3Y-83.9
X122.3Y-84.9
X122.3Y-136.9
X122.3Y-137.9
X122.38Y-133.91
X122.42Y-91.56
X122.625Y-151.315
X123.03Y-149.87
X123.2Y-77.9
X123.2Y-78.9
X123.2Y-79.9
X123.2Y-80.9
X123.2Y-81.9
X123.2Y-82.9
X123.2Y-83.9
X123.2Y-84.9
X123.27Y-117.16
X123.28Y-129.21
X123.3Y-136.9
X123.3Y-137.9
X123.51Y-130.985
X123.79Y-99.65
X123.79Y-100.55
X124.3Y-136.9
X124.3Y-137.9
X124.59Y-99.65
X124.59Y-100.55
X124.7Y-83.02
X124.96Y-91.58
X125.28Y-131.8
X125.31Y-88.56
X125.79Y-99.65
X125.79Y-100.55
X125.8Y-94.65
X125.8Y-95.55
X125.8Y-96.45
X125.91Y-84.62
X125.98Y-105.61
X126.0Y-146.19
X126.02Y-129.68
X126.59Y-99.65
X126.59Y-100.55
X126.6Y-94.65
X126.6Y-95.55
X126.6Y-96.45
X126.78Y-144.03
X127.24Y-83.02
X127.89Y-99.65
X127.89Y-100.55
X127.9Y-94.65
X127.9Y-95.55
X127.9Y-96.45
X127.905Y-117.745
X127.905Y-118.745
X127.905Y-119.745
X127.905Y-120.745
X128.3Y-136.9
X128.3Y-137.9
X128.51Y-131.7
X128.52Y-83.03
X128.52Y-84.03
X128.69Y-99.65
X128.69Y-100.55
X128.69Y-143.08
X128.7Y-94.65
X128.7Y-95.55
X128.7Y-96.45
X128.905Y-117.745
X128.905Y-118.745
X128.905Y-119.745
X128.905Y-120.745
X129.3Y-136.9
X129.3Y-137.9
X129.33Y-148.9
X129.78Y-83.02
X129.9Y-94.65
X129.9Y-95.55
X129.9Y-96.45
X130.3Y-136.9
X130.3Y-137.9
X130.48Y-152.06
X130.55Y-132.02
X130.56Y-144.96
X130.69Y-128.75
X130.7Y-94.65
X130.7Y-95.55
X130.7Y-96.45
X131.01Y-132.78
X131.1Y-70.9
X131.1Y-71.9
X131.1Y-72.9
X131.1Y-73.9
X131.1Y-74.9
X131.1Y-75.9
X131.1Y-76.9
X131.1Y-77.9
X131.1Y-78.9
X131.1Y-79.9
X131.1Y-80.9
X131.1Y-81.9
X131.1Y-82.9
X131.1Y-83.9
X131.1Y-84.9
X131.1Y-85.9
X131.3Y-136.9
X131.3Y-137.9
X131.36Y-144.96
X132.0Y-70.9
X132.0Y-71.9
X132.0Y-72.9
X132.0Y-73.9
X132.0Y-74.9
X132.0Y-75.9
X132.0Y-76.9
X132.0Y-77.9
X132.0Y-78.9
X132.0Y-79.9
X132.0Y-80.9
X132.0Y-81.9
X132.0Y-82.9
X132.0Y-83.9
X132.0Y-84.9
X132.0Y-85.9
X132.3Y-136.9
X132.3Y-137.9
X133.0Y-152.06
X133.1Y-70.9
X133.1Y-71.9
X133.1Y-72.9
X133.1Y-73.9
X133.1Y-74.9
X133.1Y-75.9
X133.1Y-76.9
X133.1Y-77.9
X133.1Y-78.9
X133.1Y-79.9
X133.1Y-80.9
X133.1Y-81.9
X133.1Y-82.9
X133.1Y-83.9
X133.1Y-84.9
X133.1Y-85.9
X133.15Y-100.25
X133.3Y-136.9
X133.3Y-137.9
X133.56Y-129.51
X133.9Y-155.6
X133.9Y-156.6
X133.9Y-157.6
X133.9Y-158.6
X134.0Y-70.9
X134.0Y-71.9
X134.0Y-72.9
X134.0Y-73.9
X134.0Y-74.9
X134.0Y-75.9
X134.0Y-76.9
X134.0Y-77.9
X134.0Y-78.9
X134.0Y-79.9
X134.0Y-80.9
X134.0Y-81.9
X134.0Y-82.9
X134.0Y-83.9
X134.0Y-84.9
X134.0Y-85.9
X134.04Y-134.14
X134.1Y-99.07
X134.3Y-136.9
X134.3Y-137.9
X134.54Y-127.575
X134.55Y-91.5
X134.55Y-92.2
X134.9Y-155.6
X134.9Y-156.6
X134.9Y-157.6
X134.9Y-158.6
X135.0Y-125.4
X135.0Y-126.51
X135.05Y-97.35
X135.25Y-91.5
X135.25Y-92.2
X135.3Y-136.9
X135.3Y-137.9
X135.34Y-127.575
X135.34Y-128.825
X135.74Y-130.8
X135.9Y-155.6
X135.9Y-156.6
X135.9Y-157.6
X135.9Y-158.6
X136.3Y-136.9
X136.3Y-137.9
X136.9Y-155.6
X136.9Y-156.6
X136.9Y-157.6
X136.9Y-158.6
X137.02Y-129.77
X137.3Y-136.9
X137.3Y-137.9
X137.78Y-107.98
X137.78Y-108.98
X137.78Y-109.98
X137.78Y-110.98
X137.9Y-155.6
X137.9Y-156.6
X137.9Y-157.6
X137.9Y-158.6
X138.3Y-136.9
X138.3Y-137.9
X138.31Y-117.2
X138.49Y-130.985
X138.78Y-107.98
X138.78Y-108.98
X138.78Y-109.98
X138.78Y-110.98
X138.82Y-128.77
X139.33Y-133.17
X140.27Y-135.24
X140.28Y-132.44
X143.05Y-98.4
X143.05Y-99.4
X143.05Y-100.4
X143.1Y-85.4
X143.1Y-86.4
X143.1Y-87.4
X143.1Y-88.4
X143.1Y-89.4
X143.1Y-90.4
X143.1Y-91.4
X143.1Y-92.4
X143.1Y-93.4
X143.1Y-94.4
X143.1Y-95.4
X143.1Y-96.4
X143.1Y-97.4
X143.95Y-98.4
X143.95Y-99.4
X143.95Y-100.4
X144.0Y-85.4
X144.0Y-86.4
X144.0Y-87.4
X144.0Y-88.4
X144.0Y-89.4
X144.0Y-90.4
X144.0Y-91.4
X144.0Y-92.4
X144.0Y-93.4
X144.0Y-94.4
X144.0Y-95.4
X144.0Y-96.4
X144.0Y-97.4
T3
X47.9Y-119.97
X47.9Y-125.97
X50.4Y-119.97
X50.4Y-125.97
X52.9Y-119.97
X52.9Y-125.97
T4
X48.8Y-69.535
X48.8Y-72.075
X48.8Y-132.1
X48.8Y-134.64
X56.19Y-76.6
X58.73Y-76.6
X61.27Y-76.6
X63.81Y-76.6
X65.0Y-68.0
X66.385Y-65.16
X67.77Y-68.0
X69.155Y-65.16
X70.54Y-68.0
X71.925Y-65.16
X73.31Y-68.0
X74.695Y-65.16
X76.08Y-68.0
X77.955Y-118.625
X80.495Y-118.625
X95.16Y-78.625
X97.7Y-78.625
X100.24Y-78.625
X101.92Y-98.8
X101.92Y-101.34
X104.46Y-98.8
X104.46Y-101.34
X107.0Y-98.8
X107.0Y-101.34
X113.92Y-68.0
X114.5Y-96.3
X114.5Y-98.84
X114.5Y-101.38
X115.305Y-65.16
X116.69Y-68.0
X118.075Y-65.16
X119.46Y-68.0
X120.845Y-65.16
X122.23Y-68.0
X123.615Y-65.16
X125.0Y-68.0
T5
X76.38Y-97.15
X76.38Y-101.65
X82.88Y-97.15
X82.88Y-101.65
T6
X140.3Y-80.0
T7
X64.92Y-155.95
X70.0Y-155.95
X92.42Y-155.95
X92.5Y-64.0
X97.5Y-155.95
X97.58Y-64.0
X119.92Y-155.95
X125.0Y-155.95
T8
X137.76Y-77.46
X137.76Y-82.54
X142.84Y-77.46
X142.84Y-82.54
T9
X48.05Y-63.05
X48.05Y-156.95
X58.04Y-65.16
X83.04Y-65.16
X106.96Y-65.16
X131.96Y-65.16
X141.95Y-63.05
X141.95Y-156.95
T4
G00X49.0Y-110.0
M15
G01X49.0Y-112.0
M16
G05
G00X51.0Y-115.7
M15
G01X53.0Y-115.7
M16
G05
G00X55.0Y-110.0
M15
G01X55.0Y-112.0
M16
G05
M30
