%TF.GenerationSoftware,KiCad,Pcbnew,8.0.3*%
%TF.CreationDate,2024-07-11T00:08:22+08:00*%
%TF.ProjectId,Explorer,4578706c-6f72-4657-922e-6b696361645f,rev?*%
%TF.SameCoordinates,Original*%
%TF.FileFunction,Paste,Top*%
%TF.FilePolarity,Positive*%
%FSLAX46Y46*%
G04 Gerber Fmt 4.6, Leading zero omitted, Abs format (unit mm)*
G04 Created by KiCad (PCBNEW 8.0.3) date 2024-07-11 00:08:22*
%MOMM*%
%LPD*%
G01*
G04 APERTURE LIST*
G04 Aperture macros list*
%AMRoundRect*
0 Rectangle with rounded corners*
0 $1 Rounding radius*
0 $2 $3 $4 $5 $6 $7 $8 $9 X,Y pos of 4 corners*
0 Add a 4 corners polygon primitive as box body*
4,1,4,$2,$3,$4,$5,$6,$7,$8,$9,$2,$3,0*
0 Add four circle primitives for the rounded corners*
1,1,$1+$1,$2,$3*
1,1,$1+$1,$4,$5*
1,1,$1+$1,$6,$7*
1,1,$1+$1,$8,$9*
0 Add four rect primitives between the rounded corners*
20,1,$1+$1,$2,$3,$4,$5,0*
20,1,$1+$1,$4,$5,$6,$7,0*
20,1,$1+$1,$6,$7,$8,$9,0*
20,1,$1+$1,$8,$9,$2,$3,0*%
G04 Aperture macros list end*
%ADD10RoundRect,0.200000X-0.200000X-0.275000X0.200000X-0.275000X0.200000X0.275000X-0.200000X0.275000X0*%
%ADD11RoundRect,0.225000X0.225000X0.250000X-0.225000X0.250000X-0.225000X-0.250000X0.225000X-0.250000X0*%
%ADD12RoundRect,0.250000X-0.412500X-0.925000X0.412500X-0.925000X0.412500X0.925000X-0.412500X0.925000X0*%
%ADD13RoundRect,0.225000X-0.225000X-0.250000X0.225000X-0.250000X0.225000X0.250000X-0.225000X0.250000X0*%
%ADD14RoundRect,0.100000X-0.712500X-0.100000X0.712500X-0.100000X0.712500X0.100000X-0.712500X0.100000X0*%
%ADD15RoundRect,0.200000X0.200000X0.275000X-0.200000X0.275000X-0.200000X-0.275000X0.200000X-0.275000X0*%
%ADD16R,1.120000X2.440000*%
%ADD17RoundRect,0.200000X-0.200000X0.700000X-0.200000X-0.700000X0.200000X-0.700000X0.200000X0.700000X0*%
%ADD18RoundRect,0.087500X0.225000X0.087500X-0.225000X0.087500X-0.225000X-0.087500X0.225000X-0.087500X0*%
%ADD19RoundRect,0.087500X0.087500X0.225000X-0.087500X0.225000X-0.087500X-0.225000X0.087500X-0.225000X0*%
%ADD20R,4.500000X2.000000*%
%ADD21RoundRect,0.250000X1.050000X0.550000X-1.050000X0.550000X-1.050000X-0.550000X1.050000X-0.550000X0*%
%ADD22R,2.000000X4.500000*%
%ADD23RoundRect,0.218750X0.256250X-0.218750X0.256250X0.218750X-0.256250X0.218750X-0.256250X-0.218750X0*%
%ADD24RoundRect,0.218750X-0.218750X-0.256250X0.218750X-0.256250X0.218750X0.256250X-0.218750X0.256250X0*%
%ADD25RoundRect,0.225000X0.250000X-0.225000X0.250000X0.225000X-0.250000X0.225000X-0.250000X-0.225000X0*%
%ADD26RoundRect,0.150000X-0.825000X-0.150000X0.825000X-0.150000X0.825000X0.150000X-0.825000X0.150000X0*%
%ADD27RoundRect,0.218750X0.218750X0.256250X-0.218750X0.256250X-0.218750X-0.256250X0.218750X-0.256250X0*%
%ADD28RoundRect,0.235000X0.940000X1.465000X-0.940000X1.465000X-0.940000X-1.465000X0.940000X-1.465000X0*%
%ADD29RoundRect,0.250000X-1.412500X-0.550000X1.412500X-0.550000X1.412500X0.550000X-1.412500X0.550000X0*%
%ADD30RoundRect,0.225000X0.225000X0.375000X-0.225000X0.375000X-0.225000X-0.375000X0.225000X-0.375000X0*%
%ADD31RoundRect,0.100000X-0.637500X-0.100000X0.637500X-0.100000X0.637500X0.100000X-0.637500X0.100000X0*%
%ADD32RoundRect,0.375000X0.375000X-0.625000X0.375000X0.625000X-0.375000X0.625000X-0.375000X-0.625000X0*%
%ADD33RoundRect,0.500000X1.400000X-0.500000X1.400000X0.500000X-1.400000X0.500000X-1.400000X-0.500000X0*%
%ADD34RoundRect,0.075000X-0.662500X-0.075000X0.662500X-0.075000X0.662500X0.075000X-0.662500X0.075000X0*%
%ADD35RoundRect,0.075000X-0.075000X-0.662500X0.075000X-0.662500X0.075000X0.662500X-0.075000X0.662500X0*%
%ADD36RoundRect,0.200000X0.275000X-0.200000X0.275000X0.200000X-0.275000X0.200000X-0.275000X-0.200000X0*%
%ADD37RoundRect,0.250000X-1.050000X-0.550000X1.050000X-0.550000X1.050000X0.550000X-1.050000X0.550000X0*%
G04 APERTURE END LIST*
D10*
%TO.C,R10*%
X66055000Y-109580000D03*
X64405000Y-109580000D03*
%TD*%
%TO.C,R6*%
X64375000Y-111700000D03*
X66025000Y-111700000D03*
%TD*%
D11*
%TO.C,C21*%
X64485000Y-107550000D03*
X66035000Y-107550000D03*
%TD*%
D12*
%TO.C,C19*%
X70100000Y-114900000D03*
X73175000Y-114900000D03*
%TD*%
%TO.C,C18*%
X73175000Y-111100000D03*
X70100000Y-111100000D03*
%TD*%
%TO.C,C16*%
X70100000Y-107300000D03*
X73175000Y-107300000D03*
%TD*%
%TO.C,C10*%
X58612500Y-111700000D03*
X61687500Y-111700000D03*
%TD*%
%TO.C,C8*%
X58612500Y-115650000D03*
X61687500Y-115650000D03*
%TD*%
%TO.C,C6*%
X58612500Y-119615000D03*
X61687500Y-119615000D03*
%TD*%
D10*
%TO.C,R42*%
X117555000Y-148895000D03*
X119205000Y-148895000D03*
%TD*%
D13*
%TO.C,C62*%
X99155000Y-126800000D03*
X100705000Y-126800000D03*
%TD*%
D10*
%TO.C,R38*%
X87555000Y-148895000D03*
X89205000Y-148895000D03*
%TD*%
D13*
%TO.C,C70*%
X114825000Y-112200000D03*
X116375000Y-112200000D03*
%TD*%
D10*
%TO.C,R63*%
X102555000Y-126800000D03*
X104205000Y-126800000D03*
%TD*%
%TO.C,R24*%
X92150000Y-75200000D03*
X93800000Y-75200000D03*
%TD*%
D14*
%TO.C,U23*%
X122057500Y-126895000D03*
X122057500Y-127545000D03*
X122057500Y-128195000D03*
X122057500Y-128845000D03*
X126282500Y-128845000D03*
X126282500Y-128195000D03*
X126282500Y-127545000D03*
X126282500Y-126895000D03*
%TD*%
D15*
%TO.C,R53*%
X89205000Y-128890000D03*
X87555000Y-128890000D03*
%TD*%
%TO.C,R21*%
X100625000Y-75200000D03*
X98975000Y-75200000D03*
%TD*%
D13*
%TO.C,C51*%
X117605000Y-145950000D03*
X119155000Y-145950000D03*
%TD*%
D16*
%TO.C,SW4*%
X124700000Y-84575000D03*
X127240000Y-84575000D03*
X129780000Y-84575000D03*
X129780000Y-75965000D03*
X127240000Y-75965000D03*
X124700000Y-75965000D03*
%TD*%
D10*
%TO.C,R26*%
X84205000Y-93850000D03*
X85855000Y-93850000D03*
%TD*%
D15*
%TO.C,R50*%
X91786696Y-98950000D03*
X90136696Y-98950000D03*
%TD*%
D17*
%TO.C,U8*%
X135340000Y-90000000D03*
X134240000Y-90000000D03*
X133140000Y-90000000D03*
X132040000Y-90000000D03*
X130940000Y-90000000D03*
X129840000Y-90000000D03*
X128740000Y-90000000D03*
X125740000Y-90000000D03*
X124640000Y-90000000D03*
X123540000Y-90000000D03*
X122440000Y-90000000D03*
X121340000Y-90000000D03*
X121340000Y-102000000D03*
X122440000Y-102000000D03*
X123540000Y-102000000D03*
X124640000Y-102000000D03*
X125740000Y-102000000D03*
X128740000Y-102000000D03*
X129840000Y-102000000D03*
X130940000Y-102000000D03*
X132040000Y-102000000D03*
X133140000Y-102000000D03*
X134240000Y-102000000D03*
X135340000Y-102000000D03*
%TD*%
D13*
%TO.C,C50*%
X102605000Y-145950000D03*
X104155000Y-145950000D03*
%TD*%
D11*
%TO.C,C59*%
X100705000Y-128890000D03*
X99155000Y-128890000D03*
%TD*%
D10*
%TO.C,R71*%
X89675000Y-116880000D03*
X91325000Y-116880000D03*
%TD*%
%TO.C,R17*%
X86075000Y-77000000D03*
X87725000Y-77000000D03*
%TD*%
D13*
%TO.C,C58*%
X97055000Y-102350000D03*
X98605000Y-102350000D03*
%TD*%
D10*
%TO.C,R68*%
X87575000Y-124700000D03*
X89225000Y-124700000D03*
%TD*%
D13*
%TO.C,C39*%
X90350000Y-80400000D03*
X91900000Y-80400000D03*
%TD*%
D10*
%TO.C,R1*%
X74075000Y-129640000D03*
X75725000Y-129640000D03*
%TD*%
D15*
%TO.C,R19*%
X108145000Y-95700000D03*
X106495000Y-95700000D03*
%TD*%
D18*
%TO.C,U16*%
X97649196Y-99400000D03*
X97649196Y-98900000D03*
X97649196Y-98400000D03*
X97649196Y-97900000D03*
D19*
X96986696Y-97737500D03*
X96486696Y-97737500D03*
X95986696Y-97737500D03*
D18*
X95324196Y-97900000D03*
X95324196Y-98400000D03*
X95324196Y-98900000D03*
X95324196Y-99400000D03*
D19*
X95986696Y-99562500D03*
X96486696Y-99562500D03*
X96986696Y-99562500D03*
%TD*%
D13*
%TO.C,C45*%
X93630000Y-102350000D03*
X95180000Y-102350000D03*
%TD*%
D20*
%TO.C,Y2*%
X110650000Y-112300000D03*
X102150000Y-112300000D03*
%TD*%
D15*
%TO.C,R57*%
X119205000Y-128890000D03*
X117555000Y-128890000D03*
%TD*%
D21*
%TO.C,C3*%
X62200000Y-148100000D03*
X58600000Y-148100000D03*
%TD*%
D10*
%TO.C,R64*%
X117555000Y-126800000D03*
X119205000Y-126800000D03*
%TD*%
%TO.C,R25*%
X95550000Y-75200000D03*
X97200000Y-75200000D03*
%TD*%
D15*
%TO.C,R29*%
X85480000Y-85250000D03*
X83830000Y-85250000D03*
%TD*%
D22*
%TO.C,Y1*%
X79630000Y-92050000D03*
X79630000Y-83550000D03*
%TD*%
D13*
%TO.C,C36*%
X90350000Y-82100000D03*
X91900000Y-82100000D03*
%TD*%
D23*
%TO.C,L4*%
X140300000Y-89077500D03*
X140300000Y-87502500D03*
%TD*%
D15*
%TO.C,R37*%
X100785000Y-148895000D03*
X99135000Y-148895000D03*
%TD*%
D11*
%TO.C,C61*%
X130950000Y-128890000D03*
X129400000Y-128890000D03*
%TD*%
%TO.C,C60*%
X115705000Y-128890000D03*
X114155000Y-128890000D03*
%TD*%
%TO.C,C33*%
X85430000Y-87750000D03*
X83880000Y-87750000D03*
%TD*%
D13*
%TO.C,C29*%
X138125000Y-93420000D03*
X139675000Y-93420000D03*
%TD*%
D24*
%TO.C,D10*%
X105962500Y-93550000D03*
X107537500Y-93550000D03*
%TD*%
D15*
%TO.C,R41*%
X131000000Y-148895000D03*
X129350000Y-148895000D03*
%TD*%
%TO.C,R22*%
X132490000Y-87540000D03*
X130840000Y-87540000D03*
%TD*%
%TO.C,R27*%
X107555000Y-88150000D03*
X105905000Y-88150000D03*
%TD*%
D25*
%TO.C,C38*%
X103350000Y-85365000D03*
X103350000Y-83815000D03*
%TD*%
D13*
%TO.C,C48*%
X129400000Y-145940000D03*
X130950000Y-145940000D03*
%TD*%
D26*
%TO.C,U6*%
X78255000Y-75395000D03*
X78255000Y-76665000D03*
X78255000Y-77935000D03*
X78255000Y-79205000D03*
X83205000Y-79205000D03*
X83205000Y-77935000D03*
X83205000Y-76665000D03*
X83205000Y-75395000D03*
%TD*%
D13*
%TO.C,C27*%
X138125000Y-102420000D03*
X139675000Y-102420000D03*
%TD*%
D27*
%TO.C,D23*%
X91287500Y-118680000D03*
X89712500Y-118680000D03*
%TD*%
D24*
%TO.C,D9*%
X105962500Y-89950000D03*
X107537500Y-89950000D03*
%TD*%
D15*
%TO.C,R49*%
X91786696Y-100650000D03*
X90136696Y-100650000D03*
%TD*%
D11*
%TO.C,C34*%
X85430000Y-89550000D03*
X83880000Y-89550000D03*
%TD*%
D15*
%TO.C,R28*%
X107555000Y-91750000D03*
X105905000Y-91750000D03*
%TD*%
D10*
%TO.C,R18*%
X86075000Y-78700000D03*
X87725000Y-78700000D03*
%TD*%
%TO.C,R2*%
X69760000Y-129640000D03*
X71410000Y-129640000D03*
%TD*%
D15*
%TO.C,R39*%
X115785000Y-148895000D03*
X114135000Y-148895000D03*
%TD*%
D11*
%TO.C,C28*%
X139675000Y-91510000D03*
X138125000Y-91510000D03*
%TD*%
D13*
%TO.C,C66*%
X85025000Y-106400000D03*
X86575000Y-106400000D03*
%TD*%
D10*
%TO.C,R70*%
X117555000Y-124690000D03*
X119205000Y-124690000D03*
%TD*%
D28*
%TO.C,L1*%
X69925000Y-140682500D03*
X63875000Y-140682500D03*
%TD*%
D14*
%TO.C,U22*%
X107057500Y-126895000D03*
X107057500Y-127545000D03*
X107057500Y-128195000D03*
X107057500Y-128845000D03*
X111282500Y-128845000D03*
X111282500Y-128195000D03*
X111282500Y-127545000D03*
X111282500Y-126895000D03*
%TD*%
D10*
%TO.C,R69*%
X102555000Y-124690000D03*
X104205000Y-124690000D03*
%TD*%
D29*
%TO.C,C7*%
X53425000Y-140682500D03*
X58500000Y-140682500D03*
%TD*%
D30*
%TO.C,D12*%
X116127500Y-90375000D03*
X112827500Y-90375000D03*
%TD*%
D13*
%TO.C,C68*%
X85025000Y-114480000D03*
X86575000Y-114480000D03*
%TD*%
D31*
%TO.C,U24*%
X91275000Y-105575000D03*
X91275000Y-106225000D03*
X91275000Y-106875000D03*
X91275000Y-107525000D03*
X91275000Y-108175000D03*
X91275000Y-108825000D03*
X91275000Y-109475000D03*
X91275000Y-110125000D03*
X91275000Y-110775000D03*
X91275000Y-111425000D03*
X91275000Y-112075000D03*
X91275000Y-112725000D03*
X91275000Y-113375000D03*
X91275000Y-114025000D03*
X97000000Y-114025000D03*
X97000000Y-113375000D03*
X97000000Y-112725000D03*
X97000000Y-112075000D03*
X97000000Y-111425000D03*
X97000000Y-110775000D03*
X97000000Y-110125000D03*
X97000000Y-109475000D03*
X97000000Y-108825000D03*
X97000000Y-108175000D03*
X97000000Y-107525000D03*
X97000000Y-106875000D03*
X97000000Y-106225000D03*
X97000000Y-105575000D03*
%TD*%
D16*
%TO.C,SW5*%
X116410000Y-84575000D03*
X118950000Y-84575000D03*
X118950000Y-75965000D03*
X116410000Y-75965000D03*
%TD*%
D12*
%TO.C,C65*%
X85225000Y-109600000D03*
X88300000Y-109600000D03*
%TD*%
D15*
%TO.C,R16*%
X104730000Y-95700000D03*
X103080000Y-95700000D03*
%TD*%
D32*
%TO.C,U2*%
X70480000Y-126042500D03*
X72780000Y-126042500D03*
D33*
X72780000Y-119742500D03*
D32*
X75080000Y-126042500D03*
%TD*%
D10*
%TO.C,R52*%
X90136696Y-102350000D03*
X91786696Y-102350000D03*
%TD*%
D13*
%TO.C,C30*%
X134350000Y-87540000D03*
X135900000Y-87540000D03*
%TD*%
%TO.C,C63*%
X114155000Y-126800000D03*
X115705000Y-126800000D03*
%TD*%
%TO.C,C46*%
X99185000Y-145950000D03*
X100735000Y-145950000D03*
%TD*%
%TO.C,C47*%
X114185000Y-145950000D03*
X115735000Y-145950000D03*
%TD*%
D27*
%TO.C,D11*%
X85442500Y-83450000D03*
X83867500Y-83450000D03*
%TD*%
D11*
%TO.C,C67*%
X86575000Y-112600000D03*
X85025000Y-112600000D03*
%TD*%
D14*
%TO.C,U21*%
X92057500Y-126895000D03*
X92057500Y-127545000D03*
X92057500Y-128195000D03*
X92057500Y-128845000D03*
X96282500Y-128845000D03*
X96282500Y-128195000D03*
X96282500Y-127545000D03*
X96282500Y-126895000D03*
%TD*%
D16*
%TO.C,SW3*%
X108115000Y-84575000D03*
X110655000Y-84575000D03*
X110655000Y-75965000D03*
X108115000Y-75965000D03*
%TD*%
D13*
%TO.C,C64*%
X129400000Y-126800000D03*
X130950000Y-126800000D03*
%TD*%
D10*
%TO.C,R40*%
X102555000Y-148895000D03*
X104205000Y-148895000D03*
%TD*%
D13*
%TO.C,C49*%
X87605000Y-145950000D03*
X89155000Y-145950000D03*
%TD*%
D34*
%TO.C,U11*%
X91067500Y-86400000D03*
X91067500Y-86900000D03*
X91067500Y-87400000D03*
X91067500Y-87900000D03*
X91067500Y-88400000D03*
X91067500Y-88900000D03*
X91067500Y-89400000D03*
X91067500Y-89900000D03*
X91067500Y-90400000D03*
X91067500Y-90900000D03*
X91067500Y-91400000D03*
X91067500Y-91900000D03*
D35*
X92480000Y-93312500D03*
X92980000Y-93312500D03*
X93480000Y-93312500D03*
X93980000Y-93312500D03*
X94480000Y-93312500D03*
X94980000Y-93312500D03*
X95480000Y-93312500D03*
X95980000Y-93312500D03*
X96480000Y-93312500D03*
X96980000Y-93312500D03*
X97480000Y-93312500D03*
X97980000Y-93312500D03*
D34*
X99392500Y-91900000D03*
X99392500Y-91400000D03*
X99392500Y-90900000D03*
X99392500Y-90400000D03*
X99392500Y-89900000D03*
X99392500Y-89400000D03*
X99392500Y-88900000D03*
X99392500Y-88400000D03*
X99392500Y-87900000D03*
X99392500Y-87400000D03*
X99392500Y-86900000D03*
X99392500Y-86400000D03*
D35*
X97980000Y-84987500D03*
X97480000Y-84987500D03*
X96980000Y-84987500D03*
X96480000Y-84987500D03*
X95980000Y-84987500D03*
X95480000Y-84987500D03*
X94980000Y-84987500D03*
X94480000Y-84987500D03*
X93980000Y-84987500D03*
X93480000Y-84987500D03*
X92980000Y-84987500D03*
X92480000Y-84987500D03*
%TD*%
D13*
%TO.C,C69*%
X114825000Y-114170000D03*
X116375000Y-114170000D03*
%TD*%
D36*
%TO.C,R20*%
X138150000Y-89115000D03*
X138150000Y-87465000D03*
%TD*%
D12*
%TO.C,C71*%
X96762500Y-117800000D03*
X99837500Y-117800000D03*
%TD*%
D10*
%TO.C,R51*%
X90136696Y-97250000D03*
X91786696Y-97250000D03*
%TD*%
D15*
%TO.C,R55*%
X104205000Y-128890000D03*
X102555000Y-128890000D03*
%TD*%
D13*
%TO.C,C26*%
X86125000Y-75200000D03*
X87675000Y-75200000D03*
%TD*%
D37*
%TO.C,C1*%
X71600000Y-148100000D03*
X75200000Y-148100000D03*
%TD*%
D11*
%TO.C,C37*%
X87675000Y-80400000D03*
X86125000Y-80400000D03*
%TD*%
D10*
%TO.C,R62*%
X87555000Y-126800000D03*
X89205000Y-126800000D03*
%TD*%
M02*
