%TF.GenerationSoftware,KiCad,Pcbnew,8.0.3*%
%TF.CreationDate,2024-12-05T22:40:56+08:00*%
%TF.ProjectId,Explorer,4578706c-6f72-4657-922e-6b696361645f,rev?*%
%TF.SameCoordinates,Original*%
%TF.FileFunction,Legend,Bot*%
%TF.FilePolarity,Positive*%
%FSLAX46Y46*%
G04 Gerber Fmt 4.6, Leading zero omitted, Abs format (unit mm)*
G04 Created by KiCad (PCBNEW 8.0.3) date 2024-12-05 22:40:56*
%MOMM*%
%LPD*%
G01*
G04 APERTURE LIST*
%ADD10C,0.150000*%
%ADD11C,0.120000*%
G04 APERTURE END LIST*
D10*
X82858929Y-116618342D02*
X82573215Y-116618342D01*
X82916072Y-116789771D02*
X82716072Y-116189771D01*
X82716072Y-116189771D02*
X82516072Y-116789771D01*
X82316071Y-116561200D02*
X81858929Y-116561200D01*
X82087500Y-116789771D02*
X82087500Y-116332628D01*
X81287500Y-116189771D02*
X81573214Y-116189771D01*
X81573214Y-116189771D02*
X81601786Y-116475485D01*
X81601786Y-116475485D02*
X81573214Y-116446914D01*
X81573214Y-116446914D02*
X81516072Y-116418342D01*
X81516072Y-116418342D02*
X81373214Y-116418342D01*
X81373214Y-116418342D02*
X81316072Y-116446914D01*
X81316072Y-116446914D02*
X81287500Y-116475485D01*
X81287500Y-116475485D02*
X81258929Y-116532628D01*
X81258929Y-116532628D02*
X81258929Y-116675485D01*
X81258929Y-116675485D02*
X81287500Y-116732628D01*
X81287500Y-116732628D02*
X81316072Y-116761200D01*
X81316072Y-116761200D02*
X81373214Y-116789771D01*
X81373214Y-116789771D02*
X81516072Y-116789771D01*
X81516072Y-116789771D02*
X81573214Y-116761200D01*
X81573214Y-116761200D02*
X81601786Y-116732628D01*
X81087500Y-116189771D02*
X80887500Y-116789771D01*
X80887500Y-116789771D02*
X80687500Y-116189771D01*
X52957142Y-77069771D02*
X52957142Y-76469771D01*
X52957142Y-76469771D02*
X52814285Y-76469771D01*
X52814285Y-76469771D02*
X52728571Y-76498342D01*
X52728571Y-76498342D02*
X52671428Y-76555485D01*
X52671428Y-76555485D02*
X52642857Y-76612628D01*
X52642857Y-76612628D02*
X52614285Y-76726914D01*
X52614285Y-76726914D02*
X52614285Y-76812628D01*
X52614285Y-76812628D02*
X52642857Y-76926914D01*
X52642857Y-76926914D02*
X52671428Y-76984057D01*
X52671428Y-76984057D02*
X52728571Y-77041200D01*
X52728571Y-77041200D02*
X52814285Y-77069771D01*
X52814285Y-77069771D02*
X52957142Y-77069771D01*
X52357142Y-76841200D02*
X51900000Y-76841200D01*
X52128571Y-77069771D02*
X52128571Y-76612628D01*
X51671428Y-76469771D02*
X51300000Y-76469771D01*
X51300000Y-76469771D02*
X51500000Y-76698342D01*
X51500000Y-76698342D02*
X51414285Y-76698342D01*
X51414285Y-76698342D02*
X51357143Y-76726914D01*
X51357143Y-76726914D02*
X51328571Y-76755485D01*
X51328571Y-76755485D02*
X51300000Y-76812628D01*
X51300000Y-76812628D02*
X51300000Y-76955485D01*
X51300000Y-76955485D02*
X51328571Y-77012628D01*
X51328571Y-77012628D02*
X51357143Y-77041200D01*
X51357143Y-77041200D02*
X51414285Y-77069771D01*
X51414285Y-77069771D02*
X51585714Y-77069771D01*
X51585714Y-77069771D02*
X51642857Y-77041200D01*
X51642857Y-77041200D02*
X51671428Y-77012628D01*
X51128571Y-76469771D02*
X50928571Y-77069771D01*
X50928571Y-77069771D02*
X50728571Y-76469771D01*
X50585713Y-76469771D02*
X50214285Y-76469771D01*
X50214285Y-76469771D02*
X50414285Y-76698342D01*
X50414285Y-76698342D02*
X50328570Y-76698342D01*
X50328570Y-76698342D02*
X50271428Y-76726914D01*
X50271428Y-76726914D02*
X50242856Y-76755485D01*
X50242856Y-76755485D02*
X50214285Y-76812628D01*
X50214285Y-76812628D02*
X50214285Y-76955485D01*
X50214285Y-76955485D02*
X50242856Y-77012628D01*
X50242856Y-77012628D02*
X50271428Y-77041200D01*
X50271428Y-77041200D02*
X50328570Y-77069771D01*
X50328570Y-77069771D02*
X50499999Y-77069771D01*
X50499999Y-77069771D02*
X50557142Y-77041200D01*
X50557142Y-77041200D02*
X50585713Y-77012628D01*
X49012628Y-85214285D02*
X49041200Y-85185713D01*
X49041200Y-85185713D02*
X49069771Y-85099999D01*
X49069771Y-85099999D02*
X49069771Y-85042856D01*
X49069771Y-85042856D02*
X49041200Y-84957142D01*
X49041200Y-84957142D02*
X48984057Y-84899999D01*
X48984057Y-84899999D02*
X48926914Y-84871428D01*
X48926914Y-84871428D02*
X48812628Y-84842856D01*
X48812628Y-84842856D02*
X48726914Y-84842856D01*
X48726914Y-84842856D02*
X48612628Y-84871428D01*
X48612628Y-84871428D02*
X48555485Y-84899999D01*
X48555485Y-84899999D02*
X48498342Y-84957142D01*
X48498342Y-84957142D02*
X48469771Y-85042856D01*
X48469771Y-85042856D02*
X48469771Y-85099999D01*
X48469771Y-85099999D02*
X48498342Y-85185713D01*
X48498342Y-85185713D02*
X48526914Y-85214285D01*
X49069771Y-85785713D02*
X49069771Y-85442856D01*
X49069771Y-85614285D02*
X48469771Y-85614285D01*
X48469771Y-85614285D02*
X48555485Y-85557142D01*
X48555485Y-85557142D02*
X48612628Y-85499999D01*
X48612628Y-85499999D02*
X48641200Y-85442856D01*
X48469771Y-86300000D02*
X48469771Y-86185714D01*
X48469771Y-86185714D02*
X48498342Y-86128571D01*
X48498342Y-86128571D02*
X48526914Y-86100000D01*
X48526914Y-86100000D02*
X48612628Y-86042857D01*
X48612628Y-86042857D02*
X48726914Y-86014285D01*
X48726914Y-86014285D02*
X48955485Y-86014285D01*
X48955485Y-86014285D02*
X49012628Y-86042857D01*
X49012628Y-86042857D02*
X49041200Y-86071428D01*
X49041200Y-86071428D02*
X49069771Y-86128571D01*
X49069771Y-86128571D02*
X49069771Y-86242857D01*
X49069771Y-86242857D02*
X49041200Y-86300000D01*
X49041200Y-86300000D02*
X49012628Y-86328571D01*
X49012628Y-86328571D02*
X48955485Y-86357142D01*
X48955485Y-86357142D02*
X48812628Y-86357142D01*
X48812628Y-86357142D02*
X48755485Y-86328571D01*
X48755485Y-86328571D02*
X48726914Y-86300000D01*
X48726914Y-86300000D02*
X48698342Y-86242857D01*
X48698342Y-86242857D02*
X48698342Y-86128571D01*
X48698342Y-86128571D02*
X48726914Y-86071428D01*
X48726914Y-86071428D02*
X48755485Y-86042857D01*
X48755485Y-86042857D02*
X48812628Y-86014285D01*
X69549999Y-104519771D02*
X69749999Y-104234057D01*
X69892856Y-104519771D02*
X69892856Y-103919771D01*
X69892856Y-103919771D02*
X69664285Y-103919771D01*
X69664285Y-103919771D02*
X69607142Y-103948342D01*
X69607142Y-103948342D02*
X69578571Y-103976914D01*
X69578571Y-103976914D02*
X69549999Y-104034057D01*
X69549999Y-104034057D02*
X69549999Y-104119771D01*
X69549999Y-104119771D02*
X69578571Y-104176914D01*
X69578571Y-104176914D02*
X69607142Y-104205485D01*
X69607142Y-104205485D02*
X69664285Y-104234057D01*
X69664285Y-104234057D02*
X69892856Y-104234057D01*
X69349999Y-103919771D02*
X68949999Y-103919771D01*
X68949999Y-103919771D02*
X69207142Y-104519771D01*
X78765714Y-82062628D02*
X78794286Y-82091200D01*
X78794286Y-82091200D02*
X78880000Y-82119771D01*
X78880000Y-82119771D02*
X78937143Y-82119771D01*
X78937143Y-82119771D02*
X79022857Y-82091200D01*
X79022857Y-82091200D02*
X79080000Y-82034057D01*
X79080000Y-82034057D02*
X79108571Y-81976914D01*
X79108571Y-81976914D02*
X79137143Y-81862628D01*
X79137143Y-81862628D02*
X79137143Y-81776914D01*
X79137143Y-81776914D02*
X79108571Y-81662628D01*
X79108571Y-81662628D02*
X79080000Y-81605485D01*
X79080000Y-81605485D02*
X79022857Y-81548342D01*
X79022857Y-81548342D02*
X78937143Y-81519771D01*
X78937143Y-81519771D02*
X78880000Y-81519771D01*
X78880000Y-81519771D02*
X78794286Y-81548342D01*
X78794286Y-81548342D02*
X78765714Y-81576914D01*
X78565714Y-81519771D02*
X78194286Y-81519771D01*
X78194286Y-81519771D02*
X78394286Y-81748342D01*
X78394286Y-81748342D02*
X78308571Y-81748342D01*
X78308571Y-81748342D02*
X78251429Y-81776914D01*
X78251429Y-81776914D02*
X78222857Y-81805485D01*
X78222857Y-81805485D02*
X78194286Y-81862628D01*
X78194286Y-81862628D02*
X78194286Y-82005485D01*
X78194286Y-82005485D02*
X78222857Y-82062628D01*
X78222857Y-82062628D02*
X78251429Y-82091200D01*
X78251429Y-82091200D02*
X78308571Y-82119771D01*
X78308571Y-82119771D02*
X78480000Y-82119771D01*
X78480000Y-82119771D02*
X78537143Y-82091200D01*
X78537143Y-82091200D02*
X78565714Y-82062628D01*
X77651428Y-81519771D02*
X77937142Y-81519771D01*
X77937142Y-81519771D02*
X77965714Y-81805485D01*
X77965714Y-81805485D02*
X77937142Y-81776914D01*
X77937142Y-81776914D02*
X77880000Y-81748342D01*
X77880000Y-81748342D02*
X77737142Y-81748342D01*
X77737142Y-81748342D02*
X77680000Y-81776914D01*
X77680000Y-81776914D02*
X77651428Y-81805485D01*
X77651428Y-81805485D02*
X77622857Y-81862628D01*
X77622857Y-81862628D02*
X77622857Y-82005485D01*
X77622857Y-82005485D02*
X77651428Y-82062628D01*
X77651428Y-82062628D02*
X77680000Y-82091200D01*
X77680000Y-82091200D02*
X77737142Y-82119771D01*
X77737142Y-82119771D02*
X77880000Y-82119771D01*
X77880000Y-82119771D02*
X77937142Y-82091200D01*
X77937142Y-82091200D02*
X77965714Y-82062628D01*
X49012628Y-87914285D02*
X49041200Y-87885713D01*
X49041200Y-87885713D02*
X49069771Y-87799999D01*
X49069771Y-87799999D02*
X49069771Y-87742856D01*
X49069771Y-87742856D02*
X49041200Y-87657142D01*
X49041200Y-87657142D02*
X48984057Y-87599999D01*
X48984057Y-87599999D02*
X48926914Y-87571428D01*
X48926914Y-87571428D02*
X48812628Y-87542856D01*
X48812628Y-87542856D02*
X48726914Y-87542856D01*
X48726914Y-87542856D02*
X48612628Y-87571428D01*
X48612628Y-87571428D02*
X48555485Y-87599999D01*
X48555485Y-87599999D02*
X48498342Y-87657142D01*
X48498342Y-87657142D02*
X48469771Y-87742856D01*
X48469771Y-87742856D02*
X48469771Y-87799999D01*
X48469771Y-87799999D02*
X48498342Y-87885713D01*
X48498342Y-87885713D02*
X48526914Y-87914285D01*
X49069771Y-88485713D02*
X49069771Y-88142856D01*
X49069771Y-88314285D02*
X48469771Y-88314285D01*
X48469771Y-88314285D02*
X48555485Y-88257142D01*
X48555485Y-88257142D02*
X48612628Y-88199999D01*
X48612628Y-88199999D02*
X48641200Y-88142856D01*
X48469771Y-88685714D02*
X48469771Y-89057142D01*
X48469771Y-89057142D02*
X48698342Y-88857142D01*
X48698342Y-88857142D02*
X48698342Y-88942857D01*
X48698342Y-88942857D02*
X48726914Y-89000000D01*
X48726914Y-89000000D02*
X48755485Y-89028571D01*
X48755485Y-89028571D02*
X48812628Y-89057142D01*
X48812628Y-89057142D02*
X48955485Y-89057142D01*
X48955485Y-89057142D02*
X49012628Y-89028571D01*
X49012628Y-89028571D02*
X49041200Y-89000000D01*
X49041200Y-89000000D02*
X49069771Y-88942857D01*
X49069771Y-88942857D02*
X49069771Y-88771428D01*
X49069771Y-88771428D02*
X49041200Y-88714285D01*
X49041200Y-88714285D02*
X49012628Y-88685714D01*
X88310714Y-107069771D02*
X88510714Y-106784057D01*
X88653571Y-107069771D02*
X88653571Y-106469771D01*
X88653571Y-106469771D02*
X88425000Y-106469771D01*
X88425000Y-106469771D02*
X88367857Y-106498342D01*
X88367857Y-106498342D02*
X88339286Y-106526914D01*
X88339286Y-106526914D02*
X88310714Y-106584057D01*
X88310714Y-106584057D02*
X88310714Y-106669771D01*
X88310714Y-106669771D02*
X88339286Y-106726914D01*
X88339286Y-106726914D02*
X88367857Y-106755485D01*
X88367857Y-106755485D02*
X88425000Y-106784057D01*
X88425000Y-106784057D02*
X88653571Y-106784057D01*
X87767857Y-106469771D02*
X88053571Y-106469771D01*
X88053571Y-106469771D02*
X88082143Y-106755485D01*
X88082143Y-106755485D02*
X88053571Y-106726914D01*
X88053571Y-106726914D02*
X87996429Y-106698342D01*
X87996429Y-106698342D02*
X87853571Y-106698342D01*
X87853571Y-106698342D02*
X87796429Y-106726914D01*
X87796429Y-106726914D02*
X87767857Y-106755485D01*
X87767857Y-106755485D02*
X87739286Y-106812628D01*
X87739286Y-106812628D02*
X87739286Y-106955485D01*
X87739286Y-106955485D02*
X87767857Y-107012628D01*
X87767857Y-107012628D02*
X87796429Y-107041200D01*
X87796429Y-107041200D02*
X87853571Y-107069771D01*
X87853571Y-107069771D02*
X87996429Y-107069771D01*
X87996429Y-107069771D02*
X88053571Y-107041200D01*
X88053571Y-107041200D02*
X88082143Y-107012628D01*
X87539285Y-106469771D02*
X87139285Y-106469771D01*
X87139285Y-106469771D02*
X87396428Y-107069771D01*
X69310714Y-93362628D02*
X69339286Y-93391200D01*
X69339286Y-93391200D02*
X69425000Y-93419771D01*
X69425000Y-93419771D02*
X69482143Y-93419771D01*
X69482143Y-93419771D02*
X69567857Y-93391200D01*
X69567857Y-93391200D02*
X69625000Y-93334057D01*
X69625000Y-93334057D02*
X69653571Y-93276914D01*
X69653571Y-93276914D02*
X69682143Y-93162628D01*
X69682143Y-93162628D02*
X69682143Y-93076914D01*
X69682143Y-93076914D02*
X69653571Y-92962628D01*
X69653571Y-92962628D02*
X69625000Y-92905485D01*
X69625000Y-92905485D02*
X69567857Y-92848342D01*
X69567857Y-92848342D02*
X69482143Y-92819771D01*
X69482143Y-92819771D02*
X69425000Y-92819771D01*
X69425000Y-92819771D02*
X69339286Y-92848342D01*
X69339286Y-92848342D02*
X69310714Y-92876914D01*
X69082143Y-92876914D02*
X69053571Y-92848342D01*
X69053571Y-92848342D02*
X68996429Y-92819771D01*
X68996429Y-92819771D02*
X68853571Y-92819771D01*
X68853571Y-92819771D02*
X68796429Y-92848342D01*
X68796429Y-92848342D02*
X68767857Y-92876914D01*
X68767857Y-92876914D02*
X68739286Y-92934057D01*
X68739286Y-92934057D02*
X68739286Y-92991200D01*
X68739286Y-92991200D02*
X68767857Y-93076914D01*
X68767857Y-93076914D02*
X69110714Y-93419771D01*
X69110714Y-93419771D02*
X68739286Y-93419771D01*
X68539285Y-92819771D02*
X68167857Y-92819771D01*
X68167857Y-92819771D02*
X68367857Y-93048342D01*
X68367857Y-93048342D02*
X68282142Y-93048342D01*
X68282142Y-93048342D02*
X68225000Y-93076914D01*
X68225000Y-93076914D02*
X68196428Y-93105485D01*
X68196428Y-93105485D02*
X68167857Y-93162628D01*
X68167857Y-93162628D02*
X68167857Y-93305485D01*
X68167857Y-93305485D02*
X68196428Y-93362628D01*
X68196428Y-93362628D02*
X68225000Y-93391200D01*
X68225000Y-93391200D02*
X68282142Y-93419771D01*
X68282142Y-93419771D02*
X68453571Y-93419771D01*
X68453571Y-93419771D02*
X68510714Y-93391200D01*
X68510714Y-93391200D02*
X68539285Y-93362628D01*
X56685714Y-90312628D02*
X56714286Y-90341200D01*
X56714286Y-90341200D02*
X56800000Y-90369771D01*
X56800000Y-90369771D02*
X56857143Y-90369771D01*
X56857143Y-90369771D02*
X56942857Y-90341200D01*
X56942857Y-90341200D02*
X57000000Y-90284057D01*
X57000000Y-90284057D02*
X57028571Y-90226914D01*
X57028571Y-90226914D02*
X57057143Y-90112628D01*
X57057143Y-90112628D02*
X57057143Y-90026914D01*
X57057143Y-90026914D02*
X57028571Y-89912628D01*
X57028571Y-89912628D02*
X57000000Y-89855485D01*
X57000000Y-89855485D02*
X56942857Y-89798342D01*
X56942857Y-89798342D02*
X56857143Y-89769771D01*
X56857143Y-89769771D02*
X56800000Y-89769771D01*
X56800000Y-89769771D02*
X56714286Y-89798342D01*
X56714286Y-89798342D02*
X56685714Y-89826914D01*
X56114286Y-90369771D02*
X56457143Y-90369771D01*
X56285714Y-90369771D02*
X56285714Y-89769771D01*
X56285714Y-89769771D02*
X56342857Y-89855485D01*
X56342857Y-89855485D02*
X56400000Y-89912628D01*
X56400000Y-89912628D02*
X56457143Y-89941200D01*
X55600000Y-89969771D02*
X55600000Y-90369771D01*
X55742857Y-89741200D02*
X55885714Y-90169771D01*
X55885714Y-90169771D02*
X55514285Y-90169771D01*
X70185714Y-73512628D02*
X70214286Y-73541200D01*
X70214286Y-73541200D02*
X70300000Y-73569771D01*
X70300000Y-73569771D02*
X70357143Y-73569771D01*
X70357143Y-73569771D02*
X70442857Y-73541200D01*
X70442857Y-73541200D02*
X70500000Y-73484057D01*
X70500000Y-73484057D02*
X70528571Y-73426914D01*
X70528571Y-73426914D02*
X70557143Y-73312628D01*
X70557143Y-73312628D02*
X70557143Y-73226914D01*
X70557143Y-73226914D02*
X70528571Y-73112628D01*
X70528571Y-73112628D02*
X70500000Y-73055485D01*
X70500000Y-73055485D02*
X70442857Y-72998342D01*
X70442857Y-72998342D02*
X70357143Y-72969771D01*
X70357143Y-72969771D02*
X70300000Y-72969771D01*
X70300000Y-72969771D02*
X70214286Y-72998342D01*
X70214286Y-72998342D02*
X70185714Y-73026914D01*
X69985714Y-72969771D02*
X69614286Y-72969771D01*
X69614286Y-72969771D02*
X69814286Y-73198342D01*
X69814286Y-73198342D02*
X69728571Y-73198342D01*
X69728571Y-73198342D02*
X69671429Y-73226914D01*
X69671429Y-73226914D02*
X69642857Y-73255485D01*
X69642857Y-73255485D02*
X69614286Y-73312628D01*
X69614286Y-73312628D02*
X69614286Y-73455485D01*
X69614286Y-73455485D02*
X69642857Y-73512628D01*
X69642857Y-73512628D02*
X69671429Y-73541200D01*
X69671429Y-73541200D02*
X69728571Y-73569771D01*
X69728571Y-73569771D02*
X69900000Y-73569771D01*
X69900000Y-73569771D02*
X69957143Y-73541200D01*
X69957143Y-73541200D02*
X69985714Y-73512628D01*
X69385714Y-73026914D02*
X69357142Y-72998342D01*
X69357142Y-72998342D02*
X69300000Y-72969771D01*
X69300000Y-72969771D02*
X69157142Y-72969771D01*
X69157142Y-72969771D02*
X69100000Y-72998342D01*
X69100000Y-72998342D02*
X69071428Y-73026914D01*
X69071428Y-73026914D02*
X69042857Y-73084057D01*
X69042857Y-73084057D02*
X69042857Y-73141200D01*
X69042857Y-73141200D02*
X69071428Y-73226914D01*
X69071428Y-73226914D02*
X69414285Y-73569771D01*
X69414285Y-73569771D02*
X69042857Y-73569771D01*
X93889999Y-117592628D02*
X93918571Y-117621200D01*
X93918571Y-117621200D02*
X94004285Y-117649771D01*
X94004285Y-117649771D02*
X94061428Y-117649771D01*
X94061428Y-117649771D02*
X94147142Y-117621200D01*
X94147142Y-117621200D02*
X94204285Y-117564057D01*
X94204285Y-117564057D02*
X94232856Y-117506914D01*
X94232856Y-117506914D02*
X94261428Y-117392628D01*
X94261428Y-117392628D02*
X94261428Y-117306914D01*
X94261428Y-117306914D02*
X94232856Y-117192628D01*
X94232856Y-117192628D02*
X94204285Y-117135485D01*
X94204285Y-117135485D02*
X94147142Y-117078342D01*
X94147142Y-117078342D02*
X94061428Y-117049771D01*
X94061428Y-117049771D02*
X94004285Y-117049771D01*
X94004285Y-117049771D02*
X93918571Y-117078342D01*
X93918571Y-117078342D02*
X93889999Y-117106914D01*
X93375714Y-117049771D02*
X93489999Y-117049771D01*
X93489999Y-117049771D02*
X93547142Y-117078342D01*
X93547142Y-117078342D02*
X93575714Y-117106914D01*
X93575714Y-117106914D02*
X93632856Y-117192628D01*
X93632856Y-117192628D02*
X93661428Y-117306914D01*
X93661428Y-117306914D02*
X93661428Y-117535485D01*
X93661428Y-117535485D02*
X93632856Y-117592628D01*
X93632856Y-117592628D02*
X93604285Y-117621200D01*
X93604285Y-117621200D02*
X93547142Y-117649771D01*
X93547142Y-117649771D02*
X93432856Y-117649771D01*
X93432856Y-117649771D02*
X93375714Y-117621200D01*
X93375714Y-117621200D02*
X93347142Y-117592628D01*
X93347142Y-117592628D02*
X93318571Y-117535485D01*
X93318571Y-117535485D02*
X93318571Y-117392628D01*
X93318571Y-117392628D02*
X93347142Y-117335485D01*
X93347142Y-117335485D02*
X93375714Y-117306914D01*
X93375714Y-117306914D02*
X93432856Y-117278342D01*
X93432856Y-117278342D02*
X93547142Y-117278342D01*
X93547142Y-117278342D02*
X93604285Y-117306914D01*
X93604285Y-117306914D02*
X93632856Y-117335485D01*
X93632856Y-117335485D02*
X93661428Y-117392628D01*
X95785714Y-110012628D02*
X95814286Y-110041200D01*
X95814286Y-110041200D02*
X95900000Y-110069771D01*
X95900000Y-110069771D02*
X95957143Y-110069771D01*
X95957143Y-110069771D02*
X96042857Y-110041200D01*
X96042857Y-110041200D02*
X96100000Y-109984057D01*
X96100000Y-109984057D02*
X96128571Y-109926914D01*
X96128571Y-109926914D02*
X96157143Y-109812628D01*
X96157143Y-109812628D02*
X96157143Y-109726914D01*
X96157143Y-109726914D02*
X96128571Y-109612628D01*
X96128571Y-109612628D02*
X96100000Y-109555485D01*
X96100000Y-109555485D02*
X96042857Y-109498342D01*
X96042857Y-109498342D02*
X95957143Y-109469771D01*
X95957143Y-109469771D02*
X95900000Y-109469771D01*
X95900000Y-109469771D02*
X95814286Y-109498342D01*
X95814286Y-109498342D02*
X95785714Y-109526914D01*
X95271429Y-109469771D02*
X95385714Y-109469771D01*
X95385714Y-109469771D02*
X95442857Y-109498342D01*
X95442857Y-109498342D02*
X95471429Y-109526914D01*
X95471429Y-109526914D02*
X95528571Y-109612628D01*
X95528571Y-109612628D02*
X95557143Y-109726914D01*
X95557143Y-109726914D02*
X95557143Y-109955485D01*
X95557143Y-109955485D02*
X95528571Y-110012628D01*
X95528571Y-110012628D02*
X95500000Y-110041200D01*
X95500000Y-110041200D02*
X95442857Y-110069771D01*
X95442857Y-110069771D02*
X95328571Y-110069771D01*
X95328571Y-110069771D02*
X95271429Y-110041200D01*
X95271429Y-110041200D02*
X95242857Y-110012628D01*
X95242857Y-110012628D02*
X95214286Y-109955485D01*
X95214286Y-109955485D02*
X95214286Y-109812628D01*
X95214286Y-109812628D02*
X95242857Y-109755485D01*
X95242857Y-109755485D02*
X95271429Y-109726914D01*
X95271429Y-109726914D02*
X95328571Y-109698342D01*
X95328571Y-109698342D02*
X95442857Y-109698342D01*
X95442857Y-109698342D02*
X95500000Y-109726914D01*
X95500000Y-109726914D02*
X95528571Y-109755485D01*
X95528571Y-109755485D02*
X95557143Y-109812628D01*
X94642857Y-110069771D02*
X94985714Y-110069771D01*
X94814285Y-110069771D02*
X94814285Y-109469771D01*
X94814285Y-109469771D02*
X94871428Y-109555485D01*
X94871428Y-109555485D02*
X94928571Y-109612628D01*
X94928571Y-109612628D02*
X94985714Y-109641200D01*
X95785714Y-108269771D02*
X95985714Y-107984057D01*
X96128571Y-108269771D02*
X96128571Y-107669771D01*
X96128571Y-107669771D02*
X95900000Y-107669771D01*
X95900000Y-107669771D02*
X95842857Y-107698342D01*
X95842857Y-107698342D02*
X95814286Y-107726914D01*
X95814286Y-107726914D02*
X95785714Y-107784057D01*
X95785714Y-107784057D02*
X95785714Y-107869771D01*
X95785714Y-107869771D02*
X95814286Y-107926914D01*
X95814286Y-107926914D02*
X95842857Y-107955485D01*
X95842857Y-107955485D02*
X95900000Y-107984057D01*
X95900000Y-107984057D02*
X96128571Y-107984057D01*
X95271429Y-107669771D02*
X95385714Y-107669771D01*
X95385714Y-107669771D02*
X95442857Y-107698342D01*
X95442857Y-107698342D02*
X95471429Y-107726914D01*
X95471429Y-107726914D02*
X95528571Y-107812628D01*
X95528571Y-107812628D02*
X95557143Y-107926914D01*
X95557143Y-107926914D02*
X95557143Y-108155485D01*
X95557143Y-108155485D02*
X95528571Y-108212628D01*
X95528571Y-108212628D02*
X95500000Y-108241200D01*
X95500000Y-108241200D02*
X95442857Y-108269771D01*
X95442857Y-108269771D02*
X95328571Y-108269771D01*
X95328571Y-108269771D02*
X95271429Y-108241200D01*
X95271429Y-108241200D02*
X95242857Y-108212628D01*
X95242857Y-108212628D02*
X95214286Y-108155485D01*
X95214286Y-108155485D02*
X95214286Y-108012628D01*
X95214286Y-108012628D02*
X95242857Y-107955485D01*
X95242857Y-107955485D02*
X95271429Y-107926914D01*
X95271429Y-107926914D02*
X95328571Y-107898342D01*
X95328571Y-107898342D02*
X95442857Y-107898342D01*
X95442857Y-107898342D02*
X95500000Y-107926914D01*
X95500000Y-107926914D02*
X95528571Y-107955485D01*
X95528571Y-107955485D02*
X95557143Y-108012628D01*
X94985714Y-107726914D02*
X94957142Y-107698342D01*
X94957142Y-107698342D02*
X94900000Y-107669771D01*
X94900000Y-107669771D02*
X94757142Y-107669771D01*
X94757142Y-107669771D02*
X94700000Y-107698342D01*
X94700000Y-107698342D02*
X94671428Y-107726914D01*
X94671428Y-107726914D02*
X94642857Y-107784057D01*
X94642857Y-107784057D02*
X94642857Y-107841200D01*
X94642857Y-107841200D02*
X94671428Y-107926914D01*
X94671428Y-107926914D02*
X95014285Y-108269771D01*
X95014285Y-108269771D02*
X94642857Y-108269771D01*
X60985714Y-90312628D02*
X61014286Y-90341200D01*
X61014286Y-90341200D02*
X61100000Y-90369771D01*
X61100000Y-90369771D02*
X61157143Y-90369771D01*
X61157143Y-90369771D02*
X61242857Y-90341200D01*
X61242857Y-90341200D02*
X61300000Y-90284057D01*
X61300000Y-90284057D02*
X61328571Y-90226914D01*
X61328571Y-90226914D02*
X61357143Y-90112628D01*
X61357143Y-90112628D02*
X61357143Y-90026914D01*
X61357143Y-90026914D02*
X61328571Y-89912628D01*
X61328571Y-89912628D02*
X61300000Y-89855485D01*
X61300000Y-89855485D02*
X61242857Y-89798342D01*
X61242857Y-89798342D02*
X61157143Y-89769771D01*
X61157143Y-89769771D02*
X61100000Y-89769771D01*
X61100000Y-89769771D02*
X61014286Y-89798342D01*
X61014286Y-89798342D02*
X60985714Y-89826914D01*
X60414286Y-90369771D02*
X60757143Y-90369771D01*
X60585714Y-90369771D02*
X60585714Y-89769771D01*
X60585714Y-89769771D02*
X60642857Y-89855485D01*
X60642857Y-89855485D02*
X60700000Y-89912628D01*
X60700000Y-89912628D02*
X60757143Y-89941200D01*
X59871428Y-89769771D02*
X60157142Y-89769771D01*
X60157142Y-89769771D02*
X60185714Y-90055485D01*
X60185714Y-90055485D02*
X60157142Y-90026914D01*
X60157142Y-90026914D02*
X60100000Y-89998342D01*
X60100000Y-89998342D02*
X59957142Y-89998342D01*
X59957142Y-89998342D02*
X59900000Y-90026914D01*
X59900000Y-90026914D02*
X59871428Y-90055485D01*
X59871428Y-90055485D02*
X59842857Y-90112628D01*
X59842857Y-90112628D02*
X59842857Y-90255485D01*
X59842857Y-90255485D02*
X59871428Y-90312628D01*
X59871428Y-90312628D02*
X59900000Y-90341200D01*
X59900000Y-90341200D02*
X59957142Y-90369771D01*
X59957142Y-90369771D02*
X60100000Y-90369771D01*
X60100000Y-90369771D02*
X60157142Y-90341200D01*
X60157142Y-90341200D02*
X60185714Y-90312628D01*
X88310714Y-105294771D02*
X88510714Y-105009057D01*
X88653571Y-105294771D02*
X88653571Y-104694771D01*
X88653571Y-104694771D02*
X88425000Y-104694771D01*
X88425000Y-104694771D02*
X88367857Y-104723342D01*
X88367857Y-104723342D02*
X88339286Y-104751914D01*
X88339286Y-104751914D02*
X88310714Y-104809057D01*
X88310714Y-104809057D02*
X88310714Y-104894771D01*
X88310714Y-104894771D02*
X88339286Y-104951914D01*
X88339286Y-104951914D02*
X88367857Y-104980485D01*
X88367857Y-104980485D02*
X88425000Y-105009057D01*
X88425000Y-105009057D02*
X88653571Y-105009057D01*
X87767857Y-104694771D02*
X88053571Y-104694771D01*
X88053571Y-104694771D02*
X88082143Y-104980485D01*
X88082143Y-104980485D02*
X88053571Y-104951914D01*
X88053571Y-104951914D02*
X87996429Y-104923342D01*
X87996429Y-104923342D02*
X87853571Y-104923342D01*
X87853571Y-104923342D02*
X87796429Y-104951914D01*
X87796429Y-104951914D02*
X87767857Y-104980485D01*
X87767857Y-104980485D02*
X87739286Y-105037628D01*
X87739286Y-105037628D02*
X87739286Y-105180485D01*
X87739286Y-105180485D02*
X87767857Y-105237628D01*
X87767857Y-105237628D02*
X87796429Y-105266200D01*
X87796429Y-105266200D02*
X87853571Y-105294771D01*
X87853571Y-105294771D02*
X87996429Y-105294771D01*
X87996429Y-105294771D02*
X88053571Y-105266200D01*
X88053571Y-105266200D02*
X88082143Y-105237628D01*
X87225000Y-104694771D02*
X87339285Y-104694771D01*
X87339285Y-104694771D02*
X87396428Y-104723342D01*
X87396428Y-104723342D02*
X87425000Y-104751914D01*
X87425000Y-104751914D02*
X87482142Y-104837628D01*
X87482142Y-104837628D02*
X87510714Y-104951914D01*
X87510714Y-104951914D02*
X87510714Y-105180485D01*
X87510714Y-105180485D02*
X87482142Y-105237628D01*
X87482142Y-105237628D02*
X87453571Y-105266200D01*
X87453571Y-105266200D02*
X87396428Y-105294771D01*
X87396428Y-105294771D02*
X87282142Y-105294771D01*
X87282142Y-105294771D02*
X87225000Y-105266200D01*
X87225000Y-105266200D02*
X87196428Y-105237628D01*
X87196428Y-105237628D02*
X87167857Y-105180485D01*
X87167857Y-105180485D02*
X87167857Y-105037628D01*
X87167857Y-105037628D02*
X87196428Y-104980485D01*
X87196428Y-104980485D02*
X87225000Y-104951914D01*
X87225000Y-104951914D02*
X87282142Y-104923342D01*
X87282142Y-104923342D02*
X87396428Y-104923342D01*
X87396428Y-104923342D02*
X87453571Y-104951914D01*
X87453571Y-104951914D02*
X87482142Y-104980485D01*
X87482142Y-104980485D02*
X87510714Y-105037628D01*
X69310714Y-96819771D02*
X69510714Y-96534057D01*
X69653571Y-96819771D02*
X69653571Y-96219771D01*
X69653571Y-96219771D02*
X69425000Y-96219771D01*
X69425000Y-96219771D02*
X69367857Y-96248342D01*
X69367857Y-96248342D02*
X69339286Y-96276914D01*
X69339286Y-96276914D02*
X69310714Y-96334057D01*
X69310714Y-96334057D02*
X69310714Y-96419771D01*
X69310714Y-96419771D02*
X69339286Y-96476914D01*
X69339286Y-96476914D02*
X69367857Y-96505485D01*
X69367857Y-96505485D02*
X69425000Y-96534057D01*
X69425000Y-96534057D02*
X69653571Y-96534057D01*
X68739286Y-96819771D02*
X69082143Y-96819771D01*
X68910714Y-96819771D02*
X68910714Y-96219771D01*
X68910714Y-96219771D02*
X68967857Y-96305485D01*
X68967857Y-96305485D02*
X69025000Y-96362628D01*
X69025000Y-96362628D02*
X69082143Y-96391200D01*
X68539285Y-96219771D02*
X68139285Y-96219771D01*
X68139285Y-96219771D02*
X68396428Y-96819771D01*
X69310714Y-98462628D02*
X69339286Y-98491200D01*
X69339286Y-98491200D02*
X69425000Y-98519771D01*
X69425000Y-98519771D02*
X69482143Y-98519771D01*
X69482143Y-98519771D02*
X69567857Y-98491200D01*
X69567857Y-98491200D02*
X69625000Y-98434057D01*
X69625000Y-98434057D02*
X69653571Y-98376914D01*
X69653571Y-98376914D02*
X69682143Y-98262628D01*
X69682143Y-98262628D02*
X69682143Y-98176914D01*
X69682143Y-98176914D02*
X69653571Y-98062628D01*
X69653571Y-98062628D02*
X69625000Y-98005485D01*
X69625000Y-98005485D02*
X69567857Y-97948342D01*
X69567857Y-97948342D02*
X69482143Y-97919771D01*
X69482143Y-97919771D02*
X69425000Y-97919771D01*
X69425000Y-97919771D02*
X69339286Y-97948342D01*
X69339286Y-97948342D02*
X69310714Y-97976914D01*
X69082143Y-97976914D02*
X69053571Y-97948342D01*
X69053571Y-97948342D02*
X68996429Y-97919771D01*
X68996429Y-97919771D02*
X68853571Y-97919771D01*
X68853571Y-97919771D02*
X68796429Y-97948342D01*
X68796429Y-97948342D02*
X68767857Y-97976914D01*
X68767857Y-97976914D02*
X68739286Y-98034057D01*
X68739286Y-98034057D02*
X68739286Y-98091200D01*
X68739286Y-98091200D02*
X68767857Y-98176914D01*
X68767857Y-98176914D02*
X69110714Y-98519771D01*
X69110714Y-98519771D02*
X68739286Y-98519771D01*
X68225000Y-97919771D02*
X68339285Y-97919771D01*
X68339285Y-97919771D02*
X68396428Y-97948342D01*
X68396428Y-97948342D02*
X68425000Y-97976914D01*
X68425000Y-97976914D02*
X68482142Y-98062628D01*
X68482142Y-98062628D02*
X68510714Y-98176914D01*
X68510714Y-98176914D02*
X68510714Y-98405485D01*
X68510714Y-98405485D02*
X68482142Y-98462628D01*
X68482142Y-98462628D02*
X68453571Y-98491200D01*
X68453571Y-98491200D02*
X68396428Y-98519771D01*
X68396428Y-98519771D02*
X68282142Y-98519771D01*
X68282142Y-98519771D02*
X68225000Y-98491200D01*
X68225000Y-98491200D02*
X68196428Y-98462628D01*
X68196428Y-98462628D02*
X68167857Y-98405485D01*
X68167857Y-98405485D02*
X68167857Y-98262628D01*
X68167857Y-98262628D02*
X68196428Y-98205485D01*
X68196428Y-98205485D02*
X68225000Y-98176914D01*
X68225000Y-98176914D02*
X68282142Y-98148342D01*
X68282142Y-98148342D02*
X68396428Y-98148342D01*
X68396428Y-98148342D02*
X68453571Y-98176914D01*
X68453571Y-98176914D02*
X68482142Y-98205485D01*
X68482142Y-98205485D02*
X68510714Y-98262628D01*
X115535714Y-81399771D02*
X115735714Y-81114057D01*
X115878571Y-81399771D02*
X115878571Y-80799771D01*
X115878571Y-80799771D02*
X115650000Y-80799771D01*
X115650000Y-80799771D02*
X115592857Y-80828342D01*
X115592857Y-80828342D02*
X115564286Y-80856914D01*
X115564286Y-80856914D02*
X115535714Y-80914057D01*
X115535714Y-80914057D02*
X115535714Y-80999771D01*
X115535714Y-80999771D02*
X115564286Y-81056914D01*
X115564286Y-81056914D02*
X115592857Y-81085485D01*
X115592857Y-81085485D02*
X115650000Y-81114057D01*
X115650000Y-81114057D02*
X115878571Y-81114057D01*
X115307143Y-80856914D02*
X115278571Y-80828342D01*
X115278571Y-80828342D02*
X115221429Y-80799771D01*
X115221429Y-80799771D02*
X115078571Y-80799771D01*
X115078571Y-80799771D02*
X115021429Y-80828342D01*
X115021429Y-80828342D02*
X114992857Y-80856914D01*
X114992857Y-80856914D02*
X114964286Y-80914057D01*
X114964286Y-80914057D02*
X114964286Y-80971200D01*
X114964286Y-80971200D02*
X114992857Y-81056914D01*
X114992857Y-81056914D02*
X115335714Y-81399771D01*
X115335714Y-81399771D02*
X114964286Y-81399771D01*
X114678571Y-81399771D02*
X114564285Y-81399771D01*
X114564285Y-81399771D02*
X114507142Y-81371200D01*
X114507142Y-81371200D02*
X114478571Y-81342628D01*
X114478571Y-81342628D02*
X114421428Y-81256914D01*
X114421428Y-81256914D02*
X114392857Y-81142628D01*
X114392857Y-81142628D02*
X114392857Y-80914057D01*
X114392857Y-80914057D02*
X114421428Y-80856914D01*
X114421428Y-80856914D02*
X114450000Y-80828342D01*
X114450000Y-80828342D02*
X114507142Y-80799771D01*
X114507142Y-80799771D02*
X114621428Y-80799771D01*
X114621428Y-80799771D02*
X114678571Y-80828342D01*
X114678571Y-80828342D02*
X114707142Y-80856914D01*
X114707142Y-80856914D02*
X114735714Y-80914057D01*
X114735714Y-80914057D02*
X114735714Y-81056914D01*
X114735714Y-81056914D02*
X114707142Y-81114057D01*
X114707142Y-81114057D02*
X114678571Y-81142628D01*
X114678571Y-81142628D02*
X114621428Y-81171200D01*
X114621428Y-81171200D02*
X114507142Y-81171200D01*
X114507142Y-81171200D02*
X114450000Y-81142628D01*
X114450000Y-81142628D02*
X114421428Y-81114057D01*
X114421428Y-81114057D02*
X114392857Y-81056914D01*
X125035714Y-80644771D02*
X125235714Y-80359057D01*
X125378571Y-80644771D02*
X125378571Y-80044771D01*
X125378571Y-80044771D02*
X125150000Y-80044771D01*
X125150000Y-80044771D02*
X125092857Y-80073342D01*
X125092857Y-80073342D02*
X125064286Y-80101914D01*
X125064286Y-80101914D02*
X125035714Y-80159057D01*
X125035714Y-80159057D02*
X125035714Y-80244771D01*
X125035714Y-80244771D02*
X125064286Y-80301914D01*
X125064286Y-80301914D02*
X125092857Y-80330485D01*
X125092857Y-80330485D02*
X125150000Y-80359057D01*
X125150000Y-80359057D02*
X125378571Y-80359057D01*
X124807143Y-80101914D02*
X124778571Y-80073342D01*
X124778571Y-80073342D02*
X124721429Y-80044771D01*
X124721429Y-80044771D02*
X124578571Y-80044771D01*
X124578571Y-80044771D02*
X124521429Y-80073342D01*
X124521429Y-80073342D02*
X124492857Y-80101914D01*
X124492857Y-80101914D02*
X124464286Y-80159057D01*
X124464286Y-80159057D02*
X124464286Y-80216200D01*
X124464286Y-80216200D02*
X124492857Y-80301914D01*
X124492857Y-80301914D02*
X124835714Y-80644771D01*
X124835714Y-80644771D02*
X124464286Y-80644771D01*
X124264285Y-80044771D02*
X123864285Y-80044771D01*
X123864285Y-80044771D02*
X124121428Y-80644771D01*
X55172856Y-123159771D02*
X55172856Y-122559771D01*
X55172856Y-122559771D02*
X55029999Y-122559771D01*
X55029999Y-122559771D02*
X54944285Y-122588342D01*
X54944285Y-122588342D02*
X54887142Y-122645485D01*
X54887142Y-122645485D02*
X54858571Y-122702628D01*
X54858571Y-122702628D02*
X54829999Y-122816914D01*
X54829999Y-122816914D02*
X54829999Y-122902628D01*
X54829999Y-122902628D02*
X54858571Y-123016914D01*
X54858571Y-123016914D02*
X54887142Y-123074057D01*
X54887142Y-123074057D02*
X54944285Y-123131200D01*
X54944285Y-123131200D02*
X55029999Y-123159771D01*
X55029999Y-123159771D02*
X55172856Y-123159771D01*
X54258571Y-123159771D02*
X54601428Y-123159771D01*
X54429999Y-123159771D02*
X54429999Y-122559771D01*
X54429999Y-122559771D02*
X54487142Y-122645485D01*
X54487142Y-122645485D02*
X54544285Y-122702628D01*
X54544285Y-122702628D02*
X54601428Y-122731200D01*
X115535714Y-79724771D02*
X115735714Y-79439057D01*
X115878571Y-79724771D02*
X115878571Y-79124771D01*
X115878571Y-79124771D02*
X115650000Y-79124771D01*
X115650000Y-79124771D02*
X115592857Y-79153342D01*
X115592857Y-79153342D02*
X115564286Y-79181914D01*
X115564286Y-79181914D02*
X115535714Y-79239057D01*
X115535714Y-79239057D02*
X115535714Y-79324771D01*
X115535714Y-79324771D02*
X115564286Y-79381914D01*
X115564286Y-79381914D02*
X115592857Y-79410485D01*
X115592857Y-79410485D02*
X115650000Y-79439057D01*
X115650000Y-79439057D02*
X115878571Y-79439057D01*
X115335714Y-79124771D02*
X114964286Y-79124771D01*
X114964286Y-79124771D02*
X115164286Y-79353342D01*
X115164286Y-79353342D02*
X115078571Y-79353342D01*
X115078571Y-79353342D02*
X115021429Y-79381914D01*
X115021429Y-79381914D02*
X114992857Y-79410485D01*
X114992857Y-79410485D02*
X114964286Y-79467628D01*
X114964286Y-79467628D02*
X114964286Y-79610485D01*
X114964286Y-79610485D02*
X114992857Y-79667628D01*
X114992857Y-79667628D02*
X115021429Y-79696200D01*
X115021429Y-79696200D02*
X115078571Y-79724771D01*
X115078571Y-79724771D02*
X115250000Y-79724771D01*
X115250000Y-79724771D02*
X115307143Y-79696200D01*
X115307143Y-79696200D02*
X115335714Y-79667628D01*
X114592857Y-79124771D02*
X114535714Y-79124771D01*
X114535714Y-79124771D02*
X114478571Y-79153342D01*
X114478571Y-79153342D02*
X114450000Y-79181914D01*
X114450000Y-79181914D02*
X114421428Y-79239057D01*
X114421428Y-79239057D02*
X114392857Y-79353342D01*
X114392857Y-79353342D02*
X114392857Y-79496200D01*
X114392857Y-79496200D02*
X114421428Y-79610485D01*
X114421428Y-79610485D02*
X114450000Y-79667628D01*
X114450000Y-79667628D02*
X114478571Y-79696200D01*
X114478571Y-79696200D02*
X114535714Y-79724771D01*
X114535714Y-79724771D02*
X114592857Y-79724771D01*
X114592857Y-79724771D02*
X114650000Y-79696200D01*
X114650000Y-79696200D02*
X114678571Y-79667628D01*
X114678571Y-79667628D02*
X114707142Y-79610485D01*
X114707142Y-79610485D02*
X114735714Y-79496200D01*
X114735714Y-79496200D02*
X114735714Y-79353342D01*
X114735714Y-79353342D02*
X114707142Y-79239057D01*
X114707142Y-79239057D02*
X114678571Y-79181914D01*
X114678571Y-79181914D02*
X114650000Y-79153342D01*
X114650000Y-79153342D02*
X114592857Y-79124771D01*
X133621428Y-92615485D02*
X133535714Y-92644057D01*
X133535714Y-92644057D02*
X133507143Y-92672628D01*
X133507143Y-92672628D02*
X133478571Y-92729771D01*
X133478571Y-92729771D02*
X133478571Y-92815485D01*
X133478571Y-92815485D02*
X133507143Y-92872628D01*
X133507143Y-92872628D02*
X133535714Y-92901200D01*
X133535714Y-92901200D02*
X133592857Y-92929771D01*
X133592857Y-92929771D02*
X133821428Y-92929771D01*
X133821428Y-92929771D02*
X133821428Y-92329771D01*
X133821428Y-92329771D02*
X133621428Y-92329771D01*
X133621428Y-92329771D02*
X133564286Y-92358342D01*
X133564286Y-92358342D02*
X133535714Y-92386914D01*
X133535714Y-92386914D02*
X133507143Y-92444057D01*
X133507143Y-92444057D02*
X133507143Y-92501200D01*
X133507143Y-92501200D02*
X133535714Y-92558342D01*
X133535714Y-92558342D02*
X133564286Y-92586914D01*
X133564286Y-92586914D02*
X133621428Y-92615485D01*
X133621428Y-92615485D02*
X133821428Y-92615485D01*
X133307143Y-92329771D02*
X132964286Y-92329771D01*
X133135714Y-92929771D02*
X133135714Y-92329771D01*
X132450000Y-92929771D02*
X132792857Y-92929771D01*
X132621428Y-92929771D02*
X132621428Y-92329771D01*
X132621428Y-92329771D02*
X132678571Y-92415485D01*
X132678571Y-92415485D02*
X132735714Y-92472628D01*
X132735714Y-92472628D02*
X132792857Y-92501200D01*
X82078571Y-75889771D02*
X82078571Y-75289771D01*
X82078571Y-75289771D02*
X81935714Y-75289771D01*
X81935714Y-75289771D02*
X81850000Y-75318342D01*
X81850000Y-75318342D02*
X81792857Y-75375485D01*
X81792857Y-75375485D02*
X81764286Y-75432628D01*
X81764286Y-75432628D02*
X81735714Y-75546914D01*
X81735714Y-75546914D02*
X81735714Y-75632628D01*
X81735714Y-75632628D02*
X81764286Y-75746914D01*
X81764286Y-75746914D02*
X81792857Y-75804057D01*
X81792857Y-75804057D02*
X81850000Y-75861200D01*
X81850000Y-75861200D02*
X81935714Y-75889771D01*
X81935714Y-75889771D02*
X82078571Y-75889771D01*
X81164286Y-75889771D02*
X81507143Y-75889771D01*
X81335714Y-75889771D02*
X81335714Y-75289771D01*
X81335714Y-75289771D02*
X81392857Y-75375485D01*
X81392857Y-75375485D02*
X81450000Y-75432628D01*
X81450000Y-75432628D02*
X81507143Y-75461200D01*
X80592857Y-75889771D02*
X80935714Y-75889771D01*
X80764285Y-75889771D02*
X80764285Y-75289771D01*
X80764285Y-75289771D02*
X80821428Y-75375485D01*
X80821428Y-75375485D02*
X80878571Y-75432628D01*
X80878571Y-75432628D02*
X80935714Y-75461200D01*
X63557142Y-87394771D02*
X63557142Y-87880485D01*
X63557142Y-87880485D02*
X63528571Y-87937628D01*
X63528571Y-87937628D02*
X63500000Y-87966200D01*
X63500000Y-87966200D02*
X63442857Y-87994771D01*
X63442857Y-87994771D02*
X63328571Y-87994771D01*
X63328571Y-87994771D02*
X63271428Y-87966200D01*
X63271428Y-87966200D02*
X63242857Y-87937628D01*
X63242857Y-87937628D02*
X63214285Y-87880485D01*
X63214285Y-87880485D02*
X63214285Y-87394771D01*
X62985714Y-87394771D02*
X62614286Y-87394771D01*
X62614286Y-87394771D02*
X62814286Y-87623342D01*
X62814286Y-87623342D02*
X62728571Y-87623342D01*
X62728571Y-87623342D02*
X62671429Y-87651914D01*
X62671429Y-87651914D02*
X62642857Y-87680485D01*
X62642857Y-87680485D02*
X62614286Y-87737628D01*
X62614286Y-87737628D02*
X62614286Y-87880485D01*
X62614286Y-87880485D02*
X62642857Y-87937628D01*
X62642857Y-87937628D02*
X62671429Y-87966200D01*
X62671429Y-87966200D02*
X62728571Y-87994771D01*
X62728571Y-87994771D02*
X62900000Y-87994771D01*
X62900000Y-87994771D02*
X62957143Y-87966200D01*
X62957143Y-87966200D02*
X62985714Y-87937628D01*
X65042856Y-85019771D02*
X65042856Y-85505485D01*
X65042856Y-85505485D02*
X65014285Y-85562628D01*
X65014285Y-85562628D02*
X64985714Y-85591200D01*
X64985714Y-85591200D02*
X64928571Y-85619771D01*
X64928571Y-85619771D02*
X64814285Y-85619771D01*
X64814285Y-85619771D02*
X64757142Y-85591200D01*
X64757142Y-85591200D02*
X64728571Y-85562628D01*
X64728571Y-85562628D02*
X64699999Y-85505485D01*
X64699999Y-85505485D02*
X64699999Y-85019771D01*
X64100000Y-85619771D02*
X64442857Y-85619771D01*
X64271428Y-85619771D02*
X64271428Y-85019771D01*
X64271428Y-85019771D02*
X64328571Y-85105485D01*
X64328571Y-85105485D02*
X64385714Y-85162628D01*
X64385714Y-85162628D02*
X64442857Y-85191200D01*
X63728571Y-85019771D02*
X63671428Y-85019771D01*
X63671428Y-85019771D02*
X63614285Y-85048342D01*
X63614285Y-85048342D02*
X63585714Y-85076914D01*
X63585714Y-85076914D02*
X63557142Y-85134057D01*
X63557142Y-85134057D02*
X63528571Y-85248342D01*
X63528571Y-85248342D02*
X63528571Y-85391200D01*
X63528571Y-85391200D02*
X63557142Y-85505485D01*
X63557142Y-85505485D02*
X63585714Y-85562628D01*
X63585714Y-85562628D02*
X63614285Y-85591200D01*
X63614285Y-85591200D02*
X63671428Y-85619771D01*
X63671428Y-85619771D02*
X63728571Y-85619771D01*
X63728571Y-85619771D02*
X63785714Y-85591200D01*
X63785714Y-85591200D02*
X63814285Y-85562628D01*
X63814285Y-85562628D02*
X63842856Y-85505485D01*
X63842856Y-85505485D02*
X63871428Y-85391200D01*
X63871428Y-85391200D02*
X63871428Y-85248342D01*
X63871428Y-85248342D02*
X63842856Y-85134057D01*
X63842856Y-85134057D02*
X63814285Y-85076914D01*
X63814285Y-85076914D02*
X63785714Y-85048342D01*
X63785714Y-85048342D02*
X63728571Y-85019771D01*
X95785714Y-106469771D02*
X95985714Y-106184057D01*
X96128571Y-106469771D02*
X96128571Y-105869771D01*
X96128571Y-105869771D02*
X95900000Y-105869771D01*
X95900000Y-105869771D02*
X95842857Y-105898342D01*
X95842857Y-105898342D02*
X95814286Y-105926914D01*
X95814286Y-105926914D02*
X95785714Y-105984057D01*
X95785714Y-105984057D02*
X95785714Y-106069771D01*
X95785714Y-106069771D02*
X95814286Y-106126914D01*
X95814286Y-106126914D02*
X95842857Y-106155485D01*
X95842857Y-106155485D02*
X95900000Y-106184057D01*
X95900000Y-106184057D02*
X96128571Y-106184057D01*
X95271429Y-105869771D02*
X95385714Y-105869771D01*
X95385714Y-105869771D02*
X95442857Y-105898342D01*
X95442857Y-105898342D02*
X95471429Y-105926914D01*
X95471429Y-105926914D02*
X95528571Y-106012628D01*
X95528571Y-106012628D02*
X95557143Y-106126914D01*
X95557143Y-106126914D02*
X95557143Y-106355485D01*
X95557143Y-106355485D02*
X95528571Y-106412628D01*
X95528571Y-106412628D02*
X95500000Y-106441200D01*
X95500000Y-106441200D02*
X95442857Y-106469771D01*
X95442857Y-106469771D02*
X95328571Y-106469771D01*
X95328571Y-106469771D02*
X95271429Y-106441200D01*
X95271429Y-106441200D02*
X95242857Y-106412628D01*
X95242857Y-106412628D02*
X95214286Y-106355485D01*
X95214286Y-106355485D02*
X95214286Y-106212628D01*
X95214286Y-106212628D02*
X95242857Y-106155485D01*
X95242857Y-106155485D02*
X95271429Y-106126914D01*
X95271429Y-106126914D02*
X95328571Y-106098342D01*
X95328571Y-106098342D02*
X95442857Y-106098342D01*
X95442857Y-106098342D02*
X95500000Y-106126914D01*
X95500000Y-106126914D02*
X95528571Y-106155485D01*
X95528571Y-106155485D02*
X95557143Y-106212628D01*
X94642857Y-106469771D02*
X94985714Y-106469771D01*
X94814285Y-106469771D02*
X94814285Y-105869771D01*
X94814285Y-105869771D02*
X94871428Y-105955485D01*
X94871428Y-105955485D02*
X94928571Y-106012628D01*
X94928571Y-106012628D02*
X94985714Y-106041200D01*
X125035714Y-82344771D02*
X125235714Y-82059057D01*
X125378571Y-82344771D02*
X125378571Y-81744771D01*
X125378571Y-81744771D02*
X125150000Y-81744771D01*
X125150000Y-81744771D02*
X125092857Y-81773342D01*
X125092857Y-81773342D02*
X125064286Y-81801914D01*
X125064286Y-81801914D02*
X125035714Y-81859057D01*
X125035714Y-81859057D02*
X125035714Y-81944771D01*
X125035714Y-81944771D02*
X125064286Y-82001914D01*
X125064286Y-82001914D02*
X125092857Y-82030485D01*
X125092857Y-82030485D02*
X125150000Y-82059057D01*
X125150000Y-82059057D02*
X125378571Y-82059057D01*
X124807143Y-81801914D02*
X124778571Y-81773342D01*
X124778571Y-81773342D02*
X124721429Y-81744771D01*
X124721429Y-81744771D02*
X124578571Y-81744771D01*
X124578571Y-81744771D02*
X124521429Y-81773342D01*
X124521429Y-81773342D02*
X124492857Y-81801914D01*
X124492857Y-81801914D02*
X124464286Y-81859057D01*
X124464286Y-81859057D02*
X124464286Y-81916200D01*
X124464286Y-81916200D02*
X124492857Y-82001914D01*
X124492857Y-82001914D02*
X124835714Y-82344771D01*
X124835714Y-82344771D02*
X124464286Y-82344771D01*
X124121428Y-82001914D02*
X124178571Y-81973342D01*
X124178571Y-81973342D02*
X124207142Y-81944771D01*
X124207142Y-81944771D02*
X124235714Y-81887628D01*
X124235714Y-81887628D02*
X124235714Y-81859057D01*
X124235714Y-81859057D02*
X124207142Y-81801914D01*
X124207142Y-81801914D02*
X124178571Y-81773342D01*
X124178571Y-81773342D02*
X124121428Y-81744771D01*
X124121428Y-81744771D02*
X124007142Y-81744771D01*
X124007142Y-81744771D02*
X123950000Y-81773342D01*
X123950000Y-81773342D02*
X123921428Y-81801914D01*
X123921428Y-81801914D02*
X123892857Y-81859057D01*
X123892857Y-81859057D02*
X123892857Y-81887628D01*
X123892857Y-81887628D02*
X123921428Y-81944771D01*
X123921428Y-81944771D02*
X123950000Y-81973342D01*
X123950000Y-81973342D02*
X124007142Y-82001914D01*
X124007142Y-82001914D02*
X124121428Y-82001914D01*
X124121428Y-82001914D02*
X124178571Y-82030485D01*
X124178571Y-82030485D02*
X124207142Y-82059057D01*
X124207142Y-82059057D02*
X124235714Y-82116200D01*
X124235714Y-82116200D02*
X124235714Y-82230485D01*
X124235714Y-82230485D02*
X124207142Y-82287628D01*
X124207142Y-82287628D02*
X124178571Y-82316200D01*
X124178571Y-82316200D02*
X124121428Y-82344771D01*
X124121428Y-82344771D02*
X124007142Y-82344771D01*
X124007142Y-82344771D02*
X123950000Y-82316200D01*
X123950000Y-82316200D02*
X123921428Y-82287628D01*
X123921428Y-82287628D02*
X123892857Y-82230485D01*
X123892857Y-82230485D02*
X123892857Y-82116200D01*
X123892857Y-82116200D02*
X123921428Y-82059057D01*
X123921428Y-82059057D02*
X123950000Y-82030485D01*
X123950000Y-82030485D02*
X124007142Y-82001914D01*
X88310714Y-108844771D02*
X88510714Y-108559057D01*
X88653571Y-108844771D02*
X88653571Y-108244771D01*
X88653571Y-108244771D02*
X88425000Y-108244771D01*
X88425000Y-108244771D02*
X88367857Y-108273342D01*
X88367857Y-108273342D02*
X88339286Y-108301914D01*
X88339286Y-108301914D02*
X88310714Y-108359057D01*
X88310714Y-108359057D02*
X88310714Y-108444771D01*
X88310714Y-108444771D02*
X88339286Y-108501914D01*
X88339286Y-108501914D02*
X88367857Y-108530485D01*
X88367857Y-108530485D02*
X88425000Y-108559057D01*
X88425000Y-108559057D02*
X88653571Y-108559057D01*
X87767857Y-108244771D02*
X88053571Y-108244771D01*
X88053571Y-108244771D02*
X88082143Y-108530485D01*
X88082143Y-108530485D02*
X88053571Y-108501914D01*
X88053571Y-108501914D02*
X87996429Y-108473342D01*
X87996429Y-108473342D02*
X87853571Y-108473342D01*
X87853571Y-108473342D02*
X87796429Y-108501914D01*
X87796429Y-108501914D02*
X87767857Y-108530485D01*
X87767857Y-108530485D02*
X87739286Y-108587628D01*
X87739286Y-108587628D02*
X87739286Y-108730485D01*
X87739286Y-108730485D02*
X87767857Y-108787628D01*
X87767857Y-108787628D02*
X87796429Y-108816200D01*
X87796429Y-108816200D02*
X87853571Y-108844771D01*
X87853571Y-108844771D02*
X87996429Y-108844771D01*
X87996429Y-108844771D02*
X88053571Y-108816200D01*
X88053571Y-108816200D02*
X88082143Y-108787628D01*
X87396428Y-108501914D02*
X87453571Y-108473342D01*
X87453571Y-108473342D02*
X87482142Y-108444771D01*
X87482142Y-108444771D02*
X87510714Y-108387628D01*
X87510714Y-108387628D02*
X87510714Y-108359057D01*
X87510714Y-108359057D02*
X87482142Y-108301914D01*
X87482142Y-108301914D02*
X87453571Y-108273342D01*
X87453571Y-108273342D02*
X87396428Y-108244771D01*
X87396428Y-108244771D02*
X87282142Y-108244771D01*
X87282142Y-108244771D02*
X87225000Y-108273342D01*
X87225000Y-108273342D02*
X87196428Y-108301914D01*
X87196428Y-108301914D02*
X87167857Y-108359057D01*
X87167857Y-108359057D02*
X87167857Y-108387628D01*
X87167857Y-108387628D02*
X87196428Y-108444771D01*
X87196428Y-108444771D02*
X87225000Y-108473342D01*
X87225000Y-108473342D02*
X87282142Y-108501914D01*
X87282142Y-108501914D02*
X87396428Y-108501914D01*
X87396428Y-108501914D02*
X87453571Y-108530485D01*
X87453571Y-108530485D02*
X87482142Y-108559057D01*
X87482142Y-108559057D02*
X87510714Y-108616200D01*
X87510714Y-108616200D02*
X87510714Y-108730485D01*
X87510714Y-108730485D02*
X87482142Y-108787628D01*
X87482142Y-108787628D02*
X87453571Y-108816200D01*
X87453571Y-108816200D02*
X87396428Y-108844771D01*
X87396428Y-108844771D02*
X87282142Y-108844771D01*
X87282142Y-108844771D02*
X87225000Y-108816200D01*
X87225000Y-108816200D02*
X87196428Y-108787628D01*
X87196428Y-108787628D02*
X87167857Y-108730485D01*
X87167857Y-108730485D02*
X87167857Y-108616200D01*
X87167857Y-108616200D02*
X87196428Y-108559057D01*
X87196428Y-108559057D02*
X87225000Y-108530485D01*
X87225000Y-108530485D02*
X87282142Y-108501914D01*
X118097856Y-87639771D02*
X118097856Y-87039771D01*
X118097856Y-87039771D02*
X117954999Y-87039771D01*
X117954999Y-87039771D02*
X117869285Y-87068342D01*
X117869285Y-87068342D02*
X117812142Y-87125485D01*
X117812142Y-87125485D02*
X117783571Y-87182628D01*
X117783571Y-87182628D02*
X117754999Y-87296914D01*
X117754999Y-87296914D02*
X117754999Y-87382628D01*
X117754999Y-87382628D02*
X117783571Y-87496914D01*
X117783571Y-87496914D02*
X117812142Y-87554057D01*
X117812142Y-87554057D02*
X117869285Y-87611200D01*
X117869285Y-87611200D02*
X117954999Y-87639771D01*
X117954999Y-87639771D02*
X118097856Y-87639771D01*
X117212142Y-87039771D02*
X117497856Y-87039771D01*
X117497856Y-87039771D02*
X117526428Y-87325485D01*
X117526428Y-87325485D02*
X117497856Y-87296914D01*
X117497856Y-87296914D02*
X117440714Y-87268342D01*
X117440714Y-87268342D02*
X117297856Y-87268342D01*
X117297856Y-87268342D02*
X117240714Y-87296914D01*
X117240714Y-87296914D02*
X117212142Y-87325485D01*
X117212142Y-87325485D02*
X117183571Y-87382628D01*
X117183571Y-87382628D02*
X117183571Y-87525485D01*
X117183571Y-87525485D02*
X117212142Y-87582628D01*
X117212142Y-87582628D02*
X117240714Y-87611200D01*
X117240714Y-87611200D02*
X117297856Y-87639771D01*
X117297856Y-87639771D02*
X117440714Y-87639771D01*
X117440714Y-87639771D02*
X117497856Y-87611200D01*
X117497856Y-87611200D02*
X117526428Y-87582628D01*
X79885714Y-72987628D02*
X79914286Y-73016200D01*
X79914286Y-73016200D02*
X80000000Y-73044771D01*
X80000000Y-73044771D02*
X80057143Y-73044771D01*
X80057143Y-73044771D02*
X80142857Y-73016200D01*
X80142857Y-73016200D02*
X80200000Y-72959057D01*
X80200000Y-72959057D02*
X80228571Y-72901914D01*
X80228571Y-72901914D02*
X80257143Y-72787628D01*
X80257143Y-72787628D02*
X80257143Y-72701914D01*
X80257143Y-72701914D02*
X80228571Y-72587628D01*
X80228571Y-72587628D02*
X80200000Y-72530485D01*
X80200000Y-72530485D02*
X80142857Y-72473342D01*
X80142857Y-72473342D02*
X80057143Y-72444771D01*
X80057143Y-72444771D02*
X80000000Y-72444771D01*
X80000000Y-72444771D02*
X79914286Y-72473342D01*
X79914286Y-72473342D02*
X79885714Y-72501914D01*
X79685714Y-72444771D02*
X79314286Y-72444771D01*
X79314286Y-72444771D02*
X79514286Y-72673342D01*
X79514286Y-72673342D02*
X79428571Y-72673342D01*
X79428571Y-72673342D02*
X79371429Y-72701914D01*
X79371429Y-72701914D02*
X79342857Y-72730485D01*
X79342857Y-72730485D02*
X79314286Y-72787628D01*
X79314286Y-72787628D02*
X79314286Y-72930485D01*
X79314286Y-72930485D02*
X79342857Y-72987628D01*
X79342857Y-72987628D02*
X79371429Y-73016200D01*
X79371429Y-73016200D02*
X79428571Y-73044771D01*
X79428571Y-73044771D02*
X79600000Y-73044771D01*
X79600000Y-73044771D02*
X79657143Y-73016200D01*
X79657143Y-73016200D02*
X79685714Y-72987628D01*
X78742857Y-73044771D02*
X79085714Y-73044771D01*
X78914285Y-73044771D02*
X78914285Y-72444771D01*
X78914285Y-72444771D02*
X78971428Y-72530485D01*
X78971428Y-72530485D02*
X79028571Y-72587628D01*
X79028571Y-72587628D02*
X79085714Y-72616200D01*
X107235714Y-81419771D02*
X107435714Y-81134057D01*
X107578571Y-81419771D02*
X107578571Y-80819771D01*
X107578571Y-80819771D02*
X107350000Y-80819771D01*
X107350000Y-80819771D02*
X107292857Y-80848342D01*
X107292857Y-80848342D02*
X107264286Y-80876914D01*
X107264286Y-80876914D02*
X107235714Y-80934057D01*
X107235714Y-80934057D02*
X107235714Y-81019771D01*
X107235714Y-81019771D02*
X107264286Y-81076914D01*
X107264286Y-81076914D02*
X107292857Y-81105485D01*
X107292857Y-81105485D02*
X107350000Y-81134057D01*
X107350000Y-81134057D02*
X107578571Y-81134057D01*
X107007143Y-80876914D02*
X106978571Y-80848342D01*
X106978571Y-80848342D02*
X106921429Y-80819771D01*
X106921429Y-80819771D02*
X106778571Y-80819771D01*
X106778571Y-80819771D02*
X106721429Y-80848342D01*
X106721429Y-80848342D02*
X106692857Y-80876914D01*
X106692857Y-80876914D02*
X106664286Y-80934057D01*
X106664286Y-80934057D02*
X106664286Y-80991200D01*
X106664286Y-80991200D02*
X106692857Y-81076914D01*
X106692857Y-81076914D02*
X107035714Y-81419771D01*
X107035714Y-81419771D02*
X106664286Y-81419771D01*
X106150000Y-81019771D02*
X106150000Y-81419771D01*
X106292857Y-80791200D02*
X106435714Y-81219771D01*
X106435714Y-81219771D02*
X106064285Y-81219771D01*
X82492856Y-81669771D02*
X82492856Y-81069771D01*
X82492856Y-81069771D02*
X82349999Y-81069771D01*
X82349999Y-81069771D02*
X82264285Y-81098342D01*
X82264285Y-81098342D02*
X82207142Y-81155485D01*
X82207142Y-81155485D02*
X82178571Y-81212628D01*
X82178571Y-81212628D02*
X82149999Y-81326914D01*
X82149999Y-81326914D02*
X82149999Y-81412628D01*
X82149999Y-81412628D02*
X82178571Y-81526914D01*
X82178571Y-81526914D02*
X82207142Y-81584057D01*
X82207142Y-81584057D02*
X82264285Y-81641200D01*
X82264285Y-81641200D02*
X82349999Y-81669771D01*
X82349999Y-81669771D02*
X82492856Y-81669771D01*
X81635714Y-81069771D02*
X81749999Y-81069771D01*
X81749999Y-81069771D02*
X81807142Y-81098342D01*
X81807142Y-81098342D02*
X81835714Y-81126914D01*
X81835714Y-81126914D02*
X81892856Y-81212628D01*
X81892856Y-81212628D02*
X81921428Y-81326914D01*
X81921428Y-81326914D02*
X81921428Y-81555485D01*
X81921428Y-81555485D02*
X81892856Y-81612628D01*
X81892856Y-81612628D02*
X81864285Y-81641200D01*
X81864285Y-81641200D02*
X81807142Y-81669771D01*
X81807142Y-81669771D02*
X81692856Y-81669771D01*
X81692856Y-81669771D02*
X81635714Y-81641200D01*
X81635714Y-81641200D02*
X81607142Y-81612628D01*
X81607142Y-81612628D02*
X81578571Y-81555485D01*
X81578571Y-81555485D02*
X81578571Y-81412628D01*
X81578571Y-81412628D02*
X81607142Y-81355485D01*
X81607142Y-81355485D02*
X81635714Y-81326914D01*
X81635714Y-81326914D02*
X81692856Y-81298342D01*
X81692856Y-81298342D02*
X81807142Y-81298342D01*
X81807142Y-81298342D02*
X81864285Y-81326914D01*
X81864285Y-81326914D02*
X81892856Y-81355485D01*
X81892856Y-81355485D02*
X81921428Y-81412628D01*
X82487499Y-118589771D02*
X82687499Y-118304057D01*
X82830356Y-118589771D02*
X82830356Y-117989771D01*
X82830356Y-117989771D02*
X82601785Y-117989771D01*
X82601785Y-117989771D02*
X82544642Y-118018342D01*
X82544642Y-118018342D02*
X82516071Y-118046914D01*
X82516071Y-118046914D02*
X82487499Y-118104057D01*
X82487499Y-118104057D02*
X82487499Y-118189771D01*
X82487499Y-118189771D02*
X82516071Y-118246914D01*
X82516071Y-118246914D02*
X82544642Y-118275485D01*
X82544642Y-118275485D02*
X82601785Y-118304057D01*
X82601785Y-118304057D02*
X82830356Y-118304057D01*
X81973214Y-118189771D02*
X81973214Y-118589771D01*
X82116071Y-117961200D02*
X82258928Y-118389771D01*
X82258928Y-118389771D02*
X81887499Y-118389771D01*
X107235714Y-79719771D02*
X107435714Y-79434057D01*
X107578571Y-79719771D02*
X107578571Y-79119771D01*
X107578571Y-79119771D02*
X107350000Y-79119771D01*
X107350000Y-79119771D02*
X107292857Y-79148342D01*
X107292857Y-79148342D02*
X107264286Y-79176914D01*
X107264286Y-79176914D02*
X107235714Y-79234057D01*
X107235714Y-79234057D02*
X107235714Y-79319771D01*
X107235714Y-79319771D02*
X107264286Y-79376914D01*
X107264286Y-79376914D02*
X107292857Y-79405485D01*
X107292857Y-79405485D02*
X107350000Y-79434057D01*
X107350000Y-79434057D02*
X107578571Y-79434057D01*
X107007143Y-79176914D02*
X106978571Y-79148342D01*
X106978571Y-79148342D02*
X106921429Y-79119771D01*
X106921429Y-79119771D02*
X106778571Y-79119771D01*
X106778571Y-79119771D02*
X106721429Y-79148342D01*
X106721429Y-79148342D02*
X106692857Y-79176914D01*
X106692857Y-79176914D02*
X106664286Y-79234057D01*
X106664286Y-79234057D02*
X106664286Y-79291200D01*
X106664286Y-79291200D02*
X106692857Y-79376914D01*
X106692857Y-79376914D02*
X107035714Y-79719771D01*
X107035714Y-79719771D02*
X106664286Y-79719771D01*
X106121428Y-79119771D02*
X106407142Y-79119771D01*
X106407142Y-79119771D02*
X106435714Y-79405485D01*
X106435714Y-79405485D02*
X106407142Y-79376914D01*
X106407142Y-79376914D02*
X106350000Y-79348342D01*
X106350000Y-79348342D02*
X106207142Y-79348342D01*
X106207142Y-79348342D02*
X106150000Y-79376914D01*
X106150000Y-79376914D02*
X106121428Y-79405485D01*
X106121428Y-79405485D02*
X106092857Y-79462628D01*
X106092857Y-79462628D02*
X106092857Y-79605485D01*
X106092857Y-79605485D02*
X106121428Y-79662628D01*
X106121428Y-79662628D02*
X106150000Y-79691200D01*
X106150000Y-79691200D02*
X106207142Y-79719771D01*
X106207142Y-79719771D02*
X106350000Y-79719771D01*
X106350000Y-79719771D02*
X106407142Y-79691200D01*
X106407142Y-79691200D02*
X106435714Y-79662628D01*
X48757143Y-80471771D02*
X48414286Y-80471771D01*
X48585714Y-81071771D02*
X48585714Y-80471771D01*
X48214285Y-81071771D02*
X48214285Y-80471771D01*
X48214285Y-80471771D02*
X47985714Y-80471771D01*
X47985714Y-80471771D02*
X47928571Y-80500342D01*
X47928571Y-80500342D02*
X47900000Y-80528914D01*
X47900000Y-80528914D02*
X47871428Y-80586057D01*
X47871428Y-80586057D02*
X47871428Y-80671771D01*
X47871428Y-80671771D02*
X47900000Y-80728914D01*
X47900000Y-80728914D02*
X47928571Y-80757485D01*
X47928571Y-80757485D02*
X47985714Y-80786057D01*
X47985714Y-80786057D02*
X48214285Y-80786057D01*
X47671428Y-80471771D02*
X47300000Y-80471771D01*
X47300000Y-80471771D02*
X47500000Y-80700342D01*
X47500000Y-80700342D02*
X47414285Y-80700342D01*
X47414285Y-80700342D02*
X47357143Y-80728914D01*
X47357143Y-80728914D02*
X47328571Y-80757485D01*
X47328571Y-80757485D02*
X47300000Y-80814628D01*
X47300000Y-80814628D02*
X47300000Y-80957485D01*
X47300000Y-80957485D02*
X47328571Y-81014628D01*
X47328571Y-81014628D02*
X47357143Y-81043200D01*
X47357143Y-81043200D02*
X47414285Y-81071771D01*
X47414285Y-81071771D02*
X47585714Y-81071771D01*
X47585714Y-81071771D02*
X47642857Y-81043200D01*
X47642857Y-81043200D02*
X47671428Y-81014628D01*
X64757142Y-85969771D02*
X64757142Y-86455485D01*
X64757142Y-86455485D02*
X64728571Y-86512628D01*
X64728571Y-86512628D02*
X64700000Y-86541200D01*
X64700000Y-86541200D02*
X64642857Y-86569771D01*
X64642857Y-86569771D02*
X64528571Y-86569771D01*
X64528571Y-86569771D02*
X64471428Y-86541200D01*
X64471428Y-86541200D02*
X64442857Y-86512628D01*
X64442857Y-86512628D02*
X64414285Y-86455485D01*
X64414285Y-86455485D02*
X64414285Y-85969771D01*
X64042857Y-86226914D02*
X64100000Y-86198342D01*
X64100000Y-86198342D02*
X64128571Y-86169771D01*
X64128571Y-86169771D02*
X64157143Y-86112628D01*
X64157143Y-86112628D02*
X64157143Y-86084057D01*
X64157143Y-86084057D02*
X64128571Y-86026914D01*
X64128571Y-86026914D02*
X64100000Y-85998342D01*
X64100000Y-85998342D02*
X64042857Y-85969771D01*
X64042857Y-85969771D02*
X63928571Y-85969771D01*
X63928571Y-85969771D02*
X63871429Y-85998342D01*
X63871429Y-85998342D02*
X63842857Y-86026914D01*
X63842857Y-86026914D02*
X63814286Y-86084057D01*
X63814286Y-86084057D02*
X63814286Y-86112628D01*
X63814286Y-86112628D02*
X63842857Y-86169771D01*
X63842857Y-86169771D02*
X63871429Y-86198342D01*
X63871429Y-86198342D02*
X63928571Y-86226914D01*
X63928571Y-86226914D02*
X64042857Y-86226914D01*
X64042857Y-86226914D02*
X64100000Y-86255485D01*
X64100000Y-86255485D02*
X64128571Y-86284057D01*
X64128571Y-86284057D02*
X64157143Y-86341200D01*
X64157143Y-86341200D02*
X64157143Y-86455485D01*
X64157143Y-86455485D02*
X64128571Y-86512628D01*
X64128571Y-86512628D02*
X64100000Y-86541200D01*
X64100000Y-86541200D02*
X64042857Y-86569771D01*
X64042857Y-86569771D02*
X63928571Y-86569771D01*
X63928571Y-86569771D02*
X63871429Y-86541200D01*
X63871429Y-86541200D02*
X63842857Y-86512628D01*
X63842857Y-86512628D02*
X63814286Y-86455485D01*
X63814286Y-86455485D02*
X63814286Y-86341200D01*
X63814286Y-86341200D02*
X63842857Y-86284057D01*
X63842857Y-86284057D02*
X63871429Y-86255485D01*
X63871429Y-86255485D02*
X63928571Y-86226914D01*
X79885714Y-73962628D02*
X79914286Y-73991200D01*
X79914286Y-73991200D02*
X80000000Y-74019771D01*
X80000000Y-74019771D02*
X80057143Y-74019771D01*
X80057143Y-74019771D02*
X80142857Y-73991200D01*
X80142857Y-73991200D02*
X80200000Y-73934057D01*
X80200000Y-73934057D02*
X80228571Y-73876914D01*
X80228571Y-73876914D02*
X80257143Y-73762628D01*
X80257143Y-73762628D02*
X80257143Y-73676914D01*
X80257143Y-73676914D02*
X80228571Y-73562628D01*
X80228571Y-73562628D02*
X80200000Y-73505485D01*
X80200000Y-73505485D02*
X80142857Y-73448342D01*
X80142857Y-73448342D02*
X80057143Y-73419771D01*
X80057143Y-73419771D02*
X80000000Y-73419771D01*
X80000000Y-73419771D02*
X79914286Y-73448342D01*
X79914286Y-73448342D02*
X79885714Y-73476914D01*
X79685714Y-73419771D02*
X79314286Y-73419771D01*
X79314286Y-73419771D02*
X79514286Y-73648342D01*
X79514286Y-73648342D02*
X79428571Y-73648342D01*
X79428571Y-73648342D02*
X79371429Y-73676914D01*
X79371429Y-73676914D02*
X79342857Y-73705485D01*
X79342857Y-73705485D02*
X79314286Y-73762628D01*
X79314286Y-73762628D02*
X79314286Y-73905485D01*
X79314286Y-73905485D02*
X79342857Y-73962628D01*
X79342857Y-73962628D02*
X79371429Y-73991200D01*
X79371429Y-73991200D02*
X79428571Y-74019771D01*
X79428571Y-74019771D02*
X79600000Y-74019771D01*
X79600000Y-74019771D02*
X79657143Y-73991200D01*
X79657143Y-73991200D02*
X79685714Y-73962628D01*
X79114285Y-73419771D02*
X78742857Y-73419771D01*
X78742857Y-73419771D02*
X78942857Y-73648342D01*
X78942857Y-73648342D02*
X78857142Y-73648342D01*
X78857142Y-73648342D02*
X78800000Y-73676914D01*
X78800000Y-73676914D02*
X78771428Y-73705485D01*
X78771428Y-73705485D02*
X78742857Y-73762628D01*
X78742857Y-73762628D02*
X78742857Y-73905485D01*
X78742857Y-73905485D02*
X78771428Y-73962628D01*
X78771428Y-73962628D02*
X78800000Y-73991200D01*
X78800000Y-73991200D02*
X78857142Y-74019771D01*
X78857142Y-74019771D02*
X79028571Y-74019771D01*
X79028571Y-74019771D02*
X79085714Y-73991200D01*
X79085714Y-73991200D02*
X79114285Y-73962628D01*
X59062856Y-117589771D02*
X59062856Y-116989771D01*
X59062856Y-116989771D02*
X58919999Y-116989771D01*
X58919999Y-116989771D02*
X58834285Y-117018342D01*
X58834285Y-117018342D02*
X58777142Y-117075485D01*
X58777142Y-117075485D02*
X58748571Y-117132628D01*
X58748571Y-117132628D02*
X58719999Y-117246914D01*
X58719999Y-117246914D02*
X58719999Y-117332628D01*
X58719999Y-117332628D02*
X58748571Y-117446914D01*
X58748571Y-117446914D02*
X58777142Y-117504057D01*
X58777142Y-117504057D02*
X58834285Y-117561200D01*
X58834285Y-117561200D02*
X58919999Y-117589771D01*
X58919999Y-117589771D02*
X59062856Y-117589771D01*
X58491428Y-117046914D02*
X58462856Y-117018342D01*
X58462856Y-117018342D02*
X58405714Y-116989771D01*
X58405714Y-116989771D02*
X58262856Y-116989771D01*
X58262856Y-116989771D02*
X58205714Y-117018342D01*
X58205714Y-117018342D02*
X58177142Y-117046914D01*
X58177142Y-117046914D02*
X58148571Y-117104057D01*
X58148571Y-117104057D02*
X58148571Y-117161200D01*
X58148571Y-117161200D02*
X58177142Y-117246914D01*
X58177142Y-117246914D02*
X58519999Y-117589771D01*
X58519999Y-117589771D02*
X58148571Y-117589771D01*
X78765714Y-83762628D02*
X78794286Y-83791200D01*
X78794286Y-83791200D02*
X78880000Y-83819771D01*
X78880000Y-83819771D02*
X78937143Y-83819771D01*
X78937143Y-83819771D02*
X79022857Y-83791200D01*
X79022857Y-83791200D02*
X79080000Y-83734057D01*
X79080000Y-83734057D02*
X79108571Y-83676914D01*
X79108571Y-83676914D02*
X79137143Y-83562628D01*
X79137143Y-83562628D02*
X79137143Y-83476914D01*
X79137143Y-83476914D02*
X79108571Y-83362628D01*
X79108571Y-83362628D02*
X79080000Y-83305485D01*
X79080000Y-83305485D02*
X79022857Y-83248342D01*
X79022857Y-83248342D02*
X78937143Y-83219771D01*
X78937143Y-83219771D02*
X78880000Y-83219771D01*
X78880000Y-83219771D02*
X78794286Y-83248342D01*
X78794286Y-83248342D02*
X78765714Y-83276914D01*
X78565714Y-83219771D02*
X78194286Y-83219771D01*
X78194286Y-83219771D02*
X78394286Y-83448342D01*
X78394286Y-83448342D02*
X78308571Y-83448342D01*
X78308571Y-83448342D02*
X78251429Y-83476914D01*
X78251429Y-83476914D02*
X78222857Y-83505485D01*
X78222857Y-83505485D02*
X78194286Y-83562628D01*
X78194286Y-83562628D02*
X78194286Y-83705485D01*
X78194286Y-83705485D02*
X78222857Y-83762628D01*
X78222857Y-83762628D02*
X78251429Y-83791200D01*
X78251429Y-83791200D02*
X78308571Y-83819771D01*
X78308571Y-83819771D02*
X78480000Y-83819771D01*
X78480000Y-83819771D02*
X78537143Y-83791200D01*
X78537143Y-83791200D02*
X78565714Y-83762628D01*
X77680000Y-83419771D02*
X77680000Y-83819771D01*
X77822857Y-83191200D02*
X77965714Y-83619771D01*
X77965714Y-83619771D02*
X77594285Y-83619771D01*
X69310714Y-95062628D02*
X69339286Y-95091200D01*
X69339286Y-95091200D02*
X69425000Y-95119771D01*
X69425000Y-95119771D02*
X69482143Y-95119771D01*
X69482143Y-95119771D02*
X69567857Y-95091200D01*
X69567857Y-95091200D02*
X69625000Y-95034057D01*
X69625000Y-95034057D02*
X69653571Y-94976914D01*
X69653571Y-94976914D02*
X69682143Y-94862628D01*
X69682143Y-94862628D02*
X69682143Y-94776914D01*
X69682143Y-94776914D02*
X69653571Y-94662628D01*
X69653571Y-94662628D02*
X69625000Y-94605485D01*
X69625000Y-94605485D02*
X69567857Y-94548342D01*
X69567857Y-94548342D02*
X69482143Y-94519771D01*
X69482143Y-94519771D02*
X69425000Y-94519771D01*
X69425000Y-94519771D02*
X69339286Y-94548342D01*
X69339286Y-94548342D02*
X69310714Y-94576914D01*
X69082143Y-94576914D02*
X69053571Y-94548342D01*
X69053571Y-94548342D02*
X68996429Y-94519771D01*
X68996429Y-94519771D02*
X68853571Y-94519771D01*
X68853571Y-94519771D02*
X68796429Y-94548342D01*
X68796429Y-94548342D02*
X68767857Y-94576914D01*
X68767857Y-94576914D02*
X68739286Y-94634057D01*
X68739286Y-94634057D02*
X68739286Y-94691200D01*
X68739286Y-94691200D02*
X68767857Y-94776914D01*
X68767857Y-94776914D02*
X69110714Y-95119771D01*
X69110714Y-95119771D02*
X68739286Y-95119771D01*
X68510714Y-94576914D02*
X68482142Y-94548342D01*
X68482142Y-94548342D02*
X68425000Y-94519771D01*
X68425000Y-94519771D02*
X68282142Y-94519771D01*
X68282142Y-94519771D02*
X68225000Y-94548342D01*
X68225000Y-94548342D02*
X68196428Y-94576914D01*
X68196428Y-94576914D02*
X68167857Y-94634057D01*
X68167857Y-94634057D02*
X68167857Y-94691200D01*
X68167857Y-94691200D02*
X68196428Y-94776914D01*
X68196428Y-94776914D02*
X68539285Y-95119771D01*
X68539285Y-95119771D02*
X68167857Y-95119771D01*
X48274999Y-77069771D02*
X48474999Y-76784057D01*
X48617856Y-77069771D02*
X48617856Y-76469771D01*
X48617856Y-76469771D02*
X48389285Y-76469771D01*
X48389285Y-76469771D02*
X48332142Y-76498342D01*
X48332142Y-76498342D02*
X48303571Y-76526914D01*
X48303571Y-76526914D02*
X48274999Y-76584057D01*
X48274999Y-76584057D02*
X48274999Y-76669771D01*
X48274999Y-76669771D02*
X48303571Y-76726914D01*
X48303571Y-76726914D02*
X48332142Y-76755485D01*
X48332142Y-76755485D02*
X48389285Y-76784057D01*
X48389285Y-76784057D02*
X48617856Y-76784057D01*
X47989285Y-77069771D02*
X47874999Y-77069771D01*
X47874999Y-77069771D02*
X47817856Y-77041200D01*
X47817856Y-77041200D02*
X47789285Y-77012628D01*
X47789285Y-77012628D02*
X47732142Y-76926914D01*
X47732142Y-76926914D02*
X47703571Y-76812628D01*
X47703571Y-76812628D02*
X47703571Y-76584057D01*
X47703571Y-76584057D02*
X47732142Y-76526914D01*
X47732142Y-76526914D02*
X47760714Y-76498342D01*
X47760714Y-76498342D02*
X47817856Y-76469771D01*
X47817856Y-76469771D02*
X47932142Y-76469771D01*
X47932142Y-76469771D02*
X47989285Y-76498342D01*
X47989285Y-76498342D02*
X48017856Y-76526914D01*
X48017856Y-76526914D02*
X48046428Y-76584057D01*
X48046428Y-76584057D02*
X48046428Y-76726914D01*
X48046428Y-76726914D02*
X48017856Y-76784057D01*
X48017856Y-76784057D02*
X47989285Y-76812628D01*
X47989285Y-76812628D02*
X47932142Y-76841200D01*
X47932142Y-76841200D02*
X47817856Y-76841200D01*
X47817856Y-76841200D02*
X47760714Y-76812628D01*
X47760714Y-76812628D02*
X47732142Y-76784057D01*
X47732142Y-76784057D02*
X47703571Y-76726914D01*
X103210714Y-104519771D02*
X103410714Y-104234057D01*
X103553571Y-104519771D02*
X103553571Y-103919771D01*
X103553571Y-103919771D02*
X103325000Y-103919771D01*
X103325000Y-103919771D02*
X103267857Y-103948342D01*
X103267857Y-103948342D02*
X103239286Y-103976914D01*
X103239286Y-103976914D02*
X103210714Y-104034057D01*
X103210714Y-104034057D02*
X103210714Y-104119771D01*
X103210714Y-104119771D02*
X103239286Y-104176914D01*
X103239286Y-104176914D02*
X103267857Y-104205485D01*
X103267857Y-104205485D02*
X103325000Y-104234057D01*
X103325000Y-104234057D02*
X103553571Y-104234057D01*
X102696429Y-103919771D02*
X102810714Y-103919771D01*
X102810714Y-103919771D02*
X102867857Y-103948342D01*
X102867857Y-103948342D02*
X102896429Y-103976914D01*
X102896429Y-103976914D02*
X102953571Y-104062628D01*
X102953571Y-104062628D02*
X102982143Y-104176914D01*
X102982143Y-104176914D02*
X102982143Y-104405485D01*
X102982143Y-104405485D02*
X102953571Y-104462628D01*
X102953571Y-104462628D02*
X102925000Y-104491200D01*
X102925000Y-104491200D02*
X102867857Y-104519771D01*
X102867857Y-104519771D02*
X102753571Y-104519771D01*
X102753571Y-104519771D02*
X102696429Y-104491200D01*
X102696429Y-104491200D02*
X102667857Y-104462628D01*
X102667857Y-104462628D02*
X102639286Y-104405485D01*
X102639286Y-104405485D02*
X102639286Y-104262628D01*
X102639286Y-104262628D02*
X102667857Y-104205485D01*
X102667857Y-104205485D02*
X102696429Y-104176914D01*
X102696429Y-104176914D02*
X102753571Y-104148342D01*
X102753571Y-104148342D02*
X102867857Y-104148342D01*
X102867857Y-104148342D02*
X102925000Y-104176914D01*
X102925000Y-104176914D02*
X102953571Y-104205485D01*
X102953571Y-104205485D02*
X102982143Y-104262628D01*
X102267857Y-103919771D02*
X102210714Y-103919771D01*
X102210714Y-103919771D02*
X102153571Y-103948342D01*
X102153571Y-103948342D02*
X102125000Y-103976914D01*
X102125000Y-103976914D02*
X102096428Y-104034057D01*
X102096428Y-104034057D02*
X102067857Y-104148342D01*
X102067857Y-104148342D02*
X102067857Y-104291200D01*
X102067857Y-104291200D02*
X102096428Y-104405485D01*
X102096428Y-104405485D02*
X102125000Y-104462628D01*
X102125000Y-104462628D02*
X102153571Y-104491200D01*
X102153571Y-104491200D02*
X102210714Y-104519771D01*
X102210714Y-104519771D02*
X102267857Y-104519771D01*
X102267857Y-104519771D02*
X102325000Y-104491200D01*
X102325000Y-104491200D02*
X102353571Y-104462628D01*
X102353571Y-104462628D02*
X102382142Y-104405485D01*
X102382142Y-104405485D02*
X102410714Y-104291200D01*
X102410714Y-104291200D02*
X102410714Y-104148342D01*
X102410714Y-104148342D02*
X102382142Y-104034057D01*
X102382142Y-104034057D02*
X102353571Y-103976914D01*
X102353571Y-103976914D02*
X102325000Y-103948342D01*
X102325000Y-103948342D02*
X102267857Y-103919771D01*
X78565713Y-85549771D02*
X78565713Y-86035485D01*
X78565713Y-86035485D02*
X78537142Y-86092628D01*
X78537142Y-86092628D02*
X78508571Y-86121200D01*
X78508571Y-86121200D02*
X78451428Y-86149771D01*
X78451428Y-86149771D02*
X78337142Y-86149771D01*
X78337142Y-86149771D02*
X78279999Y-86121200D01*
X78279999Y-86121200D02*
X78251428Y-86092628D01*
X78251428Y-86092628D02*
X78222856Y-86035485D01*
X78222856Y-86035485D02*
X78222856Y-85549771D01*
X77994285Y-85549771D02*
X77594285Y-85549771D01*
X77594285Y-85549771D02*
X77851428Y-86149771D01*
X125035714Y-78949771D02*
X125235714Y-78664057D01*
X125378571Y-78949771D02*
X125378571Y-78349771D01*
X125378571Y-78349771D02*
X125150000Y-78349771D01*
X125150000Y-78349771D02*
X125092857Y-78378342D01*
X125092857Y-78378342D02*
X125064286Y-78406914D01*
X125064286Y-78406914D02*
X125035714Y-78464057D01*
X125035714Y-78464057D02*
X125035714Y-78549771D01*
X125035714Y-78549771D02*
X125064286Y-78606914D01*
X125064286Y-78606914D02*
X125092857Y-78635485D01*
X125092857Y-78635485D02*
X125150000Y-78664057D01*
X125150000Y-78664057D02*
X125378571Y-78664057D01*
X124807143Y-78406914D02*
X124778571Y-78378342D01*
X124778571Y-78378342D02*
X124721429Y-78349771D01*
X124721429Y-78349771D02*
X124578571Y-78349771D01*
X124578571Y-78349771D02*
X124521429Y-78378342D01*
X124521429Y-78378342D02*
X124492857Y-78406914D01*
X124492857Y-78406914D02*
X124464286Y-78464057D01*
X124464286Y-78464057D02*
X124464286Y-78521200D01*
X124464286Y-78521200D02*
X124492857Y-78606914D01*
X124492857Y-78606914D02*
X124835714Y-78949771D01*
X124835714Y-78949771D02*
X124464286Y-78949771D01*
X123950000Y-78349771D02*
X124064285Y-78349771D01*
X124064285Y-78349771D02*
X124121428Y-78378342D01*
X124121428Y-78378342D02*
X124150000Y-78406914D01*
X124150000Y-78406914D02*
X124207142Y-78492628D01*
X124207142Y-78492628D02*
X124235714Y-78606914D01*
X124235714Y-78606914D02*
X124235714Y-78835485D01*
X124235714Y-78835485D02*
X124207142Y-78892628D01*
X124207142Y-78892628D02*
X124178571Y-78921200D01*
X124178571Y-78921200D02*
X124121428Y-78949771D01*
X124121428Y-78949771D02*
X124007142Y-78949771D01*
X124007142Y-78949771D02*
X123950000Y-78921200D01*
X123950000Y-78921200D02*
X123921428Y-78892628D01*
X123921428Y-78892628D02*
X123892857Y-78835485D01*
X123892857Y-78835485D02*
X123892857Y-78692628D01*
X123892857Y-78692628D02*
X123921428Y-78635485D01*
X123921428Y-78635485D02*
X123950000Y-78606914D01*
X123950000Y-78606914D02*
X124007142Y-78578342D01*
X124007142Y-78578342D02*
X124121428Y-78578342D01*
X124121428Y-78578342D02*
X124178571Y-78606914D01*
X124178571Y-78606914D02*
X124207142Y-78635485D01*
X124207142Y-78635485D02*
X124235714Y-78692628D01*
X82078571Y-78619771D02*
X82078571Y-78019771D01*
X82078571Y-78019771D02*
X81935714Y-78019771D01*
X81935714Y-78019771D02*
X81850000Y-78048342D01*
X81850000Y-78048342D02*
X81792857Y-78105485D01*
X81792857Y-78105485D02*
X81764286Y-78162628D01*
X81764286Y-78162628D02*
X81735714Y-78276914D01*
X81735714Y-78276914D02*
X81735714Y-78362628D01*
X81735714Y-78362628D02*
X81764286Y-78476914D01*
X81764286Y-78476914D02*
X81792857Y-78534057D01*
X81792857Y-78534057D02*
X81850000Y-78591200D01*
X81850000Y-78591200D02*
X81935714Y-78619771D01*
X81935714Y-78619771D02*
X82078571Y-78619771D01*
X81164286Y-78619771D02*
X81507143Y-78619771D01*
X81335714Y-78619771D02*
X81335714Y-78019771D01*
X81335714Y-78019771D02*
X81392857Y-78105485D01*
X81392857Y-78105485D02*
X81450000Y-78162628D01*
X81450000Y-78162628D02*
X81507143Y-78191200D01*
X80935714Y-78076914D02*
X80907142Y-78048342D01*
X80907142Y-78048342D02*
X80850000Y-78019771D01*
X80850000Y-78019771D02*
X80707142Y-78019771D01*
X80707142Y-78019771D02*
X80650000Y-78048342D01*
X80650000Y-78048342D02*
X80621428Y-78076914D01*
X80621428Y-78076914D02*
X80592857Y-78134057D01*
X80592857Y-78134057D02*
X80592857Y-78191200D01*
X80592857Y-78191200D02*
X80621428Y-78276914D01*
X80621428Y-78276914D02*
X80964285Y-78619771D01*
X80964285Y-78619771D02*
X80592857Y-78619771D01*
X92660714Y-84162628D02*
X92689286Y-84191200D01*
X92689286Y-84191200D02*
X92775000Y-84219771D01*
X92775000Y-84219771D02*
X92832143Y-84219771D01*
X92832143Y-84219771D02*
X92917857Y-84191200D01*
X92917857Y-84191200D02*
X92975000Y-84134057D01*
X92975000Y-84134057D02*
X93003571Y-84076914D01*
X93003571Y-84076914D02*
X93032143Y-83962628D01*
X93032143Y-83962628D02*
X93032143Y-83876914D01*
X93032143Y-83876914D02*
X93003571Y-83762628D01*
X93003571Y-83762628D02*
X92975000Y-83705485D01*
X92975000Y-83705485D02*
X92917857Y-83648342D01*
X92917857Y-83648342D02*
X92832143Y-83619771D01*
X92832143Y-83619771D02*
X92775000Y-83619771D01*
X92775000Y-83619771D02*
X92689286Y-83648342D01*
X92689286Y-83648342D02*
X92660714Y-83676914D01*
X92432143Y-83676914D02*
X92403571Y-83648342D01*
X92403571Y-83648342D02*
X92346429Y-83619771D01*
X92346429Y-83619771D02*
X92203571Y-83619771D01*
X92203571Y-83619771D02*
X92146429Y-83648342D01*
X92146429Y-83648342D02*
X92117857Y-83676914D01*
X92117857Y-83676914D02*
X92089286Y-83734057D01*
X92089286Y-83734057D02*
X92089286Y-83791200D01*
X92089286Y-83791200D02*
X92117857Y-83876914D01*
X92117857Y-83876914D02*
X92460714Y-84219771D01*
X92460714Y-84219771D02*
X92089286Y-84219771D01*
X91746428Y-83876914D02*
X91803571Y-83848342D01*
X91803571Y-83848342D02*
X91832142Y-83819771D01*
X91832142Y-83819771D02*
X91860714Y-83762628D01*
X91860714Y-83762628D02*
X91860714Y-83734057D01*
X91860714Y-83734057D02*
X91832142Y-83676914D01*
X91832142Y-83676914D02*
X91803571Y-83648342D01*
X91803571Y-83648342D02*
X91746428Y-83619771D01*
X91746428Y-83619771D02*
X91632142Y-83619771D01*
X91632142Y-83619771D02*
X91575000Y-83648342D01*
X91575000Y-83648342D02*
X91546428Y-83676914D01*
X91546428Y-83676914D02*
X91517857Y-83734057D01*
X91517857Y-83734057D02*
X91517857Y-83762628D01*
X91517857Y-83762628D02*
X91546428Y-83819771D01*
X91546428Y-83819771D02*
X91575000Y-83848342D01*
X91575000Y-83848342D02*
X91632142Y-83876914D01*
X91632142Y-83876914D02*
X91746428Y-83876914D01*
X91746428Y-83876914D02*
X91803571Y-83905485D01*
X91803571Y-83905485D02*
X91832142Y-83934057D01*
X91832142Y-83934057D02*
X91860714Y-83991200D01*
X91860714Y-83991200D02*
X91860714Y-84105485D01*
X91860714Y-84105485D02*
X91832142Y-84162628D01*
X91832142Y-84162628D02*
X91803571Y-84191200D01*
X91803571Y-84191200D02*
X91746428Y-84219771D01*
X91746428Y-84219771D02*
X91632142Y-84219771D01*
X91632142Y-84219771D02*
X91575000Y-84191200D01*
X91575000Y-84191200D02*
X91546428Y-84162628D01*
X91546428Y-84162628D02*
X91517857Y-84105485D01*
X91517857Y-84105485D02*
X91517857Y-83991200D01*
X91517857Y-83991200D02*
X91546428Y-83934057D01*
X91546428Y-83934057D02*
X91575000Y-83905485D01*
X91575000Y-83905485D02*
X91632142Y-83876914D01*
X62067499Y-125167628D02*
X62096071Y-125196200D01*
X62096071Y-125196200D02*
X62181785Y-125224771D01*
X62181785Y-125224771D02*
X62238928Y-125224771D01*
X62238928Y-125224771D02*
X62324642Y-125196200D01*
X62324642Y-125196200D02*
X62381785Y-125139057D01*
X62381785Y-125139057D02*
X62410356Y-125081914D01*
X62410356Y-125081914D02*
X62438928Y-124967628D01*
X62438928Y-124967628D02*
X62438928Y-124881914D01*
X62438928Y-124881914D02*
X62410356Y-124767628D01*
X62410356Y-124767628D02*
X62381785Y-124710485D01*
X62381785Y-124710485D02*
X62324642Y-124653342D01*
X62324642Y-124653342D02*
X62238928Y-124624771D01*
X62238928Y-124624771D02*
X62181785Y-124624771D01*
X62181785Y-124624771D02*
X62096071Y-124653342D01*
X62096071Y-124653342D02*
X62067499Y-124681914D01*
X61867499Y-124624771D02*
X61496071Y-124624771D01*
X61496071Y-124624771D02*
X61696071Y-124853342D01*
X61696071Y-124853342D02*
X61610356Y-124853342D01*
X61610356Y-124853342D02*
X61553214Y-124881914D01*
X61553214Y-124881914D02*
X61524642Y-124910485D01*
X61524642Y-124910485D02*
X61496071Y-124967628D01*
X61496071Y-124967628D02*
X61496071Y-125110485D01*
X61496071Y-125110485D02*
X61524642Y-125167628D01*
X61524642Y-125167628D02*
X61553214Y-125196200D01*
X61553214Y-125196200D02*
X61610356Y-125224771D01*
X61610356Y-125224771D02*
X61781785Y-125224771D01*
X61781785Y-125224771D02*
X61838928Y-125196200D01*
X61838928Y-125196200D02*
X61867499Y-125167628D01*
D11*
%TO.C,C16*%
X49947500Y-80540000D02*
X49947500Y-84750000D01*
X52967500Y-80540000D02*
X49947500Y-80540000D01*
X52967500Y-84750000D02*
X52967500Y-80540000D01*
%TO.C,R7*%
X67327500Y-104012742D02*
X67327500Y-104487258D01*
X68372500Y-104012742D02*
X68372500Y-104487258D01*
%TO.C,C35*%
X75609420Y-81340000D02*
X75890580Y-81340000D01*
X75609420Y-82360000D02*
X75890580Y-82360000D01*
%TO.C,C13*%
X49947500Y-87040000D02*
X49947500Y-91250000D01*
X52967500Y-87040000D02*
X49947500Y-87040000D01*
X52967500Y-91250000D02*
X52967500Y-87040000D01*
%TO.C,R57*%
X90787258Y-106277500D02*
X90312742Y-106277500D01*
X90787258Y-107322500D02*
X90312742Y-107322500D01*
%TO.C,C23*%
X71409420Y-92640000D02*
X71690580Y-92640000D01*
X71409420Y-93660000D02*
X71690580Y-93660000D01*
%TO.C,C14*%
X56139420Y-90890000D02*
X56420580Y-90890000D01*
X56139420Y-91910000D02*
X56420580Y-91910000D01*
%TO.C,C32*%
X67059420Y-72790000D02*
X67340580Y-72790000D01*
X67059420Y-73810000D02*
X67340580Y-73810000D01*
%TO.C,C6*%
X88687500Y-118910000D02*
X92897500Y-118910000D01*
X92897500Y-115890000D02*
X88687500Y-115890000D01*
X92897500Y-118910000D02*
X92897500Y-115890000D01*
%TO.C,C61*%
X98165580Y-109290000D02*
X97884420Y-109290000D01*
X98165580Y-110310000D02*
X97884420Y-110310000D01*
%TO.C,R62*%
X97787742Y-107477500D02*
X98262258Y-107477500D01*
X97787742Y-108522500D02*
X98262258Y-108522500D01*
%TO.C,C15*%
X60735580Y-90890000D02*
X60454420Y-90890000D01*
X60735580Y-91910000D02*
X60454420Y-91910000D01*
%TO.C,R56*%
X90787258Y-104502500D02*
X90312742Y-104502500D01*
X90787258Y-105547500D02*
X90312742Y-105547500D01*
%TO.C,R17*%
X71312742Y-96027500D02*
X71787258Y-96027500D01*
X71312742Y-97072500D02*
X71787258Y-97072500D01*
%TO.C,C26*%
X71690580Y-97740000D02*
X71409420Y-97740000D01*
X71690580Y-98760000D02*
X71409420Y-98760000D01*
%TO.C,R29*%
X118012258Y-80627500D02*
X117537742Y-80627500D01*
X118012258Y-81672500D02*
X117537742Y-81672500D01*
%TO.C,R27*%
X127587258Y-79852500D02*
X127112742Y-79852500D01*
X127587258Y-80897500D02*
X127112742Y-80897500D01*
%TO.C,D1*%
X48300000Y-121242500D02*
X53810000Y-121242500D01*
X48300000Y-124542500D02*
X53810000Y-124542500D01*
X53810000Y-124542500D02*
X53810000Y-121242500D01*
%TO.C,R30*%
X118007258Y-78932500D02*
X117532742Y-78932500D01*
X118007258Y-79977500D02*
X117532742Y-79977500D01*
%TO.C,BT1*%
X131680000Y-95170000D02*
G75*
G02*
X124620000Y-95170000I-3530000J0D01*
G01*
X124620000Y-95170000D02*
G75*
G02*
X131680000Y-95170000I3530000J0D01*
G01*
%TO.C,D4*%
X50787500Y-78985000D02*
X53072500Y-78985000D01*
X53072500Y-77515000D02*
X50787500Y-77515000D01*
X53072500Y-78985000D02*
X53072500Y-77515000D01*
%TO.C,D11*%
X75340000Y-74620000D02*
X75340000Y-76620000D01*
X79350000Y-74620000D02*
X75340000Y-74620000D01*
X79350000Y-76620000D02*
X75340000Y-76620000D01*
%TO.C,U3*%
X54990000Y-82690000D02*
X54990000Y-86450000D01*
X56250000Y-82690000D02*
X54990000Y-82690000D01*
X60550000Y-82690000D02*
X61810000Y-82690000D01*
X61810000Y-82690000D02*
X61810000Y-86450000D01*
X62040000Y-87970000D02*
X61710000Y-87730000D01*
X62040000Y-87490000D01*
X62040000Y-87970000D01*
G36*
X62040000Y-87970000D02*
G01*
X61710000Y-87730000D01*
X62040000Y-87490000D01*
X62040000Y-87970000D01*
G37*
%TO.C,U10*%
X67400000Y-74780000D02*
X69350000Y-74780000D01*
X67400000Y-84900000D02*
X69350000Y-84900000D01*
X71300000Y-74780000D02*
X69350000Y-74780000D01*
X71300000Y-84900000D02*
X69350000Y-84900000D01*
X72050000Y-74835000D02*
X71810000Y-74505000D01*
X72290000Y-74505000D01*
X72050000Y-74835000D01*
G36*
X72050000Y-74835000D02*
G01*
X71810000Y-74505000D01*
X72290000Y-74505000D01*
X72050000Y-74835000D01*
G37*
%TO.C,R61*%
X97787742Y-105677500D02*
X98262258Y-105677500D01*
X97787742Y-106722500D02*
X98262258Y-106722500D01*
%TO.C,R28*%
X127587258Y-81552500D02*
X127112742Y-81552500D01*
X127587258Y-82597500D02*
X127112742Y-82597500D01*
%TO.C,R58*%
X90787258Y-108052500D02*
X90312742Y-108052500D01*
X90787258Y-109097500D02*
X90312742Y-109097500D01*
%TO.C,D5*%
X115655000Y-88220000D02*
X121165000Y-88220000D01*
X115655000Y-91520000D02*
X121165000Y-91520000D01*
X121165000Y-91520000D02*
X121165000Y-88220000D01*
%TO.C,D3*%
X83992500Y-117255000D02*
X86277500Y-117255000D01*
X86277500Y-115785000D02*
X83992500Y-115785000D01*
X86277500Y-117255000D02*
X86277500Y-115785000D01*
%TO.C,C31*%
X76925580Y-72790000D02*
X76644420Y-72790000D01*
X76925580Y-73810000D02*
X76644420Y-73810000D01*
%TO.C,R24*%
X109612258Y-80627500D02*
X109137742Y-80627500D01*
X109612258Y-81672500D02*
X109137742Y-81672500D01*
%TO.C,D6*%
X80400000Y-82130000D02*
X84410000Y-82130000D01*
X80400000Y-84130000D02*
X84410000Y-84130000D01*
X84410000Y-84130000D02*
X84410000Y-82130000D01*
%TO.C,R4*%
X84575242Y-117797500D02*
X85049758Y-117797500D01*
X84575242Y-118842500D02*
X85049758Y-118842500D01*
%TO.C,R25*%
X109612258Y-78932500D02*
X109137742Y-78932500D01*
X109612258Y-79977500D02*
X109137742Y-79977500D01*
%TO.C,TP3*%
X48700000Y-82250000D02*
G75*
G02*
X47300000Y-82250000I-700000J0D01*
G01*
X47300000Y-82250000D02*
G75*
G02*
X48700000Y-82250000I700000J0D01*
G01*
%TO.C,U8*%
X67400000Y-86695000D02*
X69350000Y-86695000D01*
X67400000Y-91815000D02*
X69350000Y-91815000D01*
X71300000Y-86695000D02*
X69350000Y-86695000D01*
X71300000Y-91815000D02*
X69350000Y-91815000D01*
X72050000Y-86790000D02*
X71810000Y-86460000D01*
X72290000Y-86460000D01*
X72050000Y-86790000D01*
G36*
X72050000Y-86790000D02*
G01*
X71810000Y-86460000D01*
X72290000Y-86460000D01*
X72050000Y-86790000D01*
G37*
%TO.C,C33*%
X73259420Y-72790000D02*
X73540580Y-72790000D01*
X73259420Y-73810000D02*
X73540580Y-73810000D01*
%TO.C,D2*%
X55087500Y-118065000D02*
X55087500Y-121365000D01*
X60597500Y-118065000D02*
X55087500Y-118065000D01*
X60597500Y-121365000D02*
X55087500Y-121365000D01*
%TO.C,C34*%
X75890580Y-83040000D02*
X75609420Y-83040000D01*
X75890580Y-84060000D02*
X75609420Y-84060000D01*
%TO.C,C22*%
X71690580Y-94340000D02*
X71409420Y-94340000D01*
X71690580Y-95360000D02*
X71409420Y-95360000D01*
%TO.C,R9*%
X48412258Y-77727500D02*
X47937742Y-77727500D01*
X48412258Y-78772500D02*
X47937742Y-78772500D01*
%TO.C,R60*%
X100327500Y-104012742D02*
X100327500Y-104487258D01*
X101372500Y-104012742D02*
X101372500Y-104487258D01*
%TO.C,U7*%
X76020000Y-86725000D02*
X77970000Y-86725000D01*
X76020000Y-95595000D02*
X77970000Y-95595000D01*
X79920000Y-86725000D02*
X77970000Y-86725000D01*
X79920000Y-95595000D02*
X77970000Y-95595000D01*
X80670000Y-86790000D02*
X80430000Y-86460000D01*
X80910000Y-86460000D01*
X80670000Y-86790000D01*
G36*
X80670000Y-86790000D02*
G01*
X80430000Y-86460000D01*
X80910000Y-86460000D01*
X80670000Y-86790000D01*
G37*
%TO.C,R26*%
X127587258Y-78152500D02*
X127112742Y-78152500D01*
X127587258Y-79197500D02*
X127112742Y-79197500D01*
%TO.C,D12*%
X75340000Y-77350000D02*
X75340000Y-79350000D01*
X79350000Y-77350000D02*
X75340000Y-77350000D01*
X79350000Y-79350000D02*
X75340000Y-79350000D01*
%TO.C,C28*%
X92134420Y-84815000D02*
X92415580Y-84815000D01*
X92134420Y-85835000D02*
X92415580Y-85835000D01*
%TO.C,C3*%
X56137500Y-123460000D02*
X56137500Y-126480000D01*
X56137500Y-126480000D02*
X60347500Y-126480000D01*
X60347500Y-123460000D02*
X56137500Y-123460000D01*
%TD*%
M02*
