%TF.GenerationSoftware,KiCad,Pcbnew,9.0.2*%
%TF.CreationDate,2025-05-28T14:44:23+08:00*%
%TF.ProjectId,Explorer,4578706c-6f72-4657-922e-6b696361645f,rev?*%
%TF.SameCoordinates,Original*%
%TF.FileFunction,Paste,Top*%
%TF.FilePolarity,Positive*%
%FSLAX46Y46*%
G04 Gerber Fmt 4.6, Leading zero omitted, Abs format (unit mm)*
G04 Created by KiCad (PCBNEW 9.0.2) date 2025-05-28 14:44:23*
%MOMM*%
%LPD*%
G01*
G04 APERTURE LIST*
G04 Aperture macros list*
%AMRoundRect*
0 Rectangle with rounded corners*
0 $1 Rounding radius*
0 $2 $3 $4 $5 $6 $7 $8 $9 X,Y pos of 4 corners*
0 Add a 4 corners polygon primitive as box body*
4,1,4,$2,$3,$4,$5,$6,$7,$8,$9,$2,$3,0*
0 Add four circle primitives for the rounded corners*
1,1,$1+$1,$2,$3*
1,1,$1+$1,$4,$5*
1,1,$1+$1,$6,$7*
1,1,$1+$1,$8,$9*
0 Add four rect primitives between the rounded corners*
20,1,$1+$1,$2,$3,$4,$5,0*
20,1,$1+$1,$4,$5,$6,$7,0*
20,1,$1+$1,$6,$7,$8,$9,0*
20,1,$1+$1,$8,$9,$2,$3,0*%
G04 Aperture macros list end*
%ADD10RoundRect,0.250000X0.400000X1.075000X-0.400000X1.075000X-0.400000X-1.075000X0.400000X-1.075000X0*%
%ADD11RoundRect,0.250000X-0.375000X-1.075000X0.375000X-1.075000X0.375000X1.075000X-0.375000X1.075000X0*%
%ADD12RoundRect,0.250000X1.100000X-0.412500X1.100000X0.412500X-1.100000X0.412500X-1.100000X-0.412500X0*%
%ADD13RoundRect,0.250000X-0.412500X-1.100000X0.412500X-1.100000X0.412500X1.100000X-0.412500X1.100000X0*%
%ADD14RoundRect,0.250000X0.412500X1.100000X-0.412500X1.100000X-0.412500X-1.100000X0.412500X-1.100000X0*%
%ADD15RoundRect,0.250000X0.420000X0.945000X-0.420000X0.945000X-0.420000X-0.945000X0.420000X-0.945000X0*%
%ADD16RoundRect,0.250000X-0.550000X1.500000X-0.550000X-1.500000X0.550000X-1.500000X0.550000X1.500000X0*%
%ADD17RoundRect,0.250000X-0.400000X-1.075000X0.400000X-1.075000X0.400000X1.075000X-0.400000X1.075000X0*%
%ADD18RoundRect,0.250000X1.075000X-0.400000X1.075000X0.400000X-1.075000X0.400000X-1.075000X-0.400000X0*%
%ADD19RoundRect,0.375000X0.375000X-0.625000X0.375000X0.625000X-0.375000X0.625000X-0.375000X-0.625000X0*%
%ADD20RoundRect,0.500000X1.400000X-0.500000X1.400000X0.500000X-1.400000X0.500000X-1.400000X-0.500000X0*%
%ADD21RoundRect,0.150000X0.825000X0.150000X-0.825000X0.150000X-0.825000X-0.150000X0.825000X-0.150000X0*%
%ADD22RoundRect,0.100000X-0.100000X0.637500X-0.100000X-0.637500X0.100000X-0.637500X0.100000X0.637500X0*%
%ADD23RoundRect,0.250000X-0.420000X-0.945000X0.420000X-0.945000X0.420000X0.945000X-0.420000X0.945000X0*%
G04 APERTURE END LIST*
D10*
%TO.C,R8*%
X141930000Y-77310000D03*
X138830000Y-77310000D03*
%TD*%
%TO.C,R10*%
X125600000Y-122440000D03*
X122500000Y-122440000D03*
%TD*%
D11*
%TO.C,D2*%
X132000000Y-73820000D03*
X134800000Y-73820000D03*
%TD*%
D12*
%TO.C,C17*%
X164325000Y-103875000D03*
X164325000Y-100750000D03*
%TD*%
D10*
%TO.C,R12*%
X125550000Y-118825000D03*
X122450000Y-118825000D03*
%TD*%
D13*
%TO.C,C15*%
X152417500Y-95775000D03*
X155542500Y-95775000D03*
%TD*%
D14*
%TO.C,C10*%
X173640000Y-87700000D03*
X170515000Y-87700000D03*
%TD*%
D11*
%TO.C,D5*%
X145600000Y-73820000D03*
X148400000Y-73820000D03*
%TD*%
D15*
%TO.C,C8*%
X173595000Y-84000000D03*
X170515000Y-84000000D03*
%TD*%
D16*
%TO.C,C3*%
X172900000Y-96400000D03*
X172900000Y-101800000D03*
%TD*%
D13*
%TO.C,C16*%
X157837500Y-95775000D03*
X160962500Y-95775000D03*
%TD*%
D11*
%TO.C,D3*%
X125000000Y-73820000D03*
X127800000Y-73820000D03*
%TD*%
D14*
%TO.C,C9*%
X137075000Y-101100000D03*
X133950000Y-101100000D03*
%TD*%
D17*
%TO.C,R2*%
X162430000Y-77290000D03*
X165530000Y-77290000D03*
%TD*%
%TO.C,R9*%
X152430000Y-77290000D03*
X155530000Y-77290000D03*
%TD*%
D14*
%TO.C,C4*%
X137075000Y-104750000D03*
X133950000Y-104750000D03*
%TD*%
D18*
%TO.C,R4*%
X139930000Y-89800000D03*
X139930000Y-86700000D03*
%TD*%
D13*
%TO.C,C11*%
X131037500Y-108800000D03*
X134162500Y-108800000D03*
%TD*%
%TO.C,C13*%
X131897500Y-114400000D03*
X135022500Y-114400000D03*
%TD*%
D14*
%TO.C,C2*%
X167485000Y-87700000D03*
X164360000Y-87700000D03*
%TD*%
D12*
%TO.C,C19*%
X148900000Y-103875000D03*
X148900000Y-100750000D03*
%TD*%
D10*
%TO.C,R14*%
X165050000Y-122325000D03*
X161950000Y-122325000D03*
%TD*%
%TO.C,R11*%
X145050000Y-122325000D03*
X141950000Y-122325000D03*
%TD*%
D12*
%TO.C,C20*%
X144800000Y-103875000D03*
X144800000Y-100750000D03*
%TD*%
D13*
%TO.C,C14*%
X151897500Y-114400000D03*
X155022500Y-114400000D03*
%TD*%
D18*
%TO.C,R3*%
X139930000Y-84560000D03*
X139930000Y-81460000D03*
%TD*%
D13*
%TO.C,C12*%
X133950000Y-97430000D03*
X137075000Y-97430000D03*
%TD*%
D10*
%TO.C,R7*%
X148530000Y-77310000D03*
X145430000Y-77310000D03*
%TD*%
%TO.C,R5*%
X134930000Y-77270000D03*
X131830000Y-77270000D03*
%TD*%
D19*
%TO.C,U3*%
X177100000Y-85550000D03*
X179400000Y-85550000D03*
D20*
X179400000Y-79250000D03*
D19*
X181700000Y-85550000D03*
%TD*%
D21*
%TO.C,U2*%
X130320000Y-105510000D03*
X130320000Y-104240000D03*
X130320000Y-102970000D03*
X130320000Y-101700000D03*
X130320000Y-100430000D03*
X130320000Y-99160000D03*
X130320000Y-97890000D03*
X130320000Y-96620000D03*
X125370000Y-96620000D03*
X125370000Y-97890000D03*
X125370000Y-99160000D03*
X125370000Y-100430000D03*
X125370000Y-101700000D03*
X125370000Y-102970000D03*
X125370000Y-104240000D03*
X125370000Y-105510000D03*
%TD*%
D17*
%TO.C,R1*%
X162430000Y-73820000D03*
X165530000Y-73820000D03*
%TD*%
D14*
%TO.C,C6*%
X128187500Y-108800000D03*
X125062500Y-108800000D03*
%TD*%
D22*
%TO.C,U4*%
X160825000Y-99450000D03*
X160175000Y-99450000D03*
X159525000Y-99450000D03*
X158875000Y-99450000D03*
X158225000Y-99450000D03*
X157575000Y-99450000D03*
X156925000Y-99450000D03*
X156275000Y-99450000D03*
X155625000Y-99450000D03*
X154975000Y-99450000D03*
X154325000Y-99450000D03*
X153675000Y-99450000D03*
X153025000Y-99450000D03*
X152375000Y-99450000D03*
X152375000Y-105175000D03*
X153025000Y-105175000D03*
X153675000Y-105175000D03*
X154325000Y-105175000D03*
X154975000Y-105175000D03*
X155625000Y-105175000D03*
X156275000Y-105175000D03*
X156925000Y-105175000D03*
X157575000Y-105175000D03*
X158225000Y-105175000D03*
X158875000Y-105175000D03*
X159525000Y-105175000D03*
X160175000Y-105175000D03*
X160825000Y-105175000D03*
%TD*%
D17*
%TO.C,R6*%
X124830000Y-77270000D03*
X127930000Y-77270000D03*
%TD*%
D13*
%TO.C,C18*%
X171897500Y-114400000D03*
X175022500Y-114400000D03*
%TD*%
D10*
%TO.C,R13*%
X145050000Y-118825000D03*
X141950000Y-118825000D03*
%TD*%
D11*
%TO.C,D7*%
X152600000Y-73820000D03*
X155400000Y-73820000D03*
%TD*%
%TO.C,D6*%
X139000000Y-73820000D03*
X141800000Y-73820000D03*
%TD*%
D10*
%TO.C,R15*%
X165050000Y-118825000D03*
X161950000Y-118825000D03*
%TD*%
D13*
%TO.C,C5*%
X184615000Y-80600000D03*
X187740000Y-80600000D03*
%TD*%
D17*
%TO.C,R16*%
X147225000Y-106800000D03*
X150325000Y-106800000D03*
%TD*%
D23*
%TO.C,C7*%
X184660000Y-84500000D03*
X187740000Y-84500000D03*
%TD*%
D15*
%TO.C,C1*%
X167440000Y-84000000D03*
X164360000Y-84000000D03*
%TD*%
M02*
