%TF.GenerationSoftware,KiCad,Pcbnew,9.0.2*%
%TF.CreationDate,2025-06-08T14:32:50+08:00*%
%TF.ProjectId,Explorer,4578706c-6f72-4657-922e-6b696361645f,rev?*%
%TF.SameCoordinates,Original*%
%TF.FileFunction,Legend,Bot*%
%TF.FilePolarity,Positive*%
%FSLAX46Y46*%
G04 Gerber Fmt 4.6, Leading zero omitted, Abs format (unit mm)*
G04 Created by KiCad (PCBNEW 9.0.2) date 2025-06-08 14:32:50*
%MOMM*%
%LPD*%
G01*
G04 APERTURE LIST*
%ADD10C,0.150000*%
%ADD11C,0.120000*%
G04 APERTURE END LIST*
D10*
X78565713Y-85549771D02*
X78565713Y-86035485D01*
X78565713Y-86035485D02*
X78537142Y-86092628D01*
X78537142Y-86092628D02*
X78508571Y-86121200D01*
X78508571Y-86121200D02*
X78451428Y-86149771D01*
X78451428Y-86149771D02*
X78337142Y-86149771D01*
X78337142Y-86149771D02*
X78279999Y-86121200D01*
X78279999Y-86121200D02*
X78251428Y-86092628D01*
X78251428Y-86092628D02*
X78222856Y-86035485D01*
X78222856Y-86035485D02*
X78222856Y-85549771D01*
X77908571Y-86149771D02*
X77794285Y-86149771D01*
X77794285Y-86149771D02*
X77737142Y-86121200D01*
X77737142Y-86121200D02*
X77708571Y-86092628D01*
X77708571Y-86092628D02*
X77651428Y-86006914D01*
X77651428Y-86006914D02*
X77622857Y-85892628D01*
X77622857Y-85892628D02*
X77622857Y-85664057D01*
X77622857Y-85664057D02*
X77651428Y-85606914D01*
X77651428Y-85606914D02*
X77680000Y-85578342D01*
X77680000Y-85578342D02*
X77737142Y-85549771D01*
X77737142Y-85549771D02*
X77851428Y-85549771D01*
X77851428Y-85549771D02*
X77908571Y-85578342D01*
X77908571Y-85578342D02*
X77937142Y-85606914D01*
X77937142Y-85606914D02*
X77965714Y-85664057D01*
X77965714Y-85664057D02*
X77965714Y-85806914D01*
X77965714Y-85806914D02*
X77937142Y-85864057D01*
X77937142Y-85864057D02*
X77908571Y-85892628D01*
X77908571Y-85892628D02*
X77851428Y-85921200D01*
X77851428Y-85921200D02*
X77737142Y-85921200D01*
X77737142Y-85921200D02*
X77680000Y-85892628D01*
X77680000Y-85892628D02*
X77651428Y-85864057D01*
X77651428Y-85864057D02*
X77622857Y-85806914D01*
X51742856Y-69282271D02*
X51742856Y-68682271D01*
X51742856Y-68682271D02*
X51599999Y-68682271D01*
X51599999Y-68682271D02*
X51514285Y-68710842D01*
X51514285Y-68710842D02*
X51457142Y-68767985D01*
X51457142Y-68767985D02*
X51428571Y-68825128D01*
X51428571Y-68825128D02*
X51399999Y-68939414D01*
X51399999Y-68939414D02*
X51399999Y-69025128D01*
X51399999Y-69025128D02*
X51428571Y-69139414D01*
X51428571Y-69139414D02*
X51457142Y-69196557D01*
X51457142Y-69196557D02*
X51514285Y-69253700D01*
X51514285Y-69253700D02*
X51599999Y-69282271D01*
X51599999Y-69282271D02*
X51742856Y-69282271D01*
X50885714Y-68682271D02*
X50999999Y-68682271D01*
X50999999Y-68682271D02*
X51057142Y-68710842D01*
X51057142Y-68710842D02*
X51085714Y-68739414D01*
X51085714Y-68739414D02*
X51142856Y-68825128D01*
X51142856Y-68825128D02*
X51171428Y-68939414D01*
X51171428Y-68939414D02*
X51171428Y-69167985D01*
X51171428Y-69167985D02*
X51142856Y-69225128D01*
X51142856Y-69225128D02*
X51114285Y-69253700D01*
X51114285Y-69253700D02*
X51057142Y-69282271D01*
X51057142Y-69282271D02*
X50942856Y-69282271D01*
X50942856Y-69282271D02*
X50885714Y-69253700D01*
X50885714Y-69253700D02*
X50857142Y-69225128D01*
X50857142Y-69225128D02*
X50828571Y-69167985D01*
X50828571Y-69167985D02*
X50828571Y-69025128D01*
X50828571Y-69025128D02*
X50857142Y-68967985D01*
X50857142Y-68967985D02*
X50885714Y-68939414D01*
X50885714Y-68939414D02*
X50942856Y-68910842D01*
X50942856Y-68910842D02*
X51057142Y-68910842D01*
X51057142Y-68910842D02*
X51114285Y-68939414D01*
X51114285Y-68939414D02*
X51142856Y-68967985D01*
X51142856Y-68967985D02*
X51171428Y-69025128D01*
X63695714Y-78447628D02*
X63724286Y-78476200D01*
X63724286Y-78476200D02*
X63810000Y-78504771D01*
X63810000Y-78504771D02*
X63867143Y-78504771D01*
X63867143Y-78504771D02*
X63952857Y-78476200D01*
X63952857Y-78476200D02*
X64010000Y-78419057D01*
X64010000Y-78419057D02*
X64038571Y-78361914D01*
X64038571Y-78361914D02*
X64067143Y-78247628D01*
X64067143Y-78247628D02*
X64067143Y-78161914D01*
X64067143Y-78161914D02*
X64038571Y-78047628D01*
X64038571Y-78047628D02*
X64010000Y-77990485D01*
X64010000Y-77990485D02*
X63952857Y-77933342D01*
X63952857Y-77933342D02*
X63867143Y-77904771D01*
X63867143Y-77904771D02*
X63810000Y-77904771D01*
X63810000Y-77904771D02*
X63724286Y-77933342D01*
X63724286Y-77933342D02*
X63695714Y-77961914D01*
X63467143Y-77961914D02*
X63438571Y-77933342D01*
X63438571Y-77933342D02*
X63381429Y-77904771D01*
X63381429Y-77904771D02*
X63238571Y-77904771D01*
X63238571Y-77904771D02*
X63181429Y-77933342D01*
X63181429Y-77933342D02*
X63152857Y-77961914D01*
X63152857Y-77961914D02*
X63124286Y-78019057D01*
X63124286Y-78019057D02*
X63124286Y-78076200D01*
X63124286Y-78076200D02*
X63152857Y-78161914D01*
X63152857Y-78161914D02*
X63495714Y-78504771D01*
X63495714Y-78504771D02*
X63124286Y-78504771D01*
X62781428Y-78161914D02*
X62838571Y-78133342D01*
X62838571Y-78133342D02*
X62867142Y-78104771D01*
X62867142Y-78104771D02*
X62895714Y-78047628D01*
X62895714Y-78047628D02*
X62895714Y-78019057D01*
X62895714Y-78019057D02*
X62867142Y-77961914D01*
X62867142Y-77961914D02*
X62838571Y-77933342D01*
X62838571Y-77933342D02*
X62781428Y-77904771D01*
X62781428Y-77904771D02*
X62667142Y-77904771D01*
X62667142Y-77904771D02*
X62610000Y-77933342D01*
X62610000Y-77933342D02*
X62581428Y-77961914D01*
X62581428Y-77961914D02*
X62552857Y-78019057D01*
X62552857Y-78019057D02*
X62552857Y-78047628D01*
X62552857Y-78047628D02*
X62581428Y-78104771D01*
X62581428Y-78104771D02*
X62610000Y-78133342D01*
X62610000Y-78133342D02*
X62667142Y-78161914D01*
X62667142Y-78161914D02*
X62781428Y-78161914D01*
X62781428Y-78161914D02*
X62838571Y-78190485D01*
X62838571Y-78190485D02*
X62867142Y-78219057D01*
X62867142Y-78219057D02*
X62895714Y-78276200D01*
X62895714Y-78276200D02*
X62895714Y-78390485D01*
X62895714Y-78390485D02*
X62867142Y-78447628D01*
X62867142Y-78447628D02*
X62838571Y-78476200D01*
X62838571Y-78476200D02*
X62781428Y-78504771D01*
X62781428Y-78504771D02*
X62667142Y-78504771D01*
X62667142Y-78504771D02*
X62610000Y-78476200D01*
X62610000Y-78476200D02*
X62581428Y-78447628D01*
X62581428Y-78447628D02*
X62552857Y-78390485D01*
X62552857Y-78390485D02*
X62552857Y-78276200D01*
X62552857Y-78276200D02*
X62581428Y-78219057D01*
X62581428Y-78219057D02*
X62610000Y-78190485D01*
X62610000Y-78190485D02*
X62667142Y-78161914D01*
X50185714Y-88669771D02*
X50385714Y-88384057D01*
X50528571Y-88669771D02*
X50528571Y-88069771D01*
X50528571Y-88069771D02*
X50300000Y-88069771D01*
X50300000Y-88069771D02*
X50242857Y-88098342D01*
X50242857Y-88098342D02*
X50214286Y-88126914D01*
X50214286Y-88126914D02*
X50185714Y-88184057D01*
X50185714Y-88184057D02*
X50185714Y-88269771D01*
X50185714Y-88269771D02*
X50214286Y-88326914D01*
X50214286Y-88326914D02*
X50242857Y-88355485D01*
X50242857Y-88355485D02*
X50300000Y-88384057D01*
X50300000Y-88384057D02*
X50528571Y-88384057D01*
X49614286Y-88669771D02*
X49957143Y-88669771D01*
X49785714Y-88669771D02*
X49785714Y-88069771D01*
X49785714Y-88069771D02*
X49842857Y-88155485D01*
X49842857Y-88155485D02*
X49900000Y-88212628D01*
X49900000Y-88212628D02*
X49957143Y-88241200D01*
X49242857Y-88069771D02*
X49185714Y-88069771D01*
X49185714Y-88069771D02*
X49128571Y-88098342D01*
X49128571Y-88098342D02*
X49100000Y-88126914D01*
X49100000Y-88126914D02*
X49071428Y-88184057D01*
X49071428Y-88184057D02*
X49042857Y-88298342D01*
X49042857Y-88298342D02*
X49042857Y-88441200D01*
X49042857Y-88441200D02*
X49071428Y-88555485D01*
X49071428Y-88555485D02*
X49100000Y-88612628D01*
X49100000Y-88612628D02*
X49128571Y-88641200D01*
X49128571Y-88641200D02*
X49185714Y-88669771D01*
X49185714Y-88669771D02*
X49242857Y-88669771D01*
X49242857Y-88669771D02*
X49300000Y-88641200D01*
X49300000Y-88641200D02*
X49328571Y-88612628D01*
X49328571Y-88612628D02*
X49357142Y-88555485D01*
X49357142Y-88555485D02*
X49385714Y-88441200D01*
X49385714Y-88441200D02*
X49385714Y-88298342D01*
X49385714Y-88298342D02*
X49357142Y-88184057D01*
X49357142Y-88184057D02*
X49328571Y-88126914D01*
X49328571Y-88126914D02*
X49300000Y-88098342D01*
X49300000Y-88098342D02*
X49242857Y-88069771D01*
X107975714Y-132214771D02*
X108175714Y-131929057D01*
X108318571Y-132214771D02*
X108318571Y-131614771D01*
X108318571Y-131614771D02*
X108090000Y-131614771D01*
X108090000Y-131614771D02*
X108032857Y-131643342D01*
X108032857Y-131643342D02*
X108004286Y-131671914D01*
X108004286Y-131671914D02*
X107975714Y-131729057D01*
X107975714Y-131729057D02*
X107975714Y-131814771D01*
X107975714Y-131814771D02*
X108004286Y-131871914D01*
X108004286Y-131871914D02*
X108032857Y-131900485D01*
X108032857Y-131900485D02*
X108090000Y-131929057D01*
X108090000Y-131929057D02*
X108318571Y-131929057D01*
X107775714Y-131614771D02*
X107375714Y-131614771D01*
X107375714Y-131614771D02*
X107632857Y-132214771D01*
X107204285Y-131614771D02*
X106804285Y-131614771D01*
X106804285Y-131614771D02*
X107061428Y-132214771D01*
X74089999Y-105717628D02*
X74118571Y-105746200D01*
X74118571Y-105746200D02*
X74204285Y-105774771D01*
X74204285Y-105774771D02*
X74261428Y-105774771D01*
X74261428Y-105774771D02*
X74347142Y-105746200D01*
X74347142Y-105746200D02*
X74404285Y-105689057D01*
X74404285Y-105689057D02*
X74432856Y-105631914D01*
X74432856Y-105631914D02*
X74461428Y-105517628D01*
X74461428Y-105517628D02*
X74461428Y-105431914D01*
X74461428Y-105431914D02*
X74432856Y-105317628D01*
X74432856Y-105317628D02*
X74404285Y-105260485D01*
X74404285Y-105260485D02*
X74347142Y-105203342D01*
X74347142Y-105203342D02*
X74261428Y-105174771D01*
X74261428Y-105174771D02*
X74204285Y-105174771D01*
X74204285Y-105174771D02*
X74118571Y-105203342D01*
X74118571Y-105203342D02*
X74089999Y-105231914D01*
X73575714Y-105374771D02*
X73575714Y-105774771D01*
X73718571Y-105146200D02*
X73861428Y-105574771D01*
X73861428Y-105574771D02*
X73489999Y-105574771D01*
X78490714Y-82062628D02*
X78519286Y-82091200D01*
X78519286Y-82091200D02*
X78605000Y-82119771D01*
X78605000Y-82119771D02*
X78662143Y-82119771D01*
X78662143Y-82119771D02*
X78747857Y-82091200D01*
X78747857Y-82091200D02*
X78805000Y-82034057D01*
X78805000Y-82034057D02*
X78833571Y-81976914D01*
X78833571Y-81976914D02*
X78862143Y-81862628D01*
X78862143Y-81862628D02*
X78862143Y-81776914D01*
X78862143Y-81776914D02*
X78833571Y-81662628D01*
X78833571Y-81662628D02*
X78805000Y-81605485D01*
X78805000Y-81605485D02*
X78747857Y-81548342D01*
X78747857Y-81548342D02*
X78662143Y-81519771D01*
X78662143Y-81519771D02*
X78605000Y-81519771D01*
X78605000Y-81519771D02*
X78519286Y-81548342D01*
X78519286Y-81548342D02*
X78490714Y-81576914D01*
X77976429Y-81719771D02*
X77976429Y-82119771D01*
X78119286Y-81491200D02*
X78262143Y-81919771D01*
X78262143Y-81919771D02*
X77890714Y-81919771D01*
X77405000Y-81519771D02*
X77519285Y-81519771D01*
X77519285Y-81519771D02*
X77576428Y-81548342D01*
X77576428Y-81548342D02*
X77605000Y-81576914D01*
X77605000Y-81576914D02*
X77662142Y-81662628D01*
X77662142Y-81662628D02*
X77690714Y-81776914D01*
X77690714Y-81776914D02*
X77690714Y-82005485D01*
X77690714Y-82005485D02*
X77662142Y-82062628D01*
X77662142Y-82062628D02*
X77633571Y-82091200D01*
X77633571Y-82091200D02*
X77576428Y-82119771D01*
X77576428Y-82119771D02*
X77462142Y-82119771D01*
X77462142Y-82119771D02*
X77405000Y-82091200D01*
X77405000Y-82091200D02*
X77376428Y-82062628D01*
X77376428Y-82062628D02*
X77347857Y-82005485D01*
X77347857Y-82005485D02*
X77347857Y-81862628D01*
X77347857Y-81862628D02*
X77376428Y-81805485D01*
X77376428Y-81805485D02*
X77405000Y-81776914D01*
X77405000Y-81776914D02*
X77462142Y-81748342D01*
X77462142Y-81748342D02*
X77576428Y-81748342D01*
X77576428Y-81748342D02*
X77633571Y-81776914D01*
X77633571Y-81776914D02*
X77662142Y-81805485D01*
X77662142Y-81805485D02*
X77690714Y-81862628D01*
X51215714Y-78447628D02*
X51244286Y-78476200D01*
X51244286Y-78476200D02*
X51330000Y-78504771D01*
X51330000Y-78504771D02*
X51387143Y-78504771D01*
X51387143Y-78504771D02*
X51472857Y-78476200D01*
X51472857Y-78476200D02*
X51530000Y-78419057D01*
X51530000Y-78419057D02*
X51558571Y-78361914D01*
X51558571Y-78361914D02*
X51587143Y-78247628D01*
X51587143Y-78247628D02*
X51587143Y-78161914D01*
X51587143Y-78161914D02*
X51558571Y-78047628D01*
X51558571Y-78047628D02*
X51530000Y-77990485D01*
X51530000Y-77990485D02*
X51472857Y-77933342D01*
X51472857Y-77933342D02*
X51387143Y-77904771D01*
X51387143Y-77904771D02*
X51330000Y-77904771D01*
X51330000Y-77904771D02*
X51244286Y-77933342D01*
X51244286Y-77933342D02*
X51215714Y-77961914D01*
X50987143Y-77961914D02*
X50958571Y-77933342D01*
X50958571Y-77933342D02*
X50901429Y-77904771D01*
X50901429Y-77904771D02*
X50758571Y-77904771D01*
X50758571Y-77904771D02*
X50701429Y-77933342D01*
X50701429Y-77933342D02*
X50672857Y-77961914D01*
X50672857Y-77961914D02*
X50644286Y-78019057D01*
X50644286Y-78019057D02*
X50644286Y-78076200D01*
X50644286Y-78076200D02*
X50672857Y-78161914D01*
X50672857Y-78161914D02*
X51015714Y-78504771D01*
X51015714Y-78504771D02*
X50644286Y-78504771D01*
X50101428Y-77904771D02*
X50387142Y-77904771D01*
X50387142Y-77904771D02*
X50415714Y-78190485D01*
X50415714Y-78190485D02*
X50387142Y-78161914D01*
X50387142Y-78161914D02*
X50330000Y-78133342D01*
X50330000Y-78133342D02*
X50187142Y-78133342D01*
X50187142Y-78133342D02*
X50130000Y-78161914D01*
X50130000Y-78161914D02*
X50101428Y-78190485D01*
X50101428Y-78190485D02*
X50072857Y-78247628D01*
X50072857Y-78247628D02*
X50072857Y-78390485D01*
X50072857Y-78390485D02*
X50101428Y-78447628D01*
X50101428Y-78447628D02*
X50130000Y-78476200D01*
X50130000Y-78476200D02*
X50187142Y-78504771D01*
X50187142Y-78504771D02*
X50330000Y-78504771D01*
X50330000Y-78504771D02*
X50387142Y-78476200D01*
X50387142Y-78476200D02*
X50415714Y-78447628D01*
X93485714Y-107064771D02*
X93685714Y-106779057D01*
X93828571Y-107064771D02*
X93828571Y-106464771D01*
X93828571Y-106464771D02*
X93600000Y-106464771D01*
X93600000Y-106464771D02*
X93542857Y-106493342D01*
X93542857Y-106493342D02*
X93514286Y-106521914D01*
X93514286Y-106521914D02*
X93485714Y-106579057D01*
X93485714Y-106579057D02*
X93485714Y-106664771D01*
X93485714Y-106664771D02*
X93514286Y-106721914D01*
X93514286Y-106721914D02*
X93542857Y-106750485D01*
X93542857Y-106750485D02*
X93600000Y-106779057D01*
X93600000Y-106779057D02*
X93828571Y-106779057D01*
X93200000Y-107064771D02*
X93085714Y-107064771D01*
X93085714Y-107064771D02*
X93028571Y-107036200D01*
X93028571Y-107036200D02*
X93000000Y-107007628D01*
X93000000Y-107007628D02*
X92942857Y-106921914D01*
X92942857Y-106921914D02*
X92914286Y-106807628D01*
X92914286Y-106807628D02*
X92914286Y-106579057D01*
X92914286Y-106579057D02*
X92942857Y-106521914D01*
X92942857Y-106521914D02*
X92971429Y-106493342D01*
X92971429Y-106493342D02*
X93028571Y-106464771D01*
X93028571Y-106464771D02*
X93142857Y-106464771D01*
X93142857Y-106464771D02*
X93200000Y-106493342D01*
X93200000Y-106493342D02*
X93228571Y-106521914D01*
X93228571Y-106521914D02*
X93257143Y-106579057D01*
X93257143Y-106579057D02*
X93257143Y-106721914D01*
X93257143Y-106721914D02*
X93228571Y-106779057D01*
X93228571Y-106779057D02*
X93200000Y-106807628D01*
X93200000Y-106807628D02*
X93142857Y-106836200D01*
X93142857Y-106836200D02*
X93028571Y-106836200D01*
X93028571Y-106836200D02*
X92971429Y-106807628D01*
X92971429Y-106807628D02*
X92942857Y-106779057D01*
X92942857Y-106779057D02*
X92914286Y-106721914D01*
X92400000Y-106664771D02*
X92400000Y-107064771D01*
X92542857Y-106436200D02*
X92685714Y-106864771D01*
X92685714Y-106864771D02*
X92314285Y-106864771D01*
X69310714Y-93362628D02*
X69339286Y-93391200D01*
X69339286Y-93391200D02*
X69425000Y-93419771D01*
X69425000Y-93419771D02*
X69482143Y-93419771D01*
X69482143Y-93419771D02*
X69567857Y-93391200D01*
X69567857Y-93391200D02*
X69625000Y-93334057D01*
X69625000Y-93334057D02*
X69653571Y-93276914D01*
X69653571Y-93276914D02*
X69682143Y-93162628D01*
X69682143Y-93162628D02*
X69682143Y-93076914D01*
X69682143Y-93076914D02*
X69653571Y-92962628D01*
X69653571Y-92962628D02*
X69625000Y-92905485D01*
X69625000Y-92905485D02*
X69567857Y-92848342D01*
X69567857Y-92848342D02*
X69482143Y-92819771D01*
X69482143Y-92819771D02*
X69425000Y-92819771D01*
X69425000Y-92819771D02*
X69339286Y-92848342D01*
X69339286Y-92848342D02*
X69310714Y-92876914D01*
X69110714Y-92819771D02*
X68739286Y-92819771D01*
X68739286Y-92819771D02*
X68939286Y-93048342D01*
X68939286Y-93048342D02*
X68853571Y-93048342D01*
X68853571Y-93048342D02*
X68796429Y-93076914D01*
X68796429Y-93076914D02*
X68767857Y-93105485D01*
X68767857Y-93105485D02*
X68739286Y-93162628D01*
X68739286Y-93162628D02*
X68739286Y-93305485D01*
X68739286Y-93305485D02*
X68767857Y-93362628D01*
X68767857Y-93362628D02*
X68796429Y-93391200D01*
X68796429Y-93391200D02*
X68853571Y-93419771D01*
X68853571Y-93419771D02*
X69025000Y-93419771D01*
X69025000Y-93419771D02*
X69082143Y-93391200D01*
X69082143Y-93391200D02*
X69110714Y-93362628D01*
X68196428Y-92819771D02*
X68482142Y-92819771D01*
X68482142Y-92819771D02*
X68510714Y-93105485D01*
X68510714Y-93105485D02*
X68482142Y-93076914D01*
X68482142Y-93076914D02*
X68425000Y-93048342D01*
X68425000Y-93048342D02*
X68282142Y-93048342D01*
X68282142Y-93048342D02*
X68225000Y-93076914D01*
X68225000Y-93076914D02*
X68196428Y-93105485D01*
X68196428Y-93105485D02*
X68167857Y-93162628D01*
X68167857Y-93162628D02*
X68167857Y-93305485D01*
X68167857Y-93305485D02*
X68196428Y-93362628D01*
X68196428Y-93362628D02*
X68225000Y-93391200D01*
X68225000Y-93391200D02*
X68282142Y-93419771D01*
X68282142Y-93419771D02*
X68425000Y-93419771D01*
X68425000Y-93419771D02*
X68482142Y-93391200D01*
X68482142Y-93391200D02*
X68510714Y-93362628D01*
X51215714Y-85472628D02*
X51244286Y-85501200D01*
X51244286Y-85501200D02*
X51330000Y-85529771D01*
X51330000Y-85529771D02*
X51387143Y-85529771D01*
X51387143Y-85529771D02*
X51472857Y-85501200D01*
X51472857Y-85501200D02*
X51530000Y-85444057D01*
X51530000Y-85444057D02*
X51558571Y-85386914D01*
X51558571Y-85386914D02*
X51587143Y-85272628D01*
X51587143Y-85272628D02*
X51587143Y-85186914D01*
X51587143Y-85186914D02*
X51558571Y-85072628D01*
X51558571Y-85072628D02*
X51530000Y-85015485D01*
X51530000Y-85015485D02*
X51472857Y-84958342D01*
X51472857Y-84958342D02*
X51387143Y-84929771D01*
X51387143Y-84929771D02*
X51330000Y-84929771D01*
X51330000Y-84929771D02*
X51244286Y-84958342D01*
X51244286Y-84958342D02*
X51215714Y-84986914D01*
X50987143Y-84986914D02*
X50958571Y-84958342D01*
X50958571Y-84958342D02*
X50901429Y-84929771D01*
X50901429Y-84929771D02*
X50758571Y-84929771D01*
X50758571Y-84929771D02*
X50701429Y-84958342D01*
X50701429Y-84958342D02*
X50672857Y-84986914D01*
X50672857Y-84986914D02*
X50644286Y-85044057D01*
X50644286Y-85044057D02*
X50644286Y-85101200D01*
X50644286Y-85101200D02*
X50672857Y-85186914D01*
X50672857Y-85186914D02*
X51015714Y-85529771D01*
X51015714Y-85529771D02*
X50644286Y-85529771D01*
X50130000Y-84929771D02*
X50244285Y-84929771D01*
X50244285Y-84929771D02*
X50301428Y-84958342D01*
X50301428Y-84958342D02*
X50330000Y-84986914D01*
X50330000Y-84986914D02*
X50387142Y-85072628D01*
X50387142Y-85072628D02*
X50415714Y-85186914D01*
X50415714Y-85186914D02*
X50415714Y-85415485D01*
X50415714Y-85415485D02*
X50387142Y-85472628D01*
X50387142Y-85472628D02*
X50358571Y-85501200D01*
X50358571Y-85501200D02*
X50301428Y-85529771D01*
X50301428Y-85529771D02*
X50187142Y-85529771D01*
X50187142Y-85529771D02*
X50130000Y-85501200D01*
X50130000Y-85501200D02*
X50101428Y-85472628D01*
X50101428Y-85472628D02*
X50072857Y-85415485D01*
X50072857Y-85415485D02*
X50072857Y-85272628D01*
X50072857Y-85272628D02*
X50101428Y-85215485D01*
X50101428Y-85215485D02*
X50130000Y-85186914D01*
X50130000Y-85186914D02*
X50187142Y-85158342D01*
X50187142Y-85158342D02*
X50301428Y-85158342D01*
X50301428Y-85158342D02*
X50358571Y-85186914D01*
X50358571Y-85186914D02*
X50387142Y-85215485D01*
X50387142Y-85215485D02*
X50415714Y-85272628D01*
X79629999Y-122489771D02*
X79829999Y-122204057D01*
X79972856Y-122489771D02*
X79972856Y-121889771D01*
X79972856Y-121889771D02*
X79744285Y-121889771D01*
X79744285Y-121889771D02*
X79687142Y-121918342D01*
X79687142Y-121918342D02*
X79658571Y-121946914D01*
X79658571Y-121946914D02*
X79629999Y-122004057D01*
X79629999Y-122004057D02*
X79629999Y-122089771D01*
X79629999Y-122089771D02*
X79658571Y-122146914D01*
X79658571Y-122146914D02*
X79687142Y-122175485D01*
X79687142Y-122175485D02*
X79744285Y-122204057D01*
X79744285Y-122204057D02*
X79972856Y-122204057D01*
X79115714Y-121889771D02*
X79229999Y-121889771D01*
X79229999Y-121889771D02*
X79287142Y-121918342D01*
X79287142Y-121918342D02*
X79315714Y-121946914D01*
X79315714Y-121946914D02*
X79372856Y-122032628D01*
X79372856Y-122032628D02*
X79401428Y-122146914D01*
X79401428Y-122146914D02*
X79401428Y-122375485D01*
X79401428Y-122375485D02*
X79372856Y-122432628D01*
X79372856Y-122432628D02*
X79344285Y-122461200D01*
X79344285Y-122461200D02*
X79287142Y-122489771D01*
X79287142Y-122489771D02*
X79172856Y-122489771D01*
X79172856Y-122489771D02*
X79115714Y-122461200D01*
X79115714Y-122461200D02*
X79087142Y-122432628D01*
X79087142Y-122432628D02*
X79058571Y-122375485D01*
X79058571Y-122375485D02*
X79058571Y-122232628D01*
X79058571Y-122232628D02*
X79087142Y-122175485D01*
X79087142Y-122175485D02*
X79115714Y-122146914D01*
X79115714Y-122146914D02*
X79172856Y-122118342D01*
X79172856Y-122118342D02*
X79287142Y-122118342D01*
X79287142Y-122118342D02*
X79344285Y-122146914D01*
X79344285Y-122146914D02*
X79372856Y-122175485D01*
X79372856Y-122175485D02*
X79401428Y-122232628D01*
X67595714Y-72137628D02*
X67624286Y-72166200D01*
X67624286Y-72166200D02*
X67710000Y-72194771D01*
X67710000Y-72194771D02*
X67767143Y-72194771D01*
X67767143Y-72194771D02*
X67852857Y-72166200D01*
X67852857Y-72166200D02*
X67910000Y-72109057D01*
X67910000Y-72109057D02*
X67938571Y-72051914D01*
X67938571Y-72051914D02*
X67967143Y-71937628D01*
X67967143Y-71937628D02*
X67967143Y-71851914D01*
X67967143Y-71851914D02*
X67938571Y-71737628D01*
X67938571Y-71737628D02*
X67910000Y-71680485D01*
X67910000Y-71680485D02*
X67852857Y-71623342D01*
X67852857Y-71623342D02*
X67767143Y-71594771D01*
X67767143Y-71594771D02*
X67710000Y-71594771D01*
X67710000Y-71594771D02*
X67624286Y-71623342D01*
X67624286Y-71623342D02*
X67595714Y-71651914D01*
X67081429Y-71794771D02*
X67081429Y-72194771D01*
X67224286Y-71566200D02*
X67367143Y-71994771D01*
X67367143Y-71994771D02*
X66995714Y-71994771D01*
X66824285Y-71594771D02*
X66452857Y-71594771D01*
X66452857Y-71594771D02*
X66652857Y-71823342D01*
X66652857Y-71823342D02*
X66567142Y-71823342D01*
X66567142Y-71823342D02*
X66510000Y-71851914D01*
X66510000Y-71851914D02*
X66481428Y-71880485D01*
X66481428Y-71880485D02*
X66452857Y-71937628D01*
X66452857Y-71937628D02*
X66452857Y-72080485D01*
X66452857Y-72080485D02*
X66481428Y-72137628D01*
X66481428Y-72137628D02*
X66510000Y-72166200D01*
X66510000Y-72166200D02*
X66567142Y-72194771D01*
X66567142Y-72194771D02*
X66738571Y-72194771D01*
X66738571Y-72194771D02*
X66795714Y-72166200D01*
X66795714Y-72166200D02*
X66824285Y-72137628D01*
X81460714Y-112512628D02*
X81489286Y-112541200D01*
X81489286Y-112541200D02*
X81575000Y-112569771D01*
X81575000Y-112569771D02*
X81632143Y-112569771D01*
X81632143Y-112569771D02*
X81717857Y-112541200D01*
X81717857Y-112541200D02*
X81775000Y-112484057D01*
X81775000Y-112484057D02*
X81803571Y-112426914D01*
X81803571Y-112426914D02*
X81832143Y-112312628D01*
X81832143Y-112312628D02*
X81832143Y-112226914D01*
X81832143Y-112226914D02*
X81803571Y-112112628D01*
X81803571Y-112112628D02*
X81775000Y-112055485D01*
X81775000Y-112055485D02*
X81717857Y-111998342D01*
X81717857Y-111998342D02*
X81632143Y-111969771D01*
X81632143Y-111969771D02*
X81575000Y-111969771D01*
X81575000Y-111969771D02*
X81489286Y-111998342D01*
X81489286Y-111998342D02*
X81460714Y-112026914D01*
X80889286Y-112569771D02*
X81232143Y-112569771D01*
X81060714Y-112569771D02*
X81060714Y-111969771D01*
X81060714Y-111969771D02*
X81117857Y-112055485D01*
X81117857Y-112055485D02*
X81175000Y-112112628D01*
X81175000Y-112112628D02*
X81232143Y-112141200D01*
X80375000Y-112169771D02*
X80375000Y-112569771D01*
X80517857Y-111941200D02*
X80660714Y-112369771D01*
X80660714Y-112369771D02*
X80289285Y-112369771D01*
X95835714Y-110012628D02*
X95864286Y-110041200D01*
X95864286Y-110041200D02*
X95950000Y-110069771D01*
X95950000Y-110069771D02*
X96007143Y-110069771D01*
X96007143Y-110069771D02*
X96092857Y-110041200D01*
X96092857Y-110041200D02*
X96150000Y-109984057D01*
X96150000Y-109984057D02*
X96178571Y-109926914D01*
X96178571Y-109926914D02*
X96207143Y-109812628D01*
X96207143Y-109812628D02*
X96207143Y-109726914D01*
X96207143Y-109726914D02*
X96178571Y-109612628D01*
X96178571Y-109612628D02*
X96150000Y-109555485D01*
X96150000Y-109555485D02*
X96092857Y-109498342D01*
X96092857Y-109498342D02*
X96007143Y-109469771D01*
X96007143Y-109469771D02*
X95950000Y-109469771D01*
X95950000Y-109469771D02*
X95864286Y-109498342D01*
X95864286Y-109498342D02*
X95835714Y-109526914D01*
X95635714Y-109469771D02*
X95235714Y-109469771D01*
X95235714Y-109469771D02*
X95492857Y-110069771D01*
X94921428Y-109726914D02*
X94978571Y-109698342D01*
X94978571Y-109698342D02*
X95007142Y-109669771D01*
X95007142Y-109669771D02*
X95035714Y-109612628D01*
X95035714Y-109612628D02*
X95035714Y-109584057D01*
X95035714Y-109584057D02*
X95007142Y-109526914D01*
X95007142Y-109526914D02*
X94978571Y-109498342D01*
X94978571Y-109498342D02*
X94921428Y-109469771D01*
X94921428Y-109469771D02*
X94807142Y-109469771D01*
X94807142Y-109469771D02*
X94750000Y-109498342D01*
X94750000Y-109498342D02*
X94721428Y-109526914D01*
X94721428Y-109526914D02*
X94692857Y-109584057D01*
X94692857Y-109584057D02*
X94692857Y-109612628D01*
X94692857Y-109612628D02*
X94721428Y-109669771D01*
X94721428Y-109669771D02*
X94750000Y-109698342D01*
X94750000Y-109698342D02*
X94807142Y-109726914D01*
X94807142Y-109726914D02*
X94921428Y-109726914D01*
X94921428Y-109726914D02*
X94978571Y-109755485D01*
X94978571Y-109755485D02*
X95007142Y-109784057D01*
X95007142Y-109784057D02*
X95035714Y-109841200D01*
X95035714Y-109841200D02*
X95035714Y-109955485D01*
X95035714Y-109955485D02*
X95007142Y-110012628D01*
X95007142Y-110012628D02*
X94978571Y-110041200D01*
X94978571Y-110041200D02*
X94921428Y-110069771D01*
X94921428Y-110069771D02*
X94807142Y-110069771D01*
X94807142Y-110069771D02*
X94750000Y-110041200D01*
X94750000Y-110041200D02*
X94721428Y-110012628D01*
X94721428Y-110012628D02*
X94692857Y-109955485D01*
X94692857Y-109955485D02*
X94692857Y-109841200D01*
X94692857Y-109841200D02*
X94721428Y-109784057D01*
X94721428Y-109784057D02*
X94750000Y-109755485D01*
X94750000Y-109755485D02*
X94807142Y-109726914D01*
X95835714Y-108269771D02*
X96035714Y-107984057D01*
X96178571Y-108269771D02*
X96178571Y-107669771D01*
X96178571Y-107669771D02*
X95950000Y-107669771D01*
X95950000Y-107669771D02*
X95892857Y-107698342D01*
X95892857Y-107698342D02*
X95864286Y-107726914D01*
X95864286Y-107726914D02*
X95835714Y-107784057D01*
X95835714Y-107784057D02*
X95835714Y-107869771D01*
X95835714Y-107869771D02*
X95864286Y-107926914D01*
X95864286Y-107926914D02*
X95892857Y-107955485D01*
X95892857Y-107955485D02*
X95950000Y-107984057D01*
X95950000Y-107984057D02*
X96178571Y-107984057D01*
X95550000Y-108269771D02*
X95435714Y-108269771D01*
X95435714Y-108269771D02*
X95378571Y-108241200D01*
X95378571Y-108241200D02*
X95350000Y-108212628D01*
X95350000Y-108212628D02*
X95292857Y-108126914D01*
X95292857Y-108126914D02*
X95264286Y-108012628D01*
X95264286Y-108012628D02*
X95264286Y-107784057D01*
X95264286Y-107784057D02*
X95292857Y-107726914D01*
X95292857Y-107726914D02*
X95321429Y-107698342D01*
X95321429Y-107698342D02*
X95378571Y-107669771D01*
X95378571Y-107669771D02*
X95492857Y-107669771D01*
X95492857Y-107669771D02*
X95550000Y-107698342D01*
X95550000Y-107698342D02*
X95578571Y-107726914D01*
X95578571Y-107726914D02*
X95607143Y-107784057D01*
X95607143Y-107784057D02*
X95607143Y-107926914D01*
X95607143Y-107926914D02*
X95578571Y-107984057D01*
X95578571Y-107984057D02*
X95550000Y-108012628D01*
X95550000Y-108012628D02*
X95492857Y-108041200D01*
X95492857Y-108041200D02*
X95378571Y-108041200D01*
X95378571Y-108041200D02*
X95321429Y-108012628D01*
X95321429Y-108012628D02*
X95292857Y-107984057D01*
X95292857Y-107984057D02*
X95264286Y-107926914D01*
X95064285Y-107669771D02*
X94664285Y-107669771D01*
X94664285Y-107669771D02*
X94921428Y-108269771D01*
X63675714Y-85472628D02*
X63704286Y-85501200D01*
X63704286Y-85501200D02*
X63790000Y-85529771D01*
X63790000Y-85529771D02*
X63847143Y-85529771D01*
X63847143Y-85529771D02*
X63932857Y-85501200D01*
X63932857Y-85501200D02*
X63990000Y-85444057D01*
X63990000Y-85444057D02*
X64018571Y-85386914D01*
X64018571Y-85386914D02*
X64047143Y-85272628D01*
X64047143Y-85272628D02*
X64047143Y-85186914D01*
X64047143Y-85186914D02*
X64018571Y-85072628D01*
X64018571Y-85072628D02*
X63990000Y-85015485D01*
X63990000Y-85015485D02*
X63932857Y-84958342D01*
X63932857Y-84958342D02*
X63847143Y-84929771D01*
X63847143Y-84929771D02*
X63790000Y-84929771D01*
X63790000Y-84929771D02*
X63704286Y-84958342D01*
X63704286Y-84958342D02*
X63675714Y-84986914D01*
X63447143Y-84986914D02*
X63418571Y-84958342D01*
X63418571Y-84958342D02*
X63361429Y-84929771D01*
X63361429Y-84929771D02*
X63218571Y-84929771D01*
X63218571Y-84929771D02*
X63161429Y-84958342D01*
X63161429Y-84958342D02*
X63132857Y-84986914D01*
X63132857Y-84986914D02*
X63104286Y-85044057D01*
X63104286Y-85044057D02*
X63104286Y-85101200D01*
X63104286Y-85101200D02*
X63132857Y-85186914D01*
X63132857Y-85186914D02*
X63475714Y-85529771D01*
X63475714Y-85529771D02*
X63104286Y-85529771D01*
X62904285Y-84929771D02*
X62504285Y-84929771D01*
X62504285Y-84929771D02*
X62761428Y-85529771D01*
X93485714Y-105289771D02*
X93685714Y-105004057D01*
X93828571Y-105289771D02*
X93828571Y-104689771D01*
X93828571Y-104689771D02*
X93600000Y-104689771D01*
X93600000Y-104689771D02*
X93542857Y-104718342D01*
X93542857Y-104718342D02*
X93514286Y-104746914D01*
X93514286Y-104746914D02*
X93485714Y-104804057D01*
X93485714Y-104804057D02*
X93485714Y-104889771D01*
X93485714Y-104889771D02*
X93514286Y-104946914D01*
X93514286Y-104946914D02*
X93542857Y-104975485D01*
X93542857Y-104975485D02*
X93600000Y-105004057D01*
X93600000Y-105004057D02*
X93828571Y-105004057D01*
X93200000Y-105289771D02*
X93085714Y-105289771D01*
X93085714Y-105289771D02*
X93028571Y-105261200D01*
X93028571Y-105261200D02*
X93000000Y-105232628D01*
X93000000Y-105232628D02*
X92942857Y-105146914D01*
X92942857Y-105146914D02*
X92914286Y-105032628D01*
X92914286Y-105032628D02*
X92914286Y-104804057D01*
X92914286Y-104804057D02*
X92942857Y-104746914D01*
X92942857Y-104746914D02*
X92971429Y-104718342D01*
X92971429Y-104718342D02*
X93028571Y-104689771D01*
X93028571Y-104689771D02*
X93142857Y-104689771D01*
X93142857Y-104689771D02*
X93200000Y-104718342D01*
X93200000Y-104718342D02*
X93228571Y-104746914D01*
X93228571Y-104746914D02*
X93257143Y-104804057D01*
X93257143Y-104804057D02*
X93257143Y-104946914D01*
X93257143Y-104946914D02*
X93228571Y-105004057D01*
X93228571Y-105004057D02*
X93200000Y-105032628D01*
X93200000Y-105032628D02*
X93142857Y-105061200D01*
X93142857Y-105061200D02*
X93028571Y-105061200D01*
X93028571Y-105061200D02*
X92971429Y-105032628D01*
X92971429Y-105032628D02*
X92942857Y-105004057D01*
X92942857Y-105004057D02*
X92914286Y-104946914D01*
X92714285Y-104689771D02*
X92342857Y-104689771D01*
X92342857Y-104689771D02*
X92542857Y-104918342D01*
X92542857Y-104918342D02*
X92457142Y-104918342D01*
X92457142Y-104918342D02*
X92400000Y-104946914D01*
X92400000Y-104946914D02*
X92371428Y-104975485D01*
X92371428Y-104975485D02*
X92342857Y-105032628D01*
X92342857Y-105032628D02*
X92342857Y-105175485D01*
X92342857Y-105175485D02*
X92371428Y-105232628D01*
X92371428Y-105232628D02*
X92400000Y-105261200D01*
X92400000Y-105261200D02*
X92457142Y-105289771D01*
X92457142Y-105289771D02*
X92628571Y-105289771D01*
X92628571Y-105289771D02*
X92685714Y-105261200D01*
X92685714Y-105261200D02*
X92714285Y-105232628D01*
X69310714Y-96819771D02*
X69510714Y-96534057D01*
X69653571Y-96819771D02*
X69653571Y-96219771D01*
X69653571Y-96219771D02*
X69425000Y-96219771D01*
X69425000Y-96219771D02*
X69367857Y-96248342D01*
X69367857Y-96248342D02*
X69339286Y-96276914D01*
X69339286Y-96276914D02*
X69310714Y-96334057D01*
X69310714Y-96334057D02*
X69310714Y-96419771D01*
X69310714Y-96419771D02*
X69339286Y-96476914D01*
X69339286Y-96476914D02*
X69367857Y-96505485D01*
X69367857Y-96505485D02*
X69425000Y-96534057D01*
X69425000Y-96534057D02*
X69653571Y-96534057D01*
X69082143Y-96276914D02*
X69053571Y-96248342D01*
X69053571Y-96248342D02*
X68996429Y-96219771D01*
X68996429Y-96219771D02*
X68853571Y-96219771D01*
X68853571Y-96219771D02*
X68796429Y-96248342D01*
X68796429Y-96248342D02*
X68767857Y-96276914D01*
X68767857Y-96276914D02*
X68739286Y-96334057D01*
X68739286Y-96334057D02*
X68739286Y-96391200D01*
X68739286Y-96391200D02*
X68767857Y-96476914D01*
X68767857Y-96476914D02*
X69110714Y-96819771D01*
X69110714Y-96819771D02*
X68739286Y-96819771D01*
X68367857Y-96219771D02*
X68310714Y-96219771D01*
X68310714Y-96219771D02*
X68253571Y-96248342D01*
X68253571Y-96248342D02*
X68225000Y-96276914D01*
X68225000Y-96276914D02*
X68196428Y-96334057D01*
X68196428Y-96334057D02*
X68167857Y-96448342D01*
X68167857Y-96448342D02*
X68167857Y-96591200D01*
X68167857Y-96591200D02*
X68196428Y-96705485D01*
X68196428Y-96705485D02*
X68225000Y-96762628D01*
X68225000Y-96762628D02*
X68253571Y-96791200D01*
X68253571Y-96791200D02*
X68310714Y-96819771D01*
X68310714Y-96819771D02*
X68367857Y-96819771D01*
X68367857Y-96819771D02*
X68425000Y-96791200D01*
X68425000Y-96791200D02*
X68453571Y-96762628D01*
X68453571Y-96762628D02*
X68482142Y-96705485D01*
X68482142Y-96705485D02*
X68510714Y-96591200D01*
X68510714Y-96591200D02*
X68510714Y-96448342D01*
X68510714Y-96448342D02*
X68482142Y-96334057D01*
X68482142Y-96334057D02*
X68453571Y-96276914D01*
X68453571Y-96276914D02*
X68425000Y-96248342D01*
X68425000Y-96248342D02*
X68367857Y-96219771D01*
X78637143Y-115369771D02*
X78294286Y-115369771D01*
X78465714Y-115969771D02*
X78465714Y-115369771D01*
X78094285Y-115969771D02*
X78094285Y-115369771D01*
X78094285Y-115369771D02*
X77865714Y-115369771D01*
X77865714Y-115369771D02*
X77808571Y-115398342D01*
X77808571Y-115398342D02*
X77780000Y-115426914D01*
X77780000Y-115426914D02*
X77751428Y-115484057D01*
X77751428Y-115484057D02*
X77751428Y-115569771D01*
X77751428Y-115569771D02*
X77780000Y-115626914D01*
X77780000Y-115626914D02*
X77808571Y-115655485D01*
X77808571Y-115655485D02*
X77865714Y-115684057D01*
X77865714Y-115684057D02*
X78094285Y-115684057D01*
X77522857Y-115426914D02*
X77494285Y-115398342D01*
X77494285Y-115398342D02*
X77437143Y-115369771D01*
X77437143Y-115369771D02*
X77294285Y-115369771D01*
X77294285Y-115369771D02*
X77237143Y-115398342D01*
X77237143Y-115398342D02*
X77208571Y-115426914D01*
X77208571Y-115426914D02*
X77180000Y-115484057D01*
X77180000Y-115484057D02*
X77180000Y-115541200D01*
X77180000Y-115541200D02*
X77208571Y-115626914D01*
X77208571Y-115626914D02*
X77551428Y-115969771D01*
X77551428Y-115969771D02*
X77180000Y-115969771D01*
X59445714Y-128002628D02*
X59474286Y-128031200D01*
X59474286Y-128031200D02*
X59560000Y-128059771D01*
X59560000Y-128059771D02*
X59617143Y-128059771D01*
X59617143Y-128059771D02*
X59702857Y-128031200D01*
X59702857Y-128031200D02*
X59760000Y-127974057D01*
X59760000Y-127974057D02*
X59788571Y-127916914D01*
X59788571Y-127916914D02*
X59817143Y-127802628D01*
X59817143Y-127802628D02*
X59817143Y-127716914D01*
X59817143Y-127716914D02*
X59788571Y-127602628D01*
X59788571Y-127602628D02*
X59760000Y-127545485D01*
X59760000Y-127545485D02*
X59702857Y-127488342D01*
X59702857Y-127488342D02*
X59617143Y-127459771D01*
X59617143Y-127459771D02*
X59560000Y-127459771D01*
X59560000Y-127459771D02*
X59474286Y-127488342D01*
X59474286Y-127488342D02*
X59445714Y-127516914D01*
X59217143Y-127516914D02*
X59188571Y-127488342D01*
X59188571Y-127488342D02*
X59131429Y-127459771D01*
X59131429Y-127459771D02*
X58988571Y-127459771D01*
X58988571Y-127459771D02*
X58931429Y-127488342D01*
X58931429Y-127488342D02*
X58902857Y-127516914D01*
X58902857Y-127516914D02*
X58874286Y-127574057D01*
X58874286Y-127574057D02*
X58874286Y-127631200D01*
X58874286Y-127631200D02*
X58902857Y-127716914D01*
X58902857Y-127716914D02*
X59245714Y-128059771D01*
X59245714Y-128059771D02*
X58874286Y-128059771D01*
X58674285Y-127459771D02*
X58302857Y-127459771D01*
X58302857Y-127459771D02*
X58502857Y-127688342D01*
X58502857Y-127688342D02*
X58417142Y-127688342D01*
X58417142Y-127688342D02*
X58360000Y-127716914D01*
X58360000Y-127716914D02*
X58331428Y-127745485D01*
X58331428Y-127745485D02*
X58302857Y-127802628D01*
X58302857Y-127802628D02*
X58302857Y-127945485D01*
X58302857Y-127945485D02*
X58331428Y-128002628D01*
X58331428Y-128002628D02*
X58360000Y-128031200D01*
X58360000Y-128031200D02*
X58417142Y-128059771D01*
X58417142Y-128059771D02*
X58588571Y-128059771D01*
X58588571Y-128059771D02*
X58645714Y-128031200D01*
X58645714Y-128031200D02*
X58674285Y-128002628D01*
X111428571Y-72069771D02*
X111428571Y-71469771D01*
X111428571Y-71469771D02*
X111285714Y-71469771D01*
X111285714Y-71469771D02*
X111200000Y-71498342D01*
X111200000Y-71498342D02*
X111142857Y-71555485D01*
X111142857Y-71555485D02*
X111114286Y-71612628D01*
X111114286Y-71612628D02*
X111085714Y-71726914D01*
X111085714Y-71726914D02*
X111085714Y-71812628D01*
X111085714Y-71812628D02*
X111114286Y-71926914D01*
X111114286Y-71926914D02*
X111142857Y-71984057D01*
X111142857Y-71984057D02*
X111200000Y-72041200D01*
X111200000Y-72041200D02*
X111285714Y-72069771D01*
X111285714Y-72069771D02*
X111428571Y-72069771D01*
X110514286Y-72069771D02*
X110857143Y-72069771D01*
X110685714Y-72069771D02*
X110685714Y-71469771D01*
X110685714Y-71469771D02*
X110742857Y-71555485D01*
X110742857Y-71555485D02*
X110800000Y-71612628D01*
X110800000Y-71612628D02*
X110857143Y-71641200D01*
X110314285Y-71469771D02*
X109914285Y-71469771D01*
X109914285Y-71469771D02*
X110171428Y-72069771D01*
X59957143Y-97121771D02*
X59614286Y-97121771D01*
X59785714Y-97721771D02*
X59785714Y-97121771D01*
X59414285Y-97721771D02*
X59414285Y-97121771D01*
X59414285Y-97121771D02*
X59185714Y-97121771D01*
X59185714Y-97121771D02*
X59128571Y-97150342D01*
X59128571Y-97150342D02*
X59100000Y-97178914D01*
X59100000Y-97178914D02*
X59071428Y-97236057D01*
X59071428Y-97236057D02*
X59071428Y-97321771D01*
X59071428Y-97321771D02*
X59100000Y-97378914D01*
X59100000Y-97378914D02*
X59128571Y-97407485D01*
X59128571Y-97407485D02*
X59185714Y-97436057D01*
X59185714Y-97436057D02*
X59414285Y-97436057D01*
X58557143Y-97321771D02*
X58557143Y-97721771D01*
X58700000Y-97093200D02*
X58842857Y-97521771D01*
X58842857Y-97521771D02*
X58471428Y-97521771D01*
X107975714Y-134187628D02*
X108004286Y-134216200D01*
X108004286Y-134216200D02*
X108090000Y-134244771D01*
X108090000Y-134244771D02*
X108147143Y-134244771D01*
X108147143Y-134244771D02*
X108232857Y-134216200D01*
X108232857Y-134216200D02*
X108290000Y-134159057D01*
X108290000Y-134159057D02*
X108318571Y-134101914D01*
X108318571Y-134101914D02*
X108347143Y-133987628D01*
X108347143Y-133987628D02*
X108347143Y-133901914D01*
X108347143Y-133901914D02*
X108318571Y-133787628D01*
X108318571Y-133787628D02*
X108290000Y-133730485D01*
X108290000Y-133730485D02*
X108232857Y-133673342D01*
X108232857Y-133673342D02*
X108147143Y-133644771D01*
X108147143Y-133644771D02*
X108090000Y-133644771D01*
X108090000Y-133644771D02*
X108004286Y-133673342D01*
X108004286Y-133673342D02*
X107975714Y-133701914D01*
X107461429Y-133644771D02*
X107575714Y-133644771D01*
X107575714Y-133644771D02*
X107632857Y-133673342D01*
X107632857Y-133673342D02*
X107661429Y-133701914D01*
X107661429Y-133701914D02*
X107718571Y-133787628D01*
X107718571Y-133787628D02*
X107747143Y-133901914D01*
X107747143Y-133901914D02*
X107747143Y-134130485D01*
X107747143Y-134130485D02*
X107718571Y-134187628D01*
X107718571Y-134187628D02*
X107690000Y-134216200D01*
X107690000Y-134216200D02*
X107632857Y-134244771D01*
X107632857Y-134244771D02*
X107518571Y-134244771D01*
X107518571Y-134244771D02*
X107461429Y-134216200D01*
X107461429Y-134216200D02*
X107432857Y-134187628D01*
X107432857Y-134187628D02*
X107404286Y-134130485D01*
X107404286Y-134130485D02*
X107404286Y-133987628D01*
X107404286Y-133987628D02*
X107432857Y-133930485D01*
X107432857Y-133930485D02*
X107461429Y-133901914D01*
X107461429Y-133901914D02*
X107518571Y-133873342D01*
X107518571Y-133873342D02*
X107632857Y-133873342D01*
X107632857Y-133873342D02*
X107690000Y-133901914D01*
X107690000Y-133901914D02*
X107718571Y-133930485D01*
X107718571Y-133930485D02*
X107747143Y-133987628D01*
X107061428Y-133901914D02*
X107118571Y-133873342D01*
X107118571Y-133873342D02*
X107147142Y-133844771D01*
X107147142Y-133844771D02*
X107175714Y-133787628D01*
X107175714Y-133787628D02*
X107175714Y-133759057D01*
X107175714Y-133759057D02*
X107147142Y-133701914D01*
X107147142Y-133701914D02*
X107118571Y-133673342D01*
X107118571Y-133673342D02*
X107061428Y-133644771D01*
X107061428Y-133644771D02*
X106947142Y-133644771D01*
X106947142Y-133644771D02*
X106890000Y-133673342D01*
X106890000Y-133673342D02*
X106861428Y-133701914D01*
X106861428Y-133701914D02*
X106832857Y-133759057D01*
X106832857Y-133759057D02*
X106832857Y-133787628D01*
X106832857Y-133787628D02*
X106861428Y-133844771D01*
X106861428Y-133844771D02*
X106890000Y-133873342D01*
X106890000Y-133873342D02*
X106947142Y-133901914D01*
X106947142Y-133901914D02*
X107061428Y-133901914D01*
X107061428Y-133901914D02*
X107118571Y-133930485D01*
X107118571Y-133930485D02*
X107147142Y-133959057D01*
X107147142Y-133959057D02*
X107175714Y-134016200D01*
X107175714Y-134016200D02*
X107175714Y-134130485D01*
X107175714Y-134130485D02*
X107147142Y-134187628D01*
X107147142Y-134187628D02*
X107118571Y-134216200D01*
X107118571Y-134216200D02*
X107061428Y-134244771D01*
X107061428Y-134244771D02*
X106947142Y-134244771D01*
X106947142Y-134244771D02*
X106890000Y-134216200D01*
X106890000Y-134216200D02*
X106861428Y-134187628D01*
X106861428Y-134187628D02*
X106832857Y-134130485D01*
X106832857Y-134130485D02*
X106832857Y-134016200D01*
X106832857Y-134016200D02*
X106861428Y-133959057D01*
X106861428Y-133959057D02*
X106890000Y-133930485D01*
X106890000Y-133930485D02*
X106947142Y-133901914D01*
X67467143Y-114701771D02*
X67124286Y-114701771D01*
X67295714Y-115301771D02*
X67295714Y-114701771D01*
X66924285Y-115301771D02*
X66924285Y-114701771D01*
X66924285Y-114701771D02*
X66695714Y-114701771D01*
X66695714Y-114701771D02*
X66638571Y-114730342D01*
X66638571Y-114730342D02*
X66610000Y-114758914D01*
X66610000Y-114758914D02*
X66581428Y-114816057D01*
X66581428Y-114816057D02*
X66581428Y-114901771D01*
X66581428Y-114901771D02*
X66610000Y-114958914D01*
X66610000Y-114958914D02*
X66638571Y-114987485D01*
X66638571Y-114987485D02*
X66695714Y-115016057D01*
X66695714Y-115016057D02*
X66924285Y-115016057D01*
X66010000Y-115301771D02*
X66352857Y-115301771D01*
X66181428Y-115301771D02*
X66181428Y-114701771D01*
X66181428Y-114701771D02*
X66238571Y-114787485D01*
X66238571Y-114787485D02*
X66295714Y-114844628D01*
X66295714Y-114844628D02*
X66352857Y-114873200D01*
X49509999Y-95054771D02*
X49709999Y-94769057D01*
X49852856Y-95054771D02*
X49852856Y-94454771D01*
X49852856Y-94454771D02*
X49624285Y-94454771D01*
X49624285Y-94454771D02*
X49567142Y-94483342D01*
X49567142Y-94483342D02*
X49538571Y-94511914D01*
X49538571Y-94511914D02*
X49509999Y-94569057D01*
X49509999Y-94569057D02*
X49509999Y-94654771D01*
X49509999Y-94654771D02*
X49538571Y-94711914D01*
X49538571Y-94711914D02*
X49567142Y-94740485D01*
X49567142Y-94740485D02*
X49624285Y-94769057D01*
X49624285Y-94769057D02*
X49852856Y-94769057D01*
X49281428Y-94511914D02*
X49252856Y-94483342D01*
X49252856Y-94483342D02*
X49195714Y-94454771D01*
X49195714Y-94454771D02*
X49052856Y-94454771D01*
X49052856Y-94454771D02*
X48995714Y-94483342D01*
X48995714Y-94483342D02*
X48967142Y-94511914D01*
X48967142Y-94511914D02*
X48938571Y-94569057D01*
X48938571Y-94569057D02*
X48938571Y-94626200D01*
X48938571Y-94626200D02*
X48967142Y-94711914D01*
X48967142Y-94711914D02*
X49309999Y-95054771D01*
X49309999Y-95054771D02*
X48938571Y-95054771D01*
X69310714Y-98462628D02*
X69339286Y-98491200D01*
X69339286Y-98491200D02*
X69425000Y-98519771D01*
X69425000Y-98519771D02*
X69482143Y-98519771D01*
X69482143Y-98519771D02*
X69567857Y-98491200D01*
X69567857Y-98491200D02*
X69625000Y-98434057D01*
X69625000Y-98434057D02*
X69653571Y-98376914D01*
X69653571Y-98376914D02*
X69682143Y-98262628D01*
X69682143Y-98262628D02*
X69682143Y-98176914D01*
X69682143Y-98176914D02*
X69653571Y-98062628D01*
X69653571Y-98062628D02*
X69625000Y-98005485D01*
X69625000Y-98005485D02*
X69567857Y-97948342D01*
X69567857Y-97948342D02*
X69482143Y-97919771D01*
X69482143Y-97919771D02*
X69425000Y-97919771D01*
X69425000Y-97919771D02*
X69339286Y-97948342D01*
X69339286Y-97948342D02*
X69310714Y-97976914D01*
X69110714Y-97919771D02*
X68739286Y-97919771D01*
X68739286Y-97919771D02*
X68939286Y-98148342D01*
X68939286Y-98148342D02*
X68853571Y-98148342D01*
X68853571Y-98148342D02*
X68796429Y-98176914D01*
X68796429Y-98176914D02*
X68767857Y-98205485D01*
X68767857Y-98205485D02*
X68739286Y-98262628D01*
X68739286Y-98262628D02*
X68739286Y-98405485D01*
X68739286Y-98405485D02*
X68767857Y-98462628D01*
X68767857Y-98462628D02*
X68796429Y-98491200D01*
X68796429Y-98491200D02*
X68853571Y-98519771D01*
X68853571Y-98519771D02*
X69025000Y-98519771D01*
X69025000Y-98519771D02*
X69082143Y-98491200D01*
X69082143Y-98491200D02*
X69110714Y-98462628D01*
X68539285Y-97919771D02*
X68139285Y-97919771D01*
X68139285Y-97919771D02*
X68396428Y-98519771D01*
X55099999Y-99797628D02*
X55128571Y-99826200D01*
X55128571Y-99826200D02*
X55214285Y-99854771D01*
X55214285Y-99854771D02*
X55271428Y-99854771D01*
X55271428Y-99854771D02*
X55357142Y-99826200D01*
X55357142Y-99826200D02*
X55414285Y-99769057D01*
X55414285Y-99769057D02*
X55442856Y-99711914D01*
X55442856Y-99711914D02*
X55471428Y-99597628D01*
X55471428Y-99597628D02*
X55471428Y-99511914D01*
X55471428Y-99511914D02*
X55442856Y-99397628D01*
X55442856Y-99397628D02*
X55414285Y-99340485D01*
X55414285Y-99340485D02*
X55357142Y-99283342D01*
X55357142Y-99283342D02*
X55271428Y-99254771D01*
X55271428Y-99254771D02*
X55214285Y-99254771D01*
X55214285Y-99254771D02*
X55128571Y-99283342D01*
X55128571Y-99283342D02*
X55099999Y-99311914D01*
X54585714Y-99254771D02*
X54699999Y-99254771D01*
X54699999Y-99254771D02*
X54757142Y-99283342D01*
X54757142Y-99283342D02*
X54785714Y-99311914D01*
X54785714Y-99311914D02*
X54842856Y-99397628D01*
X54842856Y-99397628D02*
X54871428Y-99511914D01*
X54871428Y-99511914D02*
X54871428Y-99740485D01*
X54871428Y-99740485D02*
X54842856Y-99797628D01*
X54842856Y-99797628D02*
X54814285Y-99826200D01*
X54814285Y-99826200D02*
X54757142Y-99854771D01*
X54757142Y-99854771D02*
X54642856Y-99854771D01*
X54642856Y-99854771D02*
X54585714Y-99826200D01*
X54585714Y-99826200D02*
X54557142Y-99797628D01*
X54557142Y-99797628D02*
X54528571Y-99740485D01*
X54528571Y-99740485D02*
X54528571Y-99597628D01*
X54528571Y-99597628D02*
X54557142Y-99540485D01*
X54557142Y-99540485D02*
X54585714Y-99511914D01*
X54585714Y-99511914D02*
X54642856Y-99483342D01*
X54642856Y-99483342D02*
X54757142Y-99483342D01*
X54757142Y-99483342D02*
X54814285Y-99511914D01*
X54814285Y-99511914D02*
X54842856Y-99540485D01*
X54842856Y-99540485D02*
X54871428Y-99597628D01*
X57485714Y-104569771D02*
X57685714Y-104284057D01*
X57828571Y-104569771D02*
X57828571Y-103969771D01*
X57828571Y-103969771D02*
X57600000Y-103969771D01*
X57600000Y-103969771D02*
X57542857Y-103998342D01*
X57542857Y-103998342D02*
X57514286Y-104026914D01*
X57514286Y-104026914D02*
X57485714Y-104084057D01*
X57485714Y-104084057D02*
X57485714Y-104169771D01*
X57485714Y-104169771D02*
X57514286Y-104226914D01*
X57514286Y-104226914D02*
X57542857Y-104255485D01*
X57542857Y-104255485D02*
X57600000Y-104284057D01*
X57600000Y-104284057D02*
X57828571Y-104284057D01*
X56914286Y-104569771D02*
X57257143Y-104569771D01*
X57085714Y-104569771D02*
X57085714Y-103969771D01*
X57085714Y-103969771D02*
X57142857Y-104055485D01*
X57142857Y-104055485D02*
X57200000Y-104112628D01*
X57200000Y-104112628D02*
X57257143Y-104141200D01*
X56342857Y-104569771D02*
X56685714Y-104569771D01*
X56514285Y-104569771D02*
X56514285Y-103969771D01*
X56514285Y-103969771D02*
X56571428Y-104055485D01*
X56571428Y-104055485D02*
X56628571Y-104112628D01*
X56628571Y-104112628D02*
X56685714Y-104141200D01*
X118507143Y-95741771D02*
X118164286Y-95741771D01*
X118335714Y-96341771D02*
X118335714Y-95741771D01*
X117964285Y-96341771D02*
X117964285Y-95741771D01*
X117964285Y-95741771D02*
X117735714Y-95741771D01*
X117735714Y-95741771D02*
X117678571Y-95770342D01*
X117678571Y-95770342D02*
X117650000Y-95798914D01*
X117650000Y-95798914D02*
X117621428Y-95856057D01*
X117621428Y-95856057D02*
X117621428Y-95941771D01*
X117621428Y-95941771D02*
X117650000Y-95998914D01*
X117650000Y-95998914D02*
X117678571Y-96027485D01*
X117678571Y-96027485D02*
X117735714Y-96056057D01*
X117735714Y-96056057D02*
X117964285Y-96056057D01*
X117107143Y-95741771D02*
X117221428Y-95741771D01*
X117221428Y-95741771D02*
X117278571Y-95770342D01*
X117278571Y-95770342D02*
X117307143Y-95798914D01*
X117307143Y-95798914D02*
X117364285Y-95884628D01*
X117364285Y-95884628D02*
X117392857Y-95998914D01*
X117392857Y-95998914D02*
X117392857Y-96227485D01*
X117392857Y-96227485D02*
X117364285Y-96284628D01*
X117364285Y-96284628D02*
X117335714Y-96313200D01*
X117335714Y-96313200D02*
X117278571Y-96341771D01*
X117278571Y-96341771D02*
X117164285Y-96341771D01*
X117164285Y-96341771D02*
X117107143Y-96313200D01*
X117107143Y-96313200D02*
X117078571Y-96284628D01*
X117078571Y-96284628D02*
X117050000Y-96227485D01*
X117050000Y-96227485D02*
X117050000Y-96084628D01*
X117050000Y-96084628D02*
X117078571Y-96027485D01*
X117078571Y-96027485D02*
X117107143Y-95998914D01*
X117107143Y-95998914D02*
X117164285Y-95970342D01*
X117164285Y-95970342D02*
X117278571Y-95970342D01*
X117278571Y-95970342D02*
X117335714Y-95998914D01*
X117335714Y-95998914D02*
X117364285Y-96027485D01*
X117364285Y-96027485D02*
X117392857Y-96084628D01*
X115535714Y-81399771D02*
X115735714Y-81114057D01*
X115878571Y-81399771D02*
X115878571Y-80799771D01*
X115878571Y-80799771D02*
X115650000Y-80799771D01*
X115650000Y-80799771D02*
X115592857Y-80828342D01*
X115592857Y-80828342D02*
X115564286Y-80856914D01*
X115564286Y-80856914D02*
X115535714Y-80914057D01*
X115535714Y-80914057D02*
X115535714Y-80999771D01*
X115535714Y-80999771D02*
X115564286Y-81056914D01*
X115564286Y-81056914D02*
X115592857Y-81085485D01*
X115592857Y-81085485D02*
X115650000Y-81114057D01*
X115650000Y-81114057D02*
X115878571Y-81114057D01*
X115335714Y-80799771D02*
X114964286Y-80799771D01*
X114964286Y-80799771D02*
X115164286Y-81028342D01*
X115164286Y-81028342D02*
X115078571Y-81028342D01*
X115078571Y-81028342D02*
X115021429Y-81056914D01*
X115021429Y-81056914D02*
X114992857Y-81085485D01*
X114992857Y-81085485D02*
X114964286Y-81142628D01*
X114964286Y-81142628D02*
X114964286Y-81285485D01*
X114964286Y-81285485D02*
X114992857Y-81342628D01*
X114992857Y-81342628D02*
X115021429Y-81371200D01*
X115021429Y-81371200D02*
X115078571Y-81399771D01*
X115078571Y-81399771D02*
X115250000Y-81399771D01*
X115250000Y-81399771D02*
X115307143Y-81371200D01*
X115307143Y-81371200D02*
X115335714Y-81342628D01*
X114764285Y-80799771D02*
X114392857Y-80799771D01*
X114392857Y-80799771D02*
X114592857Y-81028342D01*
X114592857Y-81028342D02*
X114507142Y-81028342D01*
X114507142Y-81028342D02*
X114450000Y-81056914D01*
X114450000Y-81056914D02*
X114421428Y-81085485D01*
X114421428Y-81085485D02*
X114392857Y-81142628D01*
X114392857Y-81142628D02*
X114392857Y-81285485D01*
X114392857Y-81285485D02*
X114421428Y-81342628D01*
X114421428Y-81342628D02*
X114450000Y-81371200D01*
X114450000Y-81371200D02*
X114507142Y-81399771D01*
X114507142Y-81399771D02*
X114678571Y-81399771D01*
X114678571Y-81399771D02*
X114735714Y-81371200D01*
X114735714Y-81371200D02*
X114764285Y-81342628D01*
X125035714Y-80644771D02*
X125235714Y-80359057D01*
X125378571Y-80644771D02*
X125378571Y-80044771D01*
X125378571Y-80044771D02*
X125150000Y-80044771D01*
X125150000Y-80044771D02*
X125092857Y-80073342D01*
X125092857Y-80073342D02*
X125064286Y-80101914D01*
X125064286Y-80101914D02*
X125035714Y-80159057D01*
X125035714Y-80159057D02*
X125035714Y-80244771D01*
X125035714Y-80244771D02*
X125064286Y-80301914D01*
X125064286Y-80301914D02*
X125092857Y-80330485D01*
X125092857Y-80330485D02*
X125150000Y-80359057D01*
X125150000Y-80359057D02*
X125378571Y-80359057D01*
X124835714Y-80044771D02*
X124464286Y-80044771D01*
X124464286Y-80044771D02*
X124664286Y-80273342D01*
X124664286Y-80273342D02*
X124578571Y-80273342D01*
X124578571Y-80273342D02*
X124521429Y-80301914D01*
X124521429Y-80301914D02*
X124492857Y-80330485D01*
X124492857Y-80330485D02*
X124464286Y-80387628D01*
X124464286Y-80387628D02*
X124464286Y-80530485D01*
X124464286Y-80530485D02*
X124492857Y-80587628D01*
X124492857Y-80587628D02*
X124521429Y-80616200D01*
X124521429Y-80616200D02*
X124578571Y-80644771D01*
X124578571Y-80644771D02*
X124750000Y-80644771D01*
X124750000Y-80644771D02*
X124807143Y-80616200D01*
X124807143Y-80616200D02*
X124835714Y-80587628D01*
X123892857Y-80644771D02*
X124235714Y-80644771D01*
X124064285Y-80644771D02*
X124064285Y-80044771D01*
X124064285Y-80044771D02*
X124121428Y-80130485D01*
X124121428Y-80130485D02*
X124178571Y-80187628D01*
X124178571Y-80187628D02*
X124235714Y-80216200D01*
X55127856Y-123164771D02*
X55127856Y-122564771D01*
X55127856Y-122564771D02*
X54984999Y-122564771D01*
X54984999Y-122564771D02*
X54899285Y-122593342D01*
X54899285Y-122593342D02*
X54842142Y-122650485D01*
X54842142Y-122650485D02*
X54813571Y-122707628D01*
X54813571Y-122707628D02*
X54784999Y-122821914D01*
X54784999Y-122821914D02*
X54784999Y-122907628D01*
X54784999Y-122907628D02*
X54813571Y-123021914D01*
X54813571Y-123021914D02*
X54842142Y-123079057D01*
X54842142Y-123079057D02*
X54899285Y-123136200D01*
X54899285Y-123136200D02*
X54984999Y-123164771D01*
X54984999Y-123164771D02*
X55127856Y-123164771D01*
X54213571Y-123164771D02*
X54556428Y-123164771D01*
X54384999Y-123164771D02*
X54384999Y-122564771D01*
X54384999Y-122564771D02*
X54442142Y-122650485D01*
X54442142Y-122650485D02*
X54499285Y-122707628D01*
X54499285Y-122707628D02*
X54556428Y-122736200D01*
X69844999Y-105402628D02*
X69873571Y-105431200D01*
X69873571Y-105431200D02*
X69959285Y-105459771D01*
X69959285Y-105459771D02*
X70016428Y-105459771D01*
X70016428Y-105459771D02*
X70102142Y-105431200D01*
X70102142Y-105431200D02*
X70159285Y-105374057D01*
X70159285Y-105374057D02*
X70187856Y-105316914D01*
X70187856Y-105316914D02*
X70216428Y-105202628D01*
X70216428Y-105202628D02*
X70216428Y-105116914D01*
X70216428Y-105116914D02*
X70187856Y-105002628D01*
X70187856Y-105002628D02*
X70159285Y-104945485D01*
X70159285Y-104945485D02*
X70102142Y-104888342D01*
X70102142Y-104888342D02*
X70016428Y-104859771D01*
X70016428Y-104859771D02*
X69959285Y-104859771D01*
X69959285Y-104859771D02*
X69873571Y-104888342D01*
X69873571Y-104888342D02*
X69844999Y-104916914D01*
X69616428Y-104916914D02*
X69587856Y-104888342D01*
X69587856Y-104888342D02*
X69530714Y-104859771D01*
X69530714Y-104859771D02*
X69387856Y-104859771D01*
X69387856Y-104859771D02*
X69330714Y-104888342D01*
X69330714Y-104888342D02*
X69302142Y-104916914D01*
X69302142Y-104916914D02*
X69273571Y-104974057D01*
X69273571Y-104974057D02*
X69273571Y-105031200D01*
X69273571Y-105031200D02*
X69302142Y-105116914D01*
X69302142Y-105116914D02*
X69644999Y-105459771D01*
X69644999Y-105459771D02*
X69273571Y-105459771D01*
X115535714Y-79724771D02*
X115735714Y-79439057D01*
X115878571Y-79724771D02*
X115878571Y-79124771D01*
X115878571Y-79124771D02*
X115650000Y-79124771D01*
X115650000Y-79124771D02*
X115592857Y-79153342D01*
X115592857Y-79153342D02*
X115564286Y-79181914D01*
X115564286Y-79181914D02*
X115535714Y-79239057D01*
X115535714Y-79239057D02*
X115535714Y-79324771D01*
X115535714Y-79324771D02*
X115564286Y-79381914D01*
X115564286Y-79381914D02*
X115592857Y-79410485D01*
X115592857Y-79410485D02*
X115650000Y-79439057D01*
X115650000Y-79439057D02*
X115878571Y-79439057D01*
X115335714Y-79124771D02*
X114964286Y-79124771D01*
X114964286Y-79124771D02*
X115164286Y-79353342D01*
X115164286Y-79353342D02*
X115078571Y-79353342D01*
X115078571Y-79353342D02*
X115021429Y-79381914D01*
X115021429Y-79381914D02*
X114992857Y-79410485D01*
X114992857Y-79410485D02*
X114964286Y-79467628D01*
X114964286Y-79467628D02*
X114964286Y-79610485D01*
X114964286Y-79610485D02*
X114992857Y-79667628D01*
X114992857Y-79667628D02*
X115021429Y-79696200D01*
X115021429Y-79696200D02*
X115078571Y-79724771D01*
X115078571Y-79724771D02*
X115250000Y-79724771D01*
X115250000Y-79724771D02*
X115307143Y-79696200D01*
X115307143Y-79696200D02*
X115335714Y-79667628D01*
X114450000Y-79324771D02*
X114450000Y-79724771D01*
X114592857Y-79096200D02*
X114735714Y-79524771D01*
X114735714Y-79524771D02*
X114364285Y-79524771D01*
X123451428Y-95125485D02*
X123365714Y-95154057D01*
X123365714Y-95154057D02*
X123337143Y-95182628D01*
X123337143Y-95182628D02*
X123308571Y-95239771D01*
X123308571Y-95239771D02*
X123308571Y-95325485D01*
X123308571Y-95325485D02*
X123337143Y-95382628D01*
X123337143Y-95382628D02*
X123365714Y-95411200D01*
X123365714Y-95411200D02*
X123422857Y-95439771D01*
X123422857Y-95439771D02*
X123651428Y-95439771D01*
X123651428Y-95439771D02*
X123651428Y-94839771D01*
X123651428Y-94839771D02*
X123451428Y-94839771D01*
X123451428Y-94839771D02*
X123394286Y-94868342D01*
X123394286Y-94868342D02*
X123365714Y-94896914D01*
X123365714Y-94896914D02*
X123337143Y-94954057D01*
X123337143Y-94954057D02*
X123337143Y-95011200D01*
X123337143Y-95011200D02*
X123365714Y-95068342D01*
X123365714Y-95068342D02*
X123394286Y-95096914D01*
X123394286Y-95096914D02*
X123451428Y-95125485D01*
X123451428Y-95125485D02*
X123651428Y-95125485D01*
X123137143Y-94839771D02*
X122794286Y-94839771D01*
X122965714Y-95439771D02*
X122965714Y-94839771D01*
X122280000Y-95439771D02*
X122622857Y-95439771D01*
X122451428Y-95439771D02*
X122451428Y-94839771D01*
X122451428Y-94839771D02*
X122508571Y-94925485D01*
X122508571Y-94925485D02*
X122565714Y-94982628D01*
X122565714Y-94982628D02*
X122622857Y-95011200D01*
X77897142Y-104574771D02*
X77897142Y-105060485D01*
X77897142Y-105060485D02*
X77868571Y-105117628D01*
X77868571Y-105117628D02*
X77840000Y-105146200D01*
X77840000Y-105146200D02*
X77782857Y-105174771D01*
X77782857Y-105174771D02*
X77668571Y-105174771D01*
X77668571Y-105174771D02*
X77611428Y-105146200D01*
X77611428Y-105146200D02*
X77582857Y-105117628D01*
X77582857Y-105117628D02*
X77554285Y-105060485D01*
X77554285Y-105060485D02*
X77554285Y-104574771D01*
X77297143Y-104631914D02*
X77268571Y-104603342D01*
X77268571Y-104603342D02*
X77211429Y-104574771D01*
X77211429Y-104574771D02*
X77068571Y-104574771D01*
X77068571Y-104574771D02*
X77011429Y-104603342D01*
X77011429Y-104603342D02*
X76982857Y-104631914D01*
X76982857Y-104631914D02*
X76954286Y-104689057D01*
X76954286Y-104689057D02*
X76954286Y-104746200D01*
X76954286Y-104746200D02*
X76982857Y-104831914D01*
X76982857Y-104831914D02*
X77325714Y-105174771D01*
X77325714Y-105174771D02*
X76954286Y-105174771D01*
X81445714Y-105717628D02*
X81474286Y-105746200D01*
X81474286Y-105746200D02*
X81560000Y-105774771D01*
X81560000Y-105774771D02*
X81617143Y-105774771D01*
X81617143Y-105774771D02*
X81702857Y-105746200D01*
X81702857Y-105746200D02*
X81760000Y-105689057D01*
X81760000Y-105689057D02*
X81788571Y-105631914D01*
X81788571Y-105631914D02*
X81817143Y-105517628D01*
X81817143Y-105517628D02*
X81817143Y-105431914D01*
X81817143Y-105431914D02*
X81788571Y-105317628D01*
X81788571Y-105317628D02*
X81760000Y-105260485D01*
X81760000Y-105260485D02*
X81702857Y-105203342D01*
X81702857Y-105203342D02*
X81617143Y-105174771D01*
X81617143Y-105174771D02*
X81560000Y-105174771D01*
X81560000Y-105174771D02*
X81474286Y-105203342D01*
X81474286Y-105203342D02*
X81445714Y-105231914D01*
X80874286Y-105774771D02*
X81217143Y-105774771D01*
X81045714Y-105774771D02*
X81045714Y-105174771D01*
X81045714Y-105174771D02*
X81102857Y-105260485D01*
X81102857Y-105260485D02*
X81160000Y-105317628D01*
X81160000Y-105317628D02*
X81217143Y-105346200D01*
X80302857Y-105774771D02*
X80645714Y-105774771D01*
X80474285Y-105774771D02*
X80474285Y-105174771D01*
X80474285Y-105174771D02*
X80531428Y-105260485D01*
X80531428Y-105260485D02*
X80588571Y-105317628D01*
X80588571Y-105317628D02*
X80645714Y-105346200D01*
X82078571Y-75889771D02*
X82078571Y-75289771D01*
X82078571Y-75289771D02*
X81935714Y-75289771D01*
X81935714Y-75289771D02*
X81850000Y-75318342D01*
X81850000Y-75318342D02*
X81792857Y-75375485D01*
X81792857Y-75375485D02*
X81764286Y-75432628D01*
X81764286Y-75432628D02*
X81735714Y-75546914D01*
X81735714Y-75546914D02*
X81735714Y-75632628D01*
X81735714Y-75632628D02*
X81764286Y-75746914D01*
X81764286Y-75746914D02*
X81792857Y-75804057D01*
X81792857Y-75804057D02*
X81850000Y-75861200D01*
X81850000Y-75861200D02*
X81935714Y-75889771D01*
X81935714Y-75889771D02*
X82078571Y-75889771D01*
X81164286Y-75889771D02*
X81507143Y-75889771D01*
X81335714Y-75889771D02*
X81335714Y-75289771D01*
X81335714Y-75289771D02*
X81392857Y-75375485D01*
X81392857Y-75375485D02*
X81450000Y-75432628D01*
X81450000Y-75432628D02*
X81507143Y-75461200D01*
X80621428Y-75289771D02*
X80907142Y-75289771D01*
X80907142Y-75289771D02*
X80935714Y-75575485D01*
X80935714Y-75575485D02*
X80907142Y-75546914D01*
X80907142Y-75546914D02*
X80850000Y-75518342D01*
X80850000Y-75518342D02*
X80707142Y-75518342D01*
X80707142Y-75518342D02*
X80650000Y-75546914D01*
X80650000Y-75546914D02*
X80621428Y-75575485D01*
X80621428Y-75575485D02*
X80592857Y-75632628D01*
X80592857Y-75632628D02*
X80592857Y-75775485D01*
X80592857Y-75775485D02*
X80621428Y-75832628D01*
X80621428Y-75832628D02*
X80650000Y-75861200D01*
X80650000Y-75861200D02*
X80707142Y-75889771D01*
X80707142Y-75889771D02*
X80850000Y-75889771D01*
X80850000Y-75889771D02*
X80907142Y-75861200D01*
X80907142Y-75861200D02*
X80935714Y-75832628D01*
X53147142Y-84929771D02*
X53147142Y-85415485D01*
X53147142Y-85415485D02*
X53118571Y-85472628D01*
X53118571Y-85472628D02*
X53090000Y-85501200D01*
X53090000Y-85501200D02*
X53032857Y-85529771D01*
X53032857Y-85529771D02*
X52918571Y-85529771D01*
X52918571Y-85529771D02*
X52861428Y-85501200D01*
X52861428Y-85501200D02*
X52832857Y-85472628D01*
X52832857Y-85472628D02*
X52804285Y-85415485D01*
X52804285Y-85415485D02*
X52804285Y-84929771D01*
X52232857Y-84929771D02*
X52518571Y-84929771D01*
X52518571Y-84929771D02*
X52547143Y-85215485D01*
X52547143Y-85215485D02*
X52518571Y-85186914D01*
X52518571Y-85186914D02*
X52461429Y-85158342D01*
X52461429Y-85158342D02*
X52318571Y-85158342D01*
X52318571Y-85158342D02*
X52261429Y-85186914D01*
X52261429Y-85186914D02*
X52232857Y-85215485D01*
X52232857Y-85215485D02*
X52204286Y-85272628D01*
X52204286Y-85272628D02*
X52204286Y-85415485D01*
X52204286Y-85415485D02*
X52232857Y-85472628D01*
X52232857Y-85472628D02*
X52261429Y-85501200D01*
X52261429Y-85501200D02*
X52318571Y-85529771D01*
X52318571Y-85529771D02*
X52461429Y-85529771D01*
X52461429Y-85529771D02*
X52518571Y-85501200D01*
X52518571Y-85501200D02*
X52547143Y-85472628D01*
X137975714Y-132204771D02*
X138175714Y-131919057D01*
X138318571Y-132204771D02*
X138318571Y-131604771D01*
X138318571Y-131604771D02*
X138090000Y-131604771D01*
X138090000Y-131604771D02*
X138032857Y-131633342D01*
X138032857Y-131633342D02*
X138004286Y-131661914D01*
X138004286Y-131661914D02*
X137975714Y-131719057D01*
X137975714Y-131719057D02*
X137975714Y-131804771D01*
X137975714Y-131804771D02*
X138004286Y-131861914D01*
X138004286Y-131861914D02*
X138032857Y-131890485D01*
X138032857Y-131890485D02*
X138090000Y-131919057D01*
X138090000Y-131919057D02*
X138318571Y-131919057D01*
X137775714Y-131604771D02*
X137375714Y-131604771D01*
X137375714Y-131604771D02*
X137632857Y-132204771D01*
X137118571Y-132204771D02*
X137004285Y-132204771D01*
X137004285Y-132204771D02*
X136947142Y-132176200D01*
X136947142Y-132176200D02*
X136918571Y-132147628D01*
X136918571Y-132147628D02*
X136861428Y-132061914D01*
X136861428Y-132061914D02*
X136832857Y-131947628D01*
X136832857Y-131947628D02*
X136832857Y-131719057D01*
X136832857Y-131719057D02*
X136861428Y-131661914D01*
X136861428Y-131661914D02*
X136890000Y-131633342D01*
X136890000Y-131633342D02*
X136947142Y-131604771D01*
X136947142Y-131604771D02*
X137061428Y-131604771D01*
X137061428Y-131604771D02*
X137118571Y-131633342D01*
X137118571Y-131633342D02*
X137147142Y-131661914D01*
X137147142Y-131661914D02*
X137175714Y-131719057D01*
X137175714Y-131719057D02*
X137175714Y-131861914D01*
X137175714Y-131861914D02*
X137147142Y-131919057D01*
X137147142Y-131919057D02*
X137118571Y-131947628D01*
X137118571Y-131947628D02*
X137061428Y-131976200D01*
X137061428Y-131976200D02*
X136947142Y-131976200D01*
X136947142Y-131976200D02*
X136890000Y-131947628D01*
X136890000Y-131947628D02*
X136861428Y-131919057D01*
X136861428Y-131919057D02*
X136832857Y-131861914D01*
X87717856Y-72044771D02*
X87717856Y-71444771D01*
X87717856Y-71444771D02*
X87574999Y-71444771D01*
X87574999Y-71444771D02*
X87489285Y-71473342D01*
X87489285Y-71473342D02*
X87432142Y-71530485D01*
X87432142Y-71530485D02*
X87403571Y-71587628D01*
X87403571Y-71587628D02*
X87374999Y-71701914D01*
X87374999Y-71701914D02*
X87374999Y-71787628D01*
X87374999Y-71787628D02*
X87403571Y-71901914D01*
X87403571Y-71901914D02*
X87432142Y-71959057D01*
X87432142Y-71959057D02*
X87489285Y-72016200D01*
X87489285Y-72016200D02*
X87574999Y-72044771D01*
X87574999Y-72044771D02*
X87717856Y-72044771D01*
X87032142Y-71701914D02*
X87089285Y-71673342D01*
X87089285Y-71673342D02*
X87117856Y-71644771D01*
X87117856Y-71644771D02*
X87146428Y-71587628D01*
X87146428Y-71587628D02*
X87146428Y-71559057D01*
X87146428Y-71559057D02*
X87117856Y-71501914D01*
X87117856Y-71501914D02*
X87089285Y-71473342D01*
X87089285Y-71473342D02*
X87032142Y-71444771D01*
X87032142Y-71444771D02*
X86917856Y-71444771D01*
X86917856Y-71444771D02*
X86860714Y-71473342D01*
X86860714Y-71473342D02*
X86832142Y-71501914D01*
X86832142Y-71501914D02*
X86803571Y-71559057D01*
X86803571Y-71559057D02*
X86803571Y-71587628D01*
X86803571Y-71587628D02*
X86832142Y-71644771D01*
X86832142Y-71644771D02*
X86860714Y-71673342D01*
X86860714Y-71673342D02*
X86917856Y-71701914D01*
X86917856Y-71701914D02*
X87032142Y-71701914D01*
X87032142Y-71701914D02*
X87089285Y-71730485D01*
X87089285Y-71730485D02*
X87117856Y-71759057D01*
X87117856Y-71759057D02*
X87146428Y-71816200D01*
X87146428Y-71816200D02*
X87146428Y-71930485D01*
X87146428Y-71930485D02*
X87117856Y-71987628D01*
X87117856Y-71987628D02*
X87089285Y-72016200D01*
X87089285Y-72016200D02*
X87032142Y-72044771D01*
X87032142Y-72044771D02*
X86917856Y-72044771D01*
X86917856Y-72044771D02*
X86860714Y-72016200D01*
X86860714Y-72016200D02*
X86832142Y-71987628D01*
X86832142Y-71987628D02*
X86803571Y-71930485D01*
X86803571Y-71930485D02*
X86803571Y-71816200D01*
X86803571Y-71816200D02*
X86832142Y-71759057D01*
X86832142Y-71759057D02*
X86860714Y-71730485D01*
X86860714Y-71730485D02*
X86917856Y-71701914D01*
X54479999Y-135439771D02*
X54679999Y-135154057D01*
X54822856Y-135439771D02*
X54822856Y-134839771D01*
X54822856Y-134839771D02*
X54594285Y-134839771D01*
X54594285Y-134839771D02*
X54537142Y-134868342D01*
X54537142Y-134868342D02*
X54508571Y-134896914D01*
X54508571Y-134896914D02*
X54479999Y-134954057D01*
X54479999Y-134954057D02*
X54479999Y-135039771D01*
X54479999Y-135039771D02*
X54508571Y-135096914D01*
X54508571Y-135096914D02*
X54537142Y-135125485D01*
X54537142Y-135125485D02*
X54594285Y-135154057D01*
X54594285Y-135154057D02*
X54822856Y-135154057D01*
X54194285Y-135439771D02*
X54079999Y-135439771D01*
X54079999Y-135439771D02*
X54022856Y-135411200D01*
X54022856Y-135411200D02*
X53994285Y-135382628D01*
X53994285Y-135382628D02*
X53937142Y-135296914D01*
X53937142Y-135296914D02*
X53908571Y-135182628D01*
X53908571Y-135182628D02*
X53908571Y-134954057D01*
X53908571Y-134954057D02*
X53937142Y-134896914D01*
X53937142Y-134896914D02*
X53965714Y-134868342D01*
X53965714Y-134868342D02*
X54022856Y-134839771D01*
X54022856Y-134839771D02*
X54137142Y-134839771D01*
X54137142Y-134839771D02*
X54194285Y-134868342D01*
X54194285Y-134868342D02*
X54222856Y-134896914D01*
X54222856Y-134896914D02*
X54251428Y-134954057D01*
X54251428Y-134954057D02*
X54251428Y-135096914D01*
X54251428Y-135096914D02*
X54222856Y-135154057D01*
X54222856Y-135154057D02*
X54194285Y-135182628D01*
X54194285Y-135182628D02*
X54137142Y-135211200D01*
X54137142Y-135211200D02*
X54022856Y-135211200D01*
X54022856Y-135211200D02*
X53965714Y-135182628D01*
X53965714Y-135182628D02*
X53937142Y-135154057D01*
X53937142Y-135154057D02*
X53908571Y-135096914D01*
X64942856Y-74639771D02*
X64942856Y-75125485D01*
X64942856Y-75125485D02*
X64914285Y-75182628D01*
X64914285Y-75182628D02*
X64885714Y-75211200D01*
X64885714Y-75211200D02*
X64828571Y-75239771D01*
X64828571Y-75239771D02*
X64714285Y-75239771D01*
X64714285Y-75239771D02*
X64657142Y-75211200D01*
X64657142Y-75211200D02*
X64628571Y-75182628D01*
X64628571Y-75182628D02*
X64599999Y-75125485D01*
X64599999Y-75125485D02*
X64599999Y-74639771D01*
X64000000Y-75239771D02*
X64342857Y-75239771D01*
X64171428Y-75239771D02*
X64171428Y-74639771D01*
X64171428Y-74639771D02*
X64228571Y-74725485D01*
X64228571Y-74725485D02*
X64285714Y-74782628D01*
X64285714Y-74782628D02*
X64342857Y-74811200D01*
X63771428Y-74696914D02*
X63742856Y-74668342D01*
X63742856Y-74668342D02*
X63685714Y-74639771D01*
X63685714Y-74639771D02*
X63542856Y-74639771D01*
X63542856Y-74639771D02*
X63485714Y-74668342D01*
X63485714Y-74668342D02*
X63457142Y-74696914D01*
X63457142Y-74696914D02*
X63428571Y-74754057D01*
X63428571Y-74754057D02*
X63428571Y-74811200D01*
X63428571Y-74811200D02*
X63457142Y-74896914D01*
X63457142Y-74896914D02*
X63799999Y-75239771D01*
X63799999Y-75239771D02*
X63428571Y-75239771D01*
X95835714Y-106469771D02*
X96035714Y-106184057D01*
X96178571Y-106469771D02*
X96178571Y-105869771D01*
X96178571Y-105869771D02*
X95950000Y-105869771D01*
X95950000Y-105869771D02*
X95892857Y-105898342D01*
X95892857Y-105898342D02*
X95864286Y-105926914D01*
X95864286Y-105926914D02*
X95835714Y-105984057D01*
X95835714Y-105984057D02*
X95835714Y-106069771D01*
X95835714Y-106069771D02*
X95864286Y-106126914D01*
X95864286Y-106126914D02*
X95892857Y-106155485D01*
X95892857Y-106155485D02*
X95950000Y-106184057D01*
X95950000Y-106184057D02*
X96178571Y-106184057D01*
X95550000Y-106469771D02*
X95435714Y-106469771D01*
X95435714Y-106469771D02*
X95378571Y-106441200D01*
X95378571Y-106441200D02*
X95350000Y-106412628D01*
X95350000Y-106412628D02*
X95292857Y-106326914D01*
X95292857Y-106326914D02*
X95264286Y-106212628D01*
X95264286Y-106212628D02*
X95264286Y-105984057D01*
X95264286Y-105984057D02*
X95292857Y-105926914D01*
X95292857Y-105926914D02*
X95321429Y-105898342D01*
X95321429Y-105898342D02*
X95378571Y-105869771D01*
X95378571Y-105869771D02*
X95492857Y-105869771D01*
X95492857Y-105869771D02*
X95550000Y-105898342D01*
X95550000Y-105898342D02*
X95578571Y-105926914D01*
X95578571Y-105926914D02*
X95607143Y-105984057D01*
X95607143Y-105984057D02*
X95607143Y-106126914D01*
X95607143Y-106126914D02*
X95578571Y-106184057D01*
X95578571Y-106184057D02*
X95550000Y-106212628D01*
X95550000Y-106212628D02*
X95492857Y-106241200D01*
X95492857Y-106241200D02*
X95378571Y-106241200D01*
X95378571Y-106241200D02*
X95321429Y-106212628D01*
X95321429Y-106212628D02*
X95292857Y-106184057D01*
X95292857Y-106184057D02*
X95264286Y-106126914D01*
X94750000Y-105869771D02*
X94864285Y-105869771D01*
X94864285Y-105869771D02*
X94921428Y-105898342D01*
X94921428Y-105898342D02*
X94950000Y-105926914D01*
X94950000Y-105926914D02*
X95007142Y-106012628D01*
X95007142Y-106012628D02*
X95035714Y-106126914D01*
X95035714Y-106126914D02*
X95035714Y-106355485D01*
X95035714Y-106355485D02*
X95007142Y-106412628D01*
X95007142Y-106412628D02*
X94978571Y-106441200D01*
X94978571Y-106441200D02*
X94921428Y-106469771D01*
X94921428Y-106469771D02*
X94807142Y-106469771D01*
X94807142Y-106469771D02*
X94750000Y-106441200D01*
X94750000Y-106441200D02*
X94721428Y-106412628D01*
X94721428Y-106412628D02*
X94692857Y-106355485D01*
X94692857Y-106355485D02*
X94692857Y-106212628D01*
X94692857Y-106212628D02*
X94721428Y-106155485D01*
X94721428Y-106155485D02*
X94750000Y-106126914D01*
X94750000Y-106126914D02*
X94807142Y-106098342D01*
X94807142Y-106098342D02*
X94921428Y-106098342D01*
X94921428Y-106098342D02*
X94978571Y-106126914D01*
X94978571Y-106126914D02*
X95007142Y-106155485D01*
X95007142Y-106155485D02*
X95035714Y-106212628D01*
X67689999Y-124619771D02*
X67975713Y-124619771D01*
X67975713Y-124619771D02*
X67975713Y-124019771D01*
X67232857Y-124219771D02*
X67232857Y-124619771D01*
X67375714Y-123991200D02*
X67518571Y-124419771D01*
X67518571Y-124419771D02*
X67147142Y-124419771D01*
X57885714Y-89472628D02*
X57914286Y-89501200D01*
X57914286Y-89501200D02*
X58000000Y-89529771D01*
X58000000Y-89529771D02*
X58057143Y-89529771D01*
X58057143Y-89529771D02*
X58142857Y-89501200D01*
X58142857Y-89501200D02*
X58200000Y-89444057D01*
X58200000Y-89444057D02*
X58228571Y-89386914D01*
X58228571Y-89386914D02*
X58257143Y-89272628D01*
X58257143Y-89272628D02*
X58257143Y-89186914D01*
X58257143Y-89186914D02*
X58228571Y-89072628D01*
X58228571Y-89072628D02*
X58200000Y-89015485D01*
X58200000Y-89015485D02*
X58142857Y-88958342D01*
X58142857Y-88958342D02*
X58057143Y-88929771D01*
X58057143Y-88929771D02*
X58000000Y-88929771D01*
X58000000Y-88929771D02*
X57914286Y-88958342D01*
X57914286Y-88958342D02*
X57885714Y-88986914D01*
X57657143Y-88986914D02*
X57628571Y-88958342D01*
X57628571Y-88958342D02*
X57571429Y-88929771D01*
X57571429Y-88929771D02*
X57428571Y-88929771D01*
X57428571Y-88929771D02*
X57371429Y-88958342D01*
X57371429Y-88958342D02*
X57342857Y-88986914D01*
X57342857Y-88986914D02*
X57314286Y-89044057D01*
X57314286Y-89044057D02*
X57314286Y-89101200D01*
X57314286Y-89101200D02*
X57342857Y-89186914D01*
X57342857Y-89186914D02*
X57685714Y-89529771D01*
X57685714Y-89529771D02*
X57314286Y-89529771D01*
X57085714Y-88986914D02*
X57057142Y-88958342D01*
X57057142Y-88958342D02*
X57000000Y-88929771D01*
X57000000Y-88929771D02*
X56857142Y-88929771D01*
X56857142Y-88929771D02*
X56800000Y-88958342D01*
X56800000Y-88958342D02*
X56771428Y-88986914D01*
X56771428Y-88986914D02*
X56742857Y-89044057D01*
X56742857Y-89044057D02*
X56742857Y-89101200D01*
X56742857Y-89101200D02*
X56771428Y-89186914D01*
X56771428Y-89186914D02*
X57114285Y-89529771D01*
X57114285Y-89529771D02*
X56742857Y-89529771D01*
X125035714Y-82344771D02*
X125235714Y-82059057D01*
X125378571Y-82344771D02*
X125378571Y-81744771D01*
X125378571Y-81744771D02*
X125150000Y-81744771D01*
X125150000Y-81744771D02*
X125092857Y-81773342D01*
X125092857Y-81773342D02*
X125064286Y-81801914D01*
X125064286Y-81801914D02*
X125035714Y-81859057D01*
X125035714Y-81859057D02*
X125035714Y-81944771D01*
X125035714Y-81944771D02*
X125064286Y-82001914D01*
X125064286Y-82001914D02*
X125092857Y-82030485D01*
X125092857Y-82030485D02*
X125150000Y-82059057D01*
X125150000Y-82059057D02*
X125378571Y-82059057D01*
X124835714Y-81744771D02*
X124464286Y-81744771D01*
X124464286Y-81744771D02*
X124664286Y-81973342D01*
X124664286Y-81973342D02*
X124578571Y-81973342D01*
X124578571Y-81973342D02*
X124521429Y-82001914D01*
X124521429Y-82001914D02*
X124492857Y-82030485D01*
X124492857Y-82030485D02*
X124464286Y-82087628D01*
X124464286Y-82087628D02*
X124464286Y-82230485D01*
X124464286Y-82230485D02*
X124492857Y-82287628D01*
X124492857Y-82287628D02*
X124521429Y-82316200D01*
X124521429Y-82316200D02*
X124578571Y-82344771D01*
X124578571Y-82344771D02*
X124750000Y-82344771D01*
X124750000Y-82344771D02*
X124807143Y-82316200D01*
X124807143Y-82316200D02*
X124835714Y-82287628D01*
X124235714Y-81801914D02*
X124207142Y-81773342D01*
X124207142Y-81773342D02*
X124150000Y-81744771D01*
X124150000Y-81744771D02*
X124007142Y-81744771D01*
X124007142Y-81744771D02*
X123950000Y-81773342D01*
X123950000Y-81773342D02*
X123921428Y-81801914D01*
X123921428Y-81801914D02*
X123892857Y-81859057D01*
X123892857Y-81859057D02*
X123892857Y-81916200D01*
X123892857Y-81916200D02*
X123921428Y-82001914D01*
X123921428Y-82001914D02*
X124264285Y-82344771D01*
X124264285Y-82344771D02*
X123892857Y-82344771D01*
X93485714Y-108839771D02*
X93685714Y-108554057D01*
X93828571Y-108839771D02*
X93828571Y-108239771D01*
X93828571Y-108239771D02*
X93600000Y-108239771D01*
X93600000Y-108239771D02*
X93542857Y-108268342D01*
X93542857Y-108268342D02*
X93514286Y-108296914D01*
X93514286Y-108296914D02*
X93485714Y-108354057D01*
X93485714Y-108354057D02*
X93485714Y-108439771D01*
X93485714Y-108439771D02*
X93514286Y-108496914D01*
X93514286Y-108496914D02*
X93542857Y-108525485D01*
X93542857Y-108525485D02*
X93600000Y-108554057D01*
X93600000Y-108554057D02*
X93828571Y-108554057D01*
X93200000Y-108839771D02*
X93085714Y-108839771D01*
X93085714Y-108839771D02*
X93028571Y-108811200D01*
X93028571Y-108811200D02*
X93000000Y-108782628D01*
X93000000Y-108782628D02*
X92942857Y-108696914D01*
X92942857Y-108696914D02*
X92914286Y-108582628D01*
X92914286Y-108582628D02*
X92914286Y-108354057D01*
X92914286Y-108354057D02*
X92942857Y-108296914D01*
X92942857Y-108296914D02*
X92971429Y-108268342D01*
X92971429Y-108268342D02*
X93028571Y-108239771D01*
X93028571Y-108239771D02*
X93142857Y-108239771D01*
X93142857Y-108239771D02*
X93200000Y-108268342D01*
X93200000Y-108268342D02*
X93228571Y-108296914D01*
X93228571Y-108296914D02*
X93257143Y-108354057D01*
X93257143Y-108354057D02*
X93257143Y-108496914D01*
X93257143Y-108496914D02*
X93228571Y-108554057D01*
X93228571Y-108554057D02*
X93200000Y-108582628D01*
X93200000Y-108582628D02*
X93142857Y-108611200D01*
X93142857Y-108611200D02*
X93028571Y-108611200D01*
X93028571Y-108611200D02*
X92971429Y-108582628D01*
X92971429Y-108582628D02*
X92942857Y-108554057D01*
X92942857Y-108554057D02*
X92914286Y-108496914D01*
X92371428Y-108239771D02*
X92657142Y-108239771D01*
X92657142Y-108239771D02*
X92685714Y-108525485D01*
X92685714Y-108525485D02*
X92657142Y-108496914D01*
X92657142Y-108496914D02*
X92600000Y-108468342D01*
X92600000Y-108468342D02*
X92457142Y-108468342D01*
X92457142Y-108468342D02*
X92400000Y-108496914D01*
X92400000Y-108496914D02*
X92371428Y-108525485D01*
X92371428Y-108525485D02*
X92342857Y-108582628D01*
X92342857Y-108582628D02*
X92342857Y-108725485D01*
X92342857Y-108725485D02*
X92371428Y-108782628D01*
X92371428Y-108782628D02*
X92400000Y-108811200D01*
X92400000Y-108811200D02*
X92457142Y-108839771D01*
X92457142Y-108839771D02*
X92600000Y-108839771D01*
X92600000Y-108839771D02*
X92657142Y-108811200D01*
X92657142Y-108811200D02*
X92685714Y-108782628D01*
X71385714Y-143932628D02*
X71414286Y-143961200D01*
X71414286Y-143961200D02*
X71500000Y-143989771D01*
X71500000Y-143989771D02*
X71557143Y-143989771D01*
X71557143Y-143989771D02*
X71642857Y-143961200D01*
X71642857Y-143961200D02*
X71700000Y-143904057D01*
X71700000Y-143904057D02*
X71728571Y-143846914D01*
X71728571Y-143846914D02*
X71757143Y-143732628D01*
X71757143Y-143732628D02*
X71757143Y-143646914D01*
X71757143Y-143646914D02*
X71728571Y-143532628D01*
X71728571Y-143532628D02*
X71700000Y-143475485D01*
X71700000Y-143475485D02*
X71642857Y-143418342D01*
X71642857Y-143418342D02*
X71557143Y-143389771D01*
X71557143Y-143389771D02*
X71500000Y-143389771D01*
X71500000Y-143389771D02*
X71414286Y-143418342D01*
X71414286Y-143418342D02*
X71385714Y-143446914D01*
X70871429Y-143389771D02*
X70985714Y-143389771D01*
X70985714Y-143389771D02*
X71042857Y-143418342D01*
X71042857Y-143418342D02*
X71071429Y-143446914D01*
X71071429Y-143446914D02*
X71128571Y-143532628D01*
X71128571Y-143532628D02*
X71157143Y-143646914D01*
X71157143Y-143646914D02*
X71157143Y-143875485D01*
X71157143Y-143875485D02*
X71128571Y-143932628D01*
X71128571Y-143932628D02*
X71100000Y-143961200D01*
X71100000Y-143961200D02*
X71042857Y-143989771D01*
X71042857Y-143989771D02*
X70928571Y-143989771D01*
X70928571Y-143989771D02*
X70871429Y-143961200D01*
X70871429Y-143961200D02*
X70842857Y-143932628D01*
X70842857Y-143932628D02*
X70814286Y-143875485D01*
X70814286Y-143875485D02*
X70814286Y-143732628D01*
X70814286Y-143732628D02*
X70842857Y-143675485D01*
X70842857Y-143675485D02*
X70871429Y-143646914D01*
X70871429Y-143646914D02*
X70928571Y-143618342D01*
X70928571Y-143618342D02*
X71042857Y-143618342D01*
X71042857Y-143618342D02*
X71100000Y-143646914D01*
X71100000Y-143646914D02*
X71128571Y-143675485D01*
X71128571Y-143675485D02*
X71157143Y-143732628D01*
X70614285Y-143389771D02*
X70214285Y-143389771D01*
X70214285Y-143389771D02*
X70471428Y-143989771D01*
X123015714Y-132204771D02*
X123215714Y-131919057D01*
X123358571Y-132204771D02*
X123358571Y-131604771D01*
X123358571Y-131604771D02*
X123130000Y-131604771D01*
X123130000Y-131604771D02*
X123072857Y-131633342D01*
X123072857Y-131633342D02*
X123044286Y-131661914D01*
X123044286Y-131661914D02*
X123015714Y-131719057D01*
X123015714Y-131719057D02*
X123015714Y-131804771D01*
X123015714Y-131804771D02*
X123044286Y-131861914D01*
X123044286Y-131861914D02*
X123072857Y-131890485D01*
X123072857Y-131890485D02*
X123130000Y-131919057D01*
X123130000Y-131919057D02*
X123358571Y-131919057D01*
X122815714Y-131604771D02*
X122415714Y-131604771D01*
X122415714Y-131604771D02*
X122672857Y-132204771D01*
X122101428Y-131861914D02*
X122158571Y-131833342D01*
X122158571Y-131833342D02*
X122187142Y-131804771D01*
X122187142Y-131804771D02*
X122215714Y-131747628D01*
X122215714Y-131747628D02*
X122215714Y-131719057D01*
X122215714Y-131719057D02*
X122187142Y-131661914D01*
X122187142Y-131661914D02*
X122158571Y-131633342D01*
X122158571Y-131633342D02*
X122101428Y-131604771D01*
X122101428Y-131604771D02*
X121987142Y-131604771D01*
X121987142Y-131604771D02*
X121930000Y-131633342D01*
X121930000Y-131633342D02*
X121901428Y-131661914D01*
X121901428Y-131661914D02*
X121872857Y-131719057D01*
X121872857Y-131719057D02*
X121872857Y-131747628D01*
X121872857Y-131747628D02*
X121901428Y-131804771D01*
X121901428Y-131804771D02*
X121930000Y-131833342D01*
X121930000Y-131833342D02*
X121987142Y-131861914D01*
X121987142Y-131861914D02*
X122101428Y-131861914D01*
X122101428Y-131861914D02*
X122158571Y-131890485D01*
X122158571Y-131890485D02*
X122187142Y-131919057D01*
X122187142Y-131919057D02*
X122215714Y-131976200D01*
X122215714Y-131976200D02*
X122215714Y-132090485D01*
X122215714Y-132090485D02*
X122187142Y-132147628D01*
X122187142Y-132147628D02*
X122158571Y-132176200D01*
X122158571Y-132176200D02*
X122101428Y-132204771D01*
X122101428Y-132204771D02*
X121987142Y-132204771D01*
X121987142Y-132204771D02*
X121930000Y-132176200D01*
X121930000Y-132176200D02*
X121901428Y-132147628D01*
X121901428Y-132147628D02*
X121872857Y-132090485D01*
X121872857Y-132090485D02*
X121872857Y-131976200D01*
X121872857Y-131976200D02*
X121901428Y-131919057D01*
X121901428Y-131919057D02*
X121930000Y-131890485D01*
X121930000Y-131890485D02*
X121987142Y-131861914D01*
X71205714Y-125322628D02*
X71234286Y-125351200D01*
X71234286Y-125351200D02*
X71320000Y-125379771D01*
X71320000Y-125379771D02*
X71377143Y-125379771D01*
X71377143Y-125379771D02*
X71462857Y-125351200D01*
X71462857Y-125351200D02*
X71520000Y-125294057D01*
X71520000Y-125294057D02*
X71548571Y-125236914D01*
X71548571Y-125236914D02*
X71577143Y-125122628D01*
X71577143Y-125122628D02*
X71577143Y-125036914D01*
X71577143Y-125036914D02*
X71548571Y-124922628D01*
X71548571Y-124922628D02*
X71520000Y-124865485D01*
X71520000Y-124865485D02*
X71462857Y-124808342D01*
X71462857Y-124808342D02*
X71377143Y-124779771D01*
X71377143Y-124779771D02*
X71320000Y-124779771D01*
X71320000Y-124779771D02*
X71234286Y-124808342D01*
X71234286Y-124808342D02*
X71205714Y-124836914D01*
X70634286Y-125379771D02*
X70977143Y-125379771D01*
X70805714Y-125379771D02*
X70805714Y-124779771D01*
X70805714Y-124779771D02*
X70862857Y-124865485D01*
X70862857Y-124865485D02*
X70920000Y-124922628D01*
X70920000Y-124922628D02*
X70977143Y-124951200D01*
X70348571Y-125379771D02*
X70234285Y-125379771D01*
X70234285Y-125379771D02*
X70177142Y-125351200D01*
X70177142Y-125351200D02*
X70148571Y-125322628D01*
X70148571Y-125322628D02*
X70091428Y-125236914D01*
X70091428Y-125236914D02*
X70062857Y-125122628D01*
X70062857Y-125122628D02*
X70062857Y-124894057D01*
X70062857Y-124894057D02*
X70091428Y-124836914D01*
X70091428Y-124836914D02*
X70120000Y-124808342D01*
X70120000Y-124808342D02*
X70177142Y-124779771D01*
X70177142Y-124779771D02*
X70291428Y-124779771D01*
X70291428Y-124779771D02*
X70348571Y-124808342D01*
X70348571Y-124808342D02*
X70377142Y-124836914D01*
X70377142Y-124836914D02*
X70405714Y-124894057D01*
X70405714Y-124894057D02*
X70405714Y-125036914D01*
X70405714Y-125036914D02*
X70377142Y-125094057D01*
X70377142Y-125094057D02*
X70348571Y-125122628D01*
X70348571Y-125122628D02*
X70291428Y-125151200D01*
X70291428Y-125151200D02*
X70177142Y-125151200D01*
X70177142Y-125151200D02*
X70120000Y-125122628D01*
X70120000Y-125122628D02*
X70091428Y-125094057D01*
X70091428Y-125094057D02*
X70062857Y-125036914D01*
X123015714Y-134197628D02*
X123044286Y-134226200D01*
X123044286Y-134226200D02*
X123130000Y-134254771D01*
X123130000Y-134254771D02*
X123187143Y-134254771D01*
X123187143Y-134254771D02*
X123272857Y-134226200D01*
X123272857Y-134226200D02*
X123330000Y-134169057D01*
X123330000Y-134169057D02*
X123358571Y-134111914D01*
X123358571Y-134111914D02*
X123387143Y-133997628D01*
X123387143Y-133997628D02*
X123387143Y-133911914D01*
X123387143Y-133911914D02*
X123358571Y-133797628D01*
X123358571Y-133797628D02*
X123330000Y-133740485D01*
X123330000Y-133740485D02*
X123272857Y-133683342D01*
X123272857Y-133683342D02*
X123187143Y-133654771D01*
X123187143Y-133654771D02*
X123130000Y-133654771D01*
X123130000Y-133654771D02*
X123044286Y-133683342D01*
X123044286Y-133683342D02*
X123015714Y-133711914D01*
X122815714Y-133654771D02*
X122415714Y-133654771D01*
X122415714Y-133654771D02*
X122672857Y-134254771D01*
X122244285Y-133654771D02*
X121872857Y-133654771D01*
X121872857Y-133654771D02*
X122072857Y-133883342D01*
X122072857Y-133883342D02*
X121987142Y-133883342D01*
X121987142Y-133883342D02*
X121930000Y-133911914D01*
X121930000Y-133911914D02*
X121901428Y-133940485D01*
X121901428Y-133940485D02*
X121872857Y-133997628D01*
X121872857Y-133997628D02*
X121872857Y-134140485D01*
X121872857Y-134140485D02*
X121901428Y-134197628D01*
X121901428Y-134197628D02*
X121930000Y-134226200D01*
X121930000Y-134226200D02*
X121987142Y-134254771D01*
X121987142Y-134254771D02*
X122158571Y-134254771D01*
X122158571Y-134254771D02*
X122215714Y-134226200D01*
X122215714Y-134226200D02*
X122244285Y-134197628D01*
X118097856Y-87639771D02*
X118097856Y-87039771D01*
X118097856Y-87039771D02*
X117954999Y-87039771D01*
X117954999Y-87039771D02*
X117869285Y-87068342D01*
X117869285Y-87068342D02*
X117812142Y-87125485D01*
X117812142Y-87125485D02*
X117783571Y-87182628D01*
X117783571Y-87182628D02*
X117754999Y-87296914D01*
X117754999Y-87296914D02*
X117754999Y-87382628D01*
X117754999Y-87382628D02*
X117783571Y-87496914D01*
X117783571Y-87496914D02*
X117812142Y-87554057D01*
X117812142Y-87554057D02*
X117869285Y-87611200D01*
X117869285Y-87611200D02*
X117954999Y-87639771D01*
X117954999Y-87639771D02*
X118097856Y-87639771D01*
X117554999Y-87039771D02*
X117154999Y-87039771D01*
X117154999Y-87039771D02*
X117412142Y-87639771D01*
X76110714Y-72137628D02*
X76139286Y-72166200D01*
X76139286Y-72166200D02*
X76225000Y-72194771D01*
X76225000Y-72194771D02*
X76282143Y-72194771D01*
X76282143Y-72194771D02*
X76367857Y-72166200D01*
X76367857Y-72166200D02*
X76425000Y-72109057D01*
X76425000Y-72109057D02*
X76453571Y-72051914D01*
X76453571Y-72051914D02*
X76482143Y-71937628D01*
X76482143Y-71937628D02*
X76482143Y-71851914D01*
X76482143Y-71851914D02*
X76453571Y-71737628D01*
X76453571Y-71737628D02*
X76425000Y-71680485D01*
X76425000Y-71680485D02*
X76367857Y-71623342D01*
X76367857Y-71623342D02*
X76282143Y-71594771D01*
X76282143Y-71594771D02*
X76225000Y-71594771D01*
X76225000Y-71594771D02*
X76139286Y-71623342D01*
X76139286Y-71623342D02*
X76110714Y-71651914D01*
X75596429Y-71794771D02*
X75596429Y-72194771D01*
X75739286Y-71566200D02*
X75882143Y-71994771D01*
X75882143Y-71994771D02*
X75510714Y-71994771D01*
X75310714Y-71651914D02*
X75282142Y-71623342D01*
X75282142Y-71623342D02*
X75225000Y-71594771D01*
X75225000Y-71594771D02*
X75082142Y-71594771D01*
X75082142Y-71594771D02*
X75025000Y-71623342D01*
X75025000Y-71623342D02*
X74996428Y-71651914D01*
X74996428Y-71651914D02*
X74967857Y-71709057D01*
X74967857Y-71709057D02*
X74967857Y-71766200D01*
X74967857Y-71766200D02*
X74996428Y-71851914D01*
X74996428Y-71851914D02*
X75339285Y-72194771D01*
X75339285Y-72194771D02*
X74967857Y-72194771D01*
X78638571Y-72129771D02*
X78638571Y-71529771D01*
X78638571Y-71529771D02*
X78495714Y-71529771D01*
X78495714Y-71529771D02*
X78410000Y-71558342D01*
X78410000Y-71558342D02*
X78352857Y-71615485D01*
X78352857Y-71615485D02*
X78324286Y-71672628D01*
X78324286Y-71672628D02*
X78295714Y-71786914D01*
X78295714Y-71786914D02*
X78295714Y-71872628D01*
X78295714Y-71872628D02*
X78324286Y-71986914D01*
X78324286Y-71986914D02*
X78352857Y-72044057D01*
X78352857Y-72044057D02*
X78410000Y-72101200D01*
X78410000Y-72101200D02*
X78495714Y-72129771D01*
X78495714Y-72129771D02*
X78638571Y-72129771D01*
X78067143Y-71586914D02*
X78038571Y-71558342D01*
X78038571Y-71558342D02*
X77981429Y-71529771D01*
X77981429Y-71529771D02*
X77838571Y-71529771D01*
X77838571Y-71529771D02*
X77781429Y-71558342D01*
X77781429Y-71558342D02*
X77752857Y-71586914D01*
X77752857Y-71586914D02*
X77724286Y-71644057D01*
X77724286Y-71644057D02*
X77724286Y-71701200D01*
X77724286Y-71701200D02*
X77752857Y-71786914D01*
X77752857Y-71786914D02*
X78095714Y-72129771D01*
X78095714Y-72129771D02*
X77724286Y-72129771D01*
X77352857Y-71529771D02*
X77295714Y-71529771D01*
X77295714Y-71529771D02*
X77238571Y-71558342D01*
X77238571Y-71558342D02*
X77210000Y-71586914D01*
X77210000Y-71586914D02*
X77181428Y-71644057D01*
X77181428Y-71644057D02*
X77152857Y-71758342D01*
X77152857Y-71758342D02*
X77152857Y-71901200D01*
X77152857Y-71901200D02*
X77181428Y-72015485D01*
X77181428Y-72015485D02*
X77210000Y-72072628D01*
X77210000Y-72072628D02*
X77238571Y-72101200D01*
X77238571Y-72101200D02*
X77295714Y-72129771D01*
X77295714Y-72129771D02*
X77352857Y-72129771D01*
X77352857Y-72129771D02*
X77410000Y-72101200D01*
X77410000Y-72101200D02*
X77438571Y-72072628D01*
X77438571Y-72072628D02*
X77467142Y-72015485D01*
X77467142Y-72015485D02*
X77495714Y-71901200D01*
X77495714Y-71901200D02*
X77495714Y-71758342D01*
X77495714Y-71758342D02*
X77467142Y-71644057D01*
X77467142Y-71644057D02*
X77438571Y-71586914D01*
X77438571Y-71586914D02*
X77410000Y-71558342D01*
X77410000Y-71558342D02*
X77352857Y-71529771D01*
X137135714Y-93257628D02*
X137164286Y-93286200D01*
X137164286Y-93286200D02*
X137250000Y-93314771D01*
X137250000Y-93314771D02*
X137307143Y-93314771D01*
X137307143Y-93314771D02*
X137392857Y-93286200D01*
X137392857Y-93286200D02*
X137450000Y-93229057D01*
X137450000Y-93229057D02*
X137478571Y-93171914D01*
X137478571Y-93171914D02*
X137507143Y-93057628D01*
X137507143Y-93057628D02*
X137507143Y-92971914D01*
X137507143Y-92971914D02*
X137478571Y-92857628D01*
X137478571Y-92857628D02*
X137450000Y-92800485D01*
X137450000Y-92800485D02*
X137392857Y-92743342D01*
X137392857Y-92743342D02*
X137307143Y-92714771D01*
X137307143Y-92714771D02*
X137250000Y-92714771D01*
X137250000Y-92714771D02*
X137164286Y-92743342D01*
X137164286Y-92743342D02*
X137135714Y-92771914D01*
X136935714Y-92714771D02*
X136564286Y-92714771D01*
X136564286Y-92714771D02*
X136764286Y-92943342D01*
X136764286Y-92943342D02*
X136678571Y-92943342D01*
X136678571Y-92943342D02*
X136621429Y-92971914D01*
X136621429Y-92971914D02*
X136592857Y-93000485D01*
X136592857Y-93000485D02*
X136564286Y-93057628D01*
X136564286Y-93057628D02*
X136564286Y-93200485D01*
X136564286Y-93200485D02*
X136592857Y-93257628D01*
X136592857Y-93257628D02*
X136621429Y-93286200D01*
X136621429Y-93286200D02*
X136678571Y-93314771D01*
X136678571Y-93314771D02*
X136850000Y-93314771D01*
X136850000Y-93314771D02*
X136907143Y-93286200D01*
X136907143Y-93286200D02*
X136935714Y-93257628D01*
X136192857Y-92714771D02*
X136135714Y-92714771D01*
X136135714Y-92714771D02*
X136078571Y-92743342D01*
X136078571Y-92743342D02*
X136050000Y-92771914D01*
X136050000Y-92771914D02*
X136021428Y-92829057D01*
X136021428Y-92829057D02*
X135992857Y-92943342D01*
X135992857Y-92943342D02*
X135992857Y-93086200D01*
X135992857Y-93086200D02*
X136021428Y-93200485D01*
X136021428Y-93200485D02*
X136050000Y-93257628D01*
X136050000Y-93257628D02*
X136078571Y-93286200D01*
X136078571Y-93286200D02*
X136135714Y-93314771D01*
X136135714Y-93314771D02*
X136192857Y-93314771D01*
X136192857Y-93314771D02*
X136250000Y-93286200D01*
X136250000Y-93286200D02*
X136278571Y-93257628D01*
X136278571Y-93257628D02*
X136307142Y-93200485D01*
X136307142Y-93200485D02*
X136335714Y-93086200D01*
X136335714Y-93086200D02*
X136335714Y-92943342D01*
X136335714Y-92943342D02*
X136307142Y-92829057D01*
X136307142Y-92829057D02*
X136278571Y-92771914D01*
X136278571Y-92771914D02*
X136250000Y-92743342D01*
X136250000Y-92743342D02*
X136192857Y-92714771D01*
X107235714Y-81419771D02*
X107435714Y-81134057D01*
X107578571Y-81419771D02*
X107578571Y-80819771D01*
X107578571Y-80819771D02*
X107350000Y-80819771D01*
X107350000Y-80819771D02*
X107292857Y-80848342D01*
X107292857Y-80848342D02*
X107264286Y-80876914D01*
X107264286Y-80876914D02*
X107235714Y-80934057D01*
X107235714Y-80934057D02*
X107235714Y-81019771D01*
X107235714Y-81019771D02*
X107264286Y-81076914D01*
X107264286Y-81076914D02*
X107292857Y-81105485D01*
X107292857Y-81105485D02*
X107350000Y-81134057D01*
X107350000Y-81134057D02*
X107578571Y-81134057D01*
X107007143Y-80876914D02*
X106978571Y-80848342D01*
X106978571Y-80848342D02*
X106921429Y-80819771D01*
X106921429Y-80819771D02*
X106778571Y-80819771D01*
X106778571Y-80819771D02*
X106721429Y-80848342D01*
X106721429Y-80848342D02*
X106692857Y-80876914D01*
X106692857Y-80876914D02*
X106664286Y-80934057D01*
X106664286Y-80934057D02*
X106664286Y-80991200D01*
X106664286Y-80991200D02*
X106692857Y-81076914D01*
X106692857Y-81076914D02*
X107035714Y-81419771D01*
X107035714Y-81419771D02*
X106664286Y-81419771D01*
X106321428Y-81076914D02*
X106378571Y-81048342D01*
X106378571Y-81048342D02*
X106407142Y-81019771D01*
X106407142Y-81019771D02*
X106435714Y-80962628D01*
X106435714Y-80962628D02*
X106435714Y-80934057D01*
X106435714Y-80934057D02*
X106407142Y-80876914D01*
X106407142Y-80876914D02*
X106378571Y-80848342D01*
X106378571Y-80848342D02*
X106321428Y-80819771D01*
X106321428Y-80819771D02*
X106207142Y-80819771D01*
X106207142Y-80819771D02*
X106150000Y-80848342D01*
X106150000Y-80848342D02*
X106121428Y-80876914D01*
X106121428Y-80876914D02*
X106092857Y-80934057D01*
X106092857Y-80934057D02*
X106092857Y-80962628D01*
X106092857Y-80962628D02*
X106121428Y-81019771D01*
X106121428Y-81019771D02*
X106150000Y-81048342D01*
X106150000Y-81048342D02*
X106207142Y-81076914D01*
X106207142Y-81076914D02*
X106321428Y-81076914D01*
X106321428Y-81076914D02*
X106378571Y-81105485D01*
X106378571Y-81105485D02*
X106407142Y-81134057D01*
X106407142Y-81134057D02*
X106435714Y-81191200D01*
X106435714Y-81191200D02*
X106435714Y-81305485D01*
X106435714Y-81305485D02*
X106407142Y-81362628D01*
X106407142Y-81362628D02*
X106378571Y-81391200D01*
X106378571Y-81391200D02*
X106321428Y-81419771D01*
X106321428Y-81419771D02*
X106207142Y-81419771D01*
X106207142Y-81419771D02*
X106150000Y-81391200D01*
X106150000Y-81391200D02*
X106121428Y-81362628D01*
X106121428Y-81362628D02*
X106092857Y-81305485D01*
X106092857Y-81305485D02*
X106092857Y-81191200D01*
X106092857Y-81191200D02*
X106121428Y-81134057D01*
X106121428Y-81134057D02*
X106150000Y-81105485D01*
X106150000Y-81105485D02*
X106207142Y-81076914D01*
X55828571Y-72069771D02*
X55828571Y-71469771D01*
X55828571Y-71469771D02*
X55685714Y-71469771D01*
X55685714Y-71469771D02*
X55600000Y-71498342D01*
X55600000Y-71498342D02*
X55542857Y-71555485D01*
X55542857Y-71555485D02*
X55514286Y-71612628D01*
X55514286Y-71612628D02*
X55485714Y-71726914D01*
X55485714Y-71726914D02*
X55485714Y-71812628D01*
X55485714Y-71812628D02*
X55514286Y-71926914D01*
X55514286Y-71926914D02*
X55542857Y-71984057D01*
X55542857Y-71984057D02*
X55600000Y-72041200D01*
X55600000Y-72041200D02*
X55685714Y-72069771D01*
X55685714Y-72069771D02*
X55828571Y-72069771D01*
X54914286Y-72069771D02*
X55257143Y-72069771D01*
X55085714Y-72069771D02*
X55085714Y-71469771D01*
X55085714Y-71469771D02*
X55142857Y-71555485D01*
X55142857Y-71555485D02*
X55200000Y-71612628D01*
X55200000Y-71612628D02*
X55257143Y-71641200D01*
X54628571Y-72069771D02*
X54514285Y-72069771D01*
X54514285Y-72069771D02*
X54457142Y-72041200D01*
X54457142Y-72041200D02*
X54428571Y-72012628D01*
X54428571Y-72012628D02*
X54371428Y-71926914D01*
X54371428Y-71926914D02*
X54342857Y-71812628D01*
X54342857Y-71812628D02*
X54342857Y-71584057D01*
X54342857Y-71584057D02*
X54371428Y-71526914D01*
X54371428Y-71526914D02*
X54400000Y-71498342D01*
X54400000Y-71498342D02*
X54457142Y-71469771D01*
X54457142Y-71469771D02*
X54571428Y-71469771D01*
X54571428Y-71469771D02*
X54628571Y-71498342D01*
X54628571Y-71498342D02*
X54657142Y-71526914D01*
X54657142Y-71526914D02*
X54685714Y-71584057D01*
X54685714Y-71584057D02*
X54685714Y-71726914D01*
X54685714Y-71726914D02*
X54657142Y-71784057D01*
X54657142Y-71784057D02*
X54628571Y-71812628D01*
X54628571Y-71812628D02*
X54571428Y-71841200D01*
X54571428Y-71841200D02*
X54457142Y-71841200D01*
X54457142Y-71841200D02*
X54400000Y-71812628D01*
X54400000Y-71812628D02*
X54371428Y-71784057D01*
X54371428Y-71784057D02*
X54342857Y-71726914D01*
X104185714Y-104569771D02*
X104385714Y-104284057D01*
X104528571Y-104569771D02*
X104528571Y-103969771D01*
X104528571Y-103969771D02*
X104300000Y-103969771D01*
X104300000Y-103969771D02*
X104242857Y-103998342D01*
X104242857Y-103998342D02*
X104214286Y-104026914D01*
X104214286Y-104026914D02*
X104185714Y-104084057D01*
X104185714Y-104084057D02*
X104185714Y-104169771D01*
X104185714Y-104169771D02*
X104214286Y-104226914D01*
X104214286Y-104226914D02*
X104242857Y-104255485D01*
X104242857Y-104255485D02*
X104300000Y-104284057D01*
X104300000Y-104284057D02*
X104528571Y-104284057D01*
X103900000Y-104569771D02*
X103785714Y-104569771D01*
X103785714Y-104569771D02*
X103728571Y-104541200D01*
X103728571Y-104541200D02*
X103700000Y-104512628D01*
X103700000Y-104512628D02*
X103642857Y-104426914D01*
X103642857Y-104426914D02*
X103614286Y-104312628D01*
X103614286Y-104312628D02*
X103614286Y-104084057D01*
X103614286Y-104084057D02*
X103642857Y-104026914D01*
X103642857Y-104026914D02*
X103671429Y-103998342D01*
X103671429Y-103998342D02*
X103728571Y-103969771D01*
X103728571Y-103969771D02*
X103842857Y-103969771D01*
X103842857Y-103969771D02*
X103900000Y-103998342D01*
X103900000Y-103998342D02*
X103928571Y-104026914D01*
X103928571Y-104026914D02*
X103957143Y-104084057D01*
X103957143Y-104084057D02*
X103957143Y-104226914D01*
X103957143Y-104226914D02*
X103928571Y-104284057D01*
X103928571Y-104284057D02*
X103900000Y-104312628D01*
X103900000Y-104312628D02*
X103842857Y-104341200D01*
X103842857Y-104341200D02*
X103728571Y-104341200D01*
X103728571Y-104341200D02*
X103671429Y-104312628D01*
X103671429Y-104312628D02*
X103642857Y-104284057D01*
X103642857Y-104284057D02*
X103614286Y-104226914D01*
X103271428Y-104226914D02*
X103328571Y-104198342D01*
X103328571Y-104198342D02*
X103357142Y-104169771D01*
X103357142Y-104169771D02*
X103385714Y-104112628D01*
X103385714Y-104112628D02*
X103385714Y-104084057D01*
X103385714Y-104084057D02*
X103357142Y-104026914D01*
X103357142Y-104026914D02*
X103328571Y-103998342D01*
X103328571Y-103998342D02*
X103271428Y-103969771D01*
X103271428Y-103969771D02*
X103157142Y-103969771D01*
X103157142Y-103969771D02*
X103100000Y-103998342D01*
X103100000Y-103998342D02*
X103071428Y-104026914D01*
X103071428Y-104026914D02*
X103042857Y-104084057D01*
X103042857Y-104084057D02*
X103042857Y-104112628D01*
X103042857Y-104112628D02*
X103071428Y-104169771D01*
X103071428Y-104169771D02*
X103100000Y-104198342D01*
X103100000Y-104198342D02*
X103157142Y-104226914D01*
X103157142Y-104226914D02*
X103271428Y-104226914D01*
X103271428Y-104226914D02*
X103328571Y-104255485D01*
X103328571Y-104255485D02*
X103357142Y-104284057D01*
X103357142Y-104284057D02*
X103385714Y-104341200D01*
X103385714Y-104341200D02*
X103385714Y-104455485D01*
X103385714Y-104455485D02*
X103357142Y-104512628D01*
X103357142Y-104512628D02*
X103328571Y-104541200D01*
X103328571Y-104541200D02*
X103271428Y-104569771D01*
X103271428Y-104569771D02*
X103157142Y-104569771D01*
X103157142Y-104569771D02*
X103100000Y-104541200D01*
X103100000Y-104541200D02*
X103071428Y-104512628D01*
X103071428Y-104512628D02*
X103042857Y-104455485D01*
X103042857Y-104455485D02*
X103042857Y-104341200D01*
X103042857Y-104341200D02*
X103071428Y-104284057D01*
X103071428Y-104284057D02*
X103100000Y-104255485D01*
X103100000Y-104255485D02*
X103157142Y-104226914D01*
X82492856Y-81669771D02*
X82492856Y-81069771D01*
X82492856Y-81069771D02*
X82349999Y-81069771D01*
X82349999Y-81069771D02*
X82264285Y-81098342D01*
X82264285Y-81098342D02*
X82207142Y-81155485D01*
X82207142Y-81155485D02*
X82178571Y-81212628D01*
X82178571Y-81212628D02*
X82149999Y-81326914D01*
X82149999Y-81326914D02*
X82149999Y-81412628D01*
X82149999Y-81412628D02*
X82178571Y-81526914D01*
X82178571Y-81526914D02*
X82207142Y-81584057D01*
X82207142Y-81584057D02*
X82264285Y-81641200D01*
X82264285Y-81641200D02*
X82349999Y-81669771D01*
X82349999Y-81669771D02*
X82492856Y-81669771D01*
X81864285Y-81669771D02*
X81749999Y-81669771D01*
X81749999Y-81669771D02*
X81692856Y-81641200D01*
X81692856Y-81641200D02*
X81664285Y-81612628D01*
X81664285Y-81612628D02*
X81607142Y-81526914D01*
X81607142Y-81526914D02*
X81578571Y-81412628D01*
X81578571Y-81412628D02*
X81578571Y-81184057D01*
X81578571Y-81184057D02*
X81607142Y-81126914D01*
X81607142Y-81126914D02*
X81635714Y-81098342D01*
X81635714Y-81098342D02*
X81692856Y-81069771D01*
X81692856Y-81069771D02*
X81807142Y-81069771D01*
X81807142Y-81069771D02*
X81864285Y-81098342D01*
X81864285Y-81098342D02*
X81892856Y-81126914D01*
X81892856Y-81126914D02*
X81921428Y-81184057D01*
X81921428Y-81184057D02*
X81921428Y-81326914D01*
X81921428Y-81326914D02*
X81892856Y-81384057D01*
X81892856Y-81384057D02*
X81864285Y-81412628D01*
X81864285Y-81412628D02*
X81807142Y-81441200D01*
X81807142Y-81441200D02*
X81692856Y-81441200D01*
X81692856Y-81441200D02*
X81635714Y-81412628D01*
X81635714Y-81412628D02*
X81607142Y-81384057D01*
X81607142Y-81384057D02*
X81578571Y-81326914D01*
X107235714Y-79719771D02*
X107435714Y-79434057D01*
X107578571Y-79719771D02*
X107578571Y-79119771D01*
X107578571Y-79119771D02*
X107350000Y-79119771D01*
X107350000Y-79119771D02*
X107292857Y-79148342D01*
X107292857Y-79148342D02*
X107264286Y-79176914D01*
X107264286Y-79176914D02*
X107235714Y-79234057D01*
X107235714Y-79234057D02*
X107235714Y-79319771D01*
X107235714Y-79319771D02*
X107264286Y-79376914D01*
X107264286Y-79376914D02*
X107292857Y-79405485D01*
X107292857Y-79405485D02*
X107350000Y-79434057D01*
X107350000Y-79434057D02*
X107578571Y-79434057D01*
X107007143Y-79176914D02*
X106978571Y-79148342D01*
X106978571Y-79148342D02*
X106921429Y-79119771D01*
X106921429Y-79119771D02*
X106778571Y-79119771D01*
X106778571Y-79119771D02*
X106721429Y-79148342D01*
X106721429Y-79148342D02*
X106692857Y-79176914D01*
X106692857Y-79176914D02*
X106664286Y-79234057D01*
X106664286Y-79234057D02*
X106664286Y-79291200D01*
X106664286Y-79291200D02*
X106692857Y-79376914D01*
X106692857Y-79376914D02*
X107035714Y-79719771D01*
X107035714Y-79719771D02*
X106664286Y-79719771D01*
X106378571Y-79719771D02*
X106264285Y-79719771D01*
X106264285Y-79719771D02*
X106207142Y-79691200D01*
X106207142Y-79691200D02*
X106178571Y-79662628D01*
X106178571Y-79662628D02*
X106121428Y-79576914D01*
X106121428Y-79576914D02*
X106092857Y-79462628D01*
X106092857Y-79462628D02*
X106092857Y-79234057D01*
X106092857Y-79234057D02*
X106121428Y-79176914D01*
X106121428Y-79176914D02*
X106150000Y-79148342D01*
X106150000Y-79148342D02*
X106207142Y-79119771D01*
X106207142Y-79119771D02*
X106321428Y-79119771D01*
X106321428Y-79119771D02*
X106378571Y-79148342D01*
X106378571Y-79148342D02*
X106407142Y-79176914D01*
X106407142Y-79176914D02*
X106435714Y-79234057D01*
X106435714Y-79234057D02*
X106435714Y-79376914D01*
X106435714Y-79376914D02*
X106407142Y-79434057D01*
X106407142Y-79434057D02*
X106378571Y-79462628D01*
X106378571Y-79462628D02*
X106321428Y-79491200D01*
X106321428Y-79491200D02*
X106207142Y-79491200D01*
X106207142Y-79491200D02*
X106150000Y-79462628D01*
X106150000Y-79462628D02*
X106121428Y-79434057D01*
X106121428Y-79434057D02*
X106092857Y-79376914D01*
X51587143Y-74686771D02*
X51244286Y-74686771D01*
X51415714Y-75286771D02*
X51415714Y-74686771D01*
X51044285Y-75286771D02*
X51044285Y-74686771D01*
X51044285Y-74686771D02*
X50815714Y-74686771D01*
X50815714Y-74686771D02*
X50758571Y-74715342D01*
X50758571Y-74715342D02*
X50730000Y-74743914D01*
X50730000Y-74743914D02*
X50701428Y-74801057D01*
X50701428Y-74801057D02*
X50701428Y-74886771D01*
X50701428Y-74886771D02*
X50730000Y-74943914D01*
X50730000Y-74943914D02*
X50758571Y-74972485D01*
X50758571Y-74972485D02*
X50815714Y-75001057D01*
X50815714Y-75001057D02*
X51044285Y-75001057D01*
X50158571Y-74686771D02*
X50444285Y-74686771D01*
X50444285Y-74686771D02*
X50472857Y-74972485D01*
X50472857Y-74972485D02*
X50444285Y-74943914D01*
X50444285Y-74943914D02*
X50387143Y-74915342D01*
X50387143Y-74915342D02*
X50244285Y-74915342D01*
X50244285Y-74915342D02*
X50187143Y-74943914D01*
X50187143Y-74943914D02*
X50158571Y-74972485D01*
X50158571Y-74972485D02*
X50130000Y-75029628D01*
X50130000Y-75029628D02*
X50130000Y-75172485D01*
X50130000Y-75172485D02*
X50158571Y-75229628D01*
X50158571Y-75229628D02*
X50187143Y-75258200D01*
X50187143Y-75258200D02*
X50244285Y-75286771D01*
X50244285Y-75286771D02*
X50387143Y-75286771D01*
X50387143Y-75286771D02*
X50444285Y-75258200D01*
X50444285Y-75258200D02*
X50472857Y-75229628D01*
X64942856Y-87899771D02*
X64942856Y-88385485D01*
X64942856Y-88385485D02*
X64914285Y-88442628D01*
X64914285Y-88442628D02*
X64885714Y-88471200D01*
X64885714Y-88471200D02*
X64828571Y-88499771D01*
X64828571Y-88499771D02*
X64714285Y-88499771D01*
X64714285Y-88499771D02*
X64657142Y-88471200D01*
X64657142Y-88471200D02*
X64628571Y-88442628D01*
X64628571Y-88442628D02*
X64599999Y-88385485D01*
X64599999Y-88385485D02*
X64599999Y-87899771D01*
X64000000Y-88499771D02*
X64342857Y-88499771D01*
X64171428Y-88499771D02*
X64171428Y-87899771D01*
X64171428Y-87899771D02*
X64228571Y-87985485D01*
X64228571Y-87985485D02*
X64285714Y-88042628D01*
X64285714Y-88042628D02*
X64342857Y-88071200D01*
X63628571Y-87899771D02*
X63571428Y-87899771D01*
X63571428Y-87899771D02*
X63514285Y-87928342D01*
X63514285Y-87928342D02*
X63485714Y-87956914D01*
X63485714Y-87956914D02*
X63457142Y-88014057D01*
X63457142Y-88014057D02*
X63428571Y-88128342D01*
X63428571Y-88128342D02*
X63428571Y-88271200D01*
X63428571Y-88271200D02*
X63457142Y-88385485D01*
X63457142Y-88385485D02*
X63485714Y-88442628D01*
X63485714Y-88442628D02*
X63514285Y-88471200D01*
X63514285Y-88471200D02*
X63571428Y-88499771D01*
X63571428Y-88499771D02*
X63628571Y-88499771D01*
X63628571Y-88499771D02*
X63685714Y-88471200D01*
X63685714Y-88471200D02*
X63714285Y-88442628D01*
X63714285Y-88442628D02*
X63742856Y-88385485D01*
X63742856Y-88385485D02*
X63771428Y-88271200D01*
X63771428Y-88271200D02*
X63771428Y-88128342D01*
X63771428Y-88128342D02*
X63742856Y-88014057D01*
X63742856Y-88014057D02*
X63714285Y-87956914D01*
X63714285Y-87956914D02*
X63685714Y-87928342D01*
X63685714Y-87928342D02*
X63628571Y-87899771D01*
X72710714Y-72137628D02*
X72739286Y-72166200D01*
X72739286Y-72166200D02*
X72825000Y-72194771D01*
X72825000Y-72194771D02*
X72882143Y-72194771D01*
X72882143Y-72194771D02*
X72967857Y-72166200D01*
X72967857Y-72166200D02*
X73025000Y-72109057D01*
X73025000Y-72109057D02*
X73053571Y-72051914D01*
X73053571Y-72051914D02*
X73082143Y-71937628D01*
X73082143Y-71937628D02*
X73082143Y-71851914D01*
X73082143Y-71851914D02*
X73053571Y-71737628D01*
X73053571Y-71737628D02*
X73025000Y-71680485D01*
X73025000Y-71680485D02*
X72967857Y-71623342D01*
X72967857Y-71623342D02*
X72882143Y-71594771D01*
X72882143Y-71594771D02*
X72825000Y-71594771D01*
X72825000Y-71594771D02*
X72739286Y-71623342D01*
X72739286Y-71623342D02*
X72710714Y-71651914D01*
X72196429Y-71794771D02*
X72196429Y-72194771D01*
X72339286Y-71566200D02*
X72482143Y-71994771D01*
X72482143Y-71994771D02*
X72110714Y-71994771D01*
X71625000Y-71794771D02*
X71625000Y-72194771D01*
X71767857Y-71566200D02*
X71910714Y-71994771D01*
X71910714Y-71994771D02*
X71539285Y-71994771D01*
X67955714Y-121722628D02*
X67984286Y-121751200D01*
X67984286Y-121751200D02*
X68070000Y-121779771D01*
X68070000Y-121779771D02*
X68127143Y-121779771D01*
X68127143Y-121779771D02*
X68212857Y-121751200D01*
X68212857Y-121751200D02*
X68270000Y-121694057D01*
X68270000Y-121694057D02*
X68298571Y-121636914D01*
X68298571Y-121636914D02*
X68327143Y-121522628D01*
X68327143Y-121522628D02*
X68327143Y-121436914D01*
X68327143Y-121436914D02*
X68298571Y-121322628D01*
X68298571Y-121322628D02*
X68270000Y-121265485D01*
X68270000Y-121265485D02*
X68212857Y-121208342D01*
X68212857Y-121208342D02*
X68127143Y-121179771D01*
X68127143Y-121179771D02*
X68070000Y-121179771D01*
X68070000Y-121179771D02*
X67984286Y-121208342D01*
X67984286Y-121208342D02*
X67955714Y-121236914D01*
X67384286Y-121779771D02*
X67727143Y-121779771D01*
X67555714Y-121779771D02*
X67555714Y-121179771D01*
X67555714Y-121179771D02*
X67612857Y-121265485D01*
X67612857Y-121265485D02*
X67670000Y-121322628D01*
X67670000Y-121322628D02*
X67727143Y-121351200D01*
X66841428Y-121179771D02*
X67127142Y-121179771D01*
X67127142Y-121179771D02*
X67155714Y-121465485D01*
X67155714Y-121465485D02*
X67127142Y-121436914D01*
X67127142Y-121436914D02*
X67070000Y-121408342D01*
X67070000Y-121408342D02*
X66927142Y-121408342D01*
X66927142Y-121408342D02*
X66870000Y-121436914D01*
X66870000Y-121436914D02*
X66841428Y-121465485D01*
X66841428Y-121465485D02*
X66812857Y-121522628D01*
X66812857Y-121522628D02*
X66812857Y-121665485D01*
X66812857Y-121665485D02*
X66841428Y-121722628D01*
X66841428Y-121722628D02*
X66870000Y-121751200D01*
X66870000Y-121751200D02*
X66927142Y-121779771D01*
X66927142Y-121779771D02*
X67070000Y-121779771D01*
X67070000Y-121779771D02*
X67127142Y-121751200D01*
X67127142Y-121751200D02*
X67155714Y-121722628D01*
X55127856Y-106859771D02*
X55127856Y-106259771D01*
X55127856Y-106259771D02*
X54984999Y-106259771D01*
X54984999Y-106259771D02*
X54899285Y-106288342D01*
X54899285Y-106288342D02*
X54842142Y-106345485D01*
X54842142Y-106345485D02*
X54813571Y-106402628D01*
X54813571Y-106402628D02*
X54784999Y-106516914D01*
X54784999Y-106516914D02*
X54784999Y-106602628D01*
X54784999Y-106602628D02*
X54813571Y-106716914D01*
X54813571Y-106716914D02*
X54842142Y-106774057D01*
X54842142Y-106774057D02*
X54899285Y-106831200D01*
X54899285Y-106831200D02*
X54984999Y-106859771D01*
X54984999Y-106859771D02*
X55127856Y-106859771D01*
X54556428Y-106316914D02*
X54527856Y-106288342D01*
X54527856Y-106288342D02*
X54470714Y-106259771D01*
X54470714Y-106259771D02*
X54327856Y-106259771D01*
X54327856Y-106259771D02*
X54270714Y-106288342D01*
X54270714Y-106288342D02*
X54242142Y-106316914D01*
X54242142Y-106316914D02*
X54213571Y-106374057D01*
X54213571Y-106374057D02*
X54213571Y-106431200D01*
X54213571Y-106431200D02*
X54242142Y-106516914D01*
X54242142Y-106516914D02*
X54584999Y-106859771D01*
X54584999Y-106859771D02*
X54213571Y-106859771D01*
X97503571Y-72069771D02*
X97503571Y-71469771D01*
X97503571Y-71469771D02*
X97360714Y-71469771D01*
X97360714Y-71469771D02*
X97275000Y-71498342D01*
X97275000Y-71498342D02*
X97217857Y-71555485D01*
X97217857Y-71555485D02*
X97189286Y-71612628D01*
X97189286Y-71612628D02*
X97160714Y-71726914D01*
X97160714Y-71726914D02*
X97160714Y-71812628D01*
X97160714Y-71812628D02*
X97189286Y-71926914D01*
X97189286Y-71926914D02*
X97217857Y-71984057D01*
X97217857Y-71984057D02*
X97275000Y-72041200D01*
X97275000Y-72041200D02*
X97360714Y-72069771D01*
X97360714Y-72069771D02*
X97503571Y-72069771D01*
X96589286Y-72069771D02*
X96932143Y-72069771D01*
X96760714Y-72069771D02*
X96760714Y-71469771D01*
X96760714Y-71469771D02*
X96817857Y-71555485D01*
X96817857Y-71555485D02*
X96875000Y-71612628D01*
X96875000Y-71612628D02*
X96932143Y-71641200D01*
X96217857Y-71469771D02*
X96160714Y-71469771D01*
X96160714Y-71469771D02*
X96103571Y-71498342D01*
X96103571Y-71498342D02*
X96075000Y-71526914D01*
X96075000Y-71526914D02*
X96046428Y-71584057D01*
X96046428Y-71584057D02*
X96017857Y-71698342D01*
X96017857Y-71698342D02*
X96017857Y-71841200D01*
X96017857Y-71841200D02*
X96046428Y-71955485D01*
X96046428Y-71955485D02*
X96075000Y-72012628D01*
X96075000Y-72012628D02*
X96103571Y-72041200D01*
X96103571Y-72041200D02*
X96160714Y-72069771D01*
X96160714Y-72069771D02*
X96217857Y-72069771D01*
X96217857Y-72069771D02*
X96275000Y-72041200D01*
X96275000Y-72041200D02*
X96303571Y-72012628D01*
X96303571Y-72012628D02*
X96332142Y-71955485D01*
X96332142Y-71955485D02*
X96360714Y-71841200D01*
X96360714Y-71841200D02*
X96360714Y-71698342D01*
X96360714Y-71698342D02*
X96332142Y-71584057D01*
X96332142Y-71584057D02*
X96303571Y-71526914D01*
X96303571Y-71526914D02*
X96275000Y-71498342D01*
X96275000Y-71498342D02*
X96217857Y-71469771D01*
X78490714Y-83762628D02*
X78519286Y-83791200D01*
X78519286Y-83791200D02*
X78605000Y-83819771D01*
X78605000Y-83819771D02*
X78662143Y-83819771D01*
X78662143Y-83819771D02*
X78747857Y-83791200D01*
X78747857Y-83791200D02*
X78805000Y-83734057D01*
X78805000Y-83734057D02*
X78833571Y-83676914D01*
X78833571Y-83676914D02*
X78862143Y-83562628D01*
X78862143Y-83562628D02*
X78862143Y-83476914D01*
X78862143Y-83476914D02*
X78833571Y-83362628D01*
X78833571Y-83362628D02*
X78805000Y-83305485D01*
X78805000Y-83305485D02*
X78747857Y-83248342D01*
X78747857Y-83248342D02*
X78662143Y-83219771D01*
X78662143Y-83219771D02*
X78605000Y-83219771D01*
X78605000Y-83219771D02*
X78519286Y-83248342D01*
X78519286Y-83248342D02*
X78490714Y-83276914D01*
X77976429Y-83419771D02*
X77976429Y-83819771D01*
X78119286Y-83191200D02*
X78262143Y-83619771D01*
X78262143Y-83619771D02*
X77890714Y-83619771D01*
X77376428Y-83219771D02*
X77662142Y-83219771D01*
X77662142Y-83219771D02*
X77690714Y-83505485D01*
X77690714Y-83505485D02*
X77662142Y-83476914D01*
X77662142Y-83476914D02*
X77605000Y-83448342D01*
X77605000Y-83448342D02*
X77462142Y-83448342D01*
X77462142Y-83448342D02*
X77405000Y-83476914D01*
X77405000Y-83476914D02*
X77376428Y-83505485D01*
X77376428Y-83505485D02*
X77347857Y-83562628D01*
X77347857Y-83562628D02*
X77347857Y-83705485D01*
X77347857Y-83705485D02*
X77376428Y-83762628D01*
X77376428Y-83762628D02*
X77405000Y-83791200D01*
X77405000Y-83791200D02*
X77462142Y-83819771D01*
X77462142Y-83819771D02*
X77605000Y-83819771D01*
X77605000Y-83819771D02*
X77662142Y-83791200D01*
X77662142Y-83791200D02*
X77690714Y-83762628D01*
X69310714Y-95062628D02*
X69339286Y-95091200D01*
X69339286Y-95091200D02*
X69425000Y-95119771D01*
X69425000Y-95119771D02*
X69482143Y-95119771D01*
X69482143Y-95119771D02*
X69567857Y-95091200D01*
X69567857Y-95091200D02*
X69625000Y-95034057D01*
X69625000Y-95034057D02*
X69653571Y-94976914D01*
X69653571Y-94976914D02*
X69682143Y-94862628D01*
X69682143Y-94862628D02*
X69682143Y-94776914D01*
X69682143Y-94776914D02*
X69653571Y-94662628D01*
X69653571Y-94662628D02*
X69625000Y-94605485D01*
X69625000Y-94605485D02*
X69567857Y-94548342D01*
X69567857Y-94548342D02*
X69482143Y-94519771D01*
X69482143Y-94519771D02*
X69425000Y-94519771D01*
X69425000Y-94519771D02*
X69339286Y-94548342D01*
X69339286Y-94548342D02*
X69310714Y-94576914D01*
X69110714Y-94519771D02*
X68739286Y-94519771D01*
X68739286Y-94519771D02*
X68939286Y-94748342D01*
X68939286Y-94748342D02*
X68853571Y-94748342D01*
X68853571Y-94748342D02*
X68796429Y-94776914D01*
X68796429Y-94776914D02*
X68767857Y-94805485D01*
X68767857Y-94805485D02*
X68739286Y-94862628D01*
X68739286Y-94862628D02*
X68739286Y-95005485D01*
X68739286Y-95005485D02*
X68767857Y-95062628D01*
X68767857Y-95062628D02*
X68796429Y-95091200D01*
X68796429Y-95091200D02*
X68853571Y-95119771D01*
X68853571Y-95119771D02*
X69025000Y-95119771D01*
X69025000Y-95119771D02*
X69082143Y-95091200D01*
X69082143Y-95091200D02*
X69110714Y-95062628D01*
X68225000Y-94719771D02*
X68225000Y-95119771D01*
X68367857Y-94491200D02*
X68510714Y-94919771D01*
X68510714Y-94919771D02*
X68139285Y-94919771D01*
X49509999Y-97064771D02*
X49709999Y-96779057D01*
X49852856Y-97064771D02*
X49852856Y-96464771D01*
X49852856Y-96464771D02*
X49624285Y-96464771D01*
X49624285Y-96464771D02*
X49567142Y-96493342D01*
X49567142Y-96493342D02*
X49538571Y-96521914D01*
X49538571Y-96521914D02*
X49509999Y-96579057D01*
X49509999Y-96579057D02*
X49509999Y-96664771D01*
X49509999Y-96664771D02*
X49538571Y-96721914D01*
X49538571Y-96721914D02*
X49567142Y-96750485D01*
X49567142Y-96750485D02*
X49624285Y-96779057D01*
X49624285Y-96779057D02*
X49852856Y-96779057D01*
X48938571Y-97064771D02*
X49281428Y-97064771D01*
X49109999Y-97064771D02*
X49109999Y-96464771D01*
X49109999Y-96464771D02*
X49167142Y-96550485D01*
X49167142Y-96550485D02*
X49224285Y-96607628D01*
X49224285Y-96607628D02*
X49281428Y-96636200D01*
X98885714Y-143932628D02*
X98914286Y-143961200D01*
X98914286Y-143961200D02*
X99000000Y-143989771D01*
X99000000Y-143989771D02*
X99057143Y-143989771D01*
X99057143Y-143989771D02*
X99142857Y-143961200D01*
X99142857Y-143961200D02*
X99200000Y-143904057D01*
X99200000Y-143904057D02*
X99228571Y-143846914D01*
X99228571Y-143846914D02*
X99257143Y-143732628D01*
X99257143Y-143732628D02*
X99257143Y-143646914D01*
X99257143Y-143646914D02*
X99228571Y-143532628D01*
X99228571Y-143532628D02*
X99200000Y-143475485D01*
X99200000Y-143475485D02*
X99142857Y-143418342D01*
X99142857Y-143418342D02*
X99057143Y-143389771D01*
X99057143Y-143389771D02*
X99000000Y-143389771D01*
X99000000Y-143389771D02*
X98914286Y-143418342D01*
X98914286Y-143418342D02*
X98885714Y-143446914D01*
X98685714Y-143389771D02*
X98285714Y-143389771D01*
X98285714Y-143389771D02*
X98542857Y-143989771D01*
X98085714Y-143446914D02*
X98057142Y-143418342D01*
X98057142Y-143418342D02*
X98000000Y-143389771D01*
X98000000Y-143389771D02*
X97857142Y-143389771D01*
X97857142Y-143389771D02*
X97800000Y-143418342D01*
X97800000Y-143418342D02*
X97771428Y-143446914D01*
X97771428Y-143446914D02*
X97742857Y-143504057D01*
X97742857Y-143504057D02*
X97742857Y-143561200D01*
X97742857Y-143561200D02*
X97771428Y-143646914D01*
X97771428Y-143646914D02*
X98114285Y-143989771D01*
X98114285Y-143989771D02*
X97742857Y-143989771D01*
X74047143Y-125391771D02*
X73704286Y-125391771D01*
X73875714Y-125991771D02*
X73875714Y-125391771D01*
X73504285Y-125991771D02*
X73504285Y-125391771D01*
X73504285Y-125391771D02*
X73275714Y-125391771D01*
X73275714Y-125391771D02*
X73218571Y-125420342D01*
X73218571Y-125420342D02*
X73190000Y-125448914D01*
X73190000Y-125448914D02*
X73161428Y-125506057D01*
X73161428Y-125506057D02*
X73161428Y-125591771D01*
X73161428Y-125591771D02*
X73190000Y-125648914D01*
X73190000Y-125648914D02*
X73218571Y-125677485D01*
X73218571Y-125677485D02*
X73275714Y-125706057D01*
X73275714Y-125706057D02*
X73504285Y-125706057D01*
X72961428Y-125391771D02*
X72590000Y-125391771D01*
X72590000Y-125391771D02*
X72790000Y-125620342D01*
X72790000Y-125620342D02*
X72704285Y-125620342D01*
X72704285Y-125620342D02*
X72647143Y-125648914D01*
X72647143Y-125648914D02*
X72618571Y-125677485D01*
X72618571Y-125677485D02*
X72590000Y-125734628D01*
X72590000Y-125734628D02*
X72590000Y-125877485D01*
X72590000Y-125877485D02*
X72618571Y-125934628D01*
X72618571Y-125934628D02*
X72647143Y-125963200D01*
X72647143Y-125963200D02*
X72704285Y-125991771D01*
X72704285Y-125991771D02*
X72875714Y-125991771D01*
X72875714Y-125991771D02*
X72932857Y-125963200D01*
X72932857Y-125963200D02*
X72961428Y-125934628D01*
X137975714Y-134187628D02*
X138004286Y-134216200D01*
X138004286Y-134216200D02*
X138090000Y-134244771D01*
X138090000Y-134244771D02*
X138147143Y-134244771D01*
X138147143Y-134244771D02*
X138232857Y-134216200D01*
X138232857Y-134216200D02*
X138290000Y-134159057D01*
X138290000Y-134159057D02*
X138318571Y-134101914D01*
X138318571Y-134101914D02*
X138347143Y-133987628D01*
X138347143Y-133987628D02*
X138347143Y-133901914D01*
X138347143Y-133901914D02*
X138318571Y-133787628D01*
X138318571Y-133787628D02*
X138290000Y-133730485D01*
X138290000Y-133730485D02*
X138232857Y-133673342D01*
X138232857Y-133673342D02*
X138147143Y-133644771D01*
X138147143Y-133644771D02*
X138090000Y-133644771D01*
X138090000Y-133644771D02*
X138004286Y-133673342D01*
X138004286Y-133673342D02*
X137975714Y-133701914D01*
X137775714Y-133644771D02*
X137375714Y-133644771D01*
X137375714Y-133644771D02*
X137632857Y-134244771D01*
X136890000Y-133644771D02*
X137004285Y-133644771D01*
X137004285Y-133644771D02*
X137061428Y-133673342D01*
X137061428Y-133673342D02*
X137090000Y-133701914D01*
X137090000Y-133701914D02*
X137147142Y-133787628D01*
X137147142Y-133787628D02*
X137175714Y-133901914D01*
X137175714Y-133901914D02*
X137175714Y-134130485D01*
X137175714Y-134130485D02*
X137147142Y-134187628D01*
X137147142Y-134187628D02*
X137118571Y-134216200D01*
X137118571Y-134216200D02*
X137061428Y-134244771D01*
X137061428Y-134244771D02*
X136947142Y-134244771D01*
X136947142Y-134244771D02*
X136890000Y-134216200D01*
X136890000Y-134216200D02*
X136861428Y-134187628D01*
X136861428Y-134187628D02*
X136832857Y-134130485D01*
X136832857Y-134130485D02*
X136832857Y-133987628D01*
X136832857Y-133987628D02*
X136861428Y-133930485D01*
X136861428Y-133930485D02*
X136890000Y-133901914D01*
X136890000Y-133901914D02*
X136947142Y-133873342D01*
X136947142Y-133873342D02*
X137061428Y-133873342D01*
X137061428Y-133873342D02*
X137118571Y-133901914D01*
X137118571Y-133901914D02*
X137147142Y-133930485D01*
X137147142Y-133930485D02*
X137175714Y-133987628D01*
X54537141Y-131752271D02*
X54537141Y-131152271D01*
X54537141Y-131152271D02*
X54394284Y-131152271D01*
X54394284Y-131152271D02*
X54308570Y-131180842D01*
X54308570Y-131180842D02*
X54251427Y-131237985D01*
X54251427Y-131237985D02*
X54222856Y-131295128D01*
X54222856Y-131295128D02*
X54194284Y-131409414D01*
X54194284Y-131409414D02*
X54194284Y-131495128D01*
X54194284Y-131495128D02*
X54222856Y-131609414D01*
X54222856Y-131609414D02*
X54251427Y-131666557D01*
X54251427Y-131666557D02*
X54308570Y-131723700D01*
X54308570Y-131723700D02*
X54394284Y-131752271D01*
X54394284Y-131752271D02*
X54537141Y-131752271D01*
X53651427Y-131152271D02*
X53937141Y-131152271D01*
X53937141Y-131152271D02*
X53965713Y-131437985D01*
X53965713Y-131437985D02*
X53937141Y-131409414D01*
X53937141Y-131409414D02*
X53879999Y-131380842D01*
X53879999Y-131380842D02*
X53737141Y-131380842D01*
X53737141Y-131380842D02*
X53679999Y-131409414D01*
X53679999Y-131409414D02*
X53651427Y-131437985D01*
X53651427Y-131437985D02*
X53622856Y-131495128D01*
X53622856Y-131495128D02*
X53622856Y-131637985D01*
X53622856Y-131637985D02*
X53651427Y-131695128D01*
X53651427Y-131695128D02*
X53679999Y-131723700D01*
X53679999Y-131723700D02*
X53737141Y-131752271D01*
X53737141Y-131752271D02*
X53879999Y-131752271D01*
X53879999Y-131752271D02*
X53937141Y-131723700D01*
X53937141Y-131723700D02*
X53965713Y-131695128D01*
X51400000Y-72924771D02*
X51600000Y-72639057D01*
X51742857Y-72924771D02*
X51742857Y-72324771D01*
X51742857Y-72324771D02*
X51514286Y-72324771D01*
X51514286Y-72324771D02*
X51457143Y-72353342D01*
X51457143Y-72353342D02*
X51428572Y-72381914D01*
X51428572Y-72381914D02*
X51400000Y-72439057D01*
X51400000Y-72439057D02*
X51400000Y-72524771D01*
X51400000Y-72524771D02*
X51428572Y-72581914D01*
X51428572Y-72581914D02*
X51457143Y-72610485D01*
X51457143Y-72610485D02*
X51514286Y-72639057D01*
X51514286Y-72639057D02*
X51742857Y-72639057D01*
X50828572Y-72924771D02*
X51171429Y-72924771D01*
X51000000Y-72924771D02*
X51000000Y-72324771D01*
X51000000Y-72324771D02*
X51057143Y-72410485D01*
X51057143Y-72410485D02*
X51114286Y-72467628D01*
X51114286Y-72467628D02*
X51171429Y-72496200D01*
X50600000Y-72381914D02*
X50571428Y-72353342D01*
X50571428Y-72353342D02*
X50514286Y-72324771D01*
X50514286Y-72324771D02*
X50371428Y-72324771D01*
X50371428Y-72324771D02*
X50314286Y-72353342D01*
X50314286Y-72353342D02*
X50285714Y-72381914D01*
X50285714Y-72381914D02*
X50257143Y-72439057D01*
X50257143Y-72439057D02*
X50257143Y-72496200D01*
X50257143Y-72496200D02*
X50285714Y-72581914D01*
X50285714Y-72581914D02*
X50628571Y-72924771D01*
X50628571Y-72924771D02*
X50257143Y-72924771D01*
X79972856Y-123359771D02*
X79972856Y-122759771D01*
X79972856Y-122759771D02*
X79829999Y-122759771D01*
X79829999Y-122759771D02*
X79744285Y-122788342D01*
X79744285Y-122788342D02*
X79687142Y-122845485D01*
X79687142Y-122845485D02*
X79658571Y-122902628D01*
X79658571Y-122902628D02*
X79629999Y-123016914D01*
X79629999Y-123016914D02*
X79629999Y-123102628D01*
X79629999Y-123102628D02*
X79658571Y-123216914D01*
X79658571Y-123216914D02*
X79687142Y-123274057D01*
X79687142Y-123274057D02*
X79744285Y-123331200D01*
X79744285Y-123331200D02*
X79829999Y-123359771D01*
X79829999Y-123359771D02*
X79972856Y-123359771D01*
X79115714Y-122959771D02*
X79115714Y-123359771D01*
X79258571Y-122731200D02*
X79401428Y-123159771D01*
X79401428Y-123159771D02*
X79029999Y-123159771D01*
X122178571Y-72069771D02*
X122178571Y-71469771D01*
X122178571Y-71469771D02*
X122035714Y-71469771D01*
X122035714Y-71469771D02*
X121950000Y-71498342D01*
X121950000Y-71498342D02*
X121892857Y-71555485D01*
X121892857Y-71555485D02*
X121864286Y-71612628D01*
X121864286Y-71612628D02*
X121835714Y-71726914D01*
X121835714Y-71726914D02*
X121835714Y-71812628D01*
X121835714Y-71812628D02*
X121864286Y-71926914D01*
X121864286Y-71926914D02*
X121892857Y-71984057D01*
X121892857Y-71984057D02*
X121950000Y-72041200D01*
X121950000Y-72041200D02*
X122035714Y-72069771D01*
X122035714Y-72069771D02*
X122178571Y-72069771D01*
X121264286Y-72069771D02*
X121607143Y-72069771D01*
X121435714Y-72069771D02*
X121435714Y-71469771D01*
X121435714Y-71469771D02*
X121492857Y-71555485D01*
X121492857Y-71555485D02*
X121550000Y-71612628D01*
X121550000Y-71612628D02*
X121607143Y-71641200D01*
X120921428Y-71726914D02*
X120978571Y-71698342D01*
X120978571Y-71698342D02*
X121007142Y-71669771D01*
X121007142Y-71669771D02*
X121035714Y-71612628D01*
X121035714Y-71612628D02*
X121035714Y-71584057D01*
X121035714Y-71584057D02*
X121007142Y-71526914D01*
X121007142Y-71526914D02*
X120978571Y-71498342D01*
X120978571Y-71498342D02*
X120921428Y-71469771D01*
X120921428Y-71469771D02*
X120807142Y-71469771D01*
X120807142Y-71469771D02*
X120750000Y-71498342D01*
X120750000Y-71498342D02*
X120721428Y-71526914D01*
X120721428Y-71526914D02*
X120692857Y-71584057D01*
X120692857Y-71584057D02*
X120692857Y-71612628D01*
X120692857Y-71612628D02*
X120721428Y-71669771D01*
X120721428Y-71669771D02*
X120750000Y-71698342D01*
X120750000Y-71698342D02*
X120807142Y-71726914D01*
X120807142Y-71726914D02*
X120921428Y-71726914D01*
X120921428Y-71726914D02*
X120978571Y-71755485D01*
X120978571Y-71755485D02*
X121007142Y-71784057D01*
X121007142Y-71784057D02*
X121035714Y-71841200D01*
X121035714Y-71841200D02*
X121035714Y-71955485D01*
X121035714Y-71955485D02*
X121007142Y-72012628D01*
X121007142Y-72012628D02*
X120978571Y-72041200D01*
X120978571Y-72041200D02*
X120921428Y-72069771D01*
X120921428Y-72069771D02*
X120807142Y-72069771D01*
X120807142Y-72069771D02*
X120750000Y-72041200D01*
X120750000Y-72041200D02*
X120721428Y-72012628D01*
X120721428Y-72012628D02*
X120692857Y-71955485D01*
X120692857Y-71955485D02*
X120692857Y-71841200D01*
X120692857Y-71841200D02*
X120721428Y-71784057D01*
X120721428Y-71784057D02*
X120750000Y-71755485D01*
X120750000Y-71755485D02*
X120807142Y-71726914D01*
X125035714Y-78949771D02*
X125235714Y-78664057D01*
X125378571Y-78949771D02*
X125378571Y-78349771D01*
X125378571Y-78349771D02*
X125150000Y-78349771D01*
X125150000Y-78349771D02*
X125092857Y-78378342D01*
X125092857Y-78378342D02*
X125064286Y-78406914D01*
X125064286Y-78406914D02*
X125035714Y-78464057D01*
X125035714Y-78464057D02*
X125035714Y-78549771D01*
X125035714Y-78549771D02*
X125064286Y-78606914D01*
X125064286Y-78606914D02*
X125092857Y-78635485D01*
X125092857Y-78635485D02*
X125150000Y-78664057D01*
X125150000Y-78664057D02*
X125378571Y-78664057D01*
X124835714Y-78349771D02*
X124464286Y-78349771D01*
X124464286Y-78349771D02*
X124664286Y-78578342D01*
X124664286Y-78578342D02*
X124578571Y-78578342D01*
X124578571Y-78578342D02*
X124521429Y-78606914D01*
X124521429Y-78606914D02*
X124492857Y-78635485D01*
X124492857Y-78635485D02*
X124464286Y-78692628D01*
X124464286Y-78692628D02*
X124464286Y-78835485D01*
X124464286Y-78835485D02*
X124492857Y-78892628D01*
X124492857Y-78892628D02*
X124521429Y-78921200D01*
X124521429Y-78921200D02*
X124578571Y-78949771D01*
X124578571Y-78949771D02*
X124750000Y-78949771D01*
X124750000Y-78949771D02*
X124807143Y-78921200D01*
X124807143Y-78921200D02*
X124835714Y-78892628D01*
X124092857Y-78349771D02*
X124035714Y-78349771D01*
X124035714Y-78349771D02*
X123978571Y-78378342D01*
X123978571Y-78378342D02*
X123950000Y-78406914D01*
X123950000Y-78406914D02*
X123921428Y-78464057D01*
X123921428Y-78464057D02*
X123892857Y-78578342D01*
X123892857Y-78578342D02*
X123892857Y-78721200D01*
X123892857Y-78721200D02*
X123921428Y-78835485D01*
X123921428Y-78835485D02*
X123950000Y-78892628D01*
X123950000Y-78892628D02*
X123978571Y-78921200D01*
X123978571Y-78921200D02*
X124035714Y-78949771D01*
X124035714Y-78949771D02*
X124092857Y-78949771D01*
X124092857Y-78949771D02*
X124150000Y-78921200D01*
X124150000Y-78921200D02*
X124178571Y-78892628D01*
X124178571Y-78892628D02*
X124207142Y-78835485D01*
X124207142Y-78835485D02*
X124235714Y-78721200D01*
X124235714Y-78721200D02*
X124235714Y-78578342D01*
X124235714Y-78578342D02*
X124207142Y-78464057D01*
X124207142Y-78464057D02*
X124178571Y-78406914D01*
X124178571Y-78406914D02*
X124150000Y-78378342D01*
X124150000Y-78378342D02*
X124092857Y-78349771D01*
X126385714Y-143932628D02*
X126414286Y-143961200D01*
X126414286Y-143961200D02*
X126500000Y-143989771D01*
X126500000Y-143989771D02*
X126557143Y-143989771D01*
X126557143Y-143989771D02*
X126642857Y-143961200D01*
X126642857Y-143961200D02*
X126700000Y-143904057D01*
X126700000Y-143904057D02*
X126728571Y-143846914D01*
X126728571Y-143846914D02*
X126757143Y-143732628D01*
X126757143Y-143732628D02*
X126757143Y-143646914D01*
X126757143Y-143646914D02*
X126728571Y-143532628D01*
X126728571Y-143532628D02*
X126700000Y-143475485D01*
X126700000Y-143475485D02*
X126642857Y-143418342D01*
X126642857Y-143418342D02*
X126557143Y-143389771D01*
X126557143Y-143389771D02*
X126500000Y-143389771D01*
X126500000Y-143389771D02*
X126414286Y-143418342D01*
X126414286Y-143418342D02*
X126385714Y-143446914D01*
X126185714Y-143389771D02*
X125785714Y-143389771D01*
X125785714Y-143389771D02*
X126042857Y-143989771D01*
X125271428Y-143389771D02*
X125557142Y-143389771D01*
X125557142Y-143389771D02*
X125585714Y-143675485D01*
X125585714Y-143675485D02*
X125557142Y-143646914D01*
X125557142Y-143646914D02*
X125500000Y-143618342D01*
X125500000Y-143618342D02*
X125357142Y-143618342D01*
X125357142Y-143618342D02*
X125300000Y-143646914D01*
X125300000Y-143646914D02*
X125271428Y-143675485D01*
X125271428Y-143675485D02*
X125242857Y-143732628D01*
X125242857Y-143732628D02*
X125242857Y-143875485D01*
X125242857Y-143875485D02*
X125271428Y-143932628D01*
X125271428Y-143932628D02*
X125300000Y-143961200D01*
X125300000Y-143961200D02*
X125357142Y-143989771D01*
X125357142Y-143989771D02*
X125500000Y-143989771D01*
X125500000Y-143989771D02*
X125557142Y-143961200D01*
X125557142Y-143961200D02*
X125585714Y-143932628D01*
X82078571Y-78619771D02*
X82078571Y-78019771D01*
X82078571Y-78019771D02*
X81935714Y-78019771D01*
X81935714Y-78019771D02*
X81850000Y-78048342D01*
X81850000Y-78048342D02*
X81792857Y-78105485D01*
X81792857Y-78105485D02*
X81764286Y-78162628D01*
X81764286Y-78162628D02*
X81735714Y-78276914D01*
X81735714Y-78276914D02*
X81735714Y-78362628D01*
X81735714Y-78362628D02*
X81764286Y-78476914D01*
X81764286Y-78476914D02*
X81792857Y-78534057D01*
X81792857Y-78534057D02*
X81850000Y-78591200D01*
X81850000Y-78591200D02*
X81935714Y-78619771D01*
X81935714Y-78619771D02*
X82078571Y-78619771D01*
X81164286Y-78619771D02*
X81507143Y-78619771D01*
X81335714Y-78619771D02*
X81335714Y-78019771D01*
X81335714Y-78019771D02*
X81392857Y-78105485D01*
X81392857Y-78105485D02*
X81450000Y-78162628D01*
X81450000Y-78162628D02*
X81507143Y-78191200D01*
X80650000Y-78019771D02*
X80764285Y-78019771D01*
X80764285Y-78019771D02*
X80821428Y-78048342D01*
X80821428Y-78048342D02*
X80850000Y-78076914D01*
X80850000Y-78076914D02*
X80907142Y-78162628D01*
X80907142Y-78162628D02*
X80935714Y-78276914D01*
X80935714Y-78276914D02*
X80935714Y-78505485D01*
X80935714Y-78505485D02*
X80907142Y-78562628D01*
X80907142Y-78562628D02*
X80878571Y-78591200D01*
X80878571Y-78591200D02*
X80821428Y-78619771D01*
X80821428Y-78619771D02*
X80707142Y-78619771D01*
X80707142Y-78619771D02*
X80650000Y-78591200D01*
X80650000Y-78591200D02*
X80621428Y-78562628D01*
X80621428Y-78562628D02*
X80592857Y-78505485D01*
X80592857Y-78505485D02*
X80592857Y-78362628D01*
X80592857Y-78362628D02*
X80621428Y-78305485D01*
X80621428Y-78305485D02*
X80650000Y-78276914D01*
X80650000Y-78276914D02*
X80707142Y-78248342D01*
X80707142Y-78248342D02*
X80821428Y-78248342D01*
X80821428Y-78248342D02*
X80878571Y-78276914D01*
X80878571Y-78276914D02*
X80907142Y-78305485D01*
X80907142Y-78305485D02*
X80935714Y-78362628D01*
X92670714Y-82707628D02*
X92699286Y-82736200D01*
X92699286Y-82736200D02*
X92785000Y-82764771D01*
X92785000Y-82764771D02*
X92842143Y-82764771D01*
X92842143Y-82764771D02*
X92927857Y-82736200D01*
X92927857Y-82736200D02*
X92985000Y-82679057D01*
X92985000Y-82679057D02*
X93013571Y-82621914D01*
X93013571Y-82621914D02*
X93042143Y-82507628D01*
X93042143Y-82507628D02*
X93042143Y-82421914D01*
X93042143Y-82421914D02*
X93013571Y-82307628D01*
X93013571Y-82307628D02*
X92985000Y-82250485D01*
X92985000Y-82250485D02*
X92927857Y-82193342D01*
X92927857Y-82193342D02*
X92842143Y-82164771D01*
X92842143Y-82164771D02*
X92785000Y-82164771D01*
X92785000Y-82164771D02*
X92699286Y-82193342D01*
X92699286Y-82193342D02*
X92670714Y-82221914D01*
X92470714Y-82164771D02*
X92099286Y-82164771D01*
X92099286Y-82164771D02*
X92299286Y-82393342D01*
X92299286Y-82393342D02*
X92213571Y-82393342D01*
X92213571Y-82393342D02*
X92156429Y-82421914D01*
X92156429Y-82421914D02*
X92127857Y-82450485D01*
X92127857Y-82450485D02*
X92099286Y-82507628D01*
X92099286Y-82507628D02*
X92099286Y-82650485D01*
X92099286Y-82650485D02*
X92127857Y-82707628D01*
X92127857Y-82707628D02*
X92156429Y-82736200D01*
X92156429Y-82736200D02*
X92213571Y-82764771D01*
X92213571Y-82764771D02*
X92385000Y-82764771D01*
X92385000Y-82764771D02*
X92442143Y-82736200D01*
X92442143Y-82736200D02*
X92470714Y-82707628D01*
X91813571Y-82764771D02*
X91699285Y-82764771D01*
X91699285Y-82764771D02*
X91642142Y-82736200D01*
X91642142Y-82736200D02*
X91613571Y-82707628D01*
X91613571Y-82707628D02*
X91556428Y-82621914D01*
X91556428Y-82621914D02*
X91527857Y-82507628D01*
X91527857Y-82507628D02*
X91527857Y-82279057D01*
X91527857Y-82279057D02*
X91556428Y-82221914D01*
X91556428Y-82221914D02*
X91585000Y-82193342D01*
X91585000Y-82193342D02*
X91642142Y-82164771D01*
X91642142Y-82164771D02*
X91756428Y-82164771D01*
X91756428Y-82164771D02*
X91813571Y-82193342D01*
X91813571Y-82193342D02*
X91842142Y-82221914D01*
X91842142Y-82221914D02*
X91870714Y-82279057D01*
X91870714Y-82279057D02*
X91870714Y-82421914D01*
X91870714Y-82421914D02*
X91842142Y-82479057D01*
X91842142Y-82479057D02*
X91813571Y-82507628D01*
X91813571Y-82507628D02*
X91756428Y-82536200D01*
X91756428Y-82536200D02*
X91642142Y-82536200D01*
X91642142Y-82536200D02*
X91585000Y-82507628D01*
X91585000Y-82507628D02*
X91556428Y-82479057D01*
X91556428Y-82479057D02*
X91527857Y-82421914D01*
X59445714Y-123892628D02*
X59474286Y-123921200D01*
X59474286Y-123921200D02*
X59560000Y-123949771D01*
X59560000Y-123949771D02*
X59617143Y-123949771D01*
X59617143Y-123949771D02*
X59702857Y-123921200D01*
X59702857Y-123921200D02*
X59760000Y-123864057D01*
X59760000Y-123864057D02*
X59788571Y-123806914D01*
X59788571Y-123806914D02*
X59817143Y-123692628D01*
X59817143Y-123692628D02*
X59817143Y-123606914D01*
X59817143Y-123606914D02*
X59788571Y-123492628D01*
X59788571Y-123492628D02*
X59760000Y-123435485D01*
X59760000Y-123435485D02*
X59702857Y-123378342D01*
X59702857Y-123378342D02*
X59617143Y-123349771D01*
X59617143Y-123349771D02*
X59560000Y-123349771D01*
X59560000Y-123349771D02*
X59474286Y-123378342D01*
X59474286Y-123378342D02*
X59445714Y-123406914D01*
X59217143Y-123406914D02*
X59188571Y-123378342D01*
X59188571Y-123378342D02*
X59131429Y-123349771D01*
X59131429Y-123349771D02*
X58988571Y-123349771D01*
X58988571Y-123349771D02*
X58931429Y-123378342D01*
X58931429Y-123378342D02*
X58902857Y-123406914D01*
X58902857Y-123406914D02*
X58874286Y-123464057D01*
X58874286Y-123464057D02*
X58874286Y-123521200D01*
X58874286Y-123521200D02*
X58902857Y-123606914D01*
X58902857Y-123606914D02*
X59245714Y-123949771D01*
X59245714Y-123949771D02*
X58874286Y-123949771D01*
X58302857Y-123949771D02*
X58645714Y-123949771D01*
X58474285Y-123949771D02*
X58474285Y-123349771D01*
X58474285Y-123349771D02*
X58531428Y-123435485D01*
X58531428Y-123435485D02*
X58588571Y-123492628D01*
X58588571Y-123492628D02*
X58645714Y-123521200D01*
X49202499Y-99797628D02*
X49231071Y-99826200D01*
X49231071Y-99826200D02*
X49316785Y-99854771D01*
X49316785Y-99854771D02*
X49373928Y-99854771D01*
X49373928Y-99854771D02*
X49459642Y-99826200D01*
X49459642Y-99826200D02*
X49516785Y-99769057D01*
X49516785Y-99769057D02*
X49545356Y-99711914D01*
X49545356Y-99711914D02*
X49573928Y-99597628D01*
X49573928Y-99597628D02*
X49573928Y-99511914D01*
X49573928Y-99511914D02*
X49545356Y-99397628D01*
X49545356Y-99397628D02*
X49516785Y-99340485D01*
X49516785Y-99340485D02*
X49459642Y-99283342D01*
X49459642Y-99283342D02*
X49373928Y-99254771D01*
X49373928Y-99254771D02*
X49316785Y-99254771D01*
X49316785Y-99254771D02*
X49231071Y-99283342D01*
X49231071Y-99283342D02*
X49202499Y-99311914D01*
X48859642Y-99511914D02*
X48916785Y-99483342D01*
X48916785Y-99483342D02*
X48945356Y-99454771D01*
X48945356Y-99454771D02*
X48973928Y-99397628D01*
X48973928Y-99397628D02*
X48973928Y-99369057D01*
X48973928Y-99369057D02*
X48945356Y-99311914D01*
X48945356Y-99311914D02*
X48916785Y-99283342D01*
X48916785Y-99283342D02*
X48859642Y-99254771D01*
X48859642Y-99254771D02*
X48745356Y-99254771D01*
X48745356Y-99254771D02*
X48688214Y-99283342D01*
X48688214Y-99283342D02*
X48659642Y-99311914D01*
X48659642Y-99311914D02*
X48631071Y-99369057D01*
X48631071Y-99369057D02*
X48631071Y-99397628D01*
X48631071Y-99397628D02*
X48659642Y-99454771D01*
X48659642Y-99454771D02*
X48688214Y-99483342D01*
X48688214Y-99483342D02*
X48745356Y-99511914D01*
X48745356Y-99511914D02*
X48859642Y-99511914D01*
X48859642Y-99511914D02*
X48916785Y-99540485D01*
X48916785Y-99540485D02*
X48945356Y-99569057D01*
X48945356Y-99569057D02*
X48973928Y-99626200D01*
X48973928Y-99626200D02*
X48973928Y-99740485D01*
X48973928Y-99740485D02*
X48945356Y-99797628D01*
X48945356Y-99797628D02*
X48916785Y-99826200D01*
X48916785Y-99826200D02*
X48859642Y-99854771D01*
X48859642Y-99854771D02*
X48745356Y-99854771D01*
X48745356Y-99854771D02*
X48688214Y-99826200D01*
X48688214Y-99826200D02*
X48659642Y-99797628D01*
X48659642Y-99797628D02*
X48631071Y-99740485D01*
X48631071Y-99740485D02*
X48631071Y-99626200D01*
X48631071Y-99626200D02*
X48659642Y-99569057D01*
X48659642Y-99569057D02*
X48688214Y-99540485D01*
X48688214Y-99540485D02*
X48745356Y-99511914D01*
D11*
%TO.C,U9*%
X80670000Y-86790000D02*
X80430000Y-86460000D01*
X80910000Y-86460000D01*
X80670000Y-86790000D01*
G36*
X80670000Y-86790000D02*
G01*
X80430000Y-86460000D01*
X80910000Y-86460000D01*
X80670000Y-86790000D01*
G37*
X77970000Y-95595000D02*
X79920000Y-95595000D01*
X77970000Y-95595000D02*
X76020000Y-95595000D01*
X77970000Y-86725000D02*
X79920000Y-86725000D01*
X77970000Y-86725000D02*
X76020000Y-86725000D01*
%TO.C,D6*%
X52265000Y-70497500D02*
X52265000Y-68212500D01*
X53735000Y-68212500D02*
X53735000Y-70497500D01*
X53735000Y-70497500D02*
X52265000Y-70497500D01*
%TO.C,C28*%
X61775000Y-78930000D02*
X64795000Y-78930000D01*
X61775000Y-83150000D02*
X61775000Y-78930000D01*
X64795000Y-78930000D02*
X64795000Y-83150000D01*
%TO.C,R10*%
X47465000Y-88637258D02*
X47465000Y-88162742D01*
X48510000Y-88637258D02*
X48510000Y-88162742D01*
%TO.C,R77*%
X104707742Y-131412500D02*
X105182258Y-131412500D01*
X104707742Y-132457500D02*
X105182258Y-132457500D01*
%TO.C,C4*%
X73480000Y-107364420D02*
X73480000Y-107645580D01*
X74500000Y-107364420D02*
X74500000Y-107645580D01*
%TO.C,C46*%
X75615580Y-81340000D02*
X75334420Y-81340000D01*
X75615580Y-82360000D02*
X75334420Y-82360000D01*
%TO.C,C25*%
X49320000Y-83825000D02*
X49320000Y-79605000D01*
X52340000Y-79605000D02*
X52340000Y-83825000D01*
X52340000Y-83825000D02*
X49320000Y-83825000D01*
%TO.C,R94*%
X90312742Y-106277500D02*
X90787258Y-106277500D01*
X90312742Y-107322500D02*
X90787258Y-107322500D01*
%TO.C,C35*%
X71690580Y-92640000D02*
X71409420Y-92640000D01*
X71690580Y-93660000D02*
X71409420Y-93660000D01*
%TO.C,C26*%
X50970580Y-86050000D02*
X50689420Y-86050000D01*
X50970580Y-87070000D02*
X50689420Y-87070000D01*
%TO.C,R6*%
X77509758Y-122127500D02*
X77035242Y-122127500D01*
X77509758Y-123172500D02*
X77035242Y-123172500D01*
%TO.C,C43*%
X67340580Y-72790000D02*
X67059420Y-72790000D01*
X67340580Y-73810000D02*
X67059420Y-73810000D01*
%TO.C,C14*%
X74905000Y-110790000D02*
X79125000Y-110790000D01*
X74905000Y-113810000D02*
X74905000Y-110790000D01*
X79125000Y-113810000D02*
X74905000Y-113810000D01*
%TO.C,C78*%
X97884420Y-109290000D02*
X98165580Y-109290000D01*
X97884420Y-110310000D02*
X98165580Y-110310000D01*
%TO.C,R97*%
X98262258Y-107477500D02*
X97787742Y-107477500D01*
X98262258Y-108522500D02*
X97787742Y-108522500D01*
%TO.C,C27*%
X63144420Y-86050000D02*
X63425580Y-86050000D01*
X63144420Y-87070000D02*
X63425580Y-87070000D01*
%TO.C,R93*%
X90312742Y-104502500D02*
X90787258Y-104502500D01*
X90312742Y-105547500D02*
X90787258Y-105547500D01*
%TO.C,R20*%
X71787258Y-96027500D02*
X71312742Y-96027500D01*
X71787258Y-97072500D02*
X71312742Y-97072500D01*
%TO.C,TP2*%
X76540000Y-115700000D02*
G75*
G02*
X75140000Y-115700000I-700000J0D01*
G01*
X75140000Y-115700000D02*
G75*
G02*
X76540000Y-115700000I700000J0D01*
G01*
%TO.C,C23*%
X60217500Y-126290000D02*
X64437500Y-126290000D01*
X60217500Y-129310000D02*
X60217500Y-126290000D01*
X64437500Y-129310000D02*
X60217500Y-129310000D01*
%TO.C,D17*%
X118910000Y-70150000D02*
X113400000Y-70150000D01*
X118910000Y-70150000D02*
X118910000Y-73450000D01*
X118910000Y-73450000D02*
X113400000Y-73450000D01*
%TO.C,TP4*%
X59900000Y-98900000D02*
G75*
G02*
X58500000Y-98900000I-700000J0D01*
G01*
X58500000Y-98900000D02*
G75*
G02*
X59900000Y-98900000I700000J0D01*
G01*
%TO.C,C68*%
X104804420Y-133460000D02*
X105085580Y-133460000D01*
X104804420Y-134480000D02*
X105085580Y-134480000D01*
%TO.C,TP1*%
X67410000Y-116480000D02*
G75*
G02*
X66010000Y-116480000I-700000J0D01*
G01*
X66010000Y-116480000D02*
G75*
G02*
X67410000Y-116480000I700000J0D01*
G01*
%TO.C,R2*%
X52037258Y-94262500D02*
X51562742Y-94262500D01*
X52037258Y-95307500D02*
X51562742Y-95307500D01*
%TO.C,C37*%
X71409420Y-97740000D02*
X71690580Y-97740000D01*
X71409420Y-98760000D02*
X71690580Y-98760000D01*
%TO.C,C6*%
X52530000Y-100290000D02*
X56750000Y-100290000D01*
X52530000Y-103310000D02*
X52530000Y-100290000D01*
X56750000Y-103310000D02*
X52530000Y-103310000D01*
%TO.C,R11*%
X58377500Y-104062742D02*
X58377500Y-104537258D01*
X59422500Y-104062742D02*
X59422500Y-104537258D01*
%TO.C,TP6*%
X118450000Y-97520000D02*
G75*
G02*
X117050000Y-97520000I-700000J0D01*
G01*
X117050000Y-97520000D02*
G75*
G02*
X118450000Y-97520000I700000J0D01*
G01*
%TO.C,R33*%
X117537742Y-80627500D02*
X118012258Y-80627500D01*
X117537742Y-81672500D02*
X118012258Y-81672500D01*
%TO.C,R31*%
X127112742Y-79852500D02*
X127587258Y-79852500D01*
X127112742Y-80897500D02*
X127587258Y-80897500D01*
%TO.C,D1*%
X46790000Y-121242500D02*
X52300000Y-121242500D01*
X46790000Y-124542500D02*
X46790000Y-121242500D01*
X46790000Y-124542500D02*
X52300000Y-124542500D01*
%TO.C,C2*%
X67275000Y-105880000D02*
X71495000Y-105880000D01*
X67275000Y-108900000D02*
X67275000Y-105880000D01*
X71495000Y-108900000D02*
X67275000Y-108900000D01*
%TO.C,R34*%
X117532742Y-78932500D02*
X118007258Y-78932500D01*
X117532742Y-79977500D02*
X118007258Y-79977500D01*
%TO.C,BT1*%
X131680000Y-95170000D02*
G75*
G02*
X124620000Y-95170000I-3530000J0D01*
G01*
X124620000Y-95170000D02*
G75*
G02*
X131680000Y-95170000I3530000J0D01*
G01*
%TO.C,U2*%
X75880000Y-107505000D02*
X75880000Y-106705000D01*
X75880000Y-107505000D02*
X75880000Y-108305000D01*
X79000000Y-107505000D02*
X79000000Y-106705000D01*
X79000000Y-107505000D02*
X79000000Y-108305000D01*
X75930000Y-106205000D02*
X75600000Y-106445000D01*
X75600000Y-105965000D01*
X75930000Y-106205000D01*
G36*
X75930000Y-106205000D02*
G01*
X75600000Y-106445000D01*
X75600000Y-105965000D01*
X75930000Y-106205000D01*
G37*
%TO.C,C11*%
X80550000Y-107645580D02*
X80550000Y-107364420D01*
X81570000Y-107645580D02*
X81570000Y-107364420D01*
%TO.C,D15*%
X75340000Y-74620000D02*
X79350000Y-74620000D01*
X75340000Y-76620000D02*
X75340000Y-74620000D01*
X75340000Y-76620000D02*
X79350000Y-76620000D01*
%TO.C,U5*%
X53690000Y-80980000D02*
X54950000Y-80980000D01*
X53690000Y-84740000D02*
X53690000Y-80980000D01*
X60510000Y-80980000D02*
X59250000Y-80980000D01*
X60510000Y-84740000D02*
X60510000Y-80980000D01*
X60740000Y-86260000D02*
X60410000Y-86020000D01*
X60740000Y-85780000D01*
X60740000Y-86260000D01*
G36*
X60740000Y-86260000D02*
G01*
X60410000Y-86020000D01*
X60740000Y-85780000D01*
X60740000Y-86260000D01*
G37*
%TO.C,R79*%
X134762742Y-131412500D02*
X135237258Y-131412500D01*
X134762742Y-132457500D02*
X135237258Y-132457500D01*
%TO.C,D8*%
X95310000Y-70150000D02*
X89800000Y-70150000D01*
X95310000Y-70150000D02*
X95310000Y-73450000D01*
X95310000Y-73450000D02*
X89800000Y-73450000D01*
%TO.C,R9*%
X51927500Y-134935242D02*
X51927500Y-135409758D01*
X52972500Y-134935242D02*
X52972500Y-135409758D01*
%TO.C,U12*%
X69350000Y-74780000D02*
X67400000Y-74780000D01*
X69350000Y-74780000D02*
X71300000Y-74780000D01*
X69350000Y-84900000D02*
X67400000Y-84900000D01*
X69350000Y-84900000D02*
X71300000Y-84900000D01*
X72050000Y-74835000D02*
X71810000Y-74505000D01*
X72290000Y-74505000D01*
X72050000Y-74835000D01*
G36*
X72050000Y-74835000D02*
G01*
X71810000Y-74505000D01*
X72290000Y-74505000D01*
X72050000Y-74835000D01*
G37*
%TO.C,R96*%
X98262258Y-105677500D02*
X97787742Y-105677500D01*
X98262258Y-106722500D02*
X97787742Y-106722500D01*
%TO.C,L4*%
X66230000Y-126567936D02*
X66230000Y-127772064D01*
X68950000Y-126567936D02*
X68950000Y-127772064D01*
%TO.C,C22*%
X55030000Y-89990000D02*
X59250000Y-89990000D01*
X55030000Y-93010000D02*
X55030000Y-89990000D01*
X59250000Y-93010000D02*
X55030000Y-93010000D01*
%TO.C,R32*%
X127112742Y-81552500D02*
X127587258Y-81552500D01*
X127112742Y-82597500D02*
X127587258Y-82597500D01*
%TO.C,R95*%
X90312742Y-108052500D02*
X90787258Y-108052500D01*
X90312742Y-109097500D02*
X90787258Y-109097500D01*
%TO.C,C67*%
X70859420Y-144425000D02*
X71140580Y-144425000D01*
X70859420Y-145445000D02*
X71140580Y-145445000D01*
%TO.C,R78*%
X119762742Y-131412500D02*
X120237258Y-131412500D01*
X119762742Y-132457500D02*
X120237258Y-132457500D01*
%TO.C,C19*%
X70320000Y-127029420D02*
X70320000Y-127310580D01*
X71340000Y-127029420D02*
X71340000Y-127310580D01*
%TO.C,C73*%
X119859420Y-133460000D02*
X120140580Y-133460000D01*
X119859420Y-134480000D02*
X120140580Y-134480000D01*
%TO.C,D7*%
X121165000Y-88220000D02*
X115655000Y-88220000D01*
X121165000Y-88220000D02*
X121165000Y-91520000D01*
X121165000Y-91520000D02*
X115655000Y-91520000D01*
%TO.C,C42*%
X75569420Y-72790000D02*
X75850580Y-72790000D01*
X75569420Y-73810000D02*
X75850580Y-73810000D01*
%TO.C,D20*%
X86260000Y-70225000D02*
X80750000Y-70225000D01*
X86260000Y-70225000D02*
X86260000Y-73525000D01*
X86260000Y-73525000D02*
X80750000Y-73525000D01*
%TO.C,C30*%
X136240000Y-95310580D02*
X136240000Y-95029420D01*
X137260000Y-95310580D02*
X137260000Y-95029420D01*
%TO.C,R28*%
X109137742Y-80627500D02*
X109612258Y-80627500D01*
X109137742Y-81672500D02*
X109612258Y-81672500D01*
%TO.C,D19*%
X63510000Y-70150000D02*
X58000000Y-70150000D01*
X63510000Y-70150000D02*
X63510000Y-73450000D01*
X63510000Y-73450000D02*
X58000000Y-73450000D01*
%TO.C,R98*%
X101397500Y-104537258D02*
X101397500Y-104062742D01*
X102442500Y-104537258D02*
X102442500Y-104062742D01*
%TO.C,D9*%
X84410000Y-82130000D02*
X80400000Y-82130000D01*
X84410000Y-82130000D02*
X84410000Y-84130000D01*
X84410000Y-84130000D02*
X80400000Y-84130000D01*
%TO.C,R29*%
X109137742Y-78932500D02*
X109612258Y-78932500D01*
X109137742Y-79977500D02*
X109612258Y-79977500D01*
%TO.C,TP5*%
X51530000Y-76465000D02*
G75*
G02*
X50130000Y-76465000I-700000J0D01*
G01*
X50130000Y-76465000D02*
G75*
G02*
X51530000Y-76465000I700000J0D01*
G01*
%TO.C,U10*%
X69350000Y-86695000D02*
X67400000Y-86695000D01*
X69350000Y-86695000D02*
X71300000Y-86695000D01*
X69350000Y-91815000D02*
X67400000Y-91815000D01*
X69350000Y-91815000D02*
X71300000Y-91815000D01*
X72050000Y-86790000D02*
X71810000Y-86460000D01*
X72290000Y-86460000D01*
X72050000Y-86790000D01*
G36*
X72050000Y-86790000D02*
G01*
X71810000Y-86460000D01*
X72290000Y-86460000D01*
X72050000Y-86790000D01*
G37*
%TO.C,C44*%
X72465580Y-72790000D02*
X72184420Y-72790000D01*
X72465580Y-73810000D02*
X72184420Y-73810000D01*
%TO.C,C15*%
X67715580Y-122257500D02*
X67434420Y-122257500D01*
X67715580Y-123277500D02*
X67434420Y-123277500D01*
%TO.C,D2*%
X46790000Y-104940000D02*
X52300000Y-104940000D01*
X46790000Y-108240000D02*
X46790000Y-104940000D01*
X46790000Y-108240000D02*
X52300000Y-108240000D01*
%TO.C,D10*%
X105010000Y-70150000D02*
X99500000Y-70150000D01*
X105010000Y-70150000D02*
X105010000Y-73450000D01*
X105010000Y-73450000D02*
X99500000Y-73450000D01*
%TO.C,C45*%
X75334420Y-83040000D02*
X75615580Y-83040000D01*
X75334420Y-84060000D02*
X75615580Y-84060000D01*
%TO.C,C34*%
X71409420Y-94340000D02*
X71690580Y-94340000D01*
X71409420Y-95360000D02*
X71690580Y-95360000D01*
%TO.C,R1*%
X51562742Y-96277500D02*
X52037258Y-96277500D01*
X51562742Y-97322500D02*
X52037258Y-97322500D01*
%TO.C,C72*%
X98359420Y-144425000D02*
X98640580Y-144425000D01*
X98359420Y-145445000D02*
X98640580Y-145445000D01*
%TO.C,TP3*%
X73990000Y-127170000D02*
G75*
G02*
X72590000Y-127170000I-700000J0D01*
G01*
X72590000Y-127170000D02*
G75*
G02*
X73990000Y-127170000I700000J0D01*
G01*
%TO.C,C76*%
X134859420Y-133460000D02*
X135140580Y-133460000D01*
X134859420Y-134480000D02*
X135140580Y-134480000D01*
%TO.C,D5*%
X51715000Y-132967500D02*
X51715000Y-130682500D01*
X53185000Y-130682500D02*
X53185000Y-132967500D01*
X53185000Y-132967500D02*
X51715000Y-132967500D01*
%TO.C,R12*%
X52477500Y-72892258D02*
X52477500Y-72417742D01*
X53522500Y-72892258D02*
X53522500Y-72417742D01*
%TO.C,D4*%
X72277500Y-121915000D02*
X74562500Y-121915000D01*
X72277500Y-123385000D02*
X72277500Y-121915000D01*
X74562500Y-123385000D02*
X72277500Y-123385000D01*
%TO.C,D18*%
X122740000Y-70150000D02*
X128250000Y-70150000D01*
X122740000Y-73450000D02*
X122740000Y-70150000D01*
X122740000Y-73450000D02*
X128250000Y-73450000D01*
%TO.C,R30*%
X127112742Y-78152500D02*
X127587258Y-78152500D01*
X127112742Y-79197500D02*
X127587258Y-79197500D01*
%TO.C,C75*%
X125859420Y-144425000D02*
X126140580Y-144425000D01*
X125859420Y-145445000D02*
X126140580Y-145445000D01*
%TO.C,D16*%
X75340000Y-77350000D02*
X79350000Y-77350000D01*
X75340000Y-79350000D02*
X75340000Y-77350000D01*
X75340000Y-79350000D02*
X79350000Y-79350000D01*
%TO.C,C39*%
X92425580Y-83360000D02*
X92144420Y-83360000D01*
X92425580Y-84380000D02*
X92144420Y-84380000D01*
%TO.C,C21*%
X60262500Y-122177500D02*
X64482500Y-122177500D01*
X60262500Y-125197500D02*
X60262500Y-122177500D01*
X64482500Y-125197500D02*
X60262500Y-125197500D01*
%TO.C,C8*%
X46630000Y-100290000D02*
X50850000Y-100290000D01*
X46630000Y-103310000D02*
X46630000Y-100290000D01*
X50850000Y-103310000D02*
X46630000Y-103310000D01*
%TD*%
M02*
