%TF.GenerationSoftware,KiCad,Pcbnew,9.0.2*%
%TF.CreationDate,2025-05-28T00:09:44+08:00*%
%TF.ProjectId,Explorer,4578706c-6f72-4657-922e-6b696361645f,rev?*%
%TF.SameCoordinates,Original*%
%TF.FileFunction,Soldermask,Bot*%
%TF.FilePolarity,Negative*%
%FSLAX46Y46*%
G04 Gerber Fmt 4.6, Leading zero omitted, Abs format (unit mm)*
G04 Created by KiCad (PCBNEW 9.0.2) date 2025-05-28 00:09:44*
%MOMM*%
%LPD*%
G01*
G04 APERTURE LIST*
G04 Aperture macros list*
%AMRoundRect*
0 Rectangle with rounded corners*
0 $1 Rounding radius*
0 $2 $3 $4 $5 $6 $7 $8 $9 X,Y pos of 4 corners*
0 Add a 4 corners polygon primitive as box body*
4,1,4,$2,$3,$4,$5,$6,$7,$8,$9,$2,$3,0*
0 Add four circle primitives for the rounded corners*
1,1,$1+$1,$2,$3*
1,1,$1+$1,$4,$5*
1,1,$1+$1,$6,$7*
1,1,$1+$1,$8,$9*
0 Add four rect primitives between the rounded corners*
20,1,$1+$1,$2,$3,$4,$5,0*
20,1,$1+$1,$4,$5,$6,$7,0*
20,1,$1+$1,$6,$7,$8,$9,0*
20,1,$1+$1,$8,$9,$2,$3,0*%
G04 Aperture macros list end*
%ADD10C,3.000000*%
%ADD11R,3.000000X3.000000*%
%ADD12C,4.000000*%
%ADD13R,1.600000X1.600000*%
%ADD14C,1.600000*%
%ADD15C,5.600000*%
%ADD16RoundRect,0.250000X-0.550000X0.550000X-0.550000X-0.550000X0.550000X-0.550000X0.550000X0.550000X0*%
%ADD17R,1.700000X1.700000*%
%ADD18C,1.700000*%
%ADD19RoundRect,0.250000X-0.550000X-0.550000X0.550000X-0.550000X0.550000X0.550000X-0.550000X0.550000X0*%
%ADD20C,2.000000*%
%ADD21RoundRect,0.250000X1.750000X0.250000X-1.750000X0.250000X-1.750000X-0.250000X1.750000X-0.250000X0*%
G04 APERTURE END LIST*
D10*
%TO.C,J5*%
X130920000Y-121000000D03*
D11*
X136000000Y-121000000D03*
%TD*%
D10*
%TO.C,J6*%
X150920000Y-121000000D03*
D11*
X156000000Y-121000000D03*
%TD*%
D10*
%TO.C,J7*%
X170920000Y-121000000D03*
D11*
X176000000Y-121000000D03*
%TD*%
D12*
%TO.C,J4*%
X116160000Y-85092500D03*
X116160000Y-110092500D03*
D13*
X119000000Y-103132500D03*
D14*
X119000000Y-100362500D03*
X119000000Y-97592500D03*
X119000000Y-94822500D03*
X119000000Y-92052500D03*
X116160000Y-101747500D03*
X116160000Y-98977500D03*
X116160000Y-96207500D03*
X116160000Y-93437500D03*
%TD*%
D15*
%TO.C,H4*%
X186745000Y-73092500D03*
%TD*%
%TO.C,H3*%
X112745000Y-122092500D03*
%TD*%
%TO.C,H2*%
X186745000Y-122092500D03*
%TD*%
%TO.C,H1*%
X112745000Y-73092500D03*
%TD*%
D13*
%TO.C,J1*%
X180664500Y-96311400D03*
D14*
X180664500Y-98811400D03*
X182664500Y-98811400D03*
X182664500Y-96311400D03*
D12*
X185524500Y-91561400D03*
X185524500Y-103561400D03*
%TD*%
D16*
%TO.C,D1*%
X130120000Y-81890000D03*
D14*
X130120000Y-89510000D03*
%TD*%
D17*
%TO.C,J2*%
X125890000Y-83140000D03*
D18*
X125890000Y-85680000D03*
X125890000Y-88220000D03*
%TD*%
D19*
%TO.C,D4*%
X126390000Y-92760000D03*
D14*
X134010000Y-92760000D03*
%TD*%
D20*
%TO.C,SW1*%
X173400000Y-72900000D03*
X173400000Y-79400000D03*
X168900000Y-72900000D03*
X168900000Y-79400000D03*
%TD*%
D17*
%TO.C,J3*%
X135300000Y-88220000D03*
D18*
X135300000Y-85680000D03*
X135300000Y-83140000D03*
%TD*%
D21*
%TO.C,U1*%
X162204400Y-72517000D03*
X162204400Y-74517000D03*
X162204400Y-76517000D03*
X162204400Y-78517000D03*
X162204400Y-80517000D03*
X162204400Y-82517000D03*
X162204400Y-84517000D03*
X162204400Y-86517000D03*
X144204400Y-86517000D03*
X144204400Y-84517000D03*
X144204400Y-82517000D03*
X144204400Y-80517000D03*
X144204400Y-78517000D03*
X144204400Y-76517000D03*
X144204400Y-74517000D03*
X144204400Y-72517000D03*
%TD*%
M02*
