M48
; DRILL file {KiCad 9.0.2} date 2025-07-06T19:43:28+0800
; FORMAT={-:-/ absolute / inch / decimal}
; #@! TF.CreationDate,2025-07-06T19:43:28+08:00
; #@! TF.GenerationSoftware,Kicad,Pcbnew,9.0.2
; #@! TF.FileFunction,Plated,1,2,PTH
FMAT,2
INCH
; #@! TA.AperFunction,Plated,PTH,ComponentDrill
T1C0.0118
; #@! TA.AperFunction,Plated,PTH,ViaDrill
T2C0.0157
; #@! TA.AperFunction,Plated,PTH,ComponentDrill
T3C0.0354
; #@! TA.AperFunction,Plated,PTH,ComponentDrill
T4C0.0394
; #@! TA.AperFunction,Plated,PTH,ComponentDrill
T5C0.0433
; #@! TA.AperFunction,Plated,PTH,ComponentDrill
T6C0.0591
; #@! TA.AperFunction,Plated,PTH,ComponentDrill
T7C0.0598
; #@! TA.AperFunction,Plated,PTH,ComponentDrill
T8C0.0669
; #@! TA.AperFunction,Plated,PTH,ComponentDrill
T9C0.1260
%
G90
G05
T1
X2.7214Y4.3701
X2.7214Y4.4173
X2.7214Y4.4685
X2.7214Y4.5118
X2.7686Y4.3701
X2.7686Y4.4173
X2.7686Y4.4685
X2.7686Y4.5118
T2
X1.8031Y3.5315
X1.8031Y3.561
X1.8031Y3.5886
X1.8031Y3.6181
X1.8031Y3.6476
X1.8031Y3.6772
X1.8031Y3.7067
X1.8031Y3.7362
X1.8031Y3.7657
X1.8031Y3.7953
X1.8031Y3.8248
X1.8031Y3.8543
X1.8031Y3.8839
X1.8031Y3.9134
X1.8075Y4.887
X1.8075Y4.9185
X1.8268Y5.5748
X1.8268Y5.6142
X1.8268Y5.6535
X1.8268Y5.6929
X1.8268Y5.7323
X1.8268Y5.7717
X1.8268Y5.811
X1.8268Y5.8504
X1.8346Y3.5315
X1.8346Y3.561
X1.8346Y3.5886
X1.8346Y3.6181
X1.8346Y3.6476
X1.8346Y3.6772
X1.8346Y3.7067
X1.8346Y3.7362
X1.8346Y3.7657
X1.8346Y3.7953
X1.8346Y3.8248
X1.8346Y3.8543
X1.8346Y3.8839
X1.8346Y3.9134
X1.839Y4.887
X1.839Y4.9185
X1.8661Y5.5748
X1.8661Y5.6142
X1.8661Y5.6535
X1.8661Y5.6929
X1.8661Y5.7323
X1.8661Y5.7717
X1.8661Y5.811
X1.8661Y5.8504
X1.8713Y4.4732
X1.8713Y4.5047
X1.8819Y3.0669
X1.8819Y3.1063
X1.8819Y3.1457
X1.8819Y3.185
X1.8819Y3.2244
X1.8819Y3.2638
X1.8819Y3.3031
X1.8819Y3.3425
X1.8819Y3.3819
X1.9028Y4.4732
X1.9028Y4.5047
X1.9173Y3.0669
X1.9173Y3.1063
X1.9173Y3.1457
X1.9173Y3.185
X1.9173Y3.2244
X1.9173Y3.2638
X1.9173Y3.3031
X1.9173Y3.3425
X1.9173Y3.3819
X2.0394Y5.5748
X2.0394Y5.6142
X2.0394Y5.6535
X2.0394Y5.6929
X2.0394Y5.7323
X2.0394Y5.7717
X2.0394Y5.811
X2.0394Y5.8504
X2.0787Y5.5748
X2.0787Y5.6142
X2.0787Y5.6535
X2.0787Y5.6929
X2.0787Y5.7323
X2.0787Y5.7717
X2.0787Y5.811
X2.0787Y5.8504
X2.0807Y3.3268
X2.1098Y3.7244
X2.1181Y5.5748
X2.1181Y5.6142
X2.1181Y5.6535
X2.1181Y5.6929
X2.1181Y5.7323
X2.1181Y5.7717
X2.1181Y5.811
X2.1181Y5.8504
X2.122Y6.122
X2.122Y6.1614
X2.122Y6.2008
X2.122Y6.2402
X2.1248Y3.5193
X2.1299Y3.6614
X2.1299Y3.6929
X2.1343Y4.2409
X2.1343Y4.2724
X2.1575Y4.0079
X2.1575Y5.5748
X2.1575Y5.6142
X2.1575Y5.6535
X2.1575Y5.6929
X2.1575Y5.7323
X2.1575Y5.7717
X2.1575Y5.811
X2.1575Y5.8504
X2.1614Y3.6614
X2.1614Y3.6929
X2.1614Y6.122
X2.1614Y6.1614
X2.1614Y6.2008
X2.1614Y6.2402
X2.1657Y4.2409
X2.1657Y4.2724
X2.1732Y3.4626
X2.1831Y3.2244
X2.185Y2.9508
X2.1929Y3.8957
X2.1969Y5.5748
X2.1969Y5.6142
X2.1969Y5.6535
X2.1969Y5.6929
X2.1969Y5.7323
X2.1969Y5.7717
X2.1969Y5.811
X2.1969Y5.8504
X2.2008Y6.122
X2.2008Y6.1614
X2.2008Y6.2008
X2.2008Y6.2402
X2.2185Y4.9122
X2.2185Y4.9516
X2.2185Y4.9909
X2.2205Y3.8957
X2.2402Y6.122
X2.2402Y6.1614
X2.2402Y6.2008
X2.2402Y6.2402
X2.251Y3.6624
X2.251Y3.6939
X2.2579Y4.9122
X2.2579Y4.9516
X2.2579Y4.9909
X2.2795Y6.122
X2.2795Y6.1614
X2.2795Y6.2008
X2.2795Y6.2402
X2.2825Y3.6624
X2.2825Y3.6939
X2.2972Y4.9122
X2.2972Y4.9516
X2.2972Y4.9909
X2.3031Y3.9793
X2.3031Y4.0108
X2.3346Y3.9793
X2.3346Y4.0108
X2.375Y4.0167
X2.4016Y3.6969
X2.4114Y3.3957
X2.4358Y3.0752
X2.4409Y3.6969
X2.4634Y5.6886
X2.4803Y3.6969
X2.4854Y5.6591
X2.4941Y3.4547
X2.5079Y2.9134
X2.5122Y3.0752
X2.5197Y3.6969
X2.5201Y4.7465
X2.5201Y4.7858
X2.5472Y2.752
X2.5472Y2.7913
X2.5472Y2.8307
X2.5551Y3.6378
X2.5581Y5.7384
X2.5591Y3.6969
X2.5594Y4.7465
X2.5594Y4.7858
X2.5713Y4.4831
X2.5728Y4.3157
X2.5728Y4.4035
X2.5827Y2.752
X2.5827Y2.7913
X2.5827Y2.8307
X2.5846Y4.8696
X2.5984Y3.6969
X2.626Y2.752
X2.626Y2.7913
X2.626Y2.8307
X2.6276Y5.7925
X2.6276Y5.9866
X2.628Y5.6693
X2.6319Y3.3976
X2.6378Y3.6969
X2.6614Y2.752
X2.6614Y2.7913
X2.6614Y2.8307
X2.6638Y4.6703
X2.6642Y4.1421
X2.6673Y3.3976
X2.6772Y3.6969
X2.6835Y3.489
X2.6835Y3.539
X2.6854Y4.3142
X2.687Y2.9331
X2.689Y3.7598
X2.689Y3.7992
X2.689Y3.8386
X2.689Y3.878
X2.689Y3.9173
X2.689Y3.9567
X2.689Y3.9961
X2.689Y4.0354
X2.7067Y3.5669
X2.7067Y3.5965
X2.711Y4.7681
X2.7126Y3.2283
X2.7224Y3.2683
X2.7228Y4.572
X2.7362Y3.5669
X2.7362Y3.5965
X2.7606Y4.7571
X2.7606Y4.7965
X2.8Y4.7571
X2.8Y4.7965
X2.8031Y5.4567
X2.8031Y5.4961
X2.8327Y5.6703
X2.8343Y4.3066
X2.8406Y3.9807
X2.8406Y4.0201
X2.8425Y5.4567
X2.8425Y5.4961
X2.8602Y4.5673
X2.8642Y4.276
X2.8681Y2.9331
X2.876Y3.9807
X2.876Y4.0201
X2.8819Y5.4567
X2.8819Y5.4961
X2.8917Y2.9685
X2.8957Y3.5039
X2.8965Y3.4134
X2.9035Y3.6752
X2.9055Y3.0906
X2.915Y4.1386
X2.9169Y4.5677
X2.9173Y2.752
X2.9173Y2.7913
X2.9213Y5.4567
X2.9213Y5.4961
X2.9232Y4.3894
X2.924Y4.3421
X2.937Y3.0906
X2.9502Y2.84
X2.9528Y2.752
X2.9528Y2.7913
X2.9531Y4.1358
X2.963Y4.2728
X2.9646Y5.7106
X2.9961Y2.752
X2.9961Y2.7913
X2.9961Y5.7106
X3.0315Y2.752
X3.0315Y2.7913
X3.0315Y2.8307
X3.0437Y2.6329
X3.0461Y4.2657
X3.0685Y3.5067
X3.0728Y3.4232
X3.0748Y2.752
X3.0748Y2.7913
X3.0748Y2.8307
X3.0752Y5.9866
X3.0783Y4.5394
X3.0783Y4.5787
X3.102Y3.7291
X3.1024Y3.565
X3.1024Y3.5945
X3.1071Y3.639
X3.1075Y3.689
X3.1102Y2.752
X3.1102Y2.7913
X3.1102Y2.8307
X3.1161Y3.8496
X3.1161Y3.889
X3.1161Y3.9744
X3.1161Y4.0138
X3.1177Y4.5394
X3.1177Y4.5787
X3.1181Y5.4567
X3.1181Y5.4961
X3.1201Y3.3563
X3.137Y4.1453
X3.1516Y3.8496
X3.1516Y3.889
X3.1516Y3.9744
X3.1516Y4.0138
X3.1575Y5.4567
X3.1575Y5.4961
X3.176Y4.1331
X3.185Y6.122
X3.185Y6.1614
X3.185Y6.2008
X3.185Y6.2402
X3.1969Y5.4567
X3.1969Y5.4961
X3.2012Y4.3358
X3.2012Y4.3752
X3.2106Y3.2323
X3.2106Y3.2717
X3.2178Y3.0334
X3.2244Y6.122
X3.2244Y6.1614
X3.2244Y6.2008
X3.2244Y6.2402
X3.2323Y3.5295
X3.2343Y3.6693
X3.2362Y5.4567
X3.2362Y5.4961
X3.2406Y4.3358
X3.2406Y4.3752
X3.2461Y3.2323
X3.2461Y3.2717
X3.2539Y3.3661
X3.2598Y3.4213
X3.2598Y3.5531
X3.2598Y3.6142
X3.2638Y6.122
X3.2638Y6.1614
X3.2638Y6.2008
X3.2638Y6.2402
X3.3031Y6.122
X3.3031Y6.1614
X3.3031Y6.2008
X3.3031Y6.2402
X3.311Y4.6102
X3.311Y4.6496
X3.311Y4.689
X3.311Y4.7283
X3.311Y4.7677
X3.311Y4.8071
X3.311Y4.8465
X3.311Y4.8858
X3.311Y4.9252
X3.311Y4.9646
X3.311Y5.0039
X3.311Y5.0433
X3.3307Y3.5413
X3.3315Y4.4453
X3.3374Y3.0681
X3.3382Y3.1181
X3.3425Y6.122
X3.3425Y6.1614
X3.3425Y6.2008
X3.3425Y6.2402
X3.3504Y4.6102
X3.3504Y4.6496
X3.3504Y4.689
X3.3504Y4.7283
X3.3504Y4.7677
X3.3504Y4.8071
X3.3504Y4.8465
X3.3504Y4.8858
X3.3504Y4.9252
X3.3504Y4.9646
X3.3504Y5.0039
X3.3504Y5.0433
X3.3654Y3.7705
X3.3739Y3.6085
X3.378Y4.5354
X3.3898Y4.6102
X3.3898Y4.6496
X3.3898Y4.689
X3.3898Y4.7283
X3.3898Y4.7677
X3.3898Y4.8071
X3.3898Y4.8465
X3.3898Y4.8858
X3.3898Y4.9252
X3.3898Y4.9646
X3.3898Y5.0039
X3.3898Y5.0433
X3.4016Y5.4567
X3.4016Y5.4961
X3.4024Y3.58
X3.4173Y4.5354
X3.4315Y3.552
X3.4329Y4.5628
X3.4386Y3.674
X3.4409Y5.4567
X3.4409Y5.4961
X3.4563Y3.4551
X3.4685Y4.6102
X3.4685Y4.6496
X3.4685Y4.689
X3.4685Y4.7283
X3.4685Y4.7677
X3.4685Y4.8071
X3.4685Y4.8465
X3.4685Y4.8858
X3.4685Y4.9252
X3.4685Y4.9646
X3.4685Y5.0039
X3.4685Y5.0433
X3.4694Y3.7894
X3.4724Y3.5846
X3.4803Y5.4567
X3.4803Y5.4961
X3.4902Y3.0315
X3.4902Y3.6533
X3.4925Y4.0343
X3.4925Y4.0736
X3.4961Y3.1043
X3.498Y3.2854
X3.498Y3.313
X3.498Y3.3406
X3.5009Y3.7894
X3.5024Y4.376
X3.5079Y4.6102
X3.5079Y4.6496
X3.5079Y4.689
X3.5079Y4.7283
X3.5079Y4.7677
X3.5079Y4.8071
X3.5079Y4.8465
X3.5079Y4.8858
X3.5079Y4.9252
X3.5079Y4.9646
X3.5079Y5.0039
X3.5079Y5.0433
X3.5197Y3.4488
X3.5197Y5.4567
X3.5197Y5.4961
X3.5256Y3.2854
X3.5256Y3.313
X3.5256Y3.3406
X3.528Y4.0343
X3.528Y4.0736
X3.5325Y4.3348
X3.533Y3.7894
X3.5371Y4.4528
X3.5384Y4.4892
X3.5441Y5.6911
X3.5472Y4.6102
X3.5472Y4.6496
X3.5472Y4.689
X3.5472Y4.7283
X3.5472Y4.7677
X3.5472Y4.8071
X3.5472Y4.8465
X3.5472Y4.8858
X3.5472Y4.9252
X3.5472Y4.9646
X3.5472Y5.0039
X3.5472Y5.0433
X3.5531Y3.2854
X3.5531Y3.313
X3.5531Y3.3406
X3.5591Y5.4567
X3.5591Y5.4961
X3.5622Y3.6902
X3.5654Y5.6579
X3.5659Y3.7894
X3.5846Y2.9094
X3.5856Y3.6496
X3.5945Y2.9606
X3.5984Y5.4567
X3.5984Y5.4961
X3.601Y3.6998
X3.6024Y3.3593
X3.6106Y3.8047
X3.6181Y3.1299
X3.6252Y3.9535
X3.6264Y3.9142
X3.6378Y5.4567
X3.6378Y5.4961
X3.639Y5.7354
X3.6413Y4.7035
X3.6433Y3.8303
X3.6445Y4.3787
X3.6457Y4.1457
X3.6457Y4.1939
X3.6457Y4.2451
X3.6484Y3.461
X3.6575Y4.4124
X3.6589Y4.0005
X3.661Y3.6185
X3.6638Y3.3984
X3.6667Y4.4636
X3.6772Y5.4567
X3.6772Y5.4961
X3.6803Y3.252
X3.6837Y3.5317
X3.6886Y3.6185
X3.7106Y5.8024
X3.7106Y5.9252
X3.7126Y4.3929
X3.7148Y3.2677
X3.716Y3.5415
X3.7161Y3.6185
X3.7185Y5.6559
X3.7197Y3.3967
X3.7437Y3.6185
X3.7441Y5.3898
X3.7441Y5.4291
X3.7575Y4.3071
X3.7615Y3.5174
X3.7657Y3.8795
X3.7677Y4.252
X3.7689Y4.0126
X3.7713Y3.6185
X3.7736Y3.3967
X3.7768Y4.3612
X3.782Y3.5434
X3.7835Y5.3898
X3.7835Y5.4291
X3.7874Y4.1298
X3.7988Y3.6185
X3.8228Y5.3898
X3.8228Y5.4291
X3.8287Y3.5524
X3.8346Y3.2402
X3.8356Y3.2726
X3.8441Y4.0169
X3.8563Y3.5524
X3.8575Y3.4327
X3.8622Y5.3898
X3.8622Y5.4291
X3.877Y4.4252
X3.8815Y5.6185
X3.8818Y4.1315
X3.8843Y3.8567
X3.8843Y3.8961
X3.8898Y3.6772
X3.8898Y3.7047
X3.8992Y3.3055
X3.8992Y3.3449
X3.9016Y5.3898
X3.9016Y5.4291
X3.9085Y5.6705
X3.9087Y4.0295
X3.9091Y4.078
X3.9173Y3.7047
X3.9197Y3.8567
X3.9197Y3.8961
X3.9346Y3.3055
X3.9346Y3.3449
X3.9409Y5.3898
X3.9409Y5.4291
X3.9465Y4.1307
X3.9594Y4.1654
X3.963Y5.2587
X3.9697Y4.3811
X3.9803Y5.3898
X3.9803Y5.4291
X3.9862Y3.685
X3.9867Y5.2081
X4.0098Y3.2508
X4.0098Y3.2902
X4.0098Y3.3756
X4.0098Y3.415
X4.0177Y3.685
X4.0197Y5.3898
X4.0197Y5.4291
X4.0335Y3.5443
X4.0453Y3.2508
X4.0453Y3.2902
X4.0453Y3.3756
X4.0453Y3.415
X4.0492Y3.685
X4.0567Y5.7083
X4.0591Y5.3898
X4.0591Y5.4291
X4.0606Y5.9858
X4.085Y3.6457
X4.085Y4.137
X4.0882Y5.7083
X4.0984Y5.3898
X4.0984Y5.4291
X4.1138Y5.0348
X4.1319Y3.5059
X4.135Y4.9508
X4.1378Y5.3898
X4.1378Y5.4291
X4.1409Y5.1535
X4.1457Y4.1358
X4.1547Y5.0348
X4.1547Y5.0906
X4.1567Y5.9866
X4.1772Y2.7933
X4.1772Y2.8307
X4.1772Y2.8701
X4.1772Y5.3898
X4.1772Y5.4291
X4.1858Y3.8118
X4.2047Y4.0827
X4.2122Y5.0925
X4.2126Y2.7933
X4.2126Y2.8307
X4.2126Y2.8701
X4.2165Y5.3898
X4.2165Y5.4291
X4.2169Y5.2744
X4.2417Y5.3325
X4.2441Y5.0921
X4.2559Y2.7933
X4.2559Y2.8307
X4.2559Y2.8701
X4.2559Y5.3898
X4.2559Y5.4291
X4.2565Y3.2695
X4.2626Y4.6146
X4.2628Y3.5413
X4.2628Y3.6831
X4.2673Y5.1567
X4.2874Y6.122
X4.2874Y6.1614
X4.2874Y6.2008
X4.2874Y6.2402
X4.2894Y3.5807
X4.2913Y2.7933
X4.2913Y2.8307
X4.2913Y2.8701
X4.2953Y5.3898
X4.2953Y5.4291
X4.3012Y3.6457
X4.3031Y3.815
X4.3031Y3.8543
X4.3031Y3.9331
X4.3031Y3.9724
X4.311Y3.7008
X4.3209Y3.565
X4.3268Y4.1768
X4.3268Y6.122
X4.3268Y6.1614
X4.3268Y6.2008
X4.3268Y6.2402
X4.3346Y2.752
X4.3346Y2.7913
X4.3346Y2.8307
X4.3346Y2.8701
X4.3346Y5.3898
X4.3346Y5.4291
X4.3386Y3.815
X4.3386Y3.8543
X4.3386Y3.9331
X4.3386Y3.9724
X4.3567Y3.2695
X4.3661Y6.122
X4.3661Y6.1614
X4.3661Y6.2008
X4.3661Y6.2402
X4.3701Y2.752
X4.3701Y2.7913
X4.3701Y2.8307
X4.3701Y2.8701
X4.378Y3.6732
X4.3819Y3.815
X4.3819Y3.8543
X4.3819Y3.9331
X4.3819Y3.9724
X4.3839Y3.5846
X4.4055Y3.4921
X4.4055Y6.122
X4.4055Y6.1614
X4.4055Y6.2008
X4.4055Y6.2402
X4.4134Y3.1457
X4.4134Y3.185
X4.4134Y3.2244
X4.4134Y3.2638
X4.4134Y3.3031
X4.4134Y3.3425
X4.4173Y3.815
X4.4173Y3.8543
X4.4173Y3.9331
X4.4173Y3.9724
X4.4356Y4.635
X4.4356Y4.6744
X4.4356Y4.7137
X4.4356Y4.7531
X4.4449Y6.122
X4.4449Y6.1614
X4.4449Y6.2008
X4.4449Y6.2402
X4.4488Y3.1457
X4.4488Y3.185
X4.4488Y3.2244
X4.4488Y3.2638
X4.4488Y3.3031
X4.4488Y3.3425
X4.4567Y3.6654
X4.4642Y5.263
X4.475Y4.635
X4.475Y4.6744
X4.475Y4.7137
X4.475Y4.7531
X4.4843Y3.5866
X4.4921Y3.2244
X4.4921Y3.2638
X4.4921Y3.3031
X4.4921Y3.3425
X4.5Y5.3898
X4.5Y5.4291
X4.5276Y3.2244
X4.5276Y3.2638
X4.5276Y3.3031
X4.5276Y3.3425
X4.5394Y5.3898
X4.5394Y5.4291
X4.5433Y3.6673
X4.5555Y5.2744
X4.5729Y5.2081
X4.5787Y5.3898
X4.5787Y5.4291
X4.5835Y3.2689
X4.5966Y3.7505
X4.5984Y3.935
X4.6181Y3.6654
X4.6181Y4.0846
X4.6181Y5.3898
X4.6181Y5.4291
X4.6193Y4.1618
X4.6301Y5.6872
X4.6331Y3.5839
X4.6346Y3.7504
X4.6523Y5.6579
X4.6575Y5.3898
X4.6575Y5.4291
X4.6614Y3.6339
X4.6752Y4.0236
X4.6831Y3.2689
X4.6969Y5.3898
X4.6969Y5.4291
X4.7079Y5.0234
X4.7189Y3.463
X4.7197Y5.7335
X4.7252Y4.9437
X4.7272Y5.1569
X4.7362Y3.0669
X4.7362Y3.1063
X4.7362Y3.1457
X4.7362Y3.185
X4.7362Y3.2244
X4.7362Y3.2638
X4.7362Y3.3031
X4.7362Y3.3425
X4.7362Y5.3898
X4.7362Y5.4291
X4.7401Y5.1231
X4.7406Y5.0234
X4.7406Y5.0736
X4.7717Y3.0669
X4.7717Y3.1063
X4.7717Y3.1457
X4.7717Y3.185
X4.7717Y3.2244
X4.7717Y3.2638
X4.7717Y3.3031
X4.7717Y3.3425
X4.7756Y5.3898
X4.7756Y5.4291
X4.7902Y5.6579
X4.7933Y3.6909
X4.7947Y5.76
X4.8004Y5.2744
X4.815Y3.0669
X4.815Y3.1063
X4.815Y3.1457
X4.815Y3.185
X4.815Y3.2244
X4.815Y3.2638
X4.815Y3.3031
X4.815Y3.3425
X4.815Y5.3898
X4.815Y5.4291
X4.8197Y3.6047
X4.826Y5.087
X4.8278Y5.9573
X4.8504Y3.0669
X4.8504Y3.1063
X4.8504Y3.1457
X4.8504Y3.185
X4.8504Y3.2244
X4.8504Y3.2638
X4.8504Y3.3031
X4.8504Y3.3425
X4.8531Y4.6126
X4.8535Y5.087
X4.8543Y5.3898
X4.8543Y5.4291
X4.8626Y5.1569
X4.8736Y3.9232
X4.8736Y3.9587
X4.8937Y5.3898
X4.8937Y5.4291
X4.9051Y3.9232
X4.9051Y3.9587
X4.9094Y3.2685
X4.9197Y3.6055
X4.9335Y3.4866
X4.9524Y3.9232
X4.9524Y3.9587
X4.9528Y3.7264
X4.9528Y3.7618
X4.9528Y3.7972
X4.9571Y3.3315
X4.9598Y4.1579
X4.9839Y3.9232
X4.9839Y3.9587
X4.9843Y3.7264
X4.9843Y3.7618
X4.9843Y3.7972
X4.9913Y5.6705
X5.0094Y3.2685
X5.035Y3.9232
X5.035Y3.9587
X5.0354Y3.7264
X5.0354Y3.7618
X5.0354Y3.7972
X5.0356Y4.6356
X5.0356Y4.675
X5.0356Y4.7144
X5.0356Y4.7537
X5.0512Y5.3898
X5.0512Y5.4291
X5.0598Y3.2689
X5.0598Y3.3083
X5.0665Y3.9232
X5.0665Y3.9587
X5.0669Y3.7264
X5.0669Y3.7618
X5.0669Y3.7972
X5.075Y4.6356
X5.075Y4.675
X5.075Y4.7144
X5.075Y4.7537
X5.0906Y5.3898
X5.0906Y5.4291
X5.1094Y3.2685
X5.1142Y3.7264
X5.1142Y3.7618
X5.1142Y3.7972
X5.1299Y5.3898
X5.1299Y5.4291
X5.137Y5.9866
X5.1402Y5.7071
X5.1457Y3.7264
X5.1457Y3.7618
X5.1457Y3.7972
X5.1602Y5.2744
X5.1614Y2.7913
X5.1614Y2.8307
X5.1614Y2.8701
X5.1614Y2.9094
X5.1614Y2.9488
X5.1614Y2.9882
X5.1614Y3.0276
X5.1614Y3.0669
X5.1614Y3.1063
X5.1614Y3.1457
X5.1614Y3.185
X5.1614Y3.2244
X5.1614Y3.2638
X5.1614Y3.3031
X5.1614Y3.3425
X5.1614Y3.3819
X5.1693Y5.3898
X5.1693Y5.4291
X5.1717Y5.7071
X5.1719Y5.2081
X5.1969Y2.7913
X5.1969Y2.8307
X5.1969Y2.8701
X5.1969Y2.9094
X5.1969Y2.9488
X5.1969Y2.9882
X5.1969Y3.0276
X5.1969Y3.0669
X5.1969Y3.1063
X5.1969Y3.1457
X5.1969Y3.185
X5.1969Y3.2244
X5.1969Y3.2638
X5.1969Y3.3031
X5.1969Y3.3425
X5.1969Y3.3819
X5.2087Y5.3898
X5.2087Y5.4291
X5.2362Y5.9866
X5.2402Y2.7913
X5.2402Y2.8307
X5.2402Y2.8701
X5.2402Y2.9094
X5.2402Y2.9488
X5.2402Y2.9882
X5.2402Y3.0276
X5.2402Y3.0669
X5.2402Y3.1063
X5.2402Y3.1457
X5.2402Y3.185
X5.2402Y3.2244
X5.2402Y3.2638
X5.2402Y3.3031
X5.2402Y3.3425
X5.2402Y3.3819
X5.2421Y3.9469
X5.248Y5.3898
X5.248Y5.4291
X5.2717Y6.126
X5.2717Y6.1654
X5.2717Y6.2047
X5.2717Y6.2441
X5.2756Y2.7913
X5.2756Y2.8307
X5.2756Y2.8701
X5.2756Y2.9094
X5.2756Y2.9488
X5.2756Y2.9882
X5.2756Y3.0276
X5.2756Y3.0669
X5.2756Y3.1063
X5.2756Y3.1457
X5.2756Y3.185
X5.2756Y3.2244
X5.2756Y3.2638
X5.2756Y3.3031
X5.2756Y3.3425
X5.2756Y3.3819
X5.2795Y3.9004
X5.2874Y5.3898
X5.2874Y5.4291
X5.2969Y5.0226
X5.2972Y3.6024
X5.2972Y3.6299
X5.311Y6.126
X5.311Y6.1654
X5.311Y6.2047
X5.311Y6.2441
X5.315Y4.937
X5.3169Y3.8327
X5.3248Y3.6024
X5.3248Y3.6299
X5.326Y5.1472
X5.3268Y5.3898
X5.3268Y5.4291
X5.3283Y5.0226
X5.3283Y5.0719
X5.3504Y6.126
X5.3504Y6.1654
X5.3504Y6.2047
X5.3504Y6.2441
X5.3661Y5.3898
X5.3661Y5.4291
X5.3898Y6.126
X5.3898Y6.1654
X5.3898Y6.2047
X5.3898Y6.2441
X5.4055Y5.3898
X5.4055Y5.4291
X5.4244Y4.2512
X5.4244Y4.2906
X5.4244Y4.3299
X5.4244Y4.3693
X5.4291Y6.126
X5.4291Y6.1654
X5.4291Y6.2047
X5.4291Y6.2441
X5.4354Y5.0693
X5.4449Y5.3898
X5.4449Y5.4291
X5.4453Y4.6142
X5.4524Y5.1569
X5.4638Y4.2512
X5.4638Y4.2906
X5.4638Y4.3299
X5.4638Y4.3693
X5.4654Y5.0697
X5.4862Y5.2465
X5.5224Y5.2933
X5.6319Y3.874
X5.6319Y3.9134
X5.6319Y3.9528
X5.6339Y3.3622
X5.6339Y3.4016
X5.6339Y3.4409
X5.6339Y3.4803
X5.6339Y3.5197
X5.6339Y3.5591
X5.6339Y3.5984
X5.6339Y3.6378
X5.6339Y3.6772
X5.6339Y3.7165
X5.6339Y3.7559
X5.6339Y3.7953
X5.6339Y3.8346
X5.6673Y3.874
X5.6673Y3.9134
X5.6673Y3.9528
X5.6693Y3.3622
X5.6693Y3.4016
X5.6693Y3.4409
X5.6693Y3.4803
X5.6693Y3.5197
X5.6693Y3.5591
X5.6693Y3.5984
X5.6693Y3.6378
X5.6693Y3.6772
X5.6693Y3.7165
X5.6693Y3.7559
X5.6693Y3.7953
X5.6693Y3.8346
T3
X1.8858Y4.7232
X1.8858Y4.9594
X1.9843Y4.7232
X1.9843Y4.9594
X2.0827Y4.7232
X2.0827Y4.9594
T4
X1.9213Y2.7376
X1.9213Y2.8376
X1.9213Y5.2008
X1.9213Y5.3008
X2.2122Y3.0157
X2.3122Y3.0157
X2.4122Y3.0157
X2.5122Y3.0157
X2.5591Y2.6772
X2.6136Y2.5654
X2.6681Y2.6772
X2.7226Y2.5654
X2.7772Y2.6772
X2.8317Y2.5654
X2.8862Y2.6772
X2.9407Y2.5654
X2.9953Y2.6772
X3.0691Y4.6703
X3.1691Y4.6703
X3.7465Y3.0955
X3.8465Y3.0955
X3.9465Y3.0955
X4.0126Y3.8898
X4.0126Y3.9898
X4.1126Y3.8898
X4.1126Y3.9898
X4.2126Y3.8898
X4.2126Y3.9898
X4.485Y2.6772
X4.5079Y3.7913
X4.5079Y3.8913
X4.5079Y3.9913
X4.5396Y2.5654
X4.5941Y2.6772
X4.6486Y2.5654
X4.7031Y2.6772
X4.7577Y2.5654
X4.8122Y2.6772
X4.8667Y2.5654
X4.9213Y2.6772
T5
X3.0071Y3.8248
X3.0071Y4.002
X3.263Y3.8248
X3.263Y4.002
T6
X5.5236Y3.1496
T7
X2.5559Y6.1398
X2.7559Y6.1398
X3.6386Y6.1398
X3.6417Y2.5197
X3.8386Y6.1398
X3.8417Y2.5197
X4.7213Y6.1398
X4.9213Y6.1398
T8
X5.4236Y3.0496
X5.4236Y3.2496
X5.6236Y3.0496
X5.6236Y3.2496
T9
X1.8917Y2.4823
X1.8917Y6.1791
X2.285Y2.5654
X3.2693Y2.5654
X4.211Y2.5654
X5.1953Y2.5654
X5.5886Y2.4823
X5.5886Y6.1791
T4
G00X1.9291Y4.3307
M15
G01X1.9291Y4.4094
M16
G05
G00X2.0079Y4.5551
M15
G01X2.0866Y4.5551
M16
G05
G00X2.1654Y4.3307
M15
G01X2.1654Y4.4094
M16
G05
M30
