%TF.GenerationSoftware,KiCad,Pcbnew,8.0.3*%
%TF.CreationDate,2024-12-27T09:44:35+08:00*%
%TF.ProjectId,Explorer,4578706c-6f72-4657-922e-6b696361645f,rev?*%
%TF.SameCoordinates,Original*%
%TF.FileFunction,Drillmap*%
%TF.FilePolarity,Positive*%
%FSLAX45Y45*%
G04 Gerber Fmt 4.5, Leading zero omitted, Abs format (unit mm)*
G04 Created by KiCad (PCBNEW 8.0.3) date 2024-12-27 09:44:35*
%MOMM*%
%LPD*%
G01*
G04 APERTURE LIST*
%ADD10C,0.100000*%
%ADD11C,0.200000*%
%ADD12C,0.320000*%
G04 APERTURE END LIST*
D10*
X14500000Y-15700000D02*
G75*
G02*
X14200000Y-16000000I-300000J0D01*
G01*
X4800000Y-16000000D02*
X14200000Y-16000000D01*
X14200000Y-6000000D02*
X4800000Y-6000000D01*
X14200000Y-6000000D02*
G75*
G02*
X14500000Y-6300000I0J-300000D01*
G01*
X4500000Y-6300000D02*
X4500000Y-15700000D01*
X14500000Y-15700000D02*
X14500000Y-6300000D01*
X4500000Y-6300000D02*
G75*
G02*
X4800000Y-6000000I300000J0D01*
G01*
X4800000Y-16000000D02*
G75*
G02*
X4500000Y-15700000I0J300000D01*
G01*
D11*
D12*
X4645000Y-6145000D02*
X4965000Y-6465000D01*
X4965000Y-6145000D02*
X4645000Y-6465000D01*
X4645000Y-15535000D02*
X4965000Y-15855000D01*
X4965000Y-15535000D02*
X4645000Y-15855000D01*
X14035000Y-6145000D02*
X14355000Y-6465000D01*
X14355000Y-6145000D02*
X14035000Y-6465000D01*
X14035000Y-15535000D02*
X14355000Y-15855000D01*
X14355000Y-15535000D02*
X14035000Y-15855000D01*
D11*
X4755777Y-16316484D02*
X4755777Y-16116484D01*
X4755777Y-16116484D02*
X4803396Y-16116484D01*
X4803396Y-16116484D02*
X4831967Y-16126008D01*
X4831967Y-16126008D02*
X4851015Y-16145055D01*
X4851015Y-16145055D02*
X4860539Y-16164103D01*
X4860539Y-16164103D02*
X4870063Y-16202198D01*
X4870063Y-16202198D02*
X4870063Y-16230769D01*
X4870063Y-16230769D02*
X4860539Y-16268865D01*
X4860539Y-16268865D02*
X4851015Y-16287912D01*
X4851015Y-16287912D02*
X4831967Y-16306960D01*
X4831967Y-16306960D02*
X4803396Y-16316484D01*
X4803396Y-16316484D02*
X4755777Y-16316484D01*
X4955777Y-16316484D02*
X4955777Y-16183150D01*
X4955777Y-16221246D02*
X4965301Y-16202198D01*
X4965301Y-16202198D02*
X4974824Y-16192674D01*
X4974824Y-16192674D02*
X4993872Y-16183150D01*
X4993872Y-16183150D02*
X5012920Y-16183150D01*
X5079586Y-16316484D02*
X5079586Y-16183150D01*
X5079586Y-16116484D02*
X5070063Y-16126008D01*
X5070063Y-16126008D02*
X5079586Y-16135531D01*
X5079586Y-16135531D02*
X5089110Y-16126008D01*
X5089110Y-16126008D02*
X5079586Y-16116484D01*
X5079586Y-16116484D02*
X5079586Y-16135531D01*
X5203396Y-16316484D02*
X5184348Y-16306960D01*
X5184348Y-16306960D02*
X5174824Y-16287912D01*
X5174824Y-16287912D02*
X5174824Y-16116484D01*
X5308158Y-16316484D02*
X5289110Y-16306960D01*
X5289110Y-16306960D02*
X5279586Y-16287912D01*
X5279586Y-16287912D02*
X5279586Y-16116484D01*
X5536729Y-16316484D02*
X5536729Y-16116484D01*
X5536729Y-16116484D02*
X5603396Y-16259341D01*
X5603396Y-16259341D02*
X5670062Y-16116484D01*
X5670062Y-16116484D02*
X5670062Y-16316484D01*
X5851015Y-16316484D02*
X5851015Y-16211722D01*
X5851015Y-16211722D02*
X5841491Y-16192674D01*
X5841491Y-16192674D02*
X5822443Y-16183150D01*
X5822443Y-16183150D02*
X5784348Y-16183150D01*
X5784348Y-16183150D02*
X5765301Y-16192674D01*
X5851015Y-16306960D02*
X5831967Y-16316484D01*
X5831967Y-16316484D02*
X5784348Y-16316484D01*
X5784348Y-16316484D02*
X5765301Y-16306960D01*
X5765301Y-16306960D02*
X5755777Y-16287912D01*
X5755777Y-16287912D02*
X5755777Y-16268865D01*
X5755777Y-16268865D02*
X5765301Y-16249817D01*
X5765301Y-16249817D02*
X5784348Y-16240293D01*
X5784348Y-16240293D02*
X5831967Y-16240293D01*
X5831967Y-16240293D02*
X5851015Y-16230769D01*
X5946253Y-16183150D02*
X5946253Y-16383150D01*
X5946253Y-16192674D02*
X5965301Y-16183150D01*
X5965301Y-16183150D02*
X6003396Y-16183150D01*
X6003396Y-16183150D02*
X6022443Y-16192674D01*
X6022443Y-16192674D02*
X6031967Y-16202198D01*
X6031967Y-16202198D02*
X6041491Y-16221246D01*
X6041491Y-16221246D02*
X6041491Y-16278388D01*
X6041491Y-16278388D02*
X6031967Y-16297436D01*
X6031967Y-16297436D02*
X6022443Y-16306960D01*
X6022443Y-16306960D02*
X6003396Y-16316484D01*
X6003396Y-16316484D02*
X5965301Y-16316484D01*
X5965301Y-16316484D02*
X5946253Y-16306960D01*
X6127205Y-16297436D02*
X6136729Y-16306960D01*
X6136729Y-16306960D02*
X6127205Y-16316484D01*
X6127205Y-16316484D02*
X6117682Y-16306960D01*
X6117682Y-16306960D02*
X6127205Y-16297436D01*
X6127205Y-16297436D02*
X6127205Y-16316484D01*
X6127205Y-16192674D02*
X6136729Y-16202198D01*
X6136729Y-16202198D02*
X6127205Y-16211722D01*
X6127205Y-16211722D02*
X6117682Y-16202198D01*
X6117682Y-16202198D02*
X6127205Y-16192674D01*
X6127205Y-16192674D02*
X6127205Y-16211722D01*
X4295000Y-16545000D02*
X4495000Y-16745000D01*
X4495000Y-16545000D02*
X4295000Y-16745000D01*
X4736729Y-16536484D02*
X4860539Y-16536484D01*
X4860539Y-16536484D02*
X4793872Y-16612674D01*
X4793872Y-16612674D02*
X4822444Y-16612674D01*
X4822444Y-16612674D02*
X4841491Y-16622198D01*
X4841491Y-16622198D02*
X4851015Y-16631722D01*
X4851015Y-16631722D02*
X4860539Y-16650769D01*
X4860539Y-16650769D02*
X4860539Y-16698388D01*
X4860539Y-16698388D02*
X4851015Y-16717436D01*
X4851015Y-16717436D02*
X4841491Y-16726960D01*
X4841491Y-16726960D02*
X4822444Y-16736484D01*
X4822444Y-16736484D02*
X4765301Y-16736484D01*
X4765301Y-16736484D02*
X4746253Y-16726960D01*
X4746253Y-16726960D02*
X4736729Y-16717436D01*
X4946253Y-16717436D02*
X4955777Y-16726960D01*
X4955777Y-16726960D02*
X4946253Y-16736484D01*
X4946253Y-16736484D02*
X4936729Y-16726960D01*
X4936729Y-16726960D02*
X4946253Y-16717436D01*
X4946253Y-16717436D02*
X4946253Y-16736484D01*
X5031967Y-16555531D02*
X5041491Y-16546008D01*
X5041491Y-16546008D02*
X5060539Y-16536484D01*
X5060539Y-16536484D02*
X5108158Y-16536484D01*
X5108158Y-16536484D02*
X5127205Y-16546008D01*
X5127205Y-16546008D02*
X5136729Y-16555531D01*
X5136729Y-16555531D02*
X5146253Y-16574579D01*
X5146253Y-16574579D02*
X5146253Y-16593627D01*
X5146253Y-16593627D02*
X5136729Y-16622198D01*
X5136729Y-16622198D02*
X5022444Y-16736484D01*
X5022444Y-16736484D02*
X5146253Y-16736484D01*
X5270063Y-16536484D02*
X5289110Y-16536484D01*
X5289110Y-16536484D02*
X5308158Y-16546008D01*
X5308158Y-16546008D02*
X5317682Y-16555531D01*
X5317682Y-16555531D02*
X5327205Y-16574579D01*
X5327205Y-16574579D02*
X5336729Y-16612674D01*
X5336729Y-16612674D02*
X5336729Y-16660293D01*
X5336729Y-16660293D02*
X5327205Y-16698388D01*
X5327205Y-16698388D02*
X5317682Y-16717436D01*
X5317682Y-16717436D02*
X5308158Y-16726960D01*
X5308158Y-16726960D02*
X5289110Y-16736484D01*
X5289110Y-16736484D02*
X5270063Y-16736484D01*
X5270063Y-16736484D02*
X5251015Y-16726960D01*
X5251015Y-16726960D02*
X5241491Y-16717436D01*
X5241491Y-16717436D02*
X5231967Y-16698388D01*
X5231967Y-16698388D02*
X5222444Y-16660293D01*
X5222444Y-16660293D02*
X5222444Y-16612674D01*
X5222444Y-16612674D02*
X5231967Y-16574579D01*
X5231967Y-16574579D02*
X5241491Y-16555531D01*
X5241491Y-16555531D02*
X5251015Y-16546008D01*
X5251015Y-16546008D02*
X5270063Y-16536484D01*
X5460539Y-16536484D02*
X5479586Y-16536484D01*
X5479586Y-16536484D02*
X5498634Y-16546008D01*
X5498634Y-16546008D02*
X5508158Y-16555531D01*
X5508158Y-16555531D02*
X5517682Y-16574579D01*
X5517682Y-16574579D02*
X5527205Y-16612674D01*
X5527205Y-16612674D02*
X5527205Y-16660293D01*
X5527205Y-16660293D02*
X5517682Y-16698388D01*
X5517682Y-16698388D02*
X5508158Y-16717436D01*
X5508158Y-16717436D02*
X5498634Y-16726960D01*
X5498634Y-16726960D02*
X5479586Y-16736484D01*
X5479586Y-16736484D02*
X5460539Y-16736484D01*
X5460539Y-16736484D02*
X5441491Y-16726960D01*
X5441491Y-16726960D02*
X5431967Y-16717436D01*
X5431967Y-16717436D02*
X5422444Y-16698388D01*
X5422444Y-16698388D02*
X5412920Y-16660293D01*
X5412920Y-16660293D02*
X5412920Y-16612674D01*
X5412920Y-16612674D02*
X5422444Y-16574579D01*
X5422444Y-16574579D02*
X5431967Y-16555531D01*
X5431967Y-16555531D02*
X5441491Y-16546008D01*
X5441491Y-16546008D02*
X5460539Y-16536484D01*
X5612920Y-16736484D02*
X5612920Y-16603150D01*
X5612920Y-16622198D02*
X5622443Y-16612674D01*
X5622443Y-16612674D02*
X5641491Y-16603150D01*
X5641491Y-16603150D02*
X5670063Y-16603150D01*
X5670063Y-16603150D02*
X5689110Y-16612674D01*
X5689110Y-16612674D02*
X5698634Y-16631722D01*
X5698634Y-16631722D02*
X5698634Y-16736484D01*
X5698634Y-16631722D02*
X5708158Y-16612674D01*
X5708158Y-16612674D02*
X5727205Y-16603150D01*
X5727205Y-16603150D02*
X5755777Y-16603150D01*
X5755777Y-16603150D02*
X5774824Y-16612674D01*
X5774824Y-16612674D02*
X5784348Y-16631722D01*
X5784348Y-16631722D02*
X5784348Y-16736484D01*
X5879586Y-16736484D02*
X5879586Y-16603150D01*
X5879586Y-16622198D02*
X5889110Y-16612674D01*
X5889110Y-16612674D02*
X5908158Y-16603150D01*
X5908158Y-16603150D02*
X5936729Y-16603150D01*
X5936729Y-16603150D02*
X5955777Y-16612674D01*
X5955777Y-16612674D02*
X5965301Y-16631722D01*
X5965301Y-16631722D02*
X5965301Y-16736484D01*
X5965301Y-16631722D02*
X5974824Y-16612674D01*
X5974824Y-16612674D02*
X5993872Y-16603150D01*
X5993872Y-16603150D02*
X6022443Y-16603150D01*
X6022443Y-16603150D02*
X6041491Y-16612674D01*
X6041491Y-16612674D02*
X6051015Y-16631722D01*
X6051015Y-16631722D02*
X6051015Y-16736484D01*
X6441491Y-16526960D02*
X6270063Y-16784103D01*
X6698634Y-16536484D02*
X6717682Y-16536484D01*
X6717682Y-16536484D02*
X6736729Y-16546008D01*
X6736729Y-16546008D02*
X6746253Y-16555531D01*
X6746253Y-16555531D02*
X6755777Y-16574579D01*
X6755777Y-16574579D02*
X6765301Y-16612674D01*
X6765301Y-16612674D02*
X6765301Y-16660293D01*
X6765301Y-16660293D02*
X6755777Y-16698388D01*
X6755777Y-16698388D02*
X6746253Y-16717436D01*
X6746253Y-16717436D02*
X6736729Y-16726960D01*
X6736729Y-16726960D02*
X6717682Y-16736484D01*
X6717682Y-16736484D02*
X6698634Y-16736484D01*
X6698634Y-16736484D02*
X6679586Y-16726960D01*
X6679586Y-16726960D02*
X6670063Y-16717436D01*
X6670063Y-16717436D02*
X6660539Y-16698388D01*
X6660539Y-16698388D02*
X6651015Y-16660293D01*
X6651015Y-16660293D02*
X6651015Y-16612674D01*
X6651015Y-16612674D02*
X6660539Y-16574579D01*
X6660539Y-16574579D02*
X6670063Y-16555531D01*
X6670063Y-16555531D02*
X6679586Y-16546008D01*
X6679586Y-16546008D02*
X6698634Y-16536484D01*
X6851015Y-16717436D02*
X6860539Y-16726960D01*
X6860539Y-16726960D02*
X6851015Y-16736484D01*
X6851015Y-16736484D02*
X6841491Y-16726960D01*
X6841491Y-16726960D02*
X6851015Y-16717436D01*
X6851015Y-16717436D02*
X6851015Y-16736484D01*
X7051015Y-16736484D02*
X6936729Y-16736484D01*
X6993872Y-16736484D02*
X6993872Y-16536484D01*
X6993872Y-16536484D02*
X6974825Y-16565055D01*
X6974825Y-16565055D02*
X6955777Y-16584103D01*
X6955777Y-16584103D02*
X6936729Y-16593627D01*
X7127206Y-16555531D02*
X7136729Y-16546008D01*
X7136729Y-16546008D02*
X7155777Y-16536484D01*
X7155777Y-16536484D02*
X7203396Y-16536484D01*
X7203396Y-16536484D02*
X7222444Y-16546008D01*
X7222444Y-16546008D02*
X7231967Y-16555531D01*
X7231967Y-16555531D02*
X7241491Y-16574579D01*
X7241491Y-16574579D02*
X7241491Y-16593627D01*
X7241491Y-16593627D02*
X7231967Y-16622198D01*
X7231967Y-16622198D02*
X7117682Y-16736484D01*
X7117682Y-16736484D02*
X7241491Y-16736484D01*
X7412920Y-16536484D02*
X7374825Y-16536484D01*
X7374825Y-16536484D02*
X7355777Y-16546008D01*
X7355777Y-16546008D02*
X7346253Y-16555531D01*
X7346253Y-16555531D02*
X7327206Y-16584103D01*
X7327206Y-16584103D02*
X7317682Y-16622198D01*
X7317682Y-16622198D02*
X7317682Y-16698388D01*
X7317682Y-16698388D02*
X7327206Y-16717436D01*
X7327206Y-16717436D02*
X7336729Y-16726960D01*
X7336729Y-16726960D02*
X7355777Y-16736484D01*
X7355777Y-16736484D02*
X7393872Y-16736484D01*
X7393872Y-16736484D02*
X7412920Y-16726960D01*
X7412920Y-16726960D02*
X7422444Y-16717436D01*
X7422444Y-16717436D02*
X7431967Y-16698388D01*
X7431967Y-16698388D02*
X7431967Y-16650769D01*
X7431967Y-16650769D02*
X7422444Y-16631722D01*
X7422444Y-16631722D02*
X7412920Y-16622198D01*
X7412920Y-16622198D02*
X7393872Y-16612674D01*
X7393872Y-16612674D02*
X7355777Y-16612674D01*
X7355777Y-16612674D02*
X7336729Y-16622198D01*
X7336729Y-16622198D02*
X7327206Y-16631722D01*
X7327206Y-16631722D02*
X7317682Y-16650769D01*
X7555777Y-16536484D02*
X7574825Y-16536484D01*
X7574825Y-16536484D02*
X7593872Y-16546008D01*
X7593872Y-16546008D02*
X7603396Y-16555531D01*
X7603396Y-16555531D02*
X7612920Y-16574579D01*
X7612920Y-16574579D02*
X7622444Y-16612674D01*
X7622444Y-16612674D02*
X7622444Y-16660293D01*
X7622444Y-16660293D02*
X7612920Y-16698388D01*
X7612920Y-16698388D02*
X7603396Y-16717436D01*
X7603396Y-16717436D02*
X7593872Y-16726960D01*
X7593872Y-16726960D02*
X7574825Y-16736484D01*
X7574825Y-16736484D02*
X7555777Y-16736484D01*
X7555777Y-16736484D02*
X7536729Y-16726960D01*
X7536729Y-16726960D02*
X7527206Y-16717436D01*
X7527206Y-16717436D02*
X7517682Y-16698388D01*
X7517682Y-16698388D02*
X7508158Y-16660293D01*
X7508158Y-16660293D02*
X7508158Y-16612674D01*
X7508158Y-16612674D02*
X7517682Y-16574579D01*
X7517682Y-16574579D02*
X7527206Y-16555531D01*
X7527206Y-16555531D02*
X7536729Y-16546008D01*
X7536729Y-16546008D02*
X7555777Y-16536484D01*
X7698634Y-16536484D02*
X7698634Y-16574579D01*
X7774825Y-16536484D02*
X7774825Y-16574579D01*
X8070063Y-16812674D02*
X8060539Y-16803150D01*
X8060539Y-16803150D02*
X8041491Y-16774579D01*
X8041491Y-16774579D02*
X8031968Y-16755531D01*
X8031968Y-16755531D02*
X8022444Y-16726960D01*
X8022444Y-16726960D02*
X8012920Y-16679341D01*
X8012920Y-16679341D02*
X8012920Y-16641246D01*
X8012920Y-16641246D02*
X8022444Y-16593627D01*
X8022444Y-16593627D02*
X8031968Y-16565055D01*
X8031968Y-16565055D02*
X8041491Y-16546008D01*
X8041491Y-16546008D02*
X8060539Y-16517436D01*
X8060539Y-16517436D02*
X8070063Y-16507912D01*
X8231968Y-16603150D02*
X8231968Y-16736484D01*
X8184348Y-16526960D02*
X8136729Y-16669817D01*
X8136729Y-16669817D02*
X8260539Y-16669817D01*
X8489111Y-16736484D02*
X8489111Y-16536484D01*
X8574825Y-16736484D02*
X8574825Y-16631722D01*
X8574825Y-16631722D02*
X8565301Y-16612674D01*
X8565301Y-16612674D02*
X8546253Y-16603150D01*
X8546253Y-16603150D02*
X8517682Y-16603150D01*
X8517682Y-16603150D02*
X8498634Y-16612674D01*
X8498634Y-16612674D02*
X8489111Y-16622198D01*
X8698634Y-16736484D02*
X8679587Y-16726960D01*
X8679587Y-16726960D02*
X8670063Y-16717436D01*
X8670063Y-16717436D02*
X8660539Y-16698388D01*
X8660539Y-16698388D02*
X8660539Y-16641246D01*
X8660539Y-16641246D02*
X8670063Y-16622198D01*
X8670063Y-16622198D02*
X8679587Y-16612674D01*
X8679587Y-16612674D02*
X8698634Y-16603150D01*
X8698634Y-16603150D02*
X8727206Y-16603150D01*
X8727206Y-16603150D02*
X8746253Y-16612674D01*
X8746253Y-16612674D02*
X8755777Y-16622198D01*
X8755777Y-16622198D02*
X8765301Y-16641246D01*
X8765301Y-16641246D02*
X8765301Y-16698388D01*
X8765301Y-16698388D02*
X8755777Y-16717436D01*
X8755777Y-16717436D02*
X8746253Y-16726960D01*
X8746253Y-16726960D02*
X8727206Y-16736484D01*
X8727206Y-16736484D02*
X8698634Y-16736484D01*
X8879587Y-16736484D02*
X8860539Y-16726960D01*
X8860539Y-16726960D02*
X8851015Y-16707912D01*
X8851015Y-16707912D02*
X8851015Y-16536484D01*
X9031968Y-16726960D02*
X9012920Y-16736484D01*
X9012920Y-16736484D02*
X8974825Y-16736484D01*
X8974825Y-16736484D02*
X8955777Y-16726960D01*
X8955777Y-16726960D02*
X8946253Y-16707912D01*
X8946253Y-16707912D02*
X8946253Y-16631722D01*
X8946253Y-16631722D02*
X8955777Y-16612674D01*
X8955777Y-16612674D02*
X8974825Y-16603150D01*
X8974825Y-16603150D02*
X9012920Y-16603150D01*
X9012920Y-16603150D02*
X9031968Y-16612674D01*
X9031968Y-16612674D02*
X9041492Y-16631722D01*
X9041492Y-16631722D02*
X9041492Y-16650769D01*
X9041492Y-16650769D02*
X8946253Y-16669817D01*
X9117682Y-16726960D02*
X9136730Y-16736484D01*
X9136730Y-16736484D02*
X9174825Y-16736484D01*
X9174825Y-16736484D02*
X9193873Y-16726960D01*
X9193873Y-16726960D02*
X9203396Y-16707912D01*
X9203396Y-16707912D02*
X9203396Y-16698388D01*
X9203396Y-16698388D02*
X9193873Y-16679341D01*
X9193873Y-16679341D02*
X9174825Y-16669817D01*
X9174825Y-16669817D02*
X9146253Y-16669817D01*
X9146253Y-16669817D02*
X9127206Y-16660293D01*
X9127206Y-16660293D02*
X9117682Y-16641246D01*
X9117682Y-16641246D02*
X9117682Y-16631722D01*
X9117682Y-16631722D02*
X9127206Y-16612674D01*
X9127206Y-16612674D02*
X9146253Y-16603150D01*
X9146253Y-16603150D02*
X9174825Y-16603150D01*
X9174825Y-16603150D02*
X9193873Y-16612674D01*
X9270063Y-16812674D02*
X9279587Y-16803150D01*
X9279587Y-16803150D02*
X9298634Y-16774579D01*
X9298634Y-16774579D02*
X9308158Y-16755531D01*
X9308158Y-16755531D02*
X9317682Y-16726960D01*
X9317682Y-16726960D02*
X9327206Y-16679341D01*
X9327206Y-16679341D02*
X9327206Y-16641246D01*
X9327206Y-16641246D02*
X9317682Y-16593627D01*
X9317682Y-16593627D02*
X9308158Y-16565055D01*
X9308158Y-16565055D02*
X9298634Y-16546008D01*
X9298634Y-16546008D02*
X9279587Y-16517436D01*
X9279587Y-16517436D02*
X9270063Y-16507912D01*
X9631968Y-16812674D02*
X9622444Y-16803150D01*
X9622444Y-16803150D02*
X9603396Y-16774579D01*
X9603396Y-16774579D02*
X9593873Y-16755531D01*
X9593873Y-16755531D02*
X9584349Y-16726960D01*
X9584349Y-16726960D02*
X9574825Y-16679341D01*
X9574825Y-16679341D02*
X9574825Y-16641246D01*
X9574825Y-16641246D02*
X9584349Y-16593627D01*
X9584349Y-16593627D02*
X9593873Y-16565055D01*
X9593873Y-16565055D02*
X9603396Y-16546008D01*
X9603396Y-16546008D02*
X9622444Y-16517436D01*
X9622444Y-16517436D02*
X9631968Y-16507912D01*
X9708158Y-16603150D02*
X9708158Y-16736484D01*
X9708158Y-16622198D02*
X9717682Y-16612674D01*
X9717682Y-16612674D02*
X9736730Y-16603150D01*
X9736730Y-16603150D02*
X9765301Y-16603150D01*
X9765301Y-16603150D02*
X9784349Y-16612674D01*
X9784349Y-16612674D02*
X9793873Y-16631722D01*
X9793873Y-16631722D02*
X9793873Y-16736484D01*
X9917682Y-16736484D02*
X9898634Y-16726960D01*
X9898634Y-16726960D02*
X9889111Y-16717436D01*
X9889111Y-16717436D02*
X9879587Y-16698388D01*
X9879587Y-16698388D02*
X9879587Y-16641246D01*
X9879587Y-16641246D02*
X9889111Y-16622198D01*
X9889111Y-16622198D02*
X9898634Y-16612674D01*
X9898634Y-16612674D02*
X9917682Y-16603150D01*
X9917682Y-16603150D02*
X9946254Y-16603150D01*
X9946254Y-16603150D02*
X9965301Y-16612674D01*
X9965301Y-16612674D02*
X9974825Y-16622198D01*
X9974825Y-16622198D02*
X9984349Y-16641246D01*
X9984349Y-16641246D02*
X9984349Y-16698388D01*
X9984349Y-16698388D02*
X9974825Y-16717436D01*
X9974825Y-16717436D02*
X9965301Y-16726960D01*
X9965301Y-16726960D02*
X9946254Y-16736484D01*
X9946254Y-16736484D02*
X9917682Y-16736484D01*
X10041492Y-16603150D02*
X10117682Y-16603150D01*
X10070063Y-16536484D02*
X10070063Y-16707912D01*
X10070063Y-16707912D02*
X10079587Y-16726960D01*
X10079587Y-16726960D02*
X10098634Y-16736484D01*
X10098634Y-16736484D02*
X10117682Y-16736484D01*
X10336730Y-16603150D02*
X10336730Y-16803150D01*
X10336730Y-16612674D02*
X10355777Y-16603150D01*
X10355777Y-16603150D02*
X10393873Y-16603150D01*
X10393873Y-16603150D02*
X10412920Y-16612674D01*
X10412920Y-16612674D02*
X10422444Y-16622198D01*
X10422444Y-16622198D02*
X10431968Y-16641246D01*
X10431968Y-16641246D02*
X10431968Y-16698388D01*
X10431968Y-16698388D02*
X10422444Y-16717436D01*
X10422444Y-16717436D02*
X10412920Y-16726960D01*
X10412920Y-16726960D02*
X10393873Y-16736484D01*
X10393873Y-16736484D02*
X10355777Y-16736484D01*
X10355777Y-16736484D02*
X10336730Y-16726960D01*
X10546254Y-16736484D02*
X10527206Y-16726960D01*
X10527206Y-16726960D02*
X10517682Y-16707912D01*
X10517682Y-16707912D02*
X10517682Y-16536484D01*
X10708158Y-16736484D02*
X10708158Y-16631722D01*
X10708158Y-16631722D02*
X10698635Y-16612674D01*
X10698635Y-16612674D02*
X10679587Y-16603150D01*
X10679587Y-16603150D02*
X10641492Y-16603150D01*
X10641492Y-16603150D02*
X10622444Y-16612674D01*
X10708158Y-16726960D02*
X10689111Y-16736484D01*
X10689111Y-16736484D02*
X10641492Y-16736484D01*
X10641492Y-16736484D02*
X10622444Y-16726960D01*
X10622444Y-16726960D02*
X10612920Y-16707912D01*
X10612920Y-16707912D02*
X10612920Y-16688865D01*
X10612920Y-16688865D02*
X10622444Y-16669817D01*
X10622444Y-16669817D02*
X10641492Y-16660293D01*
X10641492Y-16660293D02*
X10689111Y-16660293D01*
X10689111Y-16660293D02*
X10708158Y-16650769D01*
X10774825Y-16603150D02*
X10851015Y-16603150D01*
X10803396Y-16536484D02*
X10803396Y-16707912D01*
X10803396Y-16707912D02*
X10812920Y-16726960D01*
X10812920Y-16726960D02*
X10831968Y-16736484D01*
X10831968Y-16736484D02*
X10851015Y-16736484D01*
X10993873Y-16726960D02*
X10974825Y-16736484D01*
X10974825Y-16736484D02*
X10936730Y-16736484D01*
X10936730Y-16736484D02*
X10917682Y-16726960D01*
X10917682Y-16726960D02*
X10908158Y-16707912D01*
X10908158Y-16707912D02*
X10908158Y-16631722D01*
X10908158Y-16631722D02*
X10917682Y-16612674D01*
X10917682Y-16612674D02*
X10936730Y-16603150D01*
X10936730Y-16603150D02*
X10974825Y-16603150D01*
X10974825Y-16603150D02*
X10993873Y-16612674D01*
X10993873Y-16612674D02*
X11003396Y-16631722D01*
X11003396Y-16631722D02*
X11003396Y-16650769D01*
X11003396Y-16650769D02*
X10908158Y-16669817D01*
X11174825Y-16736484D02*
X11174825Y-16536484D01*
X11174825Y-16726960D02*
X11155777Y-16736484D01*
X11155777Y-16736484D02*
X11117682Y-16736484D01*
X11117682Y-16736484D02*
X11098635Y-16726960D01*
X11098635Y-16726960D02*
X11089111Y-16717436D01*
X11089111Y-16717436D02*
X11079587Y-16698388D01*
X11079587Y-16698388D02*
X11079587Y-16641246D01*
X11079587Y-16641246D02*
X11089111Y-16622198D01*
X11089111Y-16622198D02*
X11098635Y-16612674D01*
X11098635Y-16612674D02*
X11117682Y-16603150D01*
X11117682Y-16603150D02*
X11155777Y-16603150D01*
X11155777Y-16603150D02*
X11174825Y-16612674D01*
X11251015Y-16812674D02*
X11260539Y-16803150D01*
X11260539Y-16803150D02*
X11279587Y-16774579D01*
X11279587Y-16774579D02*
X11289111Y-16755531D01*
X11289111Y-16755531D02*
X11298634Y-16726960D01*
X11298634Y-16726960D02*
X11308158Y-16679341D01*
X11308158Y-16679341D02*
X11308158Y-16641246D01*
X11308158Y-16641246D02*
X11298634Y-16593627D01*
X11298634Y-16593627D02*
X11289111Y-16565055D01*
X11289111Y-16565055D02*
X11279587Y-16546008D01*
X11279587Y-16546008D02*
X11260539Y-16517436D01*
X11260539Y-16517436D02*
X11251015Y-16507912D01*
M02*
