%TF.GenerationSoftware,KiCad,Pcbnew,8.0.3*%
%TF.CreationDate,2024-07-08T02:20:13+08:00*%
%TF.ProjectId,Explorer,4578706c-6f72-4657-922e-6b696361645f,rev?*%
%TF.SameCoordinates,Original*%
%TF.FileFunction,Soldermask,Top*%
%TF.FilePolarity,Negative*%
%FSLAX46Y46*%
G04 Gerber Fmt 4.6, Leading zero omitted, Abs format (unit mm)*
G04 Created by KiCad (PCBNEW 8.0.3) date 2024-07-08 02:20:13*
%MOMM*%
%LPD*%
G01*
G04 APERTURE LIST*
G04 Aperture macros list*
%AMRoundRect*
0 Rectangle with rounded corners*
0 $1 Rounding radius*
0 $2 $3 $4 $5 $6 $7 $8 $9 X,Y pos of 4 corners*
0 Add a 4 corners polygon primitive as box body*
4,1,4,$2,$3,$4,$5,$6,$7,$8,$9,$2,$3,0*
0 Add four circle primitives for the rounded corners*
1,1,$1+$1,$2,$3*
1,1,$1+$1,$4,$5*
1,1,$1+$1,$6,$7*
1,1,$1+$1,$8,$9*
0 Add four rect primitives between the rounded corners*
20,1,$1+$1,$2,$3,$4,$5,0*
20,1,$1+$1,$4,$5,$6,$7,0*
20,1,$1+$1,$6,$7,$8,$9,0*
20,1,$1+$1,$8,$9,$2,$3,0*%
G04 Aperture macros list end*
%ADD10R,1.700000X1.700000*%
%ADD11O,1.700000X1.700000*%
%ADD12RoundRect,0.200000X-0.200000X-0.275000X0.200000X-0.275000X0.200000X0.275000X-0.200000X0.275000X0*%
%ADD13RoundRect,0.225000X-0.225000X-0.250000X0.225000X-0.250000X0.225000X0.250000X-0.225000X0.250000X0*%
%ADD14C,1.000000*%
%ADD15RoundRect,0.100000X-0.712500X-0.100000X0.712500X-0.100000X0.712500X0.100000X-0.712500X0.100000X0*%
%ADD16RoundRect,0.200000X0.200000X0.275000X-0.200000X0.275000X-0.200000X-0.275000X0.200000X-0.275000X0*%
%ADD17C,4.000000*%
%ADD18R,1.600000X1.600000*%
%ADD19C,1.600000*%
%ADD20R,1.120000X2.440000*%
%ADD21RoundRect,0.200000X-0.200000X0.700000X-0.200000X-0.700000X0.200000X-0.700000X0.200000X0.700000X0*%
%ADD22R,3.000000X3.000000*%
%ADD23C,3.000000*%
%ADD24C,1.440000*%
%ADD25RoundRect,0.225000X0.225000X0.250000X-0.225000X0.250000X-0.225000X-0.250000X0.225000X-0.250000X0*%
%ADD26RoundRect,0.087500X0.225000X0.087500X-0.225000X0.087500X-0.225000X-0.087500X0.225000X-0.087500X0*%
%ADD27RoundRect,0.087500X0.087500X0.225000X-0.087500X0.225000X-0.087500X-0.225000X0.087500X-0.225000X0*%
%ADD28R,4.500000X2.000000*%
%ADD29RoundRect,0.250000X-0.412500X-0.925000X0.412500X-0.925000X0.412500X0.925000X-0.412500X0.925000X0*%
%ADD30R,2.000000X4.500000*%
%ADD31R,1.800000X1.800000*%
%ADD32C,1.800000*%
%ADD33C,3.200000*%
%ADD34RoundRect,0.218750X0.256250X-0.218750X0.256250X0.218750X-0.256250X0.218750X-0.256250X-0.218750X0*%
%ADD35RoundRect,0.218750X-0.218750X-0.256250X0.218750X-0.256250X0.218750X0.256250X-0.218750X0.256250X0*%
%ADD36RoundRect,0.225000X0.250000X-0.225000X0.250000X0.225000X-0.250000X0.225000X-0.250000X-0.225000X0*%
%ADD37RoundRect,0.150000X-0.825000X-0.150000X0.825000X-0.150000X0.825000X0.150000X-0.825000X0.150000X0*%
%ADD38C,2.050000*%
%ADD39C,2.250000*%
%ADD40RoundRect,0.218750X0.218750X0.256250X-0.218750X0.256250X-0.218750X-0.256250X0.218750X-0.256250X0*%
%ADD41O,2.000000X1.905000*%
%ADD42R,2.000000X1.905000*%
%ADD43O,3.500000X3.500000*%
%ADD44C,2.000000*%
%ADD45RoundRect,0.225000X0.225000X0.375000X-0.225000X0.375000X-0.225000X-0.375000X0.225000X-0.375000X0*%
%ADD46R,1.050000X1.500000*%
%ADD47O,1.050000X1.500000*%
%ADD48RoundRect,0.100000X-0.637500X-0.100000X0.637500X-0.100000X0.637500X0.100000X-0.637500X0.100000X0*%
%ADD49RoundRect,0.075000X-0.662500X-0.075000X0.662500X-0.075000X0.662500X0.075000X-0.662500X0.075000X0*%
%ADD50RoundRect,0.075000X-0.075000X-0.662500X0.075000X-0.662500X0.075000X0.662500X-0.075000X0.662500X0*%
%ADD51RoundRect,0.200000X0.275000X-0.200000X0.275000X0.200000X-0.275000X0.200000X-0.275000X-0.200000X0*%
G04 APERTURE END LIST*
D10*
%TO.C,J11*%
X122920000Y-148850000D03*
D11*
X125460000Y-148850000D03*
%TD*%
D12*
%TO.C,R37*%
X117555000Y-148895000D03*
X119205000Y-148895000D03*
%TD*%
D13*
%TO.C,C56*%
X99155000Y-126800000D03*
X100705000Y-126800000D03*
%TD*%
D12*
%TO.C,R33*%
X87555000Y-148895000D03*
X89205000Y-148895000D03*
%TD*%
D13*
%TO.C,C64*%
X114825000Y-112200000D03*
X116375000Y-112200000D03*
%TD*%
D14*
%TO.C,TP11*%
X126330000Y-124470000D03*
%TD*%
D12*
%TO.C,R58*%
X102555000Y-126800000D03*
X104205000Y-126800000D03*
%TD*%
%TO.C,R19*%
X92150000Y-75200000D03*
X93800000Y-75200000D03*
%TD*%
D15*
%TO.C,U23*%
X122057500Y-126895000D03*
X122057500Y-127545000D03*
X122057500Y-128195000D03*
X122057500Y-128845000D03*
X126282500Y-128845000D03*
X126282500Y-128195000D03*
X126282500Y-127545000D03*
X126282500Y-126895000D03*
%TD*%
D16*
%TO.C,R48*%
X89205000Y-128890000D03*
X87555000Y-128890000D03*
%TD*%
%TO.C,R16*%
X100625000Y-75200000D03*
X98975000Y-75200000D03*
%TD*%
D10*
%TO.C,J10*%
X107920000Y-148850000D03*
D11*
X110460000Y-148850000D03*
%TD*%
D13*
%TO.C,C45*%
X117605000Y-145950000D03*
X119155000Y-145950000D03*
%TD*%
D17*
%TO.C,J8*%
X131960000Y-67700000D03*
X106960000Y-67700000D03*
D18*
X125000000Y-68000000D03*
D19*
X122230000Y-68000000D03*
X119460000Y-68000000D03*
X116690000Y-68000000D03*
X113920000Y-68000000D03*
X123615000Y-65160000D03*
X120845000Y-65160000D03*
X118075000Y-65160000D03*
X115305000Y-65160000D03*
%TD*%
D20*
%TO.C,SW4*%
X124700000Y-84575000D03*
X127240000Y-84575000D03*
X129780000Y-84575000D03*
X129780000Y-75965000D03*
X127240000Y-75965000D03*
X124700000Y-75965000D03*
%TD*%
D12*
%TO.C,R21*%
X84205000Y-93850000D03*
X85855000Y-93850000D03*
%TD*%
D16*
%TO.C,R45*%
X91786696Y-98950000D03*
X90136696Y-98950000D03*
%TD*%
D10*
%TO.C,JP3*%
X48800000Y-69560000D03*
D11*
X48800000Y-72100000D03*
%TD*%
D21*
%TO.C,U8*%
X135340000Y-90000000D03*
X134240000Y-90000000D03*
X133140000Y-90000000D03*
X132040000Y-90000000D03*
X130940000Y-90000000D03*
X129840000Y-90000000D03*
X128740000Y-90000000D03*
X125740000Y-90000000D03*
X124640000Y-90000000D03*
X123540000Y-90000000D03*
X122440000Y-90000000D03*
X121340000Y-90000000D03*
X121340000Y-102000000D03*
X122440000Y-102000000D03*
X123540000Y-102000000D03*
X124640000Y-102000000D03*
X125740000Y-102000000D03*
X128740000Y-102000000D03*
X129840000Y-102000000D03*
X130940000Y-102000000D03*
X132040000Y-102000000D03*
X133140000Y-102000000D03*
X134240000Y-102000000D03*
X135340000Y-102000000D03*
%TD*%
D22*
%TO.C,J13*%
X126710000Y-155950000D03*
D23*
X121630000Y-155950000D03*
%TD*%
D24*
%TO.C,RV1*%
X96720000Y-141900000D03*
X94180000Y-141900000D03*
X91640000Y-141900000D03*
%TD*%
D13*
%TO.C,C44*%
X102605000Y-145950000D03*
X104155000Y-145950000D03*
%TD*%
D25*
%TO.C,C53*%
X100705000Y-128890000D03*
X99155000Y-128890000D03*
%TD*%
D12*
%TO.C,R66*%
X89675000Y-116880000D03*
X91325000Y-116880000D03*
%TD*%
%TO.C,R12*%
X86075000Y-77000000D03*
X87725000Y-77000000D03*
%TD*%
D14*
%TO.C,TP8*%
X117400000Y-136000000D03*
%TD*%
D13*
%TO.C,C52*%
X97055000Y-102350000D03*
X98605000Y-102350000D03*
%TD*%
D10*
%TO.C,J5*%
X100240000Y-78625000D03*
D11*
X97700000Y-78625000D03*
X95160000Y-78625000D03*
%TD*%
D10*
%TO.C,U7*%
X56190000Y-76600000D03*
D11*
X58730000Y-76600000D03*
X61270000Y-76600000D03*
X63810000Y-76600000D03*
%TD*%
D12*
%TO.C,R63*%
X87575000Y-124700000D03*
X89225000Y-124700000D03*
%TD*%
D13*
%TO.C,C33*%
X90350000Y-80400000D03*
X91900000Y-80400000D03*
%TD*%
D16*
%TO.C,R14*%
X108145000Y-95700000D03*
X106495000Y-95700000D03*
%TD*%
D26*
%TO.C,U16*%
X97649196Y-99400000D03*
X97649196Y-98900000D03*
X97649196Y-98400000D03*
X97649196Y-97900000D03*
D27*
X96986696Y-97737500D03*
X96486696Y-97737500D03*
X95986696Y-97737500D03*
D26*
X95324196Y-97900000D03*
X95324196Y-98400000D03*
X95324196Y-98900000D03*
X95324196Y-99400000D03*
D27*
X95986696Y-99562500D03*
X96486696Y-99562500D03*
X96986696Y-99562500D03*
%TD*%
D13*
%TO.C,C39*%
X93630000Y-102350000D03*
X95180000Y-102350000D03*
%TD*%
D28*
%TO.C,Y2*%
X110650000Y-112300000D03*
X102150000Y-112300000D03*
%TD*%
D24*
%TO.C,RV6*%
X126720000Y-134860000D03*
X124180000Y-134860000D03*
X121640000Y-134860000D03*
%TD*%
D16*
%TO.C,R52*%
X119205000Y-128890000D03*
X117555000Y-128890000D03*
%TD*%
D29*
%TO.C,C59*%
X85247500Y-109300000D03*
X88322500Y-109300000D03*
%TD*%
D12*
%TO.C,R59*%
X117555000Y-126800000D03*
X119205000Y-126800000D03*
%TD*%
%TO.C,R20*%
X95550000Y-75200000D03*
X97200000Y-75200000D03*
%TD*%
D16*
%TO.C,R24*%
X85480000Y-85250000D03*
X83830000Y-85250000D03*
%TD*%
D30*
%TO.C,Y1*%
X79630000Y-92050000D03*
X79630000Y-83550000D03*
%TD*%
D14*
%TO.C,TP6*%
X87390000Y-136000000D03*
%TD*%
D31*
%TO.C,SW1*%
X47900000Y-119970000D03*
D32*
X50400000Y-119970000D03*
X52900000Y-119970000D03*
X47900000Y-125970000D03*
X50400000Y-125970000D03*
X52900000Y-125970000D03*
%TD*%
D33*
%TO.C,H3*%
X141950000Y-156950000D03*
%TD*%
D13*
%TO.C,C30*%
X90350000Y-82100000D03*
X91900000Y-82100000D03*
%TD*%
D34*
%TO.C,L3*%
X140300000Y-89077500D03*
X140300000Y-87502500D03*
%TD*%
D16*
%TO.C,R32*%
X100785000Y-148895000D03*
X99135000Y-148895000D03*
%TD*%
D25*
%TO.C,C55*%
X130950000Y-128890000D03*
X129400000Y-128890000D03*
%TD*%
%TO.C,C54*%
X115705000Y-128890000D03*
X114155000Y-128890000D03*
%TD*%
D24*
%TO.C,RV4*%
X96720000Y-134860000D03*
X94180000Y-134860000D03*
X91640000Y-134860000D03*
%TD*%
D25*
%TO.C,C27*%
X85430000Y-87750000D03*
X83880000Y-87750000D03*
%TD*%
D13*
%TO.C,C23*%
X138125000Y-93420000D03*
X139675000Y-93420000D03*
%TD*%
D35*
%TO.C,D10*%
X105962500Y-93550000D03*
X107537500Y-93550000D03*
%TD*%
D16*
%TO.C,R36*%
X131000000Y-148895000D03*
X129350000Y-148895000D03*
%TD*%
D33*
%TO.C,H4*%
X48050000Y-156950000D03*
%TD*%
D16*
%TO.C,R17*%
X132490000Y-87540000D03*
X130840000Y-87540000D03*
%TD*%
D24*
%TO.C,RV3*%
X126720000Y-141900000D03*
X124180000Y-141900000D03*
X121640000Y-141900000D03*
%TD*%
D16*
%TO.C,R22*%
X107555000Y-88150000D03*
X105905000Y-88150000D03*
%TD*%
D36*
%TO.C,C32*%
X103350000Y-85365000D03*
X103350000Y-83815000D03*
%TD*%
D24*
%TO.C,RV5*%
X111720000Y-134860000D03*
X109180000Y-134860000D03*
X106640000Y-134860000D03*
%TD*%
D13*
%TO.C,C42*%
X129400000Y-145940000D03*
X130950000Y-145940000D03*
%TD*%
D33*
%TO.C,H2*%
X141950000Y-63050000D03*
%TD*%
D37*
%TO.C,U6*%
X78255000Y-75395000D03*
X78255000Y-76665000D03*
X78255000Y-77935000D03*
X78255000Y-79205000D03*
X83205000Y-79205000D03*
X83205000Y-77935000D03*
X83205000Y-76665000D03*
X83205000Y-75395000D03*
%TD*%
D10*
%TO.C,J2*%
X107000000Y-98800000D03*
D11*
X107000000Y-101340000D03*
X104460000Y-98800000D03*
X104460000Y-101340000D03*
X101920000Y-98800000D03*
X101920000Y-101340000D03*
%TD*%
D38*
%TO.C,J4*%
X140300000Y-80000000D03*
D39*
X137760000Y-77460000D03*
X137760000Y-82540000D03*
X142840000Y-77460000D03*
X142840000Y-82540000D03*
%TD*%
D22*
%TO.C,J3*%
X92500000Y-64000000D03*
D23*
X97580000Y-64000000D03*
%TD*%
D13*
%TO.C,C21*%
X138125000Y-102420000D03*
X139675000Y-102420000D03*
%TD*%
D40*
%TO.C,D23*%
X91287500Y-118680000D03*
X89712500Y-118680000D03*
%TD*%
D14*
%TO.C,TP9*%
X96610000Y-124340000D03*
%TD*%
D35*
%TO.C,D9*%
X105962500Y-89950000D03*
X107537500Y-89950000D03*
%TD*%
D33*
%TO.C,H1*%
X48050000Y-63050000D03*
%TD*%
D16*
%TO.C,R44*%
X91786696Y-100650000D03*
X90136696Y-100650000D03*
%TD*%
D14*
%TO.C,TP7*%
X102400000Y-136000000D03*
%TD*%
D25*
%TO.C,C28*%
X85430000Y-89550000D03*
X83880000Y-89550000D03*
%TD*%
D16*
%TO.C,R23*%
X107555000Y-91750000D03*
X105905000Y-91750000D03*
%TD*%
D12*
%TO.C,R13*%
X86075000Y-78700000D03*
X87725000Y-78700000D03*
%TD*%
D16*
%TO.C,R34*%
X115785000Y-148895000D03*
X114135000Y-148895000D03*
%TD*%
D25*
%TO.C,C22*%
X139675000Y-91510000D03*
X138125000Y-91510000D03*
%TD*%
D13*
%TO.C,C60*%
X85025000Y-106400000D03*
X86575000Y-106400000D03*
%TD*%
D24*
%TO.C,RV2*%
X111720000Y-141900000D03*
X109180000Y-141900000D03*
X106640000Y-141900000D03*
%TD*%
D41*
%TO.C,U3*%
X75130000Y-107980000D03*
X75130000Y-110520000D03*
D42*
X75130000Y-113060000D03*
D43*
X58470000Y-110520000D03*
%TD*%
D12*
%TO.C,R65*%
X117555000Y-124690000D03*
X119205000Y-124690000D03*
%TD*%
D10*
%TO.C,JP1*%
X86120000Y-120575000D03*
D11*
X86120000Y-118035000D03*
%TD*%
D44*
%TO.C,SW2*%
X85030000Y-101650000D03*
X78530000Y-101650000D03*
X85030000Y-97150000D03*
X78530000Y-97150000D03*
%TD*%
D17*
%TO.C,J7*%
X83040000Y-67700000D03*
X58040000Y-67700000D03*
D18*
X65000000Y-68000000D03*
D19*
X67770000Y-68000000D03*
X70540000Y-68000000D03*
X73310000Y-68000000D03*
X76080000Y-68000000D03*
X66385000Y-65160000D03*
X69155000Y-65160000D03*
X71925000Y-65160000D03*
X74695000Y-65160000D03*
%TD*%
D15*
%TO.C,U22*%
X107057500Y-126895000D03*
X107057500Y-127545000D03*
X107057500Y-128195000D03*
X107057500Y-128845000D03*
X111282500Y-128845000D03*
X111282500Y-128195000D03*
X111282500Y-127545000D03*
X111282500Y-126895000D03*
%TD*%
D22*
%TO.C,J14*%
X111710000Y-155950000D03*
D23*
X106630000Y-155950000D03*
%TD*%
D12*
%TO.C,R64*%
X102555000Y-124690000D03*
X104205000Y-124690000D03*
%TD*%
D45*
%TO.C,D12*%
X116127500Y-90375000D03*
X112827500Y-90375000D03*
%TD*%
D46*
%TO.C,U20*%
X81800000Y-108700000D03*
D47*
X80530000Y-108700000D03*
X79260000Y-108700000D03*
%TD*%
D13*
%TO.C,C62*%
X85025000Y-114480000D03*
X86575000Y-114480000D03*
%TD*%
D22*
%TO.C,J15*%
X141000000Y-108000000D03*
D23*
X141000000Y-113080000D03*
X141000000Y-118160000D03*
X141000000Y-123240000D03*
%TD*%
D48*
%TO.C,U24*%
X91275000Y-105575000D03*
X91275000Y-106225000D03*
X91275000Y-106875000D03*
X91275000Y-107525000D03*
X91275000Y-108175000D03*
X91275000Y-108825000D03*
X91275000Y-109475000D03*
X91275000Y-110125000D03*
X91275000Y-110775000D03*
X91275000Y-111425000D03*
X91275000Y-112075000D03*
X91275000Y-112725000D03*
X91275000Y-113375000D03*
X91275000Y-114025000D03*
X97000000Y-114025000D03*
X97000000Y-113375000D03*
X97000000Y-112725000D03*
X97000000Y-112075000D03*
X97000000Y-111425000D03*
X97000000Y-110775000D03*
X97000000Y-110125000D03*
X97000000Y-109475000D03*
X97000000Y-108825000D03*
X97000000Y-108175000D03*
X97000000Y-107525000D03*
X97000000Y-106875000D03*
X97000000Y-106225000D03*
X97000000Y-105575000D03*
%TD*%
D10*
%TO.C,J9*%
X92920000Y-148870000D03*
D11*
X95460000Y-148870000D03*
%TD*%
D20*
%TO.C,SW5*%
X116410000Y-84575000D03*
X118950000Y-84575000D03*
X118950000Y-75965000D03*
X116410000Y-75965000D03*
%TD*%
D16*
%TO.C,R11*%
X104730000Y-95700000D03*
X103080000Y-95700000D03*
%TD*%
D12*
%TO.C,R47*%
X90136696Y-102350000D03*
X91786696Y-102350000D03*
%TD*%
D13*
%TO.C,C24*%
X134350000Y-87540000D03*
X135900000Y-87540000D03*
%TD*%
D14*
%TO.C,TP10*%
X111630000Y-124340000D03*
%TD*%
D13*
%TO.C,C57*%
X114155000Y-126800000D03*
X115705000Y-126800000D03*
%TD*%
%TO.C,C40*%
X99185000Y-145950000D03*
X100735000Y-145950000D03*
%TD*%
%TO.C,C41*%
X114185000Y-145950000D03*
X115735000Y-145950000D03*
%TD*%
D40*
%TO.C,D11*%
X85442500Y-83450000D03*
X83867500Y-83450000D03*
%TD*%
D25*
%TO.C,C61*%
X86575000Y-112600000D03*
X85025000Y-112600000D03*
%TD*%
D15*
%TO.C,U21*%
X92057500Y-126895000D03*
X92057500Y-127545000D03*
X92057500Y-128195000D03*
X92057500Y-128845000D03*
X96282500Y-128845000D03*
X96282500Y-128195000D03*
X96282500Y-127545000D03*
X96282500Y-126895000D03*
%TD*%
D20*
%TO.C,SW3*%
X108115000Y-84575000D03*
X110655000Y-84575000D03*
X110655000Y-75965000D03*
X108115000Y-75965000D03*
%TD*%
D10*
%TO.C,J6*%
X114500000Y-96300000D03*
D11*
X114500000Y-98840000D03*
X114500000Y-101380000D03*
%TD*%
D13*
%TO.C,C58*%
X129400000Y-126800000D03*
X130950000Y-126800000D03*
%TD*%
D12*
%TO.C,R35*%
X102555000Y-148895000D03*
X104205000Y-148895000D03*
%TD*%
D13*
%TO.C,C43*%
X87605000Y-145950000D03*
X89155000Y-145950000D03*
%TD*%
D49*
%TO.C,U11*%
X91067500Y-86400000D03*
X91067500Y-86900000D03*
X91067500Y-87400000D03*
X91067500Y-87900000D03*
X91067500Y-88400000D03*
X91067500Y-88900000D03*
X91067500Y-89400000D03*
X91067500Y-89900000D03*
X91067500Y-90400000D03*
X91067500Y-90900000D03*
X91067500Y-91400000D03*
X91067500Y-91900000D03*
D50*
X92480000Y-93312500D03*
X92980000Y-93312500D03*
X93480000Y-93312500D03*
X93980000Y-93312500D03*
X94480000Y-93312500D03*
X94980000Y-93312500D03*
X95480000Y-93312500D03*
X95980000Y-93312500D03*
X96480000Y-93312500D03*
X96980000Y-93312500D03*
X97480000Y-93312500D03*
X97980000Y-93312500D03*
D49*
X99392500Y-91900000D03*
X99392500Y-91400000D03*
X99392500Y-90900000D03*
X99392500Y-90400000D03*
X99392500Y-89900000D03*
X99392500Y-89400000D03*
X99392500Y-88900000D03*
X99392500Y-88400000D03*
X99392500Y-87900000D03*
X99392500Y-87400000D03*
X99392500Y-86900000D03*
X99392500Y-86400000D03*
D50*
X97980000Y-84987500D03*
X97480000Y-84987500D03*
X96980000Y-84987500D03*
X96480000Y-84987500D03*
X95980000Y-84987500D03*
X95480000Y-84987500D03*
X94980000Y-84987500D03*
X94480000Y-84987500D03*
X93980000Y-84987500D03*
X93480000Y-84987500D03*
X92980000Y-84987500D03*
X92480000Y-84987500D03*
%TD*%
D13*
%TO.C,C63*%
X114825000Y-114170000D03*
X116375000Y-114170000D03*
%TD*%
D51*
%TO.C,R15*%
X138150000Y-89115000D03*
X138150000Y-87465000D03*
%TD*%
D29*
%TO.C,C65*%
X96762500Y-117800000D03*
X99837500Y-117800000D03*
%TD*%
D12*
%TO.C,R46*%
X90136696Y-97250000D03*
X91786696Y-97250000D03*
%TD*%
D22*
%TO.C,J12*%
X96710000Y-155950000D03*
D23*
X91630000Y-155950000D03*
%TD*%
D16*
%TO.C,R50*%
X104205000Y-128890000D03*
X102555000Y-128890000D03*
%TD*%
D22*
%TO.C,J1*%
X49000000Y-113060000D03*
D23*
X49000000Y-107980000D03*
%TD*%
D13*
%TO.C,C20*%
X86125000Y-75200000D03*
X87675000Y-75200000D03*
%TD*%
D10*
%TO.C,JP2*%
X60170000Y-126005000D03*
D11*
X62710000Y-126005000D03*
%TD*%
D25*
%TO.C,C31*%
X87675000Y-80400000D03*
X86125000Y-80400000D03*
%TD*%
D12*
%TO.C,R57*%
X87555000Y-126800000D03*
X89205000Y-126800000D03*
%TD*%
M02*
