%TF.GenerationSoftware,KiCad,Pcbnew,8.0.3*%
%TF.CreationDate,2024-07-11T18:57:42+08:00*%
%TF.ProjectId,Explorer,4578706c-6f72-4657-922e-6b696361645f,rev?*%
%TF.SameCoordinates,Original*%
%TF.FileFunction,Soldermask,Bot*%
%TF.FilePolarity,Negative*%
%FSLAX46Y46*%
G04 Gerber Fmt 4.6, Leading zero omitted, Abs format (unit mm)*
G04 Created by KiCad (PCBNEW 8.0.3) date 2024-07-11 18:57:42*
%MOMM*%
%LPD*%
G01*
G04 APERTURE LIST*
G04 Aperture macros list*
%AMRoundRect*
0 Rectangle with rounded corners*
0 $1 Rounding radius*
0 $2 $3 $4 $5 $6 $7 $8 $9 X,Y pos of 4 corners*
0 Add a 4 corners polygon primitive as box body*
4,1,4,$2,$3,$4,$5,$6,$7,$8,$9,$2,$3,0*
0 Add four circle primitives for the rounded corners*
1,1,$1+$1,$2,$3*
1,1,$1+$1,$4,$5*
1,1,$1+$1,$6,$7*
1,1,$1+$1,$8,$9*
0 Add four rect primitives between the rounded corners*
20,1,$1+$1,$2,$3,$4,$5,0*
20,1,$1+$1,$4,$5,$6,$7,0*
20,1,$1+$1,$6,$7,$8,$9,0*
20,1,$1+$1,$8,$9,$2,$3,0*%
G04 Aperture macros list end*
%ADD10R,1.700000X1.700000*%
%ADD11O,1.700000X1.700000*%
%ADD12C,4.000000*%
%ADD13R,1.600000X1.600000*%
%ADD14C,1.600000*%
%ADD15R,3.000000X3.000000*%
%ADD16C,3.000000*%
%ADD17C,1.440000*%
%ADD18R,1.800000X1.800000*%
%ADD19C,1.800000*%
%ADD20C,3.200000*%
%ADD21C,2.050000*%
%ADD22C,2.250000*%
%ADD23C,2.000000*%
%ADD24R,1.050000X1.500000*%
%ADD25O,1.050000X1.500000*%
%ADD26RoundRect,0.250000X-0.925000X0.412500X-0.925000X-0.412500X0.925000X-0.412500X0.925000X0.412500X0*%
%ADD27RoundRect,0.100000X0.712500X0.100000X-0.712500X0.100000X-0.712500X-0.100000X0.712500X-0.100000X0*%
%ADD28RoundRect,0.200000X0.275000X-0.200000X0.275000X0.200000X-0.275000X0.200000X-0.275000X-0.200000X0*%
%ADD29RoundRect,0.218750X0.218750X0.256250X-0.218750X0.256250X-0.218750X-0.256250X0.218750X-0.256250X0*%
%ADD30RoundRect,0.062500X-0.117500X-0.062500X0.117500X-0.062500X0.117500X0.062500X-0.117500X0.062500X0*%
%ADD31RoundRect,0.225000X0.225000X0.250000X-0.225000X0.250000X-0.225000X-0.250000X0.225000X-0.250000X0*%
%ADD32RoundRect,0.225000X-0.225000X-0.250000X0.225000X-0.250000X0.225000X0.250000X-0.225000X0.250000X0*%
%ADD33RoundRect,0.200000X0.200000X0.275000X-0.200000X0.275000X-0.200000X-0.275000X0.200000X-0.275000X0*%
%ADD34C,1.000000*%
%ADD35RoundRect,0.125000X0.537500X0.125000X-0.537500X0.125000X-0.537500X-0.125000X0.537500X-0.125000X0*%
%ADD36RoundRect,0.250000X-0.412500X-0.925000X0.412500X-0.925000X0.412500X0.925000X-0.412500X0.925000X0*%
%ADD37RoundRect,0.200000X-0.200000X-0.275000X0.200000X-0.275000X0.200000X0.275000X-0.200000X0.275000X0*%
%ADD38RoundRect,0.062500X0.117500X0.062500X-0.117500X0.062500X-0.117500X-0.062500X0.117500X-0.062500X0*%
%ADD39RoundRect,0.250000X1.000000X0.650000X-1.000000X0.650000X-1.000000X-0.650000X1.000000X-0.650000X0*%
%ADD40R,2.500000X5.100000*%
%ADD41C,10.200000*%
%ADD42RoundRect,0.235000X-0.940000X-1.465000X0.940000X-1.465000X0.940000X1.465000X-0.940000X1.465000X0*%
%ADD43RoundRect,0.225000X-0.225000X-0.375000X0.225000X-0.375000X0.225000X0.375000X-0.225000X0.375000X0*%
%ADD44RoundRect,0.375000X0.375000X-0.625000X0.375000X0.625000X-0.375000X0.625000X-0.375000X-0.625000X0*%
%ADD45RoundRect,0.500000X1.400000X-0.500000X1.400000X0.500000X-1.400000X0.500000X-1.400000X-0.500000X0*%
%ADD46RoundRect,0.150000X0.825000X0.150000X-0.825000X0.150000X-0.825000X-0.150000X0.825000X-0.150000X0*%
%ADD47RoundRect,0.250000X0.412500X0.925000X-0.412500X0.925000X-0.412500X-0.925000X0.412500X-0.925000X0*%
%ADD48RoundRect,0.225000X0.250000X-0.225000X0.250000X0.225000X-0.250000X0.225000X-0.250000X-0.225000X0*%
%ADD49RoundRect,0.218750X-0.218750X-0.256250X0.218750X-0.256250X0.218750X0.256250X-0.218750X0.256250X0*%
%ADD50RoundRect,0.225000X0.225000X0.375000X-0.225000X0.375000X-0.225000X-0.375000X0.225000X-0.375000X0*%
%ADD51RoundRect,0.375000X-0.625000X-0.375000X0.625000X-0.375000X0.625000X0.375000X-0.625000X0.375000X0*%
%ADD52RoundRect,0.500000X-0.500000X-1.400000X0.500000X-1.400000X0.500000X1.400000X-0.500000X1.400000X0*%
%ADD53R,1.550000X0.600000*%
%ADD54R,2.600000X3.100000*%
G04 APERTURE END LIST*
D10*
%TO.C,J11*%
X122920000Y-148850000D03*
D11*
X125460000Y-148850000D03*
%TD*%
D10*
%TO.C,J10*%
X107920000Y-148850000D03*
D11*
X110460000Y-148850000D03*
%TD*%
D12*
%TO.C,J8*%
X131960000Y-67700000D03*
X106960000Y-67700000D03*
D13*
X125000000Y-68000000D03*
D14*
X122230000Y-68000000D03*
X119460000Y-68000000D03*
X116690000Y-68000000D03*
X113920000Y-68000000D03*
X123615000Y-65160000D03*
X120845000Y-65160000D03*
X118075000Y-65160000D03*
X115305000Y-65160000D03*
%TD*%
D10*
%TO.C,JP3*%
X48800000Y-69560000D03*
D11*
X48800000Y-72100000D03*
%TD*%
D15*
%TO.C,J13*%
X126710000Y-155950000D03*
D16*
X121630000Y-155950000D03*
%TD*%
D17*
%TO.C,RV1*%
X96720000Y-141900000D03*
X94180000Y-141900000D03*
X91640000Y-141900000D03*
%TD*%
D10*
%TO.C,J5*%
X100240000Y-78625000D03*
D11*
X97700000Y-78625000D03*
X95160000Y-78625000D03*
%TD*%
D10*
%TO.C,U7*%
X56190000Y-76600000D03*
D11*
X58730000Y-76600000D03*
X61270000Y-76600000D03*
X63810000Y-76600000D03*
%TD*%
D17*
%TO.C,RV6*%
X126720000Y-134860000D03*
X124180000Y-134860000D03*
X121640000Y-134860000D03*
%TD*%
D18*
%TO.C,SW1*%
X47900000Y-119970000D03*
D19*
X50400000Y-119970000D03*
X52900000Y-119970000D03*
X47900000Y-125970000D03*
X50400000Y-125970000D03*
X52900000Y-125970000D03*
%TD*%
D20*
%TO.C,H3*%
X141950000Y-156950000D03*
%TD*%
D17*
%TO.C,RV4*%
X96720000Y-134860000D03*
X94180000Y-134860000D03*
X91640000Y-134860000D03*
%TD*%
D20*
%TO.C,H4*%
X48050000Y-156950000D03*
%TD*%
D17*
%TO.C,RV3*%
X126720000Y-141900000D03*
X124180000Y-141900000D03*
X121640000Y-141900000D03*
%TD*%
%TO.C,RV5*%
X111720000Y-134860000D03*
X109180000Y-134860000D03*
X106640000Y-134860000D03*
%TD*%
D20*
%TO.C,H2*%
X141950000Y-63050000D03*
%TD*%
D10*
%TO.C,J2*%
X107000000Y-98800000D03*
D11*
X107000000Y-101340000D03*
X104460000Y-98800000D03*
X104460000Y-101340000D03*
X101920000Y-98800000D03*
X101920000Y-101340000D03*
%TD*%
D21*
%TO.C,J4*%
X140300000Y-80000000D03*
D22*
X137760000Y-77460000D03*
X137760000Y-82540000D03*
X142840000Y-77460000D03*
X142840000Y-82540000D03*
%TD*%
D15*
%TO.C,J3*%
X92500000Y-64000000D03*
D16*
X97580000Y-64000000D03*
%TD*%
D20*
%TO.C,H1*%
X48050000Y-63050000D03*
%TD*%
D17*
%TO.C,RV2*%
X111720000Y-141900000D03*
X109180000Y-141900000D03*
X106640000Y-141900000D03*
%TD*%
D10*
%TO.C,JP1*%
X86120000Y-120575000D03*
D11*
X86120000Y-118035000D03*
%TD*%
D23*
%TO.C,SW2*%
X85030000Y-101650000D03*
X78530000Y-101650000D03*
X85030000Y-97150000D03*
X78530000Y-97150000D03*
%TD*%
D12*
%TO.C,J7*%
X83040000Y-67700000D03*
X58040000Y-67700000D03*
D13*
X65000000Y-68000000D03*
D14*
X67770000Y-68000000D03*
X70540000Y-68000000D03*
X73310000Y-68000000D03*
X76080000Y-68000000D03*
X66385000Y-65160000D03*
X69155000Y-65160000D03*
X71925000Y-65160000D03*
X74695000Y-65160000D03*
%TD*%
D15*
%TO.C,J14*%
X111710000Y-155950000D03*
D16*
X106630000Y-155950000D03*
%TD*%
D24*
%TO.C,U20*%
X81800000Y-108700000D03*
D25*
X80530000Y-108700000D03*
X79260000Y-108700000D03*
%TD*%
D15*
%TO.C,J15*%
X141000000Y-108000000D03*
D16*
X141000000Y-113080000D03*
X141000000Y-118160000D03*
X141000000Y-123240000D03*
%TD*%
D10*
%TO.C,J9*%
X92920000Y-148870000D03*
D11*
X95460000Y-148870000D03*
%TD*%
D10*
%TO.C,J6*%
X114500000Y-96300000D03*
D11*
X114500000Y-98840000D03*
X114500000Y-101380000D03*
%TD*%
D15*
%TO.C,J12*%
X96710000Y-155950000D03*
D16*
X91630000Y-155950000D03*
%TD*%
D15*
%TO.C,J1*%
X49000000Y-113060000D03*
D16*
X49000000Y-107980000D03*
%TD*%
D10*
%TO.C,JP2*%
X60170000Y-126005000D03*
D11*
X62710000Y-126005000D03*
%TD*%
D26*
%TO.C,C25*%
X51457500Y-81462500D03*
X51457500Y-84537500D03*
%TD*%
D27*
%TO.C,U15*%
X126282500Y-144375000D03*
X126282500Y-145025000D03*
X126282500Y-145675000D03*
X126282500Y-146325000D03*
X122057500Y-146325000D03*
X122057500Y-145675000D03*
X122057500Y-145025000D03*
X122057500Y-144375000D03*
%TD*%
D28*
%TO.C,R13*%
X72680000Y-105125000D03*
X72680000Y-103475000D03*
%TD*%
D29*
%TO.C,D5*%
X68912500Y-134600000D03*
X67337500Y-134600000D03*
%TD*%
D30*
%TO.C,D22*%
X137870000Y-115750000D03*
X137030000Y-115750000D03*
%TD*%
D27*
%TO.C,U18*%
X111282500Y-137560000D03*
X111282500Y-138210000D03*
X111282500Y-138860000D03*
X111282500Y-139510000D03*
X107057500Y-139510000D03*
X107057500Y-138860000D03*
X107057500Y-138210000D03*
X107057500Y-137560000D03*
%TD*%
D31*
%TO.C,C44*%
X76525000Y-81850000D03*
X74975000Y-81850000D03*
%TD*%
D32*
%TO.C,C5*%
X72925000Y-145800000D03*
X74475000Y-145800000D03*
%TD*%
D33*
%TO.C,R4*%
X74525000Y-148300000D03*
X72875000Y-148300000D03*
%TD*%
D26*
%TO.C,C22*%
X51457500Y-87962500D03*
X51457500Y-91037500D03*
%TD*%
D34*
%TO.C,TP2*%
X58650000Y-136240000D03*
%TD*%
D31*
%TO.C,C32*%
X72325000Y-93150000D03*
X70775000Y-93150000D03*
%TD*%
%TO.C,C23*%
X57055000Y-91400000D03*
X55505000Y-91400000D03*
%TD*%
D35*
%TO.C,U3*%
X63050000Y-108900000D03*
X63050000Y-109550000D03*
X63050000Y-110200000D03*
X63050000Y-110850000D03*
X60775000Y-110850000D03*
X60775000Y-110200000D03*
X60775000Y-109550000D03*
X60775000Y-108900000D03*
%TD*%
D33*
%TO.C,R7*%
X58947500Y-131500000D03*
X57297500Y-131500000D03*
%TD*%
D31*
%TO.C,C41*%
X67975000Y-73300000D03*
X66425000Y-73300000D03*
%TD*%
%TO.C,C57*%
X119155000Y-138510000D03*
X117605000Y-138510000D03*
%TD*%
D33*
%TO.C,R11*%
X64725000Y-106300000D03*
X63075000Y-106300000D03*
%TD*%
D36*
%TO.C,C11*%
X70212500Y-121050000D03*
X73287500Y-121050000D03*
%TD*%
D32*
%TO.C,C72*%
X97250000Y-109800000D03*
X98800000Y-109800000D03*
%TD*%
D33*
%TO.C,R61*%
X96025000Y-132200000D03*
X94375000Y-132200000D03*
%TD*%
D32*
%TO.C,C24*%
X59820000Y-91400000D03*
X61370000Y-91400000D03*
%TD*%
D37*
%TO.C,R66*%
X102555000Y-132200000D03*
X104205000Y-132200000D03*
%TD*%
D33*
%TO.C,R23*%
X72375000Y-96550000D03*
X70725000Y-96550000D03*
%TD*%
D30*
%TO.C,D24*%
X137870000Y-110750000D03*
X137030000Y-110750000D03*
%TD*%
D31*
%TO.C,C55*%
X89155000Y-138510000D03*
X87605000Y-138510000D03*
%TD*%
D33*
%TO.C,R45*%
X132775000Y-141300000D03*
X131125000Y-141300000D03*
%TD*%
D34*
%TO.C,TP4*%
X67660000Y-115940000D03*
%TD*%
D27*
%TO.C,U13*%
X96282500Y-144375000D03*
X96282500Y-145025000D03*
X96282500Y-145675000D03*
X96282500Y-146325000D03*
X92057500Y-146325000D03*
X92057500Y-145675000D03*
X92057500Y-145025000D03*
X92057500Y-144375000D03*
%TD*%
D37*
%TO.C,R8*%
X57297500Y-139237500D03*
X58947500Y-139237500D03*
%TD*%
%TO.C,R47*%
X116100000Y-143150000D03*
X117750000Y-143150000D03*
%TD*%
D38*
%TO.C,D20*%
X120580000Y-152040000D03*
X121420000Y-152040000D03*
%TD*%
D32*
%TO.C,C35*%
X70775000Y-98250000D03*
X72325000Y-98250000D03*
%TD*%
D30*
%TO.C,D21*%
X137870000Y-120750000D03*
X137030000Y-120750000D03*
%TD*%
D37*
%TO.C,R14*%
X78455000Y-114480000D03*
X80105000Y-114480000D03*
%TD*%
%TO.C,R5*%
X54312500Y-149027500D03*
X55962500Y-149027500D03*
%TD*%
D33*
%TO.C,R12*%
X68950000Y-137170000D03*
X67300000Y-137170000D03*
%TD*%
D37*
%TO.C,R35*%
X116950000Y-81150000D03*
X118600000Y-81150000D03*
%TD*%
%TO.C,R33*%
X126525000Y-80375000D03*
X128175000Y-80375000D03*
%TD*%
D39*
%TO.C,D1*%
X60800000Y-121000000D03*
X56800000Y-121000000D03*
%TD*%
D31*
%TO.C,C13*%
X65975000Y-119980000D03*
X64425000Y-119980000D03*
%TD*%
D37*
%TO.C,R36*%
X116945000Y-79455000D03*
X118595000Y-79455000D03*
%TD*%
D27*
%TO.C,U17*%
X96282500Y-137560000D03*
X96282500Y-138210000D03*
X96282500Y-138860000D03*
X96282500Y-139510000D03*
X92057500Y-139510000D03*
X92057500Y-138860000D03*
X92057500Y-138210000D03*
X92057500Y-137560000D03*
%TD*%
D40*
%TO.C,BT1*%
X135940000Y-96120000D03*
X120740000Y-96120000D03*
D41*
X128340000Y-96120000D03*
%TD*%
D31*
%TO.C,C4*%
X65975000Y-122020000D03*
X64425000Y-122020000D03*
%TD*%
D29*
%TO.C,D6*%
X52375000Y-78250000D03*
X50800000Y-78250000D03*
%TD*%
D42*
%TO.C,L3*%
X69625000Y-109800000D03*
X75675000Y-109800000D03*
%TD*%
D33*
%TO.C,R44*%
X117775000Y-141300000D03*
X116125000Y-141300000D03*
%TD*%
D43*
%TO.C,D13*%
X76050000Y-75620000D03*
X79350000Y-75620000D03*
%TD*%
D44*
%TO.C,U5*%
X60700000Y-87750000D03*
X58400000Y-87750000D03*
D45*
X58400000Y-81450000D03*
D44*
X56100000Y-87750000D03*
%TD*%
D46*
%TO.C,U12*%
X71825000Y-75395000D03*
X71825000Y-76665000D03*
X71825000Y-77935000D03*
X71825000Y-79205000D03*
X71825000Y-80475000D03*
X71825000Y-81745000D03*
X71825000Y-83015000D03*
X71825000Y-84285000D03*
X66875000Y-84285000D03*
X66875000Y-83015000D03*
X66875000Y-81745000D03*
X66875000Y-80475000D03*
X66875000Y-79205000D03*
X66875000Y-77935000D03*
X66875000Y-76665000D03*
X66875000Y-75395000D03*
%TD*%
D31*
%TO.C,C54*%
X130950000Y-138510000D03*
X129400000Y-138510000D03*
%TD*%
D37*
%TO.C,R34*%
X126525000Y-82075000D03*
X128175000Y-82075000D03*
%TD*%
D38*
%TO.C,D19*%
X105600000Y-152040000D03*
X106440000Y-152040000D03*
%TD*%
D47*
%TO.C,C9*%
X57587500Y-109800000D03*
X54512500Y-109800000D03*
%TD*%
D31*
%TO.C,C20*%
X68900000Y-132190000D03*
X67350000Y-132190000D03*
%TD*%
D30*
%TO.C,D16*%
X112340000Y-152040000D03*
X111500000Y-152040000D03*
%TD*%
D37*
%TO.C,R46*%
X100915000Y-143150000D03*
X102565000Y-143150000D03*
%TD*%
D48*
%TO.C,C15*%
X66050000Y-110750000D03*
X66050000Y-109200000D03*
%TD*%
D33*
%TO.C,R60*%
X126225000Y-132200000D03*
X124575000Y-132200000D03*
%TD*%
D39*
%TO.C,D7*%
X119655000Y-89870000D03*
X115655000Y-89870000D03*
%TD*%
D49*
%TO.C,D4*%
X80662500Y-118850000D03*
X82237500Y-118850000D03*
%TD*%
D32*
%TO.C,C40*%
X76010000Y-73300000D03*
X77560000Y-73300000D03*
%TD*%
D30*
%TO.C,D15*%
X97340000Y-152040000D03*
X96500000Y-152040000D03*
%TD*%
D49*
%TO.C,L2*%
X50265000Y-149027500D03*
X51840000Y-149027500D03*
%TD*%
D37*
%TO.C,R30*%
X108550000Y-81150000D03*
X110200000Y-81150000D03*
%TD*%
D31*
%TO.C,C53*%
X115735000Y-138510000D03*
X114185000Y-138510000D03*
%TD*%
D50*
%TO.C,D8*%
X83700000Y-83130000D03*
X80400000Y-83130000D03*
%TD*%
D33*
%TO.C,R9*%
X82275000Y-116955000D03*
X80625000Y-116955000D03*
%TD*%
%TO.C,R59*%
X111105000Y-132200000D03*
X109455000Y-132200000D03*
%TD*%
D37*
%TO.C,R31*%
X108550000Y-79455000D03*
X110200000Y-79455000D03*
%TD*%
D27*
%TO.C,U19*%
X126282500Y-137560000D03*
X126282500Y-138210000D03*
X126282500Y-138860000D03*
X126282500Y-139510000D03*
X122057500Y-139510000D03*
X122057500Y-138860000D03*
X122057500Y-138210000D03*
X122057500Y-137560000D03*
%TD*%
D34*
%TO.C,TP5*%
X48000000Y-82250000D03*
%TD*%
D30*
%TO.C,D17*%
X127340000Y-152040000D03*
X126500000Y-152040000D03*
%TD*%
D46*
%TO.C,U10*%
X71825000Y-87350000D03*
X71825000Y-88620000D03*
X71825000Y-89890000D03*
X71825000Y-91160000D03*
X66875000Y-91160000D03*
X66875000Y-89890000D03*
X66875000Y-88620000D03*
X66875000Y-87350000D03*
%TD*%
D47*
%TO.C,C17*%
X64657500Y-132190000D03*
X61582500Y-132190000D03*
%TD*%
D31*
%TO.C,C42*%
X74175000Y-73300000D03*
X72625000Y-73300000D03*
%TD*%
%TO.C,C52*%
X100735000Y-138510000D03*
X99185000Y-138510000D03*
%TD*%
D27*
%TO.C,U14*%
X111282500Y-144375000D03*
X111282500Y-145025000D03*
X111282500Y-145675000D03*
X111282500Y-146325000D03*
X107057500Y-146325000D03*
X107057500Y-145675000D03*
X107057500Y-145025000D03*
X107057500Y-144375000D03*
%TD*%
D39*
%TO.C,D3*%
X63890000Y-114650000D03*
X59890000Y-114650000D03*
%TD*%
D31*
%TO.C,C56*%
X104155000Y-138510000D03*
X102605000Y-138510000D03*
%TD*%
D28*
%TO.C,R72*%
X102000000Y-105125000D03*
X102000000Y-103475000D03*
%TD*%
D32*
%TO.C,C43*%
X74975000Y-83550000D03*
X76525000Y-83550000D03*
%TD*%
%TO.C,C31*%
X70775000Y-94850000D03*
X72325000Y-94850000D03*
%TD*%
D33*
%TO.C,R3*%
X61025000Y-106300000D03*
X59375000Y-106300000D03*
%TD*%
%TO.C,R43*%
X102565000Y-141300000D03*
X100915000Y-141300000D03*
%TD*%
D37*
%TO.C,R56*%
X105990000Y-132200000D03*
X107640000Y-132200000D03*
%TD*%
D34*
%TO.C,TP3*%
X51130000Y-131300000D03*
%TD*%
D51*
%TO.C,U4*%
X47935000Y-138592500D03*
X47935000Y-136292500D03*
D52*
X54235000Y-136292500D03*
D51*
X47935000Y-133992500D03*
%TD*%
D37*
%TO.C,R54*%
X90950000Y-132200000D03*
X92600000Y-132200000D03*
%TD*%
%TO.C,R48*%
X131125000Y-143150000D03*
X132775000Y-143150000D03*
%TD*%
D47*
%TO.C,C2*%
X73242500Y-125050000D03*
X70167500Y-125050000D03*
%TD*%
D37*
%TO.C,R67*%
X117555000Y-132200000D03*
X119205000Y-132200000D03*
%TD*%
%TO.C,R15*%
X47350000Y-78250000D03*
X49000000Y-78250000D03*
%TD*%
D46*
%TO.C,U9*%
X80445000Y-87350000D03*
X80445000Y-88620000D03*
X80445000Y-89890000D03*
X80445000Y-91160000D03*
X80445000Y-92430000D03*
X80445000Y-93700000D03*
X80445000Y-94970000D03*
X75495000Y-94970000D03*
X75495000Y-93700000D03*
X75495000Y-92430000D03*
X75495000Y-91160000D03*
X75495000Y-89890000D03*
X75495000Y-88620000D03*
X75495000Y-87350000D03*
%TD*%
D39*
%TO.C,D2*%
X55072500Y-144500000D03*
X51072500Y-144500000D03*
%TD*%
D47*
%TO.C,C12*%
X64660000Y-136250000D03*
X61585000Y-136250000D03*
%TD*%
D37*
%TO.C,R58*%
X121075000Y-132200000D03*
X122725000Y-132200000D03*
%TD*%
%TO.C,R65*%
X87555000Y-132200000D03*
X89205000Y-132200000D03*
%TD*%
D38*
%TO.C,D18*%
X90600000Y-152040000D03*
X91440000Y-152040000D03*
%TD*%
D37*
%TO.C,R32*%
X126525000Y-78675000D03*
X128175000Y-78675000D03*
%TD*%
D43*
%TO.C,D14*%
X76050000Y-78350000D03*
X79350000Y-78350000D03*
%TD*%
D32*
%TO.C,C14*%
X57347500Y-133422500D03*
X58897500Y-133422500D03*
%TD*%
D34*
%TO.C,TP1*%
X71750000Y-118100000D03*
%TD*%
D53*
%TO.C,U1*%
X69600000Y-145130000D03*
X69600000Y-146400000D03*
X69600000Y-147670000D03*
X69600000Y-148940000D03*
X64200000Y-148940000D03*
X64200000Y-147670000D03*
X64200000Y-146400000D03*
X64200000Y-145130000D03*
D54*
X66900000Y-147035000D03*
%TD*%
M02*
