%TF.GenerationSoftware,KiCad,Pcbnew,8.0.3*%
%TF.CreationDate,2024-07-08T02:20:13+08:00*%
%TF.ProjectId,Explorer,4578706c-6f72-4657-922e-6b696361645f,rev?*%
%TF.SameCoordinates,Original*%
%TF.FileFunction,Soldermask,Bot*%
%TF.FilePolarity,Negative*%
%FSLAX46Y46*%
G04 Gerber Fmt 4.6, Leading zero omitted, Abs format (unit mm)*
G04 Created by KiCad (PCBNEW 8.0.3) date 2024-07-08 02:20:13*
%MOMM*%
%LPD*%
G01*
G04 APERTURE LIST*
G04 Aperture macros list*
%AMRoundRect*
0 Rectangle with rounded corners*
0 $1 Rounding radius*
0 $2 $3 $4 $5 $6 $7 $8 $9 X,Y pos of 4 corners*
0 Add a 4 corners polygon primitive as box body*
4,1,4,$2,$3,$4,$5,$6,$7,$8,$9,$2,$3,0*
0 Add four circle primitives for the rounded corners*
1,1,$1+$1,$2,$3*
1,1,$1+$1,$4,$5*
1,1,$1+$1,$6,$7*
1,1,$1+$1,$8,$9*
0 Add four rect primitives between the rounded corners*
20,1,$1+$1,$2,$3,$4,$5,0*
20,1,$1+$1,$4,$5,$6,$7,0*
20,1,$1+$1,$6,$7,$8,$9,0*
20,1,$1+$1,$8,$9,$2,$3,0*%
G04 Aperture macros list end*
%ADD10R,1.700000X1.700000*%
%ADD11O,1.700000X1.700000*%
%ADD12C,4.000000*%
%ADD13R,1.600000X1.600000*%
%ADD14C,1.600000*%
%ADD15R,3.000000X3.000000*%
%ADD16C,3.000000*%
%ADD17C,1.440000*%
%ADD18R,1.800000X1.800000*%
%ADD19C,1.800000*%
%ADD20C,3.200000*%
%ADD21C,2.050000*%
%ADD22C,2.250000*%
%ADD23O,2.000000X1.905000*%
%ADD24R,2.000000X1.905000*%
%ADD25O,3.500000X3.500000*%
%ADD26C,2.000000*%
%ADD27R,1.050000X1.500000*%
%ADD28O,1.050000X1.500000*%
%ADD29RoundRect,0.250000X-0.412500X-0.925000X0.412500X-0.925000X0.412500X0.925000X-0.412500X0.925000X0*%
%ADD30RoundRect,0.250000X-0.925000X0.412500X-0.925000X-0.412500X0.925000X-0.412500X0.925000X0.412500X0*%
%ADD31RoundRect,0.100000X0.712500X0.100000X-0.712500X0.100000X-0.712500X-0.100000X0.712500X-0.100000X0*%
%ADD32C,1.000000*%
%ADD33RoundRect,0.200000X0.275000X-0.200000X0.275000X0.200000X-0.275000X0.200000X-0.275000X-0.200000X0*%
%ADD34RoundRect,0.062500X-0.117500X-0.062500X0.117500X-0.062500X0.117500X0.062500X-0.117500X0.062500X0*%
%ADD35RoundRect,0.250000X1.075000X-0.375000X1.075000X0.375000X-1.075000X0.375000X-1.075000X-0.375000X0*%
%ADD36RoundRect,0.200000X0.200000X0.275000X-0.200000X0.275000X-0.200000X-0.275000X0.200000X-0.275000X0*%
%ADD37RoundRect,0.225000X0.225000X0.250000X-0.225000X0.250000X-0.225000X-0.250000X0.225000X-0.250000X0*%
%ADD38RoundRect,0.150000X0.512500X0.150000X-0.512500X0.150000X-0.512500X-0.150000X0.512500X-0.150000X0*%
%ADD39RoundRect,0.225000X-0.225000X-0.250000X0.225000X-0.250000X0.225000X0.250000X-0.225000X0.250000X0*%
%ADD40RoundRect,0.200000X-0.200000X-0.275000X0.200000X-0.275000X0.200000X0.275000X-0.200000X0.275000X0*%
%ADD41RoundRect,0.062500X0.117500X0.062500X-0.117500X0.062500X-0.117500X-0.062500X0.117500X-0.062500X0*%
%ADD42RoundRect,0.250000X-1.000000X-0.650000X1.000000X-0.650000X1.000000X0.650000X-1.000000X0.650000X0*%
%ADD43RoundRect,0.250000X1.000000X0.650000X-1.000000X0.650000X-1.000000X-0.650000X1.000000X-0.650000X0*%
%ADD44R,2.500000X5.100000*%
%ADD45C,10.200000*%
%ADD46RoundRect,0.218750X0.218750X0.256250X-0.218750X0.256250X-0.218750X-0.256250X0.218750X-0.256250X0*%
%ADD47RoundRect,0.225000X-0.225000X-0.375000X0.225000X-0.375000X0.225000X0.375000X-0.225000X0.375000X0*%
%ADD48RoundRect,0.375000X0.375000X-0.625000X0.375000X0.625000X-0.375000X0.625000X-0.375000X-0.625000X0*%
%ADD49RoundRect,0.500000X1.400000X-0.500000X1.400000X0.500000X-1.400000X0.500000X-1.400000X-0.500000X0*%
%ADD50RoundRect,0.150000X0.825000X0.150000X-0.825000X0.150000X-0.825000X-0.150000X0.825000X-0.150000X0*%
%ADD51RoundRect,0.218750X-0.218750X-0.256250X0.218750X-0.256250X0.218750X0.256250X-0.218750X0.256250X0*%
%ADD52RoundRect,0.250000X0.925000X-0.412500X0.925000X0.412500X-0.925000X0.412500X-0.925000X-0.412500X0*%
%ADD53RoundRect,0.225000X0.225000X0.375000X-0.225000X0.375000X-0.225000X-0.375000X0.225000X-0.375000X0*%
%ADD54RoundRect,0.250000X0.412500X0.925000X-0.412500X0.925000X-0.412500X-0.925000X0.412500X-0.925000X0*%
%ADD55RoundRect,0.375000X-0.625000X-0.375000X0.625000X-0.375000X0.625000X0.375000X-0.625000X0.375000X0*%
%ADD56RoundRect,0.500000X-0.500000X-1.400000X0.500000X-1.400000X0.500000X1.400000X-0.500000X1.400000X0*%
%ADD57RoundRect,0.250000X0.650000X-1.000000X0.650000X1.000000X-0.650000X1.000000X-0.650000X-1.000000X0*%
G04 APERTURE END LIST*
D10*
%TO.C,J11*%
X122920000Y-148850000D03*
D11*
X125460000Y-148850000D03*
%TD*%
D10*
%TO.C,J10*%
X107920000Y-148850000D03*
D11*
X110460000Y-148850000D03*
%TD*%
D12*
%TO.C,J8*%
X131960000Y-67700000D03*
X106960000Y-67700000D03*
D13*
X125000000Y-68000000D03*
D14*
X122230000Y-68000000D03*
X119460000Y-68000000D03*
X116690000Y-68000000D03*
X113920000Y-68000000D03*
X123615000Y-65160000D03*
X120845000Y-65160000D03*
X118075000Y-65160000D03*
X115305000Y-65160000D03*
%TD*%
D10*
%TO.C,JP3*%
X48800000Y-69560000D03*
D11*
X48800000Y-72100000D03*
%TD*%
D15*
%TO.C,J13*%
X126710000Y-155950000D03*
D16*
X121630000Y-155950000D03*
%TD*%
D17*
%TO.C,RV1*%
X96720000Y-141900000D03*
X94180000Y-141900000D03*
X91640000Y-141900000D03*
%TD*%
D10*
%TO.C,J5*%
X100240000Y-78625000D03*
D11*
X97700000Y-78625000D03*
X95160000Y-78625000D03*
%TD*%
D10*
%TO.C,U7*%
X56190000Y-76600000D03*
D11*
X58730000Y-76600000D03*
X61270000Y-76600000D03*
X63810000Y-76600000D03*
%TD*%
D17*
%TO.C,RV6*%
X126720000Y-134860000D03*
X124180000Y-134860000D03*
X121640000Y-134860000D03*
%TD*%
D18*
%TO.C,SW1*%
X47900000Y-119970000D03*
D19*
X50400000Y-119970000D03*
X52900000Y-119970000D03*
X47900000Y-125970000D03*
X50400000Y-125970000D03*
X52900000Y-125970000D03*
%TD*%
D20*
%TO.C,H3*%
X141950000Y-156950000D03*
%TD*%
D17*
%TO.C,RV4*%
X96720000Y-134860000D03*
X94180000Y-134860000D03*
X91640000Y-134860000D03*
%TD*%
D20*
%TO.C,H4*%
X48050000Y-156950000D03*
%TD*%
D17*
%TO.C,RV3*%
X126720000Y-141900000D03*
X124180000Y-141900000D03*
X121640000Y-141900000D03*
%TD*%
%TO.C,RV5*%
X111720000Y-134860000D03*
X109180000Y-134860000D03*
X106640000Y-134860000D03*
%TD*%
D20*
%TO.C,H2*%
X141950000Y-63050000D03*
%TD*%
D10*
%TO.C,J2*%
X107000000Y-98800000D03*
D11*
X107000000Y-101340000D03*
X104460000Y-98800000D03*
X104460000Y-101340000D03*
X101920000Y-98800000D03*
X101920000Y-101340000D03*
%TD*%
D21*
%TO.C,J4*%
X140300000Y-80000000D03*
D22*
X137760000Y-77460000D03*
X137760000Y-82540000D03*
X142840000Y-77460000D03*
X142840000Y-82540000D03*
%TD*%
D15*
%TO.C,J3*%
X92500000Y-64000000D03*
D16*
X97580000Y-64000000D03*
%TD*%
D20*
%TO.C,H1*%
X48050000Y-63050000D03*
%TD*%
D17*
%TO.C,RV2*%
X111720000Y-141900000D03*
X109180000Y-141900000D03*
X106640000Y-141900000D03*
%TD*%
D23*
%TO.C,U3*%
X75130000Y-107980000D03*
X75130000Y-110520000D03*
D24*
X75130000Y-113060000D03*
D25*
X58470000Y-110520000D03*
%TD*%
D10*
%TO.C,JP1*%
X86120000Y-120575000D03*
D11*
X86120000Y-118035000D03*
%TD*%
D26*
%TO.C,SW2*%
X85030000Y-101650000D03*
X78530000Y-101650000D03*
X85030000Y-97150000D03*
X78530000Y-97150000D03*
%TD*%
D12*
%TO.C,J7*%
X83040000Y-67700000D03*
X58040000Y-67700000D03*
D13*
X65000000Y-68000000D03*
D14*
X67770000Y-68000000D03*
X70540000Y-68000000D03*
X73310000Y-68000000D03*
X76080000Y-68000000D03*
X66385000Y-65160000D03*
X69155000Y-65160000D03*
X71925000Y-65160000D03*
X74695000Y-65160000D03*
%TD*%
D15*
%TO.C,J14*%
X111710000Y-155950000D03*
D16*
X106630000Y-155950000D03*
%TD*%
D27*
%TO.C,U20*%
X81800000Y-108700000D03*
D28*
X80530000Y-108700000D03*
X79260000Y-108700000D03*
%TD*%
D15*
%TO.C,J15*%
X141000000Y-108000000D03*
D16*
X141000000Y-113080000D03*
X141000000Y-118160000D03*
X141000000Y-123240000D03*
%TD*%
D10*
%TO.C,J9*%
X92920000Y-148870000D03*
D11*
X95460000Y-148870000D03*
%TD*%
D10*
%TO.C,J6*%
X114500000Y-96300000D03*
D11*
X114500000Y-98840000D03*
X114500000Y-101380000D03*
%TD*%
D15*
%TO.C,J12*%
X96710000Y-155950000D03*
D16*
X91630000Y-155950000D03*
%TD*%
D15*
%TO.C,J1*%
X49000000Y-113060000D03*
D16*
X49000000Y-107980000D03*
%TD*%
D10*
%TO.C,JP2*%
X60170000Y-126005000D03*
D11*
X62710000Y-126005000D03*
%TD*%
D29*
%TO.C,C6*%
X68255000Y-141810000D03*
X71330000Y-141810000D03*
%TD*%
D30*
%TO.C,C19*%
X51457500Y-81462500D03*
X51457500Y-84537500D03*
%TD*%
D31*
%TO.C,U15*%
X126282500Y-144375000D03*
X126282500Y-145025000D03*
X126282500Y-145675000D03*
X126282500Y-146325000D03*
X122057500Y-146325000D03*
X122057500Y-145675000D03*
X122057500Y-145025000D03*
X122057500Y-144375000D03*
%TD*%
D32*
%TO.C,TP3*%
X71200000Y-109400000D03*
%TD*%
D33*
%TO.C,R7*%
X66680000Y-105125000D03*
X66680000Y-103475000D03*
%TD*%
D34*
%TO.C,D22*%
X137870000Y-115750000D03*
X137030000Y-115750000D03*
%TD*%
D35*
%TO.C,L1*%
X64555000Y-142580000D03*
X64555000Y-139780000D03*
%TD*%
D31*
%TO.C,U18*%
X111282500Y-137560000D03*
X111282500Y-138210000D03*
X111282500Y-138860000D03*
X111282500Y-139510000D03*
X107057500Y-139510000D03*
X107057500Y-138860000D03*
X107057500Y-138210000D03*
X107057500Y-137560000D03*
%TD*%
D36*
%TO.C,R9*%
X69025000Y-133422500D03*
X67375000Y-133422500D03*
%TD*%
D37*
%TO.C,C38*%
X76525000Y-81850000D03*
X74975000Y-81850000D03*
%TD*%
D38*
%TO.C,U2*%
X82577500Y-117360000D03*
X82577500Y-118310000D03*
X82577500Y-119260000D03*
X80302500Y-119260000D03*
X80302500Y-117360000D03*
%TD*%
D30*
%TO.C,C16*%
X51457500Y-87962500D03*
X51457500Y-91037500D03*
%TD*%
D32*
%TO.C,TP1*%
X58650000Y-136240000D03*
%TD*%
D37*
%TO.C,C26*%
X72325000Y-93150000D03*
X70775000Y-93150000D03*
%TD*%
%TO.C,C17*%
X57055000Y-91400000D03*
X55505000Y-91400000D03*
%TD*%
D36*
%TO.C,R4*%
X58947500Y-131500000D03*
X57297500Y-131500000D03*
%TD*%
D37*
%TO.C,C35*%
X67975000Y-73300000D03*
X66425000Y-73300000D03*
%TD*%
%TO.C,C51*%
X119155000Y-138510000D03*
X117605000Y-138510000D03*
%TD*%
D30*
%TO.C,C9*%
X76575000Y-119462500D03*
X76575000Y-122537500D03*
%TD*%
D39*
%TO.C,C66*%
X97250000Y-109800000D03*
X98800000Y-109800000D03*
%TD*%
D36*
%TO.C,R56*%
X96025000Y-132200000D03*
X94375000Y-132200000D03*
%TD*%
D39*
%TO.C,C18*%
X59820000Y-91400000D03*
X61370000Y-91400000D03*
%TD*%
D40*
%TO.C,R61*%
X102555000Y-132200000D03*
X104205000Y-132200000D03*
%TD*%
D36*
%TO.C,R18*%
X72375000Y-96550000D03*
X70725000Y-96550000D03*
%TD*%
D34*
%TO.C,D24*%
X137870000Y-110750000D03*
X137030000Y-110750000D03*
%TD*%
D36*
%TO.C,R1*%
X58645000Y-149027500D03*
X56995000Y-149027500D03*
%TD*%
D37*
%TO.C,C49*%
X89155000Y-138510000D03*
X87605000Y-138510000D03*
%TD*%
D36*
%TO.C,R40*%
X132775000Y-141300000D03*
X131125000Y-141300000D03*
%TD*%
D31*
%TO.C,U13*%
X96282500Y-144375000D03*
X96282500Y-145025000D03*
X96282500Y-145675000D03*
X96282500Y-146325000D03*
X92057500Y-146325000D03*
X92057500Y-145675000D03*
X92057500Y-145025000D03*
X92057500Y-144375000D03*
%TD*%
D40*
%TO.C,R5*%
X57297500Y-139237500D03*
X58947500Y-139237500D03*
%TD*%
%TO.C,R42*%
X116100000Y-143150000D03*
X117750000Y-143150000D03*
%TD*%
D41*
%TO.C,D20*%
X120580000Y-152040000D03*
X121420000Y-152040000D03*
%TD*%
D42*
%TO.C,D2*%
X64520000Y-145927500D03*
X68520000Y-145927500D03*
%TD*%
D39*
%TO.C,C29*%
X70775000Y-98250000D03*
X72325000Y-98250000D03*
%TD*%
D34*
%TO.C,D21*%
X137870000Y-120750000D03*
X137030000Y-120750000D03*
%TD*%
D40*
%TO.C,R8*%
X78455000Y-114480000D03*
X80105000Y-114480000D03*
%TD*%
%TO.C,R30*%
X116950000Y-81150000D03*
X118600000Y-81150000D03*
%TD*%
%TO.C,R28*%
X126525000Y-80375000D03*
X128175000Y-80375000D03*
%TD*%
D43*
%TO.C,D1*%
X61850000Y-119100000D03*
X57850000Y-119100000D03*
%TD*%
D39*
%TO.C,C11*%
X71425000Y-116850000D03*
X72975000Y-116850000D03*
%TD*%
D40*
%TO.C,R31*%
X116945000Y-79455000D03*
X118595000Y-79455000D03*
%TD*%
D31*
%TO.C,U17*%
X96282500Y-137560000D03*
X96282500Y-138210000D03*
X96282500Y-138860000D03*
X96282500Y-139510000D03*
X92057500Y-139510000D03*
X92057500Y-138860000D03*
X92057500Y-138210000D03*
X92057500Y-137560000D03*
%TD*%
D44*
%TO.C,BT1*%
X135940000Y-96120000D03*
X120740000Y-96120000D03*
D45*
X128340000Y-96120000D03*
%TD*%
D39*
%TO.C,C4*%
X75800000Y-116850000D03*
X77350000Y-116850000D03*
%TD*%
D46*
%TO.C,D6*%
X52375000Y-78250000D03*
X50800000Y-78250000D03*
%TD*%
D36*
%TO.C,R39*%
X117775000Y-141300000D03*
X116125000Y-141300000D03*
%TD*%
D47*
%TO.C,D13*%
X76050000Y-75620000D03*
X79350000Y-75620000D03*
%TD*%
D48*
%TO.C,U5*%
X60700000Y-87750000D03*
X58400000Y-87750000D03*
D49*
X58400000Y-81450000D03*
D48*
X56100000Y-87750000D03*
%TD*%
D50*
%TO.C,U12*%
X71825000Y-75395000D03*
X71825000Y-76665000D03*
X71825000Y-77935000D03*
X71825000Y-79205000D03*
X71825000Y-80475000D03*
X71825000Y-81745000D03*
X71825000Y-83015000D03*
X71825000Y-84285000D03*
X66875000Y-84285000D03*
X66875000Y-83015000D03*
X66875000Y-81745000D03*
X66875000Y-80475000D03*
X66875000Y-79205000D03*
X66875000Y-77935000D03*
X66875000Y-76665000D03*
X66875000Y-75395000D03*
%TD*%
D37*
%TO.C,C48*%
X130950000Y-138510000D03*
X129400000Y-138510000D03*
%TD*%
D40*
%TO.C,R29*%
X126525000Y-82075000D03*
X128175000Y-82075000D03*
%TD*%
D41*
%TO.C,D19*%
X105600000Y-152040000D03*
X106440000Y-152040000D03*
%TD*%
D37*
%TO.C,C15*%
X68975000Y-131500000D03*
X67425000Y-131500000D03*
%TD*%
D50*
%TO.C,U1*%
X60270000Y-142292500D03*
X60270000Y-143562500D03*
X60270000Y-144832500D03*
X60270000Y-146102500D03*
X55320000Y-146102500D03*
X55320000Y-144832500D03*
X55320000Y-143562500D03*
X55320000Y-142292500D03*
%TD*%
D34*
%TO.C,D16*%
X112340000Y-152040000D03*
X111500000Y-152040000D03*
%TD*%
D37*
%TO.C,C7*%
X68475000Y-119100000D03*
X66925000Y-119100000D03*
%TD*%
D40*
%TO.C,R41*%
X100915000Y-143150000D03*
X102565000Y-143150000D03*
%TD*%
D36*
%TO.C,R55*%
X126225000Y-132200000D03*
X124575000Y-132200000D03*
%TD*%
D43*
%TO.C,D7*%
X119655000Y-89870000D03*
X115655000Y-89870000D03*
%TD*%
D51*
%TO.C,D4*%
X66912500Y-122850000D03*
X68487500Y-122850000D03*
%TD*%
D39*
%TO.C,C34*%
X76010000Y-73300000D03*
X77560000Y-73300000D03*
%TD*%
D52*
%TO.C,C1*%
X50970000Y-145690000D03*
X50970000Y-142615000D03*
%TD*%
D37*
%TO.C,C12*%
X71975000Y-105050000D03*
X70425000Y-105050000D03*
%TD*%
D34*
%TO.C,D15*%
X97340000Y-152040000D03*
X96500000Y-152040000D03*
%TD*%
D51*
%TO.C,L2*%
X50265000Y-149027500D03*
X51840000Y-149027500D03*
%TD*%
D40*
%TO.C,R25*%
X108550000Y-81150000D03*
X110200000Y-81150000D03*
%TD*%
D37*
%TO.C,C47*%
X115735000Y-138510000D03*
X114185000Y-138510000D03*
%TD*%
D53*
%TO.C,D8*%
X83700000Y-83130000D03*
X80400000Y-83130000D03*
%TD*%
D36*
%TO.C,R6*%
X68525000Y-121000000D03*
X66875000Y-121000000D03*
%TD*%
D39*
%TO.C,C2*%
X60470000Y-149027500D03*
X62020000Y-149027500D03*
%TD*%
D36*
%TO.C,R54*%
X111105000Y-132200000D03*
X109455000Y-132200000D03*
%TD*%
D54*
%TO.C,C5*%
X60337500Y-114700000D03*
X57262500Y-114700000D03*
%TD*%
D40*
%TO.C,R26*%
X108550000Y-79455000D03*
X110200000Y-79455000D03*
%TD*%
D31*
%TO.C,U19*%
X126282500Y-137560000D03*
X126282500Y-138210000D03*
X126282500Y-138860000D03*
X126282500Y-139510000D03*
X122057500Y-139510000D03*
X122057500Y-138860000D03*
X122057500Y-138210000D03*
X122057500Y-137560000D03*
%TD*%
D32*
%TO.C,TP5*%
X48000000Y-82250000D03*
%TD*%
D34*
%TO.C,D17*%
X127340000Y-152040000D03*
X126500000Y-152040000D03*
%TD*%
D50*
%TO.C,U10*%
X71825000Y-87350000D03*
X71825000Y-88620000D03*
X71825000Y-89890000D03*
X71825000Y-91160000D03*
X66875000Y-91160000D03*
X66875000Y-89890000D03*
X66875000Y-88620000D03*
X66875000Y-87350000D03*
%TD*%
D54*
%TO.C,C14*%
X64657500Y-132190000D03*
X61582500Y-132190000D03*
%TD*%
D37*
%TO.C,C36*%
X74175000Y-73300000D03*
X72625000Y-73300000D03*
%TD*%
%TO.C,C46*%
X100735000Y-138510000D03*
X99185000Y-138510000D03*
%TD*%
D31*
%TO.C,U14*%
X111282500Y-144375000D03*
X111282500Y-145025000D03*
X111282500Y-145675000D03*
X111282500Y-146325000D03*
X107057500Y-146325000D03*
X107057500Y-145675000D03*
X107057500Y-145025000D03*
X107057500Y-144375000D03*
%TD*%
D37*
%TO.C,C50*%
X104155000Y-138510000D03*
X102605000Y-138510000D03*
%TD*%
D33*
%TO.C,R67*%
X102000000Y-105125000D03*
X102000000Y-103475000D03*
%TD*%
D39*
%TO.C,C37*%
X74975000Y-83550000D03*
X76525000Y-83550000D03*
%TD*%
%TO.C,C25*%
X70775000Y-94850000D03*
X72325000Y-94850000D03*
%TD*%
D36*
%TO.C,R2*%
X55270000Y-149027500D03*
X53620000Y-149027500D03*
%TD*%
%TO.C,R38*%
X102565000Y-141300000D03*
X100915000Y-141300000D03*
%TD*%
D40*
%TO.C,R51*%
X107640000Y-132200000D03*
X105990000Y-132200000D03*
%TD*%
D32*
%TO.C,TP4*%
X51130000Y-131300000D03*
%TD*%
D55*
%TO.C,U4*%
X47935000Y-138592500D03*
X47935000Y-136292500D03*
D56*
X54235000Y-136292500D03*
D55*
X47935000Y-133992500D03*
%TD*%
D40*
%TO.C,R49*%
X92600000Y-132200000D03*
X90950000Y-132200000D03*
%TD*%
%TO.C,R43*%
X131125000Y-143150000D03*
X132775000Y-143150000D03*
%TD*%
D30*
%TO.C,C3*%
X72200000Y-119462500D03*
X72200000Y-122537500D03*
%TD*%
D40*
%TO.C,R62*%
X117555000Y-132200000D03*
X119205000Y-132200000D03*
%TD*%
D51*
%TO.C,D5*%
X67452500Y-136250000D03*
X69027500Y-136250000D03*
%TD*%
D40*
%TO.C,R10*%
X47350000Y-78250000D03*
X49000000Y-78250000D03*
%TD*%
D57*
%TO.C,D3*%
X67700000Y-113400000D03*
X67700000Y-109400000D03*
%TD*%
D50*
%TO.C,U9*%
X75495000Y-87350000D03*
X75495000Y-88620000D03*
X75495000Y-89890000D03*
X75495000Y-91160000D03*
X75495000Y-92430000D03*
X75495000Y-93700000D03*
X75495000Y-94970000D03*
X80445000Y-94970000D03*
X80445000Y-93700000D03*
X80445000Y-92430000D03*
X80445000Y-91160000D03*
X80445000Y-89890000D03*
X80445000Y-88620000D03*
X80445000Y-87350000D03*
%TD*%
D54*
%TO.C,C8*%
X64660000Y-136250000D03*
X61585000Y-136250000D03*
%TD*%
%TO.C,C13*%
X60337500Y-106000000D03*
X57262500Y-106000000D03*
%TD*%
D40*
%TO.C,R53*%
X122725000Y-132200000D03*
X121075000Y-132200000D03*
%TD*%
D33*
%TO.C,R3*%
X47415000Y-144852500D03*
X47415000Y-143202500D03*
%TD*%
D40*
%TO.C,R60*%
X87555000Y-132200000D03*
X89205000Y-132200000D03*
%TD*%
D41*
%TO.C,D18*%
X90600000Y-152040000D03*
X91440000Y-152040000D03*
%TD*%
D40*
%TO.C,R27*%
X126525000Y-78675000D03*
X128175000Y-78675000D03*
%TD*%
D47*
%TO.C,D14*%
X76050000Y-78350000D03*
X79350000Y-78350000D03*
%TD*%
D39*
%TO.C,C10*%
X57347500Y-133422500D03*
X58897500Y-133422500D03*
%TD*%
D32*
%TO.C,TP2*%
X83150000Y-122450000D03*
%TD*%
M02*
