%TF.GenerationSoftware,KiCad,Pcbnew,8.0.3*%
%TF.CreationDate,2025-01-05T03:44:59+08:00*%
%TF.ProjectId,Explorer,4578706c-6f72-4657-922e-6b696361645f,rev?*%
%TF.SameCoordinates,Original*%
%TF.FileFunction,Soldermask,Bot*%
%TF.FilePolarity,Negative*%
%FSLAX46Y46*%
G04 Gerber Fmt 4.6, Leading zero omitted, Abs format (unit mm)*
G04 Created by KiCad (PCBNEW 8.0.3) date 2025-01-05 03:44:59*
%MOMM*%
%LPD*%
G01*
G04 APERTURE LIST*
G04 Aperture macros list*
%AMRoundRect*
0 Rectangle with rounded corners*
0 $1 Rounding radius*
0 $2 $3 $4 $5 $6 $7 $8 $9 X,Y pos of 4 corners*
0 Add a 4 corners polygon primitive as box body*
4,1,4,$2,$3,$4,$5,$6,$7,$8,$9,$2,$3,0*
0 Add four circle primitives for the rounded corners*
1,1,$1+$1,$2,$3*
1,1,$1+$1,$4,$5*
1,1,$1+$1,$6,$7*
1,1,$1+$1,$8,$9*
0 Add four rect primitives between the rounded corners*
20,1,$1+$1,$2,$3,$4,$5,0*
20,1,$1+$1,$4,$5,$6,$7,0*
20,1,$1+$1,$6,$7,$8,$9,0*
20,1,$1+$1,$8,$9,$2,$3,0*%
G04 Aperture macros list end*
%ADD10C,4.000000*%
%ADD11R,1.600000X1.600000*%
%ADD12C,1.600000*%
%ADD13R,1.700000X1.700000*%
%ADD14O,1.700000X1.700000*%
%ADD15R,3.000000X3.000000*%
%ADD16C,3.000000*%
%ADD17R,1.800000X1.800000*%
%ADD18C,1.800000*%
%ADD19C,3.200000*%
%ADD20C,2.050000*%
%ADD21C,2.250000*%
%ADD22C,2.000000*%
%ADD23RoundRect,0.250000X-0.925000X0.412500X-0.925000X-0.412500X0.925000X-0.412500X0.925000X0.412500X0*%
%ADD24RoundRect,0.200000X0.275000X-0.200000X0.275000X0.200000X-0.275000X0.200000X-0.275000X-0.200000X0*%
%ADD25RoundRect,0.200000X-0.200000X-0.275000X0.200000X-0.275000X0.200000X0.275000X-0.200000X0.275000X0*%
%ADD26RoundRect,0.225000X-0.250000X0.225000X-0.250000X-0.225000X0.250000X-0.225000X0.250000X0.225000X0*%
%ADD27RoundRect,0.225000X0.225000X0.250000X-0.225000X0.250000X-0.225000X-0.250000X0.225000X-0.250000X0*%
%ADD28RoundRect,0.250000X0.925000X-0.412500X0.925000X0.412500X-0.925000X0.412500X-0.925000X-0.412500X0*%
%ADD29RoundRect,0.200000X0.200000X0.275000X-0.200000X0.275000X-0.200000X-0.275000X0.200000X-0.275000X0*%
%ADD30RoundRect,0.225000X-0.225000X-0.250000X0.225000X-0.250000X0.225000X0.250000X-0.225000X0.250000X0*%
%ADD31C,1.000000*%
%ADD32RoundRect,0.250000X-0.412500X-0.925000X0.412500X-0.925000X0.412500X0.925000X-0.412500X0.925000X0*%
%ADD33RoundRect,0.250000X1.000000X0.650000X-1.000000X0.650000X-1.000000X-0.650000X1.000000X-0.650000X0*%
%ADD34RoundRect,0.200000X-0.275000X0.200000X-0.275000X-0.200000X0.275000X-0.200000X0.275000X0.200000X0*%
%ADD35R,2.000000X0.800000*%
%ADD36RoundRect,0.218750X0.256250X-0.218750X0.256250X0.218750X-0.256250X0.218750X-0.256250X-0.218750X0*%
%ADD37RoundRect,0.225000X-0.225000X-0.375000X0.225000X-0.375000X0.225000X0.375000X-0.225000X0.375000X0*%
%ADD38RoundRect,0.375000X0.375000X-0.625000X0.375000X0.625000X-0.375000X0.625000X-0.375000X-0.625000X0*%
%ADD39RoundRect,0.500000X1.400000X-0.500000X1.400000X0.500000X-1.400000X0.500000X-1.400000X-0.500000X0*%
%ADD40RoundRect,0.150000X0.825000X0.150000X-0.825000X0.150000X-0.825000X-0.150000X0.825000X-0.150000X0*%
%ADD41RoundRect,0.250000X-1.075000X0.375000X-1.075000X-0.375000X1.075000X-0.375000X1.075000X0.375000X0*%
%ADD42RoundRect,0.225000X0.250000X-0.225000X0.250000X0.225000X-0.250000X0.225000X-0.250000X-0.225000X0*%
%ADD43RoundRect,0.218750X0.218750X0.256250X-0.218750X0.256250X-0.218750X-0.256250X0.218750X-0.256250X0*%
%ADD44RoundRect,0.225000X0.225000X0.375000X-0.225000X0.375000X-0.225000X-0.375000X0.225000X-0.375000X0*%
%ADD45RoundRect,0.218750X-0.218750X-0.256250X0.218750X-0.256250X0.218750X0.256250X-0.218750X0.256250X0*%
%ADD46RoundRect,0.250000X-1.000000X-0.650000X1.000000X-0.650000X1.000000X0.650000X-1.000000X0.650000X0*%
%ADD47RoundRect,0.375000X-0.375000X0.625000X-0.375000X-0.625000X0.375000X-0.625000X0.375000X0.625000X0*%
%ADD48RoundRect,0.500000X-1.400000X0.500000X-1.400000X-0.500000X1.400000X-0.500000X1.400000X0.500000X0*%
G04 APERTURE END LIST*
D10*
%TO.C,J8*%
X131960000Y-67700000D03*
X106960000Y-67700000D03*
D11*
X125000000Y-68000000D03*
D12*
X122230000Y-68000000D03*
X119460000Y-68000000D03*
X116690000Y-68000000D03*
X113920000Y-68000000D03*
X123615000Y-65160000D03*
X120845000Y-65160000D03*
X118075000Y-65160000D03*
X115305000Y-65160000D03*
%TD*%
D13*
%TO.C,JP3*%
X48800000Y-72075000D03*
D14*
X48800000Y-69535000D03*
%TD*%
D15*
%TO.C,J11*%
X125000000Y-155950000D03*
D16*
X119920000Y-155950000D03*
%TD*%
D13*
%TO.C,J5*%
X100240000Y-78625000D03*
D14*
X97700000Y-78625000D03*
X95160000Y-78625000D03*
%TD*%
D13*
%TO.C,JP2*%
X48800000Y-132100000D03*
D14*
X48800000Y-134640000D03*
%TD*%
D17*
%TO.C,SW1*%
X47900000Y-119970000D03*
D18*
X50400000Y-119970000D03*
X52900000Y-119970000D03*
X47900000Y-125970000D03*
X50400000Y-125970000D03*
X52900000Y-125970000D03*
%TD*%
D19*
%TO.C,H3*%
X141950000Y-156950000D03*
%TD*%
D13*
%TO.C,U7*%
X56190000Y-76600000D03*
D14*
X58730000Y-76600000D03*
X61270000Y-76600000D03*
X63810000Y-76600000D03*
%TD*%
D19*
%TO.C,H4*%
X48050000Y-156950000D03*
%TD*%
%TO.C,H2*%
X141950000Y-63050000D03*
%TD*%
D13*
%TO.C,J2*%
X107000000Y-98800000D03*
D14*
X107000000Y-101340000D03*
X104460000Y-98800000D03*
X104460000Y-101340000D03*
X101920000Y-98800000D03*
X101920000Y-101340000D03*
%TD*%
D20*
%TO.C,J3*%
X140300000Y-80000000D03*
D21*
X137760000Y-77460000D03*
X137760000Y-82540000D03*
X142840000Y-77460000D03*
X142840000Y-82540000D03*
%TD*%
D15*
%TO.C,J4*%
X92500000Y-64000000D03*
D16*
X97580000Y-64000000D03*
%TD*%
D19*
%TO.C,H1*%
X48050000Y-63050000D03*
%TD*%
D13*
%TO.C,JP1*%
X78100000Y-119725000D03*
D14*
X78100000Y-117185000D03*
%TD*%
D22*
%TO.C,SW2*%
X85030000Y-101650000D03*
X78530000Y-101650000D03*
X85030000Y-97150000D03*
X78530000Y-97150000D03*
%TD*%
D10*
%TO.C,J7*%
X83040000Y-67700000D03*
X58040000Y-67700000D03*
D11*
X65000000Y-68000000D03*
D12*
X67770000Y-68000000D03*
X70540000Y-68000000D03*
X73310000Y-68000000D03*
X76080000Y-68000000D03*
X66385000Y-65160000D03*
X69155000Y-65160000D03*
X71925000Y-65160000D03*
X74695000Y-65160000D03*
%TD*%
D15*
%TO.C,J10*%
X97500000Y-155950000D03*
D16*
X92420000Y-155950000D03*
%TD*%
D13*
%TO.C,J6*%
X114500000Y-96300000D03*
D14*
X114500000Y-98840000D03*
X114500000Y-101380000D03*
%TD*%
D15*
%TO.C,J9*%
X70000000Y-155950000D03*
D16*
X64920000Y-155950000D03*
%TD*%
D15*
%TO.C,J1*%
X49000000Y-113060000D03*
D16*
X49000000Y-107980000D03*
%TD*%
D23*
%TO.C,C27*%
X63285000Y-79862500D03*
X63285000Y-82937500D03*
%TD*%
D24*
%TO.C,R12*%
X47987500Y-89225000D03*
X47987500Y-87575000D03*
%TD*%
D25*
%TO.C,R76*%
X104120000Y-129900000D03*
X105770000Y-129900000D03*
%TD*%
D26*
%TO.C,C4*%
X81180000Y-109052500D03*
X81180000Y-110602500D03*
%TD*%
D27*
%TO.C,C46*%
X76250000Y-81850000D03*
X74700000Y-81850000D03*
%TD*%
D28*
%TO.C,C24*%
X50830000Y-82892500D03*
X50830000Y-79817500D03*
%TD*%
D25*
%TO.C,R93*%
X89725000Y-106800000D03*
X91375000Y-106800000D03*
%TD*%
D27*
%TO.C,C34*%
X72325000Y-93150000D03*
X70775000Y-93150000D03*
%TD*%
%TO.C,C25*%
X51605000Y-86560000D03*
X50055000Y-86560000D03*
%TD*%
D29*
%TO.C,R8*%
X78097500Y-122650000D03*
X76447500Y-122650000D03*
%TD*%
D27*
%TO.C,C43*%
X67975000Y-73300000D03*
X66425000Y-73300000D03*
%TD*%
D23*
%TO.C,C12*%
X73090000Y-116872500D03*
X73090000Y-119947500D03*
%TD*%
D30*
%TO.C,C72*%
X97250000Y-109800000D03*
X98800000Y-109800000D03*
%TD*%
D29*
%TO.C,R96*%
X98850000Y-108000000D03*
X97200000Y-108000000D03*
%TD*%
D30*
%TO.C,C26*%
X62510000Y-86560000D03*
X64060000Y-86560000D03*
%TD*%
D25*
%TO.C,R92*%
X89725000Y-105025000D03*
X91375000Y-105025000D03*
%TD*%
D29*
%TO.C,R22*%
X72375000Y-96550000D03*
X70725000Y-96550000D03*
%TD*%
D31*
%TO.C,TP2*%
X81580000Y-112950000D03*
%TD*%
D32*
%TO.C,C22*%
X61150000Y-127800000D03*
X64225000Y-127800000D03*
%TD*%
D33*
%TO.C,D17*%
X117400000Y-71800000D03*
X113400000Y-71800000D03*
%TD*%
D31*
%TO.C,TP4*%
X59200000Y-98900000D03*
%TD*%
D30*
%TO.C,C62*%
X104170000Y-131935000D03*
X105720000Y-131935000D03*
%TD*%
D31*
%TO.C,TP1*%
X66975000Y-115150000D03*
%TD*%
D29*
%TO.C,R4*%
X52625000Y-94785000D03*
X50975000Y-94785000D03*
%TD*%
D30*
%TO.C,C37*%
X70775000Y-98250000D03*
X72325000Y-98250000D03*
%TD*%
D32*
%TO.C,C6*%
X53462500Y-101800000D03*
X56537500Y-101800000D03*
%TD*%
D34*
%TO.C,R13*%
X58900000Y-103475000D03*
X58900000Y-105125000D03*
%TD*%
D31*
%TO.C,TP6*%
X117750000Y-97520000D03*
%TD*%
D25*
%TO.C,R34*%
X116950000Y-81150000D03*
X118600000Y-81150000D03*
%TD*%
%TO.C,R32*%
X126525000Y-80375000D03*
X128175000Y-80375000D03*
%TD*%
D33*
%TO.C,D1*%
X52300000Y-122892500D03*
X48300000Y-122892500D03*
%TD*%
D32*
%TO.C,C2*%
X68207500Y-107390000D03*
X71282500Y-107390000D03*
%TD*%
D25*
%TO.C,R35*%
X116945000Y-79455000D03*
X118595000Y-79455000D03*
%TD*%
D35*
%TO.C,BT1*%
X133150000Y-95920000D03*
X133150000Y-94420000D03*
%TD*%
D29*
%TO.C,R86*%
X120825000Y-133970000D03*
X119175000Y-133970000D03*
%TD*%
D36*
%TO.C,D6*%
X53000000Y-69800000D03*
X53000000Y-68225000D03*
%TD*%
D37*
%TO.C,D15*%
X76050000Y-75620000D03*
X79350000Y-75620000D03*
%TD*%
D38*
%TO.C,U5*%
X59400000Y-86040000D03*
X57100000Y-86040000D03*
D39*
X57100000Y-79740000D03*
D38*
X54800000Y-86040000D03*
%TD*%
D25*
%TO.C,R78*%
X134175000Y-129900000D03*
X135825000Y-129900000D03*
%TD*%
D33*
%TO.C,D8*%
X93800000Y-71800000D03*
X89800000Y-71800000D03*
%TD*%
D34*
%TO.C,R11*%
X52450000Y-134347500D03*
X52450000Y-135997500D03*
%TD*%
D40*
%TO.C,U12*%
X71825000Y-75395000D03*
X71825000Y-76665000D03*
X71825000Y-77935000D03*
X71825000Y-79205000D03*
X71825000Y-80475000D03*
X71825000Y-81745000D03*
X71825000Y-83015000D03*
X71825000Y-84285000D03*
X66875000Y-84285000D03*
X66875000Y-83015000D03*
X66875000Y-81745000D03*
X66875000Y-80475000D03*
X66875000Y-79205000D03*
X66875000Y-77935000D03*
X66875000Y-76665000D03*
X66875000Y-75395000D03*
%TD*%
D29*
%TO.C,R95*%
X98850000Y-106200000D03*
X97200000Y-106200000D03*
%TD*%
D41*
%TO.C,L4*%
X67590000Y-125770000D03*
X67590000Y-128570000D03*
%TD*%
D32*
%TO.C,C21*%
X55962500Y-91500000D03*
X59037500Y-91500000D03*
%TD*%
D25*
%TO.C,R33*%
X126525000Y-82075000D03*
X128175000Y-82075000D03*
%TD*%
%TO.C,R94*%
X89725000Y-108575000D03*
X91375000Y-108575000D03*
%TD*%
D30*
%TO.C,C61*%
X70225000Y-144935000D03*
X71775000Y-144935000D03*
%TD*%
D25*
%TO.C,R77*%
X119175000Y-129900000D03*
X120825000Y-129900000D03*
%TD*%
D36*
%TO.C,D5*%
X52450000Y-132270000D03*
X52450000Y-130695000D03*
%TD*%
D26*
%TO.C,C18*%
X70830000Y-126395000D03*
X70830000Y-127945000D03*
%TD*%
D30*
%TO.C,C68*%
X119225000Y-131935000D03*
X120775000Y-131935000D03*
%TD*%
D33*
%TO.C,D7*%
X119655000Y-89870000D03*
X115655000Y-89870000D03*
%TD*%
D29*
%TO.C,R85*%
X105770000Y-133970000D03*
X104120000Y-133970000D03*
%TD*%
D30*
%TO.C,C42*%
X74935000Y-73300000D03*
X76485000Y-73300000D03*
%TD*%
D33*
%TO.C,D20*%
X84750000Y-71875000D03*
X80750000Y-71875000D03*
%TD*%
D42*
%TO.C,C29*%
X136750000Y-95945000D03*
X136750000Y-94395000D03*
%TD*%
D43*
%TO.C,R2*%
X82837500Y-106500000D03*
X81262500Y-106500000D03*
%TD*%
D25*
%TO.C,R29*%
X108550000Y-81150000D03*
X110200000Y-81150000D03*
%TD*%
D33*
%TO.C,D19*%
X62000000Y-71800000D03*
X58000000Y-71800000D03*
%TD*%
D24*
%TO.C,R97*%
X101920000Y-105125000D03*
X101920000Y-103475000D03*
%TD*%
D44*
%TO.C,D9*%
X83700000Y-83130000D03*
X80400000Y-83130000D03*
%TD*%
D25*
%TO.C,R30*%
X108550000Y-79455000D03*
X110200000Y-79455000D03*
%TD*%
D31*
%TO.C,TP5*%
X50830000Y-76465000D03*
%TD*%
D36*
%TO.C,R3*%
X82960000Y-110615000D03*
X82960000Y-109040000D03*
%TD*%
D40*
%TO.C,U10*%
X71825000Y-87350000D03*
X71825000Y-88620000D03*
X71825000Y-89890000D03*
X71825000Y-91160000D03*
X66875000Y-91160000D03*
X66875000Y-89890000D03*
X66875000Y-88620000D03*
X66875000Y-87350000D03*
%TD*%
D27*
%TO.C,C44*%
X73100000Y-73300000D03*
X71550000Y-73300000D03*
%TD*%
D45*
%TO.C,D4*%
X72975000Y-122650000D03*
X74550000Y-122650000D03*
%TD*%
D27*
%TO.C,C14*%
X68350000Y-122767500D03*
X66800000Y-122767500D03*
%TD*%
D46*
%TO.C,D2*%
X48345000Y-116800000D03*
X52345000Y-116800000D03*
%TD*%
D33*
%TO.C,D10*%
X103500000Y-71800000D03*
X99500000Y-71800000D03*
%TD*%
D30*
%TO.C,C45*%
X74700000Y-83550000D03*
X76250000Y-83550000D03*
%TD*%
%TO.C,C33*%
X70775000Y-94850000D03*
X72325000Y-94850000D03*
%TD*%
D25*
%TO.C,R1*%
X50975000Y-96800000D03*
X52625000Y-96800000D03*
%TD*%
D47*
%TO.C,U2*%
X74047500Y-106650000D03*
X76347500Y-106650000D03*
D48*
X76347500Y-112950000D03*
D47*
X78647500Y-106650000D03*
%TD*%
D30*
%TO.C,C67*%
X97725000Y-144935000D03*
X99275000Y-144935000D03*
%TD*%
D31*
%TO.C,TP3*%
X73290000Y-127170000D03*
%TD*%
D30*
%TO.C,C70*%
X134225000Y-131935000D03*
X135775000Y-131935000D03*
%TD*%
D24*
%TO.C,R14*%
X53000000Y-73480000D03*
X53000000Y-71830000D03*
%TD*%
D40*
%TO.C,U9*%
X80445000Y-87350000D03*
X80445000Y-88620000D03*
X80445000Y-89890000D03*
X80445000Y-91160000D03*
X80445000Y-92430000D03*
X80445000Y-93700000D03*
X80445000Y-94970000D03*
X75495000Y-94970000D03*
X75495000Y-93700000D03*
X75495000Y-92430000D03*
X75495000Y-91160000D03*
X75495000Y-89890000D03*
X75495000Y-88620000D03*
X75495000Y-87350000D03*
%TD*%
D29*
%TO.C,R87*%
X135825000Y-133970000D03*
X134175000Y-133970000D03*
%TD*%
D46*
%TO.C,D18*%
X124250000Y-71800000D03*
X128250000Y-71800000D03*
%TD*%
D25*
%TO.C,R31*%
X126525000Y-78675000D03*
X128175000Y-78675000D03*
%TD*%
D30*
%TO.C,C69*%
X125225000Y-144935000D03*
X126775000Y-144935000D03*
%TD*%
D37*
%TO.C,D16*%
X76050000Y-78350000D03*
X79350000Y-78350000D03*
%TD*%
D27*
%TO.C,C39*%
X93060000Y-83870000D03*
X91510000Y-83870000D03*
%TD*%
D32*
%TO.C,C20*%
X61195000Y-123687500D03*
X64270000Y-123687500D03*
%TD*%
%TO.C,C8*%
X47562500Y-101800000D03*
X50637500Y-101800000D03*
%TD*%
M02*
