M48
; DRILL file {KiCad 8.0.3} date 2024-11-17T15:50:15+0800
; FORMAT={-:-/ absolute / inch / decimal}
; #@! TF.CreationDate,2024-11-17T15:50:15+08:00
; #@! TF.GenerationSoftware,Kicad,Pcbnew,8.0.3
; #@! TF.FileFunction,Plated,1,2,PTH
FMAT,2
INCH
; #@! TA.AperFunction,Plated,PTH,ViaDrill
T1C0.0157
; #@! TA.AperFunction,Plated,PTH,ComponentDrill
T2C0.0315
; #@! TA.AperFunction,Plated,PTH,ComponentDrill
T3C0.0354
; #@! TA.AperFunction,Plated,PTH,ComponentDrill
T4C0.0394
; #@! TA.AperFunction,Plated,PTH,ComponentDrill
T5C0.0433
; #@! TA.AperFunction,Plated,PTH,ComponentDrill
T6C0.0591
; #@! TA.AperFunction,Plated,PTH,ComponentDrill
T7C0.0598
; #@! TA.AperFunction,Plated,PTH,ComponentDrill
T8C0.0669
; #@! TA.AperFunction,Plated,PTH,ComponentDrill
T9C0.1260
%
G90
G05
T1
X1.7992Y-4.2244
X1.7992Y-4.2638
X1.7992Y-4.3031
X1.7992Y-4.3425
X1.7992Y-4.3819
X1.7992Y-4.4213
X1.7992Y-4.4606
X1.7992Y-4.5
X1.7992Y-4.5394
X1.7992Y-4.5787
X1.7992Y-4.6181
X1.7992Y-4.6575
X1.8228Y-3.3189
X1.8228Y-3.3583
X1.8228Y-3.3976
X1.8228Y-3.437
X1.8228Y-3.4764
X1.8228Y-3.5157
X1.8228Y-3.5551
X1.8228Y-3.5945
X1.8228Y-3.6339
X1.8228Y-3.6732
X1.8228Y-3.7126
X1.8228Y-3.752
X1.8228Y-3.7913
X1.8228Y-3.8307
X1.8228Y-3.8701
X1.8228Y-3.9094
X1.8228Y-3.9488
X1.8228Y-3.9882
X1.8228Y-4.0276
X1.8268Y-4.2244
X1.8268Y-4.2638
X1.8268Y-4.3031
X1.8268Y-4.3425
X1.8268Y-4.3819
X1.8268Y-4.4213
X1.8268Y-4.4606
X1.8268Y-4.5
X1.8268Y-4.5394
X1.8268Y-4.5787
X1.8268Y-4.6181
X1.8268Y-4.6575
X1.8543Y-4.5787
X1.8543Y-4.6181
X1.8543Y-4.6575
X1.8583Y-3.3189
X1.8583Y-3.3583
X1.8583Y-3.3976
X1.8583Y-3.437
X1.8583Y-3.4764
X1.8583Y-3.5157
X1.8583Y-3.5551
X1.8583Y-3.5945
X1.8583Y-3.6339
X1.8583Y-3.6732
X1.8583Y-3.7126
X1.8583Y-3.752
X1.8583Y-3.7913
X1.8583Y-3.8307
X1.8583Y-3.8701
X1.8583Y-3.9094
X1.8583Y-3.9488
X1.8583Y-3.9882
X1.8583Y-4.0276
X1.8819Y-4.5787
X1.8819Y-4.6181
X1.8819Y-4.6575
X1.8937Y-2.9075
X1.8937Y-2.9469
X1.8937Y-2.9862
X1.8937Y-3.0256
X1.9016Y-3.3189
X1.9016Y-3.3583
X1.9016Y-3.3976
X1.9016Y-3.437
X1.9016Y-3.4764
X1.9016Y-3.5157
X1.9016Y-3.5551
X1.9016Y-3.5945
X1.9016Y-3.6339
X1.9016Y-3.6732
X1.9016Y-3.7126
X1.9016Y-3.752
X1.9016Y-3.7913
X1.9016Y-3.8307
X1.9016Y-3.8701
X1.9016Y-3.9094
X1.9016Y-3.9488
X1.9016Y-3.9882
X1.9016Y-4.0276
X1.9291Y-2.9075
X1.9291Y-2.9469
X1.9291Y-2.9862
X1.9291Y-3.0256
X1.937Y-3.3189
X1.937Y-3.3583
X1.937Y-3.3976
X1.937Y-3.437
X1.937Y-3.4764
X1.937Y-3.5157
X1.937Y-3.5551
X1.937Y-3.5945
X1.937Y-3.6339
X1.937Y-3.6732
X1.937Y-3.7126
X1.937Y-3.752
X1.937Y-3.7913
X1.937Y-3.8307
X1.937Y-3.8701
X1.937Y-3.9094
X1.937Y-3.9488
X1.937Y-3.9882
X1.937Y-4.0276
X1.9724Y-2.9075
X1.9724Y-2.9469
X1.9724Y-2.9862
X1.9724Y-3.0256
X1.9803Y-3.6732
X1.9803Y-3.7126
X1.9803Y-3.752
X1.9803Y-3.7913
X1.9803Y-3.8307
X1.9803Y-3.8701
X1.9803Y-3.9094
X1.9803Y-3.9488
X1.9803Y-3.9882
X1.9803Y-4.0276
X2.0079Y-2.9075
X2.0079Y-2.9469
X2.0079Y-2.9862
X2.0079Y-3.0256
X2.0157Y-3.6732
X2.0157Y-3.7126
X2.0157Y-3.752
X2.0157Y-3.7913
X2.0157Y-3.8307
X2.0157Y-3.8701
X2.0157Y-3.9094
X2.0157Y-3.9488
X2.0157Y-3.9882
X2.0157Y-4.0276
X2.0512Y-2.6732
X2.0512Y-2.7126
X2.0512Y-2.752
X2.0512Y-2.7913
X2.0512Y-2.8307
X2.0512Y-2.8701
X2.0512Y-2.9094
X2.0512Y-2.9488
X2.0512Y-2.9862
X2.0512Y-3.0256
X2.0591Y-3.6732
X2.0591Y-3.7126
X2.0591Y-3.752
X2.0591Y-3.7913
X2.0591Y-3.8307
X2.0591Y-3.8701
X2.0591Y-3.9094
X2.0591Y-3.9488
X2.0591Y-3.9882
X2.0591Y-4.0276
X2.0591Y-4.1457
X2.0591Y-4.185
X2.0591Y-4.2244
X2.0591Y-4.2638
X2.0591Y-4.3031
X2.0591Y-4.3425
X2.0591Y-4.3819
X2.0591Y-4.4213
X2.0591Y-4.4606
X2.0591Y-4.5
X2.0591Y-4.5394
X2.0591Y-4.5787
X2.0866Y-2.6732
X2.0866Y-2.7126
X2.0866Y-2.752
X2.0866Y-2.7913
X2.0866Y-2.8307
X2.0866Y-2.8701
X2.0866Y-2.9094
X2.0866Y-2.9488
X2.0866Y-2.9862
X2.0866Y-3.0256
X2.0866Y-4.1457
X2.0866Y-4.185
X2.0866Y-4.2244
X2.0866Y-4.2638
X2.0866Y-4.3031
X2.0866Y-4.3425
X2.0866Y-4.3819
X2.0866Y-4.4213
X2.0866Y-4.4606
X2.0866Y-4.5
X2.0866Y-4.5394
X2.0866Y-4.5787
X2.0945Y-3.6732
X2.0945Y-3.7126
X2.0945Y-3.752
X2.0945Y-3.7913
X2.0945Y-3.8307
X2.0945Y-3.8701
X2.0945Y-3.9094
X2.0945Y-3.9488
X2.0945Y-3.9882
X2.0945Y-4.0276
X2.1142Y-4.1457
X2.1142Y-4.185
X2.1142Y-4.2244
X2.1142Y-4.4213
X2.1142Y-4.4606
X2.1142Y-4.5
X2.1142Y-4.5394
X2.1142Y-4.5787
X2.1378Y-3.6732
X2.1378Y-3.7126
X2.1378Y-3.752
X2.1378Y-3.7913
X2.1378Y-3.8307
X2.1378Y-3.8701
X2.1378Y-3.9094
X2.1378Y-3.9488
X2.1378Y-3.9882
X2.1378Y-4.0276
X2.1417Y-4.1457
X2.1417Y-4.185
X2.1417Y-4.2244
X2.1417Y-4.4213
X2.1417Y-4.4606
X2.1417Y-4.5
X2.1417Y-4.5394
X2.1417Y-4.5787
X2.1496Y-4.6929
X2.1496Y-4.7323
X2.1693Y-4.1457
X2.1693Y-4.185
X2.1693Y-4.2244
X2.1693Y-4.4213
X2.1693Y-4.4606
X2.1693Y-4.5
X2.1693Y-4.5394
X2.1693Y-4.5787
X2.1732Y-3.6732
X2.1732Y-3.7126
X2.1732Y-3.752
X2.1732Y-3.7913
X2.1732Y-3.8307
X2.1732Y-3.8701
X2.1732Y-3.9094
X2.1732Y-3.9488
X2.1732Y-3.9882
X2.1732Y-4.0276
X2.1772Y-4.6929
X2.1772Y-4.7323
X2.1969Y-4.4213
X2.1969Y-4.4606
X2.1969Y-4.5
X2.1969Y-4.5394
X2.1969Y-4.5787
X2.2047Y-4.6929
X2.2047Y-4.7323
X2.2087Y-2.7894
X2.2087Y-2.8307
X2.2087Y-2.8701
X2.2165Y-3.6732
X2.2165Y-3.7126
X2.2165Y-3.752
X2.2165Y-3.7913
X2.2165Y-3.8307
X2.2165Y-3.8701
X2.2165Y-3.9094
X2.2165Y-3.9488
X2.2165Y-3.9882
X2.2165Y-4.0276
X2.2323Y-4.6929
X2.2323Y-4.7323
X2.2441Y-2.7894
X2.2441Y-2.8307
X2.2441Y-2.8701
X2.252Y-3.6732
X2.252Y-3.7126
X2.252Y-3.752
X2.252Y-3.7913
X2.252Y-3.8307
X2.252Y-3.8701
X2.252Y-3.9094
X2.252Y-3.9488
X2.252Y-3.9882
X2.252Y-4.0276
X2.2756Y-4.2283
X2.2874Y-2.7894
X2.2874Y-2.8307
X2.2874Y-2.8701
X2.2953Y-3.752
X2.2953Y-3.7913
X2.2953Y-3.8307
X2.2953Y-3.8701
X2.2953Y-3.9094
X2.2953Y-3.9488
X2.2953Y-3.9882
X2.2953Y-4.0276
X2.3031Y-4.2283
X2.315Y-3.6906
X2.3228Y-2.7894
X2.3228Y-2.8307
X2.3228Y-2.8701
X2.3307Y-3.752
X2.3307Y-3.7913
X2.3307Y-3.8307
X2.3307Y-3.8701
X2.3307Y-3.9094
X2.3307Y-3.9488
X2.3307Y-3.9882
X2.3307Y-4.0276
X2.3307Y-4.2283
X2.3307Y-4.2559
X2.3307Y-4.2835
X2.3661Y-2.752
X2.3661Y-2.7913
X2.3661Y-2.8307
X2.3661Y-2.8701
X2.3807Y-5.5319
X2.4016Y-2.752
X2.4016Y-2.7913
X2.4016Y-2.8307
X2.4016Y-2.8701
X2.4144Y-5.4127
X2.4173Y-3.6732
X2.4173Y-3.7126
X2.4173Y-3.752
X2.4173Y-3.7913
X2.4173Y-3.8307
X2.4173Y-3.8701
X2.4173Y-3.9094
X2.4173Y-3.9488
X2.4173Y-3.9882
X2.4173Y-4.0276
X2.4441Y-5.5319
X2.4449Y-2.752
X2.4449Y-2.7913
X2.4449Y-2.8307
X2.4449Y-2.8701
X2.4528Y-3.6732
X2.4528Y-3.7126
X2.4528Y-3.752
X2.4528Y-3.7913
X2.4528Y-3.8307
X2.4528Y-3.8701
X2.4528Y-3.9094
X2.4528Y-3.9488
X2.4528Y-3.9882
X2.4528Y-4.0276
X2.4685Y-4.4567
X2.4803Y-2.752
X2.4803Y-2.7913
X2.4803Y-2.8307
X2.4803Y-2.8701
X2.4961Y-3.6732
X2.4961Y-3.7126
X2.4961Y-3.752
X2.4961Y-3.7913
X2.4961Y-3.8307
X2.4961Y-3.8701
X2.4961Y-3.9094
X2.4961Y-3.9488
X2.4961Y-3.9882
X2.4961Y-4.0276
X2.4961Y-5.7012
X2.4963Y-4.6207
X2.5236Y-2.752
X2.5236Y-2.7913
X2.5236Y-2.8307
X2.5315Y-3.6732
X2.5315Y-3.7126
X2.5315Y-3.752
X2.5315Y-3.7913
X2.5315Y-3.8307
X2.5315Y-3.8701
X2.5315Y-3.9094
X2.5315Y-3.9488
X2.5315Y-3.9882
X2.5315Y-4.0276
X2.5591Y-2.752
X2.5591Y-2.7913
X2.5591Y-2.8307
X2.5748Y-3.7126
X2.5748Y-3.752
X2.5748Y-3.7913
X2.5748Y-3.8307
X2.5748Y-3.8701
X2.5748Y-3.9094
X2.5748Y-3.9488
X2.5748Y-3.9882
X2.5748Y-4.0276
X2.576Y-4.185
X2.5984Y-4.4488
X2.5984Y-4.4882
X2.6024Y-2.752
X2.6024Y-2.7913
X2.6024Y-2.8307
X2.6102Y-3.7126
X2.6102Y-3.752
X2.6102Y-3.7913
X2.6102Y-3.8307
X2.6102Y-3.8701
X2.6102Y-3.9094
X2.6102Y-3.9488
X2.6102Y-3.9882
X2.6102Y-4.0276
X2.626Y-4.4488
X2.626Y-4.4882
X2.6346Y-4.3976
X2.6366Y-5.5496
X2.6378Y-2.752
X2.6378Y-2.7913
X2.6378Y-2.8307
X2.6535Y-3.7126
X2.6535Y-3.752
X2.6535Y-3.7913
X2.6535Y-3.8307
X2.6535Y-3.8701
X2.6535Y-3.9094
X2.6535Y-3.9488
X2.6535Y-3.9882
X2.6535Y-4.0276
X2.6535Y-4.1457
X2.6535Y-4.185
X2.6638Y-4.5236
X2.6713Y-5.3031
X2.6811Y-4.1457
X2.6811Y-4.185
X2.6835Y-3.489
X2.6835Y-3.539
X2.6886Y-3.2683
X2.689Y-3.7126
X2.689Y-3.752
X2.689Y-3.7913
X2.689Y-3.8307
X2.689Y-3.8701
X2.689Y-3.9094
X2.689Y-3.9488
X2.689Y-3.9882
X2.689Y-4.0276
X2.7008Y-4.6173
X2.7126Y-3.1299
X2.7126Y-3.2283
X2.7126Y-3.311
X2.7323Y-3.9882
X2.7323Y-4.0276
X2.7638Y-4.8268
X2.7677Y-3.9882
X2.7677Y-4.0276
X2.811Y-3.9882
X2.811Y-4.0276
X2.813Y-5.5709
X2.8386Y-2.752
X2.8386Y-2.7913
X2.8386Y-2.8327
X2.8386Y-5.3307
X2.8396Y-4.6132
X2.8465Y-3.9882
X2.8465Y-4.0276
X2.874Y-2.752
X2.874Y-2.7913
X2.874Y-2.8327
X2.8898Y-3.9882
X2.8898Y-4.0276
X2.8917Y-2.9685
X2.8976Y-3.5705
X2.9055Y-3.0906
X2.9173Y-2.752
X2.9173Y-2.7913
X2.9173Y-2.8327
X2.9252Y-3.9882
X2.9252Y-4.0276
X2.9256Y-4.7854
X2.937Y-3.0906
X2.9488Y-4.1457
X2.9488Y-4.185
X2.9488Y-4.4213
X2.9488Y-4.4606
X2.9488Y-4.5
X2.9488Y-4.5394
X2.9528Y-2.752
X2.9528Y-2.7913
X2.9528Y-2.8327
X2.9685Y-3.9882
X2.9685Y-4.0276
X2.9764Y-4.1457
X2.9764Y-4.185
X2.9764Y-4.4213
X2.9764Y-4.4606
X2.9764Y-4.5
X2.9764Y-4.5394
X2.9925Y-2.8512
X2.9961Y-2.752
X2.9961Y-2.7913
X3.0039Y-3.9882
X3.0039Y-4.0276
X3.0079Y-4.4213
X3.0079Y-4.4606
X3.0079Y-4.5
X3.0079Y-4.5394
X3.0276Y-4.1457
X3.0276Y-4.185
X3.0315Y-2.752
X3.0315Y-2.7913
X3.0315Y-2.8307
X3.0354Y-4.4213
X3.0354Y-4.4606
X3.0354Y-4.5
X3.0354Y-4.5394
X3.0551Y-4.1457
X3.0551Y-4.185
X3.072Y-3.639
X3.072Y-3.689
X3.0748Y-2.752
X3.0748Y-2.7913
X3.0748Y-2.8307
X3.0807Y-4.7264
X3.1102Y-2.752
X3.1102Y-2.7913
X3.1102Y-2.8307
X3.1535Y-2.752
X3.1535Y-2.7913
X3.1535Y-2.8307
X3.1535Y-2.8701
X3.1614Y-3.9882
X3.1614Y-4.0276
X3.189Y-2.752
X3.189Y-2.7913
X3.189Y-2.8307
X3.189Y-2.8701
X3.1969Y-3.9882
X3.1969Y-4.0276
X3.2178Y-3.1101
X3.2293Y-3.2559
X3.2293Y-3.2874
X3.2293Y-3.3622
X3.2323Y-2.7933
X3.2323Y-2.8307
X3.2323Y-2.8701
X3.2402Y-3.9882
X3.2402Y-4.0276
X3.2677Y-2.7933
X3.2677Y-2.8307
X3.2677Y-2.8701
X3.2756Y-3.9882
X3.2756Y-4.0276
X3.311Y-2.7933
X3.311Y-2.8307
X3.311Y-2.8701
X3.322Y-3.0689
X3.322Y-3.1181
X3.3465Y-2.7933
X3.3465Y-2.8307
X3.3465Y-2.8701
X3.3858Y-2.752
X3.3858Y-2.7913
X3.3898Y-2.8307
X3.3898Y-2.8701
X3.4213Y-2.752
X3.4213Y-2.7913
X3.4252Y-2.8307
X3.4252Y-2.8701
X3.4307Y-3.5598
X3.437Y-3.4465
X3.4646Y-2.752
X3.4646Y-2.7913
X3.4685Y-2.8307
X3.4685Y-2.8701
X3.4685Y-3.7756
X3.4685Y-4.4839
X3.4697Y-5.5352
X3.4717Y-3.6136
X3.4872Y-3.6644
X3.4902Y-3.0315
X3.4902Y-3.0984
X3.4961Y-3.2835
X3.4961Y-3.311
X3.4961Y-3.3386
X3.4961Y-3.3661
X3.4969Y-3.7921
X3.5Y-2.752
X3.5Y-2.7913
X3.5039Y-2.8307
X3.5039Y-2.8701
X3.5039Y-5.4134
X3.5236Y-3.2835
X3.5236Y-3.311
X3.5236Y-3.3386
X3.5236Y-3.3661
X3.5236Y-3.7748
X3.5323Y-5.5352
X3.5371Y-4.3651
X3.5384Y-4.4892
X3.5482Y-4.3356
X3.5496Y-4.0764
X3.5512Y-3.2835
X3.5512Y-3.311
X3.5512Y-3.3386
X3.5512Y-3.3661
X3.5525Y-3.7887
X3.576Y-5.7012
X3.5787Y-3.2835
X3.5787Y-3.311
X3.5846Y-2.8996
X3.5856Y-3.6496
X3.5856Y-3.688
X3.5866Y-3.9626
X3.5945Y-2.9606
X3.6063Y-2.752
X3.6063Y-2.7913
X3.6063Y-2.8307
X3.6063Y-2.8701
X3.6063Y-3.2835
X3.6063Y-3.311
X3.6181Y-3.1299
X3.6417Y-2.752
X3.6417Y-2.7913
X3.6417Y-2.8307
X3.6417Y-2.8701
X3.6445Y-4.3787
X3.6457Y-4.1457
X3.6457Y-4.1939
X3.6457Y-4.2451
X3.6484Y-3.461
X3.6575Y-4.4124
X3.661Y-3.6185
X3.665Y-3.4012
X3.6667Y-4.4636
X3.6788Y-3.8527
X3.6803Y-3.252
X3.6837Y-3.5317
X3.685Y-2.752
X3.685Y-2.7913
X3.685Y-2.8307
X3.685Y-2.8701
X3.6886Y-3.6185
X3.7126Y-4.352
X3.7148Y-3.2677
X3.7161Y-3.6185
X3.7176Y-3.5317
X3.7197Y-3.3967
X3.7205Y-2.752
X3.7205Y-2.7913
X3.7205Y-2.8307
X3.7205Y-2.8701
X3.7215Y-5.5502
X3.7394Y-3.7882
X3.7421Y-5.3563
X3.7437Y-3.6185
X3.7638Y-2.752
X3.7638Y-2.7913
X3.7638Y-2.8307
X3.7638Y-2.8701
X3.7669Y-3.5236
X3.7677Y-4.252
X3.7687Y-4.3071
X3.7713Y-3.6185
X3.7736Y-3.3967
X3.7768Y-4.3612
X3.7874Y-4.1298
X3.7911Y-3.5458
X3.7988Y-3.6185
X3.7992Y-2.752
X3.7992Y-2.7913
X3.7992Y-2.8307
X3.7992Y-2.8701
X3.7992Y-3.8839
X3.8182Y-3.8156
X3.8295Y-3.5591
X3.8346Y-3.2402
X3.8356Y-3.2726
X3.8425Y-2.752
X3.8425Y-2.7913
X3.8425Y-2.8307
X3.8425Y-2.8701
X3.8571Y-3.5591
X3.878Y-2.752
X3.878Y-2.7913
X3.878Y-2.8307
X3.878Y-2.8701
X3.8818Y-4.1315
X3.8819Y-3.9972
X3.889Y-5.5709
X3.8898Y-4.3996
X3.8937Y-3.8307
X3.8937Y-3.8661
X3.8937Y-3.9016
X3.8937Y-3.9409
X3.8976Y-3.6693
X3.8976Y-3.6969
X3.9232Y-5.3307
X3.9252Y-3.6969
X3.9252Y-3.8307
X3.9252Y-3.8661
X3.9252Y-3.9016
X3.9252Y-3.9409
X3.9646Y-3.3386
X3.9646Y-3.3661
X3.9646Y-3.3937
X3.9803Y-2.752
X3.9803Y-2.7913
X3.9803Y-2.8307
X3.9803Y-2.8701
X3.9862Y-3.685
X3.9921Y-3.3386
X3.9921Y-3.3661
X3.9921Y-3.3937
X4.0157Y-2.752
X4.0157Y-2.7913
X4.0157Y-2.8307
X4.0157Y-2.8701
X4.0177Y-3.685
X4.0197Y-3.3386
X4.0197Y-3.3661
X4.0197Y-3.3937
X4.0335Y-3.5443
X4.0423Y-4.1348
X4.0423Y-4.2047
X4.0423Y-4.2746
X4.0492Y-3.685
X4.0591Y-2.752
X4.0591Y-2.7913
X4.0591Y-2.8307
X4.0591Y-2.8701
X4.085Y-3.6457
X4.0945Y-2.752
X4.0945Y-2.7913
X4.0945Y-2.8307
X4.0945Y-2.8701
X4.1319Y-3.5059
X4.1378Y-2.7913
X4.1378Y-2.8307
X4.1378Y-2.8701
X4.1732Y-2.7913
X4.1732Y-2.8307
X4.1732Y-2.8701
X4.2165Y-2.7913
X4.2165Y-2.8307
X4.2165Y-2.8701
X4.252Y-2.7913
X4.252Y-2.8307
X4.252Y-2.8701
X4.2565Y-3.2695
X4.2628Y-3.5413
X4.2628Y-3.6831
X4.2953Y-2.752
X4.2953Y-2.7913
X4.2953Y-2.8307
X4.2953Y-2.8701
X4.3031Y-3.815
X4.3031Y-3.8543
X4.3031Y-3.8937
X4.3031Y-3.9331
X4.3031Y-3.9724
X4.3031Y-4.0118
X4.3031Y-4.0512
X4.3209Y-3.565
X4.3307Y-2.752
X4.3307Y-2.7913
X4.3307Y-2.8307
X4.3307Y-2.8701
X4.3386Y-3.815
X4.3386Y-3.8543
X4.3386Y-3.8937
X4.3386Y-3.9331
X4.3386Y-3.9724
X4.3386Y-4.0118
X4.3386Y-4.0512
X4.3567Y-3.2695
X4.374Y-2.752
X4.374Y-2.7913
X4.374Y-2.8307
X4.374Y-2.8701
X4.374Y-3.5039
X4.3819Y-3.815
X4.3819Y-3.8543
X4.3819Y-3.8937
X4.3819Y-3.9331
X4.3819Y-3.9724
X4.3819Y-4.0118
X4.3819Y-4.0512
X4.4094Y-2.752
X4.4094Y-2.7913
X4.4094Y-2.8307
X4.4094Y-2.8701
X4.4134Y-3.1457
X4.4134Y-3.185
X4.4134Y-3.2244
X4.4134Y-3.2638
X4.4134Y-3.3031
X4.4134Y-3.3425
X4.4173Y-3.815
X4.4173Y-3.8543
X4.4173Y-3.8937
X4.4173Y-3.9331
X4.4173Y-3.9724
X4.4173Y-4.0118
X4.4173Y-4.0512
X4.4488Y-3.1457
X4.4488Y-3.185
X4.4488Y-3.2244
X4.4488Y-3.2638
X4.4488Y-3.3031
X4.4488Y-3.3425
X4.4528Y-2.752
X4.4528Y-2.7913
X4.4528Y-2.8307
X4.4528Y-2.8701
X4.4882Y-2.752
X4.4882Y-2.7913
X4.4882Y-2.8307
X4.4882Y-2.8701
X4.4921Y-3.2244
X4.4921Y-3.2638
X4.4921Y-3.3031
X4.4921Y-3.3425
X4.5276Y-3.2244
X4.5276Y-3.2638
X4.5276Y-3.3031
X4.5276Y-3.3425
X4.5315Y-2.752
X4.5315Y-2.7913
X4.5315Y-2.8307
X4.5315Y-2.8701
X4.5524Y-5.5333
X4.5669Y-2.752
X4.5669Y-2.7913
X4.5669Y-2.8307
X4.5669Y-2.8701
X4.5835Y-3.2689
X4.5886Y-5.4134
X4.6102Y-2.752
X4.6102Y-2.7913
X4.6102Y-2.8307
X4.6102Y-2.8701
X4.6156Y-5.5333
X4.6457Y-2.752
X4.6457Y-2.7913
X4.6457Y-2.8307
X4.6457Y-2.8701
X4.6457Y-3.75
X4.6476Y-3.7894
X4.6614Y-5.7012
X4.6831Y-3.2689
X4.689Y-2.752
X4.689Y-2.7913
X4.689Y-2.8307
X4.689Y-2.8701
X4.7244Y-2.752
X4.7244Y-2.7913
X4.7244Y-2.8307
X4.7244Y-2.8701
X4.7362Y-3.0669
X4.7362Y-3.1063
X4.7362Y-3.1457
X4.7362Y-3.185
X4.7362Y-3.2244
X4.7362Y-3.2638
X4.7362Y-3.3031
X4.7362Y-3.3425
X4.7677Y-2.752
X4.7677Y-2.7913
X4.7677Y-2.8307
X4.7677Y-2.8701
X4.7717Y-3.0669
X4.7717Y-3.1063
X4.7717Y-3.1457
X4.7717Y-3.185
X4.7717Y-3.2244
X4.7717Y-3.2638
X4.7717Y-3.3031
X4.7717Y-3.3425
X4.8031Y-2.752
X4.8031Y-2.7913
X4.8031Y-2.8307
X4.8031Y-2.8701
X4.8039Y-5.5472
X4.815Y-3.0669
X4.815Y-3.1063
X4.815Y-3.1457
X4.815Y-3.185
X4.815Y-3.2244
X4.815Y-3.2638
X4.815Y-3.3031
X4.815Y-3.3425
X4.8205Y-3.4872
X4.8224Y-5.3567
X4.8465Y-2.752
X4.8465Y-2.7913
X4.8465Y-2.8307
X4.8465Y-2.8701
X4.8504Y-3.0669
X4.8504Y-3.1063
X4.8504Y-3.1457
X4.8504Y-3.185
X4.8504Y-3.2244
X4.8504Y-3.2638
X4.8504Y-3.3031
X4.8504Y-3.3425
X4.874Y-3.748
X4.874Y-3.7835
X4.874Y-3.8189
X4.8819Y-2.752
X4.8819Y-2.7913
X4.8819Y-2.8307
X4.8819Y-2.8701
X4.9055Y-3.748
X4.9055Y-3.7835
X4.9055Y-3.8189
X4.9071Y-3.4866
X4.9094Y-3.2685
X4.9252Y-2.752
X4.9252Y-2.7913
X4.9252Y-2.8307
X4.9252Y-2.8701
X4.9528Y-3.6299
X4.9528Y-3.6654
X4.9528Y-3.7008
X4.9528Y-3.748
X4.9528Y-3.7835
X4.9528Y-3.8189
X4.9606Y-2.752
X4.9606Y-2.7913
X4.9606Y-2.8307
X4.9606Y-2.8701
X4.9732Y-5.5709
X4.9843Y-3.6299
X4.9843Y-3.6654
X4.9843Y-3.7008
X4.9843Y-3.748
X4.9843Y-3.7835
X4.9843Y-3.8189
X5.0028Y-5.3307
X5.0039Y-2.752
X5.0039Y-2.7913
X5.0039Y-2.8307
X5.0039Y-2.8701
X5.0094Y-3.2685
X5.0354Y-3.6299
X5.0354Y-3.6654
X5.0354Y-3.7008
X5.0354Y-3.748
X5.0354Y-3.7835
X5.0354Y-3.8189
X5.0394Y-2.752
X5.0394Y-2.7913
X5.0394Y-2.8307
X5.0394Y-2.8701
X5.0394Y-3.9055
X5.0394Y-3.9409
X5.0598Y-3.2689
X5.0598Y-3.3083
X5.0669Y-3.6299
X5.0669Y-3.6654
X5.0669Y-3.7008
X5.0669Y-3.748
X5.0669Y-3.7835
X5.0669Y-3.8189
X5.0709Y-3.9055
X5.0709Y-3.9409
X5.0827Y-2.752
X5.0827Y-2.7913
X5.0827Y-2.8307
X5.0827Y-2.8701
X5.1093Y-3.4291
X5.1094Y-3.2685
X5.1142Y-3.6299
X5.1142Y-3.6654
X5.1142Y-3.7008
X5.1142Y-3.748
X5.1142Y-3.7835
X5.1142Y-3.8189
X5.1181Y-2.752
X5.1181Y-2.7913
X5.1181Y-2.8307
X5.1181Y-2.8701
X5.1457Y-3.6299
X5.1457Y-3.6654
X5.1457Y-3.7008
X5.1457Y-3.748
X5.1457Y-3.7835
X5.1457Y-3.8189
X5.1614Y-2.7913
X5.1614Y-2.8307
X5.1614Y-2.8701
X5.1614Y-2.9094
X5.1614Y-2.9488
X5.1614Y-2.9882
X5.1614Y-3.0276
X5.1614Y-3.0669
X5.1614Y-3.1063
X5.1614Y-3.1457
X5.1614Y-3.185
X5.1614Y-3.2244
X5.1614Y-3.2638
X5.1614Y-3.3031
X5.1614Y-3.3425
X5.1614Y-3.3819
X5.1969Y-2.7913
X5.1969Y-2.8307
X5.1969Y-2.8701
X5.1969Y-2.9094
X5.1969Y-2.9488
X5.1969Y-2.9882
X5.1969Y-3.0276
X5.1969Y-3.0669
X5.1969Y-3.1063
X5.1969Y-3.1457
X5.1969Y-3.185
X5.1969Y-3.2244
X5.1969Y-3.2638
X5.1969Y-3.3031
X5.1969Y-3.3425
X5.1969Y-3.3819
X5.1969Y-3.748
X5.1969Y-3.7835
X5.1969Y-3.8189
X5.2283Y-3.748
X5.2283Y-3.7835
X5.2283Y-3.8189
X5.2402Y-2.7913
X5.2402Y-2.8307
X5.2402Y-2.8701
X5.2402Y-2.9094
X5.2402Y-2.9488
X5.2402Y-2.9882
X5.2402Y-3.0276
X5.2402Y-3.0669
X5.2402Y-3.1063
X5.2402Y-3.1457
X5.2402Y-3.185
X5.2402Y-3.2244
X5.2402Y-3.2638
X5.2402Y-3.3031
X5.2402Y-3.3425
X5.2402Y-3.3819
X5.2417Y-3.9665
X5.2756Y-2.7913
X5.2756Y-2.8307
X5.2756Y-2.8701
X5.2756Y-2.9094
X5.2756Y-2.9488
X5.2756Y-2.9882
X5.2756Y-3.0276
X5.2756Y-3.0669
X5.2756Y-3.1063
X5.2756Y-3.1457
X5.2756Y-3.185
X5.2756Y-3.2244
X5.2756Y-3.2638
X5.2756Y-3.3031
X5.2756Y-3.3425
X5.2756Y-3.3819
X5.2795Y-3.9173
X5.2953Y-3.6161
X5.2953Y-3.6437
X5.3189Y-2.6732
X5.3189Y-2.7126
X5.3189Y-2.752
X5.3189Y-2.7913
X5.3189Y-2.8307
X5.3189Y-2.8701
X5.3189Y-2.9094
X5.3189Y-2.9488
X5.3189Y-2.9882
X5.3189Y-3.0276
X5.3189Y-3.0669
X5.3189Y-3.1063
X5.3228Y-3.6161
X5.3228Y-3.6437
X5.3543Y-2.6732
X5.3543Y-2.7126
X5.3543Y-2.752
X5.3543Y-2.7913
X5.3543Y-2.8307
X5.3543Y-2.8701
X5.3543Y-2.9094
X5.3543Y-2.9488
X5.3543Y-2.9882
X5.3543Y-3.0276
X5.3543Y-3.0669
X5.3543Y-3.1063
X5.3976Y-2.6732
X5.3976Y-2.7126
X5.3976Y-2.752
X5.3976Y-2.7913
X5.3976Y-2.8307
X5.3976Y-2.8701
X5.3976Y-2.9094
X5.3976Y-2.9488
X5.4Y-3.4433
X5.4331Y-2.6732
X5.4331Y-2.7126
X5.4331Y-2.752
X5.4331Y-2.7913
X5.4331Y-2.8307
X5.4331Y-2.8701
X5.4331Y-2.9094
X5.4331Y-2.9488
X5.4764Y-2.6732
X5.4764Y-2.7126
X5.4764Y-2.752
X5.4764Y-2.7913
X5.4764Y-2.8307
X5.4764Y-2.8701
X5.4764Y-2.9094
X5.4764Y-2.9488
X5.4764Y-3.7559
X5.4764Y-3.7953
X5.4764Y-3.8346
X5.4764Y-3.874
X5.4764Y-3.9134
X5.4764Y-3.9528
X5.5118Y-2.6732
X5.5118Y-2.7126
X5.5118Y-2.752
X5.5118Y-2.7913
X5.5118Y-2.8307
X5.5118Y-2.8701
X5.5118Y-2.9094
X5.5118Y-2.9488
X5.5118Y-3.7559
X5.5118Y-3.7953
X5.5118Y-3.8346
X5.5118Y-3.874
X5.5118Y-3.9134
X5.5118Y-3.9528
X5.5551Y-2.6732
X5.5551Y-2.7126
X5.5551Y-2.752
X5.5551Y-2.7913
X5.5551Y-2.8307
X5.5551Y-2.8701
X5.5551Y-2.9094
X5.5551Y-2.9488
X5.5551Y-3.5591
X5.5551Y-3.5984
X5.5551Y-3.6378
X5.5551Y-3.6772
X5.5551Y-3.7165
X5.5551Y-3.7559
X5.5551Y-3.7953
X5.5551Y-3.8346
X5.5551Y-3.874
X5.5551Y-3.9134
X5.5551Y-3.9528
X5.5906Y-2.6732
X5.5906Y-2.7126
X5.5906Y-2.752
X5.5906Y-2.7913
X5.5906Y-2.8307
X5.5906Y-2.8701
X5.5906Y-2.9094
X5.5906Y-2.9488
X5.5906Y-3.5591
X5.5906Y-3.5984
X5.5906Y-3.6378
X5.5906Y-3.6772
X5.5906Y-3.7165
X5.5906Y-3.7559
X5.5906Y-3.7953
X5.5906Y-3.8346
X5.5906Y-3.874
X5.5906Y-3.9134
X5.5906Y-3.9528
X5.6319Y-3.874
X5.6319Y-3.9134
X5.6319Y-3.9528
X5.6339Y-2.6732
X5.6339Y-2.7126
X5.6339Y-2.752
X5.6339Y-2.7913
X5.6339Y-2.8307
X5.6339Y-2.8701
X5.6339Y-2.9094
X5.6339Y-2.9488
X5.6339Y-3.3622
X5.6339Y-3.4016
X5.6339Y-3.4409
X5.6339Y-3.4803
X5.6339Y-3.5197
X5.6339Y-3.5591
X5.6339Y-3.5984
X5.6339Y-3.6378
X5.6339Y-3.6772
X5.6339Y-3.7165
X5.6339Y-3.7559
X5.6339Y-3.7953
X5.6339Y-3.8346
X5.6673Y-3.874
X5.6673Y-3.9134
X5.6673Y-3.9528
X5.6693Y-2.6732
X5.6693Y-2.7126
X5.6693Y-2.752
X5.6693Y-2.7913
X5.6693Y-2.8307
X5.6693Y-2.8701
X5.6693Y-2.9094
X5.6693Y-2.9488
X5.6693Y-3.3622
X5.6693Y-3.4016
X5.6693Y-3.4409
X5.6693Y-3.4803
X5.6693Y-3.5197
X5.6693Y-3.5591
X5.6693Y-3.5984
X5.6693Y-3.6378
X5.6693Y-3.6772
X5.6693Y-3.7165
X5.6693Y-3.7559
X5.6693Y-3.7953
X5.6693Y-3.8346
T2
X2.213Y-5.6335
X2.213Y-5.7335
X2.213Y-5.8335
X3.2957Y-5.6335
X3.2957Y-5.7335
X3.2957Y-5.8335
X4.3783Y-5.6335
X4.3783Y-5.7335
X4.3783Y-5.8335
T3
X1.8858Y-4.7232
X1.8858Y-4.9594
X1.9843Y-4.7232
X1.9843Y-4.9594
X2.0827Y-4.7232
X2.0827Y-4.9594
T4
X1.9213Y-2.7386
X1.9213Y-2.8386
X2.2122Y-3.0157
X2.3122Y-3.0157
X2.4122Y-3.0157
X2.5122Y-3.0157
X2.5591Y-2.6772
X2.6067Y-5.861
X2.6136Y-2.5654
X2.6681Y-2.6772
X2.7067Y-5.861
X2.7226Y-2.5654
X2.7772Y-2.6772
X2.8317Y-2.5654
X2.8862Y-2.6772
X2.9407Y-2.5654
X2.9953Y-2.6772
X3.2228Y-4.2461
X3.3228Y-4.2461
X3.6564Y-4.7953
X3.6894Y-5.861
X3.7465Y-3.0955
X3.7564Y-4.7953
X3.7894Y-5.861
X3.8465Y-3.0955
X3.9465Y-3.0955
X4.0126Y-3.8898
X4.0126Y-3.9898
X4.1126Y-3.8898
X4.1126Y-3.9898
X4.2126Y-3.8898
X4.2126Y-3.9898
X4.485Y-2.6772
X4.5079Y-3.7913
X4.5079Y-3.8913
X4.5079Y-3.9913
X4.5396Y-2.5654
X4.5941Y-2.6772
X4.6486Y-2.5654
X4.7031Y-2.6772
X4.7577Y-2.5654
X4.772Y-5.861
X4.8122Y-2.6772
X4.8667Y-2.5654
X4.872Y-5.861
X4.9213Y-2.6772
T5
X3.0917Y-3.8248
X3.0917Y-4.002
X3.3476Y-3.8248
X3.3476Y-4.002
T6
X5.5236Y-3.1496
T7
X1.9291Y-4.2512
X1.9291Y-4.4512
X2.5559Y-6.1398
X2.7559Y-6.1398
X3.6386Y-6.1398
X3.6417Y-2.5197
X3.8386Y-6.1398
X3.8417Y-2.5197
X4.7213Y-6.1398
X4.9213Y-6.1398
T8
X5.4236Y-3.0496
X5.4236Y-3.2496
X5.6236Y-3.0496
X5.6236Y-3.2496
T9
X2.285Y-2.6654
X3.2693Y-2.6654
X4.211Y-2.6654
X5.1953Y-2.6654
M30
