%TF.GenerationSoftware,KiCad,Pcbnew,8.0.3*%
%TF.CreationDate,2024-12-05T22:40:56+08:00*%
%TF.ProjectId,Explorer,4578706c-6f72-4657-922e-6b696361645f,rev?*%
%TF.SameCoordinates,Original*%
%TF.FileFunction,Soldermask,Bot*%
%TF.FilePolarity,Negative*%
%FSLAX46Y46*%
G04 Gerber Fmt 4.6, Leading zero omitted, Abs format (unit mm)*
G04 Created by KiCad (PCBNEW 8.0.3) date 2024-12-05 22:40:56*
%MOMM*%
%LPD*%
G01*
G04 APERTURE LIST*
G04 Aperture macros list*
%AMRoundRect*
0 Rectangle with rounded corners*
0 $1 Rounding radius*
0 $2 $3 $4 $5 $6 $7 $8 $9 X,Y pos of 4 corners*
0 Add a 4 corners polygon primitive as box body*
4,1,4,$2,$3,$4,$5,$6,$7,$8,$9,$2,$3,0*
0 Add four circle primitives for the rounded corners*
1,1,$1+$1,$2,$3*
1,1,$1+$1,$4,$5*
1,1,$1+$1,$6,$7*
1,1,$1+$1,$8,$9*
0 Add four rect primitives between the rounded corners*
20,1,$1+$1,$2,$3,$4,$5,0*
20,1,$1+$1,$4,$5,$6,$7,0*
20,1,$1+$1,$6,$7,$8,$9,0*
20,1,$1+$1,$8,$9,$2,$3,0*%
G04 Aperture macros list end*
%ADD10O,1.700000X1.700000*%
%ADD11R,1.700000X1.700000*%
%ADD12C,4.000000*%
%ADD13R,1.600000X1.600000*%
%ADD14C,1.600000*%
%ADD15R,3.000000X3.000000*%
%ADD16C,3.000000*%
%ADD17R,1.800000X1.800000*%
%ADD18C,1.800000*%
%ADD19C,3.200000*%
%ADD20C,1.440000*%
%ADD21C,2.050000*%
%ADD22C,2.250000*%
%ADD23C,2.000000*%
%ADD24RoundRect,0.250000X-0.925000X0.412500X-0.925000X-0.412500X0.925000X-0.412500X0.925000X0.412500X0*%
%ADD25RoundRect,0.200000X0.275000X-0.200000X0.275000X0.200000X-0.275000X0.200000X-0.275000X-0.200000X0*%
%ADD26RoundRect,0.225000X0.225000X0.250000X-0.225000X0.250000X-0.225000X-0.250000X0.225000X-0.250000X0*%
%ADD27RoundRect,0.200000X-0.200000X-0.275000X0.200000X-0.275000X0.200000X0.275000X-0.200000X0.275000X0*%
%ADD28RoundRect,0.250000X0.412500X0.925000X-0.412500X0.925000X-0.412500X-0.925000X0.412500X-0.925000X0*%
%ADD29RoundRect,0.225000X-0.225000X-0.250000X0.225000X-0.250000X0.225000X0.250000X-0.225000X0.250000X0*%
%ADD30RoundRect,0.200000X0.200000X0.275000X-0.200000X0.275000X-0.200000X-0.275000X0.200000X-0.275000X0*%
%ADD31RoundRect,0.250000X1.000000X0.650000X-1.000000X0.650000X-1.000000X-0.650000X1.000000X-0.650000X0*%
%ADD32R,2.000000X0.800000*%
%ADD33RoundRect,0.218750X0.218750X0.256250X-0.218750X0.256250X-0.218750X-0.256250X0.218750X-0.256250X0*%
%ADD34RoundRect,0.225000X-0.225000X-0.375000X0.225000X-0.375000X0.225000X0.375000X-0.225000X0.375000X0*%
%ADD35RoundRect,0.375000X0.375000X-0.625000X0.375000X0.625000X-0.375000X0.625000X-0.375000X-0.625000X0*%
%ADD36RoundRect,0.500000X1.400000X-0.500000X1.400000X0.500000X-1.400000X0.500000X-1.400000X-0.500000X0*%
%ADD37RoundRect,0.150000X0.825000X0.150000X-0.825000X0.150000X-0.825000X-0.150000X0.825000X-0.150000X0*%
%ADD38RoundRect,0.225000X0.225000X0.375000X-0.225000X0.375000X-0.225000X-0.375000X0.225000X-0.375000X0*%
%ADD39C,1.000000*%
%ADD40RoundRect,0.250000X-1.000000X-0.650000X1.000000X-0.650000X1.000000X0.650000X-1.000000X0.650000X0*%
%ADD41RoundRect,0.250000X-0.412500X-0.925000X0.412500X-0.925000X0.412500X0.925000X-0.412500X0.925000X0*%
G04 APERTURE END LIST*
D10*
%TO.C,J11*%
X123750000Y-146870000D03*
D11*
X121210000Y-146870000D03*
%TD*%
D10*
%TO.C,J10*%
X96250000Y-146870000D03*
D11*
X93710000Y-146870000D03*
%TD*%
D12*
%TO.C,J8*%
X131960000Y-67700000D03*
X106960000Y-67700000D03*
D13*
X125000000Y-68000000D03*
D14*
X122230000Y-68000000D03*
X119460000Y-68000000D03*
X116690000Y-68000000D03*
X113920000Y-68000000D03*
X123615000Y-65160000D03*
X120845000Y-65160000D03*
X118075000Y-65160000D03*
X115305000Y-65160000D03*
%TD*%
D11*
%TO.C,JP2*%
X48800000Y-69560000D03*
D10*
X48800000Y-72100000D03*
%TD*%
D15*
%TO.C,J13*%
X125000000Y-155950000D03*
D16*
X119920000Y-155950000D03*
%TD*%
D11*
%TO.C,J5*%
X100240000Y-78625000D03*
D10*
X97700000Y-78625000D03*
X95160000Y-78625000D03*
%TD*%
D11*
%TO.C,U5*%
X56190000Y-76600000D03*
D10*
X58730000Y-76600000D03*
X61270000Y-76600000D03*
X63810000Y-76600000D03*
%TD*%
D17*
%TO.C,SW1*%
X47900000Y-119970000D03*
D18*
X50400000Y-119970000D03*
X52900000Y-119970000D03*
X47900000Y-125970000D03*
X50400000Y-125970000D03*
X52900000Y-125970000D03*
%TD*%
D19*
%TO.C,H3*%
X141950000Y-156950000D03*
%TD*%
D20*
%TO.C,RV3*%
X111210000Y-148170000D03*
X111210000Y-145630000D03*
X111210000Y-143090000D03*
%TD*%
D19*
%TO.C,H4*%
X48050000Y-156950000D03*
%TD*%
%TO.C,H2*%
X141950000Y-63050000D03*
%TD*%
D11*
%TO.C,J2*%
X107000000Y-98800000D03*
D10*
X107000000Y-101340000D03*
X104460000Y-98800000D03*
X104460000Y-101340000D03*
X101920000Y-98800000D03*
X101920000Y-101340000D03*
%TD*%
D21*
%TO.C,J4*%
X140300000Y-80000000D03*
D22*
X137760000Y-77460000D03*
X137760000Y-82540000D03*
X142840000Y-77460000D03*
X142840000Y-82540000D03*
%TD*%
D15*
%TO.C,J3*%
X92500000Y-64000000D03*
D16*
X97580000Y-64000000D03*
%TD*%
D19*
%TO.C,H1*%
X48050000Y-63050000D03*
%TD*%
D11*
%TO.C,JP1*%
X95412500Y-121800000D03*
D10*
X92872500Y-121800000D03*
%TD*%
D23*
%TO.C,SW2*%
X85030000Y-101650000D03*
X78530000Y-101650000D03*
X85030000Y-97150000D03*
X78530000Y-97150000D03*
%TD*%
D12*
%TO.C,J7*%
X83040000Y-67700000D03*
X58040000Y-67700000D03*
D13*
X65000000Y-68000000D03*
D14*
X67770000Y-68000000D03*
X70540000Y-68000000D03*
X73310000Y-68000000D03*
X76080000Y-68000000D03*
X66385000Y-65160000D03*
X69155000Y-65160000D03*
X71925000Y-65160000D03*
X74695000Y-65160000D03*
%TD*%
D15*
%TO.C,J14*%
X97500000Y-155950000D03*
D16*
X92420000Y-155950000D03*
%TD*%
D10*
%TO.C,J9*%
X68750000Y-146870000D03*
D11*
X66210000Y-146870000D03*
%TD*%
D20*
%TO.C,RV1*%
X56210000Y-148170000D03*
X56210000Y-145630000D03*
X56210000Y-143090000D03*
%TD*%
%TO.C,RV2*%
X83710000Y-148170000D03*
X83710000Y-145630000D03*
X83710000Y-143090000D03*
%TD*%
D11*
%TO.C,J6*%
X114500000Y-96300000D03*
D10*
X114500000Y-98840000D03*
X114500000Y-101380000D03*
%TD*%
D15*
%TO.C,J12*%
X70000000Y-155950000D03*
D16*
X64920000Y-155950000D03*
%TD*%
D15*
%TO.C,J1*%
X49000000Y-113060000D03*
D16*
X49000000Y-107980000D03*
%TD*%
D24*
%TO.C,C16*%
X51457500Y-81462500D03*
X51457500Y-84537500D03*
%TD*%
D25*
%TO.C,R7*%
X67850000Y-105075000D03*
X67850000Y-103425000D03*
%TD*%
D26*
%TO.C,C35*%
X76525000Y-81850000D03*
X74975000Y-81850000D03*
%TD*%
D24*
%TO.C,C13*%
X51457500Y-87962500D03*
X51457500Y-91037500D03*
%TD*%
D27*
%TO.C,R57*%
X89725000Y-106800000D03*
X91375000Y-106800000D03*
%TD*%
D26*
%TO.C,C23*%
X72325000Y-93150000D03*
X70775000Y-93150000D03*
%TD*%
%TO.C,C14*%
X57055000Y-91400000D03*
X55505000Y-91400000D03*
%TD*%
%TO.C,C32*%
X67975000Y-73300000D03*
X66425000Y-73300000D03*
%TD*%
D28*
%TO.C,C6*%
X91975000Y-117400000D03*
X88900000Y-117400000D03*
%TD*%
D29*
%TO.C,C61*%
X97250000Y-109800000D03*
X98800000Y-109800000D03*
%TD*%
D30*
%TO.C,R62*%
X98850000Y-108000000D03*
X97200000Y-108000000D03*
%TD*%
D29*
%TO.C,C15*%
X59820000Y-91400000D03*
X61370000Y-91400000D03*
%TD*%
D27*
%TO.C,R56*%
X89725000Y-105025000D03*
X91375000Y-105025000D03*
%TD*%
D30*
%TO.C,R17*%
X72375000Y-96550000D03*
X70725000Y-96550000D03*
%TD*%
D29*
%TO.C,C26*%
X70775000Y-98250000D03*
X72325000Y-98250000D03*
%TD*%
D27*
%TO.C,R29*%
X116950000Y-81150000D03*
X118600000Y-81150000D03*
%TD*%
%TO.C,R27*%
X126525000Y-80375000D03*
X128175000Y-80375000D03*
%TD*%
D31*
%TO.C,D1*%
X52300000Y-122892500D03*
X48300000Y-122892500D03*
%TD*%
D27*
%TO.C,R30*%
X116945000Y-79455000D03*
X118595000Y-79455000D03*
%TD*%
D32*
%TO.C,BT1*%
X133150000Y-95920000D03*
X133150000Y-94420000D03*
%TD*%
D33*
%TO.C,D4*%
X52375000Y-78250000D03*
X50800000Y-78250000D03*
%TD*%
D34*
%TO.C,D11*%
X76050000Y-75620000D03*
X79350000Y-75620000D03*
%TD*%
D35*
%TO.C,U3*%
X60700000Y-87750000D03*
X58400000Y-87750000D03*
D36*
X58400000Y-81450000D03*
D35*
X56100000Y-87750000D03*
%TD*%
D37*
%TO.C,U10*%
X71825000Y-75395000D03*
X71825000Y-76665000D03*
X71825000Y-77935000D03*
X71825000Y-79205000D03*
X71825000Y-80475000D03*
X71825000Y-81745000D03*
X71825000Y-83015000D03*
X71825000Y-84285000D03*
X66875000Y-84285000D03*
X66875000Y-83015000D03*
X66875000Y-81745000D03*
X66875000Y-80475000D03*
X66875000Y-79205000D03*
X66875000Y-77935000D03*
X66875000Y-76665000D03*
X66875000Y-75395000D03*
%TD*%
D30*
%TO.C,R61*%
X98850000Y-106200000D03*
X97200000Y-106200000D03*
%TD*%
D27*
%TO.C,R28*%
X126525000Y-82075000D03*
X128175000Y-82075000D03*
%TD*%
%TO.C,R58*%
X89725000Y-108575000D03*
X91375000Y-108575000D03*
%TD*%
D31*
%TO.C,D5*%
X119655000Y-89870000D03*
X115655000Y-89870000D03*
%TD*%
D33*
%TO.C,D3*%
X85580000Y-116520000D03*
X84005000Y-116520000D03*
%TD*%
D29*
%TO.C,C31*%
X76010000Y-73300000D03*
X77560000Y-73300000D03*
%TD*%
D27*
%TO.C,R24*%
X108550000Y-81150000D03*
X110200000Y-81150000D03*
%TD*%
D38*
%TO.C,D6*%
X83700000Y-83130000D03*
X80400000Y-83130000D03*
%TD*%
D30*
%TO.C,R4*%
X85637500Y-118320000D03*
X83987500Y-118320000D03*
%TD*%
D27*
%TO.C,R25*%
X108550000Y-79455000D03*
X110200000Y-79455000D03*
%TD*%
D39*
%TO.C,TP3*%
X48000000Y-82250000D03*
%TD*%
D37*
%TO.C,U8*%
X71825000Y-87350000D03*
X71825000Y-88620000D03*
X71825000Y-89890000D03*
X71825000Y-91160000D03*
X66875000Y-91160000D03*
X66875000Y-89890000D03*
X66875000Y-88620000D03*
X66875000Y-87350000D03*
%TD*%
D26*
%TO.C,C33*%
X74175000Y-73300000D03*
X72625000Y-73300000D03*
%TD*%
D40*
%TO.C,D2*%
X56597500Y-119715000D03*
X60597500Y-119715000D03*
%TD*%
D29*
%TO.C,C34*%
X74975000Y-83550000D03*
X76525000Y-83550000D03*
%TD*%
%TO.C,C22*%
X70775000Y-94850000D03*
X72325000Y-94850000D03*
%TD*%
D27*
%TO.C,R9*%
X47350000Y-78250000D03*
X49000000Y-78250000D03*
%TD*%
D25*
%TO.C,R60*%
X100850000Y-105075000D03*
X100850000Y-103425000D03*
%TD*%
D37*
%TO.C,U7*%
X80445000Y-87350000D03*
X80445000Y-88620000D03*
X80445000Y-89890000D03*
X80445000Y-91160000D03*
X80445000Y-92430000D03*
X80445000Y-93700000D03*
X80445000Y-94970000D03*
X75495000Y-94970000D03*
X75495000Y-93700000D03*
X75495000Y-92430000D03*
X75495000Y-91160000D03*
X75495000Y-89890000D03*
X75495000Y-88620000D03*
X75495000Y-87350000D03*
%TD*%
D27*
%TO.C,R26*%
X126525000Y-78675000D03*
X128175000Y-78675000D03*
%TD*%
D34*
%TO.C,D12*%
X76050000Y-78350000D03*
X79350000Y-78350000D03*
%TD*%
D26*
%TO.C,C28*%
X93050000Y-85325000D03*
X91500000Y-85325000D03*
%TD*%
D41*
%TO.C,C3*%
X57060000Y-124970000D03*
X60135000Y-124970000D03*
%TD*%
M02*
