M48
; DRILL file {KiCad 7.0.10} date 西元2024年05月28日 (週二) 11時55分38秒
; FORMAT={-:-/ absolute / inch / decimal}
; #@! TF.CreationDate,2024-05-28T11:55:38+08:00
; #@! TF.GenerationSoftware,Kicad,Pcbnew,7.0.10
; #@! TF.FileFunction,Plated,1,2,PTH
FMAT,2
INCH
; #@! TA.AperFunction,Plated,PTH,ViaDrill
T1C0.0157
; #@! TA.AperFunction,Plated,PTH,ComponentDrill
T2C0.0295
; #@! TA.AperFunction,Plated,PTH,ComponentDrill
T3C0.0394
; #@! TA.AperFunction,Plated,PTH,ComponentDrill
T4C0.0591
; #@! TA.AperFunction,Plated,PTH,ComponentDrill
T5C0.0598
; #@! TA.AperFunction,Plated,PTH,ComponentDrill
T6C0.0669
; #@! TA.AperFunction,Plated,PTH,ComponentDrill
T7C0.1260
%
G90
G05
T1
X1.9594Y-4.6803
X2.0276Y-3.2283
X2.0472Y-5.7087
X2.0957Y-3.4854
X2.126Y-3.2283
X2.2551Y-5.4276
X2.3622Y-5.7087
X2.3768Y-5.2811
X2.4319Y-5.0016
X2.5122Y-5.361
X2.5126Y-5.2827
X2.5736Y-5.3622
X2.7276Y-5.1587
X2.7949Y-4.2283
X2.8346Y-3.7008
X2.8346Y-3.937
X2.8465Y-3.0114
X2.9193Y-3.0697
X2.9843Y-3.3858
X2.9843Y-4.724
X2.9866Y-3.0122
X3.0512Y-3.6528
X3.1024Y-3.0902
X3.1051Y-3.937
X3.1299Y-3.5433
X3.1299Y-3.6547
X3.1299Y-3.7205
X3.1858Y-5.3402
X3.189Y-3.5433
X3.2087Y-3.4449
X3.2087Y-3.4843
X3.248Y-3.8976
X3.2606Y-4.2701
X3.2622Y-3.8134
X3.3031Y-3.8661
X3.315Y-4.0236
X3.3661Y-3.563
X3.3661Y-3.6024
X3.3701Y-3.8661
X3.376Y-3.7185
X3.3764Y-4.7268
X3.3787Y-3.3713
X3.4539Y-3.5807
X3.4654Y-3.7098
X3.4843Y-3.5354
X3.5433Y-5.374
X3.5433Y-5.4528
X3.5433Y-5.5315
X3.563Y-5.3346
X3.563Y-5.4134
X3.563Y-5.4921
X3.6024Y-3.1496
X3.6024Y-3.2283
X3.6024Y-3.3071
X3.6024Y-3.3858
X3.6181Y-3.9449
X3.648Y-3.8102
X3.6575Y-3.9646
X3.6811Y-3.4646
X3.6827Y-3.7618
X3.6929Y-3.7008
X3.6929Y-3.9449
X3.7008Y-3.3071
X3.7008Y-4.9591
X3.7602Y-3.2634
X3.7673Y-3.9638
X3.7685Y-3.8799
X3.7697Y-3.8335
X3.7846Y-5.115
X3.7992Y-3.622
X3.7992Y-3.6811
X3.8114Y-3.4866
X3.8252Y-4.9591
X3.8299Y-5.2165
X3.8299Y-5.2937
X3.8386Y-3.3071
X3.8602Y-4.4382
X3.8614Y-3.6181
X3.9173Y-3.3071
X3.9358Y-3.4882
X3.9669Y-5.2949
X4.0236Y-3.6909
X4.0354Y-3.3071
X4.0524Y-4.6201
X4.1146Y-3.6413
X4.1929Y-3.9764
X4.2323Y-3.4843
X4.2421Y-3.0591
X4.2717Y-3.4843
X4.285Y-4.961
X4.289Y-3.937
X4.335Y-3.711
X4.4094Y-4.1142
X4.4102Y-3.8228
X4.4177Y-4.4484
X4.4248Y-5.7484
X4.4685Y-4.1142
X4.4807Y-4.213
X4.4811Y-4.2906
X4.4815Y-4.4488
X4.4874Y-5.2063
X4.4874Y-5.4811
X4.489Y-5.5429
X4.4898Y-5.7583
X4.5039Y-4.0311
X4.5902Y-4.4047
X4.613Y-5.5126
X4.6165Y-3.065
X4.678Y-5.3146
X4.678Y-5.4343
X4.678Y-5.7087
X4.6783Y-4.922
X4.6787Y-5.8276
X4.6791Y-5.0398
X4.685Y-4.2913
X4.724Y-5.8728
X4.7579Y-3.6213
X4.8327Y-5.9043
X4.8331Y-5.0386
X4.8335Y-5.5122
X4.8343Y-5.1177
X4.8343Y-5.4335
X4.8343Y-5.8268
X4.8492Y-3.8976
X4.8622Y-4.9606
X4.8622Y-5.3543
X4.8622Y-5.748
X4.8736Y-3.0323
X4.9283Y-4.3118
X4.9295Y-4.4681
X4.9555Y-2.9524
X4.9555Y-3.1102
X4.9941Y-4.313
X5.1299Y-4.3886
T2
X4.9606Y-3.6614
X5.0106Y-3.6614
X5.0606Y-3.6614
T3
X2.2516Y-3.0157
X2.3516Y-3.0157
X2.4516Y-3.0157
X2.5516Y-3.0157
X2.7559Y-2.6772
X2.8104Y-2.5654
X2.865Y-2.6772
X2.9195Y-2.5654
X2.974Y-2.6772
X3.0285Y-2.5654
X3.0831Y-2.6772
X3.1376Y-2.5654
X3.1921Y-2.6772
X3.2646Y-2.9921
X3.2646Y-3.9764
X3.2677Y-3.1677
X3.2677Y-3.2677
X3.3646Y-2.9921
X3.3646Y-3.9764
X3.3677Y-3.1677
X3.3677Y-3.2677
X3.4646Y-2.9921
X3.4646Y-3.9764
X3.4677Y-3.1677
X3.4677Y-3.2677
X4.2882Y-2.6772
X4.3427Y-2.5654
X4.3972Y-2.6772
X4.4518Y-2.5654
X4.5063Y-2.6772
X4.5608Y-2.5654
X4.6154Y-2.6772
X4.6699Y-2.5654
X4.7244Y-2.6772
X5.1181Y-4.8803
X5.1181Y-4.9803
X5.1181Y-5.2937
X5.1181Y-5.3937
X5.1181Y-5.6874
X5.1181Y-5.7874
T4
X1.9622Y-5.4787
X2.2622Y-4.6787
X2.3622Y-5.4787
X2.4622Y-4.6787
X2.7622Y-5.4787
X5.5315Y-3.8976
T5
X1.9291Y-4.2094
X1.9291Y-4.4094
X5.5315Y-2.8346
X5.5315Y-3.0346
X5.5315Y-3.2346
X5.5315Y-3.4346
X5.5315Y-4.8425
X5.5315Y-5.0425
X5.5315Y-5.2425
X5.5315Y-5.4425
X5.5315Y-5.6425
X5.5315Y-5.8425
T6
X5.4315Y-3.7976
X5.4315Y-3.9976
X5.6315Y-3.7976
X5.6315Y-3.9976
T7
X2.4819Y-2.6654
X3.4661Y-2.6654
X4.0142Y-2.6654
X4.9984Y-2.6654
M30
