%TF.GenerationSoftware,KiCad,Pcbnew,8.0.3*%
%TF.CreationDate,2024-12-23T00:40:43+08:00*%
%TF.ProjectId,Explorer,4578706c-6f72-4657-922e-6b696361645f,rev?*%
%TF.SameCoordinates,Original*%
%TF.FileFunction,Soldermask,Top*%
%TF.FilePolarity,Negative*%
%FSLAX46Y46*%
G04 Gerber Fmt 4.6, Leading zero omitted, Abs format (unit mm)*
G04 Created by KiCad (PCBNEW 8.0.3) date 2024-12-23 00:40:43*
%MOMM*%
%LPD*%
G01*
G04 APERTURE LIST*
G04 Aperture macros list*
%AMRoundRect*
0 Rectangle with rounded corners*
0 $1 Rounding radius*
0 $2 $3 $4 $5 $6 $7 $8 $9 X,Y pos of 4 corners*
0 Add a 4 corners polygon primitive as box body*
4,1,4,$2,$3,$4,$5,$6,$7,$8,$9,$2,$3,0*
0 Add four circle primitives for the rounded corners*
1,1,$1+$1,$2,$3*
1,1,$1+$1,$4,$5*
1,1,$1+$1,$6,$7*
1,1,$1+$1,$8,$9*
0 Add four rect primitives between the rounded corners*
20,1,$1+$1,$2,$3,$4,$5,0*
20,1,$1+$1,$4,$5,$6,$7,0*
20,1,$1+$1,$6,$7,$8,$9,0*
20,1,$1+$1,$8,$9,$2,$3,0*%
G04 Aperture macros list end*
%ADD10RoundRect,0.200000X0.200000X0.275000X-0.200000X0.275000X-0.200000X-0.275000X0.200000X-0.275000X0*%
%ADD11RoundRect,0.150000X-0.825000X-0.150000X0.825000X-0.150000X0.825000X0.150000X-0.825000X0.150000X0*%
%ADD12RoundRect,0.200000X-0.200000X-0.275000X0.200000X-0.275000X0.200000X0.275000X-0.200000X0.275000X0*%
%ADD13RoundRect,0.250000X0.925000X-0.412500X0.925000X0.412500X-0.925000X0.412500X-0.925000X-0.412500X0*%
%ADD14RoundRect,0.250000X0.325000X1.100000X-0.325000X1.100000X-0.325000X-1.100000X0.325000X-1.100000X0*%
%ADD15RoundRect,0.200000X0.275000X-0.200000X0.275000X0.200000X-0.275000X0.200000X-0.275000X-0.200000X0*%
%ADD16RoundRect,0.250000X-1.075000X0.375000X-1.075000X-0.375000X1.075000X-0.375000X1.075000X0.375000X0*%
%ADD17RoundRect,0.125000X0.125000X-0.537500X0.125000X0.537500X-0.125000X0.537500X-0.125000X-0.537500X0*%
%ADD18C,4.000000*%
%ADD19R,1.600000X1.600000*%
%ADD20C,1.600000*%
%ADD21R,1.120000X2.440000*%
%ADD22RoundRect,0.225000X0.250000X-0.225000X0.250000X0.225000X-0.250000X0.225000X-0.250000X-0.225000X0*%
%ADD23RoundRect,0.250000X-0.412500X-0.925000X0.412500X-0.925000X0.412500X0.925000X-0.412500X0.925000X0*%
%ADD24R,1.700000X1.700000*%
%ADD25O,1.700000X1.700000*%
%ADD26RoundRect,0.200000X-0.200000X0.700000X-0.200000X-0.700000X0.200000X-0.700000X0.200000X0.700000X0*%
%ADD27R,3.000000X3.000000*%
%ADD28C,3.000000*%
%ADD29RoundRect,0.250000X0.412500X0.925000X-0.412500X0.925000X-0.412500X-0.925000X0.412500X-0.925000X0*%
%ADD30RoundRect,0.225000X-0.225000X-0.250000X0.225000X-0.250000X0.225000X0.250000X-0.225000X0.250000X0*%
%ADD31RoundRect,0.250000X-1.000000X-0.650000X1.000000X-0.650000X1.000000X0.650000X-1.000000X0.650000X0*%
%ADD32RoundRect,0.087500X0.225000X0.087500X-0.225000X0.087500X-0.225000X-0.087500X0.225000X-0.087500X0*%
%ADD33RoundRect,0.087500X0.087500X0.225000X-0.087500X0.225000X-0.087500X-0.225000X0.087500X-0.225000X0*%
%ADD34RoundRect,0.250000X-0.325000X-1.100000X0.325000X-1.100000X0.325000X1.100000X-0.325000X1.100000X0*%
%ADD35RoundRect,0.150000X0.512500X0.150000X-0.512500X0.150000X-0.512500X-0.150000X0.512500X-0.150000X0*%
%ADD36RoundRect,0.235000X-1.465000X0.940000X-1.465000X-0.940000X1.465000X-0.940000X1.465000X0.940000X0*%
%ADD37R,2.290000X3.000000*%
%ADD38R,2.000000X4.500000*%
%ADD39R,1.800000X1.800000*%
%ADD40C,1.800000*%
%ADD41C,3.200000*%
%ADD42RoundRect,0.218750X0.256250X-0.218750X0.256250X0.218750X-0.256250X0.218750X-0.256250X-0.218750X0*%
%ADD43RoundRect,0.225000X-0.250000X0.225000X-0.250000X-0.225000X0.250000X-0.225000X0.250000X0.225000X0*%
%ADD44RoundRect,0.250000X-0.925000X0.412500X-0.925000X-0.412500X0.925000X-0.412500X0.925000X0.412500X0*%
%ADD45RoundRect,0.225000X0.225000X0.250000X-0.225000X0.250000X-0.225000X-0.250000X0.225000X-0.250000X0*%
%ADD46RoundRect,0.218750X-0.218750X-0.256250X0.218750X-0.256250X0.218750X0.256250X-0.218750X0.256250X0*%
%ADD47C,2.050000*%
%ADD48C,2.250000*%
%ADD49R,1.910000X0.610000*%
%ADD50R,1.205000X1.550000*%
%ADD51RoundRect,0.150000X-0.150000X0.587500X-0.150000X-0.587500X0.150000X-0.587500X0.150000X0.587500X0*%
%ADD52RoundRect,0.200000X-0.275000X0.200000X-0.275000X-0.200000X0.275000X-0.200000X0.275000X0.200000X0*%
%ADD53C,2.000000*%
%ADD54RoundRect,0.225000X0.225000X0.375000X-0.225000X0.375000X-0.225000X-0.375000X0.225000X-0.375000X0*%
%ADD55RoundRect,0.100000X-0.637500X-0.100000X0.637500X-0.100000X0.637500X0.100000X-0.637500X0.100000X0*%
%ADD56RoundRect,0.218750X0.218750X0.256250X-0.218750X0.256250X-0.218750X-0.256250X0.218750X-0.256250X0*%
%ADD57RoundRect,0.075000X-0.662500X-0.075000X0.662500X-0.075000X0.662500X0.075000X-0.662500X0.075000X0*%
%ADD58RoundRect,0.075000X-0.075000X-0.662500X0.075000X-0.662500X0.075000X0.662500X-0.075000X0.662500X0*%
G04 APERTURE END LIST*
D10*
%TO.C,R63*%
X78050000Y-143740000D03*
X76400000Y-143740000D03*
%TD*%
D11*
%TO.C,U19*%
X117525000Y-130095000D03*
X117525000Y-131365000D03*
X117525000Y-132635000D03*
X117525000Y-133905000D03*
X122475000Y-133905000D03*
X122475000Y-132635000D03*
X122475000Y-131365000D03*
X122475000Y-130095000D03*
%TD*%
D12*
%TO.C,R22*%
X92150000Y-75200000D03*
X93800000Y-75200000D03*
%TD*%
D13*
%TO.C,C1*%
X77375000Y-109387500D03*
X77375000Y-106312500D03*
%TD*%
D14*
%TO.C,C66*%
X138270000Y-147250000D03*
X135320000Y-147250000D03*
%TD*%
D12*
%TO.C,R80*%
X127675000Y-128700000D03*
X129325000Y-128700000D03*
%TD*%
D15*
%TO.C,R5*%
X56800000Y-97825000D03*
X56800000Y-96175000D03*
%TD*%
D10*
%TO.C,R19*%
X100625000Y-75200000D03*
X98975000Y-75200000D03*
%TD*%
D16*
%TO.C,L2*%
X73025000Y-117275000D03*
X73025000Y-120075000D03*
%TD*%
D12*
%TO.C,R82*%
X121395000Y-127000000D03*
X123045000Y-127000000D03*
%TD*%
D10*
%TO.C,R37*%
X120600000Y-148090000D03*
X118950000Y-148090000D03*
%TD*%
D17*
%TO.C,U4*%
X52450000Y-98075000D03*
X53100000Y-98075000D03*
X53750000Y-98075000D03*
X54400000Y-98075000D03*
X54400000Y-95800000D03*
X53750000Y-95800000D03*
X53100000Y-95800000D03*
X52450000Y-95800000D03*
%TD*%
D12*
%TO.C,R68*%
X97675000Y-132700000D03*
X99325000Y-132700000D03*
%TD*%
%TO.C,R89*%
X131955000Y-127000000D03*
X133605000Y-127000000D03*
%TD*%
D18*
%TO.C,J8*%
X131960000Y-67700000D03*
X106960000Y-67700000D03*
D19*
X125000000Y-68000000D03*
D20*
X122230000Y-68000000D03*
X119460000Y-68000000D03*
X116690000Y-68000000D03*
X113920000Y-68000000D03*
X123615000Y-65160000D03*
X120845000Y-65160000D03*
X118075000Y-65160000D03*
X115305000Y-65160000D03*
%TD*%
D21*
%TO.C,SW4*%
X124700000Y-84575000D03*
X127240000Y-84575000D03*
X129780000Y-84575000D03*
X129780000Y-75965000D03*
X127240000Y-75965000D03*
X124700000Y-75965000D03*
%TD*%
D22*
%TO.C,C7*%
X66200000Y-107900000D03*
X66200000Y-106350000D03*
%TD*%
D23*
%TO.C,C24*%
X59062500Y-91500000D03*
X62137500Y-91500000D03*
%TD*%
D12*
%TO.C,R51*%
X70175000Y-149930000D03*
X71825000Y-149930000D03*
%TD*%
D14*
%TO.C,C59*%
X116750000Y-147250000D03*
X113800000Y-147250000D03*
%TD*%
D10*
%TO.C,R9*%
X49925000Y-94300000D03*
X48275000Y-94300000D03*
%TD*%
D12*
%TO.C,R24*%
X84205000Y-93850000D03*
X85855000Y-93850000D03*
%TD*%
D23*
%TO.C,C18*%
X81735000Y-117200000D03*
X84810000Y-117200000D03*
%TD*%
D10*
%TO.C,R48*%
X91786696Y-98950000D03*
X90136696Y-98950000D03*
%TD*%
D24*
%TO.C,JP4*%
X48800000Y-72075000D03*
D25*
X48800000Y-69535000D03*
%TD*%
D12*
%TO.C,R83*%
X136395000Y-127000000D03*
X138045000Y-127000000D03*
%TD*%
D26*
%TO.C,U9*%
X135340000Y-90000000D03*
X134240000Y-90000000D03*
X133140000Y-90000000D03*
X132040000Y-90000000D03*
X130940000Y-90000000D03*
X129840000Y-90000000D03*
X128740000Y-90000000D03*
X125740000Y-90000000D03*
X124640000Y-90000000D03*
X123540000Y-90000000D03*
X122440000Y-90000000D03*
X121340000Y-90000000D03*
X121340000Y-102000000D03*
X122440000Y-102000000D03*
X123540000Y-102000000D03*
X124640000Y-102000000D03*
X125740000Y-102000000D03*
X128740000Y-102000000D03*
X129840000Y-102000000D03*
X130940000Y-102000000D03*
X132040000Y-102000000D03*
X133140000Y-102000000D03*
X134240000Y-102000000D03*
X135340000Y-102000000D03*
%TD*%
D27*
%TO.C,J11*%
X125000000Y-155950000D03*
D28*
X119920000Y-155950000D03*
%TD*%
D12*
%TO.C,R73*%
X127675000Y-134700000D03*
X129325000Y-134700000D03*
%TD*%
D29*
%TO.C,C26*%
X56000000Y-91500000D03*
X52925000Y-91500000D03*
%TD*%
D12*
%TO.C,R15*%
X86075000Y-77000000D03*
X87725000Y-77000000D03*
%TD*%
D30*
%TO.C,C67*%
X97055000Y-102350000D03*
X98605000Y-102350000D03*
%TD*%
D24*
%TO.C,J5*%
X100240000Y-78625000D03*
D25*
X97700000Y-78625000D03*
X95160000Y-78625000D03*
%TD*%
D30*
%TO.C,C48*%
X90350000Y-80400000D03*
X91900000Y-80400000D03*
%TD*%
D31*
%TO.C,D3*%
X69300000Y-107125000D03*
X73300000Y-107125000D03*
%TD*%
D24*
%TO.C,JP3*%
X48800000Y-132100000D03*
D25*
X48800000Y-134640000D03*
%TD*%
D10*
%TO.C,R17*%
X108145000Y-95700000D03*
X106495000Y-95700000D03*
%TD*%
D32*
%TO.C,U17*%
X97649196Y-99400000D03*
X97649196Y-98900000D03*
X97649196Y-98400000D03*
X97649196Y-97900000D03*
D33*
X96986696Y-97737500D03*
X96486696Y-97737500D03*
X95986696Y-97737500D03*
D32*
X95324196Y-97900000D03*
X95324196Y-98400000D03*
X95324196Y-98900000D03*
X95324196Y-99400000D03*
D33*
X95986696Y-99562500D03*
X96486696Y-99562500D03*
X96986696Y-99562500D03*
%TD*%
D10*
%TO.C,R65*%
X133050000Y-143710000D03*
X131400000Y-143710000D03*
%TD*%
%TO.C,R58*%
X105550000Y-146350000D03*
X103900000Y-146350000D03*
%TD*%
D30*
%TO.C,C60*%
X93630000Y-102350000D03*
X95180000Y-102350000D03*
%TD*%
D34*
%TO.C,C61*%
X80320000Y-142850000D03*
X83270000Y-142850000D03*
%TD*%
D10*
%TO.C,R44*%
X65600000Y-143740000D03*
X63950000Y-143740000D03*
%TD*%
D14*
%TO.C,C65*%
X110770000Y-147250000D03*
X107820000Y-147250000D03*
%TD*%
D23*
%TO.C,C9*%
X59312500Y-119800000D03*
X62387500Y-119800000D03*
%TD*%
D35*
%TO.C,U5*%
X68170000Y-124550000D03*
X68170000Y-123600000D03*
X68170000Y-122650000D03*
X65895000Y-122650000D03*
X65895000Y-124550000D03*
%TD*%
D36*
%TO.C,L1*%
X60827500Y-106912500D03*
X60827500Y-112962500D03*
%TD*%
D11*
%TO.C,U14*%
X68525000Y-143095000D03*
X68525000Y-144365000D03*
X68525000Y-145635000D03*
X68525000Y-146905000D03*
X73475000Y-146905000D03*
X73475000Y-145635000D03*
X73475000Y-144365000D03*
X73475000Y-143095000D03*
D37*
X71000000Y-145000000D03*
%TD*%
D12*
%TO.C,R66*%
X97675000Y-130700000D03*
X99325000Y-130700000D03*
%TD*%
%TO.C,R23*%
X95550000Y-75200000D03*
X97200000Y-75200000D03*
%TD*%
%TO.C,R74*%
X127675000Y-132700000D03*
X129325000Y-132700000D03*
%TD*%
D36*
%TO.C,L3*%
X64200000Y-95975000D03*
X64200000Y-102025000D03*
%TD*%
D10*
%TO.C,R27*%
X85480000Y-85250000D03*
X83830000Y-85250000D03*
%TD*%
D38*
%TO.C,Y1*%
X79630000Y-92050000D03*
X79630000Y-83550000D03*
%TD*%
D12*
%TO.C,R38*%
X63950000Y-146380000D03*
X65600000Y-146380000D03*
%TD*%
D39*
%TO.C,SW1*%
X47900000Y-119970000D03*
D40*
X50400000Y-119970000D03*
X52900000Y-119970000D03*
X47900000Y-125970000D03*
X50400000Y-125970000D03*
X52900000Y-125970000D03*
%TD*%
D41*
%TO.C,H3*%
X141950000Y-156950000D03*
%TD*%
D30*
%TO.C,C45*%
X90350000Y-82100000D03*
X91900000Y-82100000D03*
%TD*%
D42*
%TO.C,L5*%
X140300000Y-89077500D03*
X140300000Y-87502500D03*
%TD*%
D24*
%TO.C,U8*%
X56190000Y-76600000D03*
D25*
X58730000Y-76600000D03*
X61270000Y-76600000D03*
X63810000Y-76600000D03*
%TD*%
D13*
%TO.C,C6*%
X83250000Y-112865000D03*
X83250000Y-109790000D03*
%TD*%
D34*
%TO.C,C62*%
X107820000Y-142870000D03*
X110770000Y-142870000D03*
%TD*%
D10*
%TO.C,R46*%
X120600000Y-143710000D03*
X118950000Y-143710000D03*
%TD*%
D43*
%TO.C,C30*%
X47987500Y-90550000D03*
X47987500Y-92100000D03*
%TD*%
D34*
%TO.C,C63*%
X135320000Y-142870000D03*
X138270000Y-142870000D03*
%TD*%
D12*
%TO.C,R3*%
X57902500Y-116537500D03*
X59552500Y-116537500D03*
%TD*%
D44*
%TO.C,C13*%
X49100000Y-97662500D03*
X49100000Y-100737500D03*
%TD*%
D12*
%TO.C,R54*%
X76400000Y-148120000D03*
X78050000Y-148120000D03*
%TD*%
D11*
%TO.C,U15*%
X96025000Y-143095000D03*
X96025000Y-144365000D03*
X96025000Y-145635000D03*
X96025000Y-146905000D03*
X100975000Y-146905000D03*
X100975000Y-145635000D03*
X100975000Y-144365000D03*
X100975000Y-143095000D03*
D37*
X98500000Y-145000000D03*
%TD*%
D45*
%TO.C,C42*%
X85430000Y-87750000D03*
X83880000Y-87750000D03*
%TD*%
D30*
%TO.C,C38*%
X138125000Y-93420000D03*
X139675000Y-93420000D03*
%TD*%
D46*
%TO.C,D13*%
X105962500Y-93550000D03*
X107537500Y-93550000D03*
%TD*%
D41*
%TO.C,H4*%
X48050000Y-156950000D03*
%TD*%
D10*
%TO.C,R20*%
X132490000Y-87540000D03*
X130840000Y-87540000D03*
%TD*%
D43*
%TO.C,C22*%
X59000000Y-96225000D03*
X59000000Y-97775000D03*
%TD*%
D10*
%TO.C,R25*%
X107555000Y-88150000D03*
X105905000Y-88150000D03*
%TD*%
D29*
%TO.C,C17*%
X73975000Y-123687500D03*
X70900000Y-123687500D03*
%TD*%
D12*
%TO.C,R88*%
X116955000Y-127000000D03*
X118605000Y-127000000D03*
%TD*%
D45*
%TO.C,C47*%
X102745000Y-84580000D03*
X101195000Y-84580000D03*
%TD*%
D41*
%TO.C,H2*%
X141950000Y-63050000D03*
%TD*%
D12*
%TO.C,R53*%
X125175000Y-149930000D03*
X126825000Y-149930000D03*
%TD*%
D11*
%TO.C,U7*%
X78255000Y-75395000D03*
X78255000Y-76665000D03*
X78255000Y-77935000D03*
X78255000Y-79205000D03*
X83205000Y-79205000D03*
X83205000Y-77935000D03*
X83205000Y-76665000D03*
X83205000Y-75395000D03*
%TD*%
D23*
%TO.C,C15*%
X66162500Y-118625000D03*
X69237500Y-118625000D03*
%TD*%
D24*
%TO.C,J2*%
X107000000Y-98800000D03*
D25*
X107000000Y-101340000D03*
X104460000Y-98800000D03*
X104460000Y-101340000D03*
X101920000Y-98800000D03*
X101920000Y-101340000D03*
%TD*%
D47*
%TO.C,J3*%
X140300000Y-80000000D03*
D48*
X137760000Y-77460000D03*
X137760000Y-82540000D03*
X142840000Y-77460000D03*
X142840000Y-82540000D03*
%TD*%
D27*
%TO.C,J4*%
X92500000Y-64000000D03*
D28*
X97580000Y-64000000D03*
%TD*%
D12*
%TO.C,R55*%
X103900000Y-148090000D03*
X105550000Y-148090000D03*
%TD*%
%TO.C,R72*%
X127675000Y-130700000D03*
X129325000Y-130700000D03*
%TD*%
%TO.C,R71*%
X112675000Y-132700000D03*
X114325000Y-132700000D03*
%TD*%
D10*
%TO.C,R36*%
X93100000Y-148090000D03*
X91450000Y-148090000D03*
%TD*%
D46*
%TO.C,D12*%
X105962500Y-89950000D03*
X107537500Y-89950000D03*
%TD*%
D12*
%TO.C,R39*%
X91450000Y-146350000D03*
X93100000Y-146350000D03*
%TD*%
D41*
%TO.C,H1*%
X48050000Y-63050000D03*
%TD*%
D10*
%TO.C,R47*%
X91786696Y-100650000D03*
X90136696Y-100650000D03*
%TD*%
D45*
%TO.C,C43*%
X85430000Y-89550000D03*
X83880000Y-89550000D03*
%TD*%
D10*
%TO.C,R26*%
X107555000Y-91750000D03*
X105905000Y-91750000D03*
%TD*%
D12*
%TO.C,R16*%
X86075000Y-78850000D03*
X87725000Y-78850000D03*
%TD*%
%TO.C,R52*%
X97680000Y-149930000D03*
X99330000Y-149930000D03*
%TD*%
%TO.C,R70*%
X112675000Y-134700000D03*
X114325000Y-134700000D03*
%TD*%
D14*
%TO.C,C54*%
X61750000Y-142870000D03*
X58800000Y-142870000D03*
%TD*%
D49*
%TO.C,U1*%
X66942500Y-110895000D03*
X66942500Y-112165000D03*
X66942500Y-113435000D03*
X66942500Y-114705000D03*
X72502500Y-114705000D03*
X72502500Y-113435000D03*
X72502500Y-112165000D03*
X72502500Y-110895000D03*
D50*
X69120000Y-112025000D03*
X69120000Y-113575000D03*
X70325000Y-112025000D03*
X70325000Y-113575000D03*
%TD*%
D12*
%TO.C,R78*%
X97675000Y-128700000D03*
X99325000Y-128700000D03*
%TD*%
%TO.C,R69*%
X112675000Y-130700000D03*
X114325000Y-130700000D03*
%TD*%
D51*
%TO.C,D25*%
X133950000Y-152062500D03*
X132050000Y-152062500D03*
X133000000Y-153937500D03*
%TD*%
D24*
%TO.C,JP2*%
X78100000Y-117725000D03*
D25*
X78100000Y-120265000D03*
%TD*%
D45*
%TO.C,C37*%
X139675000Y-91510000D03*
X138125000Y-91510000D03*
%TD*%
D43*
%TO.C,C71*%
X88100000Y-107075000D03*
X88100000Y-108625000D03*
%TD*%
D52*
%TO.C,R8*%
X50287500Y-90500000D03*
X50287500Y-92150000D03*
%TD*%
D10*
%TO.C,R43*%
X120600000Y-141970000D03*
X118950000Y-141970000D03*
%TD*%
D45*
%TO.C,C23*%
X63485000Y-123687500D03*
X61935000Y-123687500D03*
%TD*%
D24*
%TO.C,JP1*%
X88400000Y-117725000D03*
D25*
X88400000Y-120265000D03*
%TD*%
D53*
%TO.C,SW2*%
X85030000Y-101650000D03*
X78530000Y-101650000D03*
X85030000Y-97150000D03*
X78530000Y-97150000D03*
%TD*%
D10*
%TO.C,R57*%
X78050000Y-146380000D03*
X76400000Y-146380000D03*
%TD*%
D18*
%TO.C,J7*%
X83040000Y-67700000D03*
X58040000Y-67700000D03*
D19*
X65000000Y-68000000D03*
D20*
X67770000Y-68000000D03*
X70540000Y-68000000D03*
X73310000Y-68000000D03*
X76080000Y-68000000D03*
X66385000Y-65160000D03*
X69155000Y-65160000D03*
X71925000Y-65160000D03*
X74695000Y-65160000D03*
%TD*%
D11*
%TO.C,U18*%
X102525000Y-130095000D03*
X102525000Y-131365000D03*
X102525000Y-132635000D03*
X102525000Y-133905000D03*
X107475000Y-133905000D03*
X107475000Y-132635000D03*
X107475000Y-131365000D03*
X107475000Y-130095000D03*
%TD*%
D10*
%TO.C,R62*%
X133050000Y-141970000D03*
X131400000Y-141970000D03*
%TD*%
D12*
%TO.C,R4*%
X62102500Y-116537500D03*
X63752500Y-116537500D03*
%TD*%
D27*
%TO.C,J10*%
X97500000Y-155950000D03*
D28*
X92420000Y-155950000D03*
%TD*%
D10*
%TO.C,R60*%
X78055000Y-142000000D03*
X76405000Y-142000000D03*
%TD*%
D54*
%TO.C,D15*%
X116127500Y-90375000D03*
X112827500Y-90375000D03*
%TD*%
D10*
%TO.C,R41*%
X65600000Y-142000000D03*
X63950000Y-142000000D03*
%TD*%
D11*
%TO.C,U16*%
X123525000Y-143095000D03*
X123525000Y-144365000D03*
X123525000Y-145635000D03*
X123525000Y-146905000D03*
X128475000Y-146905000D03*
X128475000Y-145635000D03*
X128475000Y-144365000D03*
X128475000Y-143095000D03*
D37*
X126000000Y-145000000D03*
%TD*%
D22*
%TO.C,C68*%
X88100000Y-112125000D03*
X88100000Y-110575000D03*
%TD*%
D55*
%TO.C,U21*%
X91275000Y-105575000D03*
X91275000Y-106225000D03*
X91275000Y-106875000D03*
X91275000Y-107525000D03*
X91275000Y-108175000D03*
X91275000Y-108825000D03*
X91275000Y-109475000D03*
X91275000Y-110125000D03*
X91275000Y-110775000D03*
X91275000Y-111425000D03*
X91275000Y-112075000D03*
X91275000Y-112725000D03*
X91275000Y-113375000D03*
X91275000Y-114025000D03*
X97000000Y-114025000D03*
X97000000Y-113375000D03*
X97000000Y-112725000D03*
X97000000Y-112075000D03*
X97000000Y-111425000D03*
X97000000Y-110775000D03*
X97000000Y-110125000D03*
X97000000Y-109475000D03*
X97000000Y-108825000D03*
X97000000Y-108175000D03*
X97000000Y-107525000D03*
X97000000Y-106875000D03*
X97000000Y-106225000D03*
X97000000Y-105575000D03*
%TD*%
D10*
%TO.C,R59*%
X133050000Y-146350000D03*
X131400000Y-146350000D03*
%TD*%
D14*
%TO.C,C64*%
X83270000Y-147250000D03*
X80320000Y-147250000D03*
%TD*%
D21*
%TO.C,SW5*%
X116410000Y-84575000D03*
X118950000Y-84575000D03*
X118950000Y-75965000D03*
X116410000Y-75965000D03*
%TD*%
D14*
%TO.C,C57*%
X61750000Y-147250000D03*
X58800000Y-147250000D03*
%TD*%
D10*
%TO.C,R64*%
X105550000Y-143710000D03*
X103900000Y-143710000D03*
%TD*%
%TO.C,R14*%
X104730000Y-95700000D03*
X103080000Y-95700000D03*
%TD*%
D12*
%TO.C,R50*%
X90136696Y-102350000D03*
X91786696Y-102350000D03*
%TD*%
D30*
%TO.C,C39*%
X134350000Y-87540000D03*
X135900000Y-87540000D03*
%TD*%
D14*
%TO.C,C56*%
X116750000Y-142870000D03*
X113800000Y-142870000D03*
%TD*%
D10*
%TO.C,R61*%
X105550000Y-141970000D03*
X103900000Y-141970000D03*
%TD*%
D12*
%TO.C,R67*%
X97675000Y-134700000D03*
X99325000Y-134700000D03*
%TD*%
D10*
%TO.C,R45*%
X93100000Y-143710000D03*
X91450000Y-143710000D03*
%TD*%
D56*
%TO.C,D14*%
X85442500Y-83450000D03*
X83867500Y-83450000D03*
%TD*%
D12*
%TO.C,R40*%
X118950000Y-146350000D03*
X120600000Y-146350000D03*
%TD*%
D51*
%TO.C,D23*%
X106450000Y-152062500D03*
X104550000Y-152062500D03*
X105500000Y-153937500D03*
%TD*%
D21*
%TO.C,SW3*%
X108115000Y-84575000D03*
X110655000Y-84575000D03*
X110655000Y-75965000D03*
X108115000Y-75965000D03*
%TD*%
D11*
%TO.C,U20*%
X132525000Y-130095000D03*
X132525000Y-131365000D03*
X132525000Y-132635000D03*
X132525000Y-133905000D03*
X137475000Y-133905000D03*
X137475000Y-132635000D03*
X137475000Y-131365000D03*
X137475000Y-130095000D03*
%TD*%
D14*
%TO.C,C58*%
X89250000Y-147250000D03*
X86300000Y-147250000D03*
%TD*%
D24*
%TO.C,J6*%
X114500000Y-96300000D03*
D25*
X114500000Y-98840000D03*
X114500000Y-101380000D03*
%TD*%
D23*
%TO.C,C12*%
X53462500Y-101800000D03*
X56537500Y-101800000D03*
%TD*%
D46*
%TO.C,D24*%
X95268750Y-121800000D03*
X96843750Y-121800000D03*
%TD*%
D57*
%TO.C,U12*%
X91067500Y-86400000D03*
X91067500Y-86900000D03*
X91067500Y-87400000D03*
X91067500Y-87900000D03*
X91067500Y-88400000D03*
X91067500Y-88900000D03*
X91067500Y-89400000D03*
X91067500Y-89900000D03*
X91067500Y-90400000D03*
X91067500Y-90900000D03*
X91067500Y-91400000D03*
X91067500Y-91900000D03*
D58*
X92480000Y-93312500D03*
X92980000Y-93312500D03*
X93480000Y-93312500D03*
X93980000Y-93312500D03*
X94480000Y-93312500D03*
X94980000Y-93312500D03*
X95480000Y-93312500D03*
X95980000Y-93312500D03*
X96480000Y-93312500D03*
X96980000Y-93312500D03*
X97480000Y-93312500D03*
X97980000Y-93312500D03*
D57*
X99392500Y-91900000D03*
X99392500Y-91400000D03*
X99392500Y-90900000D03*
X99392500Y-90400000D03*
X99392500Y-89900000D03*
X99392500Y-89400000D03*
X99392500Y-88900000D03*
X99392500Y-88400000D03*
X99392500Y-87900000D03*
X99392500Y-87400000D03*
X99392500Y-86900000D03*
X99392500Y-86400000D03*
D58*
X97980000Y-84987500D03*
X97480000Y-84987500D03*
X96980000Y-84987500D03*
X96480000Y-84987500D03*
X95980000Y-84987500D03*
X95480000Y-84987500D03*
X94980000Y-84987500D03*
X94480000Y-84987500D03*
X93980000Y-84987500D03*
X93480000Y-84987500D03*
X92980000Y-84987500D03*
X92480000Y-84987500D03*
%TD*%
D15*
%TO.C,R18*%
X138150000Y-89115000D03*
X138150000Y-87465000D03*
%TD*%
D29*
%TO.C,C76*%
X95652500Y-117400000D03*
X92577500Y-117400000D03*
%TD*%
D12*
%TO.C,R49*%
X90136696Y-97250000D03*
X91786696Y-97250000D03*
%TD*%
D27*
%TO.C,J9*%
X70000000Y-155950000D03*
D28*
X64920000Y-155950000D03*
%TD*%
D27*
%TO.C,J1*%
X49000000Y-113060000D03*
D28*
X49000000Y-107980000D03*
%TD*%
D30*
%TO.C,C35*%
X86125000Y-75200000D03*
X87675000Y-75200000D03*
%TD*%
D10*
%TO.C,R42*%
X93100000Y-141970000D03*
X91450000Y-141970000D03*
%TD*%
D12*
%TO.C,R79*%
X112675000Y-128700000D03*
X114325000Y-128700000D03*
%TD*%
D10*
%TO.C,R35*%
X65600000Y-148120000D03*
X63950000Y-148120000D03*
%TD*%
D51*
%TO.C,D22*%
X78950000Y-152062500D03*
X77050000Y-152062500D03*
X78000000Y-153937500D03*
%TD*%
D12*
%TO.C,R56*%
X131400000Y-148090000D03*
X133050000Y-148090000D03*
%TD*%
D23*
%TO.C,C3*%
X75720000Y-112980000D03*
X78795000Y-112980000D03*
%TD*%
D14*
%TO.C,C55*%
X89250000Y-142870000D03*
X86300000Y-142870000D03*
%TD*%
D12*
%TO.C,R87*%
X101955000Y-127000000D03*
X103605000Y-127000000D03*
%TD*%
%TO.C,R81*%
X106395000Y-127000000D03*
X108045000Y-127000000D03*
%TD*%
D10*
%TO.C,R90*%
X93156250Y-121800000D03*
X91506250Y-121800000D03*
%TD*%
G36*
X143108059Y-106144595D02*
G01*
X143213223Y-106158440D01*
X143244491Y-106166818D01*
X143334918Y-106204274D01*
X143362951Y-106220459D01*
X143440601Y-106280042D01*
X143463491Y-106302932D01*
X143523074Y-106380582D01*
X143539259Y-106408615D01*
X143576715Y-106499042D01*
X143585093Y-106530309D01*
X143598939Y-106635473D01*
X143600000Y-106651659D01*
X143600000Y-124635408D01*
X143598939Y-124651594D01*
X143585093Y-124756758D01*
X143576715Y-124788025D01*
X143539259Y-124878452D01*
X143523074Y-124906485D01*
X143463491Y-124984135D01*
X143440601Y-125007025D01*
X143362951Y-125066608D01*
X143334918Y-125082793D01*
X143244491Y-125120249D01*
X143213224Y-125128627D01*
X143108060Y-125142473D01*
X143091874Y-125143534D01*
X140908126Y-125143534D01*
X140891940Y-125142473D01*
X140786775Y-125128627D01*
X140755508Y-125120249D01*
X140665081Y-125082793D01*
X140637048Y-125066608D01*
X140559398Y-125007025D01*
X140536508Y-124984135D01*
X140476925Y-124906485D01*
X140460740Y-124878452D01*
X140423284Y-124788025D01*
X140414906Y-124756757D01*
X140401061Y-124651593D01*
X140400000Y-124635408D01*
X140400000Y-106651659D01*
X140401061Y-106635474D01*
X140414906Y-106530310D01*
X140423284Y-106499042D01*
X140460740Y-106408615D01*
X140476925Y-106380582D01*
X140536508Y-106302932D01*
X140559398Y-106280042D01*
X140637048Y-106220459D01*
X140665081Y-106204274D01*
X140755508Y-106166818D01*
X140786776Y-106158440D01*
X140891941Y-106144595D01*
X140908126Y-106143534D01*
X143091874Y-106143534D01*
X143108059Y-106144595D01*
G37*
M02*
