M48
; DRILL file {KiCad 9.0.2} date 2025-05-28T14:44:24+0800
; FORMAT={-:-/ absolute / inch / decimal}
; #@! TF.CreationDate,2025-05-28T14:44:24+08:00
; #@! TF.GenerationSoftware,Kicad,Pcbnew,9.0.2
; #@! TF.FileFunction,Plated,1,2,PTH
FMAT,2
INCH
; #@! TA.AperFunction,Plated,PTH,ViaDrill
T1C0.0157
; #@! TA.AperFunction,Plated,PTH,ComponentDrill
T2C0.0315
; #@! TA.AperFunction,Plated,PTH,ComponentDrill
T3C0.0374
; #@! TA.AperFunction,Plated,PTH,ComponentDrill
T4C0.0394
; #@! TA.AperFunction,Plated,PTH,ComponentDrill
T5C0.0433
; #@! TA.AperFunction,Plated,PTH,ComponentDrill
T6C0.0598
; #@! TA.AperFunction,Plated,PTH,ComponentDrill
T7C0.0906
; #@! TA.AperFunction,Plated,PTH,ComponentDrill
T8C0.1260
%
G90
G05
T1
X4.5669Y-3.0315
X4.5669Y-3.0709
X4.5669Y-3.1102
X4.5669Y-3.1496
X4.5669Y-4.5276
X4.5669Y-4.5669
X4.5669Y-4.6063
X4.5669Y-4.6457
X4.6063Y-3.0315
X4.6063Y-3.0709
X4.6063Y-3.1102
X4.6063Y-3.1496
X4.6063Y-4.5276
X4.6063Y-4.5669
X4.6063Y-4.6063
X4.6063Y-4.6457
X4.6457Y-3.0315
X4.6457Y-3.0709
X4.6457Y-3.1102
X4.6457Y-3.1496
X4.6457Y-4.5276
X4.6457Y-4.5669
X4.6457Y-4.6063
X4.6457Y-4.6457
X4.685Y-3.0315
X4.685Y-3.0709
X4.685Y-3.1102
X4.685Y-3.1496
X4.685Y-4.5276
X4.685Y-4.5669
X4.685Y-4.6063
X4.685Y-4.6457
X4.7646Y-3.978
X4.8559Y-3.9543
X4.8713Y-3.8205
X4.9917Y-4.0768
X5.0063Y-4.2012
X5.0106Y-4.8028
X5.0398Y-3.7043
X5.0713Y-4.0256
X5.1242Y-2.9761
X5.1276Y-2.872
X5.1291Y-3.0421
X5.2Y-3.2185
X5.2591Y-3.0697
X5.4079Y-2.8921
X5.4118Y-3.2713
X5.413Y-3.0248
X5.4146Y-3.4315
X5.5083Y-4.3902
X5.5083Y-4.4295
X5.5083Y-4.4689
X5.5083Y-4.5083
X5.5315Y-3.1358
X5.5476Y-4.3902
X5.5476Y-4.4295
X5.5476Y-4.4689
X5.5476Y-4.5083
X5.5709Y-3.17
X5.5728Y-3.374
X5.587Y-4.3902
X5.587Y-4.4295
X5.587Y-4.4689
X5.587Y-4.5083
X5.5906Y-4.1819
X5.5906Y-4.2213
X5.5906Y-4.2606
X5.5906Y-4.3
X5.6264Y-4.3902
X5.6264Y-4.4295
X5.6264Y-4.4689
X5.6264Y-4.5083
X5.6299Y-4.1819
X5.6299Y-4.2213
X5.6299Y-4.2606
X5.6299Y-4.3
X5.6622Y-3.6421
X5.6622Y-3.6815
X5.6622Y-3.7209
X5.6622Y-3.7602
X5.6693Y-4.1819
X5.6693Y-4.2213
X5.6693Y-4.2606
X5.6693Y-4.3
X5.7016Y-3.6421
X5.7016Y-3.6815
X5.7016Y-3.7209
X5.7016Y-3.7602
X5.7087Y-4.1819
X5.7087Y-4.2213
X5.7087Y-4.2606
X5.7087Y-4.3
X5.735Y-4.0299
X5.7409Y-3.6421
X5.7409Y-3.6815
X5.7409Y-3.7209
X5.7409Y-3.7602
X5.7803Y-3.6421
X5.7803Y-3.6815
X5.7803Y-3.7209
X5.7803Y-3.7602
X5.7858Y-4.0268
X5.789Y-4.8016
X5.7925Y-3.2185
X5.7925Y-3.2579
X5.8319Y-3.2185
X5.8319Y-3.2579
X5.8476Y-3.1665
X5.8543Y-4.0311
X5.9Y-2.9287
X5.911Y-3.0114
X5.9244Y-3.0697
X5.9548Y-3.187
X5.9957Y-4.2594
X5.999Y-3.9606
X5.9996Y-3.1437
X5.9996Y-3.1831
X6.0246Y-3.9843
X6.039Y-3.1437
X6.039Y-3.1831
X6.0502Y-3.9606
X6.0528Y-4.2461
X6.0803Y-4.0799
X6.0878Y-3.976
X6.0906Y-4.0236
X6.127Y-4.0935
X6.1319Y-3.8457
X6.1433Y-3.1988
X6.1748Y-3.17
X6.1787Y-3.2898
X6.189Y-3.9921
X6.2055Y-3.2094
X6.2094Y-3.8634
X6.2126Y-4.0346
X6.2185Y-2.9126
X6.2185Y-2.952
X6.231Y-3.1292
X6.2469Y-4.4016
X6.2469Y-4.4409
X6.2469Y-4.4803
X6.2469Y-4.5197
X6.2579Y-2.9126
X6.2579Y-2.952
X6.2697Y-3.7528
X6.2862Y-4.4016
X6.2862Y-4.4409
X6.2862Y-4.4803
X6.2862Y-4.5197
X6.2992Y-3.9724
X6.3256Y-4.4016
X6.3256Y-4.4409
X6.3256Y-4.4803
X6.3256Y-4.5197
X6.365Y-4.4016
X6.365Y-4.4409
X6.365Y-4.4803
X6.365Y-4.5197
X6.3791Y-3.9161
X6.3835Y-4.1008
X6.4646Y-3.6083
X6.4646Y-3.6476
X6.4646Y-3.687
X6.4646Y-3.7264
X6.4803Y-3.0429
X6.5039Y-3.6083
X6.5039Y-3.6476
X6.5039Y-3.687
X6.5039Y-3.7264
X6.5083Y-4.0283
X6.5315Y-3.4528
X6.5433Y-3.6083
X6.5433Y-3.6476
X6.5433Y-3.687
X6.5433Y-3.7264
X6.5587Y-3.8575
X6.5587Y-3.8969
X6.561Y-4.8118
X6.5795Y-2.9776
X6.5827Y-3.6083
X6.5827Y-3.6476
X6.5827Y-3.687
X6.5827Y-3.7264
X6.598Y-3.8575
X6.598Y-3.8969
X6.7323Y-3.7953
X6.8134Y-3.8961
X6.861Y-3.5618
X6.861Y-3.6012
X6.861Y-3.6406
X6.861Y-3.6799
X6.8843Y-4.0969
X6.8843Y-4.1362
X6.8843Y-4.1756
X6.8843Y-4.215
X6.9004Y-3.5618
X6.9004Y-3.6012
X6.9004Y-3.6406
X6.9004Y-3.6799
X6.9236Y-4.0969
X6.9236Y-4.1362
X6.9236Y-4.1756
X6.9236Y-4.215
X6.9398Y-3.5618
X6.9398Y-3.6012
X6.9398Y-3.6406
X6.9398Y-3.6799
X6.963Y-4.0969
X6.963Y-4.1362
X6.963Y-4.1756
X6.963Y-4.215
X6.9791Y-3.5618
X6.9791Y-3.6012
X6.9791Y-3.6406
X6.9791Y-3.6799
X7.0024Y-4.0969
X7.0024Y-4.1362
X7.0024Y-4.1756
X7.0024Y-4.215
X7.0472Y-2.8346
X7.0472Y-2.874
X7.0472Y-2.9134
X7.0472Y-2.9528
X7.0866Y-2.8346
X7.0866Y-2.874
X7.0866Y-2.9134
X7.0866Y-2.9528
X7.126Y-2.8346
X7.126Y-2.874
X7.126Y-2.9134
X7.126Y-2.9528
X7.126Y-4.4882
X7.126Y-4.5276
X7.126Y-4.5669
X7.126Y-4.6063
X7.1583Y-3.2362
X7.1654Y-2.8346
X7.1654Y-2.874
X7.1654Y-2.9134
X7.1654Y-2.9528
X7.1654Y-4.4882
X7.1654Y-4.5276
X7.1654Y-4.5669
X7.1654Y-4.6063
X7.2047Y-4.4882
X7.2047Y-4.5276
X7.2047Y-4.5669
X7.2047Y-4.6063
X7.2441Y-4.4882
X7.2441Y-4.5276
X7.2441Y-4.5669
X7.2441Y-4.6063
X7.3319Y-3.2512
T2
X4.976Y-3.652
X5.1228Y-3.224
X5.1228Y-3.524
X5.276Y-3.652
T3
X7.1128Y-3.7918
X7.1128Y-3.8902
X7.1915Y-3.7918
X7.1915Y-3.8902
T4
X4.5732Y-3.6786
X4.5732Y-3.7877
X4.5732Y-3.8968
X4.5732Y-4.0058
X4.685Y-3.6241
X4.685Y-3.7332
X4.685Y-3.8422
X4.685Y-3.9513
X4.685Y-4.0603
X4.9563Y-3.2732
X4.9563Y-3.3732
X4.9563Y-3.4732
X5.3268Y-3.2732
X5.3268Y-3.3732
X5.3268Y-3.4732
T5
X6.6496Y-2.8701
X6.6496Y-3.126
X6.8268Y-2.8701
X6.8268Y-3.126
T6
X5.1543Y-4.7638
X5.3543Y-4.7638
X5.9417Y-4.7638
X6.1417Y-4.7638
X6.7291Y-4.7638
X6.9291Y-4.7638
T7
X7.3041Y-3.6048
X7.3041Y-4.0772
T8
X4.4388Y-2.8777
X4.4388Y-4.8068
X4.5732Y-3.3501
X4.5732Y-4.3344
X7.3522Y-2.8777
X7.3522Y-4.8068
M30
