%TF.GenerationSoftware,KiCad,Pcbnew,9.0.2*%
%TF.CreationDate,2025-05-30T17:16:28+08:00*%
%TF.ProjectId,Explorer,4578706c-6f72-4657-922e-6b696361645f,rev?*%
%TF.SameCoordinates,Original*%
%TF.FileFunction,Copper,L2,Bot*%
%TF.FilePolarity,Positive*%
%FSLAX46Y46*%
G04 Gerber Fmt 4.6, Leading zero omitted, Abs format (unit mm)*
G04 Created by KiCad (PCBNEW 9.0.2) date 2025-05-30 17:16:28*
%MOMM*%
%LPD*%
G01*
G04 APERTURE LIST*
G04 Aperture macros list*
%AMRoundRect*
0 Rectangle with rounded corners*
0 $1 Rounding radius*
0 $2 $3 $4 $5 $6 $7 $8 $9 X,Y pos of 4 corners*
0 Add a 4 corners polygon primitive as box body*
4,1,4,$2,$3,$4,$5,$6,$7,$8,$9,$2,$3,0*
0 Add four circle primitives for the rounded corners*
1,1,$1+$1,$2,$3*
1,1,$1+$1,$4,$5*
1,1,$1+$1,$6,$7*
1,1,$1+$1,$8,$9*
0 Add four rect primitives between the rounded corners*
20,1,$1+$1,$2,$3,$4,$5,0*
20,1,$1+$1,$4,$5,$6,$7,0*
20,1,$1+$1,$6,$7,$8,$9,0*
20,1,$1+$1,$8,$9,$2,$3,0*%
G04 Aperture macros list end*
%TA.AperFunction,ComponentPad*%
%ADD10C,5.600000*%
%TD*%
%TA.AperFunction,ComponentPad*%
%ADD11R,1.600000X1.600000*%
%TD*%
%TA.AperFunction,ComponentPad*%
%ADD12C,1.600000*%
%TD*%
%TA.AperFunction,ComponentPad*%
%ADD13C,4.000000*%
%TD*%
%TA.AperFunction,ComponentPad*%
%ADD14RoundRect,0.250000X-0.550000X0.550000X-0.550000X-0.550000X0.550000X-0.550000X0.550000X0.550000X0*%
%TD*%
%TA.AperFunction,ComponentPad*%
%ADD15R,3.000000X3.000000*%
%TD*%
%TA.AperFunction,ComponentPad*%
%ADD16C,3.000000*%
%TD*%
%TA.AperFunction,ComponentPad*%
%ADD17R,1.700000X1.700000*%
%TD*%
%TA.AperFunction,ComponentPad*%
%ADD18C,1.700000*%
%TD*%
%TA.AperFunction,ComponentPad*%
%ADD19RoundRect,0.250000X-0.550000X-0.550000X0.550000X-0.550000X0.550000X0.550000X-0.550000X0.550000X0*%
%TD*%
%TA.AperFunction,ComponentPad*%
%ADD20C,2.000000*%
%TD*%
%TA.AperFunction,SMDPad,CuDef*%
%ADD21RoundRect,0.250000X1.750000X0.250000X-1.750000X0.250000X-1.750000X-0.250000X1.750000X-0.250000X0*%
%TD*%
%TA.AperFunction,ViaPad*%
%ADD22C,0.600000*%
%TD*%
%TA.AperFunction,Conductor*%
%ADD23C,0.400000*%
%TD*%
%TA.AperFunction,Conductor*%
%ADD24C,0.300000*%
%TD*%
%TA.AperFunction,Conductor*%
%ADD25C,0.500000*%
%TD*%
G04 APERTURE END LIST*
D10*
%TO.P,H2,1*%
%TO.N,N/C*%
X186745000Y-122092500D03*
%TD*%
D11*
%TO.P,J1,1,VBUS*%
%TO.N,/+5v*%
X180664500Y-96311400D03*
D12*
%TO.P,J1,2,D-*%
%TO.N,unconnected-(J1-D--Pad2)*%
X180664500Y-98811400D03*
%TO.P,J1,3,D+*%
%TO.N,unconnected-(J1-D+-Pad3)*%
X182664500Y-98811400D03*
%TO.P,J1,4,GND*%
%TO.N,GND*%
X182664500Y-96311400D03*
D13*
%TO.P,J1,5,Shield*%
%TO.N,unconnected-(J1-Shield-Pad5)_1*%
X185524500Y-91561400D03*
%TO.N,unconnected-(J1-Shield-Pad5)*%
X185524500Y-103561400D03*
%TD*%
D14*
%TO.P,D1,1,K*%
%TO.N,Net-(D1-K)*%
X130120000Y-81890000D03*
D12*
%TO.P,D1,2,A*%
%TO.N,/MCU_RXD*%
X130120000Y-89510000D03*
%TD*%
D15*
%TO.P,J5,1,Pin_1*%
%TO.N,Net-(J5-Pin_1)*%
X136000000Y-121000000D03*
D16*
%TO.P,J5,2,Pin_2*%
%TO.N,/AINCOM*%
X130920000Y-121000000D03*
%TD*%
D13*
%TO.P,J4,0*%
%TO.N,N/C*%
X116160000Y-85092500D03*
X116160000Y-110092500D03*
D11*
%TO.P,J4,1,1*%
%TO.N,unconnected-(J4-Pad1)*%
X119000000Y-103132500D03*
D12*
%TO.P,J4,2,2*%
%TO.N,/RS_RXD*%
X119000000Y-100362500D03*
%TO.P,J4,3,3*%
%TO.N,/RS_TXD*%
X119000000Y-97592500D03*
%TO.P,J4,4,4*%
%TO.N,unconnected-(J4-Pad4)*%
X119000000Y-94822500D03*
%TO.P,J4,5,5*%
%TO.N,GND*%
X119000000Y-92052500D03*
%TO.P,J4,6,6*%
%TO.N,unconnected-(J4-Pad6)*%
X116160000Y-101747500D03*
%TO.P,J4,7,7*%
%TO.N,unconnected-(J4-Pad7)*%
X116160000Y-98977500D03*
%TO.P,J4,8,8*%
%TO.N,unconnected-(J4-Pad8)*%
X116160000Y-96207500D03*
%TO.P,J4,9,9*%
%TO.N,unconnected-(J4-Pad9)*%
X116160000Y-93437500D03*
%TD*%
D10*
%TO.P,H4,1*%
%TO.N,N/C*%
X186745000Y-73092500D03*
%TD*%
D17*
%TO.P,J2,1,Pin_1*%
%TO.N,/MCU_TXD*%
X125890000Y-83140000D03*
D18*
%TO.P,J2,2,Pin_2*%
%TO.N,Net-(D1-K)*%
X125890000Y-85680000D03*
%TO.P,J2,3,Pin_3*%
%TO.N,GND*%
X125890000Y-88220000D03*
%TD*%
D10*
%TO.P,H3,1*%
%TO.N,N/C*%
X112745000Y-122092500D03*
%TD*%
D19*
%TO.P,D4,1,K*%
%TO.N,Net-(D4-K)*%
X126390000Y-92760000D03*
D12*
%TO.P,D4,2,A*%
%TO.N,/MCU_RXD*%
X134010000Y-92760000D03*
%TD*%
D10*
%TO.P,H1,1*%
%TO.N,N/C*%
X112745000Y-73092500D03*
%TD*%
D20*
%TO.P,SW1,1,1*%
%TO.N,GND*%
X173400000Y-72900000D03*
X173400000Y-79400000D03*
%TO.P,SW1,2,2*%
%TO.N,Net-(U1-RST)*%
X168900000Y-72900000D03*
X168900000Y-79400000D03*
%TD*%
D17*
%TO.P,J3,1,Pin_1*%
%TO.N,/+3.3v*%
X135300000Y-88220000D03*
D18*
%TO.P,J3,2,Pin_2*%
%TO.N,Net-(J3-Pin_2)*%
X135300000Y-85680000D03*
%TO.P,J3,3,Pin_3*%
%TO.N,GND*%
X135300000Y-83140000D03*
%TD*%
D15*
%TO.P,J7,1,Pin_1*%
%TO.N,Net-(J7-Pin_1)*%
X176000000Y-121000000D03*
D16*
%TO.P,J7,2,Pin_2*%
%TO.N,/AINCOM*%
X170920000Y-121000000D03*
%TD*%
D15*
%TO.P,J6,1,Pin_1*%
%TO.N,Net-(J6-Pin_1)*%
X156000000Y-121000000D03*
D16*
%TO.P,J6,2,Pin_2*%
%TO.N,/AINCOM*%
X150920000Y-121000000D03*
%TD*%
D21*
%TO.P,U1,1,RST*%
%TO.N,Net-(U1-RST)*%
X162204400Y-72517000D03*
%TO.P,U1,2,ADC*%
%TO.N,unconnected-(U1-ADC-Pad2)*%
X162204400Y-74517000D03*
%TO.P,U1,3,EN*%
%TO.N,Net-(U1-EN)*%
X162204400Y-76517000D03*
%TO.P,U1,4,GPIO16*%
%TO.N,/SPI_CSEL*%
X162204400Y-78517000D03*
%TO.P,U1,5,GPIO14*%
%TO.N,/SPI_SCLK*%
X162204400Y-80517000D03*
%TO.P,U1,6,GPIO12*%
%TO.N,/SPI_MISO*%
X162204400Y-82517000D03*
%TO.P,U1,7,GPIO13*%
%TO.N,/SPI_MOSI*%
X162204400Y-84517000D03*
%TO.P,U1,8,VCC*%
%TO.N,/+3.3v*%
X162204400Y-86517000D03*
%TO.P,U1,9,GND*%
%TO.N,GND*%
X144204400Y-86517000D03*
%TO.P,U1,10,GPIO15*%
%TO.N,/ADC_START*%
X144204400Y-84517000D03*
%TO.P,U1,11,GPIO2*%
%TO.N,/MCU_STATE*%
X144204400Y-82517000D03*
%TO.P,U1,12,GPIO0*%
%TO.N,/MCU_MODE*%
X144204400Y-80517000D03*
%TO.P,U1,13,GPIO4*%
%TO.N,/ADC_DRDY*%
X144204400Y-78517000D03*
%TO.P,U1,14,GPIO5*%
%TO.N,/ADC_RESET*%
X144204400Y-76517000D03*
%TO.P,U1,15,RXD0*%
%TO.N,/MCU_RXD*%
X144204400Y-74517000D03*
%TO.P,U1,16,TXD0*%
%TO.N,/MCU_TXD*%
X144204400Y-72517000D03*
%TD*%
D22*
%TO.N,GND*%
X130240000Y-72950000D03*
X148700000Y-102390000D03*
X159670000Y-111800000D03*
X164200000Y-94650000D03*
X144000000Y-106220000D03*
X143820000Y-93510000D03*
X144000000Y-107220000D03*
X166590000Y-98980000D03*
X183000000Y-117000000D03*
X182000000Y-72000000D03*
X117000000Y-79000000D03*
X167200000Y-91650000D03*
X166200000Y-92650000D03*
X145820000Y-93510000D03*
X143000000Y-108220000D03*
X116000000Y-116000000D03*
X165200000Y-91650000D03*
X167590000Y-97980000D03*
X142910000Y-112510000D03*
X141910000Y-114510000D03*
X145670000Y-102360000D03*
X119000000Y-117000000D03*
X143820000Y-95510000D03*
X146820000Y-94510000D03*
X116000000Y-80000000D03*
X186230000Y-82580000D03*
X142910000Y-111510000D03*
X118000000Y-116000000D03*
X165200000Y-92650000D03*
X176860000Y-107060000D03*
X140910000Y-113510000D03*
X180000000Y-72000000D03*
X139910000Y-111510000D03*
X133580000Y-77970000D03*
X142910000Y-114510000D03*
X126790000Y-103550000D03*
X157620000Y-81520000D03*
X119000000Y-116000000D03*
X137360000Y-73460000D03*
X184000000Y-116000000D03*
X147130000Y-81750000D03*
X180000000Y-75000000D03*
X181000000Y-117000000D03*
X167200000Y-93650000D03*
X158670000Y-113800000D03*
X142000000Y-107220000D03*
X183000000Y-114000000D03*
X174270000Y-91470000D03*
X176860000Y-105060000D03*
X157950000Y-73980000D03*
X166200000Y-93650000D03*
X145820000Y-92510000D03*
X118000000Y-78000000D03*
X181000000Y-75000000D03*
X166200000Y-94650000D03*
X157720000Y-98130000D03*
X164200000Y-92650000D03*
X145820000Y-95510000D03*
X150480000Y-77970000D03*
X142910000Y-113510000D03*
X173060000Y-98960000D03*
X183000000Y-116000000D03*
X140910000Y-112510000D03*
X160670000Y-112800000D03*
X139910000Y-113510000D03*
X116000000Y-77000000D03*
X167590000Y-98980000D03*
X150140000Y-76490000D03*
X161670000Y-111800000D03*
X158670000Y-114800000D03*
X128810000Y-102250000D03*
X117000000Y-117000000D03*
X158670000Y-112800000D03*
X177860000Y-106060000D03*
X160670000Y-113800000D03*
X161670000Y-113800000D03*
X177860000Y-107060000D03*
X146960000Y-102280000D03*
X176270000Y-91470000D03*
X174270000Y-93470000D03*
X182000000Y-116000000D03*
X162030000Y-99470000D03*
X184000000Y-115000000D03*
X147040000Y-121960000D03*
X153390000Y-80850000D03*
X144820000Y-94510000D03*
X181000000Y-74000000D03*
X177860000Y-105060000D03*
X142000000Y-106220000D03*
X159250000Y-95320000D03*
X182000000Y-74000000D03*
X118000000Y-117000000D03*
X179000000Y-75000000D03*
X182000000Y-114000000D03*
X152390000Y-80850000D03*
X116000000Y-79000000D03*
X158670000Y-111800000D03*
X161670000Y-112800000D03*
X146820000Y-92510000D03*
X116000000Y-78000000D03*
X141910000Y-111510000D03*
X159670000Y-113800000D03*
X175860000Y-105060000D03*
X137490000Y-76830000D03*
X165310000Y-102320000D03*
X166590000Y-97980000D03*
X177860000Y-104060000D03*
X119000000Y-78000000D03*
X183000000Y-115000000D03*
X139910000Y-112510000D03*
X165200000Y-94650000D03*
X164200000Y-91650000D03*
X177270000Y-92470000D03*
X121020000Y-101040000D03*
X167120000Y-75630000D03*
X144820000Y-92510000D03*
X143000000Y-109220000D03*
X118000000Y-77000000D03*
X181000000Y-116000000D03*
X154440000Y-103630000D03*
X144000000Y-108220000D03*
X147130000Y-82750000D03*
X158950000Y-74980000D03*
X137460000Y-83090000D03*
X174860000Y-104060000D03*
X139910000Y-114510000D03*
X175270000Y-93470000D03*
X181000000Y-114000000D03*
X123340000Y-100440000D03*
X123730000Y-97040000D03*
X117000000Y-77000000D03*
X174860000Y-105060000D03*
X174270000Y-92470000D03*
X176270000Y-93470000D03*
X141910000Y-112510000D03*
X127270000Y-121990000D03*
X153390000Y-79850000D03*
X157800000Y-102480000D03*
X167200000Y-92650000D03*
X148130000Y-82750000D03*
X175270000Y-92470000D03*
X158267792Y-79482893D03*
X116000000Y-118000000D03*
X127160000Y-106710000D03*
X143000000Y-107220000D03*
X177270000Y-91470000D03*
X145000000Y-107220000D03*
X153740000Y-107850000D03*
X176860000Y-106060000D03*
X176860000Y-104060000D03*
X144000000Y-109220000D03*
X119000000Y-115000000D03*
X179000000Y-73000000D03*
X160670000Y-114800000D03*
X184000000Y-114000000D03*
X157950000Y-74980000D03*
X162140000Y-104160000D03*
X140910000Y-114510000D03*
X182000000Y-73000000D03*
X143000000Y-106220000D03*
X152390000Y-79850000D03*
X182000000Y-115000000D03*
X140910000Y-111510000D03*
X159670000Y-112800000D03*
X118000000Y-115000000D03*
X117000000Y-80000000D03*
X137530000Y-87160000D03*
X174270000Y-90470000D03*
X145820000Y-94510000D03*
X177270000Y-90470000D03*
X181000000Y-73000000D03*
X142000000Y-108220000D03*
X154630000Y-100990000D03*
X117000000Y-116000000D03*
X145000000Y-108220000D03*
X161670000Y-114800000D03*
X146820000Y-95510000D03*
X156940000Y-83560000D03*
X117000000Y-78000000D03*
X117000000Y-115000000D03*
X180000000Y-73000000D03*
X167200000Y-94650000D03*
X118000000Y-118000000D03*
X174860000Y-107060000D03*
X144820000Y-93510000D03*
X174860000Y-106060000D03*
X175860000Y-106060000D03*
X119000000Y-77000000D03*
X181000000Y-72000000D03*
X145000000Y-106220000D03*
X181000000Y-115000000D03*
X180000000Y-74000000D03*
X146820000Y-93510000D03*
X175270000Y-91470000D03*
X141910000Y-113510000D03*
X132080000Y-81750000D03*
X152290000Y-108190000D03*
X166200000Y-91650000D03*
X179000000Y-74000000D03*
X149860000Y-74390000D03*
X165200000Y-93650000D03*
X182000000Y-117000000D03*
X184000000Y-117000000D03*
X116000000Y-115000000D03*
X116000000Y-117000000D03*
X182000000Y-75000000D03*
X176270000Y-92470000D03*
X160670000Y-111800000D03*
X119000000Y-80000000D03*
X118000000Y-80000000D03*
X177270000Y-93470000D03*
X164200000Y-93650000D03*
X176270000Y-90470000D03*
X119000000Y-118000000D03*
X145000000Y-109220000D03*
X158950000Y-73980000D03*
X118000000Y-79000000D03*
X159670000Y-114800000D03*
X142000000Y-109220000D03*
X179000000Y-72000000D03*
X128010000Y-94090000D03*
X175860000Y-104060000D03*
X175270000Y-90470000D03*
X143820000Y-94510000D03*
X143820000Y-92510000D03*
X117000000Y-118000000D03*
X144820000Y-95510000D03*
X148130000Y-81750000D03*
X181820000Y-82200000D03*
X119000000Y-79000000D03*
X175860000Y-107060000D03*
X166650000Y-122220000D03*
%TO.N,/+5v*%
X157200000Y-101400000D03*
X155750000Y-97680760D03*
X171000000Y-96400000D03*
%TO.N,/+3.3v*%
X165900000Y-87700000D03*
%TO.N,/MCU_RXD*%
X130280000Y-77270000D03*
%TO.N,/ADC_RESET*%
X154700000Y-102200000D03*
X151251000Y-80951000D03*
X155625000Y-103975000D03*
%TO.N,/MCU_TXD*%
X130154000Y-75594000D03*
%TO.N,/SPI_CSEL*%
X156040000Y-81250000D03*
%TO.N,/SPI_SCLK*%
X156840000Y-80517000D03*
%TO.N,/SPI_MOSI*%
X153675000Y-100600000D03*
%TO.N,/SPI_MISO*%
X153025000Y-101200000D03*
%TO.N,/ADC_DRDY*%
X152375000Y-100600000D03*
X148530000Y-80430000D03*
%TO.N,/AINCOM*%
X160000000Y-100900000D03*
%TO.N,/MCU_STATE*%
X140500000Y-79650000D03*
%TO.N,Net-(U1-EN)*%
X164600000Y-77290000D03*
%TO.N,/ADC_START*%
X141550000Y-85700000D03*
%TO.N,/MCU_MODE*%
X141500000Y-80517000D03*
%TD*%
D23*
%TO.N,/+5v*%
X155750000Y-101050000D02*
X155750000Y-97680760D01*
X157200000Y-101400000D02*
X156100000Y-101400000D01*
X155750000Y-97680760D02*
X157030760Y-96400000D01*
X156100000Y-101400000D02*
X155750000Y-101050000D01*
X157030760Y-96400000D02*
X171000000Y-96400000D01*
%TO.N,/+3.3v*%
X163387400Y-87700000D02*
X162204400Y-86517000D01*
X165900000Y-87700000D02*
X163387400Y-87700000D01*
D24*
%TO.N,Net-(D1-K)*%
X130120000Y-84455000D02*
X130120000Y-81890000D01*
X125890000Y-85680000D02*
X128895000Y-85680000D01*
X128895000Y-85680000D02*
X130120000Y-84455000D01*
%TO.N,/MCU_RXD*%
X133033000Y-74517000D02*
X144204400Y-74517000D01*
X130120000Y-89510000D02*
X130120000Y-91770000D01*
X130120000Y-91770000D02*
X131110000Y-92760000D01*
X131110000Y-92760000D02*
X134010000Y-92760000D01*
X130280000Y-77270000D02*
X133033000Y-74517000D01*
%TO.N,/ADC_RESET*%
X146817000Y-76517000D02*
X144204400Y-76517000D01*
X155625000Y-103125000D02*
X155625000Y-103975000D01*
X151251000Y-80951000D02*
X146817000Y-76517000D01*
X154700000Y-102200000D02*
X155625000Y-103125000D01*
%TO.N,/MCU_TXD*%
X130154000Y-75594000D02*
X133231000Y-72517000D01*
X133231000Y-72517000D02*
X144204400Y-72517000D01*
%TO.N,/SPI_CSEL*%
X156040000Y-81250000D02*
X156040000Y-79460000D01*
X156040000Y-79460000D02*
X156983000Y-78517000D01*
X156983000Y-78517000D02*
X162204400Y-78517000D01*
%TO.N,/SPI_SCLK*%
X156840000Y-80517000D02*
X162204400Y-80517000D01*
%TO.N,/SPI_MOSI*%
X153675000Y-100600000D02*
X153675000Y-86175000D01*
X155333000Y-84517000D02*
X162204400Y-84517000D01*
X153675000Y-86175000D02*
X155333000Y-84517000D01*
%TO.N,/SPI_MISO*%
X153025000Y-101200000D02*
X153025000Y-84275000D01*
X154783000Y-82517000D02*
X162204400Y-82517000D01*
X153025000Y-84275000D02*
X154783000Y-82517000D01*
%TO.N,/ADC_DRDY*%
X146617000Y-78517000D02*
X144204400Y-78517000D01*
X148530000Y-80430000D02*
X146617000Y-78517000D01*
X152375000Y-84275000D02*
X148530000Y-80430000D01*
X152375000Y-100600000D02*
X152375000Y-84275000D01*
D25*
%TO.N,/AINCOM*%
X170920000Y-121000000D02*
X170920000Y-103420000D01*
X150920000Y-121000000D02*
X148620000Y-123300000D01*
X170920000Y-121000000D02*
X168620000Y-123300000D01*
X148620000Y-123300000D02*
X133220000Y-123300000D01*
X168400000Y-100900000D02*
X160000000Y-100900000D01*
X153220000Y-123300000D02*
X150920000Y-121000000D01*
X170920000Y-103420000D02*
X168400000Y-100900000D01*
X133220000Y-123300000D02*
X130920000Y-121000000D01*
X168620000Y-123300000D02*
X153220000Y-123300000D01*
D24*
%TO.N,/MCU_STATE*%
X140500000Y-80437654D02*
X142579346Y-82517000D01*
X140500000Y-79650000D02*
X140500000Y-80437654D01*
%TO.N,Net-(U1-RST)*%
X162204400Y-72517000D02*
X168517000Y-72517000D01*
%TO.N,Net-(U1-EN)*%
X164600000Y-77290000D02*
X162977400Y-77290000D01*
X162977400Y-77290000D02*
X162204400Y-76517000D01*
%TO.N,/ADC_START*%
X141550000Y-85700000D02*
X142733000Y-84517000D01*
%TO.N,/MCU_MODE*%
X141500000Y-80517000D02*
X144204400Y-80517000D01*
%TD*%
%TA.AperFunction,Conductor*%
%TO.N,GND*%
G36*
X185707854Y-70111907D02*
G01*
X185743818Y-70161407D01*
X185743818Y-70222593D01*
X185707854Y-70272093D01*
X185682361Y-70285444D01*
X185594950Y-70316030D01*
X185594948Y-70316031D01*
X185291328Y-70462246D01*
X185291316Y-70462252D01*
X185005957Y-70641556D01*
X185005954Y-70641558D01*
X184742487Y-70851665D01*
X184504165Y-71089987D01*
X184294058Y-71353454D01*
X184294056Y-71353457D01*
X184114752Y-71638816D01*
X184114746Y-71638828D01*
X183968531Y-71942448D01*
X183968530Y-71942450D01*
X183857224Y-72260542D01*
X183782232Y-72589107D01*
X183744500Y-72923994D01*
X183744500Y-73261005D01*
X183782232Y-73595892D01*
X183857224Y-73924457D01*
X183968530Y-74242549D01*
X183968531Y-74242551D01*
X184114746Y-74546171D01*
X184114752Y-74546183D01*
X184114754Y-74546186D01*
X184287603Y-74821273D01*
X184294056Y-74831542D01*
X184294058Y-74831545D01*
X184504165Y-75095012D01*
X184504171Y-75095018D01*
X184504175Y-75095023D01*
X184742477Y-75333325D01*
X184742481Y-75333328D01*
X184742487Y-75333334D01*
X185005954Y-75543441D01*
X185005958Y-75543443D01*
X185005961Y-75543446D01*
X185191280Y-75659890D01*
X185291316Y-75722747D01*
X185291328Y-75722753D01*
X185392205Y-75771332D01*
X185594949Y-75868969D01*
X185687386Y-75901314D01*
X185913042Y-75980275D01*
X185913045Y-75980275D01*
X185913046Y-75980276D01*
X186241606Y-76055267D01*
X186576496Y-76093000D01*
X186576497Y-76093000D01*
X186913503Y-76093000D01*
X186913504Y-76093000D01*
X187248394Y-76055267D01*
X187576954Y-75980276D01*
X187895051Y-75868969D01*
X188198686Y-75722746D01*
X188484039Y-75543446D01*
X188747523Y-75333325D01*
X188985825Y-75095023D01*
X188990506Y-75089154D01*
X189195941Y-74831545D01*
X189195946Y-74831539D01*
X189375246Y-74546186D01*
X189521469Y-74242551D01*
X189552056Y-74155139D01*
X189589121Y-74106459D01*
X189647721Y-74088862D01*
X189705473Y-74109070D01*
X189740317Y-74159365D01*
X189744500Y-74187837D01*
X189744500Y-120997162D01*
X189725593Y-121055353D01*
X189676093Y-121091317D01*
X189614907Y-121091317D01*
X189565407Y-121055353D01*
X189552056Y-121029860D01*
X189521469Y-120942450D01*
X189521469Y-120942449D01*
X189375246Y-120638814D01*
X189195946Y-120353461D01*
X189195943Y-120353457D01*
X189195941Y-120353454D01*
X188985834Y-120089987D01*
X188985828Y-120089981D01*
X188985825Y-120089977D01*
X188747523Y-119851675D01*
X188747518Y-119851671D01*
X188747512Y-119851665D01*
X188484045Y-119641558D01*
X188484042Y-119641556D01*
X188198683Y-119462252D01*
X188198671Y-119462246D01*
X187895051Y-119316031D01*
X187895049Y-119316030D01*
X187576957Y-119204724D01*
X187248392Y-119129732D01*
X186913505Y-119092000D01*
X186913504Y-119092000D01*
X186576496Y-119092000D01*
X186576494Y-119092000D01*
X186241607Y-119129732D01*
X185913042Y-119204724D01*
X185594950Y-119316030D01*
X185594948Y-119316031D01*
X185291328Y-119462246D01*
X185291316Y-119462252D01*
X185005957Y-119641556D01*
X185005954Y-119641558D01*
X184742487Y-119851665D01*
X184504165Y-120089987D01*
X184294058Y-120353454D01*
X184294056Y-120353457D01*
X184114752Y-120638816D01*
X184114746Y-120638828D01*
X183968531Y-120942448D01*
X183968530Y-120942450D01*
X183857224Y-121260542D01*
X183782232Y-121589107D01*
X183744500Y-121923994D01*
X183744500Y-122261005D01*
X183782232Y-122595892D01*
X183857224Y-122924457D01*
X183968530Y-123242549D01*
X183968531Y-123242551D01*
X184114746Y-123546171D01*
X184114752Y-123546183D01*
X184114754Y-123546186D01*
X184258160Y-123774415D01*
X184294056Y-123831542D01*
X184294058Y-123831545D01*
X184504165Y-124095012D01*
X184504171Y-124095018D01*
X184504175Y-124095023D01*
X184742477Y-124333325D01*
X184742481Y-124333328D01*
X184742487Y-124333334D01*
X185005954Y-124543441D01*
X185005958Y-124543443D01*
X185005961Y-124543446D01*
X185291314Y-124722746D01*
X185291316Y-124722747D01*
X185291328Y-124722753D01*
X185341983Y-124747147D01*
X185594949Y-124868969D01*
X185649992Y-124888229D01*
X185682361Y-124899556D01*
X185731041Y-124936621D01*
X185748638Y-124995221D01*
X185728430Y-125052973D01*
X185678135Y-125087817D01*
X185649663Y-125092000D01*
X113840337Y-125092000D01*
X113782146Y-125073093D01*
X113746182Y-125023593D01*
X113746182Y-124962407D01*
X113782146Y-124912907D01*
X113807639Y-124899556D01*
X113827500Y-124892606D01*
X113895051Y-124868969D01*
X114198686Y-124722746D01*
X114484039Y-124543446D01*
X114747523Y-124333325D01*
X114985825Y-124095023D01*
X115034894Y-124033493D01*
X115195941Y-123831545D01*
X115195946Y-123831539D01*
X115375246Y-123546186D01*
X115521469Y-123242551D01*
X115632776Y-122924454D01*
X115707767Y-122595894D01*
X115745500Y-122261004D01*
X115745500Y-121923996D01*
X115707767Y-121589106D01*
X115632776Y-121260546D01*
X115580607Y-121111457D01*
X115521470Y-120942453D01*
X115521469Y-120942450D01*
X115521469Y-120942449D01*
X115495509Y-120888542D01*
X129219500Y-120888542D01*
X129219500Y-121111457D01*
X129248595Y-121332455D01*
X129248595Y-121332460D01*
X129306290Y-121547782D01*
X129391592Y-121753722D01*
X129391595Y-121753727D01*
X129484776Y-121915120D01*
X129503052Y-121946774D01*
X129638753Y-122123624D01*
X129796376Y-122281247D01*
X129973226Y-122416948D01*
X129973228Y-122416949D01*
X130166272Y-122528404D01*
X130166277Y-122528407D01*
X130329202Y-122595892D01*
X130372219Y-122613710D01*
X130587537Y-122671404D01*
X130808543Y-122700500D01*
X130975045Y-122700500D01*
X131003239Y-122704600D01*
X132379443Y-123113460D01*
X132421253Y-123138356D01*
X132943386Y-123660489D01*
X132943388Y-123660490D01*
X132943389Y-123660491D01*
X132943390Y-123660492D01*
X133046107Y-123719796D01*
X133046109Y-123719797D01*
X133046113Y-123719799D01*
X133070322Y-123726284D01*
X133070325Y-123726287D01*
X133070326Y-123726286D01*
X133160688Y-123750499D01*
X133160690Y-123750500D01*
X133160691Y-123750500D01*
X148679309Y-123750500D01*
X148769669Y-123726287D01*
X148769672Y-123726287D01*
X148782903Y-123722741D01*
X148793887Y-123719799D01*
X148896614Y-123660489D01*
X149418747Y-123138354D01*
X149460553Y-123113460D01*
X150836760Y-122704600D01*
X150864954Y-122700500D01*
X150975045Y-122700500D01*
X151003239Y-122704600D01*
X152379443Y-123113460D01*
X152421253Y-123138356D01*
X152943386Y-123660489D01*
X152943388Y-123660490D01*
X152943389Y-123660491D01*
X152943390Y-123660492D01*
X153046107Y-123719796D01*
X153046109Y-123719797D01*
X153046113Y-123719799D01*
X153070322Y-123726284D01*
X153070325Y-123726287D01*
X153070326Y-123726286D01*
X153160688Y-123750499D01*
X153160690Y-123750500D01*
X153160691Y-123750500D01*
X168679309Y-123750500D01*
X168769669Y-123726287D01*
X168769672Y-123726287D01*
X168782903Y-123722741D01*
X168793887Y-123719799D01*
X168896614Y-123660489D01*
X169418747Y-123138354D01*
X169460553Y-123113460D01*
X170836760Y-122704600D01*
X170864954Y-122700500D01*
X171031456Y-122700500D01*
X171031457Y-122700500D01*
X171252463Y-122671404D01*
X171467781Y-122613710D01*
X171597647Y-122559917D01*
X171673722Y-122528407D01*
X171673723Y-122528405D01*
X171673726Y-122528405D01*
X171866774Y-122416948D01*
X172043624Y-122281247D01*
X172201247Y-122123624D01*
X172336948Y-121946774D01*
X172448405Y-121753726D01*
X172533710Y-121547781D01*
X172591404Y-121332463D01*
X172620500Y-121111457D01*
X172620500Y-120888543D01*
X172591404Y-120667537D01*
X172533710Y-120452219D01*
X172492802Y-120353457D01*
X172448407Y-120246277D01*
X172448404Y-120246272D01*
X172336949Y-120053228D01*
X172336948Y-120053226D01*
X172201247Y-119876376D01*
X172176536Y-119851665D01*
X172083509Y-119758637D01*
X172066472Y-119735802D01*
X171950912Y-119522556D01*
X171927988Y-119480253D01*
X174299500Y-119480253D01*
X174299500Y-122519746D01*
X174299501Y-122519758D01*
X174311132Y-122578227D01*
X174311134Y-122578233D01*
X174355445Y-122644548D01*
X174355448Y-122644552D01*
X174421769Y-122688867D01*
X174466231Y-122697711D01*
X174480241Y-122700498D01*
X174480246Y-122700498D01*
X174480252Y-122700500D01*
X174480253Y-122700500D01*
X177519747Y-122700500D01*
X177519748Y-122700500D01*
X177578231Y-122688867D01*
X177644552Y-122644552D01*
X177688867Y-122578231D01*
X177700500Y-122519748D01*
X177700500Y-119480252D01*
X177688867Y-119421769D01*
X177644552Y-119355448D01*
X177604366Y-119328596D01*
X177578233Y-119311134D01*
X177578231Y-119311133D01*
X177578228Y-119311132D01*
X177578227Y-119311132D01*
X177519758Y-119299501D01*
X177519748Y-119299500D01*
X174480252Y-119299500D01*
X174480251Y-119299500D01*
X174480241Y-119299501D01*
X174421772Y-119311132D01*
X174421766Y-119311134D01*
X174355451Y-119355445D01*
X174355445Y-119355451D01*
X174311134Y-119421766D01*
X174311132Y-119421772D01*
X174299501Y-119480241D01*
X174299500Y-119480253D01*
X171927988Y-119480253D01*
X171860356Y-119355451D01*
X171382459Y-118473572D01*
X171370500Y-118426404D01*
X171370500Y-103422235D01*
X171370500Y-103417170D01*
X183324000Y-103417170D01*
X183324000Y-103705629D01*
X183361650Y-103991609D01*
X183361650Y-103991614D01*
X183436309Y-104270246D01*
X183546694Y-104536741D01*
X183546696Y-104536746D01*
X183690923Y-104786553D01*
X183866520Y-105015397D01*
X183866522Y-105015399D01*
X183866526Y-105015404D01*
X184070496Y-105219374D01*
X184070500Y-105219377D01*
X184070502Y-105219379D01*
X184167883Y-105294101D01*
X184299344Y-105394975D01*
X184549155Y-105539204D01*
X184815655Y-105649591D01*
X185094283Y-105724249D01*
X185380272Y-105761900D01*
X185380273Y-105761900D01*
X185668727Y-105761900D01*
X185668728Y-105761900D01*
X185954717Y-105724249D01*
X186233345Y-105649591D01*
X186499845Y-105539204D01*
X186749656Y-105394975D01*
X186978504Y-105219374D01*
X187182474Y-105015404D01*
X187358075Y-104786556D01*
X187502304Y-104536745D01*
X187612691Y-104270245D01*
X187687349Y-103991617D01*
X187725000Y-103705628D01*
X187725000Y-103417172D01*
X187687349Y-103131183D01*
X187612691Y-102852555D01*
X187502304Y-102586055D01*
X187358075Y-102336244D01*
X187244281Y-102187945D01*
X187182479Y-102107402D01*
X187182477Y-102107400D01*
X187182474Y-102107396D01*
X186978504Y-101903426D01*
X186978499Y-101903422D01*
X186978497Y-101903420D01*
X186757194Y-101733609D01*
X186749656Y-101727825D01*
X186749653Y-101727823D01*
X186499846Y-101583596D01*
X186499841Y-101583594D01*
X186233346Y-101473209D01*
X186110488Y-101440289D01*
X185954717Y-101398551D01*
X185954714Y-101398550D01*
X185954712Y-101398550D01*
X185668729Y-101360900D01*
X185668728Y-101360900D01*
X185380272Y-101360900D01*
X185380270Y-101360900D01*
X185094290Y-101398550D01*
X185094285Y-101398550D01*
X184815653Y-101473209D01*
X184549158Y-101583594D01*
X184549153Y-101583596D01*
X184299346Y-101727823D01*
X184070502Y-101903420D01*
X183866520Y-102107402D01*
X183690923Y-102336246D01*
X183546696Y-102586053D01*
X183546694Y-102586058D01*
X183436309Y-102852553D01*
X183361650Y-103131185D01*
X183361650Y-103131190D01*
X183324000Y-103417170D01*
X171370500Y-103417170D01*
X171370500Y-103360691D01*
X171343597Y-103260288D01*
X171342385Y-103255765D01*
X171342384Y-103255758D01*
X171339801Y-103246118D01*
X171339796Y-103246107D01*
X171280492Y-103143390D01*
X171280490Y-103143388D01*
X171280489Y-103143386D01*
X168676614Y-100539511D01*
X168676611Y-100539509D01*
X168676609Y-100539507D01*
X168573892Y-100480203D01*
X168573889Y-100480202D01*
X168573887Y-100480201D01*
X168537558Y-100470467D01*
X168537556Y-100470466D01*
X168487949Y-100457174D01*
X168459309Y-100449500D01*
X168459308Y-100449500D01*
X160632432Y-100449500D01*
X160605194Y-100445679D01*
X160600410Y-100444310D01*
X160600407Y-100444309D01*
X160600409Y-100444309D01*
X160081683Y-100401476D01*
X160081719Y-100401036D01*
X160072394Y-100399814D01*
X160072324Y-100400347D01*
X160065892Y-100399500D01*
X159934108Y-100399500D01*
X159856200Y-100420375D01*
X159806809Y-100433609D01*
X159692690Y-100499496D01*
X159599496Y-100592690D01*
X159533609Y-100706809D01*
X159533608Y-100706814D01*
X159499500Y-100834108D01*
X159499500Y-100965892D01*
X159508773Y-101000500D01*
X159533609Y-101093190D01*
X159599496Y-101207309D01*
X159599498Y-101207311D01*
X159599500Y-101207314D01*
X159692686Y-101300500D01*
X159692688Y-101300501D01*
X159692690Y-101300503D01*
X159806810Y-101366390D01*
X159806808Y-101366390D01*
X159806812Y-101366391D01*
X159806814Y-101366392D01*
X159934108Y-101400500D01*
X159934110Y-101400500D01*
X160065895Y-101400500D01*
X160072326Y-101399653D01*
X160072409Y-101400288D01*
X160081009Y-101399224D01*
X160080957Y-101398583D01*
X160388211Y-101373211D01*
X160600410Y-101355689D01*
X160607640Y-101353779D01*
X160632913Y-101350500D01*
X168172389Y-101350500D01*
X168230580Y-101369407D01*
X168242393Y-101379496D01*
X170440504Y-103577607D01*
X170468281Y-103632124D01*
X170469500Y-103647611D01*
X170469500Y-118426404D01*
X170457541Y-118473572D01*
X169773523Y-119735806D01*
X169756486Y-119758641D01*
X169638756Y-119876372D01*
X169638752Y-119876377D01*
X169503050Y-120053228D01*
X169391595Y-120246272D01*
X169391592Y-120246277D01*
X169306290Y-120452217D01*
X169248595Y-120667539D01*
X169248595Y-120667544D01*
X169219500Y-120888542D01*
X169219500Y-121055043D01*
X169215400Y-121083237D01*
X168806537Y-122459445D01*
X168781641Y-122501254D01*
X168462394Y-122820503D01*
X168407877Y-122848281D01*
X168392390Y-122849500D01*
X157664185Y-122849500D01*
X157605994Y-122830593D01*
X157570030Y-122781093D01*
X157570030Y-122719907D01*
X157605994Y-122670407D01*
X157609183Y-122668185D01*
X157644552Y-122644552D01*
X157688867Y-122578231D01*
X157700500Y-122519748D01*
X157700500Y-119480252D01*
X157688867Y-119421769D01*
X157644552Y-119355448D01*
X157604366Y-119328596D01*
X157578233Y-119311134D01*
X157578231Y-119311133D01*
X157578228Y-119311132D01*
X157578227Y-119311132D01*
X157519758Y-119299501D01*
X157519748Y-119299500D01*
X154480252Y-119299500D01*
X154480251Y-119299500D01*
X154480241Y-119299501D01*
X154421772Y-119311132D01*
X154421766Y-119311134D01*
X154355451Y-119355445D01*
X154355445Y-119355451D01*
X154311134Y-119421766D01*
X154311132Y-119421772D01*
X154299501Y-119480241D01*
X154299500Y-119480253D01*
X154299500Y-122519746D01*
X154299501Y-122519758D01*
X154311132Y-122578227D01*
X154311134Y-122578233D01*
X154355445Y-122644548D01*
X154355448Y-122644552D01*
X154355451Y-122644554D01*
X154390817Y-122668185D01*
X154428696Y-122716235D01*
X154431098Y-122777373D01*
X154397105Y-122828247D01*
X154339701Y-122849424D01*
X154335815Y-122849500D01*
X153447611Y-122849500D01*
X153389420Y-122830593D01*
X153377607Y-122820504D01*
X153058356Y-122501253D01*
X153033460Y-122459443D01*
X152624600Y-121083239D01*
X152620500Y-121055045D01*
X152620500Y-120888544D01*
X152620500Y-120888543D01*
X152591404Y-120667537D01*
X152533710Y-120452219D01*
X152492802Y-120353457D01*
X152448407Y-120246277D01*
X152448404Y-120246272D01*
X152336949Y-120053228D01*
X152336948Y-120053226D01*
X152201247Y-119876376D01*
X152043624Y-119718753D01*
X151866774Y-119583052D01*
X151866771Y-119583050D01*
X151673727Y-119471595D01*
X151673722Y-119471592D01*
X151467782Y-119386290D01*
X151352688Y-119355451D01*
X151252463Y-119328596D01*
X151252460Y-119328595D01*
X151252458Y-119328595D01*
X151031457Y-119299500D01*
X150808543Y-119299500D01*
X150808542Y-119299500D01*
X150587544Y-119328595D01*
X150587539Y-119328595D01*
X150372217Y-119386290D01*
X150166277Y-119471592D01*
X150166272Y-119471595D01*
X149973228Y-119583050D01*
X149796379Y-119718750D01*
X149638750Y-119876379D01*
X149503050Y-120053228D01*
X149391595Y-120246272D01*
X149391592Y-120246277D01*
X149306290Y-120452217D01*
X149248595Y-120667539D01*
X149248595Y-120667544D01*
X149219500Y-120888542D01*
X149219500Y-121055043D01*
X149215400Y-121083237D01*
X148806537Y-122459445D01*
X148781641Y-122501254D01*
X148462394Y-122820503D01*
X148407877Y-122848281D01*
X148392390Y-122849500D01*
X137664185Y-122849500D01*
X137605994Y-122830593D01*
X137570030Y-122781093D01*
X137570030Y-122719907D01*
X137605994Y-122670407D01*
X137609183Y-122668185D01*
X137644552Y-122644552D01*
X137688867Y-122578231D01*
X137700500Y-122519748D01*
X137700500Y-119480252D01*
X137688867Y-119421769D01*
X137644552Y-119355448D01*
X137604366Y-119328596D01*
X137578233Y-119311134D01*
X137578231Y-119311133D01*
X137578228Y-119311132D01*
X137578227Y-119311132D01*
X137519758Y-119299501D01*
X137519748Y-119299500D01*
X134480252Y-119299500D01*
X134480251Y-119299500D01*
X134480241Y-119299501D01*
X134421772Y-119311132D01*
X134421766Y-119311134D01*
X134355451Y-119355445D01*
X134355445Y-119355451D01*
X134311134Y-119421766D01*
X134311132Y-119421772D01*
X134299501Y-119480241D01*
X134299500Y-119480253D01*
X134299500Y-122519746D01*
X134299501Y-122519758D01*
X134311132Y-122578227D01*
X134311134Y-122578233D01*
X134355445Y-122644548D01*
X134355448Y-122644552D01*
X134355451Y-122644554D01*
X134390817Y-122668185D01*
X134428696Y-122716235D01*
X134431098Y-122777373D01*
X134397105Y-122828247D01*
X134339701Y-122849424D01*
X134335815Y-122849500D01*
X133447611Y-122849500D01*
X133389420Y-122830593D01*
X133377607Y-122820504D01*
X133058356Y-122501253D01*
X133033460Y-122459443D01*
X132624600Y-121083239D01*
X132620500Y-121055045D01*
X132620500Y-120888544D01*
X132620500Y-120888543D01*
X132591404Y-120667537D01*
X132533710Y-120452219D01*
X132492802Y-120353457D01*
X132448407Y-120246277D01*
X132448404Y-120246272D01*
X132336949Y-120053228D01*
X132336948Y-120053226D01*
X132201247Y-119876376D01*
X132043624Y-119718753D01*
X131866774Y-119583052D01*
X131866771Y-119583050D01*
X131673727Y-119471595D01*
X131673722Y-119471592D01*
X131467782Y-119386290D01*
X131352688Y-119355451D01*
X131252463Y-119328596D01*
X131252460Y-119328595D01*
X131252458Y-119328595D01*
X131031457Y-119299500D01*
X130808543Y-119299500D01*
X130808542Y-119299500D01*
X130587544Y-119328595D01*
X130587539Y-119328595D01*
X130372217Y-119386290D01*
X130166277Y-119471592D01*
X130166272Y-119471595D01*
X129973228Y-119583050D01*
X129796379Y-119718750D01*
X129638750Y-119876379D01*
X129503050Y-120053228D01*
X129391595Y-120246272D01*
X129391592Y-120246277D01*
X129306290Y-120452217D01*
X129248595Y-120667539D01*
X129248595Y-120667544D01*
X129219500Y-120888542D01*
X115495509Y-120888542D01*
X115375246Y-120638814D01*
X115195946Y-120353461D01*
X115195943Y-120353457D01*
X115195941Y-120353454D01*
X114985834Y-120089987D01*
X114985828Y-120089981D01*
X114985825Y-120089977D01*
X114747523Y-119851675D01*
X114747518Y-119851671D01*
X114747512Y-119851665D01*
X114484045Y-119641558D01*
X114484042Y-119641556D01*
X114198683Y-119462252D01*
X114198671Y-119462246D01*
X113895051Y-119316031D01*
X113895049Y-119316030D01*
X113576957Y-119204724D01*
X113248392Y-119129732D01*
X112913505Y-119092000D01*
X112913504Y-119092000D01*
X112576496Y-119092000D01*
X112576494Y-119092000D01*
X112241607Y-119129732D01*
X111913042Y-119204724D01*
X111594950Y-119316030D01*
X111594948Y-119316031D01*
X111291328Y-119462246D01*
X111291316Y-119462252D01*
X111005957Y-119641556D01*
X111005954Y-119641558D01*
X110742487Y-119851665D01*
X110504165Y-120089987D01*
X110294058Y-120353454D01*
X110294056Y-120353457D01*
X110114752Y-120638816D01*
X110114746Y-120638828D01*
X109968531Y-120942448D01*
X109968530Y-120942450D01*
X109937944Y-121029860D01*
X109900879Y-121078540D01*
X109842278Y-121096137D01*
X109784526Y-121075929D01*
X109749683Y-121025634D01*
X109745500Y-120997162D01*
X109745500Y-109948270D01*
X113959500Y-109948270D01*
X113959500Y-110236729D01*
X113997150Y-110522709D01*
X113997150Y-110522714D01*
X114071809Y-110801346D01*
X114182194Y-111067841D01*
X114182196Y-111067846D01*
X114326423Y-111317653D01*
X114502020Y-111546497D01*
X114502022Y-111546499D01*
X114502026Y-111546504D01*
X114705996Y-111750474D01*
X114706000Y-111750477D01*
X114706002Y-111750479D01*
X114803383Y-111825201D01*
X114934844Y-111926075D01*
X115184655Y-112070304D01*
X115451155Y-112180691D01*
X115729783Y-112255349D01*
X116015772Y-112293000D01*
X116015773Y-112293000D01*
X116304227Y-112293000D01*
X116304228Y-112293000D01*
X116590217Y-112255349D01*
X116868845Y-112180691D01*
X117135345Y-112070304D01*
X117385156Y-111926075D01*
X117614004Y-111750474D01*
X117817974Y-111546504D01*
X117993575Y-111317656D01*
X118137804Y-111067845D01*
X118248191Y-110801345D01*
X118322849Y-110522717D01*
X118360500Y-110236728D01*
X118360500Y-109948272D01*
X118322849Y-109662283D01*
X118248191Y-109383655D01*
X118137804Y-109117155D01*
X117993575Y-108867344D01*
X117817974Y-108638496D01*
X117614004Y-108434526D01*
X117613999Y-108434522D01*
X117613997Y-108434520D01*
X117385153Y-108258923D01*
X117135346Y-108114696D01*
X117135341Y-108114694D01*
X116868846Y-108004309D01*
X116745988Y-107971389D01*
X116590217Y-107929651D01*
X116590214Y-107929650D01*
X116590212Y-107929650D01*
X116304229Y-107892000D01*
X116304228Y-107892000D01*
X116015772Y-107892000D01*
X116015770Y-107892000D01*
X115729790Y-107929650D01*
X115729785Y-107929650D01*
X115451153Y-108004309D01*
X115184658Y-108114694D01*
X115184653Y-108114696D01*
X114934846Y-108258923D01*
X114706002Y-108434520D01*
X114502020Y-108638502D01*
X114326423Y-108867346D01*
X114182196Y-109117153D01*
X114182194Y-109117158D01*
X114071809Y-109383653D01*
X113997150Y-109662285D01*
X113997150Y-109662290D01*
X113959500Y-109948270D01*
X109745500Y-109948270D01*
X109745500Y-101648956D01*
X115159500Y-101648956D01*
X115159500Y-101846043D01*
X115197949Y-102039334D01*
X115197949Y-102039336D01*
X115273367Y-102221413D01*
X115273368Y-102221414D01*
X115382861Y-102385282D01*
X115522218Y-102524639D01*
X115686086Y-102634132D01*
X115868165Y-102709551D01*
X116061459Y-102748000D01*
X116061460Y-102748000D01*
X116258540Y-102748000D01*
X116258541Y-102748000D01*
X116451835Y-102709551D01*
X116633914Y-102634132D01*
X116797782Y-102524639D01*
X116937139Y-102385282D01*
X116985601Y-102312753D01*
X117999500Y-102312753D01*
X117999500Y-103952246D01*
X117999501Y-103952258D01*
X118007329Y-103991609D01*
X118011133Y-104010731D01*
X118055448Y-104077052D01*
X118121769Y-104121367D01*
X118166231Y-104130211D01*
X118180241Y-104132998D01*
X118180246Y-104132998D01*
X118180252Y-104133000D01*
X118180253Y-104133000D01*
X119819747Y-104133000D01*
X119819748Y-104133000D01*
X119878231Y-104121367D01*
X119944552Y-104077052D01*
X119988867Y-104010731D01*
X120000500Y-103952248D01*
X120000500Y-102312752D01*
X119988867Y-102254269D01*
X119944552Y-102187948D01*
X119944548Y-102187945D01*
X119878233Y-102143634D01*
X119878231Y-102143633D01*
X119878228Y-102143632D01*
X119878227Y-102143632D01*
X119830350Y-102134108D01*
X154199500Y-102134108D01*
X154199500Y-102265892D01*
X154218351Y-102336244D01*
X154233609Y-102393190D01*
X154299496Y-102507309D01*
X154299498Y-102507311D01*
X154299500Y-102507314D01*
X154392686Y-102600500D01*
X154416356Y-102614166D01*
X154432035Y-102625387D01*
X154441597Y-102633752D01*
X154893351Y-102893846D01*
X154913953Y-102909635D01*
X155245504Y-103241186D01*
X155249130Y-103248303D01*
X155255593Y-103252999D01*
X155262756Y-103275047D01*
X155273281Y-103295703D01*
X155274500Y-103311190D01*
X155274500Y-103321918D01*
X155271096Y-103347656D01*
X155135575Y-103850998D01*
X155133970Y-103857356D01*
X155133804Y-103858060D01*
X155133700Y-103863558D01*
X155130345Y-103887291D01*
X155124500Y-103909104D01*
X155124500Y-103909107D01*
X155124500Y-103909108D01*
X155124500Y-104040892D01*
X155149180Y-104133000D01*
X155158609Y-104168190D01*
X155224496Y-104282309D01*
X155224498Y-104282311D01*
X155224500Y-104282314D01*
X155317686Y-104375500D01*
X155317688Y-104375501D01*
X155317690Y-104375503D01*
X155431810Y-104441390D01*
X155431808Y-104441390D01*
X155431812Y-104441391D01*
X155431814Y-104441392D01*
X155559108Y-104475500D01*
X155559110Y-104475500D01*
X155690890Y-104475500D01*
X155690892Y-104475500D01*
X155818186Y-104441392D01*
X155818188Y-104441390D01*
X155818190Y-104441390D01*
X155932309Y-104375503D01*
X155932309Y-104375502D01*
X155932314Y-104375500D01*
X156025500Y-104282314D01*
X156025503Y-104282309D01*
X156091390Y-104168190D01*
X156091390Y-104168188D01*
X156091392Y-104168186D01*
X156125500Y-104040892D01*
X156125500Y-103909108D01*
X156118425Y-103882706D01*
X156115272Y-103863675D01*
X156115264Y-103863558D01*
X156114427Y-103851008D01*
X155978903Y-103347656D01*
X155975500Y-103321920D01*
X155975500Y-103078857D01*
X155975500Y-103078856D01*
X155951614Y-102989712D01*
X155905470Y-102909788D01*
X155409636Y-102413954D01*
X155393846Y-102393349D01*
X155133752Y-101941597D01*
X155130265Y-101935766D01*
X155129874Y-101935136D01*
X155126135Y-101931256D01*
X155111685Y-101912059D01*
X155105011Y-101900500D01*
X155100500Y-101892686D01*
X155007314Y-101799500D01*
X155007311Y-101799498D01*
X155007309Y-101799496D01*
X154893189Y-101733609D01*
X154893191Y-101733609D01*
X154843799Y-101720375D01*
X154765892Y-101699500D01*
X154634108Y-101699500D01*
X154556200Y-101720375D01*
X154506809Y-101733609D01*
X154392690Y-101799496D01*
X154299496Y-101892690D01*
X154233609Y-102006809D01*
X154233608Y-102006814D01*
X154199500Y-102134108D01*
X119830350Y-102134108D01*
X119819758Y-102132001D01*
X119819748Y-102132000D01*
X118180252Y-102132000D01*
X118180251Y-102132000D01*
X118180241Y-102132001D01*
X118121772Y-102143632D01*
X118121766Y-102143634D01*
X118055451Y-102187945D01*
X118055445Y-102187951D01*
X118011134Y-102254266D01*
X118011132Y-102254272D01*
X117999501Y-102312741D01*
X117999500Y-102312753D01*
X116985601Y-102312753D01*
X117046632Y-102221414D01*
X117122051Y-102039335D01*
X117160500Y-101846041D01*
X117160500Y-101648959D01*
X117122051Y-101455665D01*
X117046632Y-101273586D01*
X116937139Y-101109718D01*
X116797782Y-100970361D01*
X116633914Y-100860868D01*
X116633915Y-100860868D01*
X116633913Y-100860867D01*
X116451835Y-100785449D01*
X116258543Y-100747000D01*
X116258541Y-100747000D01*
X116061459Y-100747000D01*
X116061456Y-100747000D01*
X115868165Y-100785449D01*
X115868163Y-100785449D01*
X115686086Y-100860867D01*
X115522218Y-100970361D01*
X115522214Y-100970364D01*
X115382864Y-101109714D01*
X115382861Y-101109718D01*
X115273367Y-101273586D01*
X115197949Y-101455663D01*
X115197949Y-101455665D01*
X115159500Y-101648956D01*
X109745500Y-101648956D01*
X109745500Y-100263956D01*
X117999500Y-100263956D01*
X117999500Y-100461043D01*
X118037949Y-100654334D01*
X118037949Y-100654336D01*
X118113367Y-100836413D01*
X118145235Y-100884107D01*
X118222861Y-101000282D01*
X118362218Y-101139639D01*
X118526086Y-101249132D01*
X118708165Y-101324551D01*
X118901459Y-101363000D01*
X118901460Y-101363000D01*
X119098540Y-101363000D01*
X119098541Y-101363000D01*
X119291835Y-101324551D01*
X119473914Y-101249132D01*
X119637782Y-101139639D01*
X119777139Y-101000282D01*
X119886632Y-100836414D01*
X119962051Y-100654335D01*
X120000500Y-100461041D01*
X120000500Y-100263959D01*
X119962051Y-100070665D01*
X119886632Y-99888586D01*
X119777139Y-99724718D01*
X119637782Y-99585361D01*
X119473914Y-99475868D01*
X119473915Y-99475868D01*
X119473913Y-99475867D01*
X119291835Y-99400449D01*
X119098543Y-99362000D01*
X119098541Y-99362000D01*
X118901459Y-99362000D01*
X118901456Y-99362000D01*
X118708165Y-99400449D01*
X118708163Y-99400449D01*
X118526086Y-99475867D01*
X118362218Y-99585361D01*
X118362214Y-99585364D01*
X118222864Y-99724714D01*
X118222861Y-99724718D01*
X118113367Y-99888586D01*
X118037949Y-100070663D01*
X118037949Y-100070665D01*
X117999500Y-100263956D01*
X109745500Y-100263956D01*
X109745500Y-98878956D01*
X115159500Y-98878956D01*
X115159500Y-99076043D01*
X115197949Y-99269334D01*
X115197949Y-99269336D01*
X115273367Y-99451413D01*
X115309699Y-99505788D01*
X115382861Y-99615282D01*
X115522218Y-99754639D01*
X115686086Y-99864132D01*
X115868165Y-99939551D01*
X116061459Y-99978000D01*
X116061460Y-99978000D01*
X116258540Y-99978000D01*
X116258541Y-99978000D01*
X116451835Y-99939551D01*
X116633914Y-99864132D01*
X116797782Y-99754639D01*
X116937139Y-99615282D01*
X117046632Y-99451414D01*
X117122051Y-99269335D01*
X117160500Y-99076041D01*
X117160500Y-98878959D01*
X117122051Y-98685665D01*
X117046632Y-98503586D01*
X116937139Y-98339718D01*
X116797782Y-98200361D01*
X116633914Y-98090868D01*
X116633915Y-98090868D01*
X116633913Y-98090867D01*
X116451835Y-98015449D01*
X116258543Y-97977000D01*
X116258541Y-97977000D01*
X116061459Y-97977000D01*
X116061456Y-97977000D01*
X115868165Y-98015449D01*
X115868163Y-98015449D01*
X115686086Y-98090867D01*
X115522218Y-98200361D01*
X115522214Y-98200364D01*
X115382864Y-98339714D01*
X115382861Y-98339718D01*
X115273367Y-98503586D01*
X115197949Y-98685663D01*
X115197949Y-98685665D01*
X115159500Y-98878956D01*
X109745500Y-98878956D01*
X109745500Y-97493956D01*
X117999500Y-97493956D01*
X117999500Y-97691043D01*
X118037949Y-97884334D01*
X118037949Y-97884336D01*
X118113367Y-98066413D01*
X118149699Y-98120788D01*
X118222861Y-98230282D01*
X118362218Y-98369639D01*
X118526086Y-98479132D01*
X118708165Y-98554551D01*
X118901459Y-98593000D01*
X118901460Y-98593000D01*
X119098540Y-98593000D01*
X119098541Y-98593000D01*
X119291835Y-98554551D01*
X119473914Y-98479132D01*
X119637782Y-98369639D01*
X119777139Y-98230282D01*
X119886632Y-98066414D01*
X119962051Y-97884335D01*
X120000500Y-97691041D01*
X120000500Y-97493959D01*
X119962051Y-97300665D01*
X119886632Y-97118586D01*
X119777139Y-96954718D01*
X119637782Y-96815361D01*
X119515490Y-96733648D01*
X119473913Y-96705867D01*
X119291835Y-96630449D01*
X119098543Y-96592000D01*
X119098541Y-96592000D01*
X118901459Y-96592000D01*
X118901456Y-96592000D01*
X118708165Y-96630449D01*
X118708163Y-96630449D01*
X118526086Y-96705867D01*
X118362218Y-96815361D01*
X118362214Y-96815364D01*
X118222864Y-96954714D01*
X118222861Y-96954718D01*
X118113367Y-97118586D01*
X118037949Y-97300663D01*
X118037949Y-97300665D01*
X117999500Y-97493956D01*
X109745500Y-97493956D01*
X109745500Y-96108956D01*
X115159500Y-96108956D01*
X115159500Y-96306043D01*
X115197949Y-96499334D01*
X115197949Y-96499336D01*
X115273367Y-96681413D01*
X115290670Y-96707309D01*
X115382861Y-96845282D01*
X115522218Y-96984639D01*
X115686086Y-97094132D01*
X115868165Y-97169551D01*
X116061459Y-97208000D01*
X116061460Y-97208000D01*
X116258540Y-97208000D01*
X116258541Y-97208000D01*
X116451835Y-97169551D01*
X116633914Y-97094132D01*
X116797782Y-96984639D01*
X116937139Y-96845282D01*
X117046632Y-96681414D01*
X117122051Y-96499335D01*
X117160500Y-96306041D01*
X117160500Y-96108959D01*
X117122051Y-95915665D01*
X117046632Y-95733586D01*
X116937139Y-95569718D01*
X116797782Y-95430361D01*
X116688288Y-95357199D01*
X116633913Y-95320867D01*
X116451835Y-95245449D01*
X116258543Y-95207000D01*
X116258541Y-95207000D01*
X116061459Y-95207000D01*
X116061456Y-95207000D01*
X115868165Y-95245449D01*
X115868163Y-95245449D01*
X115686086Y-95320867D01*
X115522218Y-95430361D01*
X115522214Y-95430364D01*
X115382864Y-95569714D01*
X115382861Y-95569718D01*
X115273367Y-95733586D01*
X115197949Y-95915663D01*
X115197949Y-95915665D01*
X115159500Y-96108956D01*
X109745500Y-96108956D01*
X109745500Y-94723956D01*
X117999500Y-94723956D01*
X117999500Y-94921043D01*
X118037949Y-95114334D01*
X118037949Y-95114336D01*
X118113367Y-95296413D01*
X118130819Y-95322532D01*
X118222861Y-95460282D01*
X118362218Y-95599639D01*
X118526086Y-95709132D01*
X118708165Y-95784551D01*
X118901459Y-95823000D01*
X118901460Y-95823000D01*
X119098540Y-95823000D01*
X119098541Y-95823000D01*
X119291835Y-95784551D01*
X119473914Y-95709132D01*
X119637782Y-95599639D01*
X119777139Y-95460282D01*
X119886632Y-95296414D01*
X119962051Y-95114335D01*
X120000500Y-94921041D01*
X120000500Y-94723959D01*
X119962051Y-94530665D01*
X119886632Y-94348586D01*
X119777139Y-94184718D01*
X119637782Y-94045361D01*
X119473914Y-93935868D01*
X119473915Y-93935868D01*
X119473913Y-93935867D01*
X119291835Y-93860449D01*
X119098543Y-93822000D01*
X119098541Y-93822000D01*
X118901459Y-93822000D01*
X118901456Y-93822000D01*
X118708165Y-93860449D01*
X118708163Y-93860449D01*
X118526086Y-93935867D01*
X118362218Y-94045361D01*
X118362214Y-94045364D01*
X118222864Y-94184714D01*
X118222861Y-94184718D01*
X118113367Y-94348586D01*
X118037949Y-94530663D01*
X118037949Y-94530665D01*
X117999500Y-94723956D01*
X109745500Y-94723956D01*
X109745500Y-93338956D01*
X115159500Y-93338956D01*
X115159500Y-93536043D01*
X115159718Y-93537138D01*
X115196937Y-93724249D01*
X115197949Y-93729334D01*
X115197949Y-93729336D01*
X115273367Y-93911413D01*
X115309699Y-93965788D01*
X115382861Y-94075282D01*
X115522218Y-94214639D01*
X115686086Y-94324132D01*
X115868165Y-94399551D01*
X116061459Y-94438000D01*
X116061460Y-94438000D01*
X116258540Y-94438000D01*
X116258541Y-94438000D01*
X116451835Y-94399551D01*
X116633914Y-94324132D01*
X116797782Y-94214639D01*
X116937139Y-94075282D01*
X117046632Y-93911414D01*
X117122051Y-93729335D01*
X117160500Y-93536041D01*
X117160500Y-93338959D01*
X117122051Y-93145665D01*
X117107485Y-93110500D01*
X117046634Y-92963589D01*
X117046632Y-92963586D01*
X116937139Y-92799718D01*
X116797782Y-92660361D01*
X116688288Y-92587199D01*
X116633913Y-92550867D01*
X116451835Y-92475449D01*
X116258543Y-92437000D01*
X116258541Y-92437000D01*
X116061459Y-92437000D01*
X116061456Y-92437000D01*
X115868165Y-92475449D01*
X115868163Y-92475449D01*
X115686086Y-92550867D01*
X115522218Y-92660361D01*
X115522214Y-92660364D01*
X115382864Y-92799714D01*
X115382861Y-92799718D01*
X115273367Y-92963586D01*
X115197949Y-93145663D01*
X115197949Y-93145665D01*
X115159500Y-93338956D01*
X109745500Y-93338956D01*
X109745500Y-91965924D01*
X117900000Y-91965924D01*
X117900000Y-92139075D01*
X117927084Y-92310079D01*
X117980588Y-92474748D01*
X118059195Y-92629024D01*
X118059197Y-92629028D01*
X118123219Y-92717146D01*
X118556328Y-92284036D01*
X118599901Y-92359507D01*
X118692993Y-92452599D01*
X118768460Y-92496170D01*
X118335352Y-92929278D01*
X118423477Y-92993305D01*
X118577751Y-93071911D01*
X118742420Y-93125415D01*
X118913425Y-93152500D01*
X119086575Y-93152500D01*
X119257579Y-93125415D01*
X119422248Y-93071911D01*
X119576524Y-92993304D01*
X119576530Y-92993300D01*
X119664646Y-92929279D01*
X119664646Y-92929278D01*
X119231538Y-92496170D01*
X119307007Y-92452599D01*
X119400099Y-92359507D01*
X119443670Y-92284038D01*
X119876778Y-92717146D01*
X119876779Y-92717146D01*
X119940800Y-92629030D01*
X119940804Y-92629024D01*
X120019411Y-92474748D01*
X120072915Y-92310079D01*
X120097363Y-92155725D01*
X125389500Y-92155725D01*
X125389500Y-93364274D01*
X125392353Y-93394694D01*
X125392355Y-93394703D01*
X125437207Y-93522883D01*
X125517845Y-93632144D01*
X125517847Y-93632146D01*
X125517850Y-93632150D01*
X125517853Y-93632152D01*
X125517855Y-93632154D01*
X125627116Y-93712792D01*
X125627117Y-93712792D01*
X125627118Y-93712793D01*
X125755301Y-93757646D01*
X125785725Y-93760499D01*
X125785727Y-93760500D01*
X125785734Y-93760500D01*
X126994273Y-93760500D01*
X126994273Y-93760499D01*
X127024699Y-93757646D01*
X127152882Y-93712793D01*
X127262150Y-93632150D01*
X127342793Y-93522882D01*
X127387646Y-93394699D01*
X127390499Y-93364273D01*
X127390500Y-93364273D01*
X127390500Y-92155727D01*
X127390499Y-92155725D01*
X127387646Y-92125301D01*
X127342793Y-91997118D01*
X127338733Y-91991617D01*
X127262154Y-91887855D01*
X127262152Y-91887853D01*
X127262150Y-91887850D01*
X127262146Y-91887847D01*
X127262144Y-91887845D01*
X127152883Y-91807207D01*
X127024703Y-91762355D01*
X127024694Y-91762353D01*
X126994274Y-91759500D01*
X126994266Y-91759500D01*
X125785734Y-91759500D01*
X125785725Y-91759500D01*
X125755305Y-91762353D01*
X125755296Y-91762355D01*
X125627116Y-91807207D01*
X125517855Y-91887845D01*
X125517845Y-91887855D01*
X125437207Y-91997116D01*
X125392355Y-92125296D01*
X125392353Y-92125305D01*
X125389500Y-92155725D01*
X120097363Y-92155725D01*
X120100000Y-92139074D01*
X120100000Y-91965924D01*
X120072915Y-91794920D01*
X120019411Y-91630251D01*
X119940805Y-91475977D01*
X119876778Y-91387852D01*
X119443670Y-91820960D01*
X119400099Y-91745493D01*
X119307007Y-91652401D01*
X119231536Y-91608828D01*
X119664646Y-91175719D01*
X119576528Y-91111697D01*
X119576524Y-91111695D01*
X119422248Y-91033088D01*
X119257579Y-90979584D01*
X119086575Y-90952500D01*
X118913425Y-90952500D01*
X118742420Y-90979584D01*
X118577751Y-91033088D01*
X118423476Y-91111695D01*
X118335352Y-91175719D01*
X118768461Y-91608828D01*
X118692993Y-91652401D01*
X118599901Y-91745493D01*
X118556328Y-91820961D01*
X118123219Y-91387852D01*
X118059195Y-91475976D01*
X117980588Y-91630251D01*
X117927084Y-91794920D01*
X117900000Y-91965924D01*
X109745500Y-91965924D01*
X109745500Y-89411456D01*
X129119500Y-89411456D01*
X129119500Y-89608543D01*
X129157949Y-89801834D01*
X129157949Y-89801836D01*
X129233367Y-89983914D01*
X129259618Y-90023202D01*
X129271078Y-90046467D01*
X129271629Y-90048096D01*
X129271630Y-90048098D01*
X129760717Y-91130529D01*
X129760718Y-91130530D01*
X129769500Y-91171293D01*
X129769500Y-91816144D01*
X129793386Y-91905288D01*
X129839530Y-91985212D01*
X130829531Y-92975212D01*
X130829530Y-92975212D01*
X130894787Y-93040468D01*
X130894789Y-93040470D01*
X130943702Y-93068710D01*
X130974712Y-93086614D01*
X131063856Y-93110500D01*
X132348706Y-93110500D01*
X132389470Y-93119282D01*
X133318827Y-93539204D01*
X133471899Y-93608368D01*
X133471907Y-93608370D01*
X133475497Y-93609668D01*
X133475190Y-93610517D01*
X133496961Y-93620490D01*
X133536078Y-93646628D01*
X133536090Y-93646634D01*
X133603349Y-93674493D01*
X133718165Y-93722051D01*
X133911459Y-93760500D01*
X133911460Y-93760500D01*
X134108540Y-93760500D01*
X134108541Y-93760500D01*
X134301835Y-93722051D01*
X134483914Y-93646632D01*
X134647782Y-93537139D01*
X134787139Y-93397782D01*
X134896632Y-93233914D01*
X134972051Y-93051835D01*
X135010500Y-92858541D01*
X135010500Y-92661459D01*
X134972051Y-92468165D01*
X134896632Y-92286086D01*
X134787139Y-92122218D01*
X134647782Y-91982861D01*
X134531684Y-91905287D01*
X134483913Y-91873367D01*
X134301835Y-91797949D01*
X134108543Y-91759500D01*
X134108541Y-91759500D01*
X133911459Y-91759500D01*
X133911456Y-91759500D01*
X133718165Y-91797949D01*
X133718163Y-91797949D01*
X133536086Y-91873367D01*
X133496796Y-91899619D01*
X133473537Y-91911076D01*
X133471908Y-91911627D01*
X133471901Y-91911629D01*
X133471901Y-91911630D01*
X132678224Y-92270246D01*
X132389468Y-92400718D01*
X132348704Y-92409500D01*
X131296189Y-92409500D01*
X131237998Y-92390593D01*
X131226185Y-92380504D01*
X130499496Y-91653814D01*
X130471719Y-91599297D01*
X130470500Y-91583810D01*
X130470500Y-91171293D01*
X130479282Y-91130529D01*
X130725296Y-90586058D01*
X130968368Y-90048099D01*
X130968370Y-90048090D01*
X130969672Y-90044492D01*
X130970563Y-90044814D01*
X130980490Y-90023037D01*
X131006632Y-89983914D01*
X131082051Y-89801835D01*
X131120500Y-89608541D01*
X131120500Y-89411459D01*
X131082051Y-89218165D01*
X131006632Y-89036086D01*
X130897139Y-88872218D01*
X130757782Y-88732861D01*
X130593914Y-88623368D01*
X130593915Y-88623368D01*
X130593913Y-88623367D01*
X130411835Y-88547949D01*
X130218543Y-88509500D01*
X130218541Y-88509500D01*
X130021459Y-88509500D01*
X130021456Y-88509500D01*
X129828165Y-88547949D01*
X129828163Y-88547949D01*
X129646086Y-88623367D01*
X129482218Y-88732861D01*
X129482214Y-88732864D01*
X129342864Y-88872214D01*
X129342861Y-88872218D01*
X129233367Y-89036086D01*
X129157949Y-89218163D01*
X129157949Y-89218165D01*
X129119500Y-89411456D01*
X109745500Y-89411456D01*
X109745500Y-88129489D01*
X124740000Y-88129489D01*
X124740000Y-88310510D01*
X124768316Y-88489289D01*
X124824250Y-88661440D01*
X124906430Y-88822728D01*
X124977424Y-88920442D01*
X125446328Y-88451536D01*
X125489901Y-88527007D01*
X125582993Y-88620099D01*
X125658460Y-88663670D01*
X125189556Y-89132574D01*
X125189556Y-89132575D01*
X125287263Y-89203564D01*
X125287269Y-89203568D01*
X125448559Y-89285749D01*
X125620710Y-89341683D01*
X125799490Y-89370000D01*
X125980510Y-89370000D01*
X126159289Y-89341683D01*
X126249294Y-89312440D01*
X126331440Y-89285749D01*
X126492730Y-89203568D01*
X126492735Y-89203564D01*
X126590442Y-89132575D01*
X126590442Y-89132574D01*
X126121538Y-88663670D01*
X126197007Y-88620099D01*
X126290099Y-88527007D01*
X126333670Y-88451538D01*
X126802574Y-88920442D01*
X126802575Y-88920442D01*
X126873564Y-88822735D01*
X126873568Y-88822730D01*
X126955749Y-88661440D01*
X127011683Y-88489289D01*
X127040000Y-88310510D01*
X127040000Y-88129489D01*
X127011683Y-87950710D01*
X126955749Y-87778559D01*
X126873568Y-87617269D01*
X126873564Y-87617263D01*
X126802575Y-87519556D01*
X126802574Y-87519556D01*
X126333670Y-87988460D01*
X126290099Y-87912993D01*
X126197007Y-87819901D01*
X126121536Y-87776328D01*
X126547613Y-87350253D01*
X134249500Y-87350253D01*
X134249500Y-89089746D01*
X134249501Y-89089758D01*
X134261132Y-89148227D01*
X134261134Y-89148233D01*
X134305445Y-89214548D01*
X134305448Y-89214552D01*
X134371769Y-89258867D01*
X134416231Y-89267711D01*
X134430241Y-89270498D01*
X134430246Y-89270498D01*
X134430252Y-89270500D01*
X134430253Y-89270500D01*
X136169747Y-89270500D01*
X136169748Y-89270500D01*
X136228231Y-89258867D01*
X136294552Y-89214552D01*
X136338867Y-89148231D01*
X136350500Y-89089748D01*
X136350500Y-87350252D01*
X136338867Y-87291769D01*
X136294552Y-87225448D01*
X136294548Y-87225445D01*
X136228233Y-87181134D01*
X136228231Y-87181133D01*
X136228228Y-87181132D01*
X136228227Y-87181132D01*
X136169758Y-87169501D01*
X136169748Y-87169500D01*
X134430252Y-87169500D01*
X134430251Y-87169500D01*
X134430241Y-87169501D01*
X134371772Y-87181132D01*
X134371766Y-87181134D01*
X134305451Y-87225445D01*
X134305445Y-87225451D01*
X134261134Y-87291766D01*
X134261132Y-87291772D01*
X134249501Y-87350241D01*
X134249500Y-87350253D01*
X126547613Y-87350253D01*
X126590442Y-87307424D01*
X126492728Y-87236430D01*
X126331440Y-87154250D01*
X126159289Y-87098316D01*
X125980510Y-87070000D01*
X125799490Y-87070000D01*
X125620710Y-87098316D01*
X125448559Y-87154250D01*
X125287269Y-87236431D01*
X125287265Y-87236433D01*
X125189556Y-87307423D01*
X125658461Y-87776328D01*
X125582993Y-87819901D01*
X125489901Y-87912993D01*
X125446328Y-87988461D01*
X124977423Y-87519556D01*
X124906433Y-87617265D01*
X124906431Y-87617269D01*
X124824250Y-87778559D01*
X124768316Y-87950710D01*
X124740000Y-88129489D01*
X109745500Y-88129489D01*
X109745500Y-84948270D01*
X113959500Y-84948270D01*
X113959500Y-85236729D01*
X113997150Y-85522709D01*
X113997150Y-85522714D01*
X114071809Y-85801346D01*
X114182194Y-86067841D01*
X114182196Y-86067846D01*
X114319041Y-86304867D01*
X114326425Y-86317656D01*
X114350976Y-86349651D01*
X114502020Y-86546497D01*
X114502022Y-86546499D01*
X114502026Y-86546504D01*
X114705996Y-86750474D01*
X114706000Y-86750477D01*
X114706002Y-86750479D01*
X114783647Y-86810058D01*
X114934844Y-86926075D01*
X114934846Y-86926076D01*
X115130599Y-87039095D01*
X115184655Y-87070304D01*
X115451155Y-87180691D01*
X115729783Y-87255349D01*
X116015772Y-87293000D01*
X116015773Y-87293000D01*
X116304227Y-87293000D01*
X116304228Y-87293000D01*
X116590217Y-87255349D01*
X116868845Y-87180691D01*
X117135345Y-87070304D01*
X117385156Y-86926075D01*
X117614004Y-86750474D01*
X117817974Y-86546504D01*
X117993575Y-86317656D01*
X118137804Y-86067845D01*
X118248191Y-85801345D01*
X118308429Y-85576532D01*
X124839500Y-85576532D01*
X124839500Y-85783467D01*
X124879869Y-85986418D01*
X124959058Y-86177597D01*
X125052640Y-86317653D01*
X125074023Y-86349655D01*
X125220345Y-86495977D01*
X125392402Y-86610941D01*
X125583580Y-86690130D01*
X125786535Y-86730500D01*
X125786536Y-86730500D01*
X125993464Y-86730500D01*
X125993465Y-86730500D01*
X126196420Y-86690130D01*
X126387598Y-86610941D01*
X126431577Y-86581554D01*
X126454252Y-86570297D01*
X126457097Y-86569313D01*
X126457110Y-86569310D01*
X127609827Y-86039545D01*
X127651168Y-86030500D01*
X128941142Y-86030500D01*
X128941144Y-86030500D01*
X129030288Y-86006614D01*
X129038588Y-86001822D01*
X129042737Y-85999427D01*
X129065265Y-85986420D01*
X129110212Y-85960470D01*
X129494150Y-85576532D01*
X134249500Y-85576532D01*
X134249500Y-85783467D01*
X134289869Y-85986418D01*
X134369058Y-86177597D01*
X134462640Y-86317653D01*
X134484023Y-86349655D01*
X134630345Y-86495977D01*
X134802402Y-86610941D01*
X134993580Y-86690130D01*
X135196535Y-86730500D01*
X135196536Y-86730500D01*
X135403464Y-86730500D01*
X135403465Y-86730500D01*
X135606420Y-86690130D01*
X135797598Y-86610941D01*
X135969655Y-86495977D01*
X136115977Y-86349655D01*
X136230941Y-86177598D01*
X136310130Y-85986420D01*
X136350500Y-85783465D01*
X136350500Y-85634108D01*
X141049500Y-85634108D01*
X141049500Y-85765892D01*
X141066147Y-85828021D01*
X141083609Y-85893190D01*
X141149496Y-86007309D01*
X141149498Y-86007311D01*
X141149500Y-86007314D01*
X141242686Y-86100500D01*
X141242688Y-86100501D01*
X141242690Y-86100503D01*
X141356810Y-86166390D01*
X141356808Y-86166390D01*
X141356812Y-86166391D01*
X141356814Y-86166392D01*
X141484108Y-86200500D01*
X141484110Y-86200500D01*
X141615890Y-86200500D01*
X141615892Y-86200500D01*
X141743186Y-86166392D01*
X141755899Y-86159051D01*
X141815747Y-86146330D01*
X141871643Y-86171215D01*
X141902236Y-86224203D01*
X141904400Y-86244788D01*
X141904400Y-86810064D01*
X141915013Y-86898443D01*
X141970480Y-87039095D01*
X142061835Y-87159564D01*
X142182304Y-87250919D01*
X142322956Y-87306386D01*
X142411335Y-87316999D01*
X142411342Y-87317000D01*
X143198096Y-87317000D01*
X143616533Y-87317000D01*
X144792267Y-87317000D01*
X144204400Y-86729133D01*
X143616533Y-87317000D01*
X143198096Y-87317000D01*
X143209831Y-87299436D01*
X143285500Y-87223767D01*
X143992267Y-86516999D01*
X144416532Y-86516999D01*
X145198968Y-87299436D01*
X145210704Y-87317000D01*
X145997458Y-87317000D01*
X145997464Y-87316999D01*
X146085843Y-87306386D01*
X146226495Y-87250919D01*
X146346964Y-87159564D01*
X146438319Y-87039095D01*
X146493786Y-86898443D01*
X146504399Y-86810064D01*
X146504400Y-86810058D01*
X146504400Y-86223941D01*
X146504399Y-86223935D01*
X146493786Y-86135556D01*
X146438319Y-85994904D01*
X146346964Y-85874435D01*
X146226495Y-85783080D01*
X146085843Y-85727613D01*
X145997464Y-85717000D01*
X145210703Y-85717000D01*
X145198968Y-85734562D01*
X144416532Y-86516999D01*
X143992267Y-86516999D01*
X143209830Y-85734562D01*
X143198096Y-85717000D01*
X143616533Y-85717000D01*
X144204400Y-86304867D01*
X144792267Y-85717000D01*
X143616533Y-85717000D01*
X143198096Y-85717000D01*
X142644937Y-85717000D01*
X142586746Y-85698093D01*
X142550782Y-85648593D01*
X142550782Y-85587407D01*
X142586746Y-85537907D01*
X142627629Y-85520524D01*
X144312610Y-85221358D01*
X144312621Y-85221353D01*
X144313343Y-85221153D01*
X144315189Y-85220899D01*
X144317329Y-85220520D01*
X144317344Y-85220604D01*
X144339989Y-85217500D01*
X146008673Y-85217500D01*
X146008673Y-85217499D01*
X146039099Y-85214646D01*
X146167282Y-85169793D01*
X146276550Y-85089150D01*
X146357193Y-84979882D01*
X146402046Y-84851699D01*
X146404899Y-84821273D01*
X146404900Y-84821273D01*
X146404900Y-84212727D01*
X146404899Y-84212725D01*
X146402815Y-84190500D01*
X146402046Y-84182301D01*
X146357193Y-84054118D01*
X146356054Y-84052575D01*
X146276554Y-83944855D01*
X146276552Y-83944853D01*
X146276550Y-83944850D01*
X146276546Y-83944847D01*
X146276544Y-83944845D01*
X146167283Y-83864207D01*
X146039103Y-83819355D01*
X146039094Y-83819353D01*
X146008674Y-83816500D01*
X146008666Y-83816500D01*
X142400134Y-83816500D01*
X142400125Y-83816500D01*
X142369705Y-83819353D01*
X142369696Y-83819355D01*
X142241516Y-83864207D01*
X142132255Y-83944845D01*
X142132245Y-83944855D01*
X142051607Y-84054116D01*
X142006755Y-84182296D01*
X142006753Y-84182305D01*
X142003900Y-84212725D01*
X142003900Y-84582160D01*
X141985399Y-84639787D01*
X141721453Y-85008495D01*
X141690351Y-85036664D01*
X141291577Y-85266258D01*
X141285750Y-85269743D01*
X141285143Y-85270119D01*
X141285124Y-85270134D01*
X141281245Y-85273872D01*
X141262064Y-85288310D01*
X141242684Y-85299500D01*
X141149500Y-85392685D01*
X141149496Y-85392690D01*
X141083609Y-85506809D01*
X141073095Y-85546048D01*
X141049500Y-85634108D01*
X136350500Y-85634108D01*
X136350500Y-85576535D01*
X136310130Y-85373580D01*
X136230941Y-85182402D01*
X136115977Y-85010345D01*
X135969655Y-84864023D01*
X135951211Y-84851699D01*
X135797597Y-84749058D01*
X135606418Y-84669869D01*
X135403467Y-84629500D01*
X135403465Y-84629500D01*
X135196535Y-84629500D01*
X135196532Y-84629500D01*
X134993581Y-84669869D01*
X134802402Y-84749058D01*
X134630348Y-84864020D01*
X134484020Y-85010348D01*
X134369058Y-85182402D01*
X134289869Y-85373581D01*
X134249500Y-85576532D01*
X129494150Y-85576532D01*
X130400470Y-84670212D01*
X130446614Y-84590288D01*
X130455943Y-84555470D01*
X130470500Y-84501144D01*
X130470500Y-83589121D01*
X130486918Y-83534521D01*
X130620161Y-83332993D01*
X130807604Y-83049489D01*
X134150000Y-83049489D01*
X134150000Y-83230510D01*
X134178316Y-83409289D01*
X134234250Y-83581440D01*
X134316430Y-83742728D01*
X134387424Y-83840442D01*
X134856328Y-83371536D01*
X134899901Y-83447007D01*
X134992993Y-83540099D01*
X135068460Y-83583670D01*
X134599556Y-84052574D01*
X134599556Y-84052575D01*
X134697263Y-84123564D01*
X134697269Y-84123568D01*
X134858559Y-84205749D01*
X135030710Y-84261683D01*
X135209490Y-84290000D01*
X135390510Y-84290000D01*
X135569289Y-84261683D01*
X135741440Y-84205749D01*
X135902730Y-84123568D01*
X135902735Y-84123564D01*
X136000442Y-84052575D01*
X136000442Y-84052574D01*
X135531538Y-83583670D01*
X135607007Y-83540099D01*
X135700099Y-83447007D01*
X135743670Y-83371538D01*
X136212574Y-83840442D01*
X136212575Y-83840442D01*
X136283564Y-83742735D01*
X136283568Y-83742730D01*
X136365749Y-83581440D01*
X136421683Y-83409289D01*
X136450000Y-83230510D01*
X136450000Y-83049489D01*
X136421683Y-82870710D01*
X136365749Y-82698559D01*
X136283568Y-82537269D01*
X136283564Y-82537263D01*
X136212575Y-82439556D01*
X136212574Y-82439556D01*
X135743670Y-82908460D01*
X135700099Y-82832993D01*
X135607007Y-82739901D01*
X135531536Y-82696328D01*
X136000442Y-82227424D01*
X135902728Y-82156430D01*
X135741440Y-82074250D01*
X135569289Y-82018316D01*
X135390510Y-81990000D01*
X135209490Y-81990000D01*
X135030710Y-82018316D01*
X134858559Y-82074250D01*
X134697269Y-82156431D01*
X134697265Y-82156433D01*
X134599556Y-82227423D01*
X135068461Y-82696328D01*
X134992993Y-82739901D01*
X134899901Y-82832993D01*
X134856328Y-82908461D01*
X134387423Y-82439556D01*
X134316433Y-82537265D01*
X134316431Y-82537269D01*
X134234250Y-82698559D01*
X134178316Y-82870710D01*
X134150000Y-83049489D01*
X130807604Y-83049489D01*
X131044324Y-82691455D01*
X131072793Y-82652882D01*
X131088467Y-82608087D01*
X131094528Y-82594320D01*
X131096417Y-82586771D01*
X131096417Y-82586764D01*
X131096550Y-82586236D01*
X131099148Y-82577559D01*
X131117645Y-82524702D01*
X131117645Y-82524701D01*
X131117646Y-82524699D01*
X131120499Y-82494273D01*
X131120500Y-82494273D01*
X131120500Y-81285727D01*
X131120499Y-81285725D01*
X131117646Y-81255301D01*
X131072793Y-81127118D01*
X131071966Y-81125998D01*
X130992154Y-81017855D01*
X130992152Y-81017853D01*
X130992150Y-81017850D01*
X130992146Y-81017847D01*
X130992144Y-81017845D01*
X130882883Y-80937207D01*
X130754703Y-80892355D01*
X130754694Y-80892353D01*
X130724274Y-80889500D01*
X130724266Y-80889500D01*
X129515734Y-80889500D01*
X129515725Y-80889500D01*
X129485305Y-80892353D01*
X129485296Y-80892355D01*
X129357116Y-80937207D01*
X129247855Y-81017845D01*
X129247845Y-81017855D01*
X129167207Y-81127116D01*
X129122355Y-81255296D01*
X129122353Y-81255305D01*
X129119500Y-81285725D01*
X129119500Y-82494274D01*
X129122353Y-82524694D01*
X129122355Y-82524703D01*
X129144074Y-82586771D01*
X129167207Y-82652882D01*
X129178914Y-82668745D01*
X129194155Y-82689396D01*
X129197079Y-82693579D01*
X129753082Y-83534521D01*
X129769500Y-83589121D01*
X129769500Y-84268810D01*
X129750593Y-84327001D01*
X129740504Y-84338814D01*
X128778814Y-85300504D01*
X128724297Y-85328281D01*
X128708810Y-85329500D01*
X127651170Y-85329500D01*
X127609829Y-85320455D01*
X126457114Y-84790691D01*
X126457111Y-84790690D01*
X126457107Y-84790688D01*
X126457102Y-84790686D01*
X126453469Y-84789350D01*
X126453726Y-84788650D01*
X126431596Y-84778457D01*
X126387597Y-84749058D01*
X126196418Y-84669869D01*
X125993467Y-84629500D01*
X125993465Y-84629500D01*
X125786535Y-84629500D01*
X125786532Y-84629500D01*
X125583581Y-84669869D01*
X125392402Y-84749058D01*
X125220348Y-84864020D01*
X125074020Y-85010348D01*
X124959058Y-85182402D01*
X124879869Y-85373581D01*
X124839500Y-85576532D01*
X118308429Y-85576532D01*
X118322849Y-85522717D01*
X118360500Y-85236728D01*
X118360500Y-84948272D01*
X118322849Y-84662283D01*
X118248191Y-84383655D01*
X118137804Y-84117155D01*
X118101409Y-84054118D01*
X117993576Y-83867346D01*
X117993575Y-83867344D01*
X117817974Y-83638496D01*
X117614004Y-83434526D01*
X117613999Y-83434522D01*
X117613997Y-83434520D01*
X117385153Y-83258923D01*
X117135346Y-83114696D01*
X117135341Y-83114694D01*
X116868846Y-83004309D01*
X116745988Y-82971389D01*
X116590217Y-82929651D01*
X116590214Y-82929650D01*
X116590212Y-82929650D01*
X116304229Y-82892000D01*
X116304228Y-82892000D01*
X116015772Y-82892000D01*
X116015770Y-82892000D01*
X115729790Y-82929650D01*
X115729785Y-82929650D01*
X115451153Y-83004309D01*
X115184658Y-83114694D01*
X115184653Y-83114696D01*
X114934846Y-83258923D01*
X114706002Y-83434520D01*
X114502020Y-83638502D01*
X114326423Y-83867346D01*
X114182196Y-84117153D01*
X114182194Y-84117158D01*
X114071809Y-84383653D01*
X113997150Y-84662285D01*
X113997150Y-84662290D01*
X113959500Y-84948270D01*
X109745500Y-84948270D01*
X109745500Y-82270253D01*
X124839500Y-82270253D01*
X124839500Y-84009746D01*
X124839501Y-84009758D01*
X124851132Y-84068227D01*
X124851134Y-84068233D01*
X124891328Y-84128386D01*
X124895448Y-84134552D01*
X124961769Y-84178867D01*
X125006231Y-84187711D01*
X125020241Y-84190498D01*
X125020246Y-84190498D01*
X125020252Y-84190500D01*
X125020253Y-84190500D01*
X126759747Y-84190500D01*
X126759748Y-84190500D01*
X126818231Y-84178867D01*
X126884552Y-84134552D01*
X126928867Y-84068231D01*
X126940500Y-84009748D01*
X126940500Y-82270252D01*
X126928867Y-82211769D01*
X126884552Y-82145448D01*
X126884548Y-82145445D01*
X126818233Y-82101134D01*
X126818231Y-82101133D01*
X126818228Y-82101132D01*
X126818227Y-82101132D01*
X126759758Y-82089501D01*
X126759748Y-82089500D01*
X125020252Y-82089500D01*
X125020251Y-82089500D01*
X125020241Y-82089501D01*
X124961772Y-82101132D01*
X124961766Y-82101134D01*
X124895451Y-82145445D01*
X124895445Y-82145451D01*
X124851134Y-82211766D01*
X124851132Y-82211772D01*
X124839501Y-82270241D01*
X124839500Y-82270253D01*
X109745500Y-82270253D01*
X109745500Y-79584108D01*
X139999500Y-79584108D01*
X139999500Y-79715892D01*
X140009079Y-79751644D01*
X140009757Y-79761805D01*
X140009760Y-79761844D01*
X140010571Y-79773988D01*
X140028580Y-79840874D01*
X140146096Y-80277346D01*
X140149500Y-80303078D01*
X140149500Y-80483797D01*
X140169935Y-80560065D01*
X140173385Y-80572940D01*
X140173387Y-80572945D01*
X140219528Y-80652863D01*
X140219530Y-80652866D01*
X140918164Y-81351500D01*
X141598969Y-82032305D01*
X141615591Y-82054383D01*
X141617906Y-82058567D01*
X141747390Y-82211772D01*
X141980512Y-82487599D01*
X142003634Y-82544247D01*
X142003900Y-82551504D01*
X142003900Y-82821274D01*
X142006753Y-82851694D01*
X142006755Y-82851703D01*
X142051607Y-82979883D01*
X142132245Y-83089144D01*
X142132247Y-83089146D01*
X142132250Y-83089150D01*
X142132253Y-83089152D01*
X142132255Y-83089154D01*
X142241516Y-83169792D01*
X142241517Y-83169792D01*
X142241518Y-83169793D01*
X142369701Y-83214646D01*
X142400125Y-83217499D01*
X142400127Y-83217500D01*
X142400134Y-83217500D01*
X146008673Y-83217500D01*
X146008673Y-83217499D01*
X146039099Y-83214646D01*
X146167282Y-83169793D01*
X146276550Y-83089150D01*
X146357193Y-82979882D01*
X146402046Y-82851699D01*
X146404899Y-82821273D01*
X146404900Y-82821273D01*
X146404900Y-82212727D01*
X146404899Y-82212725D01*
X146404810Y-82211772D01*
X146402046Y-82182301D01*
X146357193Y-82054118D01*
X146341094Y-82032305D01*
X146276554Y-81944855D01*
X146276552Y-81944853D01*
X146276550Y-81944850D01*
X146276546Y-81944847D01*
X146276544Y-81944845D01*
X146167283Y-81864207D01*
X146039103Y-81819355D01*
X146039094Y-81819353D01*
X146008674Y-81816500D01*
X146008666Y-81816500D01*
X144323041Y-81816500D01*
X144306362Y-81815085D01*
X144298449Y-81813732D01*
X144292770Y-81811780D01*
X144266639Y-81808236D01*
X144266633Y-81808235D01*
X144264966Y-81808008D01*
X144264937Y-81808004D01*
X142101253Y-81514622D01*
X142046130Y-81488068D01*
X142044551Y-81486523D01*
X141698166Y-81140137D01*
X141670389Y-81085621D01*
X141679960Y-81025189D01*
X141723225Y-80981924D01*
X141742426Y-80974539D01*
X141780676Y-80964241D01*
X141841781Y-80967370D01*
X141851096Y-80971494D01*
X142230577Y-81163440D01*
X142230578Y-81163441D01*
X142237997Y-81167193D01*
X142241518Y-81169793D01*
X142246763Y-81171628D01*
X142262025Y-81179348D01*
X142303626Y-81191649D01*
X142308174Y-81193116D01*
X142369701Y-81214646D01*
X142400125Y-81217499D01*
X142400127Y-81217500D01*
X142400134Y-81217500D01*
X146008673Y-81217500D01*
X146008673Y-81217499D01*
X146039099Y-81214646D01*
X146167282Y-81169793D01*
X146276550Y-81089150D01*
X146357193Y-80979882D01*
X146402046Y-80851699D01*
X146404899Y-80821273D01*
X146404900Y-80821273D01*
X146404900Y-80212727D01*
X146404899Y-80212725D01*
X146402046Y-80182301D01*
X146357193Y-80054118D01*
X146354603Y-80050609D01*
X146276554Y-79944855D01*
X146276552Y-79944853D01*
X146276550Y-79944850D01*
X146276546Y-79944847D01*
X146276544Y-79944845D01*
X146167283Y-79864207D01*
X146039103Y-79819355D01*
X146039094Y-79819353D01*
X146008674Y-79816500D01*
X146008666Y-79816500D01*
X142400134Y-79816500D01*
X142400125Y-79816500D01*
X142369703Y-79819353D01*
X142308196Y-79840873D01*
X142308197Y-79840874D01*
X142305896Y-79841679D01*
X142262026Y-79854650D01*
X142246753Y-79862374D01*
X142245903Y-79862671D01*
X142241518Y-79864206D01*
X142237096Y-79866543D01*
X142230595Y-79870547D01*
X141851097Y-80062503D01*
X141846987Y-80063141D01*
X141843811Y-80065825D01*
X141820282Y-80067290D01*
X141790637Y-80071896D01*
X141782789Y-80070301D01*
X141781686Y-80070030D01*
X141623991Y-80027572D01*
X141617662Y-80025975D01*
X141616940Y-80025805D01*
X141600416Y-80025489D01*
X141589705Y-80022858D01*
X141589223Y-80022559D01*
X141587707Y-80022345D01*
X141565892Y-80016500D01*
X141434108Y-80016500D01*
X141356200Y-80037375D01*
X141306809Y-80050609D01*
X141192690Y-80116496D01*
X141099496Y-80209690D01*
X141051174Y-80293387D01*
X141005705Y-80334328D01*
X140944854Y-80340724D01*
X140891866Y-80310131D01*
X140866980Y-80254235D01*
X140869842Y-80218149D01*
X140906673Y-80081352D01*
X140989428Y-79773990D01*
X140991024Y-79767662D01*
X140991194Y-79766940D01*
X140991298Y-79761449D01*
X140994652Y-79737713D01*
X141000500Y-79715892D01*
X141000500Y-79584108D01*
X140966392Y-79456814D01*
X140966390Y-79456811D01*
X140966390Y-79456809D01*
X140900503Y-79342690D01*
X140900501Y-79342688D01*
X140900500Y-79342686D01*
X140807314Y-79249500D01*
X140807311Y-79249498D01*
X140807309Y-79249496D01*
X140693189Y-79183609D01*
X140693191Y-79183609D01*
X140641623Y-79169792D01*
X140565892Y-79149500D01*
X140434108Y-79149500D01*
X140358377Y-79169792D01*
X140306809Y-79183609D01*
X140192690Y-79249496D01*
X140099496Y-79342690D01*
X140033609Y-79456809D01*
X140033608Y-79456814D01*
X139999500Y-79584108D01*
X109745500Y-79584108D01*
X109745500Y-78212725D01*
X142003900Y-78212725D01*
X142003900Y-78821274D01*
X142006753Y-78851694D01*
X142006755Y-78851703D01*
X142051607Y-78979883D01*
X142132245Y-79089144D01*
X142132247Y-79089146D01*
X142132250Y-79089150D01*
X142132253Y-79089152D01*
X142132255Y-79089154D01*
X142241516Y-79169792D01*
X142241517Y-79169792D01*
X142241518Y-79169793D01*
X142369701Y-79214646D01*
X142400125Y-79217499D01*
X142400127Y-79217500D01*
X142400134Y-79217500D01*
X146008673Y-79217500D01*
X146008673Y-79217499D01*
X146039099Y-79214646D01*
X146167282Y-79169793D01*
X146181360Y-79159401D01*
X146189254Y-79154141D01*
X146478958Y-78980594D01*
X146538592Y-78966910D01*
X146594881Y-78990892D01*
X146599836Y-78995518D01*
X147820362Y-80216044D01*
X147836154Y-80236651D01*
X147874399Y-80303078D01*
X148084495Y-80667991D01*
X148096258Y-80688421D01*
X148099723Y-80694216D01*
X148100122Y-80694859D01*
X148100123Y-80694860D01*
X148100125Y-80694863D01*
X148103864Y-80698743D01*
X148118313Y-80717938D01*
X148129500Y-80737314D01*
X148222686Y-80830500D01*
X148246356Y-80844166D01*
X148262035Y-80855387D01*
X148271597Y-80863752D01*
X148723351Y-81123846D01*
X148743953Y-81139635D01*
X151995504Y-84391186D01*
X152023281Y-84445703D01*
X152024500Y-84461190D01*
X152024500Y-99946918D01*
X152021096Y-99972656D01*
X151994708Y-100070665D01*
X151889602Y-100461043D01*
X151885575Y-100475998D01*
X151883970Y-100482356D01*
X151883804Y-100483060D01*
X151883700Y-100488558D01*
X151880345Y-100512291D01*
X151874500Y-100534104D01*
X151874500Y-100534107D01*
X151874500Y-100534108D01*
X151874500Y-100665892D01*
X151885464Y-100706809D01*
X151908609Y-100793190D01*
X151974496Y-100907309D01*
X151974498Y-100907311D01*
X151974500Y-100907314D01*
X152067686Y-101000500D01*
X152067688Y-101000501D01*
X152067690Y-101000503D01*
X152181810Y-101066390D01*
X152181808Y-101066390D01*
X152181812Y-101066391D01*
X152181814Y-101066392D01*
X152309108Y-101100500D01*
X152309110Y-101100500D01*
X152425500Y-101100500D01*
X152483691Y-101119407D01*
X152519655Y-101168907D01*
X152524500Y-101199500D01*
X152524500Y-101265892D01*
X152554579Y-101378151D01*
X152558609Y-101393190D01*
X152624496Y-101507309D01*
X152624498Y-101507311D01*
X152624500Y-101507314D01*
X152717686Y-101600500D01*
X152717688Y-101600501D01*
X152717690Y-101600503D01*
X152831810Y-101666390D01*
X152831808Y-101666390D01*
X152831812Y-101666391D01*
X152831814Y-101666392D01*
X152959108Y-101700500D01*
X152959110Y-101700500D01*
X153090890Y-101700500D01*
X153090892Y-101700500D01*
X153218186Y-101666392D01*
X153218188Y-101666390D01*
X153218190Y-101666390D01*
X153332309Y-101600503D01*
X153332309Y-101600502D01*
X153332314Y-101600500D01*
X153425500Y-101507314D01*
X153455321Y-101455663D01*
X153491390Y-101393190D01*
X153491390Y-101393188D01*
X153491392Y-101393186D01*
X153525500Y-101265892D01*
X153525500Y-101199500D01*
X153544407Y-101141309D01*
X153593907Y-101105345D01*
X153624500Y-101100500D01*
X153740890Y-101100500D01*
X153740892Y-101100500D01*
X153868186Y-101066392D01*
X153868188Y-101066390D01*
X153868190Y-101066390D01*
X153982309Y-101000503D01*
X153982309Y-101000502D01*
X153982314Y-101000500D01*
X154075500Y-100907314D01*
X154078541Y-100902047D01*
X154141390Y-100793190D01*
X154141390Y-100793188D01*
X154141392Y-100793186D01*
X154175500Y-100665892D01*
X154175500Y-100534108D01*
X154168425Y-100507706D01*
X154165272Y-100488675D01*
X154165264Y-100488558D01*
X154164427Y-100476008D01*
X154028903Y-99972656D01*
X154025500Y-99946920D01*
X154025500Y-97614868D01*
X155249500Y-97614868D01*
X155249500Y-97746652D01*
X155254974Y-97767083D01*
X155255361Y-97778401D01*
X155254912Y-97779960D01*
X155255395Y-97783967D01*
X155255347Y-97786116D01*
X155255348Y-97786124D01*
X155345907Y-98300931D01*
X155346409Y-98302891D01*
X155349500Y-98327435D01*
X155349500Y-100997273D01*
X155349500Y-101102727D01*
X155359838Y-101141309D01*
X155376794Y-101204592D01*
X155429516Y-101295908D01*
X155429520Y-101295913D01*
X155779517Y-101645911D01*
X155779518Y-101645911D01*
X155779520Y-101645913D01*
X155779519Y-101645913D01*
X155833107Y-101699500D01*
X155854087Y-101720480D01*
X155899750Y-101746843D01*
X155945412Y-101773207D01*
X156047273Y-101800501D01*
X156047275Y-101800501D01*
X156158790Y-101800501D01*
X156158806Y-101800500D01*
X156553404Y-101800500D01*
X156575008Y-101803458D01*
X156575045Y-101803250D01*
X156579831Y-101804091D01*
X156579834Y-101804093D01*
X157094636Y-101894651D01*
X157097452Y-101894606D01*
X157124658Y-101897968D01*
X157134106Y-101900500D01*
X157134108Y-101900500D01*
X157265890Y-101900500D01*
X157265892Y-101900500D01*
X157393186Y-101866392D01*
X157393188Y-101866390D01*
X157393190Y-101866390D01*
X157507309Y-101800503D01*
X157507309Y-101800502D01*
X157507314Y-101800500D01*
X157600500Y-101707314D01*
X157604434Y-101700500D01*
X157666390Y-101593190D01*
X157666390Y-101593188D01*
X157666392Y-101593186D01*
X157700500Y-101465892D01*
X157700500Y-101334108D01*
X157666392Y-101206814D01*
X157666390Y-101206811D01*
X157666390Y-101206809D01*
X157600503Y-101092690D01*
X157600501Y-101092688D01*
X157600500Y-101092686D01*
X157507314Y-100999500D01*
X157507311Y-100999498D01*
X157507309Y-100999496D01*
X157393189Y-100933609D01*
X157393191Y-100933609D01*
X157343799Y-100920375D01*
X157265892Y-100899500D01*
X157134108Y-100899500D01*
X157134103Y-100899500D01*
X157124598Y-100902047D01*
X157096792Y-100905395D01*
X157094642Y-100905347D01*
X157094634Y-100905348D01*
X156579825Y-100995907D01*
X156577866Y-100996409D01*
X156553322Y-100999500D01*
X156306899Y-100999500D01*
X156299301Y-100997031D01*
X156291411Y-100998281D01*
X156270757Y-100987757D01*
X156248708Y-100980593D01*
X156236895Y-100970503D01*
X156179496Y-100913103D01*
X156151719Y-100858586D01*
X156150500Y-100843100D01*
X156150500Y-98712856D01*
X179664000Y-98712856D01*
X179664000Y-98909943D01*
X179702449Y-99103234D01*
X179702449Y-99103236D01*
X179777867Y-99285313D01*
X179777868Y-99285314D01*
X179887361Y-99449182D01*
X180026718Y-99588539D01*
X180190586Y-99698032D01*
X180372665Y-99773451D01*
X180565959Y-99811900D01*
X180565960Y-99811900D01*
X180763040Y-99811900D01*
X180763041Y-99811900D01*
X180956335Y-99773451D01*
X181138414Y-99698032D01*
X181302282Y-99588539D01*
X181441639Y-99449182D01*
X181551132Y-99285314D01*
X181573036Y-99232433D01*
X181612772Y-99185907D01*
X181672267Y-99171623D01*
X181728795Y-99195037D01*
X181755964Y-99232433D01*
X181777867Y-99285313D01*
X181777868Y-99285314D01*
X181887361Y-99449182D01*
X182026718Y-99588539D01*
X182190586Y-99698032D01*
X182372665Y-99773451D01*
X182565959Y-99811900D01*
X182565960Y-99811900D01*
X182763040Y-99811900D01*
X182763041Y-99811900D01*
X182956335Y-99773451D01*
X183138414Y-99698032D01*
X183302282Y-99588539D01*
X183441639Y-99449182D01*
X183551132Y-99285314D01*
X183626551Y-99103235D01*
X183665000Y-98909941D01*
X183665000Y-98712859D01*
X183626551Y-98519565D01*
X183551132Y-98337486D01*
X183441639Y-98173618D01*
X183302282Y-98034261D01*
X183138414Y-97924768D01*
X183138415Y-97924768D01*
X183138413Y-97924767D01*
X182956335Y-97849349D01*
X182763043Y-97810900D01*
X182763041Y-97810900D01*
X182565959Y-97810900D01*
X182565956Y-97810900D01*
X182372665Y-97849349D01*
X182372663Y-97849349D01*
X182190586Y-97924767D01*
X182026718Y-98034261D01*
X182026714Y-98034264D01*
X181887364Y-98173614D01*
X181887361Y-98173618D01*
X181777868Y-98337485D01*
X181755964Y-98390367D01*
X181716227Y-98436892D01*
X181656733Y-98451176D01*
X181600205Y-98427761D01*
X181573036Y-98390367D01*
X181564448Y-98369635D01*
X181551132Y-98337486D01*
X181441639Y-98173618D01*
X181302282Y-98034261D01*
X181138414Y-97924768D01*
X181138415Y-97924768D01*
X181138413Y-97924767D01*
X180956335Y-97849349D01*
X180763043Y-97810900D01*
X180763041Y-97810900D01*
X180565959Y-97810900D01*
X180565956Y-97810900D01*
X180372665Y-97849349D01*
X180372663Y-97849349D01*
X180190586Y-97924767D01*
X180026718Y-98034261D01*
X180026714Y-98034264D01*
X179887364Y-98173614D01*
X179887361Y-98173618D01*
X179777867Y-98337486D01*
X179702449Y-98519563D01*
X179702449Y-98519565D01*
X179664000Y-98712856D01*
X156150500Y-98712856D01*
X156150500Y-98327362D01*
X156153460Y-98305752D01*
X156153252Y-98305716D01*
X156166521Y-98230282D01*
X156224523Y-97900546D01*
X156240953Y-97860882D01*
X156474260Y-97527975D01*
X156474266Y-97527960D01*
X156475287Y-97526240D01*
X156490463Y-97506689D01*
X157167658Y-96829496D01*
X157222174Y-96801719D01*
X157237661Y-96800500D01*
X170353404Y-96800500D01*
X170375008Y-96803458D01*
X170375045Y-96803250D01*
X170379831Y-96804091D01*
X170379834Y-96804093D01*
X170894636Y-96894651D01*
X170897452Y-96894606D01*
X170924658Y-96897968D01*
X170934106Y-96900500D01*
X170934108Y-96900500D01*
X171065890Y-96900500D01*
X171065892Y-96900500D01*
X171193186Y-96866392D01*
X171193188Y-96866390D01*
X171193190Y-96866390D01*
X171307309Y-96800503D01*
X171307309Y-96800502D01*
X171307314Y-96800500D01*
X171400500Y-96707314D01*
X171401335Y-96705868D01*
X171466390Y-96593190D01*
X171466390Y-96593188D01*
X171466392Y-96593186D01*
X171500500Y-96465892D01*
X171500500Y-96334108D01*
X171466392Y-96206814D01*
X171466390Y-96206811D01*
X171466390Y-96206809D01*
X171400503Y-96092690D01*
X171400501Y-96092688D01*
X171400500Y-96092686D01*
X171307314Y-95999500D01*
X171307311Y-95999498D01*
X171307309Y-95999496D01*
X171193189Y-95933609D01*
X171193191Y-95933609D01*
X171126221Y-95915665D01*
X171065892Y-95899500D01*
X170934108Y-95899500D01*
X170934103Y-95899500D01*
X170924598Y-95902047D01*
X170896792Y-95905395D01*
X170894642Y-95905347D01*
X170894634Y-95905348D01*
X170379825Y-95995907D01*
X170377866Y-95996409D01*
X170353322Y-95999500D01*
X157083487Y-95999500D01*
X156978033Y-95999500D01*
X156915689Y-96016204D01*
X156876167Y-96026794D01*
X156784851Y-96079516D01*
X156784846Y-96079520D01*
X155924013Y-96940351D01*
X155906646Y-96953535D01*
X155906768Y-96953708D01*
X155902788Y-96956496D01*
X155902786Y-96956498D01*
X155739339Y-97071044D01*
X155474728Y-97256486D01*
X155474727Y-97256487D01*
X155472752Y-97258526D01*
X155451157Y-97275369D01*
X155442687Y-97280259D01*
X155349496Y-97373450D01*
X155283609Y-97487569D01*
X155272782Y-97527976D01*
X155249500Y-97614868D01*
X154025500Y-97614868D01*
X154025500Y-95491653D01*
X179664000Y-95491653D01*
X179664000Y-97131146D01*
X179664001Y-97131158D01*
X179675632Y-97189627D01*
X179675634Y-97189633D01*
X179717444Y-97252205D01*
X179719948Y-97255952D01*
X179786269Y-97300267D01*
X179830731Y-97309111D01*
X179844741Y-97311898D01*
X179844746Y-97311898D01*
X179844752Y-97311900D01*
X179844753Y-97311900D01*
X181484247Y-97311900D01*
X181484248Y-97311900D01*
X181542731Y-97300267D01*
X181609052Y-97255952D01*
X181653367Y-97189631D01*
X181665000Y-97131148D01*
X181665000Y-97072259D01*
X181665030Y-97071044D01*
X181674811Y-97043288D01*
X181683907Y-97015295D01*
X181684941Y-97014543D01*
X181685367Y-97013337D01*
X181709593Y-96996632D01*
X181733407Y-96979331D01*
X181734951Y-96979148D01*
X181735739Y-96978605D01*
X181738885Y-96978682D01*
X181771769Y-96974791D01*
X181787719Y-96976046D01*
X182239128Y-96524636D01*
X182284405Y-96603057D01*
X182372843Y-96691495D01*
X182451261Y-96736769D01*
X181999852Y-97188178D01*
X182087977Y-97252205D01*
X182242251Y-97330811D01*
X182406920Y-97384315D01*
X182577925Y-97411400D01*
X182751075Y-97411400D01*
X182922079Y-97384315D01*
X183086748Y-97330811D01*
X183241024Y-97252204D01*
X183241030Y-97252200D01*
X183329146Y-97188179D01*
X183329146Y-97188178D01*
X182877737Y-96736770D01*
X182956157Y-96691495D01*
X183044595Y-96603057D01*
X183089870Y-96524637D01*
X183541278Y-96976046D01*
X183541279Y-96976046D01*
X183605300Y-96887930D01*
X183605304Y-96887924D01*
X183683911Y-96733648D01*
X183737415Y-96568979D01*
X183764500Y-96397975D01*
X183764500Y-96224824D01*
X183737415Y-96053820D01*
X183683911Y-95889151D01*
X183605305Y-95734877D01*
X183541278Y-95646752D01*
X183089869Y-96098161D01*
X183044595Y-96019743D01*
X182956157Y-95931305D01*
X182877736Y-95886028D01*
X183329146Y-95434619D01*
X183241028Y-95370597D01*
X183241024Y-95370595D01*
X183086748Y-95291988D01*
X182922079Y-95238484D01*
X182751075Y-95211400D01*
X182577925Y-95211400D01*
X182406920Y-95238484D01*
X182242251Y-95291988D01*
X182087976Y-95370595D01*
X181999852Y-95434619D01*
X182451262Y-95886029D01*
X182372843Y-95931305D01*
X182284405Y-96019743D01*
X182239129Y-96098162D01*
X181787718Y-95646751D01*
X181771767Y-95648007D01*
X181754003Y-95643742D01*
X181735739Y-95644193D01*
X181724978Y-95636773D01*
X181712272Y-95633723D01*
X181700408Y-95619832D01*
X181685367Y-95609461D01*
X181681304Y-95597464D01*
X181672536Y-95587197D01*
X181665030Y-95551754D01*
X181665000Y-95550538D01*
X181665000Y-95491652D01*
X181663341Y-95483312D01*
X181663341Y-95483307D01*
X181653655Y-95434619D01*
X181653367Y-95433169D01*
X181609052Y-95366848D01*
X181609048Y-95366845D01*
X181542733Y-95322534D01*
X181542731Y-95322533D01*
X181542728Y-95322532D01*
X181542727Y-95322532D01*
X181484258Y-95310901D01*
X181484248Y-95310900D01*
X179844752Y-95310900D01*
X179844751Y-95310900D01*
X179844741Y-95310901D01*
X179786272Y-95322532D01*
X179786266Y-95322534D01*
X179719951Y-95366845D01*
X179719945Y-95366851D01*
X179675634Y-95433166D01*
X179675632Y-95433172D01*
X179664001Y-95491641D01*
X179664000Y-95491653D01*
X154025500Y-95491653D01*
X154025500Y-91417170D01*
X183324000Y-91417170D01*
X183324000Y-91705629D01*
X183344258Y-91859507D01*
X183358268Y-91965924D01*
X183361650Y-91991609D01*
X183361650Y-91991614D01*
X183436309Y-92270246D01*
X183546694Y-92536741D01*
X183546696Y-92536746D01*
X183650851Y-92717146D01*
X183690925Y-92786556D01*
X183701025Y-92799718D01*
X183866520Y-93015397D01*
X183866522Y-93015399D01*
X183866526Y-93015404D01*
X184070496Y-93219374D01*
X184070500Y-93219377D01*
X184070502Y-93219379D01*
X184089445Y-93233914D01*
X184299344Y-93394975D01*
X184299346Y-93394976D01*
X184545576Y-93537138D01*
X184549155Y-93539204D01*
X184815655Y-93649591D01*
X185094283Y-93724249D01*
X185380272Y-93761900D01*
X185380273Y-93761900D01*
X185668727Y-93761900D01*
X185668728Y-93761900D01*
X185954717Y-93724249D01*
X186233345Y-93649591D01*
X186499845Y-93539204D01*
X186749656Y-93394975D01*
X186978504Y-93219374D01*
X187182474Y-93015404D01*
X187358075Y-92786556D01*
X187502304Y-92536745D01*
X187612691Y-92270245D01*
X187687349Y-91991617D01*
X187725000Y-91705628D01*
X187725000Y-91417172D01*
X187687349Y-91131183D01*
X187612691Y-90852555D01*
X187502304Y-90586055D01*
X187358075Y-90336244D01*
X187182474Y-90107396D01*
X186978504Y-89903426D01*
X186978499Y-89903422D01*
X186978497Y-89903420D01*
X186749653Y-89727823D01*
X186499846Y-89583596D01*
X186499841Y-89583594D01*
X186233346Y-89473209D01*
X186110488Y-89440289D01*
X185954717Y-89398551D01*
X185954714Y-89398550D01*
X185954712Y-89398550D01*
X185668729Y-89360900D01*
X185668728Y-89360900D01*
X185380272Y-89360900D01*
X185380270Y-89360900D01*
X185094290Y-89398550D01*
X185094285Y-89398550D01*
X184815653Y-89473209D01*
X184549158Y-89583594D01*
X184549153Y-89583596D01*
X184299346Y-89727823D01*
X184070502Y-89903420D01*
X183866520Y-90107402D01*
X183690923Y-90336246D01*
X183546696Y-90586053D01*
X183546694Y-90586058D01*
X183436309Y-90852553D01*
X183361650Y-91131185D01*
X183361650Y-91131190D01*
X183324000Y-91417170D01*
X154025500Y-91417170D01*
X154025500Y-86361190D01*
X154044407Y-86302999D01*
X154054496Y-86291186D01*
X154132957Y-86212725D01*
X160003900Y-86212725D01*
X160003900Y-86821274D01*
X160006753Y-86851694D01*
X160006755Y-86851703D01*
X160051607Y-86979883D01*
X160132245Y-87089144D01*
X160132247Y-87089146D01*
X160132250Y-87089150D01*
X160132253Y-87089152D01*
X160132255Y-87089154D01*
X160241516Y-87169792D01*
X160241517Y-87169792D01*
X160241518Y-87169793D01*
X160369701Y-87214646D01*
X160400125Y-87217499D01*
X160400127Y-87217500D01*
X160400134Y-87217500D01*
X161911239Y-87217500D01*
X161958174Y-87229332D01*
X162795073Y-87679970D01*
X162818140Y-87697132D01*
X163066918Y-87945910D01*
X163066920Y-87945913D01*
X163141487Y-88020480D01*
X163172041Y-88038120D01*
X163210782Y-88060488D01*
X163210785Y-88060489D01*
X163232813Y-88073207D01*
X163334670Y-88100500D01*
X163334672Y-88100501D01*
X163334673Y-88100501D01*
X163446190Y-88100501D01*
X163446206Y-88100500D01*
X165253404Y-88100500D01*
X165275008Y-88103458D01*
X165275045Y-88103250D01*
X165279831Y-88104091D01*
X165279834Y-88104093D01*
X165794636Y-88194651D01*
X165797452Y-88194606D01*
X165824658Y-88197968D01*
X165834106Y-88200500D01*
X165834108Y-88200500D01*
X165965890Y-88200500D01*
X165965892Y-88200500D01*
X166093186Y-88166392D01*
X166093188Y-88166390D01*
X166093190Y-88166390D01*
X166207309Y-88100503D01*
X166207309Y-88100502D01*
X166207314Y-88100500D01*
X166300500Y-88007314D01*
X166300503Y-88007309D01*
X166366390Y-87893190D01*
X166366390Y-87893188D01*
X166366392Y-87893186D01*
X166400500Y-87765892D01*
X166400500Y-87634108D01*
X166366392Y-87506814D01*
X166366390Y-87506811D01*
X166366390Y-87506809D01*
X166300503Y-87392690D01*
X166300501Y-87392688D01*
X166300500Y-87392686D01*
X166207314Y-87299500D01*
X166207311Y-87299498D01*
X166207309Y-87299496D01*
X166093189Y-87233609D01*
X166093191Y-87233609D01*
X166043799Y-87220375D01*
X165965892Y-87199500D01*
X165834108Y-87199500D01*
X165834103Y-87199500D01*
X165824598Y-87202047D01*
X165796792Y-87205395D01*
X165794642Y-87205347D01*
X165794634Y-87205348D01*
X165279825Y-87295907D01*
X165277866Y-87296409D01*
X165253322Y-87299500D01*
X164292393Y-87299500D01*
X164234202Y-87280593D01*
X164198238Y-87231093D01*
X164198238Y-87169907D01*
X164233605Y-87120845D01*
X164264130Y-87098316D01*
X164276550Y-87089150D01*
X164357193Y-86979882D01*
X164402046Y-86851699D01*
X164404899Y-86821273D01*
X164404900Y-86821273D01*
X164404900Y-86212727D01*
X164404899Y-86212725D01*
X164402046Y-86182301D01*
X164357193Y-86054118D01*
X164339762Y-86030500D01*
X164276554Y-85944855D01*
X164276552Y-85944853D01*
X164276550Y-85944850D01*
X164276546Y-85944847D01*
X164276544Y-85944845D01*
X164167283Y-85864207D01*
X164039103Y-85819355D01*
X164039094Y-85819353D01*
X164008674Y-85816500D01*
X164008666Y-85816500D01*
X160400134Y-85816500D01*
X160400125Y-85816500D01*
X160369705Y-85819353D01*
X160369696Y-85819355D01*
X160241516Y-85864207D01*
X160132255Y-85944845D01*
X160132245Y-85944855D01*
X160051607Y-86054116D01*
X160006755Y-86182296D01*
X160006753Y-86182305D01*
X160003900Y-86212725D01*
X154132957Y-86212725D01*
X155449186Y-84896496D01*
X155503703Y-84868719D01*
X155519190Y-84867500D01*
X159621887Y-84867500D01*
X159666572Y-84878158D01*
X160083692Y-85089144D01*
X160237996Y-85167193D01*
X160241518Y-85169793D01*
X160246763Y-85171628D01*
X160262025Y-85179348D01*
X160303626Y-85191649D01*
X160308174Y-85193116D01*
X160369701Y-85214646D01*
X160400125Y-85217499D01*
X160400127Y-85217500D01*
X160400134Y-85217500D01*
X164008673Y-85217500D01*
X164008673Y-85217499D01*
X164039099Y-85214646D01*
X164167282Y-85169793D01*
X164276550Y-85089150D01*
X164357193Y-84979882D01*
X164402046Y-84851699D01*
X164404899Y-84821273D01*
X164404900Y-84821273D01*
X164404900Y-84212727D01*
X164404899Y-84212725D01*
X164402815Y-84190500D01*
X164402046Y-84182301D01*
X164357193Y-84054118D01*
X164356054Y-84052575D01*
X164276554Y-83944855D01*
X164276552Y-83944853D01*
X164276550Y-83944850D01*
X164276546Y-83944847D01*
X164276544Y-83944845D01*
X164167283Y-83864207D01*
X164039103Y-83819355D01*
X164039094Y-83819353D01*
X164008674Y-83816500D01*
X164008666Y-83816500D01*
X160400134Y-83816500D01*
X160400125Y-83816500D01*
X160369703Y-83819353D01*
X160308196Y-83840873D01*
X160308197Y-83840874D01*
X160305896Y-83841679D01*
X160262026Y-83854650D01*
X160246753Y-83862374D01*
X160245903Y-83862671D01*
X160241518Y-83864206D01*
X160237096Y-83866543D01*
X160230595Y-83870547D01*
X159666570Y-84155842D01*
X159621885Y-84166500D01*
X155286856Y-84166500D01*
X155197712Y-84190386D01*
X155117788Y-84236530D01*
X153544501Y-85809816D01*
X153489987Y-85837592D01*
X153429555Y-85828021D01*
X153386290Y-85784756D01*
X153375500Y-85739811D01*
X153375500Y-84461190D01*
X153394407Y-84402999D01*
X153404496Y-84391186D01*
X154899186Y-82896496D01*
X154953703Y-82868719D01*
X154969190Y-82867500D01*
X159621887Y-82867500D01*
X159666572Y-82878158D01*
X160083692Y-83089144D01*
X160237996Y-83167193D01*
X160241518Y-83169793D01*
X160246763Y-83171628D01*
X160262025Y-83179348D01*
X160303626Y-83191649D01*
X160308174Y-83193116D01*
X160369701Y-83214646D01*
X160400125Y-83217499D01*
X160400127Y-83217500D01*
X160400134Y-83217500D01*
X164008673Y-83217500D01*
X164008673Y-83217499D01*
X164039099Y-83214646D01*
X164167282Y-83169793D01*
X164276550Y-83089150D01*
X164357193Y-82979882D01*
X164402046Y-82851699D01*
X164404899Y-82821273D01*
X164404900Y-82821273D01*
X164404900Y-82212727D01*
X164404899Y-82212725D01*
X164404810Y-82211772D01*
X164402046Y-82182301D01*
X164357193Y-82054118D01*
X164341094Y-82032305D01*
X164276554Y-81944855D01*
X164276552Y-81944853D01*
X164276550Y-81944850D01*
X164276546Y-81944847D01*
X164276544Y-81944845D01*
X164167283Y-81864207D01*
X164039103Y-81819355D01*
X164039094Y-81819353D01*
X164008674Y-81816500D01*
X164008666Y-81816500D01*
X160400134Y-81816500D01*
X160400125Y-81816500D01*
X160369703Y-81819353D01*
X160308196Y-81840873D01*
X160308197Y-81840874D01*
X160305896Y-81841679D01*
X160262026Y-81854650D01*
X160246753Y-81862374D01*
X160245903Y-81862671D01*
X160241518Y-81864206D01*
X160237096Y-81866543D01*
X160230595Y-81870547D01*
X159666570Y-82155842D01*
X159621885Y-82166500D01*
X154736856Y-82166500D01*
X154682297Y-82181118D01*
X154647707Y-82190387D01*
X154567791Y-82236527D01*
X152770004Y-84034314D01*
X152715487Y-84062091D01*
X152655055Y-84052520D01*
X152629996Y-84034314D01*
X149239636Y-80643954D01*
X149223846Y-80623349D01*
X148963752Y-80171597D01*
X148960265Y-80165766D01*
X148959874Y-80165136D01*
X148956135Y-80161256D01*
X148941685Y-80142059D01*
X148930501Y-80122688D01*
X148930500Y-80122686D01*
X148837314Y-80029500D01*
X148836787Y-80029196D01*
X148820316Y-80019686D01*
X148813648Y-80015836D01*
X148797964Y-80004612D01*
X148788404Y-79996249D01*
X148788401Y-79996246D01*
X148336650Y-79736153D01*
X148316043Y-79720361D01*
X147575564Y-78979882D01*
X146832212Y-78236530D01*
X146752288Y-78190386D01*
X146752286Y-78190385D01*
X146752284Y-78190384D01*
X146689101Y-78173454D01*
X146664425Y-78163098D01*
X146209678Y-77894846D01*
X146201191Y-77889232D01*
X146177757Y-77871938D01*
X146167282Y-77864207D01*
X146167280Y-77864206D01*
X146167278Y-77864205D01*
X146039103Y-77819355D01*
X146039094Y-77819353D01*
X146008674Y-77816500D01*
X146008666Y-77816500D01*
X142400134Y-77816500D01*
X142400125Y-77816500D01*
X142369705Y-77819353D01*
X142369696Y-77819355D01*
X142241516Y-77864207D01*
X142132255Y-77944845D01*
X142132245Y-77944855D01*
X142051607Y-78054116D01*
X142006755Y-78182296D01*
X142006753Y-78182305D01*
X142003900Y-78212725D01*
X109745500Y-78212725D01*
X109745500Y-77204108D01*
X129779500Y-77204108D01*
X129779500Y-77335892D01*
X129784859Y-77355892D01*
X129813609Y-77463190D01*
X129879496Y-77577309D01*
X129879498Y-77577311D01*
X129879500Y-77577314D01*
X129972686Y-77670500D01*
X129972688Y-77670501D01*
X129972690Y-77670503D01*
X130086810Y-77736390D01*
X130086808Y-77736390D01*
X130086812Y-77736391D01*
X130086814Y-77736392D01*
X130214108Y-77770500D01*
X130214110Y-77770500D01*
X130345890Y-77770500D01*
X130345892Y-77770500D01*
X130473186Y-77736392D01*
X130473188Y-77736390D01*
X130473190Y-77736390D01*
X130587309Y-77670503D01*
X130587309Y-77670502D01*
X130587314Y-77670500D01*
X130680500Y-77577314D01*
X130694165Y-77553645D01*
X130705389Y-77537960D01*
X130713752Y-77528402D01*
X130973848Y-77076645D01*
X130989632Y-77056048D01*
X131832956Y-76212725D01*
X142003900Y-76212725D01*
X142003900Y-76821274D01*
X142006753Y-76851694D01*
X142006755Y-76851703D01*
X142051607Y-76979883D01*
X142132245Y-77089144D01*
X142132247Y-77089146D01*
X142132250Y-77089150D01*
X142132253Y-77089152D01*
X142132255Y-77089154D01*
X142241516Y-77169792D01*
X142241517Y-77169792D01*
X142241518Y-77169793D01*
X142369701Y-77214646D01*
X142400125Y-77217499D01*
X142400127Y-77217500D01*
X142400134Y-77217500D01*
X146008673Y-77217500D01*
X146008673Y-77217499D01*
X146039099Y-77214646D01*
X146102874Y-77192330D01*
X146146774Y-77179348D01*
X146162033Y-77171629D01*
X146167282Y-77169793D01*
X146167288Y-77169788D01*
X146171712Y-77167451D01*
X146178217Y-77163442D01*
X146638561Y-76930593D01*
X146699022Y-76921201D01*
X146753250Y-76948932D01*
X150541362Y-80737044D01*
X150557154Y-80757651D01*
X150807418Y-81192331D01*
X150817258Y-81209421D01*
X150820723Y-81215216D01*
X150821122Y-81215859D01*
X150821123Y-81215860D01*
X150821125Y-81215863D01*
X150824864Y-81219743D01*
X150839315Y-81238940D01*
X150848757Y-81255296D01*
X150850500Y-81258314D01*
X150943686Y-81351500D01*
X150943688Y-81351501D01*
X150943690Y-81351503D01*
X151057810Y-81417390D01*
X151057808Y-81417390D01*
X151057812Y-81417391D01*
X151057814Y-81417392D01*
X151185108Y-81451500D01*
X151185110Y-81451500D01*
X151316890Y-81451500D01*
X151316892Y-81451500D01*
X151444186Y-81417392D01*
X151444188Y-81417390D01*
X151444190Y-81417390D01*
X151558309Y-81351503D01*
X151558309Y-81351502D01*
X151558314Y-81351500D01*
X151651500Y-81258314D01*
X151653240Y-81255301D01*
X151694343Y-81184108D01*
X155539500Y-81184108D01*
X155539500Y-81315892D01*
X155549041Y-81351500D01*
X155573609Y-81443190D01*
X155639496Y-81557309D01*
X155639498Y-81557311D01*
X155639500Y-81557314D01*
X155732686Y-81650500D01*
X155732688Y-81650501D01*
X155732690Y-81650503D01*
X155846810Y-81716390D01*
X155846808Y-81716390D01*
X155846812Y-81716391D01*
X155846814Y-81716392D01*
X155974108Y-81750500D01*
X155974110Y-81750500D01*
X156105890Y-81750500D01*
X156105892Y-81750500D01*
X156233186Y-81716392D01*
X156233188Y-81716390D01*
X156233190Y-81716390D01*
X156347309Y-81650503D01*
X156347309Y-81650502D01*
X156347314Y-81650500D01*
X156440500Y-81557314D01*
X156467738Y-81510136D01*
X156506390Y-81443190D01*
X156506390Y-81443188D01*
X156506392Y-81443186D01*
X156540500Y-81315892D01*
X156540500Y-81184108D01*
X156539224Y-81179348D01*
X156534962Y-81163441D01*
X156533423Y-81157700D01*
X156531698Y-81150060D01*
X156530655Y-81144412D01*
X156529427Y-81126008D01*
X156522521Y-81100360D01*
X156521799Y-81096447D01*
X156525315Y-81069878D01*
X156526685Y-81043107D01*
X156529283Y-81039890D01*
X156529826Y-81035791D01*
X156548290Y-81016359D01*
X156565132Y-80995510D01*
X156569124Y-80994435D01*
X156571973Y-80991437D01*
X156598329Y-80986570D01*
X156624213Y-80979601D01*
X156630611Y-80980610D01*
X156632142Y-80980328D01*
X156633778Y-80981110D01*
X156644776Y-80982845D01*
X156646811Y-80983390D01*
X156646814Y-80983392D01*
X156774108Y-81017500D01*
X156774110Y-81017500D01*
X156905891Y-81017500D01*
X156905892Y-81017500D01*
X156932292Y-81010425D01*
X156951317Y-81007273D01*
X156963990Y-81006428D01*
X157440403Y-80878158D01*
X157467346Y-80870904D01*
X157493084Y-80867500D01*
X159621887Y-80867500D01*
X159666571Y-80878157D01*
X159744351Y-80917500D01*
X160183513Y-81139635D01*
X160237996Y-81167193D01*
X160241518Y-81169793D01*
X160246763Y-81171628D01*
X160262025Y-81179348D01*
X160303626Y-81191649D01*
X160308174Y-81193116D01*
X160369701Y-81214646D01*
X160400125Y-81217499D01*
X160400127Y-81217500D01*
X160400134Y-81217500D01*
X164008673Y-81217500D01*
X164008673Y-81217499D01*
X164039099Y-81214646D01*
X164167282Y-81169793D01*
X164276550Y-81089150D01*
X164357193Y-80979882D01*
X164402046Y-80851699D01*
X164404899Y-80821273D01*
X164404900Y-80821273D01*
X164404900Y-80212727D01*
X164404899Y-80212725D01*
X164402046Y-80182301D01*
X164357193Y-80054118D01*
X164354603Y-80050609D01*
X164276554Y-79944855D01*
X164276552Y-79944853D01*
X164276550Y-79944850D01*
X164276546Y-79944847D01*
X164276544Y-79944845D01*
X164167283Y-79864207D01*
X164039103Y-79819355D01*
X164039094Y-79819353D01*
X164008674Y-79816500D01*
X164008666Y-79816500D01*
X160400134Y-79816500D01*
X160400125Y-79816500D01*
X160369703Y-79819353D01*
X160308196Y-79840873D01*
X160308197Y-79840874D01*
X160305896Y-79841679D01*
X160262026Y-79854650D01*
X160246753Y-79862374D01*
X160245903Y-79862671D01*
X160241518Y-79864206D01*
X160237096Y-79866543D01*
X160230595Y-79870547D01*
X159817276Y-80079612D01*
X159726408Y-80125575D01*
X159666570Y-80155842D01*
X159621885Y-80166500D01*
X157493083Y-80166500D01*
X157467345Y-80163096D01*
X157273412Y-80110881D01*
X156963991Y-80027572D01*
X156957662Y-80025975D01*
X156957659Y-80025974D01*
X156957642Y-80025970D01*
X156956936Y-80025804D01*
X156956940Y-80025804D01*
X156951441Y-80025700D01*
X156927707Y-80022345D01*
X156905892Y-80016500D01*
X156774108Y-80016500D01*
X156725591Y-80029500D01*
X156646812Y-80050608D01*
X156539000Y-80112854D01*
X156479151Y-80125575D01*
X156423256Y-80100688D01*
X156392663Y-80047700D01*
X156390500Y-80027117D01*
X156390500Y-79646189D01*
X156409407Y-79587998D01*
X156419496Y-79576185D01*
X156690166Y-79305515D01*
X167699500Y-79305515D01*
X167699500Y-79494484D01*
X167729058Y-79681113D01*
X167787453Y-79860832D01*
X167872412Y-80027575D01*
X167873240Y-80029199D01*
X167984310Y-80182073D01*
X168117927Y-80315690D01*
X168270801Y-80426760D01*
X168439168Y-80512547D01*
X168618882Y-80570940D01*
X168618883Y-80570940D01*
X168618886Y-80570941D01*
X168805516Y-80600500D01*
X168805519Y-80600500D01*
X168994484Y-80600500D01*
X169181113Y-80570941D01*
X169181114Y-80570940D01*
X169181118Y-80570940D01*
X169360832Y-80512547D01*
X169529199Y-80426760D01*
X169682073Y-80315690D01*
X169815690Y-80182073D01*
X169926760Y-80029199D01*
X170012547Y-79860832D01*
X170070940Y-79681118D01*
X170086305Y-79584108D01*
X170100500Y-79494484D01*
X170100500Y-79305515D01*
X170099260Y-79297684D01*
X172100000Y-79297684D01*
X172100000Y-79502315D01*
X172132008Y-79704412D01*
X172195243Y-79899027D01*
X172288139Y-80081348D01*
X172288141Y-80081352D01*
X172380034Y-80207831D01*
X172919725Y-79668139D01*
X172959890Y-79737708D01*
X173062292Y-79840110D01*
X173131857Y-79880273D01*
X172592167Y-80419963D01*
X172718653Y-80511861D01*
X172900972Y-80604756D01*
X173095587Y-80667991D01*
X173297685Y-80700000D01*
X173502315Y-80700000D01*
X173704412Y-80667991D01*
X173899027Y-80604756D01*
X174081348Y-80511860D01*
X174081354Y-80511856D01*
X174207831Y-80419964D01*
X174207831Y-80419963D01*
X173668141Y-79880273D01*
X173737708Y-79840110D01*
X173840110Y-79737708D01*
X173880273Y-79668141D01*
X174419963Y-80207831D01*
X174419964Y-80207831D01*
X174511856Y-80081354D01*
X174511860Y-80081348D01*
X174604756Y-79899027D01*
X174667991Y-79704412D01*
X174700000Y-79502315D01*
X174700000Y-79297684D01*
X174667991Y-79095587D01*
X174604756Y-78900972D01*
X174511861Y-78718653D01*
X174419963Y-78592167D01*
X173880273Y-79131857D01*
X173840110Y-79062292D01*
X173737708Y-78959890D01*
X173668139Y-78919725D01*
X174207831Y-78380034D01*
X174081352Y-78288141D01*
X174081348Y-78288139D01*
X173899027Y-78195243D01*
X173704412Y-78132008D01*
X173502315Y-78100000D01*
X173297685Y-78100000D01*
X173095587Y-78132008D01*
X172900972Y-78195243D01*
X172718651Y-78288139D01*
X172718647Y-78288141D01*
X172592167Y-78380034D01*
X173131859Y-78919726D01*
X173062292Y-78959890D01*
X172959890Y-79062292D01*
X172919726Y-79131859D01*
X172380034Y-78592167D01*
X172288141Y-78718647D01*
X172288139Y-78718651D01*
X172195243Y-78900972D01*
X172132008Y-79095587D01*
X172100000Y-79297684D01*
X170099260Y-79297684D01*
X170070941Y-79118886D01*
X170063371Y-79095587D01*
X170012547Y-78939168D01*
X169926760Y-78770801D01*
X169815690Y-78617927D01*
X169682073Y-78484310D01*
X169529199Y-78373240D01*
X169529198Y-78373239D01*
X169529196Y-78373238D01*
X169360832Y-78287453D01*
X169181113Y-78229058D01*
X168994484Y-78199500D01*
X168994481Y-78199500D01*
X168805519Y-78199500D01*
X168805516Y-78199500D01*
X168618886Y-78229058D01*
X168439167Y-78287453D01*
X168270803Y-78373238D01*
X168117928Y-78484309D01*
X167984309Y-78617928D01*
X167873238Y-78770803D01*
X167787453Y-78939167D01*
X167729058Y-79118886D01*
X167699500Y-79305515D01*
X156690166Y-79305515D01*
X157099185Y-78896496D01*
X157153702Y-78868719D01*
X157169189Y-78867500D01*
X159621887Y-78867500D01*
X159666572Y-78878158D01*
X160083692Y-79089144D01*
X160237996Y-79167193D01*
X160241518Y-79169793D01*
X160246763Y-79171628D01*
X160262025Y-79179348D01*
X160303626Y-79191649D01*
X160308174Y-79193116D01*
X160369701Y-79214646D01*
X160400125Y-79217499D01*
X160400127Y-79217500D01*
X160400134Y-79217500D01*
X164008673Y-79217500D01*
X164008673Y-79217499D01*
X164039099Y-79214646D01*
X164167282Y-79169793D01*
X164276550Y-79089150D01*
X164357193Y-78979882D01*
X164402046Y-78851699D01*
X164404899Y-78821273D01*
X164404900Y-78821273D01*
X164404900Y-78212727D01*
X164404899Y-78212725D01*
X164403659Y-78199500D01*
X164402046Y-78182301D01*
X164357193Y-78054118D01*
X164276550Y-77944850D01*
X164276546Y-77944847D01*
X164276544Y-77944845D01*
X164231505Y-77911605D01*
X164195912Y-77861838D01*
X164196370Y-77800654D01*
X164232703Y-77751424D01*
X164291033Y-77732953D01*
X164316027Y-77736353D01*
X164476008Y-77779427D01*
X164482337Y-77781024D01*
X164483059Y-77781194D01*
X164488548Y-77781298D01*
X164512290Y-77784653D01*
X164534108Y-77790500D01*
X164665890Y-77790500D01*
X164665892Y-77790500D01*
X164793186Y-77756392D01*
X164793188Y-77756390D01*
X164793190Y-77756390D01*
X164907309Y-77690503D01*
X164907309Y-77690502D01*
X164907314Y-77690500D01*
X165000500Y-77597314D01*
X165012050Y-77577309D01*
X165066390Y-77483190D01*
X165066390Y-77483188D01*
X165066392Y-77483186D01*
X165100500Y-77355892D01*
X165100500Y-77224108D01*
X165066392Y-77096814D01*
X165066390Y-77096811D01*
X165066390Y-77096809D01*
X165000503Y-76982690D01*
X165000501Y-76982688D01*
X165000500Y-76982686D01*
X164907314Y-76889500D01*
X164907311Y-76889498D01*
X164907309Y-76889496D01*
X164793189Y-76823609D01*
X164793191Y-76823609D01*
X164743799Y-76810375D01*
X164665892Y-76789500D01*
X164534108Y-76789500D01*
X164534107Y-76789500D01*
X164531686Y-76790148D01*
X164529517Y-76790729D01*
X164468417Y-76787525D01*
X164420869Y-76749017D01*
X164404900Y-76695102D01*
X164404900Y-76212727D01*
X164404899Y-76212725D01*
X164402046Y-76182305D01*
X164402046Y-76182301D01*
X164357193Y-76054118D01*
X164313195Y-75994503D01*
X164276554Y-75944855D01*
X164276552Y-75944853D01*
X164276550Y-75944850D01*
X164276546Y-75944847D01*
X164276544Y-75944845D01*
X164167283Y-75864207D01*
X164039103Y-75819355D01*
X164039094Y-75819353D01*
X164008674Y-75816500D01*
X164008666Y-75816500D01*
X160400134Y-75816500D01*
X160400125Y-75816500D01*
X160369705Y-75819353D01*
X160369696Y-75819355D01*
X160241516Y-75864207D01*
X160132255Y-75944845D01*
X160132245Y-75944855D01*
X160051607Y-76054116D01*
X160006755Y-76182296D01*
X160006753Y-76182305D01*
X160003900Y-76212725D01*
X160003900Y-76821274D01*
X160006753Y-76851694D01*
X160006755Y-76851703D01*
X160051607Y-76979883D01*
X160132245Y-77089144D01*
X160132247Y-77089146D01*
X160132250Y-77089150D01*
X160132253Y-77089152D01*
X160132255Y-77089154D01*
X160241516Y-77169792D01*
X160241517Y-77169792D01*
X160241518Y-77169793D01*
X160369701Y-77214646D01*
X160400125Y-77217499D01*
X160400127Y-77217500D01*
X160400134Y-77217500D01*
X161945794Y-77217500D01*
X161982042Y-77224375D01*
X162678480Y-77498396D01*
X162701700Y-77511373D01*
X162707294Y-77515576D01*
X162762188Y-77570470D01*
X162835445Y-77612765D01*
X162842109Y-77616612D01*
X162842108Y-77616612D01*
X162842112Y-77616614D01*
X162861744Y-77621874D01*
X162913056Y-77655197D01*
X162934983Y-77712318D01*
X162919148Y-77771419D01*
X162871598Y-77809924D01*
X162836119Y-77816500D01*
X160400125Y-77816500D01*
X160369703Y-77819353D01*
X160308196Y-77840873D01*
X160308197Y-77840874D01*
X160305896Y-77841679D01*
X160262026Y-77854650D01*
X160246753Y-77862374D01*
X160245903Y-77862671D01*
X160241518Y-77864206D01*
X160237096Y-77866543D01*
X160230595Y-77870547D01*
X159867681Y-78054116D01*
X159713690Y-78132008D01*
X159666570Y-78155842D01*
X159621885Y-78166500D01*
X156936856Y-78166500D01*
X156847712Y-78190386D01*
X156847711Y-78190386D01*
X156847709Y-78190387D01*
X156767790Y-78236529D01*
X155759529Y-79244789D01*
X155727942Y-79299497D01*
X155727943Y-79299498D01*
X155713386Y-79324711D01*
X155689500Y-79413857D01*
X155689500Y-80596918D01*
X155686096Y-80622656D01*
X155652569Y-80747181D01*
X155550572Y-81126008D01*
X155550292Y-81127118D01*
X155548970Y-81132356D01*
X155548804Y-81133060D01*
X155548700Y-81138558D01*
X155546139Y-81156673D01*
X155546301Y-81158413D01*
X155545862Y-81160361D01*
X155539500Y-81184108D01*
X151694343Y-81184108D01*
X151717390Y-81144190D01*
X151717390Y-81144188D01*
X151717392Y-81144186D01*
X151751500Y-81016892D01*
X151751500Y-80885108D01*
X151717392Y-80757814D01*
X151717390Y-80757811D01*
X151717390Y-80757809D01*
X151651503Y-80643690D01*
X151651501Y-80643688D01*
X151651500Y-80643686D01*
X151558314Y-80550500D01*
X151534648Y-80536836D01*
X151518964Y-80525612D01*
X151509404Y-80517249D01*
X151509401Y-80517246D01*
X151057650Y-80257153D01*
X151037043Y-80241361D01*
X149083135Y-78287453D01*
X147032212Y-76236530D01*
X146952288Y-76190386D01*
X146863144Y-76166500D01*
X146863142Y-76166500D01*
X146786915Y-76166500D01*
X146742230Y-76155842D01*
X146178216Y-75870554D01*
X146178216Y-75870553D01*
X146170796Y-75866800D01*
X146167282Y-75864207D01*
X146162042Y-75862373D01*
X146156217Y-75859427D01*
X146156216Y-75859426D01*
X146156215Y-75859426D01*
X146146777Y-75854652D01*
X146146772Y-75854650D01*
X146105179Y-75842349D01*
X146100560Y-75840859D01*
X146063321Y-75827829D01*
X146039099Y-75819354D01*
X146039097Y-75819353D01*
X146039098Y-75819353D01*
X146008674Y-75816500D01*
X146008666Y-75816500D01*
X142400134Y-75816500D01*
X142400125Y-75816500D01*
X142369705Y-75819353D01*
X142369696Y-75819355D01*
X142241516Y-75864207D01*
X142132255Y-75944845D01*
X142132245Y-75944855D01*
X142051607Y-76054116D01*
X142006755Y-76182296D01*
X142006753Y-76182305D01*
X142003900Y-76212725D01*
X131832956Y-76212725D01*
X133149186Y-74896496D01*
X133203703Y-74868719D01*
X133219190Y-74867500D01*
X141621887Y-74867500D01*
X141666572Y-74878158D01*
X142230576Y-75163440D01*
X142231948Y-75164134D01*
X142237996Y-75167193D01*
X142241518Y-75169793D01*
X142246763Y-75171628D01*
X142262025Y-75179348D01*
X142303626Y-75191649D01*
X142308174Y-75193116D01*
X142369701Y-75214646D01*
X142400125Y-75217499D01*
X142400127Y-75217500D01*
X142400134Y-75217500D01*
X146008673Y-75217500D01*
X146008673Y-75217499D01*
X146039099Y-75214646D01*
X146167282Y-75169793D01*
X146276550Y-75089150D01*
X146357193Y-74979882D01*
X146402046Y-74851699D01*
X146404899Y-74821273D01*
X146404900Y-74821273D01*
X146404900Y-74212727D01*
X146404899Y-74212725D01*
X160003900Y-74212725D01*
X160003900Y-74821274D01*
X160006753Y-74851694D01*
X160006755Y-74851703D01*
X160051607Y-74979883D01*
X160132245Y-75089144D01*
X160132247Y-75089146D01*
X160132250Y-75089150D01*
X160132253Y-75089152D01*
X160132255Y-75089154D01*
X160241516Y-75169792D01*
X160241517Y-75169792D01*
X160241518Y-75169793D01*
X160369701Y-75214646D01*
X160400125Y-75217499D01*
X160400127Y-75217500D01*
X160400134Y-75217500D01*
X164008673Y-75217500D01*
X164008673Y-75217499D01*
X164039099Y-75214646D01*
X164167282Y-75169793D01*
X164276550Y-75089150D01*
X164357193Y-74979882D01*
X164402046Y-74851699D01*
X164404899Y-74821273D01*
X164404900Y-74821273D01*
X164404900Y-74212727D01*
X164404899Y-74212725D01*
X164402046Y-74182305D01*
X164402046Y-74182301D01*
X164357193Y-74054118D01*
X164326512Y-74012547D01*
X164276554Y-73944855D01*
X164276552Y-73944853D01*
X164276550Y-73944850D01*
X164276546Y-73944847D01*
X164276544Y-73944845D01*
X164167283Y-73864207D01*
X164039103Y-73819355D01*
X164039094Y-73819353D01*
X164008674Y-73816500D01*
X164008666Y-73816500D01*
X160400134Y-73816500D01*
X160400125Y-73816500D01*
X160369705Y-73819353D01*
X160369696Y-73819355D01*
X160241516Y-73864207D01*
X160132255Y-73944845D01*
X160132245Y-73944855D01*
X160051607Y-74054116D01*
X160006755Y-74182296D01*
X160006753Y-74182305D01*
X160003900Y-74212725D01*
X146404899Y-74212725D01*
X146402046Y-74182305D01*
X146402046Y-74182301D01*
X146357193Y-74054118D01*
X146326512Y-74012547D01*
X146276554Y-73944855D01*
X146276552Y-73944853D01*
X146276550Y-73944850D01*
X146276546Y-73944847D01*
X146276544Y-73944845D01*
X146167283Y-73864207D01*
X146039103Y-73819355D01*
X146039094Y-73819353D01*
X146008674Y-73816500D01*
X146008666Y-73816500D01*
X142400134Y-73816500D01*
X142400125Y-73816500D01*
X142369703Y-73819353D01*
X142308196Y-73840873D01*
X142308197Y-73840874D01*
X142305896Y-73841679D01*
X142262026Y-73854650D01*
X142246753Y-73862374D01*
X142245903Y-73862671D01*
X142241518Y-73864206D01*
X142237096Y-73866543D01*
X142230595Y-73870547D01*
X141666570Y-74155842D01*
X141621885Y-74166500D01*
X132986856Y-74166500D01*
X132927886Y-74182301D01*
X132897712Y-74190386D01*
X132817788Y-74236530D01*
X130493955Y-76560361D01*
X130473348Y-76576153D01*
X130021577Y-76836258D01*
X130015750Y-76839743D01*
X130015143Y-76840119D01*
X130015124Y-76840134D01*
X130011245Y-76843872D01*
X129992064Y-76858310D01*
X129972684Y-76869500D01*
X129879500Y-76962685D01*
X129879496Y-76962690D01*
X129813609Y-77076809D01*
X129808250Y-77096809D01*
X129779500Y-77204108D01*
X109745500Y-77204108D01*
X109745500Y-74187837D01*
X109764407Y-74129646D01*
X109813907Y-74093682D01*
X109875093Y-74093682D01*
X109924593Y-74129646D01*
X109937944Y-74155139D01*
X109968530Y-74242549D01*
X109968531Y-74242551D01*
X110114746Y-74546171D01*
X110114752Y-74546183D01*
X110114754Y-74546186D01*
X110287603Y-74821273D01*
X110294056Y-74831542D01*
X110294058Y-74831545D01*
X110504165Y-75095012D01*
X110504171Y-75095018D01*
X110504175Y-75095023D01*
X110742477Y-75333325D01*
X110742481Y-75333328D01*
X110742487Y-75333334D01*
X111005954Y-75543441D01*
X111005958Y-75543443D01*
X111005961Y-75543446D01*
X111191280Y-75659890D01*
X111291316Y-75722747D01*
X111291328Y-75722753D01*
X111392205Y-75771332D01*
X111594949Y-75868969D01*
X111687386Y-75901314D01*
X111913042Y-75980275D01*
X111913045Y-75980275D01*
X111913046Y-75980276D01*
X112241606Y-76055267D01*
X112576496Y-76093000D01*
X112576497Y-76093000D01*
X112913503Y-76093000D01*
X112913504Y-76093000D01*
X113248394Y-76055267D01*
X113576954Y-75980276D01*
X113895051Y-75868969D01*
X114198686Y-75722746D01*
X114484039Y-75543446D01*
X114503272Y-75528108D01*
X129653500Y-75528108D01*
X129653500Y-75659892D01*
X129683579Y-75772151D01*
X129687609Y-75787190D01*
X129753496Y-75901309D01*
X129753498Y-75901311D01*
X129753500Y-75901314D01*
X129846686Y-75994500D01*
X129846688Y-75994501D01*
X129846690Y-75994503D01*
X129960810Y-76060390D01*
X129960808Y-76060390D01*
X129960812Y-76060391D01*
X129960814Y-76060392D01*
X130088108Y-76094500D01*
X130088110Y-76094500D01*
X130219890Y-76094500D01*
X130219892Y-76094500D01*
X130347186Y-76060392D01*
X130347188Y-76060390D01*
X130347190Y-76060390D01*
X130461309Y-75994503D01*
X130461309Y-75994502D01*
X130461314Y-75994500D01*
X130554500Y-75901314D01*
X130568165Y-75877645D01*
X130579389Y-75861960D01*
X130587752Y-75852402D01*
X130847848Y-75400645D01*
X130863632Y-75380048D01*
X133347186Y-72896496D01*
X133401703Y-72868719D01*
X133417190Y-72867500D01*
X141621887Y-72867500D01*
X141666572Y-72878158D01*
X142083692Y-73089144D01*
X142237996Y-73167193D01*
X142241518Y-73169793D01*
X142246763Y-73171628D01*
X142262025Y-73179348D01*
X142303626Y-73191649D01*
X142308174Y-73193116D01*
X142369701Y-73214646D01*
X142400125Y-73217499D01*
X142400127Y-73217500D01*
X142400134Y-73217500D01*
X146008673Y-73217500D01*
X146008673Y-73217499D01*
X146039099Y-73214646D01*
X146167282Y-73169793D01*
X146276550Y-73089150D01*
X146357193Y-72979882D01*
X146402046Y-72851699D01*
X146404899Y-72821273D01*
X146404900Y-72821273D01*
X146404900Y-72212727D01*
X146404899Y-72212725D01*
X160003900Y-72212725D01*
X160003900Y-72821274D01*
X160006753Y-72851694D01*
X160006755Y-72851703D01*
X160051607Y-72979883D01*
X160132245Y-73089144D01*
X160132247Y-73089146D01*
X160132250Y-73089150D01*
X160132253Y-73089152D01*
X160132255Y-73089154D01*
X160241516Y-73169792D01*
X160241517Y-73169792D01*
X160241518Y-73169793D01*
X160369701Y-73214646D01*
X160400125Y-73217499D01*
X160400127Y-73217500D01*
X160400134Y-73217500D01*
X164008673Y-73217500D01*
X164008673Y-73217499D01*
X164039099Y-73214646D01*
X164102874Y-73192330D01*
X164146774Y-73179348D01*
X164162033Y-73171629D01*
X164167282Y-73169793D01*
X164167288Y-73169788D01*
X164171716Y-73167449D01*
X164178222Y-73163439D01*
X164413599Y-73044383D01*
X164742229Y-72878158D01*
X164786913Y-72867500D01*
X166884953Y-72867500D01*
X166943144Y-72886407D01*
X166946318Y-72888814D01*
X167316310Y-73181118D01*
X167950403Y-73682071D01*
X168111876Y-73809639D01*
X168117927Y-73815690D01*
X168137932Y-73830225D01*
X168139489Y-73831455D01*
X168139502Y-73831465D01*
X168183903Y-73866543D01*
X168207122Y-73884886D01*
X168213587Y-73889789D01*
X168214345Y-73890340D01*
X168220496Y-73893036D01*
X168238946Y-73903617D01*
X168261447Y-73919964D01*
X168270801Y-73926760D01*
X168439168Y-74012547D01*
X168618882Y-74070940D01*
X168618883Y-74070940D01*
X168618886Y-74070941D01*
X168805516Y-74100500D01*
X168805519Y-74100500D01*
X168994484Y-74100500D01*
X169181113Y-74070941D01*
X169181114Y-74070940D01*
X169181118Y-74070940D01*
X169360832Y-74012547D01*
X169529199Y-73926760D01*
X169682073Y-73815690D01*
X169815690Y-73682073D01*
X169926760Y-73529199D01*
X170012547Y-73360832D01*
X170070940Y-73181118D01*
X170071220Y-73179349D01*
X170100500Y-72994484D01*
X170100500Y-72805515D01*
X170099260Y-72797684D01*
X172100000Y-72797684D01*
X172100000Y-73002315D01*
X172132008Y-73204412D01*
X172195243Y-73399027D01*
X172288139Y-73581348D01*
X172288141Y-73581352D01*
X172380034Y-73707831D01*
X172919725Y-73168139D01*
X172959890Y-73237708D01*
X173062292Y-73340110D01*
X173131857Y-73380273D01*
X172592167Y-73919963D01*
X172718653Y-74011861D01*
X172900972Y-74104756D01*
X173095587Y-74167991D01*
X173297685Y-74200000D01*
X173502315Y-74200000D01*
X173704412Y-74167991D01*
X173899027Y-74104756D01*
X174081348Y-74011860D01*
X174081354Y-74011856D01*
X174207831Y-73919964D01*
X174207831Y-73919963D01*
X173668141Y-73380273D01*
X173737708Y-73340110D01*
X173840110Y-73237708D01*
X173880273Y-73168141D01*
X174419963Y-73707831D01*
X174419964Y-73707831D01*
X174511856Y-73581354D01*
X174511860Y-73581348D01*
X174604756Y-73399027D01*
X174667991Y-73204412D01*
X174700000Y-73002315D01*
X174700000Y-72797684D01*
X174667991Y-72595587D01*
X174604756Y-72400972D01*
X174511861Y-72218653D01*
X174419963Y-72092167D01*
X173880273Y-72631857D01*
X173840110Y-72562292D01*
X173737708Y-72459890D01*
X173668139Y-72419725D01*
X174207831Y-71880034D01*
X174081352Y-71788141D01*
X174081348Y-71788139D01*
X173899027Y-71695243D01*
X173704412Y-71632008D01*
X173502315Y-71600000D01*
X173297685Y-71600000D01*
X173095587Y-71632008D01*
X172900972Y-71695243D01*
X172718651Y-71788139D01*
X172718647Y-71788141D01*
X172592167Y-71880034D01*
X173131859Y-72419726D01*
X173062292Y-72459890D01*
X172959890Y-72562292D01*
X172919726Y-72631859D01*
X172380034Y-72092167D01*
X172288141Y-72218647D01*
X172288139Y-72218651D01*
X172195243Y-72400972D01*
X172132008Y-72595587D01*
X172100000Y-72797684D01*
X170099260Y-72797684D01*
X170070941Y-72618886D01*
X170070940Y-72618882D01*
X170012547Y-72439168D01*
X169926760Y-72270801D01*
X169815690Y-72117927D01*
X169682073Y-71984310D01*
X169529199Y-71873240D01*
X169529198Y-71873239D01*
X169529196Y-71873238D01*
X169360832Y-71787453D01*
X169181113Y-71729058D01*
X168994484Y-71699500D01*
X168994481Y-71699500D01*
X168805519Y-71699500D01*
X168805515Y-71699500D01*
X168665983Y-71721598D01*
X168665984Y-71721599D01*
X168661234Y-71722351D01*
X168640785Y-71723582D01*
X168621432Y-71728655D01*
X168618881Y-71729060D01*
X168617360Y-71729554D01*
X168611895Y-71731156D01*
X166963832Y-72163263D01*
X166938724Y-72166500D01*
X164786915Y-72166500D01*
X164742230Y-72155842D01*
X164178216Y-71870554D01*
X164178216Y-71870553D01*
X164170796Y-71866800D01*
X164167282Y-71864207D01*
X164162042Y-71862373D01*
X164156217Y-71859427D01*
X164156216Y-71859426D01*
X164156215Y-71859426D01*
X164146777Y-71854652D01*
X164146772Y-71854650D01*
X164105179Y-71842349D01*
X164100560Y-71840859D01*
X164063321Y-71827829D01*
X164039099Y-71819354D01*
X164039097Y-71819353D01*
X164039098Y-71819353D01*
X164008674Y-71816500D01*
X164008666Y-71816500D01*
X160400134Y-71816500D01*
X160400125Y-71816500D01*
X160369705Y-71819353D01*
X160369696Y-71819355D01*
X160241516Y-71864207D01*
X160132255Y-71944845D01*
X160132245Y-71944855D01*
X160051607Y-72054116D01*
X160006755Y-72182296D01*
X160006753Y-72182305D01*
X160003900Y-72212725D01*
X146404899Y-72212725D01*
X146402046Y-72182305D01*
X146402046Y-72182301D01*
X146357193Y-72054118D01*
X146276550Y-71944850D01*
X146276546Y-71944847D01*
X146276544Y-71944845D01*
X146167283Y-71864207D01*
X146039103Y-71819355D01*
X146039094Y-71819353D01*
X146008674Y-71816500D01*
X146008666Y-71816500D01*
X142400134Y-71816500D01*
X142400125Y-71816500D01*
X142369703Y-71819353D01*
X142308196Y-71840873D01*
X142308197Y-71840874D01*
X142305896Y-71841679D01*
X142262026Y-71854650D01*
X142246753Y-71862374D01*
X142245903Y-71862671D01*
X142241518Y-71864206D01*
X142237096Y-71866543D01*
X142230595Y-71870547D01*
X141867681Y-72054116D01*
X141711195Y-72133270D01*
X141666570Y-72155842D01*
X141621885Y-72166500D01*
X133184856Y-72166500D01*
X133098974Y-72189512D01*
X133098971Y-72189512D01*
X133095718Y-72190383D01*
X133095715Y-72190384D01*
X133015788Y-72236530D01*
X130367955Y-74884361D01*
X130347348Y-74900153D01*
X129895577Y-75160258D01*
X129889750Y-75163743D01*
X129889143Y-75164119D01*
X129889124Y-75164134D01*
X129885245Y-75167872D01*
X129866064Y-75182310D01*
X129846684Y-75193500D01*
X129753500Y-75286685D01*
X129753496Y-75286690D01*
X129687609Y-75400809D01*
X129687608Y-75400814D01*
X129653500Y-75528108D01*
X114503272Y-75528108D01*
X114747523Y-75333325D01*
X114985825Y-75095023D01*
X114990506Y-75089154D01*
X115195941Y-74831545D01*
X115195946Y-74831539D01*
X115375246Y-74546186D01*
X115521469Y-74242551D01*
X115632776Y-73924454D01*
X115707767Y-73595894D01*
X115745500Y-73261004D01*
X115745500Y-72923996D01*
X115707767Y-72589106D01*
X115632776Y-72260546D01*
X115624372Y-72236530D01*
X115521469Y-71942450D01*
X115521469Y-71942449D01*
X115375246Y-71638814D01*
X115195946Y-71353461D01*
X115195943Y-71353457D01*
X115195941Y-71353454D01*
X114985834Y-71089987D01*
X114985828Y-71089981D01*
X114985825Y-71089977D01*
X114747523Y-70851675D01*
X114747518Y-70851671D01*
X114747512Y-70851665D01*
X114484045Y-70641558D01*
X114484042Y-70641556D01*
X114198683Y-70462252D01*
X114198671Y-70462246D01*
X113895051Y-70316031D01*
X113895049Y-70316030D01*
X113807639Y-70285444D01*
X113758959Y-70248379D01*
X113741362Y-70189779D01*
X113761570Y-70132027D01*
X113811865Y-70097183D01*
X113840337Y-70093000D01*
X185649663Y-70093000D01*
X185707854Y-70111907D01*
G37*
%TD.AperFunction*%
%TD*%
%TA.AperFunction,Conductor*%
%TO.N,/MCU_STATE*%
G36*
X140782017Y-79706055D02*
G01*
X140789445Y-79711054D01*
X140791164Y-79719842D01*
X140790994Y-79720564D01*
X140652331Y-80235578D01*
X140646871Y-80242676D01*
X140641033Y-80244236D01*
X140358967Y-80244236D01*
X140350694Y-80240809D01*
X140347669Y-80235578D01*
X140209005Y-79720564D01*
X140210163Y-79711684D01*
X140217261Y-79706224D01*
X140217953Y-79706060D01*
X140497682Y-79649469D01*
X140502318Y-79649469D01*
X140782017Y-79706055D01*
G37*
%TD.AperFunction*%
%TD*%
%TA.AperFunction,Conductor*%
%TO.N,/MCU_MODE*%
G36*
X141570564Y-80226005D02*
G01*
X141603910Y-80234983D01*
X142085579Y-80364669D01*
X142092676Y-80370128D01*
X142094236Y-80375966D01*
X142094236Y-80658033D01*
X142090809Y-80666306D01*
X142085578Y-80669331D01*
X141570564Y-80807994D01*
X141561684Y-80806836D01*
X141556224Y-80799738D01*
X141556059Y-80799039D01*
X141499469Y-80519318D01*
X141499469Y-80514680D01*
X141556055Y-80234980D01*
X141561054Y-80227554D01*
X141569842Y-80225835D01*
X141570564Y-80226005D01*
G37*
%TD.AperFunction*%
%TD*%
%TA.AperFunction,Conductor*%
%TO.N,/SPI_MOSI*%
G36*
X162161929Y-84505678D02*
G01*
X162169071Y-84511079D01*
X162170302Y-84519949D01*
X162164901Y-84527091D01*
X162161929Y-84528322D01*
X160363010Y-84996854D01*
X160354780Y-84995972D01*
X159710819Y-84670246D01*
X159704983Y-84663454D01*
X159704400Y-84659806D01*
X159704400Y-84374193D01*
X159707827Y-84365920D01*
X159710819Y-84363753D01*
X160354781Y-84038026D01*
X160363010Y-84037145D01*
X162161929Y-84505678D01*
G37*
%TD.AperFunction*%
%TD*%
%TA.AperFunction,Conductor*%
%TO.N,/MCU_MODE*%
G36*
X144161929Y-80505678D02*
G01*
X144169071Y-80511079D01*
X144170302Y-80519949D01*
X144164901Y-80527091D01*
X144161929Y-80528322D01*
X142363010Y-80996854D01*
X142354780Y-80995972D01*
X141710819Y-80670246D01*
X141704983Y-80663454D01*
X141704400Y-80659806D01*
X141704400Y-80374193D01*
X141707827Y-80365920D01*
X141710819Y-80363753D01*
X142354781Y-80038026D01*
X142363010Y-80037145D01*
X144161929Y-80505678D01*
G37*
%TD.AperFunction*%
%TD*%
%TA.AperFunction,Conductor*%
%TO.N,/SPI_MISO*%
G36*
X162161929Y-82505678D02*
G01*
X162169071Y-82511079D01*
X162170302Y-82519949D01*
X162164901Y-82527091D01*
X162161929Y-82528322D01*
X160363010Y-82996854D01*
X160354780Y-82995972D01*
X159710819Y-82670246D01*
X159704983Y-82663454D01*
X159704400Y-82659806D01*
X159704400Y-82374193D01*
X159707827Y-82365920D01*
X159710819Y-82363753D01*
X160354781Y-82038026D01*
X160363010Y-82037145D01*
X162161929Y-82505678D01*
G37*
%TD.AperFunction*%
%TD*%
%TA.AperFunction,Conductor*%
%TO.N,/MCU_RXD*%
G36*
X144161929Y-74505678D02*
G01*
X144169071Y-74511079D01*
X144170302Y-74519949D01*
X144164901Y-74527091D01*
X144161929Y-74528322D01*
X142363010Y-74996854D01*
X142354780Y-74995972D01*
X141710819Y-74670246D01*
X141704983Y-74663454D01*
X141704400Y-74659806D01*
X141704400Y-74374193D01*
X141707827Y-74365920D01*
X141710819Y-74363753D01*
X142354781Y-74038026D01*
X142363010Y-74037145D01*
X144161929Y-74505678D01*
G37*
%TD.AperFunction*%
%TD*%
%TA.AperFunction,Conductor*%
%TO.N,/MCU_TXD*%
G36*
X130474462Y-75074086D02*
G01*
X130673913Y-75273537D01*
X130677340Y-75281810D01*
X130675780Y-75287648D01*
X130409660Y-75749867D01*
X130402562Y-75755327D01*
X130393682Y-75754169D01*
X130393052Y-75753778D01*
X130155265Y-75596015D01*
X130151984Y-75592734D01*
X129994221Y-75354947D01*
X129992502Y-75346159D01*
X129997502Y-75338730D01*
X129998132Y-75338339D01*
X130460353Y-75072218D01*
X130469231Y-75071061D01*
X130474462Y-75074086D01*
G37*
%TD.AperFunction*%
%TD*%
%TA.AperFunction,Conductor*%
%TO.N,/MCU_RXD*%
G36*
X130600462Y-76750086D02*
G01*
X130799913Y-76949537D01*
X130803340Y-76957810D01*
X130801780Y-76963648D01*
X130535660Y-77425867D01*
X130528562Y-77431327D01*
X130519682Y-77430169D01*
X130519052Y-77429778D01*
X130281265Y-77272015D01*
X130277984Y-77268734D01*
X130120221Y-77030947D01*
X130118502Y-77022159D01*
X130123502Y-77014730D01*
X130124132Y-77014339D01*
X130586353Y-76748218D01*
X130595231Y-76747061D01*
X130600462Y-76750086D01*
G37*
%TD.AperFunction*%
%TD*%
%TA.AperFunction,Conductor*%
%TO.N,/SPI_SCLK*%
G36*
X162161929Y-80505678D02*
G01*
X162169071Y-80511079D01*
X162170302Y-80519949D01*
X162164901Y-80527091D01*
X162161929Y-80528322D01*
X160363010Y-80996854D01*
X160354780Y-80995972D01*
X159710819Y-80670246D01*
X159704983Y-80663454D01*
X159704400Y-80659806D01*
X159704400Y-80374193D01*
X159707827Y-80365920D01*
X159710819Y-80363753D01*
X160354781Y-80038026D01*
X160363010Y-80037145D01*
X162161929Y-80505678D01*
G37*
%TD.AperFunction*%
%TD*%
%TA.AperFunction,Conductor*%
%TO.N,Net-(U1-EN)*%
G36*
X163397167Y-76905575D02*
G01*
X163403974Y-76911394D01*
X163404671Y-76920321D01*
X163400202Y-76926322D01*
X163091320Y-77140000D01*
X163091320Y-77422822D01*
X163087893Y-77431095D01*
X163079620Y-77434522D01*
X163075336Y-77433710D01*
X162026956Y-77021212D01*
X162020512Y-77014994D01*
X162020282Y-77006225D01*
X162199473Y-76527490D01*
X162205583Y-76520944D01*
X162214051Y-76520467D01*
X163397167Y-76905575D01*
G37*
%TD.AperFunction*%
%TD*%
%TA.AperFunction,Conductor*%
%TO.N,/SPI_CSEL*%
G36*
X162161929Y-78505678D02*
G01*
X162169071Y-78511079D01*
X162170302Y-78519949D01*
X162164901Y-78527091D01*
X162161929Y-78528322D01*
X160363010Y-78996854D01*
X160354780Y-78995972D01*
X159710819Y-78670246D01*
X159704983Y-78663454D01*
X159704400Y-78659806D01*
X159704400Y-78374193D01*
X159707827Y-78365920D01*
X159710819Y-78363753D01*
X160354781Y-78038026D01*
X160363010Y-78037145D01*
X162161929Y-78505678D01*
G37*
%TD.AperFunction*%
%TD*%
%TA.AperFunction,Conductor*%
%TO.N,/MCU_RXD*%
G36*
X130126507Y-89513357D02*
G01*
X130652793Y-89865801D01*
X130776945Y-89948944D01*
X130781913Y-89956394D01*
X130781097Y-89963483D01*
X130273110Y-91087746D01*
X130266581Y-91093874D01*
X130262448Y-91094628D01*
X129977552Y-91094628D01*
X129969279Y-91091201D01*
X129966890Y-91087746D01*
X129458901Y-89963481D01*
X129458618Y-89954532D01*
X129463053Y-89948945D01*
X130113491Y-89513358D01*
X130122271Y-89511602D01*
X130126507Y-89513357D01*
G37*
%TD.AperFunction*%
%TD*%
%TA.AperFunction,Conductor*%
%TO.N,/ADC_START*%
G36*
X141870462Y-85180086D02*
G01*
X142069913Y-85379537D01*
X142073340Y-85387810D01*
X142071780Y-85393648D01*
X141805660Y-85855867D01*
X141798562Y-85861327D01*
X141789682Y-85860169D01*
X141789052Y-85859778D01*
X141551265Y-85702015D01*
X141547984Y-85698734D01*
X141390221Y-85460947D01*
X141388502Y-85452159D01*
X141393502Y-85444730D01*
X141394132Y-85444339D01*
X141856353Y-85178218D01*
X141865231Y-85177061D01*
X141870462Y-85180086D01*
G37*
%TD.AperFunction*%
%TD*%
%TA.AperFunction,Conductor*%
%TO.N,/SPI_MISO*%
G36*
X153171073Y-100609191D02*
G01*
X153174500Y-100617464D01*
X153174500Y-100665894D01*
X153208606Y-100793184D01*
X153208608Y-100793188D01*
X153239421Y-100846556D01*
X153240587Y-100849364D01*
X153315994Y-101129435D01*
X153314836Y-101138315D01*
X153307738Y-101143775D01*
X153307016Y-101143945D01*
X153027320Y-101200530D01*
X153022680Y-101200530D01*
X152742983Y-101143945D01*
X152735554Y-101138945D01*
X152733835Y-101130157D01*
X152734005Y-101129435D01*
X152809414Y-100849354D01*
X152810572Y-100846566D01*
X152841392Y-100793186D01*
X152875500Y-100665892D01*
X152875500Y-100617464D01*
X152878927Y-100609191D01*
X152887200Y-100605764D01*
X153162800Y-100605764D01*
X153171073Y-100609191D01*
G37*
%TD.AperFunction*%
%TD*%
%TA.AperFunction,Conductor*%
%TO.N,Net-(U1-RST)*%
G36*
X168701774Y-71923579D02*
G01*
X168707187Y-71930713D01*
X168707343Y-71931386D01*
X168900047Y-72895235D01*
X168898309Y-72904020D01*
X168898297Y-72904037D01*
X168351472Y-73720949D01*
X168344022Y-73725918D01*
X168335241Y-73724164D01*
X168334496Y-73723622D01*
X167001497Y-72670513D01*
X166997130Y-72662695D01*
X166997050Y-72661332D01*
X166997050Y-72376027D01*
X167000477Y-72367754D01*
X167005782Y-72364710D01*
X168692903Y-71922363D01*
X168701774Y-71923579D01*
G37*
%TD.AperFunction*%
%TD*%
%TA.AperFunction,Conductor*%
%TO.N,/ADC_RESET*%
G36*
X155774306Y-103384191D02*
G01*
X155777331Y-103389422D01*
X155915994Y-103904435D01*
X155914836Y-103913315D01*
X155907738Y-103918775D01*
X155907016Y-103918945D01*
X155627320Y-103975530D01*
X155622680Y-103975530D01*
X155342983Y-103918945D01*
X155335554Y-103913945D01*
X155333835Y-103905157D01*
X155334005Y-103904435D01*
X155472669Y-103389422D01*
X155478129Y-103382324D01*
X155483967Y-103380764D01*
X155766033Y-103380764D01*
X155774306Y-103384191D01*
G37*
%TD.AperFunction*%
%TD*%
%TA.AperFunction,Conductor*%
%TO.N,/MCU_TXD*%
G36*
X144161929Y-72505678D02*
G01*
X144169071Y-72511079D01*
X144170302Y-72519949D01*
X144164901Y-72527091D01*
X144161929Y-72528322D01*
X142363010Y-72996854D01*
X142354780Y-72995972D01*
X141710819Y-72670246D01*
X141704983Y-72663454D01*
X141704400Y-72659806D01*
X141704400Y-72374193D01*
X141707827Y-72365920D01*
X141710819Y-72363753D01*
X142354781Y-72038026D01*
X142363010Y-72037145D01*
X144161929Y-72505678D01*
G37*
%TD.AperFunction*%
%TD*%
%TA.AperFunction,Conductor*%
%TO.N,/ADC_START*%
G36*
X144202870Y-84519923D02*
G01*
X144206873Y-84526956D01*
X144286184Y-85005589D01*
X144284155Y-85014311D01*
X144276686Y-85019022D01*
X142053284Y-85413785D01*
X142044540Y-85411857D01*
X142042966Y-85410538D01*
X141842163Y-85209735D01*
X141838736Y-85201462D01*
X141840920Y-85194655D01*
X142201258Y-84691292D01*
X142208860Y-84686561D01*
X142209765Y-84686447D01*
X144194337Y-84517211D01*
X144202870Y-84519923D01*
G37*
%TD.AperFunction*%
%TD*%
%TA.AperFunction,Conductor*%
%TO.N,/SPI_SCLK*%
G36*
X156910564Y-80226005D02*
G01*
X156943910Y-80234983D01*
X157425579Y-80364669D01*
X157432676Y-80370128D01*
X157434236Y-80375966D01*
X157434236Y-80658033D01*
X157430809Y-80666306D01*
X157425578Y-80669331D01*
X156910564Y-80807994D01*
X156901684Y-80806836D01*
X156896224Y-80799738D01*
X156896059Y-80799039D01*
X156839469Y-80519318D01*
X156839469Y-80514680D01*
X156896055Y-80234980D01*
X156901054Y-80227554D01*
X156909842Y-80225835D01*
X156910564Y-80226005D01*
G37*
%TD.AperFunction*%
%TD*%
%TA.AperFunction,Conductor*%
%TO.N,/ADC_RESET*%
G36*
X154955269Y-102043502D02*
G01*
X154955660Y-102044132D01*
X155221780Y-102506351D01*
X155222938Y-102515231D01*
X155219913Y-102520462D01*
X155020462Y-102719913D01*
X155012189Y-102723340D01*
X155006351Y-102721780D01*
X154544132Y-102455660D01*
X154538672Y-102448562D01*
X154539830Y-102439682D01*
X154540210Y-102439068D01*
X154697985Y-102201263D01*
X154701263Y-102197985D01*
X154939053Y-102040220D01*
X154947840Y-102038502D01*
X154955269Y-102043502D01*
G37*
%TD.AperFunction*%
%TD*%
%TA.AperFunction,Conductor*%
%TO.N,/+5v*%
G36*
X156033056Y-97737025D02*
G01*
X156040485Y-97742025D01*
X156042259Y-97750520D01*
X155951702Y-98265323D01*
X155946894Y-98272877D01*
X155940179Y-98274996D01*
X155559821Y-98274996D01*
X155551548Y-98271569D01*
X155548298Y-98265323D01*
X155457740Y-97750520D01*
X155459682Y-97741778D01*
X155466942Y-97737025D01*
X155747682Y-97680229D01*
X155752318Y-97680229D01*
X156033056Y-97737025D01*
G37*
%TD.AperFunction*%
%TD*%
%TA.AperFunction,Conductor*%
%TO.N,/MCU_RXD*%
G36*
X133571055Y-92103054D02*
G01*
X134006640Y-92753490D01*
X134008397Y-92762271D01*
X134006640Y-92766510D01*
X133571055Y-93416945D01*
X133563605Y-93421913D01*
X133556516Y-93421097D01*
X132432254Y-92913109D01*
X132426126Y-92906580D01*
X132425372Y-92902447D01*
X132425372Y-92617552D01*
X132428799Y-92609279D01*
X132432252Y-92606891D01*
X133556518Y-92098901D01*
X133565467Y-92098618D01*
X133571055Y-92103054D01*
G37*
%TD.AperFunction*%
%TD*%
%TA.AperFunction,Conductor*%
%TO.N,/+5v*%
G36*
X156035710Y-97126095D02*
G01*
X156304664Y-97395049D01*
X156308091Y-97403322D01*
X156305972Y-97410037D01*
X156005986Y-97838091D01*
X155998432Y-97842899D01*
X155989937Y-97841125D01*
X155751265Y-97682775D01*
X155747984Y-97679494D01*
X155589634Y-97440822D01*
X155587915Y-97432034D01*
X155592666Y-97424775D01*
X156020724Y-97124786D01*
X156029464Y-97122845D01*
X156035710Y-97126095D01*
G37*
%TD.AperFunction*%
%TD*%
%TA.AperFunction,Conductor*%
%TO.N,/SPI_CSEL*%
G36*
X156189306Y-80659191D02*
G01*
X156192331Y-80664422D01*
X156330994Y-81179435D01*
X156329836Y-81188315D01*
X156322738Y-81193775D01*
X156322016Y-81193945D01*
X156042320Y-81250530D01*
X156037680Y-81250530D01*
X155757983Y-81193945D01*
X155750554Y-81188945D01*
X155748835Y-81180157D01*
X155749005Y-81179435D01*
X155887669Y-80664422D01*
X155893129Y-80657324D01*
X155898967Y-80655764D01*
X156181033Y-80655764D01*
X156189306Y-80659191D01*
G37*
%TD.AperFunction*%
%TD*%
%TA.AperFunction,Conductor*%
%TO.N,/+3.3v*%
G36*
X165838981Y-87409682D02*
G01*
X165843734Y-87416943D01*
X165900530Y-87697680D01*
X165900530Y-87702320D01*
X165843734Y-87983056D01*
X165838734Y-87990485D01*
X165830239Y-87992259D01*
X165315437Y-87901701D01*
X165307883Y-87896893D01*
X165305764Y-87890178D01*
X165305764Y-87509821D01*
X165309191Y-87501548D01*
X165315435Y-87498298D01*
X165830239Y-87407740D01*
X165838981Y-87409682D01*
G37*
%TD.AperFunction*%
%TD*%
%TA.AperFunction,Conductor*%
%TO.N,/AINCOM*%
G36*
X152398890Y-121072543D02*
G01*
X152406983Y-121076375D01*
X152409527Y-121080897D01*
X152853485Y-122575237D01*
X152852556Y-122584143D01*
X152850542Y-122586842D01*
X152506842Y-122930542D01*
X152498569Y-122933969D01*
X152495238Y-122933485D01*
X151000897Y-122489527D01*
X150993942Y-122483885D01*
X150992543Y-122478890D01*
X150919931Y-121012194D01*
X150922945Y-121003763D01*
X150931038Y-120999931D01*
X150932180Y-120999931D01*
X152398890Y-121072543D01*
G37*
%TD.AperFunction*%
%TD*%
%TA.AperFunction,Conductor*%
%TO.N,/AINCOM*%
G36*
X171171306Y-118516260D02*
G01*
X171173320Y-118518959D01*
X171916051Y-119889542D01*
X171916979Y-119898448D01*
X171914436Y-119902970D01*
X170928672Y-120991424D01*
X170920579Y-120995256D01*
X170912146Y-120992242D01*
X170911328Y-120991424D01*
X169925563Y-119902970D01*
X169922549Y-119894537D01*
X169923948Y-119889542D01*
X170666680Y-118518959D01*
X170673635Y-118513317D01*
X170676967Y-118512833D01*
X171163033Y-118512833D01*
X171171306Y-118516260D01*
G37*
%TD.AperFunction*%
%TD*%
%TA.AperFunction,Conductor*%
%TO.N,/SPI_MOSI*%
G36*
X153824306Y-100009191D02*
G01*
X153827331Y-100014422D01*
X153965994Y-100529435D01*
X153964836Y-100538315D01*
X153957738Y-100543775D01*
X153957016Y-100543945D01*
X153677320Y-100600530D01*
X153672680Y-100600530D01*
X153392983Y-100543945D01*
X153385554Y-100538945D01*
X153383835Y-100530157D01*
X153384005Y-100529435D01*
X153522669Y-100014422D01*
X153528129Y-100007324D01*
X153533967Y-100005764D01*
X153816033Y-100005764D01*
X153824306Y-100009191D01*
G37*
%TD.AperFunction*%
%TD*%
%TA.AperFunction,Conductor*%
%TO.N,/ADC_RESET*%
G36*
X150944646Y-80429218D02*
G01*
X151229798Y-80593392D01*
X151406867Y-80695339D01*
X151412327Y-80702437D01*
X151411169Y-80711317D01*
X151410778Y-80711947D01*
X151253015Y-80949734D01*
X151249734Y-80953015D01*
X151011947Y-81110778D01*
X151003159Y-81112497D01*
X150995730Y-81107497D01*
X150995339Y-81106867D01*
X150767966Y-80711947D01*
X150729218Y-80644646D01*
X150728061Y-80635768D01*
X150731084Y-80630539D01*
X150930538Y-80431085D01*
X150938810Y-80427659D01*
X150944646Y-80429218D01*
G37*
%TD.AperFunction*%
%TD*%
%TA.AperFunction,Conductor*%
%TO.N,/ADC_RESET*%
G36*
X146054019Y-76038027D02*
G01*
X146697981Y-76363753D01*
X146703817Y-76370545D01*
X146704400Y-76374193D01*
X146704400Y-76659806D01*
X146700973Y-76668079D01*
X146697981Y-76670246D01*
X146054019Y-76995972D01*
X146045789Y-76996854D01*
X144517814Y-76598890D01*
X144246869Y-76528321D01*
X144239728Y-76522921D01*
X144238497Y-76514051D01*
X144243898Y-76506909D01*
X144246869Y-76505678D01*
X146045789Y-76037145D01*
X146054019Y-76038027D01*
G37*
%TD.AperFunction*%
%TD*%
%TA.AperFunction,Conductor*%
%TO.N,/+5v*%
G36*
X170938981Y-96109682D02*
G01*
X170943734Y-96116943D01*
X171000530Y-96397680D01*
X171000530Y-96402320D01*
X170943734Y-96683056D01*
X170938734Y-96690485D01*
X170930239Y-96692259D01*
X170415437Y-96601701D01*
X170407883Y-96596893D01*
X170405764Y-96590178D01*
X170405764Y-96209821D01*
X170409191Y-96201548D01*
X170415435Y-96198298D01*
X170930239Y-96107740D01*
X170938981Y-96109682D01*
G37*
%TD.AperFunction*%
%TD*%
%TA.AperFunction,Conductor*%
%TO.N,/AINCOM*%
G36*
X160583499Y-100649113D02*
G01*
X160591462Y-100653209D01*
X160594236Y-100660773D01*
X160594236Y-101139226D01*
X160590809Y-101147499D01*
X160583499Y-101150886D01*
X160068895Y-101193379D01*
X160060368Y-101190645D01*
X160056464Y-101184039D01*
X159999469Y-100902320D01*
X159999469Y-100897680D01*
X160049578Y-100650000D01*
X160056464Y-100615959D01*
X160061464Y-100608531D01*
X160068894Y-100606620D01*
X160583499Y-100649113D01*
G37*
%TD.AperFunction*%
%TD*%
%TA.AperFunction,Conductor*%
%TO.N,/ADC_DRDY*%
G36*
X146095725Y-78066216D02*
G01*
X146299161Y-78186221D01*
X146771862Y-78465064D01*
X146777245Y-78472218D01*
X146775993Y-78481085D01*
X146774189Y-78483413D01*
X146573758Y-78683844D01*
X146571498Y-78685608D01*
X146054284Y-78995446D01*
X146045425Y-78996758D01*
X146045318Y-78996730D01*
X144248933Y-78528095D01*
X144241792Y-78522691D01*
X144240565Y-78513821D01*
X144245969Y-78506680D01*
X144249156Y-78505396D01*
X146087053Y-78064915D01*
X146095725Y-78066216D01*
G37*
%TD.AperFunction*%
%TD*%
%TA.AperFunction,Conductor*%
%TO.N,Net-(U1-EN)*%
G36*
X164538315Y-77000163D02*
G01*
X164543775Y-77007261D01*
X164543945Y-77007983D01*
X164600530Y-77287680D01*
X164600530Y-77292320D01*
X164543945Y-77572016D01*
X164538945Y-77579445D01*
X164530157Y-77581164D01*
X164529435Y-77580994D01*
X164014422Y-77442331D01*
X164007324Y-77436871D01*
X164005764Y-77431033D01*
X164005764Y-77148966D01*
X164009191Y-77140693D01*
X164014419Y-77137669D01*
X164529435Y-76999005D01*
X164538315Y-77000163D01*
G37*
%TD.AperFunction*%
%TD*%
%TA.AperFunction,Conductor*%
%TO.N,/AINCOM*%
G36*
X150916236Y-121002945D02*
G01*
X150920068Y-121011038D01*
X150920068Y-121012196D01*
X150847456Y-122478890D01*
X150843624Y-122486983D01*
X150839102Y-122489527D01*
X149344762Y-122933485D01*
X149335856Y-122932556D01*
X149333157Y-122930542D01*
X148989457Y-122586842D01*
X148986030Y-122578569D01*
X148986512Y-122575245D01*
X149430473Y-121080895D01*
X149436114Y-121073942D01*
X149441107Y-121072543D01*
X150907805Y-120999931D01*
X150916236Y-121002945D01*
G37*
%TD.AperFunction*%
%TD*%
%TA.AperFunction,Conductor*%
%TO.N,/ADC_DRDY*%
G36*
X148223646Y-79908218D02*
G01*
X148508798Y-80072392D01*
X148685867Y-80174339D01*
X148691327Y-80181437D01*
X148690169Y-80190317D01*
X148689778Y-80190947D01*
X148532015Y-80428734D01*
X148528734Y-80432015D01*
X148290947Y-80589778D01*
X148282159Y-80591497D01*
X148274730Y-80586497D01*
X148274339Y-80585867D01*
X148046966Y-80190947D01*
X148008218Y-80123646D01*
X148007061Y-80114768D01*
X148010084Y-80109539D01*
X148209538Y-79910085D01*
X148217810Y-79906659D01*
X148223646Y-79908218D01*
G37*
%TD.AperFunction*%
%TD*%
%TA.AperFunction,Conductor*%
%TO.N,Net-(D1-K)*%
G36*
X126371292Y-84977413D02*
G01*
X127566853Y-85526868D01*
X127572939Y-85533437D01*
X127573667Y-85537499D01*
X127573667Y-85822500D01*
X127570240Y-85830773D01*
X127566853Y-85833131D01*
X126371295Y-86382585D01*
X126362347Y-86382926D01*
X126356687Y-86378464D01*
X125991535Y-85833131D01*
X125893358Y-85686509D01*
X125891604Y-85677729D01*
X125893359Y-85673490D01*
X125984418Y-85537499D01*
X126356688Y-84981533D01*
X126364138Y-84976568D01*
X126371292Y-84977413D01*
G37*
%TD.AperFunction*%
%TD*%
%TA.AperFunction,Conductor*%
%TO.N,/ADC_DRDY*%
G36*
X148785269Y-80273502D02*
G01*
X148785660Y-80274132D01*
X149051780Y-80736351D01*
X149052938Y-80745231D01*
X149049913Y-80750462D01*
X148850462Y-80949913D01*
X148842189Y-80953340D01*
X148836351Y-80951780D01*
X148374132Y-80685660D01*
X148368672Y-80678562D01*
X148369830Y-80669682D01*
X148370210Y-80669068D01*
X148527985Y-80431263D01*
X148531263Y-80427985D01*
X148769053Y-80270220D01*
X148777840Y-80268502D01*
X148785269Y-80273502D01*
G37*
%TD.AperFunction*%
%TD*%
%TA.AperFunction,Conductor*%
%TO.N,/MCU_STATE*%
G36*
X141985777Y-81706346D02*
G01*
X144239021Y-82011872D01*
X144265152Y-82015416D01*
X144272890Y-82019923D01*
X144275174Y-82028582D01*
X144275162Y-82028669D01*
X144206607Y-82507234D01*
X144202041Y-82514938D01*
X144194537Y-82517265D01*
X142209531Y-82434361D01*
X142201408Y-82430592D01*
X142201096Y-82430238D01*
X141774858Y-81925916D01*
X141772136Y-81917388D01*
X141775521Y-81910094D01*
X141975948Y-81709667D01*
X141984220Y-81706241D01*
X141985777Y-81706346D01*
G37*
%TD.AperFunction*%
%TD*%
%TA.AperFunction,Conductor*%
%TO.N,Net-(U1-RST)*%
G36*
X164054019Y-72038027D02*
G01*
X164697981Y-72363753D01*
X164703817Y-72370545D01*
X164704400Y-72374193D01*
X164704400Y-72659806D01*
X164700973Y-72668079D01*
X164697981Y-72670246D01*
X164054019Y-72995972D01*
X164045789Y-72996854D01*
X162517814Y-72598890D01*
X162246869Y-72528321D01*
X162239728Y-72522921D01*
X162238497Y-72514051D01*
X162243898Y-72506909D01*
X162246869Y-72505678D01*
X164045789Y-72037145D01*
X164054019Y-72038027D01*
G37*
%TD.AperFunction*%
%TD*%
%TA.AperFunction,Conductor*%
%TO.N,/+3.3v*%
G36*
X163395337Y-87010297D02*
G01*
X163401666Y-87016630D01*
X163401663Y-87025585D01*
X163399128Y-87029377D01*
X163199374Y-87229132D01*
X162922687Y-87505818D01*
X162914414Y-87509245D01*
X162908868Y-87507847D01*
X162391254Y-87229132D01*
X162006586Y-87022003D01*
X162000926Y-87015063D01*
X162001316Y-87007242D01*
X162199225Y-86527131D01*
X162205546Y-86520788D01*
X162214499Y-86520773D01*
X163395337Y-87010297D01*
G37*
%TD.AperFunction*%
%TD*%
%TA.AperFunction,Conductor*%
%TO.N,/+5v*%
G36*
X157138981Y-101109682D02*
G01*
X157143734Y-101116943D01*
X157200530Y-101397680D01*
X157200530Y-101402320D01*
X157143734Y-101683056D01*
X157138734Y-101690485D01*
X157130239Y-101692259D01*
X156615437Y-101601701D01*
X156607883Y-101596893D01*
X156605764Y-101590178D01*
X156605764Y-101209821D01*
X156609191Y-101201548D01*
X156615435Y-101198298D01*
X157130239Y-101107740D01*
X157138981Y-101109682D01*
G37*
%TD.AperFunction*%
%TD*%
%TA.AperFunction,Conductor*%
%TO.N,Net-(D1-K)*%
G36*
X130127460Y-81895177D02*
G01*
X130688324Y-82359593D01*
X130892877Y-82528970D01*
X130897064Y-82536886D01*
X130895175Y-82544435D01*
X130273469Y-83484753D01*
X130266047Y-83489764D01*
X130263709Y-83490000D01*
X129976291Y-83490000D01*
X129968018Y-83486573D01*
X129966531Y-83484753D01*
X129344824Y-82544435D01*
X129343120Y-82535644D01*
X129347121Y-82528971D01*
X130112539Y-81895177D01*
X130121096Y-81892541D01*
X130127460Y-81895177D01*
G37*
%TD.AperFunction*%
%TD*%
%TA.AperFunction,Conductor*%
%TO.N,/ADC_DRDY*%
G36*
X152524306Y-100009191D02*
G01*
X152527331Y-100014422D01*
X152665994Y-100529435D01*
X152664836Y-100538315D01*
X152657738Y-100543775D01*
X152657016Y-100543945D01*
X152377320Y-100600530D01*
X152372680Y-100600530D01*
X152092983Y-100543945D01*
X152085554Y-100538945D01*
X152083835Y-100530157D01*
X152084005Y-100529435D01*
X152222669Y-100014422D01*
X152228129Y-100007324D01*
X152233967Y-100005764D01*
X152516033Y-100005764D01*
X152524306Y-100009191D01*
G37*
%TD.AperFunction*%
%TD*%
%TA.AperFunction,Conductor*%
%TO.N,/AINCOM*%
G36*
X170916236Y-121002945D02*
G01*
X170920068Y-121011038D01*
X170920068Y-121012196D01*
X170847456Y-122478890D01*
X170843624Y-122486983D01*
X170839102Y-122489527D01*
X169344762Y-122933485D01*
X169335856Y-122932556D01*
X169333157Y-122930542D01*
X168989457Y-122586842D01*
X168986030Y-122578569D01*
X168986512Y-122575245D01*
X169430473Y-121080895D01*
X169436114Y-121073942D01*
X169441107Y-121072543D01*
X170907805Y-120999931D01*
X170916236Y-121002945D01*
G37*
%TD.AperFunction*%
%TD*%
%TA.AperFunction,Conductor*%
%TO.N,/AINCOM*%
G36*
X132398890Y-121072543D02*
G01*
X132406983Y-121076375D01*
X132409527Y-121080897D01*
X132853485Y-122575237D01*
X132852556Y-122584143D01*
X132850542Y-122586842D01*
X132506842Y-122930542D01*
X132498569Y-122933969D01*
X132495238Y-122933485D01*
X131000897Y-122489527D01*
X130993942Y-122483885D01*
X130992543Y-122478890D01*
X130919931Y-121012194D01*
X130922945Y-121003763D01*
X130931038Y-120999931D01*
X130932180Y-120999931D01*
X132398890Y-121072543D01*
G37*
%TD.AperFunction*%
%TD*%
M02*
