%TF.GenerationSoftware,KiCad,Pcbnew,7.0.9*%
%TF.CreationDate,2023-12-07T12:09:41+08:00*%
%TF.ProjectId,Explorer,4578706c-6f72-4657-922e-6b696361645f,rev?*%
%TF.SameCoordinates,Original*%
%TF.FileFunction,Soldermask,Top*%
%TF.FilePolarity,Negative*%
%FSLAX46Y46*%
G04 Gerber Fmt 4.6, Leading zero omitted, Abs format (unit mm)*
G04 Created by KiCad (PCBNEW 7.0.9) date 2023-12-07 12:09:41*
%MOMM*%
%LPD*%
G01*
G04 APERTURE LIST*
G04 Aperture macros list*
%AMRoundRect*
0 Rectangle with rounded corners*
0 $1 Rounding radius*
0 $2 $3 $4 $5 $6 $7 $8 $9 X,Y pos of 4 corners*
0 Add a 4 corners polygon primitive as box body*
4,1,4,$2,$3,$4,$5,$6,$7,$8,$9,$2,$3,0*
0 Add four circle primitives for the rounded corners*
1,1,$1+$1,$2,$3*
1,1,$1+$1,$4,$5*
1,1,$1+$1,$6,$7*
1,1,$1+$1,$8,$9*
0 Add four rect primitives between the rounded corners*
20,1,$1+$1,$2,$3,$4,$5,0*
20,1,$1+$1,$4,$5,$6,$7,0*
20,1,$1+$1,$6,$7,$8,$9,0*
20,1,$1+$1,$8,$9,$2,$3,0*%
G04 Aperture macros list end*
%ADD10C,3.200000*%
%ADD11RoundRect,0.250000X-0.400000X-1.075000X0.400000X-1.075000X0.400000X1.075000X-0.400000X1.075000X0*%
%ADD12R,1.600000X1.600000*%
%ADD13C,1.600000*%
%ADD14C,4.000000*%
%ADD15O,1.600000X1.600000*%
%ADD16R,3.000000X3.000000*%
%ADD17C,3.000000*%
%ADD18RoundRect,0.250000X-1.050000X-0.550000X1.050000X-0.550000X1.050000X0.550000X-1.050000X0.550000X0*%
%ADD19RoundRect,0.250000X-1.250000X-0.550000X1.250000X-0.550000X1.250000X0.550000X-1.250000X0.550000X0*%
%ADD20RoundRect,0.250000X0.412500X1.100000X-0.412500X1.100000X-0.412500X-1.100000X0.412500X-1.100000X0*%
%ADD21R,1.700000X1.700000*%
%ADD22O,1.700000X1.700000*%
%ADD23RoundRect,0.250000X0.550000X-1.500000X0.550000X1.500000X-0.550000X1.500000X-0.550000X-1.500000X0*%
%ADD24RoundRect,0.250000X0.400000X1.075000X-0.400000X1.075000X-0.400000X-1.075000X0.400000X-1.075000X0*%
%ADD25RoundRect,0.250001X-0.462499X-1.074999X0.462499X-1.074999X0.462499X1.074999X-0.462499X1.074999X0*%
%ADD26R,2.180000X1.600000*%
%ADD27RoundRect,0.150000X0.825000X0.150000X-0.825000X0.150000X-0.825000X-0.150000X0.825000X-0.150000X0*%
%ADD28RoundRect,0.100000X-0.100000X0.637500X-0.100000X-0.637500X0.100000X-0.637500X0.100000X0.637500X0*%
G04 APERTURE END LIST*
D10*
%TO.C,H3*%
X186232800Y-121564400D03*
%TD*%
D11*
%TO.C,R12*%
X148207800Y-83489800D03*
X151307800Y-83489800D03*
%TD*%
D12*
%TO.C,J1*%
X180664500Y-96311400D03*
D13*
X180664500Y-98811400D03*
X182664500Y-98811400D03*
X182664500Y-96311400D03*
D14*
X185524500Y-91561400D03*
X185524500Y-103561400D03*
%TD*%
D12*
%TO.C,D6*%
X133629400Y-90398600D03*
D15*
X126009400Y-90398600D03*
%TD*%
D14*
%TO.C,J7*%
X118770400Y-85109000D03*
X118770400Y-110109000D03*
D12*
X119070400Y-103149000D03*
D13*
X119070400Y-100379000D03*
X119070400Y-97609000D03*
X119070400Y-94839000D03*
X119070400Y-92069000D03*
X116230400Y-101764000D03*
X116230400Y-98994000D03*
X116230400Y-96224000D03*
X116230400Y-93454000D03*
%TD*%
D16*
%TO.C,J2*%
X136000000Y-121000000D03*
D17*
X130920000Y-121000000D03*
%TD*%
D18*
%TO.C,C7*%
X138200000Y-100139100D03*
X141800000Y-100139100D03*
%TD*%
D11*
%TO.C,R8*%
X154634000Y-78765400D03*
X157734000Y-78765400D03*
%TD*%
D10*
%TO.C,H4*%
X186207400Y-73609200D03*
%TD*%
D19*
%TO.C,C11*%
X171231200Y-91719400D03*
X175631200Y-91719400D03*
%TD*%
D20*
%TO.C,C13*%
X125562500Y-118000000D03*
X122437500Y-118000000D03*
%TD*%
D21*
%TO.C,J4*%
X126771400Y-84785200D03*
D22*
X129311400Y-84785200D03*
X131851400Y-84785200D03*
%TD*%
D23*
%TO.C,C3*%
X184421800Y-85605600D03*
X184421800Y-80205600D03*
%TD*%
D18*
%TO.C,C1*%
X162461800Y-98196400D03*
X166061800Y-98196400D03*
%TD*%
D20*
%TO.C,C18*%
X125562500Y-122800000D03*
X122437500Y-122800000D03*
%TD*%
D18*
%TO.C,C4*%
X138200000Y-106700000D03*
X141800000Y-106700000D03*
%TD*%
D11*
%TO.C,R10*%
X148209600Y-74091800D03*
X151309600Y-74091800D03*
%TD*%
D24*
%TO.C,R14*%
X164160200Y-78740000D03*
X161060200Y-78740000D03*
%TD*%
D11*
%TO.C,R11*%
X148208400Y-78740000D03*
X151308400Y-78740000D03*
%TD*%
D24*
%TO.C,R15*%
X144881600Y-78740000D03*
X141781600Y-78740000D03*
%TD*%
D10*
%TO.C,H2*%
X113258600Y-121589800D03*
%TD*%
D20*
%TO.C,C25*%
X144962500Y-122800000D03*
X141837500Y-122800000D03*
%TD*%
D25*
%TO.C,D2*%
X168012500Y-74200000D03*
X170987500Y-74200000D03*
%TD*%
%TO.C,D3*%
X127606400Y-74200000D03*
X130581400Y-74200000D03*
%TD*%
%TO.C,D1*%
X175312500Y-74200000D03*
X178287500Y-74200000D03*
%TD*%
D20*
%TO.C,C22*%
X144962500Y-118000000D03*
X141837500Y-118000000D03*
%TD*%
D12*
%TO.C,D7*%
X126009400Y-94742000D03*
D15*
X133629400Y-94742000D03*
%TD*%
D10*
%TO.C,H1*%
X113258600Y-73609200D03*
%TD*%
D11*
%TO.C,R23*%
X141782200Y-74117200D03*
X144882200Y-74117200D03*
%TD*%
%TO.C,R9*%
X154634600Y-83464400D03*
X157734600Y-83464400D03*
%TD*%
D25*
%TO.C,D4*%
X120495700Y-74200000D03*
X123470700Y-74200000D03*
%TD*%
D26*
%TO.C,SW1*%
X177284600Y-83185000D03*
X168104600Y-83185000D03*
%TD*%
D27*
%TO.C,U4*%
X132029200Y-109550200D03*
X132029200Y-108280200D03*
X132029200Y-107010200D03*
X132029200Y-105740200D03*
X132029200Y-104470200D03*
X132029200Y-103200200D03*
X132029200Y-101930200D03*
X132029200Y-100660200D03*
X127079200Y-100660200D03*
X127079200Y-101930200D03*
X127079200Y-103200200D03*
X127079200Y-104470200D03*
X127079200Y-105740200D03*
X127079200Y-107010200D03*
X127079200Y-108280200D03*
X127079200Y-109550200D03*
%TD*%
D18*
%TO.C,C8*%
X162487200Y-104749600D03*
X166087200Y-104749600D03*
%TD*%
D24*
%TO.C,R13*%
X164160200Y-74142600D03*
X161060200Y-74142600D03*
%TD*%
D25*
%TO.C,D5*%
X134712500Y-74200000D03*
X137687500Y-74200000D03*
%TD*%
D21*
%TO.C,J5*%
X139471400Y-90959200D03*
D22*
X142011400Y-90959200D03*
X144551400Y-90959200D03*
%TD*%
D16*
%TO.C,J3*%
X175032600Y-121000000D03*
D17*
X169952600Y-121000000D03*
%TD*%
D16*
%TO.C,J6*%
X155625800Y-120980200D03*
D17*
X150545800Y-120980200D03*
%TD*%
D28*
%TO.C,U1*%
X156057600Y-100116800D03*
X155407600Y-100116800D03*
X154757600Y-100116800D03*
X154107600Y-100116800D03*
X153457600Y-100116800D03*
X152807600Y-100116800D03*
X152157600Y-100116800D03*
X151507600Y-100116800D03*
X150857600Y-100116800D03*
X150207600Y-100116800D03*
X149557600Y-100116800D03*
X148907600Y-100116800D03*
X148257600Y-100116800D03*
X147607600Y-100116800D03*
X147607600Y-105841800D03*
X148257600Y-105841800D03*
X148907600Y-105841800D03*
X149557600Y-105841800D03*
X150207600Y-105841800D03*
X150857600Y-105841800D03*
X151507600Y-105841800D03*
X152157600Y-105841800D03*
X152807600Y-105841800D03*
X153457600Y-105841800D03*
X154107600Y-105841800D03*
X154757600Y-105841800D03*
X155407600Y-105841800D03*
X156057600Y-105841800D03*
%TD*%
D20*
%TO.C,C17*%
X164262500Y-122800000D03*
X161137500Y-122800000D03*
%TD*%
%TO.C,C23*%
X164262500Y-118000000D03*
X161137500Y-118000000D03*
%TD*%
D11*
%TO.C,R7*%
X154584400Y-74117200D03*
X157684400Y-74117200D03*
%TD*%
D18*
%TO.C,C10*%
X171428000Y-100685600D03*
X175028000Y-100685600D03*
%TD*%
%TO.C,C14*%
X162436400Y-91719400D03*
X166036400Y-91719400D03*
%TD*%
M02*
