%TF.GenerationSoftware,KiCad,Pcbnew,8.0.3*%
%TF.CreationDate,2024-11-25T00:07:47+08:00*%
%TF.ProjectId,Explorer,4578706c-6f72-4657-922e-6b696361645f,rev?*%
%TF.SameCoordinates,Original*%
%TF.FileFunction,Paste,Top*%
%TF.FilePolarity,Positive*%
%FSLAX46Y46*%
G04 Gerber Fmt 4.6, Leading zero omitted, Abs format (unit mm)*
G04 Created by KiCad (PCBNEW 8.0.3) date 2024-11-25 00:07:47*
%MOMM*%
%LPD*%
G01*
G04 APERTURE LIST*
G04 Aperture macros list*
%AMRoundRect*
0 Rectangle with rounded corners*
0 $1 Rounding radius*
0 $2 $3 $4 $5 $6 $7 $8 $9 X,Y pos of 4 corners*
0 Add a 4 corners polygon primitive as box body*
4,1,4,$2,$3,$4,$5,$6,$7,$8,$9,$2,$3,0*
0 Add four circle primitives for the rounded corners*
1,1,$1+$1,$2,$3*
1,1,$1+$1,$4,$5*
1,1,$1+$1,$6,$7*
1,1,$1+$1,$8,$9*
0 Add four rect primitives between the rounded corners*
20,1,$1+$1,$2,$3,$4,$5,0*
20,1,$1+$1,$4,$5,$6,$7,0*
20,1,$1+$1,$6,$7,$8,$9,0*
20,1,$1+$1,$8,$9,$2,$3,0*%
G04 Aperture macros list end*
%ADD10RoundRect,0.200000X0.200000X0.275000X-0.200000X0.275000X-0.200000X-0.275000X0.200000X-0.275000X0*%
%ADD11RoundRect,0.200000X-0.200000X-0.275000X0.200000X-0.275000X0.200000X0.275000X-0.200000X0.275000X0*%
%ADD12RoundRect,0.225000X-0.225000X-0.250000X0.225000X-0.250000X0.225000X0.250000X-0.225000X0.250000X0*%
%ADD13RoundRect,0.150000X-0.512500X-0.150000X0.512500X-0.150000X0.512500X0.150000X-0.512500X0.150000X0*%
%ADD14RoundRect,0.150000X-0.825000X-0.150000X0.825000X-0.150000X0.825000X0.150000X-0.825000X0.150000X0*%
%ADD15R,1.120000X2.440000*%
%ADD16RoundRect,0.250000X-0.412500X-0.925000X0.412500X-0.925000X0.412500X0.925000X-0.412500X0.925000X0*%
%ADD17RoundRect,0.225000X0.225000X0.250000X-0.225000X0.250000X-0.225000X-0.250000X0.225000X-0.250000X0*%
%ADD18RoundRect,0.200000X-0.200000X0.700000X-0.200000X-0.700000X0.200000X-0.700000X0.200000X0.700000X0*%
%ADD19RoundRect,0.087500X0.225000X0.087500X-0.225000X0.087500X-0.225000X-0.087500X0.225000X-0.087500X0*%
%ADD20RoundRect,0.087500X0.087500X0.225000X-0.087500X0.225000X-0.087500X-0.225000X0.087500X-0.225000X0*%
%ADD21R,4.500000X2.000000*%
%ADD22R,2.000000X4.500000*%
%ADD23RoundRect,0.218750X0.256250X-0.218750X0.256250X0.218750X-0.256250X0.218750X-0.256250X-0.218750X0*%
%ADD24RoundRect,0.218750X-0.218750X-0.256250X0.218750X-0.256250X0.218750X0.256250X-0.218750X0.256250X0*%
%ADD25RoundRect,0.225000X0.250000X-0.225000X0.250000X0.225000X-0.250000X0.225000X-0.250000X-0.225000X0*%
%ADD26RoundRect,0.225000X-0.250000X0.225000X-0.250000X-0.225000X0.250000X-0.225000X0.250000X0.225000X0*%
%ADD27RoundRect,0.225000X0.225000X0.375000X-0.225000X0.375000X-0.225000X-0.375000X0.225000X-0.375000X0*%
%ADD28RoundRect,0.100000X-0.637500X-0.100000X0.637500X-0.100000X0.637500X0.100000X-0.637500X0.100000X0*%
%ADD29RoundRect,0.218750X0.218750X0.256250X-0.218750X0.256250X-0.218750X-0.256250X0.218750X-0.256250X0*%
%ADD30RoundRect,0.075000X-0.662500X-0.075000X0.662500X-0.075000X0.662500X0.075000X-0.662500X0.075000X0*%
%ADD31RoundRect,0.075000X-0.075000X-0.662500X0.075000X-0.662500X0.075000X0.662500X-0.075000X0.662500X0*%
%ADD32RoundRect,0.200000X0.275000X-0.200000X0.275000X0.200000X-0.275000X0.200000X-0.275000X-0.200000X0*%
%ADD33RoundRect,0.250000X0.412500X0.925000X-0.412500X0.925000X-0.412500X-0.925000X0.412500X-0.925000X0*%
G04 APERTURE END LIST*
D10*
%TO.C,R35*%
X89725000Y-135400000D03*
X88075000Y-135400000D03*
%TD*%
D11*
%TO.C,R39*%
X115585000Y-139550000D03*
X117235000Y-139550000D03*
%TD*%
D12*
%TO.C,C62*%
X114825000Y-112200000D03*
X116375000Y-112200000D03*
%TD*%
D13*
%TO.C,U1*%
X83675000Y-118650000D03*
X83675000Y-119600000D03*
X83675000Y-120550000D03*
X85950000Y-120550000D03*
X85950000Y-118650000D03*
%TD*%
D14*
%TO.C,U14*%
X119985000Y-137695000D03*
X119985000Y-138965000D03*
X119985000Y-140235000D03*
X119985000Y-141505000D03*
X124935000Y-141505000D03*
X124935000Y-140235000D03*
X124935000Y-138965000D03*
X124935000Y-137695000D03*
%TD*%
D10*
%TO.C,R46*%
X62075000Y-137500000D03*
X60425000Y-137500000D03*
%TD*%
D11*
%TO.C,R18*%
X92150000Y-75200000D03*
X93800000Y-75200000D03*
%TD*%
%TO.C,R2*%
X64375000Y-111700000D03*
X66025000Y-111700000D03*
%TD*%
D10*
%TO.C,R15*%
X100625000Y-75200000D03*
X98975000Y-75200000D03*
%TD*%
D11*
%TO.C,R43*%
X68855000Y-144850000D03*
X70505000Y-144850000D03*
%TD*%
D10*
%TO.C,R34*%
X62075000Y-135400000D03*
X60425000Y-135400000D03*
%TD*%
D15*
%TO.C,SW4*%
X124700000Y-84575000D03*
X127240000Y-84575000D03*
X129780000Y-84575000D03*
X129780000Y-75965000D03*
X127240000Y-75965000D03*
X124700000Y-75965000D03*
%TD*%
D16*
%TO.C,C12*%
X70100000Y-107300000D03*
X73175000Y-107300000D03*
%TD*%
D11*
%TO.C,R20*%
X84205000Y-93850000D03*
X85855000Y-93850000D03*
%TD*%
D17*
%TO.C,C42*%
X66015000Y-134700000D03*
X64465000Y-134700000D03*
%TD*%
D11*
%TO.C,R37*%
X60425000Y-139535000D03*
X62075000Y-139535000D03*
%TD*%
D10*
%TO.C,R41*%
X91786696Y-98950000D03*
X90136696Y-98950000D03*
%TD*%
D18*
%TO.C,U7*%
X135340000Y-90000000D03*
X134240000Y-90000000D03*
X133140000Y-90000000D03*
X132040000Y-90000000D03*
X130940000Y-90000000D03*
X129840000Y-90000000D03*
X128740000Y-90000000D03*
X125740000Y-90000000D03*
X124640000Y-90000000D03*
X123540000Y-90000000D03*
X122440000Y-90000000D03*
X121340000Y-90000000D03*
X121340000Y-102000000D03*
X122440000Y-102000000D03*
X123540000Y-102000000D03*
X124640000Y-102000000D03*
X125740000Y-102000000D03*
X128740000Y-102000000D03*
X129840000Y-102000000D03*
X130940000Y-102000000D03*
X132040000Y-102000000D03*
X133140000Y-102000000D03*
X134240000Y-102000000D03*
X135340000Y-102000000D03*
%TD*%
D11*
%TO.C,R32*%
X82885000Y-138700000D03*
X84535000Y-138700000D03*
%TD*%
D16*
%TO.C,C13*%
X70100000Y-111100000D03*
X73175000Y-111100000D03*
%TD*%
D10*
%TO.C,R36*%
X117235000Y-135400000D03*
X115585000Y-135400000D03*
%TD*%
D11*
%TO.C,R11*%
X86075000Y-77000000D03*
X87725000Y-77000000D03*
%TD*%
D12*
%TO.C,C55*%
X97055000Y-102350000D03*
X98605000Y-102350000D03*
%TD*%
D11*
%TO.C,R51*%
X100375000Y-139550000D03*
X102025000Y-139550000D03*
%TD*%
D17*
%TO.C,C10*%
X69412500Y-118455000D03*
X67862500Y-118455000D03*
%TD*%
D12*
%TO.C,C33*%
X90350000Y-80400000D03*
X91900000Y-80400000D03*
%TD*%
D17*
%TO.C,C58*%
X129400000Y-135400000D03*
X127850000Y-135400000D03*
%TD*%
D10*
%TO.C,R48*%
X117235000Y-137500000D03*
X115585000Y-137500000D03*
%TD*%
D12*
%TO.C,C51*%
X127850000Y-141570000D03*
X129400000Y-141570000D03*
%TD*%
D10*
%TO.C,R13*%
X108145000Y-95700000D03*
X106495000Y-95700000D03*
%TD*%
D19*
%TO.C,U15*%
X97649196Y-99400000D03*
X97649196Y-98900000D03*
X97649196Y-98400000D03*
X97649196Y-97900000D03*
D20*
X96986696Y-97737500D03*
X96486696Y-97737500D03*
X95986696Y-97737500D03*
D19*
X95324196Y-97900000D03*
X95324196Y-98400000D03*
X95324196Y-98900000D03*
X95324196Y-99400000D03*
D20*
X95986696Y-99562500D03*
X96486696Y-99562500D03*
X96986696Y-99562500D03*
%TD*%
D16*
%TO.C,C3*%
X58612500Y-119615000D03*
X61687500Y-119615000D03*
%TD*%
D12*
%TO.C,C45*%
X93630000Y-102350000D03*
X95180000Y-102350000D03*
%TD*%
D11*
%TO.C,R33*%
X110385000Y-138700000D03*
X112035000Y-138700000D03*
%TD*%
%TO.C,R8*%
X78375000Y-114425000D03*
X80025000Y-114425000D03*
%TD*%
D21*
%TO.C,Y2*%
X110520000Y-112300000D03*
X102020000Y-112300000D03*
%TD*%
D11*
%TO.C,R44*%
X96355000Y-144810000D03*
X98005000Y-144810000D03*
%TD*%
D17*
%TO.C,C9*%
X85587500Y-113800000D03*
X84037500Y-113800000D03*
%TD*%
D11*
%TO.C,R63*%
X100125000Y-105025000D03*
X101775000Y-105025000D03*
%TD*%
D10*
%TO.C,R47*%
X89750000Y-137500000D03*
X88100000Y-137500000D03*
%TD*%
D12*
%TO.C,C2*%
X67807500Y-120570000D03*
X69357500Y-120570000D03*
%TD*%
D11*
%TO.C,R50*%
X72970000Y-139550000D03*
X74620000Y-139550000D03*
%TD*%
D12*
%TO.C,C1*%
X84037500Y-115800000D03*
X85587500Y-115800000D03*
%TD*%
D11*
%TO.C,R19*%
X95550000Y-75200000D03*
X97200000Y-75200000D03*
%TD*%
%TO.C,R55*%
X127800000Y-137500000D03*
X129450000Y-137500000D03*
%TD*%
D10*
%TO.C,R23*%
X85480000Y-85250000D03*
X83830000Y-85250000D03*
%TD*%
D22*
%TO.C,Y1*%
X79630000Y-92050000D03*
X79630000Y-83550000D03*
%TD*%
D14*
%TO.C,U13*%
X92485000Y-137695000D03*
X92485000Y-138965000D03*
X92485000Y-140235000D03*
X92485000Y-141505000D03*
X97435000Y-141505000D03*
X97435000Y-140235000D03*
X97435000Y-138965000D03*
X97435000Y-137695000D03*
%TD*%
D12*
%TO.C,C30*%
X90350000Y-82100000D03*
X91900000Y-82100000D03*
%TD*%
D23*
%TO.C,L2*%
X140300000Y-89077500D03*
X140300000Y-87502500D03*
%TD*%
D11*
%TO.C,R64*%
X100125000Y-106800000D03*
X101775000Y-106800000D03*
%TD*%
D17*
%TO.C,C15*%
X66035000Y-107550000D03*
X64485000Y-107550000D03*
%TD*%
D16*
%TO.C,C14*%
X70100000Y-114900000D03*
X73175000Y-114900000D03*
%TD*%
D17*
%TO.C,C27*%
X85430000Y-87750000D03*
X83880000Y-87750000D03*
%TD*%
D12*
%TO.C,C23*%
X138125000Y-93420000D03*
X139675000Y-93420000D03*
%TD*%
D24*
%TO.C,D9*%
X105962500Y-93550000D03*
X107537500Y-93550000D03*
%TD*%
D12*
%TO.C,C47*%
X91965000Y-144810000D03*
X93515000Y-144810000D03*
%TD*%
D10*
%TO.C,R16*%
X132490000Y-87540000D03*
X130840000Y-87540000D03*
%TD*%
D11*
%TO.C,R45*%
X123855000Y-144810000D03*
X125505000Y-144810000D03*
%TD*%
D10*
%TO.C,R21*%
X107555000Y-88150000D03*
X105905000Y-88150000D03*
%TD*%
D17*
%TO.C,C57*%
X101975000Y-135400000D03*
X100425000Y-135400000D03*
%TD*%
D25*
%TO.C,C32*%
X103350000Y-85365000D03*
X103350000Y-83815000D03*
%TD*%
D14*
%TO.C,U5*%
X78255000Y-75395000D03*
X78255000Y-76665000D03*
X78255000Y-77935000D03*
X78255000Y-79205000D03*
X83205000Y-79205000D03*
X83205000Y-77935000D03*
X83205000Y-76665000D03*
X83205000Y-75395000D03*
%TD*%
D12*
%TO.C,C46*%
X64465000Y-144810000D03*
X66015000Y-144810000D03*
%TD*%
%TO.C,C21*%
X138125000Y-102420000D03*
X139675000Y-102420000D03*
%TD*%
D24*
%TO.C,D8*%
X105962500Y-89950000D03*
X107537500Y-89950000D03*
%TD*%
D11*
%TO.C,R31*%
X55385000Y-138700000D03*
X57035000Y-138700000D03*
%TD*%
D10*
%TO.C,R40*%
X91786696Y-100650000D03*
X90136696Y-100650000D03*
%TD*%
D17*
%TO.C,C28*%
X85430000Y-89550000D03*
X83880000Y-89550000D03*
%TD*%
D13*
%TO.C,U2*%
X71850000Y-118650000D03*
X71850000Y-119600000D03*
X71850000Y-120550000D03*
X74125000Y-120550000D03*
X74125000Y-118650000D03*
%TD*%
D10*
%TO.C,R22*%
X107555000Y-91750000D03*
X105905000Y-91750000D03*
%TD*%
D11*
%TO.C,R12*%
X86075000Y-78700000D03*
X87725000Y-78700000D03*
%TD*%
%TO.C,R38*%
X88075000Y-139550000D03*
X89725000Y-139550000D03*
%TD*%
D12*
%TO.C,C49*%
X73020000Y-141570000D03*
X74570000Y-141570000D03*
%TD*%
%TO.C,C39*%
X60475000Y-141570000D03*
X62025000Y-141570000D03*
%TD*%
D17*
%TO.C,C22*%
X139675000Y-91510000D03*
X138125000Y-91510000D03*
%TD*%
D26*
%TO.C,C60*%
X88100000Y-107075000D03*
X88100000Y-108625000D03*
%TD*%
D11*
%TO.C,R5*%
X64405000Y-109580000D03*
X66055000Y-109580000D03*
%TD*%
D12*
%TO.C,C41*%
X115635000Y-141570000D03*
X117185000Y-141570000D03*
%TD*%
%TO.C,C54*%
X123905000Y-134700000D03*
X125455000Y-134700000D03*
%TD*%
D11*
%TO.C,R53*%
X72970000Y-137500000D03*
X74620000Y-137500000D03*
%TD*%
D27*
%TO.C,D11*%
X116127500Y-90375000D03*
X112827500Y-90375000D03*
%TD*%
D25*
%TO.C,C59*%
X88100000Y-112125000D03*
X88100000Y-110575000D03*
%TD*%
D28*
%TO.C,U16*%
X91275000Y-105575000D03*
X91275000Y-106225000D03*
X91275000Y-106875000D03*
X91275000Y-107525000D03*
X91275000Y-108175000D03*
X91275000Y-108825000D03*
X91275000Y-109475000D03*
X91275000Y-110125000D03*
X91275000Y-110775000D03*
X91275000Y-111425000D03*
X91275000Y-112075000D03*
X91275000Y-112725000D03*
X91275000Y-113375000D03*
X91275000Y-114025000D03*
X97000000Y-114025000D03*
X97000000Y-113375000D03*
X97000000Y-112725000D03*
X97000000Y-112075000D03*
X97000000Y-111425000D03*
X97000000Y-110775000D03*
X97000000Y-110125000D03*
X97000000Y-109475000D03*
X97000000Y-108825000D03*
X97000000Y-108175000D03*
X97000000Y-107525000D03*
X97000000Y-106875000D03*
X97000000Y-106225000D03*
X97000000Y-105575000D03*
%TD*%
D15*
%TO.C,SW5*%
X116410000Y-84575000D03*
X118950000Y-84575000D03*
X118950000Y-75965000D03*
X116410000Y-75965000D03*
%TD*%
D10*
%TO.C,R10*%
X104730000Y-95700000D03*
X103080000Y-95700000D03*
%TD*%
D12*
%TO.C,C40*%
X88125000Y-141570000D03*
X89675000Y-141570000D03*
%TD*%
D11*
%TO.C,R49*%
X90136696Y-102350000D03*
X91786696Y-102350000D03*
%TD*%
D12*
%TO.C,C24*%
X134350000Y-87540000D03*
X135900000Y-87540000D03*
%TD*%
%TO.C,C52*%
X68925000Y-134700000D03*
X70475000Y-134700000D03*
%TD*%
D14*
%TO.C,U12*%
X64985000Y-137695000D03*
X64985000Y-138965000D03*
X64985000Y-140235000D03*
X64985000Y-141505000D03*
X69935000Y-141505000D03*
X69935000Y-140235000D03*
X69935000Y-138965000D03*
X69935000Y-137695000D03*
%TD*%
D29*
%TO.C,D10*%
X85442500Y-83450000D03*
X83867500Y-83450000D03*
%TD*%
D15*
%TO.C,SW3*%
X108115000Y-84575000D03*
X110655000Y-84575000D03*
X110655000Y-75965000D03*
X108115000Y-75965000D03*
%TD*%
D16*
%TO.C,C6*%
X58612500Y-111700000D03*
X61687500Y-111700000D03*
%TD*%
D24*
%TO.C,D14*%
X103887500Y-117350000D03*
X105462500Y-117350000D03*
%TD*%
D17*
%TO.C,C44*%
X121015000Y-134700000D03*
X119465000Y-134700000D03*
%TD*%
D12*
%TO.C,C53*%
X96405000Y-134700000D03*
X97955000Y-134700000D03*
%TD*%
D30*
%TO.C,U10*%
X91067500Y-86400000D03*
X91067500Y-86900000D03*
X91067500Y-87400000D03*
X91067500Y-87900000D03*
X91067500Y-88400000D03*
X91067500Y-88900000D03*
X91067500Y-89400000D03*
X91067500Y-89900000D03*
X91067500Y-90400000D03*
X91067500Y-90900000D03*
X91067500Y-91400000D03*
X91067500Y-91900000D03*
D31*
X92480000Y-93312500D03*
X92980000Y-93312500D03*
X93480000Y-93312500D03*
X93980000Y-93312500D03*
X94480000Y-93312500D03*
X94980000Y-93312500D03*
X95480000Y-93312500D03*
X95980000Y-93312500D03*
X96480000Y-93312500D03*
X96980000Y-93312500D03*
X97480000Y-93312500D03*
X97980000Y-93312500D03*
D30*
X99392500Y-91900000D03*
X99392500Y-91400000D03*
X99392500Y-90900000D03*
X99392500Y-90400000D03*
X99392500Y-89900000D03*
X99392500Y-89400000D03*
X99392500Y-88900000D03*
X99392500Y-88400000D03*
X99392500Y-87900000D03*
X99392500Y-87400000D03*
X99392500Y-86900000D03*
X99392500Y-86400000D03*
D31*
X97980000Y-84987500D03*
X97480000Y-84987500D03*
X96980000Y-84987500D03*
X96480000Y-84987500D03*
X95980000Y-84987500D03*
X95480000Y-84987500D03*
X94980000Y-84987500D03*
X94480000Y-84987500D03*
X93980000Y-84987500D03*
X93480000Y-84987500D03*
X92980000Y-84987500D03*
X92480000Y-84987500D03*
%TD*%
D12*
%TO.C,C61*%
X114825000Y-114170000D03*
X116375000Y-114170000D03*
%TD*%
D17*
%TO.C,C56*%
X74570000Y-135400000D03*
X73020000Y-135400000D03*
%TD*%
D11*
%TO.C,R65*%
X100125000Y-108575000D03*
X101775000Y-108575000D03*
%TD*%
D32*
%TO.C,R14*%
X138150000Y-89115000D03*
X138150000Y-87465000D03*
%TD*%
D33*
%TO.C,C63*%
X95652500Y-117400000D03*
X92577500Y-117400000D03*
%TD*%
D11*
%TO.C,R42*%
X90136696Y-97250000D03*
X91786696Y-97250000D03*
%TD*%
%TO.C,R52*%
X127800000Y-139550000D03*
X129450000Y-139550000D03*
%TD*%
D17*
%TO.C,C43*%
X93515000Y-134700000D03*
X91965000Y-134700000D03*
%TD*%
D12*
%TO.C,C48*%
X119465000Y-144810000D03*
X121015000Y-144810000D03*
%TD*%
%TO.C,C20*%
X86125000Y-75200000D03*
X87675000Y-75200000D03*
%TD*%
%TO.C,C50*%
X100425000Y-141570000D03*
X101975000Y-141570000D03*
%TD*%
D11*
%TO.C,R54*%
X100375000Y-137500000D03*
X102025000Y-137500000D03*
%TD*%
D17*
%TO.C,C31*%
X87675000Y-80400000D03*
X86125000Y-80400000D03*
%TD*%
D16*
%TO.C,C4*%
X58612500Y-115650000D03*
X61687500Y-115650000D03*
%TD*%
D10*
%TO.C,R59*%
X101775000Y-117350000D03*
X100125000Y-117350000D03*
%TD*%
M02*
