%TF.GenerationSoftware,KiCad,Pcbnew,7.0.10*%
%TF.CreationDate,2024-05-28T11:55:37+08:00*%
%TF.ProjectId,Explorer,4578706c-6f72-4657-922e-6b696361645f,rev?*%
%TF.SameCoordinates,Original*%
%TF.FileFunction,Soldermask,Top*%
%TF.FilePolarity,Negative*%
%FSLAX46Y46*%
G04 Gerber Fmt 4.6, Leading zero omitted, Abs format (unit mm)*
G04 Created by KiCad (PCBNEW 7.0.10) date 2024-05-28 11:55:37*
%MOMM*%
%LPD*%
G01*
G04 APERTURE LIST*
G04 Aperture macros list*
%AMRoundRect*
0 Rectangle with rounded corners*
0 $1 Rounding radius*
0 $2 $3 $4 $5 $6 $7 $8 $9 X,Y pos of 4 corners*
0 Add a 4 corners polygon primitive as box body*
4,1,4,$2,$3,$4,$5,$6,$7,$8,$9,$2,$3,0*
0 Add four circle primitives for the rounded corners*
1,1,$1+$1,$2,$3*
1,1,$1+$1,$4,$5*
1,1,$1+$1,$6,$7*
1,1,$1+$1,$8,$9*
0 Add four rect primitives between the rounded corners*
20,1,$1+$1,$2,$3,$4,$5,0*
20,1,$1+$1,$4,$5,$6,$7,0*
20,1,$1+$1,$6,$7,$8,$9,0*
20,1,$1+$1,$8,$9,$2,$3,0*%
G04 Aperture macros list end*
%ADD10RoundRect,0.250000X-1.050000X-0.550000X1.050000X-0.550000X1.050000X0.550000X-1.050000X0.550000X0*%
%ADD11R,1.700000X1.700000*%
%ADD12O,1.700000X1.700000*%
%ADD13RoundRect,0.250000X0.550000X-1.500000X0.550000X1.500000X-0.550000X1.500000X-0.550000X-1.500000X0*%
%ADD14RoundRect,0.225000X-0.250000X0.225000X-0.250000X-0.225000X0.250000X-0.225000X0.250000X0.225000X0*%
%ADD15RoundRect,0.200000X0.200000X0.275000X-0.200000X0.275000X-0.200000X-0.275000X0.200000X-0.275000X0*%
%ADD16RoundRect,0.250000X-1.500000X-0.550000X1.500000X-0.550000X1.500000X0.550000X-1.500000X0.550000X0*%
%ADD17R,1.120000X2.440000*%
%ADD18RoundRect,0.225000X0.225000X0.250000X-0.225000X0.250000X-0.225000X-0.250000X0.225000X-0.250000X0*%
%ADD19C,2.500000*%
%ADD20RoundRect,0.200000X-0.200000X-0.275000X0.200000X-0.275000X0.200000X0.275000X-0.200000X0.275000X0*%
%ADD21C,4.000000*%
%ADD22R,1.600000X1.600000*%
%ADD23C,1.600000*%
%ADD24RoundRect,0.218750X-0.218750X-0.256250X0.218750X-0.256250X0.218750X0.256250X-0.218750X0.256250X0*%
%ADD25R,3.000000X3.000000*%
%ADD26C,3.000000*%
%ADD27RoundRect,0.075000X-0.662500X-0.075000X0.662500X-0.075000X0.662500X0.075000X-0.662500X0.075000X0*%
%ADD28RoundRect,0.075000X-0.075000X-0.662500X0.075000X-0.662500X0.075000X0.662500X-0.075000X0.662500X0*%
%ADD29C,3.200000*%
%ADD30RoundRect,0.218750X0.218750X0.256250X-0.218750X0.256250X-0.218750X-0.256250X0.218750X-0.256250X0*%
%ADD31RoundRect,0.225000X-0.225000X-0.250000X0.225000X-0.250000X0.225000X0.250000X-0.225000X0.250000X0*%
%ADD32RoundRect,0.250000X-0.550000X1.500000X-0.550000X-1.500000X0.550000X-1.500000X0.550000X1.500000X0*%
%ADD33RoundRect,0.200000X0.275000X-0.200000X0.275000X0.200000X-0.275000X0.200000X-0.275000X-0.200000X0*%
%ADD34RoundRect,0.100000X-0.637500X-0.100000X0.637500X-0.100000X0.637500X0.100000X-0.637500X0.100000X0*%
%ADD35C,2.050000*%
%ADD36C,2.250000*%
%ADD37R,1.400000X1.200000*%
%ADD38R,1.050000X1.500000*%
%ADD39O,1.050000X1.500000*%
%ADD40R,2.200000X1.500000*%
%ADD41R,1.100000X0.250000*%
%ADD42R,1.600000X2.180000*%
G04 APERTURE END LIST*
D10*
%TO.C,C68*%
X105200000Y-120000000D03*
X108800000Y-120000000D03*
%TD*%
D11*
%TO.C,J7*%
X83000000Y-83000000D03*
D12*
X83000000Y-80460000D03*
X85540000Y-83000000D03*
X85540000Y-80460000D03*
X88080000Y-83000000D03*
X88080000Y-80460000D03*
%TD*%
D13*
%TO.C,C24*%
X52000000Y-150700000D03*
X52000000Y-145300000D03*
%TD*%
D14*
%TO.C,C56*%
X114000000Y-146225000D03*
X114000000Y-147775000D03*
%TD*%
D15*
%TO.C,R48*%
X118825000Y-133000000D03*
X117175000Y-133000000D03*
%TD*%
D16*
%TO.C,C26*%
X75800000Y-128000000D03*
X81200000Y-128000000D03*
%TD*%
%TO.C,C37*%
X86800000Y-128000000D03*
X92200000Y-128000000D03*
%TD*%
D17*
%TO.C,SW3*%
X99530000Y-100305000D03*
X102070000Y-100305000D03*
X102070000Y-91695000D03*
X99530000Y-91695000D03*
%TD*%
D18*
%TO.C,C72*%
X100775000Y-132500000D03*
X99225000Y-132500000D03*
%TD*%
D19*
%TO.C,U2*%
X57460000Y-118840000D03*
X62540000Y-118840000D03*
X70160000Y-139160000D03*
X60000000Y-139160000D03*
X49840000Y-139160000D03*
%TD*%
D20*
%TO.C,R45*%
X117175000Y-140000000D03*
X118825000Y-140000000D03*
%TD*%
D21*
%TO.C,J5*%
X126960000Y-67700000D03*
X101960000Y-67700000D03*
D22*
X120000000Y-68000000D03*
D23*
X117230000Y-68000000D03*
X114460000Y-68000000D03*
X111690000Y-68000000D03*
X108920000Y-68000000D03*
X118615000Y-65160000D03*
X115845000Y-65160000D03*
X113075000Y-65160000D03*
X110305000Y-65160000D03*
%TD*%
D11*
%TO.C,J9*%
X130000000Y-147000000D03*
D12*
X130000000Y-144460000D03*
%TD*%
D24*
%TO.C,D12*%
X77212500Y-78500000D03*
X78787500Y-78500000D03*
%TD*%
D20*
%TO.C,R46*%
X117175000Y-130000000D03*
X118825000Y-130000000D03*
%TD*%
D10*
%TO.C,C10*%
X72200000Y-156000000D03*
X75800000Y-156000000D03*
%TD*%
D20*
%TO.C,R37*%
X95675000Y-136500000D03*
X97325000Y-136500000D03*
%TD*%
D18*
%TO.C,C61*%
X122775000Y-130000000D03*
X121225000Y-130000000D03*
%TD*%
D15*
%TO.C,R39*%
X118825000Y-138000000D03*
X117175000Y-138000000D03*
%TD*%
%TO.C,R36*%
X78825000Y-100000000D03*
X77175000Y-100000000D03*
%TD*%
D25*
%TO.C,J1*%
X49000000Y-112000000D03*
D26*
X49000000Y-106920000D03*
%TD*%
D27*
%TO.C,U7*%
X83837500Y-89250000D03*
X83837500Y-89750000D03*
X83837500Y-90250000D03*
X83837500Y-90750000D03*
X83837500Y-91250000D03*
X83837500Y-91750000D03*
X83837500Y-92250000D03*
X83837500Y-92750000D03*
X83837500Y-93250000D03*
X83837500Y-93750000D03*
X83837500Y-94250000D03*
X83837500Y-94750000D03*
D28*
X85250000Y-96162500D03*
X85750000Y-96162500D03*
X86250000Y-96162500D03*
X86750000Y-96162500D03*
X87250000Y-96162500D03*
X87750000Y-96162500D03*
X88250000Y-96162500D03*
X88750000Y-96162500D03*
X89250000Y-96162500D03*
X89750000Y-96162500D03*
X90250000Y-96162500D03*
X90750000Y-96162500D03*
D27*
X92162500Y-94750000D03*
X92162500Y-94250000D03*
X92162500Y-93750000D03*
X92162500Y-93250000D03*
X92162500Y-92750000D03*
X92162500Y-92250000D03*
X92162500Y-91750000D03*
X92162500Y-91250000D03*
X92162500Y-90750000D03*
X92162500Y-90250000D03*
X92162500Y-89750000D03*
X92162500Y-89250000D03*
D28*
X90750000Y-87837500D03*
X90250000Y-87837500D03*
X89750000Y-87837500D03*
X89250000Y-87837500D03*
X88750000Y-87837500D03*
X88250000Y-87837500D03*
X87750000Y-87837500D03*
X87250000Y-87837500D03*
X86750000Y-87837500D03*
X86250000Y-87837500D03*
X85750000Y-87837500D03*
X85250000Y-87837500D03*
%TD*%
D29*
%TO.C,H4*%
X48050000Y-156950000D03*
%TD*%
D17*
%TO.C,SW5*%
X96960000Y-86305000D03*
X99500000Y-86305000D03*
X102040000Y-86305000D03*
X102040000Y-77695000D03*
X99500000Y-77695000D03*
X96960000Y-77695000D03*
%TD*%
D30*
%TO.C,D13*%
X78787500Y-103000000D03*
X77212500Y-103000000D03*
%TD*%
D24*
%TO.C,D11*%
X77212500Y-81500000D03*
X78787500Y-81500000D03*
%TD*%
D21*
%TO.C,J4*%
X63040000Y-67700000D03*
X88040000Y-67700000D03*
D22*
X70000000Y-68000000D03*
D23*
X72770000Y-68000000D03*
X75540000Y-68000000D03*
X78310000Y-68000000D03*
X81080000Y-68000000D03*
X71385000Y-65160000D03*
X74155000Y-65160000D03*
X76925000Y-65160000D03*
X79695000Y-65160000D03*
%TD*%
D31*
%TO.C,C64*%
X90725000Y-142500000D03*
X92275000Y-142500000D03*
%TD*%
D14*
%TO.C,C67*%
X114000000Y-128725000D03*
X114000000Y-130275000D03*
%TD*%
D15*
%TO.C,R50*%
X118825000Y-145000000D03*
X117175000Y-145000000D03*
%TD*%
D11*
%TO.C,J3*%
X88000000Y-76000000D03*
D12*
X85460000Y-76000000D03*
X82920000Y-76000000D03*
%TD*%
D29*
%TO.C,H1*%
X48050000Y-63050000D03*
%TD*%
D15*
%TO.C,R47*%
X118825000Y-143000000D03*
X117175000Y-143000000D03*
%TD*%
D17*
%TO.C,SW2*%
X107730000Y-100305000D03*
X110270000Y-100305000D03*
X110270000Y-91695000D03*
X107730000Y-91695000D03*
%TD*%
D13*
%TO.C,C9*%
X67850000Y-150710000D03*
X67850000Y-145310000D03*
%TD*%
D14*
%TO.C,C58*%
X114000000Y-132225000D03*
X114000000Y-133775000D03*
%TD*%
D31*
%TO.C,C73*%
X99225000Y-134500000D03*
X100775000Y-134500000D03*
%TD*%
D18*
%TO.C,C69*%
X97275000Y-132500000D03*
X95725000Y-132500000D03*
%TD*%
D32*
%TO.C,C20*%
X71000000Y-107300000D03*
X71000000Y-112700000D03*
%TD*%
D20*
%TO.C,R44*%
X117175000Y-150000000D03*
X118825000Y-150000000D03*
%TD*%
D10*
%TO.C,C70*%
X97200000Y-126000000D03*
X100800000Y-126000000D03*
%TD*%
D13*
%TO.C,C25*%
X60000000Y-150700000D03*
X60000000Y-145300000D03*
%TD*%
D16*
%TO.C,C34*%
X75800000Y-120000000D03*
X81200000Y-120000000D03*
%TD*%
D33*
%TO.C,R33*%
X77000000Y-85325000D03*
X77000000Y-83675000D03*
%TD*%
D17*
%TO.C,SW4*%
X107730000Y-86305000D03*
X110270000Y-86305000D03*
X110270000Y-77695000D03*
X107730000Y-77695000D03*
%TD*%
D16*
%TO.C,C19*%
X75800000Y-144000000D03*
X81200000Y-144000000D03*
%TD*%
D32*
%TO.C,C6*%
X80000000Y-107300000D03*
X80000000Y-112700000D03*
%TD*%
D34*
%TO.C,U15*%
X86637500Y-133575000D03*
X86637500Y-134225000D03*
X86637500Y-134875000D03*
X86637500Y-135525000D03*
X86637500Y-136175000D03*
X86637500Y-136825000D03*
X86637500Y-137475000D03*
X86637500Y-138125000D03*
X86637500Y-138775000D03*
X86637500Y-139425000D03*
X92362500Y-139425000D03*
X92362500Y-138775000D03*
X92362500Y-138125000D03*
X92362500Y-137475000D03*
X92362500Y-136825000D03*
X92362500Y-136175000D03*
X92362500Y-135525000D03*
X92362500Y-134875000D03*
X92362500Y-134225000D03*
X92362500Y-133575000D03*
%TD*%
D11*
%TO.C,J6*%
X88000000Y-101000000D03*
D12*
X85460000Y-101000000D03*
X82920000Y-101000000D03*
%TD*%
D10*
%TO.C,C2*%
X97200000Y-120000000D03*
X100800000Y-120000000D03*
%TD*%
D29*
%TO.C,H2*%
X141950000Y-63050000D03*
%TD*%
D32*
%TO.C,C5*%
X62000000Y-107300000D03*
X62000000Y-112700000D03*
%TD*%
D15*
%TO.C,R51*%
X118825000Y-135000000D03*
X117175000Y-135000000D03*
%TD*%
D32*
%TO.C,C22*%
X98000000Y-107300000D03*
X98000000Y-112700000D03*
%TD*%
D33*
%TO.C,R32*%
X79000000Y-85325000D03*
X79000000Y-83675000D03*
%TD*%
D10*
%TO.C,C15*%
X56200000Y-156000000D03*
X59800000Y-156000000D03*
%TD*%
D14*
%TO.C,C57*%
X114000000Y-139225000D03*
X114000000Y-140775000D03*
%TD*%
D32*
%TO.C,C1*%
X109500000Y-107300000D03*
X109500000Y-112700000D03*
%TD*%
D11*
%TO.C,J11*%
X130000000Y-137000000D03*
D12*
X130000000Y-134460000D03*
%TD*%
D18*
%TO.C,C53*%
X122775000Y-148000000D03*
X121225000Y-148000000D03*
%TD*%
D15*
%TO.C,R40*%
X118825000Y-128000000D03*
X117175000Y-128000000D03*
%TD*%
D25*
%TO.C,J10*%
X140500000Y-123000000D03*
D26*
X140500000Y-128080000D03*
X140500000Y-133160000D03*
X140500000Y-138240000D03*
X140500000Y-143320000D03*
X140500000Y-148400000D03*
%TD*%
D15*
%TO.C,R52*%
X118825000Y-125000000D03*
X117175000Y-125000000D03*
%TD*%
D35*
%TO.C,J2*%
X140500000Y-99000000D03*
D36*
X137960000Y-96460000D03*
X137960000Y-101540000D03*
X143040000Y-101540000D03*
X143040000Y-96460000D03*
%TD*%
D18*
%TO.C,C55*%
X122775000Y-128000000D03*
X121225000Y-128000000D03*
%TD*%
D29*
%TO.C,H3*%
X141950000Y-156950000D03*
%TD*%
D20*
%TO.C,R19*%
X123175000Y-99000000D03*
X124825000Y-99000000D03*
%TD*%
D10*
%TO.C,C31*%
X78200000Y-151000000D03*
X81800000Y-151000000D03*
%TD*%
D18*
%TO.C,C54*%
X122775000Y-138000000D03*
X121225000Y-138000000D03*
%TD*%
D16*
%TO.C,C36*%
X86800000Y-120000000D03*
X92200000Y-120000000D03*
%TD*%
D31*
%TO.C,C43*%
X115225000Y-92000000D03*
X116775000Y-92000000D03*
%TD*%
D10*
%TO.C,C74*%
X123000000Y-77000000D03*
X126600000Y-77000000D03*
%TD*%
D18*
%TO.C,C59*%
X122775000Y-150000000D03*
X121225000Y-150000000D03*
%TD*%
D11*
%TO.C,J12*%
X130000000Y-126500000D03*
D12*
X130000000Y-123960000D03*
%TD*%
D37*
%TO.C,X1*%
X99800000Y-138450000D03*
X102200000Y-138450000D03*
X102200000Y-136550000D03*
X99800000Y-136550000D03*
%TD*%
D18*
%TO.C,C42*%
X116775000Y-99000000D03*
X115225000Y-99000000D03*
%TD*%
D11*
%TO.C,U9*%
X57190000Y-76600000D03*
D12*
X59730000Y-76600000D03*
X62270000Y-76600000D03*
X64810000Y-76600000D03*
%TD*%
D38*
%TO.C,U13*%
X126000000Y-93000000D03*
D39*
X127270000Y-93000000D03*
X128540000Y-93000000D03*
%TD*%
D14*
%TO.C,C66*%
X114000000Y-135725000D03*
X114000000Y-137275000D03*
%TD*%
D31*
%TO.C,C62*%
X90725000Y-147500000D03*
X92275000Y-147500000D03*
%TD*%
D15*
%TO.C,R49*%
X118825000Y-123000000D03*
X117175000Y-123000000D03*
%TD*%
D10*
%TO.C,C71*%
X105200000Y-126000000D03*
X108800000Y-126000000D03*
%TD*%
D25*
%TO.C,J8*%
X140500000Y-72000000D03*
D26*
X140500000Y-77080000D03*
X140500000Y-82160000D03*
X140500000Y-87240000D03*
%TD*%
D14*
%TO.C,C65*%
X114000000Y-142725000D03*
X114000000Y-144275000D03*
%TD*%
D31*
%TO.C,C63*%
X90725000Y-145000000D03*
X92275000Y-145000000D03*
%TD*%
D40*
%TO.C,L2*%
X118000000Y-89200000D03*
X118000000Y-82800000D03*
%TD*%
D31*
%TO.C,C48*%
X131225000Y-99000000D03*
X132775000Y-99000000D03*
%TD*%
D41*
%TO.C,U14*%
X114850000Y-76000000D03*
X114850000Y-76500000D03*
X114850000Y-77000000D03*
X114850000Y-77500000D03*
X114850000Y-78000000D03*
X119150000Y-78000000D03*
X119150000Y-77500000D03*
X119150000Y-77000000D03*
X119150000Y-76500000D03*
X119150000Y-76000000D03*
%TD*%
D30*
%TO.C,D14*%
X97287500Y-138500000D03*
X95712500Y-138500000D03*
%TD*%
D40*
%TO.C,L1*%
X119000000Y-113200000D03*
X119000000Y-106800000D03*
%TD*%
D18*
%TO.C,C60*%
X122775000Y-140000000D03*
X121225000Y-140000000D03*
%TD*%
D10*
%TO.C,C27*%
X64200000Y-156000000D03*
X67800000Y-156000000D03*
%TD*%
D32*
%TO.C,C21*%
X89000000Y-107300000D03*
X89000000Y-112700000D03*
%TD*%
D16*
%TO.C,C18*%
X75800000Y-136000000D03*
X81200000Y-136000000D03*
%TD*%
D15*
%TO.C,R38*%
X118825000Y-148000000D03*
X117175000Y-148000000D03*
%TD*%
D31*
%TO.C,C76*%
X95725000Y-134500000D03*
X97275000Y-134500000D03*
%TD*%
D15*
%TO.C,R20*%
X128825000Y-99000000D03*
X127175000Y-99000000D03*
%TD*%
D42*
%TO.C,SW1*%
X78500000Y-97090000D03*
X78500000Y-87910000D03*
%TD*%
M02*
