  0
SECTION
  2
HEADER
  9
$ANGBASE
  50
0.0
  9
$ANGDIR
  70
1
  9
$MEASUREMENT
  70
0
  0
ENDSEC
  0
SECTION
  2
TABLES
  0
TABLE
  2
LTYPE
  70
4
  0
LTYPE
  5
40F
  2
CONTINUOUS
  70
0
  3
Solid line
  72
65
  73
0
  40
0.0
  0
LTYPE
  5
410
  2
DASHDOT
 70
0
  3
Dash Dot ____ _ ____ _
 72
65
 73
4
 40
2.0
 49
1.25
 49
-0.25
 49
0.25
 49
-0.25
  0
LTYPE
  5
411
  2
DASHED
 70
0
  3
Dashed __ __ __ __ __
 72
65
 73
2
 40
0.75
 49
0.5
 49
-0.25
  0
LTYPE
  5
43B
  2
DOTTED
 70
0
  3
Dotted .  .  .  .
 72
65
 73
2
 40
0.2
 49
0.0
 49
-0.2
  0
ENDTAB
  0
TABLE
  2
STYLE
  70
4
  0
STYLE
  2
KICAD
  70
0
  40
0
  41
1
  42
1
  50
0
  71
0
  3
isocp.shx
  0
STYLE
  2
KICADB
  70
0
  40
0
  41
1
  42
1
  50
0
  71
0
  3
isocp.shx
  0
STYLE
  2
KICADI
  70
0
  40
0
  41
1
  42
1
  50
15
  71
0
  3
isocp.shx
  0
STYLE
  2
KICADBI
  70
0
  40
0
  41
1
  42
1
  50
15
  71
0
  3
isocp.shx
  0
ENDTAB
  0
TABLE
  2
LAYER
  70
1
  0
LAYER
  2
BLACK
  70
0
  62
7
  6
CONTINUOUS
  0
ENDTAB
  0
ENDSEC
  0
SECTION
  2
ENTITIES
0
LINE
8
BLACK
6
CONTINUOUS
10
1.7716535433070866
20
-2.3622047244094486
11
5.7086614173228343
21
-2.3622047244094486
0
LINE
8
BLACK
6
CONTINUOUS
10
5.7086614173228343
20
-2.3622047244094486
11
5.7086614173228343
21
-6.2992125984251963
0
LINE
8
BLACK
6
CONTINUOUS
10
5.7086614173228343
20
-6.2992125984251963
11
1.7716535433070866
21
-6.2992125984251963
0
LINE
8
BLACK
6
CONTINUOUS
10
1.7716535433070866
20
-6.2992125984251963
11
1.7716535433070866
21
-2.3622047244094486
0
LINE
8
BLACK
6
CONTINUOUS
10
1.8287401574803148
20
-2.4192913385826773
11
1.9547244094488188
21
-2.545275590551181
0
LINE
8
BLACK
6
CONTINUOUS
10
1.9547244094488188
20
-2.4192913385826773
11
1.8287401574803148
21
-2.545275590551181
0
LINE
8
BLACK
6
CONTINUOUS
10
1.8287401574803148
20
-6.1161417322834648
11
1.9547244094488188
21
-6.2421259842519685
0
LINE
8
BLACK
6
CONTINUOUS
10
1.9547244094488188
20
-6.1161417322834648
11
1.8287401574803148
21
-6.2421259842519685
0
LINE
8
BLACK
6
CONTINUOUS
10
5.5255905511811019
20
-2.4192913385826773
11
5.6515748031496065
21
-2.545275590551181
0
LINE
8
BLACK
6
CONTINUOUS
10
5.6515748031496065
20
-2.4192913385826773
11
5.5255905511811019
21
-2.545275590551181
0
LINE
8
BLACK
6
CONTINUOUS
10
5.5255905511811019
20
-6.1161417322834648
11
5.6515748031496065
21
-6.2421259842519685
0
LINE
8
BLACK
6
CONTINUOUS
10
5.6515748031496065
20
-6.1161417322834648
11
5.5255905511811019
21
-6.2421259842519685
0
LINE
8
BLACK
6
CONTINUOUS
10
1.8723530708661418
20
-6.4238125196850389
11
1.8723530708661418
21
-6.345072362204724
0
LINE
8
BLACK
6
CONTINUOUS
10
1.8723530708661418
20
-6.345072362204724
11
1.8911007086614173
21
-6.345072362204724
0
LINE
8
BLACK
6
CONTINUOUS
10
1.8911007086614173
20
-6.345072362204724
11
1.9023493307086614
21
-6.3488218897637791
0
LINE
8
BLACK
6
CONTINUOUS
10
1.9023493307086614
20
-6.3488218897637791
11
1.9098483858267716
21
-6.3563209448818894
0
LINE
8
BLACK
6
CONTINUOUS
10
1.9098483858267716
20
-6.3563209448818894
11
1.9135979133858267
21
-6.3638199999999996
0
LINE
8
BLACK
6
CONTINUOUS
10
1.9135979133858267
20
-6.3638199999999996
11
1.9173474409448819
21
-6.37881811023622
0
LINE
8
BLACK
6
CONTINUOUS
10
1.9173474409448819
20
-6.37881811023622
11
1.9173474409448819
21
-6.3900667322834641
0
LINE
8
BLACK
6
CONTINUOUS
10
1.9173474409448819
20
-6.3900667322834641
11
1.9135979133858267
21
-6.4050648425196846
0
LINE
8
BLACK
6
CONTINUOUS
10
1.9135979133858267
20
-6.4050648425196846
11
1.9098483858267716
21
-6.4125638976377948
0
LINE
8
BLACK
6
CONTINUOUS
10
1.9098483858267716
20
-6.4125638976377948
11
1.9023493307086614
21
-6.4200629921259837
0
LINE
8
BLACK
6
CONTINUOUS
10
1.9023493307086614
20
-6.4200629921259837
11
1.8911007086614173
21
-6.4238125196850389
0
LINE
8
BLACK
6
CONTINUOUS
10
1.8911007086614173
20
-6.4238125196850389
11
1.8723530708661418
21
-6.4238125196850389
0
LINE
8
BLACK
6
CONTINUOUS
10
1.9510932283464566
20
-6.4238125196850389
11
1.9510932283464566
21
-6.3713190551181098
0
LINE
8
BLACK
6
CONTINUOUS
10
1.9510932283464566
20
-6.386317204724409
11
1.9548427559055117
21
-6.37881811023622
0
LINE
8
BLACK
6
CONTINUOUS
10
1.9548427559055117
20
-6.37881811023622
11
1.9585922834645668
21
-6.3750685826771649
0
LINE
8
BLACK
6
CONTINUOUS
10
1.9585922834645668
20
-6.3750685826771649
11
1.966091338582677
21
-6.3713190551181098
0
LINE
8
BLACK
6
CONTINUOUS
10
1.966091338582677
20
-6.3713190551181098
11
1.973590433070866
21
-6.3713190551181098
0
LINE
8
BLACK
6
CONTINUOUS
10
1.999837125984252
20
-6.4238125196850389
11
1.999837125984252
21
-6.3713190551181098
0
LINE
8
BLACK
6
CONTINUOUS
10
1.999837125984252
20
-6.345072362204724
11
1.9960875984251969
21
-6.3488218897637791
0
LINE
8
BLACK
6
CONTINUOUS
10
1.9960875984251969
20
-6.3488218897637791
11
1.999837125984252
21
-6.3525714173228343
0
LINE
8
BLACK
6
CONTINUOUS
10
1.999837125984252
20
-6.3525714173228343
11
2.0035866535433069
21
-6.3488218897637791
0
LINE
8
BLACK
6
CONTINUOUS
10
2.0035866535433069
20
-6.3488218897637791
11
1.999837125984252
21
-6.345072362204724
0
LINE
8
BLACK
6
CONTINUOUS
10
1.999837125984252
20
-6.345072362204724
11
1.999837125984252
21
-6.3525714173228343
0
LINE
8
BLACK
6
CONTINUOUS
10
2.0485810236220474
20
-6.4238125196850389
11
2.0410819685039367
21
-6.4200629921259837
0
LINE
8
BLACK
6
CONTINUOUS
10
2.0410819685039367
20
-6.4200629921259837
11
2.0373324409448816
21
-6.4125638976377948
0
LINE
8
BLACK
6
CONTINUOUS
10
2.0373324409448816
20
-6.4125638976377948
11
2.0373324409448816
21
-6.345072362204724
0
LINE
8
BLACK
6
CONTINUOUS
10
2.0898258661417324
20
-6.4238125196850389
11
2.0823268110236222
21
-6.4200629921259837
0
LINE
8
BLACK
6
CONTINUOUS
10
2.0823268110236222
20
-6.4200629921259837
11
2.078577283464567
21
-6.4125638976377948
0
LINE
8
BLACK
6
CONTINUOUS
10
2.078577283464567
20
-6.4125638976377948
11
2.078577283464567
21
-6.345072362204724
0
LINE
8
BLACK
6
CONTINUOUS
10
2.1798146456692913
20
-6.4238125196850389
11
2.1798146456692913
21
-6.345072362204724
0
LINE
8
BLACK
6
CONTINUOUS
10
2.1798146456692913
20
-6.345072362204724
11
2.2060613779527558
21
-6.4013153149606294
0
LINE
8
BLACK
6
CONTINUOUS
10
2.2060613779527558
20
-6.4013153149606294
11
2.2323080708661416
21
-6.345072362204724
0
LINE
8
BLACK
6
CONTINUOUS
10
2.2323080708661416
20
-6.345072362204724
11
2.2323080708661416
21
-6.4238125196850389
0
LINE
8
BLACK
6
CONTINUOUS
10
2.3035491732283466
20
-6.4238125196850389
11
2.3035491732283466
21
-6.3825676771653539
0
LINE
8
BLACK
6
CONTINUOUS
10
2.3035491732283466
20
-6.3825676771653539
11
2.2997996456692911
21
-6.3750685826771649
0
LINE
8
BLACK
6
CONTINUOUS
10
2.2997996456692911
20
-6.3750685826771649
11
2.2923005905511808
21
-6.3713190551181098
0
LINE
8
BLACK
6
CONTINUOUS
10
2.2923005905511808
20
-6.3713190551181098
11
2.2773024409448817
21
-6.3713190551181098
0
LINE
8
BLACK
6
CONTINUOUS
10
2.2773024409448817
20
-6.3713190551181098
11
2.2698033858267714
21
-6.3750685826771649
0
LINE
8
BLACK
6
CONTINUOUS
10
2.3035491732283466
20
-6.4200629921259837
11
2.296050118110236
21
-6.4238125196850389
0
LINE
8
BLACK
6
CONTINUOUS
10
2.296050118110236
20
-6.4238125196850389
11
2.2773024409448817
21
-6.4238125196850389
0
LINE
8
BLACK
6
CONTINUOUS
10
2.2773024409448817
20
-6.4238125196850389
11
2.2698033858267714
21
-6.4200629921259837
0
LINE
8
BLACK
6
CONTINUOUS
10
2.2698033858267714
20
-6.4200629921259837
11
2.2660538582677163
21
-6.4125638976377948
0
LINE
8
BLACK
6
CONTINUOUS
10
2.2660538582677163
20
-6.4125638976377948
11
2.2660538582677163
21
-6.4050648425196846
0
LINE
8
BLACK
6
CONTINUOUS
10
2.2660538582677163
20
-6.4050648425196846
11
2.2698033858267714
21
-6.3975657874015743
0
LINE
8
BLACK
6
CONTINUOUS
10
2.2698033858267714
20
-6.3975657874015743
11
2.2773024409448817
21
-6.3938162598425192
0
LINE
8
BLACK
6
CONTINUOUS
10
2.2773024409448817
20
-6.3938162598425192
11
2.296050118110236
21
-6.3938162598425192
0
LINE
8
BLACK
6
CONTINUOUS
10
2.296050118110236
20
-6.3938162598425192
11
2.3035491732283466
21
-6.3900667322834641
0
LINE
8
BLACK
6
CONTINUOUS
10
2.3410444881889765
20
-6.3713190551181098
11
2.3410444881889765
21
-6.4500592125984246
0
LINE
8
BLACK
6
CONTINUOUS
10
2.3410444881889765
20
-6.3750685826771649
11
2.3485435433070867
21
-6.3713190551181098
0
LINE
8
BLACK
6
CONTINUOUS
10
2.3485435433070867
20
-6.3713190551181098
11
2.3635416929133859
21
-6.3713190551181098
0
LINE
8
BLACK
6
CONTINUOUS
10
2.3635416929133859
20
-6.3713190551181098
11
2.3710407480314961
21
-6.3750685826771649
0
LINE
8
BLACK
6
CONTINUOUS
10
2.3710407480314961
20
-6.3750685826771649
11
2.3747902755905512
21
-6.37881811023622
0
LINE
8
BLACK
6
CONTINUOUS
10
2.3747902755905512
20
-6.37881811023622
11
2.3785398031496063
21
-6.386317204724409
0
LINE
8
BLACK
6
CONTINUOUS
10
2.3785398031496063
20
-6.386317204724409
11
2.3785398031496063
21
-6.4088143700787397
0
LINE
8
BLACK
6
CONTINUOUS
10
2.3785398031496063
20
-6.4088143700787397
11
2.3747902755905512
21
-6.4163134251968499
0
LINE
8
BLACK
6
CONTINUOUS
10
2.3747902755905512
20
-6.4163134251968499
11
2.3710407480314961
21
-6.4200629921259837
0
LINE
8
BLACK
6
CONTINUOUS
10
2.3710407480314961
20
-6.4200629921259837
11
2.3635416929133859
21
-6.4238125196850389
0
LINE
8
BLACK
6
CONTINUOUS
10
2.3635416929133859
20
-6.4238125196850389
11
2.3485435433070867
21
-6.4238125196850389
0
LINE
8
BLACK
6
CONTINUOUS
10
2.3485435433070867
20
-6.4238125196850389
11
2.3410444881889765
21
-6.4200629921259837
0
LINE
8
BLACK
6
CONTINUOUS
10
2.4122855905511811
20
-6.4163134251968499
11
2.4160351181102362
21
-6.4200629921259837
0
LINE
8
BLACK
6
CONTINUOUS
10
2.4160351181102362
20
-6.4200629921259837
11
2.4122855905511811
21
-6.4238125196850389
0
LINE
8
BLACK
6
CONTINUOUS
10
2.4122855905511811
20
-6.4238125196850389
11
2.408536062992126
21
-6.4200629921259837
0
LINE
8
BLACK
6
CONTINUOUS
10
2.408536062992126
20
-6.4200629921259837
11
2.4122855905511811
21
-6.4163134251968499
0
LINE
8
BLACK
6
CONTINUOUS
10
2.4122855905511811
20
-6.4163134251968499
11
2.4122855905511811
21
-6.4238125196850389
0
LINE
8
BLACK
6
CONTINUOUS
10
2.4122855905511811
20
-6.3750685826771649
11
2.4160351181102362
21
-6.37881811023622
0
LINE
8
BLACK
6
CONTINUOUS
10
2.4160351181102362
20
-6.37881811023622
11
2.4122855905511811
21
-6.3825676771653539
0
LINE
8
BLACK
6
CONTINUOUS
10
2.4122855905511811
20
-6.3825676771653539
11
2.408536062992126
21
-6.37881811023622
0
LINE
8
BLACK
6
CONTINUOUS
10
2.408536062992126
20
-6.37881811023622
11
2.4122855905511811
21
-6.3750685826771649
0
LINE
8
BLACK
6
CONTINUOUS
10
2.4122855905511811
20
-6.3750685826771649
11
2.4122855905511811
21
-6.3825676771653539
0
LINE
8
BLACK
6
CONTINUOUS
10
1.6909448818897637
20
-6.5137795275590546
11
1.7696850393700787
21
-6.5925196850393704
0
LINE
8
BLACK
6
CONTINUOUS
10
1.7696850393700787
20
-6.5137795275590546
11
1.6909448818897637
21
-6.5925196850393704
0
LINE
8
BLACK
6
CONTINUOUS
10
1.8648540157480316
20
-6.510426692913386
11
1.9135979133858267
21
-6.510426692913386
0
LINE
8
BLACK
6
CONTINUOUS
10
1.9135979133858267
20
-6.510426692913386
11
1.8873511811023622
21
-6.5404229133858269
0
LINE
8
BLACK
6
CONTINUOUS
10
1.8873511811023622
20
-6.5404229133858269
11
1.8985998031496063
21
-6.5404229133858269
0
LINE
8
BLACK
6
CONTINUOUS
10
1.8985998031496063
20
-6.5404229133858269
11
1.9060988582677165
21
-6.544172440944882
0
LINE
8
BLACK
6
CONTINUOUS
10
1.9060988582677165
20
-6.544172440944882
11
1.9098483858267716
21
-6.5479220078740159
0
LINE
8
BLACK
6
CONTINUOUS
10
1.9098483858267716
20
-6.5479220078740159
11
1.9135979133858267
21
-6.5554210629921261
0
LINE
8
BLACK
6
CONTINUOUS
10
1.9135979133858267
20
-6.5554210629921261
11
1.9135979133858267
21
-6.5741687007874017
0
LINE
8
BLACK
6
CONTINUOUS
10
1.9135979133858267
20
-6.5741687007874017
11
1.9098483858267716
21
-6.5816677559055119
0
LINE
8
BLACK
6
CONTINUOUS
10
1.9098483858267716
20
-6.5816677559055119
11
1.9060988582677165
21
-6.5854173228346458
0
LINE
8
BLACK
6
CONTINUOUS
10
1.9060988582677165
20
-6.5854173228346458
11
1.8985998031496063
21
-6.5891668503937009
0
LINE
8
BLACK
6
CONTINUOUS
10
1.8985998031496063
20
-6.5891668503937009
11
1.8761025984251969
21
-6.5891668503937009
0
LINE
8
BLACK
6
CONTINUOUS
10
1.8761025984251969
20
-6.5891668503937009
11
1.8686035433070867
21
-6.5854173228346458
0
LINE
8
BLACK
6
CONTINUOUS
10
1.8686035433070867
20
-6.5854173228346458
11
1.8648540157480316
21
-6.5816677559055119
0
LINE
8
BLACK
6
CONTINUOUS
10
1.9473437007874015
20
-6.5816677559055119
11
1.9510932283464566
21
-6.5854173228346458
0
LINE
8
BLACK
6
CONTINUOUS
10
1.9510932283464566
20
-6.5854173228346458
11
1.9473437007874015
21
-6.5891668503937009
0
LINE
8
BLACK
6
CONTINUOUS
10
1.9473437007874015
20
-6.5891668503937009
11
1.9435941732283464
21
-6.5854173228346458
0
LINE
8
BLACK
6
CONTINUOUS
10
1.9435941732283464
20
-6.5854173228346458
11
1.9473437007874015
21
-6.5816677559055119
0
LINE
8
BLACK
6
CONTINUOUS
10
1.9473437007874015
20
-6.5816677559055119
11
1.9473437007874015
21
-6.5891668503937009
0
LINE
8
BLACK
6
CONTINUOUS
10
1.9810894881889762
20
-6.5179257480314963
11
1.9848390157480313
21
-6.5141762204724412
0
LINE
8
BLACK
6
CONTINUOUS
10
1.9848390157480313
20
-6.5141762204724412
11
1.9923380708661418
21
-6.510426692913386
0
LINE
8
BLACK
6
CONTINUOUS
10
1.9923380708661418
20
-6.510426692913386
11
2.0110857480314959
21
-6.510426692913386
0
LINE
8
BLACK
6
CONTINUOUS
10
2.0110857480314959
20
-6.510426692913386
11
2.0185848031496061
21
-6.5141762204724412
0
LINE
8
BLACK
6
CONTINUOUS
10
2.0185848031496061
20
-6.5141762204724412
11
2.0223343307086612
21
-6.5179257480314963
0
LINE
8
BLACK
6
CONTINUOUS
10
2.0223343307086612
20
-6.5179257480314963
11
2.0260838582677163
21
-6.5254248031496065
0
LINE
8
BLACK
6
CONTINUOUS
10
2.0260838582677163
20
-6.5254248031496065
11
2.0260838582677163
21
-6.5329238582677167
0
LINE
8
BLACK
6
CONTINUOUS
10
2.0260838582677163
20
-6.5329238582677167
11
2.0223343307086612
21
-6.544172440944882
0
LINE
8
BLACK
6
CONTINUOUS
10
2.0223343307086612
20
-6.544172440944882
11
1.9773399606299211
21
-6.5891668503937009
0
LINE
8
BLACK
6
CONTINUOUS
10
1.9773399606299211
20
-6.5891668503937009
11
2.0260838582677163
21
-6.5891668503937009
0
LINE
8
BLACK
6
CONTINUOUS
10
2.0748277559055119
20
-6.510426692913386
11
2.0823268503937009
21
-6.510426692913386
0
LINE
8
BLACK
6
CONTINUOUS
10
2.0823268503937009
20
-6.510426692913386
11
2.0898259055118111
21
-6.5141762204724412
0
LINE
8
BLACK
6
CONTINUOUS
10
2.0898259055118111
20
-6.5141762204724412
11
2.0935754330708662
21
-6.5179257480314963
0
LINE
8
BLACK
6
CONTINUOUS
10
2.0935754330708662
20
-6.5179257480314963
11
2.0973249606299214
21
-6.5254248031496065
0
LINE
8
BLACK
6
CONTINUOUS
10
2.0973249606299214
20
-6.5254248031496065
11
2.1010744881889765
21
-6.5404229133858269
0
LINE
8
BLACK
6
CONTINUOUS
10
2.1010744881889765
20
-6.5404229133858269
11
2.1010744881889765
21
-6.5591705905511812
0
LINE
8
BLACK
6
CONTINUOUS
10
2.1010744881889765
20
-6.5591705905511812
11
2.0973249606299214
21
-6.5741687007874017
0
LINE
8
BLACK
6
CONTINUOUS
10
2.0973249606299214
20
-6.5741687007874017
11
2.0935754330708662
21
-6.5816677559055119
0
LINE
8
BLACK
6
CONTINUOUS
10
2.0935754330708662
20
-6.5816677559055119
11
2.0898259055118111
21
-6.5854173228346458
0
LINE
8
BLACK
6
CONTINUOUS
10
2.0898259055118111
20
-6.5854173228346458
11
2.0823268503937009
21
-6.5891668503937009
0
LINE
8
BLACK
6
CONTINUOUS
10
2.0823268503937009
20
-6.5891668503937009
11
2.0748277559055119
21
-6.5891668503937009
0
LINE
8
BLACK
6
CONTINUOUS
10
2.0748277559055119
20
-6.5891668503937009
11
2.0673287007874017
21
-6.5854173228346458
0
LINE
8
BLACK
6
CONTINUOUS
10
2.0673287007874017
20
-6.5854173228346458
11
2.0635791732283466
21
-6.5816677559055119
0
LINE
8
BLACK
6
CONTINUOUS
10
2.0635791732283466
20
-6.5816677559055119
11
2.0598296456692915
21
-6.5741687007874017
0
LINE
8
BLACK
6
CONTINUOUS
10
2.0598296456692915
20
-6.5741687007874017
11
2.0560801181102364
21
-6.5591705905511812
0
LINE
8
BLACK
6
CONTINUOUS
10
2.0560801181102364
20
-6.5591705905511812
11
2.0560801181102364
21
-6.5404229133858269
0
LINE
8
BLACK
6
CONTINUOUS
10
2.0560801181102364
20
-6.5404229133858269
11
2.0598296456692915
21
-6.5254248031496065
0
LINE
8
BLACK
6
CONTINUOUS
10
2.0598296456692915
20
-6.5254248031496065
11
2.0635791732283466
21
-6.5179257480314963
0
LINE
8
BLACK
6
CONTINUOUS
10
2.0635791732283466
20
-6.5179257480314963
11
2.0673287007874017
21
-6.5141762204724412
0
LINE
8
BLACK
6
CONTINUOUS
10
2.0673287007874017
20
-6.5141762204724412
11
2.0748277559055119
21
-6.510426692913386
0
LINE
8
BLACK
6
CONTINUOUS
10
2.1498183858267716
20
-6.510426692913386
11
2.1573174803149606
21
-6.510426692913386
0
LINE
8
BLACK
6
CONTINUOUS
10
2.1573174803149606
20
-6.510426692913386
11
2.1648165354330708
21
-6.5141762204724412
0
LINE
8
BLACK
6
CONTINUOUS
10
2.1648165354330708
20
-6.5141762204724412
11
2.168566062992126
21
-6.5179257480314963
0
LINE
8
BLACK
6
CONTINUOUS
10
2.168566062992126
20
-6.5179257480314963
11
2.1723155905511811
21
-6.5254248031496065
0
LINE
8
BLACK
6
CONTINUOUS
10
2.1723155905511811
20
-6.5254248031496065
11
2.1760651181102362
21
-6.5404229133858269
0
LINE
8
BLACK
6
CONTINUOUS
10
2.1760651181102362
20
-6.5404229133858269
11
2.1760651181102362
21
-6.5591705905511812
0
LINE
8
BLACK
6
CONTINUOUS
10
2.1760651181102362
20
-6.5591705905511812
11
2.1723155905511811
21
-6.5741687007874017
0
LINE
8
BLACK
6
CONTINUOUS
10
2.1723155905511811
20
-6.5741687007874017
11
2.168566062992126
21
-6.5816677559055119
0
LINE
8
BLACK
6
CONTINUOUS
10
2.168566062992126
20
-6.5816677559055119
11
2.1648165354330708
21
-6.5854173228346458
0
LINE
8
BLACK
6
CONTINUOUS
10
2.1648165354330708
20
-6.5854173228346458
11
2.1573174803149606
21
-6.5891668503937009
0
LINE
8
BLACK
6
CONTINUOUS
10
2.1573174803149606
20
-6.5891668503937009
11
2.1498183858267716
21
-6.5891668503937009
0
LINE
8
BLACK
6
CONTINUOUS
10
2.1498183858267716
20
-6.5891668503937009
11
2.1423193307086614
21
-6.5854173228346458
0
LINE
8
BLACK
6
CONTINUOUS
10
2.1423193307086614
20
-6.5854173228346458
11
2.1385698031496063
21
-6.5816677559055119
0
LINE
8
BLACK
6
CONTINUOUS
10
2.1385698031496063
20
-6.5816677559055119
11
2.1348202755905512
21
-6.5741687007874017
0
LINE
8
BLACK
6
CONTINUOUS
10
2.1348202755905512
20
-6.5741687007874017
11
2.1310707480314961
21
-6.5591705905511812
0
LINE
8
BLACK
6
CONTINUOUS
10
2.1310707480314961
20
-6.5591705905511812
11
2.1310707480314961
21
-6.5404229133858269
0
LINE
8
BLACK
6
CONTINUOUS
10
2.1310707480314961
20
-6.5404229133858269
11
2.1348202755905512
21
-6.5254248031496065
0
LINE
8
BLACK
6
CONTINUOUS
10
2.1348202755905512
20
-6.5254248031496065
11
2.1385698031496063
21
-6.5179257480314963
0
LINE
8
BLACK
6
CONTINUOUS
10
2.1385698031496063
20
-6.5179257480314963
11
2.1423193307086614
21
-6.5141762204724412
0
LINE
8
BLACK
6
CONTINUOUS
10
2.1423193307086614
20
-6.5141762204724412
11
2.1498183858267716
21
-6.510426692913386
0
LINE
8
BLACK
6
CONTINUOUS
10
2.2098109055118109
20
-6.5891668503937009
11
2.2098109055118109
21
-6.5366733858267718
0
LINE
8
BLACK
6
CONTINUOUS
10
2.2098109055118109
20
-6.544172440944882
11
2.213560433070866
21
-6.5404229133858269
0
LINE
8
BLACK
6
CONTINUOUS
10
2.213560433070866
20
-6.5404229133858269
11
2.2210594881889762
21
-6.5366733858267718
0
LINE
8
BLACK
6
CONTINUOUS
10
2.2210594881889762
20
-6.5366733858267718
11
2.2323081102362203
21
-6.5366733858267718
0
LINE
8
BLACK
6
CONTINUOUS
10
2.2323081102362203
20
-6.5366733858267718
11
2.2398071653543306
21
-6.5404229133858269
0
LINE
8
BLACK
6
CONTINUOUS
10
2.2398071653543306
20
-6.5404229133858269
11
2.2435566929133857
21
-6.5479220078740159
0
LINE
8
BLACK
6
CONTINUOUS
10
2.2435566929133857
20
-6.5479220078740159
11
2.2435566929133857
21
-6.5891668503937009
0
LINE
8
BLACK
6
CONTINUOUS
10
2.2435566929133857
20
-6.5479220078740159
11
2.2473062204724408
21
-6.5404229133858269
0
LINE
8
BLACK
6
CONTINUOUS
10
2.2473062204724408
20
-6.5404229133858269
11
2.254805275590551
21
-6.5366733858267718
0
LINE
8
BLACK
6
CONTINUOUS
10
2.254805275590551
20
-6.5366733858267718
11
2.2660538582677163
21
-6.5366733858267718
0
LINE
8
BLACK
6
CONTINUOUS
10
2.2660538582677163
20
-6.5366733858267718
11
2.2735529527559053
21
-6.5404229133858269
0
LINE
8
BLACK
6
CONTINUOUS
10
2.2735529527559053
20
-6.5404229133858269
11
2.2773024803149604
21
-6.5479220078740159
0
LINE
8
BLACK
6
CONTINUOUS
10
2.2773024803149604
20
-6.5479220078740159
11
2.2773024803149604
21
-6.5891668503937009
0
LINE
8
BLACK
6
CONTINUOUS
10
2.3147977952755907
20
-6.5891668503937009
11
2.3147977952755907
21
-6.5366733858267718
0
LINE
8
BLACK
6
CONTINUOUS
10
2.3147977952755907
20
-6.544172440944882
11
2.3185473228346458
21
-6.5404229133858269
0
LINE
8
BLACK
6
CONTINUOUS
10
2.3185473228346458
20
-6.5404229133858269
11
2.326046377952756
21
-6.5366733858267718
0
LINE
8
BLACK
6
CONTINUOUS
10
2.326046377952756
20
-6.5366733858267718
11
2.3372950000000001
21
-6.5366733858267718
0
LINE
8
BLACK
6
CONTINUOUS
10
2.3372950000000001
20
-6.5366733858267718
11
2.3447940551181103
21
-6.5404229133858269
0
LINE
8
BLACK
6
CONTINUOUS
10
2.3447940551181103
20
-6.5404229133858269
11
2.3485435826771655
21
-6.5479220078740159
0
LINE
8
BLACK
6
CONTINUOUS
10
2.3485435826771655
20
-6.5479220078740159
11
2.3485435826771655
21
-6.5891668503937009
0
LINE
8
BLACK
6
CONTINUOUS
10
2.3485435826771655
20
-6.5479220078740159
11
2.3522931102362206
21
-6.5404229133858269
0
LINE
8
BLACK
6
CONTINUOUS
10
2.3522931102362206
20
-6.5404229133858269
11
2.3597921653543308
21
-6.5366733858267718
0
LINE
8
BLACK
6
CONTINUOUS
10
2.3597921653543308
20
-6.5366733858267718
11
2.3710407480314961
21
-6.5366733858267718
0
LINE
8
BLACK
6
CONTINUOUS
10
2.3710407480314961
20
-6.5366733858267718
11
2.3785398425196851
21
-6.5404229133858269
0
LINE
8
BLACK
6
CONTINUOUS
10
2.3785398425196851
20
-6.5404229133858269
11
2.3822893700787402
21
-6.5479220078740159
0
LINE
8
BLACK
6
CONTINUOUS
10
2.3822893700787402
20
-6.5479220078740159
11
2.3822893700787402
21
-6.5891668503937009
0
LINE
8
BLACK
6
CONTINUOUS
10
2.5360201574803147
20
-6.5066771653543309
11
2.468528622047244
21
-6.6079144881889764
0
LINE
8
BLACK
6
CONTINUOUS
10
2.6372575196850394
20
-6.510426692913386
11
2.6447566141732284
21
-6.510426692913386
0
LINE
8
BLACK
6
CONTINUOUS
10
2.6447566141732284
20
-6.510426692913386
11
2.6522556692913386
21
-6.5141762204724412
0
LINE
8
BLACK
6
CONTINUOUS
10
2.6522556692913386
20
-6.5141762204724412
11
2.6560051968503937
21
-6.5179257480314963
0
LINE
8
BLACK
6
CONTINUOUS
10
2.6560051968503937
20
-6.5179257480314963
11
2.6597547244094488
21
-6.5254248031496065
0
LINE
8
BLACK
6
CONTINUOUS
10
2.6597547244094488
20
-6.5254248031496065
11
2.6635042519685039
21
-6.5404229133858269
0
LINE
8
BLACK
6
CONTINUOUS
10
2.6635042519685039
20
-6.5404229133858269
11
2.6635042519685039
21
-6.5591705905511812
0
LINE
8
BLACK
6
CONTINUOUS
10
2.6635042519685039
20
-6.5591705905511812
11
2.6597547244094488
21
-6.5741687007874017
0
LINE
8
BLACK
6
CONTINUOUS
10
2.6597547244094488
20
-6.5741687007874017
11
2.6560051968503937
21
-6.5816677559055119
0
LINE
8
BLACK
6
CONTINUOUS
10
2.6560051968503937
20
-6.5816677559055119
11
2.6522556692913386
21
-6.5854173228346458
0
LINE
8
BLACK
6
CONTINUOUS
10
2.6522556692913386
20
-6.5854173228346458
11
2.6447566141732284
21
-6.5891668503937009
0
LINE
8
BLACK
6
CONTINUOUS
10
2.6447566141732284
20
-6.5891668503937009
11
2.6372575196850394
21
-6.5891668503937009
0
LINE
8
BLACK
6
CONTINUOUS
10
2.6372575196850394
20
-6.5891668503937009
11
2.6297584645669292
21
-6.5854173228346458
0
LINE
8
BLACK
6
CONTINUOUS
10
2.6297584645669292
20
-6.5854173228346458
11
2.6260089370078741
21
-6.5816677559055119
0
LINE
8
BLACK
6
CONTINUOUS
10
2.6260089370078741
20
-6.5816677559055119
11
2.622259409448819
21
-6.5741687007874017
0
LINE
8
BLACK
6
CONTINUOUS
10
2.622259409448819
20
-6.5741687007874017
11
2.6185098818897639
21
-6.5591705905511812
0
LINE
8
BLACK
6
CONTINUOUS
10
2.6185098818897639
20
-6.5591705905511812
11
2.6185098818897639
21
-6.5404229133858269
0
LINE
8
BLACK
6
CONTINUOUS
10
2.6185098818897639
20
-6.5404229133858269
11
2.622259409448819
21
-6.5254248031496065
0
LINE
8
BLACK
6
CONTINUOUS
10
2.622259409448819
20
-6.5254248031496065
11
2.6260089370078741
21
-6.5179257480314963
0
LINE
8
BLACK
6
CONTINUOUS
10
2.6260089370078741
20
-6.5179257480314963
11
2.6297584645669292
21
-6.5141762204724412
0
LINE
8
BLACK
6
CONTINUOUS
10
2.6297584645669292
20
-6.5141762204724412
11
2.6372575196850394
21
-6.510426692913386
0
LINE
8
BLACK
6
CONTINUOUS
10
2.6972500393700787
20
-6.5816677559055119
11
2.7009995669291338
21
-6.5854173228346458
0
LINE
8
BLACK
6
CONTINUOUS
10
2.7009995669291338
20
-6.5854173228346458
11
2.6972500393700787
21
-6.5891668503937009
0
LINE
8
BLACK
6
CONTINUOUS
10
2.6972500393700787
20
-6.5891668503937009
11
2.6935005118110236
21
-6.5854173228346458
0
LINE
8
BLACK
6
CONTINUOUS
10
2.6935005118110236
20
-6.5854173228346458
11
2.6972500393700787
21
-6.5816677559055119
0
LINE
8
BLACK
6
CONTINUOUS
10
2.6972500393700787
20
-6.5816677559055119
11
2.6972500393700787
21
-6.5891668503937009
0
LINE
8
BLACK
6
CONTINUOUS
10
2.7759901968503935
20
-6.5891668503937009
11
2.7309958267716534
21
-6.5891668503937009
0
LINE
8
BLACK
6
CONTINUOUS
10
2.7534929921259841
20
-6.5891668503937009
11
2.7534929921259841
21
-6.510426692913386
0
LINE
8
BLACK
6
CONTINUOUS
10
2.7534929921259841
20
-6.510426692913386
11
2.7459939370078739
21
-6.5216752755905514
0
LINE
8
BLACK
6
CONTINUOUS
10
2.7459939370078739
20
-6.5216752755905514
11
2.7384948818897636
21
-6.5291743307086616
0
LINE
8
BLACK
6
CONTINUOUS
10
2.7384948818897636
20
-6.5291743307086616
11
2.7309958267716534
21
-6.5329238582677167
0
LINE
8
BLACK
6
CONTINUOUS
10
2.8059864566929131
20
-6.5179257480314963
11
2.8097359842519682
21
-6.5141762204724412
0
LINE
8
BLACK
6
CONTINUOUS
10
2.8097359842519682
20
-6.5141762204724412
11
2.8172350393700785
21
-6.510426692913386
0
LINE
8
BLACK
6
CONTINUOUS
10
2.8172350393700785
20
-6.510426692913386
11
2.8359827165354332
21
-6.510426692913386
0
LINE
8
BLACK
6
CONTINUOUS
10
2.8359827165354332
20
-6.510426692913386
11
2.8434817716535434
21
-6.5141762204724412
0
LINE
8
BLACK
6
CONTINUOUS
10
2.8434817716535434
20
-6.5141762204724412
11
2.8472312992125985
21
-6.5179257480314963
0
LINE
8
BLACK
6
CONTINUOUS
10
2.8472312992125985
20
-6.5179257480314963
11
2.8509808267716537
21
-6.5254248031496065
0
LINE
8
BLACK
6
CONTINUOUS
10
2.8509808267716537
20
-6.5254248031496065
11
2.8509808267716537
21
-6.5329238582677167
0
LINE
8
BLACK
6
CONTINUOUS
10
2.8509808267716537
20
-6.5329238582677167
11
2.8472312992125985
21
-6.544172440944882
0
LINE
8
BLACK
6
CONTINUOUS
10
2.8472312992125985
20
-6.544172440944882
11
2.802236929133858
21
-6.5891668503937009
0
LINE
8
BLACK
6
CONTINUOUS
10
2.802236929133858
20
-6.5891668503937009
11
2.8509808267716537
21
-6.5891668503937009
0
LINE
8
BLACK
6
CONTINUOUS
10
2.9184724015748031
20
-6.510426692913386
11
2.9034742519685039
21
-6.510426692913386
0
LINE
8
BLACK
6
CONTINUOUS
10
2.9034742519685039
20
-6.510426692913386
11
2.8959751968503937
21
-6.5141762204724412
0
LINE
8
BLACK
6
CONTINUOUS
10
2.8959751968503937
20
-6.5141762204724412
11
2.8922256692913386
21
-6.5179257480314963
0
LINE
8
BLACK
6
CONTINUOUS
10
2.8922256692913386
20
-6.5179257480314963
11
2.8847266141732284
21
-6.5291743307086616
0
LINE
8
BLACK
6
CONTINUOUS
10
2.8847266141732284
20
-6.5291743307086616
11
2.8809770866141733
21
-6.544172440944882
0
LINE
8
BLACK
6
CONTINUOUS
10
2.8809770866141733
20
-6.544172440944882
11
2.8809770866141733
21
-6.5741687007874017
0
LINE
8
BLACK
6
CONTINUOUS
10
2.8809770866141733
20
-6.5741687007874017
11
2.8847266141732284
21
-6.5816677559055119
0
LINE
8
BLACK
6
CONTINUOUS
10
2.8847266141732284
20
-6.5816677559055119
11
2.8884761417322835
21
-6.5854173228346458
0
LINE
8
BLACK
6
CONTINUOUS
10
2.8884761417322835
20
-6.5854173228346458
11
2.8959751968503937
21
-6.5891668503937009
0
LINE
8
BLACK
6
CONTINUOUS
10
2.8959751968503937
20
-6.5891668503937009
11
2.9109733464566929
21
-6.5891668503937009
0
LINE
8
BLACK
6
CONTINUOUS
10
2.9109733464566929
20
-6.5891668503937009
11
2.9184724015748031
21
-6.5854173228346458
0
LINE
8
BLACK
6
CONTINUOUS
10
2.9184724015748031
20
-6.5854173228346458
11
2.9222219291338583
21
-6.5816677559055119
0
LINE
8
BLACK
6
CONTINUOUS
10
2.9222219291338583
20
-6.5816677559055119
11
2.9259714566929134
21
-6.5741687007874017
0
LINE
8
BLACK
6
CONTINUOUS
10
2.9259714566929134
20
-6.5741687007874017
11
2.9259714566929134
21
-6.5554210629921261
0
LINE
8
BLACK
6
CONTINUOUS
10
2.9259714566929134
20
-6.5554210629921261
11
2.9222219291338583
21
-6.5479220078740159
0
LINE
8
BLACK
6
CONTINUOUS
10
2.9222219291338583
20
-6.5479220078740159
11
2.9184724015748031
21
-6.544172440944882
0
LINE
8
BLACK
6
CONTINUOUS
10
2.9184724015748031
20
-6.544172440944882
11
2.9109733464566929
21
-6.5404229133858269
0
LINE
8
BLACK
6
CONTINUOUS
10
2.9109733464566929
20
-6.5404229133858269
11
2.8959751968503937
21
-6.5404229133858269
0
LINE
8
BLACK
6
CONTINUOUS
10
2.8959751968503937
20
-6.5404229133858269
11
2.8884761417322835
21
-6.544172440944882
0
LINE
8
BLACK
6
CONTINUOUS
10
2.8884761417322835
20
-6.544172440944882
11
2.8847266141732284
21
-6.5479220078740159
0
LINE
8
BLACK
6
CONTINUOUS
10
2.8847266141732284
20
-6.5479220078740159
11
2.8809770866141733
21
-6.5554210629921261
0
LINE
8
BLACK
6
CONTINUOUS
10
2.9747153543307085
20
-6.510426692913386
11
2.9822144488188975
21
-6.510426692913386
0
LINE
8
BLACK
6
CONTINUOUS
10
2.9822144488188975
20
-6.510426692913386
11
2.9897135039370077
21
-6.5141762204724412
0
LINE
8
BLACK
6
CONTINUOUS
10
2.9897135039370077
20
-6.5141762204724412
11
2.9934630314960629
21
-6.5179257480314963
0
LINE
8
BLACK
6
CONTINUOUS
10
2.9934630314960629
20
-6.5179257480314963
11
2.997212559055118
21
-6.5254248031496065
0
LINE
8
BLACK
6
CONTINUOUS
10
2.997212559055118
20
-6.5254248031496065
11
3.0009620866141731
21
-6.5404229133858269
0
LINE
8
BLACK
6
CONTINUOUS
10
3.0009620866141731
20
-6.5404229133858269
11
3.0009620866141731
21
-6.5591705905511812
0
LINE
8
BLACK
6
CONTINUOUS
10
3.0009620866141731
20
-6.5591705905511812
11
2.997212559055118
21
-6.5741687007874017
0
LINE
8
BLACK
6
CONTINUOUS
10
2.997212559055118
20
-6.5741687007874017
11
2.9934630314960629
21
-6.5816677559055119
0
LINE
8
BLACK
6
CONTINUOUS
10
2.9934630314960629
20
-6.5816677559055119
11
2.9897135039370077
21
-6.5854173228346458
0
LINE
8
BLACK
6
CONTINUOUS
10
2.9897135039370077
20
-6.5854173228346458
11
2.9822144488188975
21
-6.5891668503937009
0
LINE
8
BLACK
6
CONTINUOUS
10
2.9822144488188975
20
-6.5891668503937009
11
2.9747153543307085
21
-6.5891668503937009
0
LINE
8
BLACK
6
CONTINUOUS
10
2.9747153543307085
20
-6.5891668503937009
11
2.9672162992125983
21
-6.5854173228346458
0
LINE
8
BLACK
6
CONTINUOUS
10
2.9672162992125983
20
-6.5854173228346458
11
2.9634667716535432
21
-6.5816677559055119
0
LINE
8
BLACK
6
CONTINUOUS
10
2.9634667716535432
20
-6.5816677559055119
11
2.9597172440944881
21
-6.5741687007874017
0
LINE
8
BLACK
6
CONTINUOUS
10
2.9597172440944881
20
-6.5741687007874017
11
2.955967716535433
21
-6.5591705905511812
0
LINE
8
BLACK
6
CONTINUOUS
10
2.955967716535433
20
-6.5591705905511812
11
2.955967716535433
21
-6.5404229133858269
0
LINE
8
BLACK
6
CONTINUOUS
10
2.955967716535433
20
-6.5404229133858269
11
2.9597172440944881
21
-6.5254248031496065
0
LINE
8
BLACK
6
CONTINUOUS
10
2.9597172440944881
20
-6.5254248031496065
11
2.9634667716535432
21
-6.5179257480314963
0
LINE
8
BLACK
6
CONTINUOUS
10
2.9634667716535432
20
-6.5179257480314963
11
2.9672162992125983
21
-6.5141762204724412
0
LINE
8
BLACK
6
CONTINUOUS
10
2.9672162992125983
20
-6.5141762204724412
11
2.9747153543307085
21
-6.510426692913386
0
LINE
8
BLACK
6
CONTINUOUS
10
3.0309583464566927
20
-6.510426692913386
11
3.0309583464566927
21
-6.5254248031496065
0
LINE
8
BLACK
6
CONTINUOUS
10
3.0609546062992123
20
-6.510426692913386
11
3.0609546062992123
21
-6.5254248031496065
0
LINE
8
BLACK
6
CONTINUOUS
10
3.1771901181102362
20
-6.6191630708661418
11
3.1734405511811024
21
-6.6154135433070866
0
LINE
8
BLACK
6
CONTINUOUS
10
3.1734405511811024
20
-6.6154135433070866
11
3.1659414960629921
21
-6.6041649606299213
0
LINE
8
BLACK
6
CONTINUOUS
10
3.1659414960629921
20
-6.6041649606299213
11
3.162191968503937
21
-6.5966659055118111
0
LINE
8
BLACK
6
CONTINUOUS
10
3.162191968503937
20
-6.5966659055118111
11
3.1584424409448819
21
-6.5854173228346458
0
LINE
8
BLACK
6
CONTINUOUS
10
3.1584424409448819
20
-6.5854173228346458
11
3.1546929133858268
21
-6.5666696456692915
0
LINE
8
BLACK
6
CONTINUOUS
10
3.1546929133858268
20
-6.5666696456692915
11
3.1546929133858268
21
-6.551671535433071
0
LINE
8
BLACK
6
CONTINUOUS
10
3.1546929133858268
20
-6.551671535433071
11
3.1584424409448819
21
-6.5329238582677167
0
LINE
8
BLACK
6
CONTINUOUS
10
3.1584424409448819
20
-6.5329238582677167
11
3.162191968503937
21
-6.5216752755905514
0
LINE
8
BLACK
6
CONTINUOUS
10
3.162191968503937
20
-6.5216752755905514
11
3.1659414960629921
21
-6.5141762204724412
0
LINE
8
BLACK
6
CONTINUOUS
10
3.1659414960629921
20
-6.5141762204724412
11
3.1734405511811024
21
-6.5029275984251971
0
LINE
8
BLACK
6
CONTINUOUS
10
3.1734405511811024
20
-6.5029275984251971
11
3.1771901181102362
21
-6.499178070866142
0
LINE
8
BLACK
6
CONTINUOUS
10
3.2409321259842518
20
-6.5366733858267718
11
3.2409321259842518
21
-6.5891668503937009
0
LINE
8
BLACK
6
CONTINUOUS
10
3.2221844488188975
20
-6.5066771653543309
11
3.203436811023622
21
-6.5629201181102363
0
LINE
8
BLACK
6
CONTINUOUS
10
3.203436811023622
20
-6.5629201181102363
11
3.2521807086614172
21
-6.5629201181102363
0
LINE
8
BLACK
6
CONTINUOUS
10
3.3421694881889765
20
-6.5891668503937009
11
3.3421694881889765
21
-6.510426692913386
0
LINE
8
BLACK
6
CONTINUOUS
10
3.3759152755905513
20
-6.5891668503937009
11
3.3759152755905513
21
-6.5479220078740159
0
LINE
8
BLACK
6
CONTINUOUS
10
3.3759152755905513
20
-6.5479220078740159
11
3.3721657480314962
21
-6.5404229133858269
0
LINE
8
BLACK
6
CONTINUOUS
10
3.3721657480314962
20
-6.5404229133858269
11
3.3646666929133859
21
-6.5366733858267718
0
LINE
8
BLACK
6
CONTINUOUS
10
3.3646666929133859
20
-6.5366733858267718
11
3.3534180708661419
21
-6.5366733858267718
0
LINE
8
BLACK
6
CONTINUOUS
10
3.3534180708661419
20
-6.5366733858267718
11
3.3459190157480316
21
-6.5404229133858269
0
LINE
8
BLACK
6
CONTINUOUS
10
3.3459190157480316
20
-6.5404229133858269
11
3.3421694881889765
21
-6.544172440944882
0
LINE
8
BLACK
6
CONTINUOUS
10
3.4246591732283465
20
-6.5891668503937009
11
3.4171601181102362
21
-6.5854173228346458
0
LINE
8
BLACK
6
CONTINUOUS
10
3.4171601181102362
20
-6.5854173228346458
11
3.4134105905511811
21
-6.5816677559055119
0
LINE
8
BLACK
6
CONTINUOUS
10
3.4134105905511811
20
-6.5816677559055119
11
3.409661062992126
21
-6.5741687007874017
0
LINE
8
BLACK
6
CONTINUOUS
10
3.409661062992126
20
-6.5741687007874017
11
3.409661062992126
21
-6.551671535433071
0
LINE
8
BLACK
6
CONTINUOUS
10
3.409661062992126
20
-6.551671535433071
11
3.4134105905511811
21
-6.544172440944882
0
LINE
8
BLACK
6
CONTINUOUS
10
3.4134105905511811
20
-6.544172440944882
11
3.4171601181102362
21
-6.5404229133858269
0
LINE
8
BLACK
6
CONTINUOUS
10
3.4171601181102362
20
-6.5404229133858269
11
3.4246591732283465
21
-6.5366733858267718
0
LINE
8
BLACK
6
CONTINUOUS
10
3.4246591732283465
20
-6.5366733858267718
11
3.4359077952755905
21
-6.5366733858267718
0
LINE
8
BLACK
6
CONTINUOUS
10
3.4359077952755905
20
-6.5366733858267718
11
3.4434068503937008
21
-6.5404229133858269
0
LINE
8
BLACK
6
CONTINUOUS
10
3.4434068503937008
20
-6.5404229133858269
11
3.4471563779527559
21
-6.544172440944882
0
LINE
8
BLACK
6
CONTINUOUS
10
3.4471563779527559
20
-6.544172440944882
11
3.450905905511811
21
-6.551671535433071
0
LINE
8
BLACK
6
CONTINUOUS
10
3.450905905511811
20
-6.551671535433071
11
3.450905905511811
21
-6.5741687007874017
0
LINE
8
BLACK
6
CONTINUOUS
10
3.450905905511811
20
-6.5741687007874017
11
3.4471563779527559
21
-6.5816677559055119
0
LINE
8
BLACK
6
CONTINUOUS
10
3.4471563779527559
20
-6.5816677559055119
11
3.4434068503937008
21
-6.5854173228346458
0
LINE
8
BLACK
6
CONTINUOUS
10
3.4434068503937008
20
-6.5854173228346458
11
3.4359077952755905
21
-6.5891668503937009
0
LINE
8
BLACK
6
CONTINUOUS
10
3.4359077952755905
20
-6.5891668503937009
11
3.4246591732283465
21
-6.5891668503937009
0
LINE
8
BLACK
6
CONTINUOUS
10
3.4959002755905511
20
-6.5891668503937009
11
3.4884012204724408
21
-6.5854173228346458
0
LINE
8
BLACK
6
CONTINUOUS
10
3.4884012204724408
20
-6.5854173228346458
11
3.4846516929133857
21
-6.5779182283464568
0
LINE
8
BLACK
6
CONTINUOUS
10
3.4846516929133857
20
-6.5779182283464568
11
3.4846516929133857
21
-6.510426692913386
0
LINE
8
BLACK
6
CONTINUOUS
10
3.5558927952755903
20
-6.5854173228346458
11
3.5483937401574801
21
-6.5891668503937009
0
LINE
8
BLACK
6
CONTINUOUS
10
3.5483937401574801
20
-6.5891668503937009
11
3.5333955905511809
21
-6.5891668503937009
0
LINE
8
BLACK
6
CONTINUOUS
10
3.5333955905511809
20
-6.5891668503937009
11
3.5258965354330707
21
-6.5854173228346458
0
LINE
8
BLACK
6
CONTINUOUS
10
3.5258965354330707
20
-6.5854173228346458
11
3.5221470078740156
21
-6.5779182283464568
0
LINE
8
BLACK
6
CONTINUOUS
10
3.5221470078740156
20
-6.5779182283464568
11
3.5221470078740156
21
-6.5479220078740159
0
LINE
8
BLACK
6
CONTINUOUS
10
3.5221470078740156
20
-6.5479220078740159
11
3.5258965354330707
21
-6.5404229133858269
0
LINE
8
BLACK
6
CONTINUOUS
10
3.5258965354330707
20
-6.5404229133858269
11
3.5333955905511809
21
-6.5366733858267718
0
LINE
8
BLACK
6
CONTINUOUS
10
3.5333955905511809
20
-6.5366733858267718
11
3.5483937401574801
21
-6.5366733858267718
0
LINE
8
BLACK
6
CONTINUOUS
10
3.5483937401574801
20
-6.5366733858267718
11
3.5558927952755903
21
-6.5404229133858269
0
LINE
8
BLACK
6
CONTINUOUS
10
3.5558927952755903
20
-6.5404229133858269
11
3.5596423228346454
21
-6.5479220078740159
0
LINE
8
BLACK
6
CONTINUOUS
10
3.5596423228346454
20
-6.5479220078740159
11
3.5596423228346454
21
-6.5554210629921261
0
LINE
8
BLACK
6
CONTINUOUS
10
3.5596423228346454
20
-6.5554210629921261
11
3.5221470078740156
21
-6.5629201181102363
0
LINE
8
BLACK
6
CONTINUOUS
10
3.5896385826771651
20
-6.5854173228346458
11
3.5971376377952753
21
-6.5891668503937009
0
LINE
8
BLACK
6
CONTINUOUS
10
3.5971376377952753
20
-6.5891668503937009
11
3.6121357480314962
21
-6.5891668503937009
0
LINE
8
BLACK
6
CONTINUOUS
10
3.6121357480314962
20
-6.5891668503937009
11
3.6196348425196851
21
-6.5854173228346458
0
LINE
8
BLACK
6
CONTINUOUS
10
3.6196348425196851
20
-6.5854173228346458
11
3.6233843700787403
21
-6.5779182283464568
0
LINE
8
BLACK
6
CONTINUOUS
10
3.6233843700787403
20
-6.5779182283464568
11
3.6233843700787403
21
-6.5741687007874017
0
LINE
8
BLACK
6
CONTINUOUS
10
3.6233843700787403
20
-6.5741687007874017
11
3.6196348425196851
21
-6.5666696456692915
0
LINE
8
BLACK
6
CONTINUOUS
10
3.6196348425196851
20
-6.5666696456692915
11
3.6121357480314962
21
-6.5629201181102363
0
LINE
8
BLACK
6
CONTINUOUS
10
3.6121357480314962
20
-6.5629201181102363
11
3.6008871653543308
21
-6.5629201181102363
0
LINE
8
BLACK
6
CONTINUOUS
10
3.6008871653543308
20
-6.5629201181102363
11
3.5933881102362202
21
-6.5591705905511812
0
LINE
8
BLACK
6
CONTINUOUS
10
3.5933881102362202
20
-6.5591705905511812
11
3.5896385826771651
21
-6.551671535433071
0
LINE
8
BLACK
6
CONTINUOUS
10
3.5896385826771651
20
-6.551671535433071
11
3.5896385826771651
21
-6.5479220078740159
0
LINE
8
BLACK
6
CONTINUOUS
10
3.5896385826771651
20
-6.5479220078740159
11
3.5933881102362202
21
-6.5404229133858269
0
LINE
8
BLACK
6
CONTINUOUS
10
3.5933881102362202
20
-6.5404229133858269
11
3.6008871653543308
21
-6.5366733858267718
0
LINE
8
BLACK
6
CONTINUOUS
10
3.6008871653543308
20
-6.5366733858267718
11
3.6121357480314962
21
-6.5366733858267718
0
LINE
8
BLACK
6
CONTINUOUS
10
3.6121357480314962
20
-6.5366733858267718
11
3.6196348425196851
21
-6.5404229133858269
0
LINE
8
BLACK
6
CONTINUOUS
10
3.6496311023622048
20
-6.6191630708661418
11
3.6533806299212599
21
-6.6154135433070866
0
LINE
8
BLACK
6
CONTINUOUS
10
3.6533806299212599
20
-6.6154135433070866
11
3.6608796850393701
21
-6.6041649606299213
0
LINE
8
BLACK
6
CONTINUOUS
10
3.6608796850393701
20
-6.6041649606299213
11
3.6646292125984252
21
-6.5966659055118111
0
LINE
8
BLACK
6
CONTINUOUS
10
3.6646292125984252
20
-6.5966659055118111
11
3.6683787401574803
21
-6.5854173228346458
0
LINE
8
BLACK
6
CONTINUOUS
10
3.6683787401574803
20
-6.5854173228346458
11
3.6721282677165354
21
-6.5666696456692915
0
LINE
8
BLACK
6
CONTINUOUS
10
3.6721282677165354
20
-6.5666696456692915
11
3.6721282677165354
21
-6.551671535433071
0
LINE
8
BLACK
6
CONTINUOUS
10
3.6721282677165354
20
-6.551671535433071
11
3.6683787401574803
21
-6.5329238582677167
0
LINE
8
BLACK
6
CONTINUOUS
10
3.6683787401574803
20
-6.5329238582677167
11
3.6646292125984252
21
-6.5216752755905514
0
LINE
8
BLACK
6
CONTINUOUS
10
3.6646292125984252
20
-6.5216752755905514
11
3.6608796850393701
21
-6.5141762204724412
0
LINE
8
BLACK
6
CONTINUOUS
10
3.6608796850393701
20
-6.5141762204724412
11
3.6533806299212599
21
-6.5029275984251971
0
LINE
8
BLACK
6
CONTINUOUS
10
3.6533806299212599
20
-6.5029275984251971
11
3.6496311023622048
21
-6.499178070866142
0
LINE
8
BLACK
6
CONTINUOUS
10
3.792113307086614
20
-6.6191630708661418
11
3.7883637401574801
21
-6.6154135433070866
0
LINE
8
BLACK
6
CONTINUOUS
10
3.7883637401574801
20
-6.6154135433070866
11
3.7808646850393699
21
-6.6041649606299213
0
LINE
8
BLACK
6
CONTINUOUS
10
3.7808646850393699
20
-6.6041649606299213
11
3.7771151574803148
21
-6.5966659055118111
0
LINE
8
BLACK
6
CONTINUOUS
10
3.7771151574803148
20
-6.5966659055118111
11
3.7733656299212597
21
-6.5854173228346458
0
LINE
8
BLACK
6
CONTINUOUS
10
3.7733656299212597
20
-6.5854173228346458
11
3.7696161023622046
21
-6.5666696456692915
0
LINE
8
BLACK
6
CONTINUOUS
10
3.7696161023622046
20
-6.5666696456692915
11
3.7696161023622046
21
-6.551671535433071
0
LINE
8
BLACK
6
CONTINUOUS
10
3.7696161023622046
20
-6.551671535433071
11
3.7733656299212597
21
-6.5329238582677167
0
LINE
8
BLACK
6
CONTINUOUS
10
3.7733656299212597
20
-6.5329238582677167
11
3.7771151574803148
21
-6.5216752755905514
0
LINE
8
BLACK
6
CONTINUOUS
10
3.7771151574803148
20
-6.5216752755905514
11
3.7808646850393699
21
-6.5141762204724412
0
LINE
8
BLACK
6
CONTINUOUS
10
3.7808646850393699
20
-6.5141762204724412
11
3.7883637401574801
21
-6.5029275984251971
0
LINE
8
BLACK
6
CONTINUOUS
10
3.7883637401574801
20
-6.5029275984251971
11
3.792113307086614
21
-6.499178070866142
0
LINE
8
BLACK
6
CONTINUOUS
10
3.8221095275590549
20
-6.5366733858267718
11
3.8221095275590549
21
-6.5891668503937009
0
LINE
8
BLACK
6
CONTINUOUS
10
3.8221095275590549
20
-6.544172440944882
11
3.82585905511811
21
-6.5404229133858269
0
LINE
8
BLACK
6
CONTINUOUS
10
3.82585905511811
20
-6.5404229133858269
11
3.8333581102362202
21
-6.5366733858267718
0
LINE
8
BLACK
6
CONTINUOUS
10
3.8333581102362202
20
-6.5366733858267718
11
3.8446067322834643
21
-6.5366733858267718
0
LINE
8
BLACK
6
CONTINUOUS
10
3.8446067322834643
20
-6.5366733858267718
11
3.8521057874015745
21
-6.5404229133858269
0
LINE
8
BLACK
6
CONTINUOUS
10
3.8521057874015745
20
-6.5404229133858269
11
3.8558553149606301
21
-6.5479220078740159
0
LINE
8
BLACK
6
CONTINUOUS
10
3.8558553149606301
20
-6.5479220078740159
11
3.8558553149606301
21
-6.5891668503937009
0
LINE
8
BLACK
6
CONTINUOUS
10
3.9045992125984252
20
-6.5891668503937009
11
3.897100157480315
21
-6.5854173228346458
0
LINE
8
BLACK
6
CONTINUOUS
10
3.897100157480315
20
-6.5854173228346458
11
3.8933506299212599
21
-6.5816677559055119
0
LINE
8
BLACK
6
CONTINUOUS
10
3.8933506299212599
20
-6.5816677559055119
11
3.8896011023622048
21
-6.5741687007874017
0
LINE
8
BLACK
6
CONTINUOUS
10
3.8896011023622048
20
-6.5741687007874017
11
3.8896011023622048
21
-6.551671535433071
0
LINE
8
BLACK
6
CONTINUOUS
10
3.8896011023622048
20
-6.551671535433071
11
3.8933506299212599
21
-6.544172440944882
0
LINE
8
BLACK
6
CONTINUOUS
10
3.8933506299212599
20
-6.544172440944882
11
3.897100157480315
21
-6.5404229133858269
0
LINE
8
BLACK
6
CONTINUOUS
10
3.897100157480315
20
-6.5404229133858269
11
3.9045992125984252
21
-6.5366733858267718
0
LINE
8
BLACK
6
CONTINUOUS
10
3.9045992125984252
20
-6.5366733858267718
11
3.9158478346456693
21
-6.5366733858267718
0
LINE
8
BLACK
6
CONTINUOUS
10
3.9158478346456693
20
-6.5366733858267718
11
3.9233468897637795
21
-6.5404229133858269
0
LINE
8
BLACK
6
CONTINUOUS
10
3.9233468897637795
20
-6.5404229133858269
11
3.9270964173228347
21
-6.544172440944882
0
LINE
8
BLACK
6
CONTINUOUS
10
3.9270964173228347
20
-6.544172440944882
11
3.9308459448818898
21
-6.551671535433071
0
LINE
8
BLACK
6
CONTINUOUS
10
3.9308459448818898
20
-6.551671535433071
11
3.9308459448818898
21
-6.5741687007874017
0
LINE
8
BLACK
6
CONTINUOUS
10
3.9308459448818898
20
-6.5741687007874017
11
3.9270964173228347
21
-6.5816677559055119
0
LINE
8
BLACK
6
CONTINUOUS
10
3.9270964173228347
20
-6.5816677559055119
11
3.9233468897637795
21
-6.5854173228346458
0
LINE
8
BLACK
6
CONTINUOUS
10
3.9233468897637795
20
-6.5854173228346458
11
3.9158478346456693
21
-6.5891668503937009
0
LINE
8
BLACK
6
CONTINUOUS
10
3.9158478346456693
20
-6.5891668503937009
11
3.9045992125984252
21
-6.5891668503937009
0
LINE
8
BLACK
6
CONTINUOUS
10
3.9533431496062992
20
-6.5366733858267718
11
3.9833393700787401
21
-6.5366733858267718
0
LINE
8
BLACK
6
CONTINUOUS
10
3.9645917322834645
20
-6.510426692913386
11
3.9645917322834645
21
-6.5779182283464568
0
LINE
8
BLACK
6
CONTINUOUS
10
3.9645917322834645
20
-6.5779182283464568
11
3.9683412598425196
21
-6.5854173228346458
0
LINE
8
BLACK
6
CONTINUOUS
10
3.9683412598425196
20
-6.5854173228346458
11
3.9758403149606298
21
-6.5891668503937009
0
LINE
8
BLACK
6
CONTINUOUS
10
3.9758403149606298
20
-6.5891668503937009
11
3.9833393700787401
21
-6.5891668503937009
0
LINE
8
BLACK
6
CONTINUOUS
10
4.0695786220472439
20
-6.5366733858267718
11
4.0695786220472439
21
-6.6154135433070866
0
LINE
8
BLACK
6
CONTINUOUS
10
4.0695786220472439
20
-6.5404229133858269
11
4.0770776771653541
21
-6.5366733858267718
0
LINE
8
BLACK
6
CONTINUOUS
10
4.0770776771653541
20
-6.5366733858267718
11
4.0920758267716533
21
-6.5366733858267718
0
LINE
8
BLACK
6
CONTINUOUS
10
4.0920758267716533
20
-6.5366733858267718
11
4.0995748818897635
21
-6.5404229133858269
0
LINE
8
BLACK
6
CONTINUOUS
10
4.0995748818897635
20
-6.5404229133858269
11
4.1033244094488186
21
-6.544172440944882
0
LINE
8
BLACK
6
CONTINUOUS
10
4.1033244094488186
20
-6.544172440944882
11
4.1070739370078737
21
-6.551671535433071
0
LINE
8
BLACK
6
CONTINUOUS
10
4.1070739370078737
20
-6.551671535433071
11
4.1070739370078737
21
-6.5741687007874017
0
LINE
8
BLACK
6
CONTINUOUS
10
4.1070739370078737
20
-6.5741687007874017
11
4.1033244094488186
21
-6.5816677559055119
0
LINE
8
BLACK
6
CONTINUOUS
10
4.1033244094488186
20
-6.5816677559055119
11
4.0995748818897635
21
-6.5854173228346458
0
LINE
8
BLACK
6
CONTINUOUS
10
4.0995748818897635
20
-6.5854173228346458
11
4.0920758267716533
21
-6.5891668503937009
0
LINE
8
BLACK
6
CONTINUOUS
10
4.0920758267716533
20
-6.5891668503937009
11
4.0770776771653541
21
-6.5891668503937009
0
LINE
8
BLACK
6
CONTINUOUS
10
4.0770776771653541
20
-6.5891668503937009
11
4.0695786220472439
21
-6.5854173228346458
0
LINE
8
BLACK
6
CONTINUOUS
10
4.1520683070866138
20
-6.5891668503937009
11
4.1445692519685036
21
-6.5854173228346458
0
LINE
8
BLACK
6
CONTINUOUS
10
4.1445692519685036
20
-6.5854173228346458
11
4.1408197244094485
21
-6.5779182283464568
0
LINE
8
BLACK
6
CONTINUOUS
10
4.1408197244094485
20
-6.5779182283464568
11
4.1408197244094485
21
-6.510426692913386
0
LINE
8
BLACK
6
CONTINUOUS
10
4.2158103543307082
20
-6.5891668503937009
11
4.2158103543307082
21
-6.5479220078740159
0
LINE
8
BLACK
6
CONTINUOUS
10
4.2158103543307082
20
-6.5479220078740159
11
4.2120608267716531
21
-6.5404229133858269
0
LINE
8
BLACK
6
CONTINUOUS
10
4.2120608267716531
20
-6.5404229133858269
11
4.2045617716535428
21
-6.5366733858267718
0
LINE
8
BLACK
6
CONTINUOUS
10
4.2045617716535428
20
-6.5366733858267718
11
4.1895636220472436
21
-6.5366733858267718
0
LINE
8
BLACK
6
CONTINUOUS
10
4.1895636220472436
20
-6.5366733858267718
11
4.1820645669291334
21
-6.5404229133858269
0
LINE
8
BLACK
6
CONTINUOUS
10
4.2158103543307082
20
-6.5854173228346458
11
4.2083112992125979
21
-6.5891668503937009
0
LINE
8
BLACK
6
CONTINUOUS
10
4.2083112992125979
20
-6.5891668503937009
11
4.1895636220472436
21
-6.5891668503937009
0
LINE
8
BLACK
6
CONTINUOUS
10
4.1895636220472436
20
-6.5891668503937009
11
4.1820645669291334
21
-6.5854173228346458
0
LINE
8
BLACK
6
CONTINUOUS
10
4.1820645669291334
20
-6.5854173228346458
11
4.1783150393700783
21
-6.5779182283464568
0
LINE
8
BLACK
6
CONTINUOUS
10
4.1783150393700783
20
-6.5779182283464568
11
4.1783150393700783
21
-6.5704191732283466
0
LINE
8
BLACK
6
CONTINUOUS
10
4.1783150393700783
20
-6.5704191732283466
11
4.1820645669291334
21
-6.5629201181102363
0
LINE
8
BLACK
6
CONTINUOUS
10
4.1820645669291334
20
-6.5629201181102363
11
4.1895636220472436
21
-6.5591705905511812
0
LINE
8
BLACK
6
CONTINUOUS
10
4.1895636220472436
20
-6.5591705905511812
11
4.2083112992125979
21
-6.5591705905511812
0
LINE
8
BLACK
6
CONTINUOUS
10
4.2083112992125979
20
-6.5591705905511812
11
4.2158103543307082
21
-6.5554210629921261
0
LINE
8
BLACK
6
CONTINUOUS
10
4.2420570866141727
20
-6.5366733858267718
11
4.2720533070866145
21
-6.5366733858267718
0
LINE
8
BLACK
6
CONTINUOUS
10
4.2533056692913389
20
-6.510426692913386
11
4.2533056692913389
21
-6.5779182283464568
0
LINE
8
BLACK
6
CONTINUOUS
10
4.2533056692913389
20
-6.5779182283464568
11
4.257055196850394
21
-6.5854173228346458
0
LINE
8
BLACK
6
CONTINUOUS
10
4.257055196850394
20
-6.5854173228346458
11
4.2645542519685042
21
-6.5891668503937009
0
LINE
8
BLACK
6
CONTINUOUS
10
4.2645542519685042
20
-6.5891668503937009
11
4.2720533070866145
21
-6.5891668503937009
0
LINE
8
BLACK
6
CONTINUOUS
10
4.3282962992125986
20
-6.5854173228346458
11
4.3207972440944884
21
-6.5891668503937009
0
LINE
8
BLACK
6
CONTINUOUS
10
4.3207972440944884
20
-6.5891668503937009
11
4.3057990944881892
21
-6.5891668503937009
0
LINE
8
BLACK
6
CONTINUOUS
10
4.3057990944881892
20
-6.5891668503937009
11
4.298300039370079
21
-6.5854173228346458
0
LINE
8
BLACK
6
CONTINUOUS
10
4.298300039370079
20
-6.5854173228346458
11
4.2945505118110239
21
-6.5779182283464568
0
LINE
8
BLACK
6
CONTINUOUS
10
4.2945505118110239
20
-6.5779182283464568
11
4.2945505118110239
21
-6.5479220078740159
0
LINE
8
BLACK
6
CONTINUOUS
10
4.2945505118110239
20
-6.5479220078740159
11
4.298300039370079
21
-6.5404229133858269
0
LINE
8
BLACK
6
CONTINUOUS
10
4.298300039370079
20
-6.5404229133858269
11
4.3057990944881892
21
-6.5366733858267718
0
LINE
8
BLACK
6
CONTINUOUS
10
4.3057990944881892
20
-6.5366733858267718
11
4.3207972440944884
21
-6.5366733858267718
0
LINE
8
BLACK
6
CONTINUOUS
10
4.3207972440944884
20
-6.5366733858267718
11
4.3282962992125986
21
-6.5404229133858269
0
LINE
8
BLACK
6
CONTINUOUS
10
4.3282962992125986
20
-6.5404229133858269
11
4.3320458267716537
21
-6.5479220078740159
0
LINE
8
BLACK
6
CONTINUOUS
10
4.3320458267716537
20
-6.5479220078740159
11
4.3320458267716537
21
-6.5554210629921261
0
LINE
8
BLACK
6
CONTINUOUS
10
4.3320458267716537
20
-6.5554210629921261
11
4.2945505118110239
21
-6.5629201181102363
0
LINE
8
BLACK
6
CONTINUOUS
10
4.3995374015748032
20
-6.5891668503937009
11
4.3995374015748032
21
-6.510426692913386
0
LINE
8
BLACK
6
CONTINUOUS
10
4.3995374015748032
20
-6.5854173228346458
11
4.392038346456693
21
-6.5891668503937009
0
LINE
8
BLACK
6
CONTINUOUS
10
4.392038346456693
20
-6.5891668503937009
11
4.3770401968503938
21
-6.5891668503937009
0
LINE
8
BLACK
6
CONTINUOUS
10
4.3770401968503938
20
-6.5891668503937009
11
4.3695411417322836
21
-6.5854173228346458
0
LINE
8
BLACK
6
CONTINUOUS
10
4.3695411417322836
20
-6.5854173228346458
11
4.3657916141732285
21
-6.5816677559055119
0
LINE
8
BLACK
6
CONTINUOUS
10
4.3657916141732285
20
-6.5816677559055119
11
4.3620420866141734
21
-6.5741687007874017
0
LINE
8
BLACK
6
CONTINUOUS
10
4.3620420866141734
20
-6.5741687007874017
11
4.3620420866141734
21
-6.551671535433071
0
LINE
8
BLACK
6
CONTINUOUS
10
4.3620420866141734
20
-6.551671535433071
11
4.3657916141732285
21
-6.544172440944882
0
LINE
8
BLACK
6
CONTINUOUS
10
4.3657916141732285
20
-6.544172440944882
11
4.3695411417322836
21
-6.5404229133858269
0
LINE
8
BLACK
6
CONTINUOUS
10
4.3695411417322836
20
-6.5404229133858269
11
4.3770401968503938
21
-6.5366733858267718
0
LINE
8
BLACK
6
CONTINUOUS
10
4.3770401968503938
20
-6.5366733858267718
11
4.392038346456693
21
-6.5366733858267718
0
LINE
8
BLACK
6
CONTINUOUS
10
4.392038346456693
20
-6.5366733858267718
11
4.3995374015748032
21
-6.5404229133858269
0
LINE
8
BLACK
6
CONTINUOUS
10
4.4295336614173229
20
-6.6191630708661418
11
4.433283188976378
21
-6.6154135433070866
0
LINE
8
BLACK
6
CONTINUOUS
10
4.433283188976378
20
-6.6154135433070866
11
4.4407822440944882
21
-6.6041649606299213
0
LINE
8
BLACK
6
CONTINUOUS
10
4.4407822440944882
20
-6.6041649606299213
11
4.4445317716535433
21
-6.5966659055118111
0
LINE
8
BLACK
6
CONTINUOUS
10
4.4445317716535433
20
-6.5966659055118111
11
4.4482812992125984
21
-6.5854173228346458
0
LINE
8
BLACK
6
CONTINUOUS
10
4.4482812992125984
20
-6.5854173228346458
11
4.4520308267716535
21
-6.5666696456692915
0
LINE
8
BLACK
6
CONTINUOUS
10
4.4520308267716535
20
-6.5666696456692915
11
4.4520308267716535
21
-6.551671535433071
0
LINE
8
BLACK
6
CONTINUOUS
10
4.4520308267716535
20
-6.551671535433071
11
4.4482812992125984
21
-6.5329238582677167
0
LINE
8
BLACK
6
CONTINUOUS
10
4.4482812992125984
20
-6.5329238582677167
11
4.4445317716535433
21
-6.5216752755905514
0
LINE
8
BLACK
6
CONTINUOUS
10
4.4445317716535433
20
-6.5216752755905514
11
4.4407822440944882
21
-6.5141762204724412
0
LINE
8
BLACK
6
CONTINUOUS
10
4.4407822440944882
20
-6.5141762204724412
11
4.433283188976378
21
-6.5029275984251971
0
LINE
8
BLACK
6
CONTINUOUS
10
4.433283188976378
20
-6.5029275984251971
11
4.4295336614173229
21
-6.499178070866142
  0
ENDSEC
  0
EOF
