%TF.GenerationSoftware,KiCad,Pcbnew,7.0.10*%
%TF.CreationDate,2024-05-28T11:55:37+08:00*%
%TF.ProjectId,Explorer,4578706c-6f72-4657-922e-6b696361645f,rev?*%
%TF.SameCoordinates,Original*%
%TF.FileFunction,Legend,Top*%
%TF.FilePolarity,Positive*%
%FSLAX46Y46*%
G04 Gerber Fmt 4.6, Leading zero omitted, Abs format (unit mm)*
G04 Created by KiCad (PCBNEW 7.0.10) date 2024-05-28 11:55:37*
%MOMM*%
%LPD*%
G01*
G04 APERTURE LIST*
%ADD10C,0.200000*%
%ADD11C,0.125000*%
%ADD12C,0.120000*%
%ADD13C,0.150000*%
G04 APERTURE END LIST*
D10*
X132896993Y-71903123D02*
X133277946Y-71903123D01*
X132820803Y-72131695D02*
X133087470Y-71331695D01*
X133087470Y-71331695D02*
X133354136Y-72131695D01*
X134039850Y-71369790D02*
X133963660Y-71331695D01*
X133963660Y-71331695D02*
X133849374Y-71331695D01*
X133849374Y-71331695D02*
X133735088Y-71369790D01*
X133735088Y-71369790D02*
X133658898Y-71445980D01*
X133658898Y-71445980D02*
X133620803Y-71522171D01*
X133620803Y-71522171D02*
X133582707Y-71674552D01*
X133582707Y-71674552D02*
X133582707Y-71788838D01*
X133582707Y-71788838D02*
X133620803Y-71941219D01*
X133620803Y-71941219D02*
X133658898Y-72017409D01*
X133658898Y-72017409D02*
X133735088Y-72093600D01*
X133735088Y-72093600D02*
X133849374Y-72131695D01*
X133849374Y-72131695D02*
X133925565Y-72131695D01*
X133925565Y-72131695D02*
X134039850Y-72093600D01*
X134039850Y-72093600D02*
X134077946Y-72055504D01*
X134077946Y-72055504D02*
X134077946Y-71788838D01*
X134077946Y-71788838D02*
X133925565Y-71788838D01*
X134420803Y-72131695D02*
X134420803Y-71331695D01*
X134420803Y-71331695D02*
X134877946Y-72131695D01*
X134877946Y-72131695D02*
X134877946Y-71331695D01*
X135258898Y-72131695D02*
X135258898Y-71331695D01*
X135258898Y-71331695D02*
X135449374Y-71331695D01*
X135449374Y-71331695D02*
X135563660Y-71369790D01*
X135563660Y-71369790D02*
X135639850Y-71445980D01*
X135639850Y-71445980D02*
X135677945Y-71522171D01*
X135677945Y-71522171D02*
X135716041Y-71674552D01*
X135716041Y-71674552D02*
X135716041Y-71788838D01*
X135716041Y-71788838D02*
X135677945Y-71941219D01*
X135677945Y-71941219D02*
X135639850Y-72017409D01*
X135639850Y-72017409D02*
X135563660Y-72093600D01*
X135563660Y-72093600D02*
X135449374Y-72131695D01*
X135449374Y-72131695D02*
X135258898Y-72131695D01*
X131487469Y-77283695D02*
X131487469Y-76483695D01*
X131487469Y-76483695D02*
X131754135Y-77055123D01*
X131754135Y-77055123D02*
X132020802Y-76483695D01*
X132020802Y-76483695D02*
X132020802Y-77283695D01*
X132363659Y-77055123D02*
X132744612Y-77055123D01*
X132287469Y-77283695D02*
X132554136Y-76483695D01*
X132554136Y-76483695D02*
X132820802Y-77283695D01*
X133049373Y-77245600D02*
X133163659Y-77283695D01*
X133163659Y-77283695D02*
X133354135Y-77283695D01*
X133354135Y-77283695D02*
X133430326Y-77245600D01*
X133430326Y-77245600D02*
X133468421Y-77207504D01*
X133468421Y-77207504D02*
X133506516Y-77131314D01*
X133506516Y-77131314D02*
X133506516Y-77055123D01*
X133506516Y-77055123D02*
X133468421Y-76978933D01*
X133468421Y-76978933D02*
X133430326Y-76940838D01*
X133430326Y-76940838D02*
X133354135Y-76902742D01*
X133354135Y-76902742D02*
X133201754Y-76864647D01*
X133201754Y-76864647D02*
X133125564Y-76826552D01*
X133125564Y-76826552D02*
X133087469Y-76788457D01*
X133087469Y-76788457D02*
X133049373Y-76712266D01*
X133049373Y-76712266D02*
X133049373Y-76636076D01*
X133049373Y-76636076D02*
X133087469Y-76559885D01*
X133087469Y-76559885D02*
X133125564Y-76521790D01*
X133125564Y-76521790D02*
X133201754Y-76483695D01*
X133201754Y-76483695D02*
X133392231Y-76483695D01*
X133392231Y-76483695D02*
X133506516Y-76521790D01*
X133811278Y-77245600D02*
X133925564Y-77283695D01*
X133925564Y-77283695D02*
X134116040Y-77283695D01*
X134116040Y-77283695D02*
X134192231Y-77245600D01*
X134192231Y-77245600D02*
X134230326Y-77207504D01*
X134230326Y-77207504D02*
X134268421Y-77131314D01*
X134268421Y-77131314D02*
X134268421Y-77055123D01*
X134268421Y-77055123D02*
X134230326Y-76978933D01*
X134230326Y-76978933D02*
X134192231Y-76940838D01*
X134192231Y-76940838D02*
X134116040Y-76902742D01*
X134116040Y-76902742D02*
X133963659Y-76864647D01*
X133963659Y-76864647D02*
X133887469Y-76826552D01*
X133887469Y-76826552D02*
X133849374Y-76788457D01*
X133849374Y-76788457D02*
X133811278Y-76712266D01*
X133811278Y-76712266D02*
X133811278Y-76636076D01*
X133811278Y-76636076D02*
X133849374Y-76559885D01*
X133849374Y-76559885D02*
X133887469Y-76521790D01*
X133887469Y-76521790D02*
X133963659Y-76483695D01*
X133963659Y-76483695D02*
X134154136Y-76483695D01*
X134154136Y-76483695D02*
X134268421Y-76521790D01*
X134420803Y-77359885D02*
X135030326Y-77359885D01*
X135220803Y-77283695D02*
X135220803Y-76483695D01*
X135220803Y-76483695D02*
X135677946Y-77283695D01*
X135677946Y-77283695D02*
X135677946Y-76483695D01*
X131601754Y-82435695D02*
X131601754Y-81635695D01*
X131601754Y-81635695D02*
X131868420Y-82207123D01*
X131868420Y-82207123D02*
X132135087Y-81635695D01*
X132135087Y-81635695D02*
X132135087Y-82435695D01*
X132477944Y-82207123D02*
X132858897Y-82207123D01*
X132401754Y-82435695D02*
X132668421Y-81635695D01*
X132668421Y-81635695D02*
X132935087Y-82435695D01*
X133163658Y-82397600D02*
X133277944Y-82435695D01*
X133277944Y-82435695D02*
X133468420Y-82435695D01*
X133468420Y-82435695D02*
X133544611Y-82397600D01*
X133544611Y-82397600D02*
X133582706Y-82359504D01*
X133582706Y-82359504D02*
X133620801Y-82283314D01*
X133620801Y-82283314D02*
X133620801Y-82207123D01*
X133620801Y-82207123D02*
X133582706Y-82130933D01*
X133582706Y-82130933D02*
X133544611Y-82092838D01*
X133544611Y-82092838D02*
X133468420Y-82054742D01*
X133468420Y-82054742D02*
X133316039Y-82016647D01*
X133316039Y-82016647D02*
X133239849Y-81978552D01*
X133239849Y-81978552D02*
X133201754Y-81940457D01*
X133201754Y-81940457D02*
X133163658Y-81864266D01*
X133163658Y-81864266D02*
X133163658Y-81788076D01*
X133163658Y-81788076D02*
X133201754Y-81711885D01*
X133201754Y-81711885D02*
X133239849Y-81673790D01*
X133239849Y-81673790D02*
X133316039Y-81635695D01*
X133316039Y-81635695D02*
X133506516Y-81635695D01*
X133506516Y-81635695D02*
X133620801Y-81673790D01*
X133925563Y-82397600D02*
X134039849Y-82435695D01*
X134039849Y-82435695D02*
X134230325Y-82435695D01*
X134230325Y-82435695D02*
X134306516Y-82397600D01*
X134306516Y-82397600D02*
X134344611Y-82359504D01*
X134344611Y-82359504D02*
X134382706Y-82283314D01*
X134382706Y-82283314D02*
X134382706Y-82207123D01*
X134382706Y-82207123D02*
X134344611Y-82130933D01*
X134344611Y-82130933D02*
X134306516Y-82092838D01*
X134306516Y-82092838D02*
X134230325Y-82054742D01*
X134230325Y-82054742D02*
X134077944Y-82016647D01*
X134077944Y-82016647D02*
X134001754Y-81978552D01*
X134001754Y-81978552D02*
X133963659Y-81940457D01*
X133963659Y-81940457D02*
X133925563Y-81864266D01*
X133925563Y-81864266D02*
X133925563Y-81788076D01*
X133925563Y-81788076D02*
X133963659Y-81711885D01*
X133963659Y-81711885D02*
X134001754Y-81673790D01*
X134001754Y-81673790D02*
X134077944Y-81635695D01*
X134077944Y-81635695D02*
X134268421Y-81635695D01*
X134268421Y-81635695D02*
X134382706Y-81673790D01*
X134535088Y-82511885D02*
X135144611Y-82511885D01*
X135335088Y-82016647D02*
X135601754Y-82016647D01*
X135716040Y-82435695D02*
X135335088Y-82435695D01*
X135335088Y-82435695D02*
X135335088Y-81635695D01*
X135335088Y-81635695D02*
X135716040Y-81635695D01*
X131563659Y-87587695D02*
X131563659Y-86787695D01*
X131563659Y-86787695D02*
X131830325Y-87359123D01*
X131830325Y-87359123D02*
X132096992Y-86787695D01*
X132096992Y-86787695D02*
X132096992Y-87587695D01*
X132439849Y-87359123D02*
X132820802Y-87359123D01*
X132363659Y-87587695D02*
X132630326Y-86787695D01*
X132630326Y-86787695D02*
X132896992Y-87587695D01*
X133125563Y-87549600D02*
X133239849Y-87587695D01*
X133239849Y-87587695D02*
X133430325Y-87587695D01*
X133430325Y-87587695D02*
X133506516Y-87549600D01*
X133506516Y-87549600D02*
X133544611Y-87511504D01*
X133544611Y-87511504D02*
X133582706Y-87435314D01*
X133582706Y-87435314D02*
X133582706Y-87359123D01*
X133582706Y-87359123D02*
X133544611Y-87282933D01*
X133544611Y-87282933D02*
X133506516Y-87244838D01*
X133506516Y-87244838D02*
X133430325Y-87206742D01*
X133430325Y-87206742D02*
X133277944Y-87168647D01*
X133277944Y-87168647D02*
X133201754Y-87130552D01*
X133201754Y-87130552D02*
X133163659Y-87092457D01*
X133163659Y-87092457D02*
X133125563Y-87016266D01*
X133125563Y-87016266D02*
X133125563Y-86940076D01*
X133125563Y-86940076D02*
X133163659Y-86863885D01*
X133163659Y-86863885D02*
X133201754Y-86825790D01*
X133201754Y-86825790D02*
X133277944Y-86787695D01*
X133277944Y-86787695D02*
X133468421Y-86787695D01*
X133468421Y-86787695D02*
X133582706Y-86825790D01*
X133887468Y-87549600D02*
X134001754Y-87587695D01*
X134001754Y-87587695D02*
X134192230Y-87587695D01*
X134192230Y-87587695D02*
X134268421Y-87549600D01*
X134268421Y-87549600D02*
X134306516Y-87511504D01*
X134306516Y-87511504D02*
X134344611Y-87435314D01*
X134344611Y-87435314D02*
X134344611Y-87359123D01*
X134344611Y-87359123D02*
X134306516Y-87282933D01*
X134306516Y-87282933D02*
X134268421Y-87244838D01*
X134268421Y-87244838D02*
X134192230Y-87206742D01*
X134192230Y-87206742D02*
X134039849Y-87168647D01*
X134039849Y-87168647D02*
X133963659Y-87130552D01*
X133963659Y-87130552D02*
X133925564Y-87092457D01*
X133925564Y-87092457D02*
X133887468Y-87016266D01*
X133887468Y-87016266D02*
X133887468Y-86940076D01*
X133887468Y-86940076D02*
X133925564Y-86863885D01*
X133925564Y-86863885D02*
X133963659Y-86825790D01*
X133963659Y-86825790D02*
X134039849Y-86787695D01*
X134039849Y-86787695D02*
X134230326Y-86787695D01*
X134230326Y-86787695D02*
X134344611Y-86825790D01*
X134496993Y-87663885D02*
X135106516Y-87663885D01*
X135220802Y-86787695D02*
X135754136Y-86787695D01*
X135754136Y-86787695D02*
X135220802Y-87587695D01*
X135220802Y-87587695D02*
X135754136Y-87587695D01*
X112333333Y-73359695D02*
X112333333Y-72559695D01*
X112333333Y-72559695D02*
X112523809Y-72559695D01*
X112523809Y-72559695D02*
X112638095Y-72597790D01*
X112638095Y-72597790D02*
X112714285Y-72673980D01*
X112714285Y-72673980D02*
X112752380Y-72750171D01*
X112752380Y-72750171D02*
X112790476Y-72902552D01*
X112790476Y-72902552D02*
X112790476Y-73016838D01*
X112790476Y-73016838D02*
X112752380Y-73169219D01*
X112752380Y-73169219D02*
X112714285Y-73245409D01*
X112714285Y-73245409D02*
X112638095Y-73321600D01*
X112638095Y-73321600D02*
X112523809Y-73359695D01*
X112523809Y-73359695D02*
X112333333Y-73359695D01*
X113399999Y-72940647D02*
X113514285Y-72978742D01*
X113514285Y-72978742D02*
X113552380Y-73016838D01*
X113552380Y-73016838D02*
X113590476Y-73093028D01*
X113590476Y-73093028D02*
X113590476Y-73207314D01*
X113590476Y-73207314D02*
X113552380Y-73283504D01*
X113552380Y-73283504D02*
X113514285Y-73321600D01*
X113514285Y-73321600D02*
X113438095Y-73359695D01*
X113438095Y-73359695D02*
X113133333Y-73359695D01*
X113133333Y-73359695D02*
X113133333Y-72559695D01*
X113133333Y-72559695D02*
X113399999Y-72559695D01*
X113399999Y-72559695D02*
X113476190Y-72597790D01*
X113476190Y-72597790D02*
X113514285Y-72635885D01*
X113514285Y-72635885D02*
X113552380Y-72712076D01*
X113552380Y-72712076D02*
X113552380Y-72788266D01*
X113552380Y-72788266D02*
X113514285Y-72864457D01*
X113514285Y-72864457D02*
X113476190Y-72902552D01*
X113476190Y-72902552D02*
X113399999Y-72940647D01*
X113399999Y-72940647D02*
X113133333Y-72940647D01*
X113971428Y-73359695D02*
X114123809Y-73359695D01*
X114123809Y-73359695D02*
X114199999Y-73321600D01*
X114199999Y-73321600D02*
X114238095Y-73283504D01*
X114238095Y-73283504D02*
X114314285Y-73169219D01*
X114314285Y-73169219D02*
X114352380Y-73016838D01*
X114352380Y-73016838D02*
X114352380Y-72712076D01*
X114352380Y-72712076D02*
X114314285Y-72635885D01*
X114314285Y-72635885D02*
X114276190Y-72597790D01*
X114276190Y-72597790D02*
X114199999Y-72559695D01*
X114199999Y-72559695D02*
X114047618Y-72559695D01*
X114047618Y-72559695D02*
X113971428Y-72597790D01*
X113971428Y-72597790D02*
X113933333Y-72635885D01*
X113933333Y-72635885D02*
X113895237Y-72712076D01*
X113895237Y-72712076D02*
X113895237Y-72902552D01*
X113895237Y-72902552D02*
X113933333Y-72978742D01*
X113933333Y-72978742D02*
X113971428Y-73016838D01*
X113971428Y-73016838D02*
X114047618Y-73054933D01*
X114047618Y-73054933D02*
X114199999Y-73054933D01*
X114199999Y-73054933D02*
X114276190Y-73016838D01*
X114276190Y-73016838D02*
X114314285Y-72978742D01*
X114314285Y-72978742D02*
X114352380Y-72902552D01*
X115304762Y-73359695D02*
X115304762Y-72559695D01*
X115304762Y-72559695D02*
X115571428Y-73131123D01*
X115571428Y-73131123D02*
X115838095Y-72559695D01*
X115838095Y-72559695D02*
X115838095Y-73359695D01*
X116561905Y-73359695D02*
X116561905Y-72940647D01*
X116561905Y-72940647D02*
X116523810Y-72864457D01*
X116523810Y-72864457D02*
X116447619Y-72826361D01*
X116447619Y-72826361D02*
X116295238Y-72826361D01*
X116295238Y-72826361D02*
X116219048Y-72864457D01*
X116561905Y-73321600D02*
X116485714Y-73359695D01*
X116485714Y-73359695D02*
X116295238Y-73359695D01*
X116295238Y-73359695D02*
X116219048Y-73321600D01*
X116219048Y-73321600D02*
X116180952Y-73245409D01*
X116180952Y-73245409D02*
X116180952Y-73169219D01*
X116180952Y-73169219D02*
X116219048Y-73093028D01*
X116219048Y-73093028D02*
X116295238Y-73054933D01*
X116295238Y-73054933D02*
X116485714Y-73054933D01*
X116485714Y-73054933D02*
X116561905Y-73016838D01*
X117057143Y-73359695D02*
X116980953Y-73321600D01*
X116980953Y-73321600D02*
X116942858Y-73245409D01*
X116942858Y-73245409D02*
X116942858Y-72559695D01*
X117666668Y-73321600D02*
X117590477Y-73359695D01*
X117590477Y-73359695D02*
X117438096Y-73359695D01*
X117438096Y-73359695D02*
X117361906Y-73321600D01*
X117361906Y-73321600D02*
X117323810Y-73245409D01*
X117323810Y-73245409D02*
X117323810Y-72940647D01*
X117323810Y-72940647D02*
X117361906Y-72864457D01*
X117361906Y-72864457D02*
X117438096Y-72826361D01*
X117438096Y-72826361D02*
X117590477Y-72826361D01*
X117590477Y-72826361D02*
X117666668Y-72864457D01*
X117666668Y-72864457D02*
X117704763Y-72940647D01*
X117704763Y-72940647D02*
X117704763Y-73016838D01*
X117704763Y-73016838D02*
X117323810Y-73093028D01*
D11*
X97928572Y-75462904D02*
X98000000Y-75486714D01*
X98000000Y-75486714D02*
X98023810Y-75510523D01*
X98023810Y-75510523D02*
X98047619Y-75558142D01*
X98047619Y-75558142D02*
X98047619Y-75629571D01*
X98047619Y-75629571D02*
X98023810Y-75677190D01*
X98023810Y-75677190D02*
X98000000Y-75701000D01*
X98000000Y-75701000D02*
X97952381Y-75724809D01*
X97952381Y-75724809D02*
X97761905Y-75724809D01*
X97761905Y-75724809D02*
X97761905Y-75224809D01*
X97761905Y-75224809D02*
X97928572Y-75224809D01*
X97928572Y-75224809D02*
X97976191Y-75248619D01*
X97976191Y-75248619D02*
X98000000Y-75272428D01*
X98000000Y-75272428D02*
X98023810Y-75320047D01*
X98023810Y-75320047D02*
X98023810Y-75367666D01*
X98023810Y-75367666D02*
X98000000Y-75415285D01*
X98000000Y-75415285D02*
X97976191Y-75439095D01*
X97976191Y-75439095D02*
X97928572Y-75462904D01*
X97928572Y-75462904D02*
X97761905Y-75462904D01*
X98238096Y-75581952D02*
X98476191Y-75581952D01*
X98190477Y-75724809D02*
X98357143Y-75224809D01*
X98357143Y-75224809D02*
X98523810Y-75724809D01*
X98690476Y-75224809D02*
X98690476Y-75629571D01*
X98690476Y-75629571D02*
X98714286Y-75677190D01*
X98714286Y-75677190D02*
X98738095Y-75701000D01*
X98738095Y-75701000D02*
X98785714Y-75724809D01*
X98785714Y-75724809D02*
X98880952Y-75724809D01*
X98880952Y-75724809D02*
X98928571Y-75701000D01*
X98928571Y-75701000D02*
X98952381Y-75677190D01*
X98952381Y-75677190D02*
X98976190Y-75629571D01*
X98976190Y-75629571D02*
X98976190Y-75224809D01*
X99214286Y-75724809D02*
X99214286Y-75224809D01*
X99214286Y-75224809D02*
X99333334Y-75224809D01*
X99333334Y-75224809D02*
X99404762Y-75248619D01*
X99404762Y-75248619D02*
X99452381Y-75296238D01*
X99452381Y-75296238D02*
X99476191Y-75343857D01*
X99476191Y-75343857D02*
X99500000Y-75439095D01*
X99500000Y-75439095D02*
X99500000Y-75510523D01*
X99500000Y-75510523D02*
X99476191Y-75605761D01*
X99476191Y-75605761D02*
X99452381Y-75653380D01*
X99452381Y-75653380D02*
X99404762Y-75701000D01*
X99404762Y-75701000D02*
X99333334Y-75724809D01*
X99333334Y-75724809D02*
X99214286Y-75724809D01*
X100000000Y-75724809D02*
X99833334Y-75486714D01*
X99714286Y-75724809D02*
X99714286Y-75224809D01*
X99714286Y-75224809D02*
X99904762Y-75224809D01*
X99904762Y-75224809D02*
X99952381Y-75248619D01*
X99952381Y-75248619D02*
X99976191Y-75272428D01*
X99976191Y-75272428D02*
X100000000Y-75320047D01*
X100000000Y-75320047D02*
X100000000Y-75391476D01*
X100000000Y-75391476D02*
X99976191Y-75439095D01*
X99976191Y-75439095D02*
X99952381Y-75462904D01*
X99952381Y-75462904D02*
X99904762Y-75486714D01*
X99904762Y-75486714D02*
X99714286Y-75486714D01*
X100190477Y-75581952D02*
X100428572Y-75581952D01*
X100142858Y-75724809D02*
X100309524Y-75224809D01*
X100309524Y-75224809D02*
X100476191Y-75724809D01*
X100571429Y-75224809D02*
X100857143Y-75224809D01*
X100714286Y-75724809D02*
X100714286Y-75224809D01*
X101023809Y-75462904D02*
X101190476Y-75462904D01*
X101261904Y-75724809D02*
X101023809Y-75724809D01*
X101023809Y-75724809D02*
X101023809Y-75224809D01*
X101023809Y-75224809D02*
X101261904Y-75224809D01*
D10*
X92076189Y-156826361D02*
X92076189Y-157473980D01*
X92076189Y-157473980D02*
X92038094Y-157550171D01*
X92038094Y-157550171D02*
X91999998Y-157588266D01*
X91999998Y-157588266D02*
X91923808Y-157626361D01*
X91923808Y-157626361D02*
X91809522Y-157626361D01*
X91809522Y-157626361D02*
X91733332Y-157588266D01*
X92076189Y-157321600D02*
X91999998Y-157359695D01*
X91999998Y-157359695D02*
X91847617Y-157359695D01*
X91847617Y-157359695D02*
X91771427Y-157321600D01*
X91771427Y-157321600D02*
X91733332Y-157283504D01*
X91733332Y-157283504D02*
X91695236Y-157207314D01*
X91695236Y-157207314D02*
X91695236Y-156978742D01*
X91695236Y-156978742D02*
X91733332Y-156902552D01*
X91733332Y-156902552D02*
X91771427Y-156864457D01*
X91771427Y-156864457D02*
X91847617Y-156826361D01*
X91847617Y-156826361D02*
X91999998Y-156826361D01*
X91999998Y-156826361D02*
X92076189Y-156864457D01*
X92457142Y-157359695D02*
X92457142Y-156826361D01*
X92457142Y-156559695D02*
X92419046Y-156597790D01*
X92419046Y-156597790D02*
X92457142Y-156635885D01*
X92457142Y-156635885D02*
X92495237Y-156597790D01*
X92495237Y-156597790D02*
X92457142Y-156559695D01*
X92457142Y-156559695D02*
X92457142Y-156635885D01*
X92723808Y-156826361D02*
X93028570Y-156826361D01*
X92838094Y-156559695D02*
X92838094Y-157245409D01*
X92838094Y-157245409D02*
X92876189Y-157321600D01*
X92876189Y-157321600D02*
X92952379Y-157359695D01*
X92952379Y-157359695D02*
X93028570Y-157359695D01*
X93295237Y-157359695D02*
X93295237Y-156559695D01*
X93638094Y-157359695D02*
X93638094Y-156940647D01*
X93638094Y-156940647D02*
X93599999Y-156864457D01*
X93599999Y-156864457D02*
X93523808Y-156826361D01*
X93523808Y-156826361D02*
X93409522Y-156826361D01*
X93409522Y-156826361D02*
X93333332Y-156864457D01*
X93333332Y-156864457D02*
X93295237Y-156902552D01*
X94361904Y-156826361D02*
X94361904Y-157359695D01*
X94019047Y-156826361D02*
X94019047Y-157245409D01*
X94019047Y-157245409D02*
X94057142Y-157321600D01*
X94057142Y-157321600D02*
X94133332Y-157359695D01*
X94133332Y-157359695D02*
X94247618Y-157359695D01*
X94247618Y-157359695D02*
X94323809Y-157321600D01*
X94323809Y-157321600D02*
X94361904Y-157283504D01*
X94742857Y-157359695D02*
X94742857Y-156559695D01*
X94742857Y-156864457D02*
X94819047Y-156826361D01*
X94819047Y-156826361D02*
X94971428Y-156826361D01*
X94971428Y-156826361D02*
X95047619Y-156864457D01*
X95047619Y-156864457D02*
X95085714Y-156902552D01*
X95085714Y-156902552D02*
X95123809Y-156978742D01*
X95123809Y-156978742D02*
X95123809Y-157207314D01*
X95123809Y-157207314D02*
X95085714Y-157283504D01*
X95085714Y-157283504D02*
X95047619Y-157321600D01*
X95047619Y-157321600D02*
X94971428Y-157359695D01*
X94971428Y-157359695D02*
X94819047Y-157359695D01*
X94819047Y-157359695D02*
X94742857Y-157321600D01*
X95466667Y-157283504D02*
X95504762Y-157321600D01*
X95504762Y-157321600D02*
X95466667Y-157359695D01*
X95466667Y-157359695D02*
X95428571Y-157321600D01*
X95428571Y-157321600D02*
X95466667Y-157283504D01*
X95466667Y-157283504D02*
X95466667Y-157359695D01*
X96190476Y-157321600D02*
X96114285Y-157359695D01*
X96114285Y-157359695D02*
X95961904Y-157359695D01*
X95961904Y-157359695D02*
X95885714Y-157321600D01*
X95885714Y-157321600D02*
X95847619Y-157283504D01*
X95847619Y-157283504D02*
X95809523Y-157207314D01*
X95809523Y-157207314D02*
X95809523Y-156978742D01*
X95809523Y-156978742D02*
X95847619Y-156902552D01*
X95847619Y-156902552D02*
X95885714Y-156864457D01*
X95885714Y-156864457D02*
X95961904Y-156826361D01*
X95961904Y-156826361D02*
X96114285Y-156826361D01*
X96114285Y-156826361D02*
X96190476Y-156864457D01*
X96647618Y-157359695D02*
X96571428Y-157321600D01*
X96571428Y-157321600D02*
X96533333Y-157283504D01*
X96533333Y-157283504D02*
X96495237Y-157207314D01*
X96495237Y-157207314D02*
X96495237Y-156978742D01*
X96495237Y-156978742D02*
X96533333Y-156902552D01*
X96533333Y-156902552D02*
X96571428Y-156864457D01*
X96571428Y-156864457D02*
X96647618Y-156826361D01*
X96647618Y-156826361D02*
X96761904Y-156826361D01*
X96761904Y-156826361D02*
X96838095Y-156864457D01*
X96838095Y-156864457D02*
X96876190Y-156902552D01*
X96876190Y-156902552D02*
X96914285Y-156978742D01*
X96914285Y-156978742D02*
X96914285Y-157207314D01*
X96914285Y-157207314D02*
X96876190Y-157283504D01*
X96876190Y-157283504D02*
X96838095Y-157321600D01*
X96838095Y-157321600D02*
X96761904Y-157359695D01*
X96761904Y-157359695D02*
X96647618Y-157359695D01*
X97257143Y-157359695D02*
X97257143Y-156826361D01*
X97257143Y-156902552D02*
X97295238Y-156864457D01*
X97295238Y-156864457D02*
X97371428Y-156826361D01*
X97371428Y-156826361D02*
X97485714Y-156826361D01*
X97485714Y-156826361D02*
X97561905Y-156864457D01*
X97561905Y-156864457D02*
X97600000Y-156940647D01*
X97600000Y-156940647D02*
X97600000Y-157359695D01*
X97600000Y-156940647D02*
X97638095Y-156864457D01*
X97638095Y-156864457D02*
X97714286Y-156826361D01*
X97714286Y-156826361D02*
X97828571Y-156826361D01*
X97828571Y-156826361D02*
X97904762Y-156864457D01*
X97904762Y-156864457D02*
X97942857Y-156940647D01*
X97942857Y-156940647D02*
X97942857Y-157359695D01*
X98895238Y-156521600D02*
X98209524Y-157550171D01*
X99504762Y-157359695D02*
X99504762Y-156940647D01*
X99504762Y-156940647D02*
X99466667Y-156864457D01*
X99466667Y-156864457D02*
X99390476Y-156826361D01*
X99390476Y-156826361D02*
X99238095Y-156826361D01*
X99238095Y-156826361D02*
X99161905Y-156864457D01*
X99504762Y-157321600D02*
X99428571Y-157359695D01*
X99428571Y-157359695D02*
X99238095Y-157359695D01*
X99238095Y-157359695D02*
X99161905Y-157321600D01*
X99161905Y-157321600D02*
X99123809Y-157245409D01*
X99123809Y-157245409D02*
X99123809Y-157169219D01*
X99123809Y-157169219D02*
X99161905Y-157093028D01*
X99161905Y-157093028D02*
X99238095Y-157054933D01*
X99238095Y-157054933D02*
X99428571Y-157054933D01*
X99428571Y-157054933D02*
X99504762Y-157016838D01*
X99885715Y-156826361D02*
X99885715Y-157359695D01*
X99885715Y-156902552D02*
X99923810Y-156864457D01*
X99923810Y-156864457D02*
X100000000Y-156826361D01*
X100000000Y-156826361D02*
X100114286Y-156826361D01*
X100114286Y-156826361D02*
X100190477Y-156864457D01*
X100190477Y-156864457D02*
X100228572Y-156940647D01*
X100228572Y-156940647D02*
X100228572Y-157359695D01*
X100533334Y-156826361D02*
X100723810Y-157359695D01*
X100914287Y-156826361D02*
X100723810Y-157359695D01*
X100723810Y-157359695D02*
X100647620Y-157550171D01*
X100647620Y-157550171D02*
X100609525Y-157588266D01*
X100609525Y-157588266D02*
X100533334Y-157626361D01*
X101180953Y-157321600D02*
X101257144Y-157359695D01*
X101257144Y-157359695D02*
X101409525Y-157359695D01*
X101409525Y-157359695D02*
X101485715Y-157321600D01*
X101485715Y-157321600D02*
X101523811Y-157245409D01*
X101523811Y-157245409D02*
X101523811Y-157207314D01*
X101523811Y-157207314D02*
X101485715Y-157131123D01*
X101485715Y-157131123D02*
X101409525Y-157093028D01*
X101409525Y-157093028D02*
X101295239Y-157093028D01*
X101295239Y-157093028D02*
X101219049Y-157054933D01*
X101219049Y-157054933D02*
X101180953Y-156978742D01*
X101180953Y-156978742D02*
X101180953Y-156940647D01*
X101180953Y-156940647D02*
X101219049Y-156864457D01*
X101219049Y-156864457D02*
X101295239Y-156826361D01*
X101295239Y-156826361D02*
X101409525Y-156826361D01*
X101409525Y-156826361D02*
X101485715Y-156864457D01*
X101866668Y-157359695D02*
X101866668Y-156559695D01*
X102209525Y-157359695D02*
X102209525Y-156940647D01*
X102209525Y-156940647D02*
X102171430Y-156864457D01*
X102171430Y-156864457D02*
X102095239Y-156826361D01*
X102095239Y-156826361D02*
X101980953Y-156826361D01*
X101980953Y-156826361D02*
X101904763Y-156864457D01*
X101904763Y-156864457D02*
X101866668Y-156902552D01*
X102933335Y-157359695D02*
X102933335Y-156940647D01*
X102933335Y-156940647D02*
X102895240Y-156864457D01*
X102895240Y-156864457D02*
X102819049Y-156826361D01*
X102819049Y-156826361D02*
X102666668Y-156826361D01*
X102666668Y-156826361D02*
X102590478Y-156864457D01*
X102933335Y-157321600D02*
X102857144Y-157359695D01*
X102857144Y-157359695D02*
X102666668Y-157359695D01*
X102666668Y-157359695D02*
X102590478Y-157321600D01*
X102590478Y-157321600D02*
X102552382Y-157245409D01*
X102552382Y-157245409D02*
X102552382Y-157169219D01*
X102552382Y-157169219D02*
X102590478Y-157093028D01*
X102590478Y-157093028D02*
X102666668Y-157054933D01*
X102666668Y-157054933D02*
X102857144Y-157054933D01*
X102857144Y-157054933D02*
X102933335Y-157016838D01*
X103314288Y-157359695D02*
X103314288Y-156559695D01*
X103390478Y-157054933D02*
X103619050Y-157359695D01*
X103619050Y-156826361D02*
X103314288Y-157131123D01*
X104266669Y-157321600D02*
X104190478Y-157359695D01*
X104190478Y-157359695D02*
X104038097Y-157359695D01*
X104038097Y-157359695D02*
X103961907Y-157321600D01*
X103961907Y-157321600D02*
X103923811Y-157245409D01*
X103923811Y-157245409D02*
X103923811Y-156940647D01*
X103923811Y-156940647D02*
X103961907Y-156864457D01*
X103961907Y-156864457D02*
X104038097Y-156826361D01*
X104038097Y-156826361D02*
X104190478Y-156826361D01*
X104190478Y-156826361D02*
X104266669Y-156864457D01*
X104266669Y-156864457D02*
X104304764Y-156940647D01*
X104304764Y-156940647D02*
X104304764Y-157016838D01*
X104304764Y-157016838D02*
X103923811Y-157093028D01*
D11*
X106607144Y-89701000D02*
X106678572Y-89724809D01*
X106678572Y-89724809D02*
X106797620Y-89724809D01*
X106797620Y-89724809D02*
X106845239Y-89701000D01*
X106845239Y-89701000D02*
X106869048Y-89677190D01*
X106869048Y-89677190D02*
X106892858Y-89629571D01*
X106892858Y-89629571D02*
X106892858Y-89581952D01*
X106892858Y-89581952D02*
X106869048Y-89534333D01*
X106869048Y-89534333D02*
X106845239Y-89510523D01*
X106845239Y-89510523D02*
X106797620Y-89486714D01*
X106797620Y-89486714D02*
X106702382Y-89462904D01*
X106702382Y-89462904D02*
X106654763Y-89439095D01*
X106654763Y-89439095D02*
X106630953Y-89415285D01*
X106630953Y-89415285D02*
X106607144Y-89367666D01*
X106607144Y-89367666D02*
X106607144Y-89320047D01*
X106607144Y-89320047D02*
X106630953Y-89272428D01*
X106630953Y-89272428D02*
X106654763Y-89248619D01*
X106654763Y-89248619D02*
X106702382Y-89224809D01*
X106702382Y-89224809D02*
X106821429Y-89224809D01*
X106821429Y-89224809D02*
X106892858Y-89248619D01*
X107083334Y-89581952D02*
X107321429Y-89581952D01*
X107035715Y-89724809D02*
X107202381Y-89224809D01*
X107202381Y-89224809D02*
X107369048Y-89724809D01*
X107535714Y-89724809D02*
X107535714Y-89224809D01*
X107535714Y-89224809D02*
X107702381Y-89581952D01*
X107702381Y-89581952D02*
X107869047Y-89224809D01*
X107869047Y-89224809D02*
X107869047Y-89724809D01*
X108107143Y-89724809D02*
X108107143Y-89224809D01*
X108107143Y-89224809D02*
X108297619Y-89224809D01*
X108297619Y-89224809D02*
X108345238Y-89248619D01*
X108345238Y-89248619D02*
X108369048Y-89272428D01*
X108369048Y-89272428D02*
X108392857Y-89320047D01*
X108392857Y-89320047D02*
X108392857Y-89391476D01*
X108392857Y-89391476D02*
X108369048Y-89439095D01*
X108369048Y-89439095D02*
X108345238Y-89462904D01*
X108345238Y-89462904D02*
X108297619Y-89486714D01*
X108297619Y-89486714D02*
X108107143Y-89486714D01*
X108845238Y-89724809D02*
X108607143Y-89724809D01*
X108607143Y-89724809D02*
X108607143Y-89224809D01*
X109011905Y-89462904D02*
X109178572Y-89462904D01*
X109250000Y-89724809D02*
X109011905Y-89724809D01*
X109011905Y-89724809D02*
X109011905Y-89224809D01*
X109011905Y-89224809D02*
X109250000Y-89224809D01*
X109345239Y-89772428D02*
X109726191Y-89772428D01*
X110130952Y-89724809D02*
X109964286Y-89486714D01*
X109845238Y-89724809D02*
X109845238Y-89224809D01*
X109845238Y-89224809D02*
X110035714Y-89224809D01*
X110035714Y-89224809D02*
X110083333Y-89248619D01*
X110083333Y-89248619D02*
X110107143Y-89272428D01*
X110107143Y-89272428D02*
X110130952Y-89320047D01*
X110130952Y-89320047D02*
X110130952Y-89391476D01*
X110130952Y-89391476D02*
X110107143Y-89439095D01*
X110107143Y-89439095D02*
X110083333Y-89462904D01*
X110083333Y-89462904D02*
X110035714Y-89486714D01*
X110035714Y-89486714D02*
X109845238Y-89486714D01*
X110321429Y-89581952D02*
X110559524Y-89581952D01*
X110273810Y-89724809D02*
X110440476Y-89224809D01*
X110440476Y-89224809D02*
X110607143Y-89724809D01*
X110702381Y-89224809D02*
X110988095Y-89224809D01*
X110845238Y-89724809D02*
X110845238Y-89224809D01*
X111154761Y-89462904D02*
X111321428Y-89462904D01*
X111392856Y-89724809D02*
X111154761Y-89724809D01*
X111154761Y-89724809D02*
X111154761Y-89224809D01*
X111154761Y-89224809D02*
X111392856Y-89224809D01*
X106726191Y-75724809D02*
X106726191Y-75224809D01*
X106726191Y-75224809D02*
X106916667Y-75224809D01*
X106916667Y-75224809D02*
X106964286Y-75248619D01*
X106964286Y-75248619D02*
X106988096Y-75272428D01*
X106988096Y-75272428D02*
X107011905Y-75320047D01*
X107011905Y-75320047D02*
X107011905Y-75391476D01*
X107011905Y-75391476D02*
X106988096Y-75439095D01*
X106988096Y-75439095D02*
X106964286Y-75462904D01*
X106964286Y-75462904D02*
X106916667Y-75486714D01*
X106916667Y-75486714D02*
X106726191Y-75486714D01*
X107202382Y-75581952D02*
X107440477Y-75581952D01*
X107154763Y-75724809D02*
X107321429Y-75224809D01*
X107321429Y-75224809D02*
X107488096Y-75724809D01*
X107940476Y-75677190D02*
X107916667Y-75701000D01*
X107916667Y-75701000D02*
X107845238Y-75724809D01*
X107845238Y-75724809D02*
X107797619Y-75724809D01*
X107797619Y-75724809D02*
X107726191Y-75701000D01*
X107726191Y-75701000D02*
X107678572Y-75653380D01*
X107678572Y-75653380D02*
X107654762Y-75605761D01*
X107654762Y-75605761D02*
X107630953Y-75510523D01*
X107630953Y-75510523D02*
X107630953Y-75439095D01*
X107630953Y-75439095D02*
X107654762Y-75343857D01*
X107654762Y-75343857D02*
X107678572Y-75296238D01*
X107678572Y-75296238D02*
X107726191Y-75248619D01*
X107726191Y-75248619D02*
X107797619Y-75224809D01*
X107797619Y-75224809D02*
X107845238Y-75224809D01*
X107845238Y-75224809D02*
X107916667Y-75248619D01*
X107916667Y-75248619D02*
X107940476Y-75272428D01*
X108154762Y-75724809D02*
X108154762Y-75224809D01*
X108440476Y-75724809D02*
X108226191Y-75439095D01*
X108440476Y-75224809D02*
X108154762Y-75510523D01*
X108654762Y-75462904D02*
X108821429Y-75462904D01*
X108892857Y-75724809D02*
X108654762Y-75724809D01*
X108654762Y-75724809D02*
X108654762Y-75224809D01*
X108654762Y-75224809D02*
X108892857Y-75224809D01*
X109035715Y-75224809D02*
X109321429Y-75224809D01*
X109178572Y-75724809D02*
X109178572Y-75224809D01*
X109369048Y-75772428D02*
X109750000Y-75772428D01*
X109845238Y-75701000D02*
X109916666Y-75724809D01*
X109916666Y-75724809D02*
X110035714Y-75724809D01*
X110035714Y-75724809D02*
X110083333Y-75701000D01*
X110083333Y-75701000D02*
X110107142Y-75677190D01*
X110107142Y-75677190D02*
X110130952Y-75629571D01*
X110130952Y-75629571D02*
X110130952Y-75581952D01*
X110130952Y-75581952D02*
X110107142Y-75534333D01*
X110107142Y-75534333D02*
X110083333Y-75510523D01*
X110083333Y-75510523D02*
X110035714Y-75486714D01*
X110035714Y-75486714D02*
X109940476Y-75462904D01*
X109940476Y-75462904D02*
X109892857Y-75439095D01*
X109892857Y-75439095D02*
X109869047Y-75415285D01*
X109869047Y-75415285D02*
X109845238Y-75367666D01*
X109845238Y-75367666D02*
X109845238Y-75320047D01*
X109845238Y-75320047D02*
X109869047Y-75272428D01*
X109869047Y-75272428D02*
X109892857Y-75248619D01*
X109892857Y-75248619D02*
X109940476Y-75224809D01*
X109940476Y-75224809D02*
X110059523Y-75224809D01*
X110059523Y-75224809D02*
X110130952Y-75248619D01*
X110345237Y-75724809D02*
X110345237Y-75224809D01*
X110535713Y-75224809D02*
X110869046Y-75224809D01*
X110869046Y-75224809D02*
X110535713Y-75724809D01*
X110535713Y-75724809D02*
X110869046Y-75724809D01*
X111059522Y-75462904D02*
X111226189Y-75462904D01*
X111297617Y-75724809D02*
X111059522Y-75724809D01*
X111059522Y-75724809D02*
X111059522Y-75224809D01*
X111059522Y-75224809D02*
X111297617Y-75224809D01*
X90201283Y-75419809D02*
X90201283Y-74919809D01*
X90201283Y-74919809D02*
X90320331Y-74919809D01*
X90320331Y-74919809D02*
X90391759Y-74943619D01*
X90391759Y-74943619D02*
X90439378Y-74991238D01*
X90439378Y-74991238D02*
X90463188Y-75038857D01*
X90463188Y-75038857D02*
X90486997Y-75134095D01*
X90486997Y-75134095D02*
X90486997Y-75205523D01*
X90486997Y-75205523D02*
X90463188Y-75300761D01*
X90463188Y-75300761D02*
X90439378Y-75348380D01*
X90439378Y-75348380D02*
X90391759Y-75396000D01*
X90391759Y-75396000D02*
X90320331Y-75419809D01*
X90320331Y-75419809D02*
X90201283Y-75419809D01*
X90963188Y-74943619D02*
X90915569Y-74919809D01*
X90915569Y-74919809D02*
X90844140Y-74919809D01*
X90844140Y-74919809D02*
X90772712Y-74943619D01*
X90772712Y-74943619D02*
X90725093Y-74991238D01*
X90725093Y-74991238D02*
X90701283Y-75038857D01*
X90701283Y-75038857D02*
X90677474Y-75134095D01*
X90677474Y-75134095D02*
X90677474Y-75205523D01*
X90677474Y-75205523D02*
X90701283Y-75300761D01*
X90701283Y-75300761D02*
X90725093Y-75348380D01*
X90725093Y-75348380D02*
X90772712Y-75396000D01*
X90772712Y-75396000D02*
X90844140Y-75419809D01*
X90844140Y-75419809D02*
X90891759Y-75419809D01*
X90891759Y-75419809D02*
X90963188Y-75396000D01*
X90963188Y-75396000D02*
X90986997Y-75372190D01*
X90986997Y-75372190D02*
X90986997Y-75205523D01*
X90986997Y-75205523D02*
X90891759Y-75205523D01*
X91201283Y-75419809D02*
X91201283Y-74919809D01*
X91201283Y-74919809D02*
X91486997Y-75419809D01*
X91486997Y-75419809D02*
X91486997Y-74919809D01*
X91725093Y-75419809D02*
X91725093Y-74919809D01*
X91725093Y-74919809D02*
X91844141Y-74919809D01*
X91844141Y-74919809D02*
X91915569Y-74943619D01*
X91915569Y-74943619D02*
X91963188Y-74991238D01*
X91963188Y-74991238D02*
X91986998Y-75038857D01*
X91986998Y-75038857D02*
X92010807Y-75134095D01*
X92010807Y-75134095D02*
X92010807Y-75205523D01*
X92010807Y-75205523D02*
X91986998Y-75300761D01*
X91986998Y-75300761D02*
X91963188Y-75348380D01*
X91963188Y-75348380D02*
X91915569Y-75396000D01*
X91915569Y-75396000D02*
X91844141Y-75419809D01*
X91844141Y-75419809D02*
X91725093Y-75419809D01*
X90177474Y-76201000D02*
X90248902Y-76224809D01*
X90248902Y-76224809D02*
X90367950Y-76224809D01*
X90367950Y-76224809D02*
X90415569Y-76201000D01*
X90415569Y-76201000D02*
X90439378Y-76177190D01*
X90439378Y-76177190D02*
X90463188Y-76129571D01*
X90463188Y-76129571D02*
X90463188Y-76081952D01*
X90463188Y-76081952D02*
X90439378Y-76034333D01*
X90439378Y-76034333D02*
X90415569Y-76010523D01*
X90415569Y-76010523D02*
X90367950Y-75986714D01*
X90367950Y-75986714D02*
X90272712Y-75962904D01*
X90272712Y-75962904D02*
X90225093Y-75939095D01*
X90225093Y-75939095D02*
X90201283Y-75915285D01*
X90201283Y-75915285D02*
X90177474Y-75867666D01*
X90177474Y-75867666D02*
X90177474Y-75820047D01*
X90177474Y-75820047D02*
X90201283Y-75772428D01*
X90201283Y-75772428D02*
X90225093Y-75748619D01*
X90225093Y-75748619D02*
X90272712Y-75724809D01*
X90272712Y-75724809D02*
X90391759Y-75724809D01*
X90391759Y-75724809D02*
X90463188Y-75748619D01*
X90629854Y-75724809D02*
X90748902Y-76224809D01*
X90748902Y-76224809D02*
X90844140Y-75867666D01*
X90844140Y-75867666D02*
X90939378Y-76224809D01*
X90939378Y-76224809D02*
X91058426Y-75724809D01*
X91534616Y-76177190D02*
X91510807Y-76201000D01*
X91510807Y-76201000D02*
X91439378Y-76224809D01*
X91439378Y-76224809D02*
X91391759Y-76224809D01*
X91391759Y-76224809D02*
X91320331Y-76201000D01*
X91320331Y-76201000D02*
X91272712Y-76153380D01*
X91272712Y-76153380D02*
X91248902Y-76105761D01*
X91248902Y-76105761D02*
X91225093Y-76010523D01*
X91225093Y-76010523D02*
X91225093Y-75939095D01*
X91225093Y-75939095D02*
X91248902Y-75843857D01*
X91248902Y-75843857D02*
X91272712Y-75796238D01*
X91272712Y-75796238D02*
X91320331Y-75748619D01*
X91320331Y-75748619D02*
X91391759Y-75724809D01*
X91391759Y-75724809D02*
X91439378Y-75724809D01*
X91439378Y-75724809D02*
X91510807Y-75748619D01*
X91510807Y-75748619D02*
X91534616Y-75772428D01*
X91986997Y-76224809D02*
X91748902Y-76224809D01*
X91748902Y-76224809D02*
X91748902Y-75724809D01*
X92153664Y-76224809D02*
X92153664Y-75724809D01*
X92439378Y-76224809D02*
X92225093Y-75939095D01*
X92439378Y-75724809D02*
X92153664Y-76010523D01*
X90177474Y-77006000D02*
X90248902Y-77029809D01*
X90248902Y-77029809D02*
X90367950Y-77029809D01*
X90367950Y-77029809D02*
X90415569Y-77006000D01*
X90415569Y-77006000D02*
X90439378Y-76982190D01*
X90439378Y-76982190D02*
X90463188Y-76934571D01*
X90463188Y-76934571D02*
X90463188Y-76886952D01*
X90463188Y-76886952D02*
X90439378Y-76839333D01*
X90439378Y-76839333D02*
X90415569Y-76815523D01*
X90415569Y-76815523D02*
X90367950Y-76791714D01*
X90367950Y-76791714D02*
X90272712Y-76767904D01*
X90272712Y-76767904D02*
X90225093Y-76744095D01*
X90225093Y-76744095D02*
X90201283Y-76720285D01*
X90201283Y-76720285D02*
X90177474Y-76672666D01*
X90177474Y-76672666D02*
X90177474Y-76625047D01*
X90177474Y-76625047D02*
X90201283Y-76577428D01*
X90201283Y-76577428D02*
X90225093Y-76553619D01*
X90225093Y-76553619D02*
X90272712Y-76529809D01*
X90272712Y-76529809D02*
X90391759Y-76529809D01*
X90391759Y-76529809D02*
X90463188Y-76553619D01*
X90629854Y-76529809D02*
X90748902Y-77029809D01*
X90748902Y-77029809D02*
X90844140Y-76672666D01*
X90844140Y-76672666D02*
X90939378Y-77029809D01*
X90939378Y-77029809D02*
X91058426Y-76529809D01*
X91248902Y-77029809D02*
X91248902Y-76529809D01*
X91248902Y-76529809D02*
X91367950Y-76529809D01*
X91367950Y-76529809D02*
X91439378Y-76553619D01*
X91439378Y-76553619D02*
X91486997Y-76601238D01*
X91486997Y-76601238D02*
X91510807Y-76648857D01*
X91510807Y-76648857D02*
X91534616Y-76744095D01*
X91534616Y-76744095D02*
X91534616Y-76815523D01*
X91534616Y-76815523D02*
X91510807Y-76910761D01*
X91510807Y-76910761D02*
X91486997Y-76958380D01*
X91486997Y-76958380D02*
X91439378Y-77006000D01*
X91439378Y-77006000D02*
X91367950Y-77029809D01*
X91367950Y-77029809D02*
X91248902Y-77029809D01*
X91748902Y-77029809D02*
X91748902Y-76529809D01*
X92082235Y-76529809D02*
X92177473Y-76529809D01*
X92177473Y-76529809D02*
X92225092Y-76553619D01*
X92225092Y-76553619D02*
X92272711Y-76601238D01*
X92272711Y-76601238D02*
X92296521Y-76696476D01*
X92296521Y-76696476D02*
X92296521Y-76863142D01*
X92296521Y-76863142D02*
X92272711Y-76958380D01*
X92272711Y-76958380D02*
X92225092Y-77006000D01*
X92225092Y-77006000D02*
X92177473Y-77029809D01*
X92177473Y-77029809D02*
X92082235Y-77029809D01*
X92082235Y-77029809D02*
X92034616Y-77006000D01*
X92034616Y-77006000D02*
X91986997Y-76958380D01*
X91986997Y-76958380D02*
X91963188Y-76863142D01*
X91963188Y-76863142D02*
X91963188Y-76696476D01*
X91963188Y-76696476D02*
X91986997Y-76601238D01*
X91986997Y-76601238D02*
X92034616Y-76553619D01*
X92034616Y-76553619D02*
X92082235Y-76529809D01*
X76071429Y-101724809D02*
X76071429Y-101224809D01*
X76071429Y-101224809D02*
X76238096Y-101581952D01*
X76238096Y-101581952D02*
X76404762Y-101224809D01*
X76404762Y-101224809D02*
X76404762Y-101724809D01*
X76928572Y-101677190D02*
X76904763Y-101701000D01*
X76904763Y-101701000D02*
X76833334Y-101724809D01*
X76833334Y-101724809D02*
X76785715Y-101724809D01*
X76785715Y-101724809D02*
X76714287Y-101701000D01*
X76714287Y-101701000D02*
X76666668Y-101653380D01*
X76666668Y-101653380D02*
X76642858Y-101605761D01*
X76642858Y-101605761D02*
X76619049Y-101510523D01*
X76619049Y-101510523D02*
X76619049Y-101439095D01*
X76619049Y-101439095D02*
X76642858Y-101343857D01*
X76642858Y-101343857D02*
X76666668Y-101296238D01*
X76666668Y-101296238D02*
X76714287Y-101248619D01*
X76714287Y-101248619D02*
X76785715Y-101224809D01*
X76785715Y-101224809D02*
X76833334Y-101224809D01*
X76833334Y-101224809D02*
X76904763Y-101248619D01*
X76904763Y-101248619D02*
X76928572Y-101272428D01*
X77142858Y-101224809D02*
X77142858Y-101629571D01*
X77142858Y-101629571D02*
X77166668Y-101677190D01*
X77166668Y-101677190D02*
X77190477Y-101701000D01*
X77190477Y-101701000D02*
X77238096Y-101724809D01*
X77238096Y-101724809D02*
X77333334Y-101724809D01*
X77333334Y-101724809D02*
X77380953Y-101701000D01*
X77380953Y-101701000D02*
X77404763Y-101677190D01*
X77404763Y-101677190D02*
X77428572Y-101629571D01*
X77428572Y-101629571D02*
X77428572Y-101224809D01*
X77547621Y-101772428D02*
X77928573Y-101772428D01*
X78023811Y-101701000D02*
X78095239Y-101724809D01*
X78095239Y-101724809D02*
X78214287Y-101724809D01*
X78214287Y-101724809D02*
X78261906Y-101701000D01*
X78261906Y-101701000D02*
X78285715Y-101677190D01*
X78285715Y-101677190D02*
X78309525Y-101629571D01*
X78309525Y-101629571D02*
X78309525Y-101581952D01*
X78309525Y-101581952D02*
X78285715Y-101534333D01*
X78285715Y-101534333D02*
X78261906Y-101510523D01*
X78261906Y-101510523D02*
X78214287Y-101486714D01*
X78214287Y-101486714D02*
X78119049Y-101462904D01*
X78119049Y-101462904D02*
X78071430Y-101439095D01*
X78071430Y-101439095D02*
X78047620Y-101415285D01*
X78047620Y-101415285D02*
X78023811Y-101367666D01*
X78023811Y-101367666D02*
X78023811Y-101320047D01*
X78023811Y-101320047D02*
X78047620Y-101272428D01*
X78047620Y-101272428D02*
X78071430Y-101248619D01*
X78071430Y-101248619D02*
X78119049Y-101224809D01*
X78119049Y-101224809D02*
X78238096Y-101224809D01*
X78238096Y-101224809D02*
X78309525Y-101248619D01*
X78452382Y-101224809D02*
X78738096Y-101224809D01*
X78595239Y-101724809D02*
X78595239Y-101224809D01*
X78880953Y-101581952D02*
X79119048Y-101581952D01*
X78833334Y-101724809D02*
X79000000Y-101224809D01*
X79000000Y-101224809D02*
X79166667Y-101724809D01*
X79261905Y-101224809D02*
X79547619Y-101224809D01*
X79404762Y-101724809D02*
X79404762Y-101224809D01*
X79714285Y-101462904D02*
X79880952Y-101462904D01*
X79952380Y-101724809D02*
X79714285Y-101724809D01*
X79714285Y-101724809D02*
X79714285Y-101224809D01*
X79714285Y-101224809D02*
X79952380Y-101224809D01*
X90201283Y-100419809D02*
X90201283Y-99919809D01*
X90201283Y-99919809D02*
X90320331Y-99919809D01*
X90320331Y-99919809D02*
X90391759Y-99943619D01*
X90391759Y-99943619D02*
X90439378Y-99991238D01*
X90439378Y-99991238D02*
X90463188Y-100038857D01*
X90463188Y-100038857D02*
X90486997Y-100134095D01*
X90486997Y-100134095D02*
X90486997Y-100205523D01*
X90486997Y-100205523D02*
X90463188Y-100300761D01*
X90463188Y-100300761D02*
X90439378Y-100348380D01*
X90439378Y-100348380D02*
X90391759Y-100396000D01*
X90391759Y-100396000D02*
X90320331Y-100419809D01*
X90320331Y-100419809D02*
X90201283Y-100419809D01*
X90963188Y-99943619D02*
X90915569Y-99919809D01*
X90915569Y-99919809D02*
X90844140Y-99919809D01*
X90844140Y-99919809D02*
X90772712Y-99943619D01*
X90772712Y-99943619D02*
X90725093Y-99991238D01*
X90725093Y-99991238D02*
X90701283Y-100038857D01*
X90701283Y-100038857D02*
X90677474Y-100134095D01*
X90677474Y-100134095D02*
X90677474Y-100205523D01*
X90677474Y-100205523D02*
X90701283Y-100300761D01*
X90701283Y-100300761D02*
X90725093Y-100348380D01*
X90725093Y-100348380D02*
X90772712Y-100396000D01*
X90772712Y-100396000D02*
X90844140Y-100419809D01*
X90844140Y-100419809D02*
X90891759Y-100419809D01*
X90891759Y-100419809D02*
X90963188Y-100396000D01*
X90963188Y-100396000D02*
X90986997Y-100372190D01*
X90986997Y-100372190D02*
X90986997Y-100205523D01*
X90986997Y-100205523D02*
X90891759Y-100205523D01*
X91201283Y-100419809D02*
X91201283Y-99919809D01*
X91201283Y-99919809D02*
X91486997Y-100419809D01*
X91486997Y-100419809D02*
X91486997Y-99919809D01*
X91725093Y-100419809D02*
X91725093Y-99919809D01*
X91725093Y-99919809D02*
X91844141Y-99919809D01*
X91844141Y-99919809D02*
X91915569Y-99943619D01*
X91915569Y-99943619D02*
X91963188Y-99991238D01*
X91963188Y-99991238D02*
X91986998Y-100038857D01*
X91986998Y-100038857D02*
X92010807Y-100134095D01*
X92010807Y-100134095D02*
X92010807Y-100205523D01*
X92010807Y-100205523D02*
X91986998Y-100300761D01*
X91986998Y-100300761D02*
X91963188Y-100348380D01*
X91963188Y-100348380D02*
X91915569Y-100396000D01*
X91915569Y-100396000D02*
X91844141Y-100419809D01*
X91844141Y-100419809D02*
X91725093Y-100419809D01*
X90201283Y-101224809D02*
X90201283Y-100724809D01*
X90201283Y-100724809D02*
X90367950Y-101081952D01*
X90367950Y-101081952D02*
X90534616Y-100724809D01*
X90534616Y-100724809D02*
X90534616Y-101224809D01*
X91058426Y-101177190D02*
X91034617Y-101201000D01*
X91034617Y-101201000D02*
X90963188Y-101224809D01*
X90963188Y-101224809D02*
X90915569Y-101224809D01*
X90915569Y-101224809D02*
X90844141Y-101201000D01*
X90844141Y-101201000D02*
X90796522Y-101153380D01*
X90796522Y-101153380D02*
X90772712Y-101105761D01*
X90772712Y-101105761D02*
X90748903Y-101010523D01*
X90748903Y-101010523D02*
X90748903Y-100939095D01*
X90748903Y-100939095D02*
X90772712Y-100843857D01*
X90772712Y-100843857D02*
X90796522Y-100796238D01*
X90796522Y-100796238D02*
X90844141Y-100748619D01*
X90844141Y-100748619D02*
X90915569Y-100724809D01*
X90915569Y-100724809D02*
X90963188Y-100724809D01*
X90963188Y-100724809D02*
X91034617Y-100748619D01*
X91034617Y-100748619D02*
X91058426Y-100772428D01*
X91272712Y-100724809D02*
X91272712Y-101129571D01*
X91272712Y-101129571D02*
X91296522Y-101177190D01*
X91296522Y-101177190D02*
X91320331Y-101201000D01*
X91320331Y-101201000D02*
X91367950Y-101224809D01*
X91367950Y-101224809D02*
X91463188Y-101224809D01*
X91463188Y-101224809D02*
X91510807Y-101201000D01*
X91510807Y-101201000D02*
X91534617Y-101177190D01*
X91534617Y-101177190D02*
X91558426Y-101129571D01*
X91558426Y-101129571D02*
X91558426Y-100724809D01*
X91677475Y-101272428D02*
X92058427Y-101272428D01*
X92463188Y-101224809D02*
X92296522Y-100986714D01*
X92177474Y-101224809D02*
X92177474Y-100724809D01*
X92177474Y-100724809D02*
X92367950Y-100724809D01*
X92367950Y-100724809D02*
X92415569Y-100748619D01*
X92415569Y-100748619D02*
X92439379Y-100772428D01*
X92439379Y-100772428D02*
X92463188Y-100820047D01*
X92463188Y-100820047D02*
X92463188Y-100891476D01*
X92463188Y-100891476D02*
X92439379Y-100939095D01*
X92439379Y-100939095D02*
X92415569Y-100962904D01*
X92415569Y-100962904D02*
X92367950Y-100986714D01*
X92367950Y-100986714D02*
X92177474Y-100986714D01*
X92629855Y-100724809D02*
X92963188Y-101224809D01*
X92963188Y-100724809D02*
X92629855Y-101224809D01*
X93153664Y-101224809D02*
X93153664Y-100724809D01*
X93153664Y-100724809D02*
X93272712Y-100724809D01*
X93272712Y-100724809D02*
X93344140Y-100748619D01*
X93344140Y-100748619D02*
X93391759Y-100796238D01*
X93391759Y-100796238D02*
X93415569Y-100843857D01*
X93415569Y-100843857D02*
X93439378Y-100939095D01*
X93439378Y-100939095D02*
X93439378Y-101010523D01*
X93439378Y-101010523D02*
X93415569Y-101105761D01*
X93415569Y-101105761D02*
X93391759Y-101153380D01*
X93391759Y-101153380D02*
X93344140Y-101201000D01*
X93344140Y-101201000D02*
X93272712Y-101224809D01*
X93272712Y-101224809D02*
X93153664Y-101224809D01*
X90201283Y-102029809D02*
X90201283Y-101529809D01*
X90201283Y-101529809D02*
X90367950Y-101886952D01*
X90367950Y-101886952D02*
X90534616Y-101529809D01*
X90534616Y-101529809D02*
X90534616Y-102029809D01*
X91058426Y-101982190D02*
X91034617Y-102006000D01*
X91034617Y-102006000D02*
X90963188Y-102029809D01*
X90963188Y-102029809D02*
X90915569Y-102029809D01*
X90915569Y-102029809D02*
X90844141Y-102006000D01*
X90844141Y-102006000D02*
X90796522Y-101958380D01*
X90796522Y-101958380D02*
X90772712Y-101910761D01*
X90772712Y-101910761D02*
X90748903Y-101815523D01*
X90748903Y-101815523D02*
X90748903Y-101744095D01*
X90748903Y-101744095D02*
X90772712Y-101648857D01*
X90772712Y-101648857D02*
X90796522Y-101601238D01*
X90796522Y-101601238D02*
X90844141Y-101553619D01*
X90844141Y-101553619D02*
X90915569Y-101529809D01*
X90915569Y-101529809D02*
X90963188Y-101529809D01*
X90963188Y-101529809D02*
X91034617Y-101553619D01*
X91034617Y-101553619D02*
X91058426Y-101577428D01*
X91272712Y-101529809D02*
X91272712Y-101934571D01*
X91272712Y-101934571D02*
X91296522Y-101982190D01*
X91296522Y-101982190D02*
X91320331Y-102006000D01*
X91320331Y-102006000D02*
X91367950Y-102029809D01*
X91367950Y-102029809D02*
X91463188Y-102029809D01*
X91463188Y-102029809D02*
X91510807Y-102006000D01*
X91510807Y-102006000D02*
X91534617Y-101982190D01*
X91534617Y-101982190D02*
X91558426Y-101934571D01*
X91558426Y-101934571D02*
X91558426Y-101529809D01*
X91677475Y-102077428D02*
X92058427Y-102077428D01*
X92106046Y-101529809D02*
X92391760Y-101529809D01*
X92248903Y-102029809D02*
X92248903Y-101529809D01*
X92510807Y-101529809D02*
X92844140Y-102029809D01*
X92844140Y-101529809D02*
X92510807Y-102029809D01*
X93034616Y-102029809D02*
X93034616Y-101529809D01*
X93034616Y-101529809D02*
X93153664Y-101529809D01*
X93153664Y-101529809D02*
X93225092Y-101553619D01*
X93225092Y-101553619D02*
X93272711Y-101601238D01*
X93272711Y-101601238D02*
X93296521Y-101648857D01*
X93296521Y-101648857D02*
X93320330Y-101744095D01*
X93320330Y-101744095D02*
X93320330Y-101815523D01*
X93320330Y-101815523D02*
X93296521Y-101910761D01*
X93296521Y-101910761D02*
X93272711Y-101958380D01*
X93272711Y-101958380D02*
X93225092Y-102006000D01*
X93225092Y-102006000D02*
X93153664Y-102029809D01*
X93153664Y-102029809D02*
X93034616Y-102029809D01*
X76452381Y-77224809D02*
X76452381Y-76724809D01*
X76452381Y-76724809D02*
X76619048Y-77081952D01*
X76619048Y-77081952D02*
X76785714Y-76724809D01*
X76785714Y-76724809D02*
X76785714Y-77224809D01*
X77309524Y-77177190D02*
X77285715Y-77201000D01*
X77285715Y-77201000D02*
X77214286Y-77224809D01*
X77214286Y-77224809D02*
X77166667Y-77224809D01*
X77166667Y-77224809D02*
X77095239Y-77201000D01*
X77095239Y-77201000D02*
X77047620Y-77153380D01*
X77047620Y-77153380D02*
X77023810Y-77105761D01*
X77023810Y-77105761D02*
X77000001Y-77010523D01*
X77000001Y-77010523D02*
X77000001Y-76939095D01*
X77000001Y-76939095D02*
X77023810Y-76843857D01*
X77023810Y-76843857D02*
X77047620Y-76796238D01*
X77047620Y-76796238D02*
X77095239Y-76748619D01*
X77095239Y-76748619D02*
X77166667Y-76724809D01*
X77166667Y-76724809D02*
X77214286Y-76724809D01*
X77214286Y-76724809D02*
X77285715Y-76748619D01*
X77285715Y-76748619D02*
X77309524Y-76772428D01*
X77523810Y-76724809D02*
X77523810Y-77129571D01*
X77523810Y-77129571D02*
X77547620Y-77177190D01*
X77547620Y-77177190D02*
X77571429Y-77201000D01*
X77571429Y-77201000D02*
X77619048Y-77224809D01*
X77619048Y-77224809D02*
X77714286Y-77224809D01*
X77714286Y-77224809D02*
X77761905Y-77201000D01*
X77761905Y-77201000D02*
X77785715Y-77177190D01*
X77785715Y-77177190D02*
X77809524Y-77129571D01*
X77809524Y-77129571D02*
X77809524Y-76724809D01*
X77928573Y-77272428D02*
X78309525Y-77272428D01*
X78357144Y-76724809D02*
X78642858Y-76724809D01*
X78500001Y-77224809D02*
X78500001Y-76724809D01*
X78761905Y-76724809D02*
X79095238Y-77224809D01*
X79095238Y-76724809D02*
X78761905Y-77224809D01*
X79285714Y-77224809D02*
X79285714Y-76724809D01*
X79285714Y-76724809D02*
X79404762Y-76724809D01*
X79404762Y-76724809D02*
X79476190Y-76748619D01*
X79476190Y-76748619D02*
X79523809Y-76796238D01*
X79523809Y-76796238D02*
X79547619Y-76843857D01*
X79547619Y-76843857D02*
X79571428Y-76939095D01*
X79571428Y-76939095D02*
X79571428Y-77010523D01*
X79571428Y-77010523D02*
X79547619Y-77105761D01*
X79547619Y-77105761D02*
X79523809Y-77153380D01*
X79523809Y-77153380D02*
X79476190Y-77201000D01*
X79476190Y-77201000D02*
X79404762Y-77224809D01*
X79404762Y-77224809D02*
X79285714Y-77224809D01*
X56085716Y-78724809D02*
X56085716Y-78224809D01*
X56085716Y-78224809D02*
X56204764Y-78224809D01*
X56204764Y-78224809D02*
X56276192Y-78248619D01*
X56276192Y-78248619D02*
X56323811Y-78296238D01*
X56323811Y-78296238D02*
X56347621Y-78343857D01*
X56347621Y-78343857D02*
X56371430Y-78439095D01*
X56371430Y-78439095D02*
X56371430Y-78510523D01*
X56371430Y-78510523D02*
X56347621Y-78605761D01*
X56347621Y-78605761D02*
X56323811Y-78653380D01*
X56323811Y-78653380D02*
X56276192Y-78701000D01*
X56276192Y-78701000D02*
X56204764Y-78724809D01*
X56204764Y-78724809D02*
X56085716Y-78724809D01*
X56847621Y-78248619D02*
X56800002Y-78224809D01*
X56800002Y-78224809D02*
X56728573Y-78224809D01*
X56728573Y-78224809D02*
X56657145Y-78248619D01*
X56657145Y-78248619D02*
X56609526Y-78296238D01*
X56609526Y-78296238D02*
X56585716Y-78343857D01*
X56585716Y-78343857D02*
X56561907Y-78439095D01*
X56561907Y-78439095D02*
X56561907Y-78510523D01*
X56561907Y-78510523D02*
X56585716Y-78605761D01*
X56585716Y-78605761D02*
X56609526Y-78653380D01*
X56609526Y-78653380D02*
X56657145Y-78701000D01*
X56657145Y-78701000D02*
X56728573Y-78724809D01*
X56728573Y-78724809D02*
X56776192Y-78724809D01*
X56776192Y-78724809D02*
X56847621Y-78701000D01*
X56847621Y-78701000D02*
X56871430Y-78677190D01*
X56871430Y-78677190D02*
X56871430Y-78510523D01*
X56871430Y-78510523D02*
X56776192Y-78510523D01*
X57085716Y-78724809D02*
X57085716Y-78224809D01*
X57085716Y-78224809D02*
X57371430Y-78724809D01*
X57371430Y-78724809D02*
X57371430Y-78224809D01*
X57609526Y-78724809D02*
X57609526Y-78224809D01*
X57609526Y-78224809D02*
X57728574Y-78224809D01*
X57728574Y-78224809D02*
X57800002Y-78248619D01*
X57800002Y-78248619D02*
X57847621Y-78296238D01*
X57847621Y-78296238D02*
X57871431Y-78343857D01*
X57871431Y-78343857D02*
X57895240Y-78439095D01*
X57895240Y-78439095D02*
X57895240Y-78510523D01*
X57895240Y-78510523D02*
X57871431Y-78605761D01*
X57871431Y-78605761D02*
X57847621Y-78653380D01*
X57847621Y-78653380D02*
X57800002Y-78701000D01*
X57800002Y-78701000D02*
X57728574Y-78724809D01*
X57728574Y-78724809D02*
X57609526Y-78724809D01*
X59180954Y-78224809D02*
X59347620Y-78724809D01*
X59347620Y-78724809D02*
X59514287Y-78224809D01*
X59966667Y-78677190D02*
X59942858Y-78701000D01*
X59942858Y-78701000D02*
X59871429Y-78724809D01*
X59871429Y-78724809D02*
X59823810Y-78724809D01*
X59823810Y-78724809D02*
X59752382Y-78701000D01*
X59752382Y-78701000D02*
X59704763Y-78653380D01*
X59704763Y-78653380D02*
X59680953Y-78605761D01*
X59680953Y-78605761D02*
X59657144Y-78510523D01*
X59657144Y-78510523D02*
X59657144Y-78439095D01*
X59657144Y-78439095D02*
X59680953Y-78343857D01*
X59680953Y-78343857D02*
X59704763Y-78296238D01*
X59704763Y-78296238D02*
X59752382Y-78248619D01*
X59752382Y-78248619D02*
X59823810Y-78224809D01*
X59823810Y-78224809D02*
X59871429Y-78224809D01*
X59871429Y-78224809D02*
X59942858Y-78248619D01*
X59942858Y-78248619D02*
X59966667Y-78272428D01*
X60466667Y-78677190D02*
X60442858Y-78701000D01*
X60442858Y-78701000D02*
X60371429Y-78724809D01*
X60371429Y-78724809D02*
X60323810Y-78724809D01*
X60323810Y-78724809D02*
X60252382Y-78701000D01*
X60252382Y-78701000D02*
X60204763Y-78653380D01*
X60204763Y-78653380D02*
X60180953Y-78605761D01*
X60180953Y-78605761D02*
X60157144Y-78510523D01*
X60157144Y-78510523D02*
X60157144Y-78439095D01*
X60157144Y-78439095D02*
X60180953Y-78343857D01*
X60180953Y-78343857D02*
X60204763Y-78296238D01*
X60204763Y-78296238D02*
X60252382Y-78248619D01*
X60252382Y-78248619D02*
X60323810Y-78224809D01*
X60323810Y-78224809D02*
X60371429Y-78224809D01*
X60371429Y-78224809D02*
X60442858Y-78248619D01*
X60442858Y-78248619D02*
X60466667Y-78272428D01*
X61800000Y-78701000D02*
X61871428Y-78724809D01*
X61871428Y-78724809D02*
X61990476Y-78724809D01*
X61990476Y-78724809D02*
X62038095Y-78701000D01*
X62038095Y-78701000D02*
X62061904Y-78677190D01*
X62061904Y-78677190D02*
X62085714Y-78629571D01*
X62085714Y-78629571D02*
X62085714Y-78581952D01*
X62085714Y-78581952D02*
X62061904Y-78534333D01*
X62061904Y-78534333D02*
X62038095Y-78510523D01*
X62038095Y-78510523D02*
X61990476Y-78486714D01*
X61990476Y-78486714D02*
X61895238Y-78462904D01*
X61895238Y-78462904D02*
X61847619Y-78439095D01*
X61847619Y-78439095D02*
X61823809Y-78415285D01*
X61823809Y-78415285D02*
X61800000Y-78367666D01*
X61800000Y-78367666D02*
X61800000Y-78320047D01*
X61800000Y-78320047D02*
X61823809Y-78272428D01*
X61823809Y-78272428D02*
X61847619Y-78248619D01*
X61847619Y-78248619D02*
X61895238Y-78224809D01*
X61895238Y-78224809D02*
X62014285Y-78224809D01*
X62014285Y-78224809D02*
X62085714Y-78248619D01*
X62585713Y-78677190D02*
X62561904Y-78701000D01*
X62561904Y-78701000D02*
X62490475Y-78724809D01*
X62490475Y-78724809D02*
X62442856Y-78724809D01*
X62442856Y-78724809D02*
X62371428Y-78701000D01*
X62371428Y-78701000D02*
X62323809Y-78653380D01*
X62323809Y-78653380D02*
X62299999Y-78605761D01*
X62299999Y-78605761D02*
X62276190Y-78510523D01*
X62276190Y-78510523D02*
X62276190Y-78439095D01*
X62276190Y-78439095D02*
X62299999Y-78343857D01*
X62299999Y-78343857D02*
X62323809Y-78296238D01*
X62323809Y-78296238D02*
X62371428Y-78248619D01*
X62371428Y-78248619D02*
X62442856Y-78224809D01*
X62442856Y-78224809D02*
X62490475Y-78224809D01*
X62490475Y-78224809D02*
X62561904Y-78248619D01*
X62561904Y-78248619D02*
X62585713Y-78272428D01*
X63038094Y-78724809D02*
X62799999Y-78724809D01*
X62799999Y-78724809D02*
X62799999Y-78224809D01*
X64323808Y-78701000D02*
X64395236Y-78724809D01*
X64395236Y-78724809D02*
X64514284Y-78724809D01*
X64514284Y-78724809D02*
X64561903Y-78701000D01*
X64561903Y-78701000D02*
X64585712Y-78677190D01*
X64585712Y-78677190D02*
X64609522Y-78629571D01*
X64609522Y-78629571D02*
X64609522Y-78581952D01*
X64609522Y-78581952D02*
X64585712Y-78534333D01*
X64585712Y-78534333D02*
X64561903Y-78510523D01*
X64561903Y-78510523D02*
X64514284Y-78486714D01*
X64514284Y-78486714D02*
X64419046Y-78462904D01*
X64419046Y-78462904D02*
X64371427Y-78439095D01*
X64371427Y-78439095D02*
X64347617Y-78415285D01*
X64347617Y-78415285D02*
X64323808Y-78367666D01*
X64323808Y-78367666D02*
X64323808Y-78320047D01*
X64323808Y-78320047D02*
X64347617Y-78272428D01*
X64347617Y-78272428D02*
X64371427Y-78248619D01*
X64371427Y-78248619D02*
X64419046Y-78224809D01*
X64419046Y-78224809D02*
X64538093Y-78224809D01*
X64538093Y-78224809D02*
X64609522Y-78248619D01*
X64823807Y-78724809D02*
X64823807Y-78224809D01*
X64823807Y-78224809D02*
X64942855Y-78224809D01*
X64942855Y-78224809D02*
X65014283Y-78248619D01*
X65014283Y-78248619D02*
X65061902Y-78296238D01*
X65061902Y-78296238D02*
X65085712Y-78343857D01*
X65085712Y-78343857D02*
X65109521Y-78439095D01*
X65109521Y-78439095D02*
X65109521Y-78510523D01*
X65109521Y-78510523D02*
X65085712Y-78605761D01*
X65085712Y-78605761D02*
X65061902Y-78653380D01*
X65061902Y-78653380D02*
X65014283Y-78701000D01*
X65014283Y-78701000D02*
X64942855Y-78724809D01*
X64942855Y-78724809D02*
X64823807Y-78724809D01*
X65299998Y-78581952D02*
X65538093Y-78581952D01*
X65252379Y-78724809D02*
X65419045Y-78224809D01*
X65419045Y-78224809D02*
X65585712Y-78724809D01*
D10*
X71571428Y-73359695D02*
X71571428Y-72559695D01*
X71571428Y-72559695D02*
X71761904Y-72559695D01*
X71761904Y-72559695D02*
X71876190Y-72597790D01*
X71876190Y-72597790D02*
X71952380Y-72673980D01*
X71952380Y-72673980D02*
X71990475Y-72750171D01*
X71990475Y-72750171D02*
X72028571Y-72902552D01*
X72028571Y-72902552D02*
X72028571Y-73016838D01*
X72028571Y-73016838D02*
X71990475Y-73169219D01*
X71990475Y-73169219D02*
X71952380Y-73245409D01*
X71952380Y-73245409D02*
X71876190Y-73321600D01*
X71876190Y-73321600D02*
X71761904Y-73359695D01*
X71761904Y-73359695D02*
X71571428Y-73359695D01*
X72638094Y-72940647D02*
X72752380Y-72978742D01*
X72752380Y-72978742D02*
X72790475Y-73016838D01*
X72790475Y-73016838D02*
X72828571Y-73093028D01*
X72828571Y-73093028D02*
X72828571Y-73207314D01*
X72828571Y-73207314D02*
X72790475Y-73283504D01*
X72790475Y-73283504D02*
X72752380Y-73321600D01*
X72752380Y-73321600D02*
X72676190Y-73359695D01*
X72676190Y-73359695D02*
X72371428Y-73359695D01*
X72371428Y-73359695D02*
X72371428Y-72559695D01*
X72371428Y-72559695D02*
X72638094Y-72559695D01*
X72638094Y-72559695D02*
X72714285Y-72597790D01*
X72714285Y-72597790D02*
X72752380Y-72635885D01*
X72752380Y-72635885D02*
X72790475Y-72712076D01*
X72790475Y-72712076D02*
X72790475Y-72788266D01*
X72790475Y-72788266D02*
X72752380Y-72864457D01*
X72752380Y-72864457D02*
X72714285Y-72902552D01*
X72714285Y-72902552D02*
X72638094Y-72940647D01*
X72638094Y-72940647D02*
X72371428Y-72940647D01*
X73209523Y-73359695D02*
X73361904Y-73359695D01*
X73361904Y-73359695D02*
X73438094Y-73321600D01*
X73438094Y-73321600D02*
X73476190Y-73283504D01*
X73476190Y-73283504D02*
X73552380Y-73169219D01*
X73552380Y-73169219D02*
X73590475Y-73016838D01*
X73590475Y-73016838D02*
X73590475Y-72712076D01*
X73590475Y-72712076D02*
X73552380Y-72635885D01*
X73552380Y-72635885D02*
X73514285Y-72597790D01*
X73514285Y-72597790D02*
X73438094Y-72559695D01*
X73438094Y-72559695D02*
X73285713Y-72559695D01*
X73285713Y-72559695D02*
X73209523Y-72597790D01*
X73209523Y-72597790D02*
X73171428Y-72635885D01*
X73171428Y-72635885D02*
X73133332Y-72712076D01*
X73133332Y-72712076D02*
X73133332Y-72902552D01*
X73133332Y-72902552D02*
X73171428Y-72978742D01*
X73171428Y-72978742D02*
X73209523Y-73016838D01*
X73209523Y-73016838D02*
X73285713Y-73054933D01*
X73285713Y-73054933D02*
X73438094Y-73054933D01*
X73438094Y-73054933D02*
X73514285Y-73016838D01*
X73514285Y-73016838D02*
X73552380Y-72978742D01*
X73552380Y-72978742D02*
X73590475Y-72902552D01*
X74809523Y-72940647D02*
X74542857Y-72940647D01*
X74542857Y-73359695D02*
X74542857Y-72559695D01*
X74542857Y-72559695D02*
X74923809Y-72559695D01*
X75533333Y-73321600D02*
X75457142Y-73359695D01*
X75457142Y-73359695D02*
X75304761Y-73359695D01*
X75304761Y-73359695D02*
X75228571Y-73321600D01*
X75228571Y-73321600D02*
X75190475Y-73245409D01*
X75190475Y-73245409D02*
X75190475Y-72940647D01*
X75190475Y-72940647D02*
X75228571Y-72864457D01*
X75228571Y-72864457D02*
X75304761Y-72826361D01*
X75304761Y-72826361D02*
X75457142Y-72826361D01*
X75457142Y-72826361D02*
X75533333Y-72864457D01*
X75533333Y-72864457D02*
X75571428Y-72940647D01*
X75571428Y-72940647D02*
X75571428Y-73016838D01*
X75571428Y-73016838D02*
X75190475Y-73093028D01*
X75914285Y-73359695D02*
X75914285Y-72826361D01*
X75914285Y-72902552D02*
X75952380Y-72864457D01*
X75952380Y-72864457D02*
X76028570Y-72826361D01*
X76028570Y-72826361D02*
X76142856Y-72826361D01*
X76142856Y-72826361D02*
X76219047Y-72864457D01*
X76219047Y-72864457D02*
X76257142Y-72940647D01*
X76257142Y-72940647D02*
X76257142Y-73359695D01*
X76257142Y-72940647D02*
X76295237Y-72864457D01*
X76295237Y-72864457D02*
X76371428Y-72826361D01*
X76371428Y-72826361D02*
X76485713Y-72826361D01*
X76485713Y-72826361D02*
X76561904Y-72864457D01*
X76561904Y-72864457D02*
X76599999Y-72940647D01*
X76599999Y-72940647D02*
X76599999Y-73359695D01*
X77323809Y-73359695D02*
X77323809Y-72940647D01*
X77323809Y-72940647D02*
X77285714Y-72864457D01*
X77285714Y-72864457D02*
X77209523Y-72826361D01*
X77209523Y-72826361D02*
X77057142Y-72826361D01*
X77057142Y-72826361D02*
X76980952Y-72864457D01*
X77323809Y-73321600D02*
X77247618Y-73359695D01*
X77247618Y-73359695D02*
X77057142Y-73359695D01*
X77057142Y-73359695D02*
X76980952Y-73321600D01*
X76980952Y-73321600D02*
X76942856Y-73245409D01*
X76942856Y-73245409D02*
X76942856Y-73169219D01*
X76942856Y-73169219D02*
X76980952Y-73093028D01*
X76980952Y-73093028D02*
X77057142Y-73054933D01*
X77057142Y-73054933D02*
X77247618Y-73054933D01*
X77247618Y-73054933D02*
X77323809Y-73016838D01*
X77819047Y-73359695D02*
X77742857Y-73321600D01*
X77742857Y-73321600D02*
X77704762Y-73245409D01*
X77704762Y-73245409D02*
X77704762Y-72559695D01*
X78428572Y-73321600D02*
X78352381Y-73359695D01*
X78352381Y-73359695D02*
X78200000Y-73359695D01*
X78200000Y-73359695D02*
X78123810Y-73321600D01*
X78123810Y-73321600D02*
X78085714Y-73245409D01*
X78085714Y-73245409D02*
X78085714Y-72940647D01*
X78085714Y-72940647D02*
X78123810Y-72864457D01*
X78123810Y-72864457D02*
X78200000Y-72826361D01*
X78200000Y-72826361D02*
X78352381Y-72826361D01*
X78352381Y-72826361D02*
X78428572Y-72864457D01*
X78428572Y-72864457D02*
X78466667Y-72940647D01*
X78466667Y-72940647D02*
X78466667Y-73016838D01*
X78466667Y-73016838D02*
X78085714Y-73093028D01*
X53822054Y-107283695D02*
X53822054Y-106483695D01*
X53822054Y-106483695D02*
X54126816Y-106483695D01*
X54126816Y-106483695D02*
X54203006Y-106521790D01*
X54203006Y-106521790D02*
X54241101Y-106559885D01*
X54241101Y-106559885D02*
X54279197Y-106636076D01*
X54279197Y-106636076D02*
X54279197Y-106750361D01*
X54279197Y-106750361D02*
X54241101Y-106826552D01*
X54241101Y-106826552D02*
X54203006Y-106864647D01*
X54203006Y-106864647D02*
X54126816Y-106902742D01*
X54126816Y-106902742D02*
X53822054Y-106902742D01*
X55041101Y-106521790D02*
X54964911Y-106483695D01*
X54964911Y-106483695D02*
X54850625Y-106483695D01*
X54850625Y-106483695D02*
X54736339Y-106521790D01*
X54736339Y-106521790D02*
X54660149Y-106597980D01*
X54660149Y-106597980D02*
X54622054Y-106674171D01*
X54622054Y-106674171D02*
X54583958Y-106826552D01*
X54583958Y-106826552D02*
X54583958Y-106940838D01*
X54583958Y-106940838D02*
X54622054Y-107093219D01*
X54622054Y-107093219D02*
X54660149Y-107169409D01*
X54660149Y-107169409D02*
X54736339Y-107245600D01*
X54736339Y-107245600D02*
X54850625Y-107283695D01*
X54850625Y-107283695D02*
X54926816Y-107283695D01*
X54926816Y-107283695D02*
X55041101Y-107245600D01*
X55041101Y-107245600D02*
X55079197Y-107207504D01*
X55079197Y-107207504D02*
X55079197Y-106940838D01*
X55079197Y-106940838D02*
X54926816Y-106940838D01*
X55422054Y-107283695D02*
X55422054Y-106483695D01*
X55422054Y-106483695D02*
X55879197Y-107283695D01*
X55879197Y-107283695D02*
X55879197Y-106483695D01*
X56260149Y-107283695D02*
X56260149Y-106483695D01*
X56260149Y-106483695D02*
X56450625Y-106483695D01*
X56450625Y-106483695D02*
X56564911Y-106521790D01*
X56564911Y-106521790D02*
X56641101Y-106597980D01*
X56641101Y-106597980D02*
X56679196Y-106674171D01*
X56679196Y-106674171D02*
X56717292Y-106826552D01*
X56717292Y-106826552D02*
X56717292Y-106940838D01*
X56717292Y-106940838D02*
X56679196Y-107093219D01*
X56679196Y-107093219D02*
X56641101Y-107169409D01*
X56641101Y-107169409D02*
X56564911Y-107245600D01*
X56564911Y-107245600D02*
X56450625Y-107283695D01*
X56450625Y-107283695D02*
X56260149Y-107283695D01*
X53822054Y-112130933D02*
X54431578Y-112130933D01*
X54126816Y-112435695D02*
X54126816Y-111826171D01*
X55231577Y-112435695D02*
X54774434Y-112435695D01*
X55003006Y-112435695D02*
X55003006Y-111635695D01*
X55003006Y-111635695D02*
X54926815Y-111749980D01*
X54926815Y-111749980D02*
X54850625Y-111826171D01*
X54850625Y-111826171D02*
X54774434Y-111864266D01*
X55536339Y-111711885D02*
X55574435Y-111673790D01*
X55574435Y-111673790D02*
X55650625Y-111635695D01*
X55650625Y-111635695D02*
X55841101Y-111635695D01*
X55841101Y-111635695D02*
X55917292Y-111673790D01*
X55917292Y-111673790D02*
X55955387Y-111711885D01*
X55955387Y-111711885D02*
X55993482Y-111788076D01*
X55993482Y-111788076D02*
X55993482Y-111864266D01*
X55993482Y-111864266D02*
X55955387Y-111978552D01*
X55955387Y-111978552D02*
X55498244Y-112435695D01*
X55498244Y-112435695D02*
X55993482Y-112435695D01*
X56222054Y-111635695D02*
X56488721Y-112435695D01*
X56488721Y-112435695D02*
X56755387Y-111635695D01*
X133773184Y-123079695D02*
X133773184Y-122279695D01*
X133773184Y-122279695D02*
X134230327Y-123079695D01*
X134230327Y-123079695D02*
X134230327Y-122279695D01*
X134420803Y-123155885D02*
X135030326Y-123155885D01*
X135220803Y-123079695D02*
X135220803Y-122279695D01*
X135220803Y-122279695D02*
X135677946Y-123079695D01*
X135677946Y-123079695D02*
X135677946Y-122279695D01*
X133811279Y-128231695D02*
X133811279Y-127431695D01*
X133811279Y-127431695D02*
X134268422Y-128231695D01*
X134268422Y-128231695D02*
X134268422Y-127431695D01*
X134458898Y-128307885D02*
X135068421Y-128307885D01*
X135258898Y-128231695D02*
X135258898Y-127431695D01*
X135258898Y-127431695D02*
X135563660Y-127431695D01*
X135563660Y-127431695D02*
X135639850Y-127469790D01*
X135639850Y-127469790D02*
X135677945Y-127507885D01*
X135677945Y-127507885D02*
X135716041Y-127584076D01*
X135716041Y-127584076D02*
X135716041Y-127698361D01*
X135716041Y-127698361D02*
X135677945Y-127774552D01*
X135677945Y-127774552D02*
X135639850Y-127812647D01*
X135639850Y-127812647D02*
X135563660Y-127850742D01*
X135563660Y-127850742D02*
X135258898Y-127850742D01*
X133887469Y-132964647D02*
X134154135Y-132964647D01*
X134268421Y-133383695D02*
X133887469Y-133383695D01*
X133887469Y-133383695D02*
X133887469Y-132583695D01*
X133887469Y-132583695D02*
X134268421Y-132583695D01*
X134420803Y-133459885D02*
X135030326Y-133459885D01*
X135220803Y-133383695D02*
X135220803Y-132583695D01*
X135220803Y-132583695D02*
X135677946Y-133383695D01*
X135677946Y-133383695D02*
X135677946Y-132583695D01*
X133925564Y-138116647D02*
X134192230Y-138116647D01*
X134306516Y-138535695D02*
X133925564Y-138535695D01*
X133925564Y-138535695D02*
X133925564Y-137735695D01*
X133925564Y-137735695D02*
X134306516Y-137735695D01*
X134458898Y-138611885D02*
X135068421Y-138611885D01*
X135258898Y-138535695D02*
X135258898Y-137735695D01*
X135258898Y-137735695D02*
X135563660Y-137735695D01*
X135563660Y-137735695D02*
X135639850Y-137773790D01*
X135639850Y-137773790D02*
X135677945Y-137811885D01*
X135677945Y-137811885D02*
X135716041Y-137888076D01*
X135716041Y-137888076D02*
X135716041Y-138002361D01*
X135716041Y-138002361D02*
X135677945Y-138078552D01*
X135677945Y-138078552D02*
X135639850Y-138116647D01*
X135639850Y-138116647D02*
X135563660Y-138154742D01*
X135563660Y-138154742D02*
X135258898Y-138154742D01*
X133773183Y-142887695D02*
X134306517Y-142887695D01*
X134306517Y-142887695D02*
X133773183Y-143687695D01*
X133773183Y-143687695D02*
X134306517Y-143687695D01*
X134420803Y-143763885D02*
X135030326Y-143763885D01*
X135220803Y-143687695D02*
X135220803Y-142887695D01*
X135220803Y-142887695D02*
X135677946Y-143687695D01*
X135677946Y-143687695D02*
X135677946Y-142887695D01*
X133811278Y-148039695D02*
X134344612Y-148039695D01*
X134344612Y-148039695D02*
X133811278Y-148839695D01*
X133811278Y-148839695D02*
X134344612Y-148839695D01*
X134458898Y-148915885D02*
X135068421Y-148915885D01*
X135258898Y-148839695D02*
X135258898Y-148039695D01*
X135258898Y-148039695D02*
X135563660Y-148039695D01*
X135563660Y-148039695D02*
X135639850Y-148077790D01*
X135639850Y-148077790D02*
X135677945Y-148115885D01*
X135677945Y-148115885D02*
X135716041Y-148192076D01*
X135716041Y-148192076D02*
X135716041Y-148306361D01*
X135716041Y-148306361D02*
X135677945Y-148382552D01*
X135677945Y-148382552D02*
X135639850Y-148420647D01*
X135639850Y-148420647D02*
X135563660Y-148458742D01*
X135563660Y-148458742D02*
X135258898Y-148458742D01*
D11*
X99657142Y-89724809D02*
X99657142Y-89224809D01*
X99657142Y-89224809D02*
X99823809Y-89581952D01*
X99823809Y-89581952D02*
X99990475Y-89224809D01*
X99990475Y-89224809D02*
X99990475Y-89724809D01*
X100323809Y-89224809D02*
X100419047Y-89224809D01*
X100419047Y-89224809D02*
X100466666Y-89248619D01*
X100466666Y-89248619D02*
X100514285Y-89296238D01*
X100514285Y-89296238D02*
X100538095Y-89391476D01*
X100538095Y-89391476D02*
X100538095Y-89558142D01*
X100538095Y-89558142D02*
X100514285Y-89653380D01*
X100514285Y-89653380D02*
X100466666Y-89701000D01*
X100466666Y-89701000D02*
X100419047Y-89724809D01*
X100419047Y-89724809D02*
X100323809Y-89724809D01*
X100323809Y-89724809D02*
X100276190Y-89701000D01*
X100276190Y-89701000D02*
X100228571Y-89653380D01*
X100228571Y-89653380D02*
X100204762Y-89558142D01*
X100204762Y-89558142D02*
X100204762Y-89391476D01*
X100204762Y-89391476D02*
X100228571Y-89296238D01*
X100228571Y-89296238D02*
X100276190Y-89248619D01*
X100276190Y-89248619D02*
X100323809Y-89224809D01*
X100752381Y-89724809D02*
X100752381Y-89224809D01*
X100752381Y-89224809D02*
X100871429Y-89224809D01*
X100871429Y-89224809D02*
X100942857Y-89248619D01*
X100942857Y-89248619D02*
X100990476Y-89296238D01*
X100990476Y-89296238D02*
X101014286Y-89343857D01*
X101014286Y-89343857D02*
X101038095Y-89439095D01*
X101038095Y-89439095D02*
X101038095Y-89510523D01*
X101038095Y-89510523D02*
X101014286Y-89605761D01*
X101014286Y-89605761D02*
X100990476Y-89653380D01*
X100990476Y-89653380D02*
X100942857Y-89701000D01*
X100942857Y-89701000D02*
X100871429Y-89724809D01*
X100871429Y-89724809D02*
X100752381Y-89724809D01*
X101252381Y-89462904D02*
X101419048Y-89462904D01*
X101490476Y-89724809D02*
X101252381Y-89724809D01*
X101252381Y-89724809D02*
X101252381Y-89224809D01*
X101252381Y-89224809D02*
X101490476Y-89224809D01*
X101680953Y-89701000D02*
X101752381Y-89724809D01*
X101752381Y-89724809D02*
X101871429Y-89724809D01*
X101871429Y-89724809D02*
X101919048Y-89701000D01*
X101919048Y-89701000D02*
X101942857Y-89677190D01*
X101942857Y-89677190D02*
X101966667Y-89629571D01*
X101966667Y-89629571D02*
X101966667Y-89581952D01*
X101966667Y-89581952D02*
X101942857Y-89534333D01*
X101942857Y-89534333D02*
X101919048Y-89510523D01*
X101919048Y-89510523D02*
X101871429Y-89486714D01*
X101871429Y-89486714D02*
X101776191Y-89462904D01*
X101776191Y-89462904D02*
X101728572Y-89439095D01*
X101728572Y-89439095D02*
X101704762Y-89415285D01*
X101704762Y-89415285D02*
X101680953Y-89367666D01*
X101680953Y-89367666D02*
X101680953Y-89320047D01*
X101680953Y-89320047D02*
X101704762Y-89272428D01*
X101704762Y-89272428D02*
X101728572Y-89248619D01*
X101728572Y-89248619D02*
X101776191Y-89224809D01*
X101776191Y-89224809D02*
X101895238Y-89224809D01*
X101895238Y-89224809D02*
X101966667Y-89248619D01*
X90367950Y-81055404D02*
X90439378Y-81079214D01*
X90439378Y-81079214D02*
X90463188Y-81103023D01*
X90463188Y-81103023D02*
X90486997Y-81150642D01*
X90486997Y-81150642D02*
X90486997Y-81222071D01*
X90486997Y-81222071D02*
X90463188Y-81269690D01*
X90463188Y-81269690D02*
X90439378Y-81293500D01*
X90439378Y-81293500D02*
X90391759Y-81317309D01*
X90391759Y-81317309D02*
X90201283Y-81317309D01*
X90201283Y-81317309D02*
X90201283Y-80817309D01*
X90201283Y-80817309D02*
X90367950Y-80817309D01*
X90367950Y-80817309D02*
X90415569Y-80841119D01*
X90415569Y-80841119D02*
X90439378Y-80864928D01*
X90439378Y-80864928D02*
X90463188Y-80912547D01*
X90463188Y-80912547D02*
X90463188Y-80960166D01*
X90463188Y-80960166D02*
X90439378Y-81007785D01*
X90439378Y-81007785D02*
X90415569Y-81031595D01*
X90415569Y-81031595D02*
X90367950Y-81055404D01*
X90367950Y-81055404D02*
X90201283Y-81055404D01*
X90796521Y-80817309D02*
X90891759Y-80817309D01*
X90891759Y-80817309D02*
X90939378Y-80841119D01*
X90939378Y-80841119D02*
X90986997Y-80888738D01*
X90986997Y-80888738D02*
X91010807Y-80983976D01*
X91010807Y-80983976D02*
X91010807Y-81150642D01*
X91010807Y-81150642D02*
X90986997Y-81245880D01*
X90986997Y-81245880D02*
X90939378Y-81293500D01*
X90939378Y-81293500D02*
X90891759Y-81317309D01*
X90891759Y-81317309D02*
X90796521Y-81317309D01*
X90796521Y-81317309D02*
X90748902Y-81293500D01*
X90748902Y-81293500D02*
X90701283Y-81245880D01*
X90701283Y-81245880D02*
X90677474Y-81150642D01*
X90677474Y-81150642D02*
X90677474Y-80983976D01*
X90677474Y-80983976D02*
X90701283Y-80888738D01*
X90701283Y-80888738D02*
X90748902Y-80841119D01*
X90748902Y-80841119D02*
X90796521Y-80817309D01*
X91320331Y-80817309D02*
X91415569Y-80817309D01*
X91415569Y-80817309D02*
X91463188Y-80841119D01*
X91463188Y-80841119D02*
X91510807Y-80888738D01*
X91510807Y-80888738D02*
X91534617Y-80983976D01*
X91534617Y-80983976D02*
X91534617Y-81150642D01*
X91534617Y-81150642D02*
X91510807Y-81245880D01*
X91510807Y-81245880D02*
X91463188Y-81293500D01*
X91463188Y-81293500D02*
X91415569Y-81317309D01*
X91415569Y-81317309D02*
X91320331Y-81317309D01*
X91320331Y-81317309D02*
X91272712Y-81293500D01*
X91272712Y-81293500D02*
X91225093Y-81245880D01*
X91225093Y-81245880D02*
X91201284Y-81150642D01*
X91201284Y-81150642D02*
X91201284Y-80983976D01*
X91201284Y-80983976D02*
X91225093Y-80888738D01*
X91225093Y-80888738D02*
X91272712Y-80841119D01*
X91272712Y-80841119D02*
X91320331Y-80817309D01*
X91677475Y-80817309D02*
X91963189Y-80817309D01*
X91820332Y-81317309D02*
X91820332Y-80817309D01*
X92225093Y-80817309D02*
X92272712Y-80817309D01*
X92272712Y-80817309D02*
X92320331Y-80841119D01*
X92320331Y-80841119D02*
X92344141Y-80864928D01*
X92344141Y-80864928D02*
X92367950Y-80912547D01*
X92367950Y-80912547D02*
X92391760Y-81007785D01*
X92391760Y-81007785D02*
X92391760Y-81126833D01*
X92391760Y-81126833D02*
X92367950Y-81222071D01*
X92367950Y-81222071D02*
X92344141Y-81269690D01*
X92344141Y-81269690D02*
X92320331Y-81293500D01*
X92320331Y-81293500D02*
X92272712Y-81317309D01*
X92272712Y-81317309D02*
X92225093Y-81317309D01*
X92225093Y-81317309D02*
X92177474Y-81293500D01*
X92177474Y-81293500D02*
X92153665Y-81269690D01*
X92153665Y-81269690D02*
X92129855Y-81222071D01*
X92129855Y-81222071D02*
X92106046Y-81126833D01*
X92106046Y-81126833D02*
X92106046Y-81007785D01*
X92106046Y-81007785D02*
X92129855Y-80912547D01*
X92129855Y-80912547D02*
X92153665Y-80864928D01*
X92153665Y-80864928D02*
X92177474Y-80841119D01*
X92177474Y-80841119D02*
X92225093Y-80817309D01*
X90367950Y-83470404D02*
X90439378Y-83494214D01*
X90439378Y-83494214D02*
X90463188Y-83518023D01*
X90463188Y-83518023D02*
X90486997Y-83565642D01*
X90486997Y-83565642D02*
X90486997Y-83637071D01*
X90486997Y-83637071D02*
X90463188Y-83684690D01*
X90463188Y-83684690D02*
X90439378Y-83708500D01*
X90439378Y-83708500D02*
X90391759Y-83732309D01*
X90391759Y-83732309D02*
X90201283Y-83732309D01*
X90201283Y-83732309D02*
X90201283Y-83232309D01*
X90201283Y-83232309D02*
X90367950Y-83232309D01*
X90367950Y-83232309D02*
X90415569Y-83256119D01*
X90415569Y-83256119D02*
X90439378Y-83279928D01*
X90439378Y-83279928D02*
X90463188Y-83327547D01*
X90463188Y-83327547D02*
X90463188Y-83375166D01*
X90463188Y-83375166D02*
X90439378Y-83422785D01*
X90439378Y-83422785D02*
X90415569Y-83446595D01*
X90415569Y-83446595D02*
X90367950Y-83470404D01*
X90367950Y-83470404D02*
X90201283Y-83470404D01*
X90796521Y-83232309D02*
X90891759Y-83232309D01*
X90891759Y-83232309D02*
X90939378Y-83256119D01*
X90939378Y-83256119D02*
X90986997Y-83303738D01*
X90986997Y-83303738D02*
X91010807Y-83398976D01*
X91010807Y-83398976D02*
X91010807Y-83565642D01*
X91010807Y-83565642D02*
X90986997Y-83660880D01*
X90986997Y-83660880D02*
X90939378Y-83708500D01*
X90939378Y-83708500D02*
X90891759Y-83732309D01*
X90891759Y-83732309D02*
X90796521Y-83732309D01*
X90796521Y-83732309D02*
X90748902Y-83708500D01*
X90748902Y-83708500D02*
X90701283Y-83660880D01*
X90701283Y-83660880D02*
X90677474Y-83565642D01*
X90677474Y-83565642D02*
X90677474Y-83398976D01*
X90677474Y-83398976D02*
X90701283Y-83303738D01*
X90701283Y-83303738D02*
X90748902Y-83256119D01*
X90748902Y-83256119D02*
X90796521Y-83232309D01*
X91320331Y-83232309D02*
X91415569Y-83232309D01*
X91415569Y-83232309D02*
X91463188Y-83256119D01*
X91463188Y-83256119D02*
X91510807Y-83303738D01*
X91510807Y-83303738D02*
X91534617Y-83398976D01*
X91534617Y-83398976D02*
X91534617Y-83565642D01*
X91534617Y-83565642D02*
X91510807Y-83660880D01*
X91510807Y-83660880D02*
X91463188Y-83708500D01*
X91463188Y-83708500D02*
X91415569Y-83732309D01*
X91415569Y-83732309D02*
X91320331Y-83732309D01*
X91320331Y-83732309D02*
X91272712Y-83708500D01*
X91272712Y-83708500D02*
X91225093Y-83660880D01*
X91225093Y-83660880D02*
X91201284Y-83565642D01*
X91201284Y-83565642D02*
X91201284Y-83398976D01*
X91201284Y-83398976D02*
X91225093Y-83303738D01*
X91225093Y-83303738D02*
X91272712Y-83256119D01*
X91272712Y-83256119D02*
X91320331Y-83232309D01*
X91677475Y-83232309D02*
X91963189Y-83232309D01*
X91820332Y-83732309D02*
X91820332Y-83232309D01*
X92391760Y-83732309D02*
X92106046Y-83732309D01*
X92248903Y-83732309D02*
X92248903Y-83232309D01*
X92248903Y-83232309D02*
X92201284Y-83303738D01*
X92201284Y-83303738D02*
X92153665Y-83351357D01*
X92153665Y-83351357D02*
X92106046Y-83375166D01*
D10*
X134116040Y-102129790D02*
X134039850Y-102091695D01*
X134039850Y-102091695D02*
X133925564Y-102091695D01*
X133925564Y-102091695D02*
X133811278Y-102129790D01*
X133811278Y-102129790D02*
X133735088Y-102205980D01*
X133735088Y-102205980D02*
X133696993Y-102282171D01*
X133696993Y-102282171D02*
X133658897Y-102434552D01*
X133658897Y-102434552D02*
X133658897Y-102548838D01*
X133658897Y-102548838D02*
X133696993Y-102701219D01*
X133696993Y-102701219D02*
X133735088Y-102777409D01*
X133735088Y-102777409D02*
X133811278Y-102853600D01*
X133811278Y-102853600D02*
X133925564Y-102891695D01*
X133925564Y-102891695D02*
X134001755Y-102891695D01*
X134001755Y-102891695D02*
X134116040Y-102853600D01*
X134116040Y-102853600D02*
X134154136Y-102815504D01*
X134154136Y-102815504D02*
X134154136Y-102548838D01*
X134154136Y-102548838D02*
X134001755Y-102548838D01*
X134496993Y-102891695D02*
X134496993Y-102091695D01*
X134496993Y-102091695D02*
X134801755Y-102091695D01*
X134801755Y-102091695D02*
X134877945Y-102129790D01*
X134877945Y-102129790D02*
X134916040Y-102167885D01*
X134916040Y-102167885D02*
X134954136Y-102244076D01*
X134954136Y-102244076D02*
X134954136Y-102358361D01*
X134954136Y-102358361D02*
X134916040Y-102434552D01*
X134916040Y-102434552D02*
X134877945Y-102472647D01*
X134877945Y-102472647D02*
X134801755Y-102510742D01*
X134801755Y-102510742D02*
X134496993Y-102510742D01*
X135258897Y-102853600D02*
X135373183Y-102891695D01*
X135373183Y-102891695D02*
X135563659Y-102891695D01*
X135563659Y-102891695D02*
X135639850Y-102853600D01*
X135639850Y-102853600D02*
X135677945Y-102815504D01*
X135677945Y-102815504D02*
X135716040Y-102739314D01*
X135716040Y-102739314D02*
X135716040Y-102663123D01*
X135716040Y-102663123D02*
X135677945Y-102586933D01*
X135677945Y-102586933D02*
X135639850Y-102548838D01*
X135639850Y-102548838D02*
X135563659Y-102510742D01*
X135563659Y-102510742D02*
X135411278Y-102472647D01*
X135411278Y-102472647D02*
X135335088Y-102434552D01*
X135335088Y-102434552D02*
X135296993Y-102396457D01*
X135296993Y-102396457D02*
X135258897Y-102320266D01*
X135258897Y-102320266D02*
X135258897Y-102244076D01*
X135258897Y-102244076D02*
X135296993Y-102167885D01*
X135296993Y-102167885D02*
X135335088Y-102129790D01*
X135335088Y-102129790D02*
X135411278Y-102091695D01*
X135411278Y-102091695D02*
X135601755Y-102091695D01*
X135601755Y-102091695D02*
X135716040Y-102129790D01*
D11*
X76392857Y-80224809D02*
X76392857Y-79724809D01*
X76392857Y-79724809D02*
X76559524Y-80081952D01*
X76559524Y-80081952D02*
X76726190Y-79724809D01*
X76726190Y-79724809D02*
X76726190Y-80224809D01*
X77250000Y-80177190D02*
X77226191Y-80201000D01*
X77226191Y-80201000D02*
X77154762Y-80224809D01*
X77154762Y-80224809D02*
X77107143Y-80224809D01*
X77107143Y-80224809D02*
X77035715Y-80201000D01*
X77035715Y-80201000D02*
X76988096Y-80153380D01*
X76988096Y-80153380D02*
X76964286Y-80105761D01*
X76964286Y-80105761D02*
X76940477Y-80010523D01*
X76940477Y-80010523D02*
X76940477Y-79939095D01*
X76940477Y-79939095D02*
X76964286Y-79843857D01*
X76964286Y-79843857D02*
X76988096Y-79796238D01*
X76988096Y-79796238D02*
X77035715Y-79748619D01*
X77035715Y-79748619D02*
X77107143Y-79724809D01*
X77107143Y-79724809D02*
X77154762Y-79724809D01*
X77154762Y-79724809D02*
X77226191Y-79748619D01*
X77226191Y-79748619D02*
X77250000Y-79772428D01*
X77464286Y-79724809D02*
X77464286Y-80129571D01*
X77464286Y-80129571D02*
X77488096Y-80177190D01*
X77488096Y-80177190D02*
X77511905Y-80201000D01*
X77511905Y-80201000D02*
X77559524Y-80224809D01*
X77559524Y-80224809D02*
X77654762Y-80224809D01*
X77654762Y-80224809D02*
X77702381Y-80201000D01*
X77702381Y-80201000D02*
X77726191Y-80177190D01*
X77726191Y-80177190D02*
X77750000Y-80129571D01*
X77750000Y-80129571D02*
X77750000Y-79724809D01*
X77869049Y-80272428D02*
X78250001Y-80272428D01*
X78654762Y-80224809D02*
X78488096Y-79986714D01*
X78369048Y-80224809D02*
X78369048Y-79724809D01*
X78369048Y-79724809D02*
X78559524Y-79724809D01*
X78559524Y-79724809D02*
X78607143Y-79748619D01*
X78607143Y-79748619D02*
X78630953Y-79772428D01*
X78630953Y-79772428D02*
X78654762Y-79820047D01*
X78654762Y-79820047D02*
X78654762Y-79891476D01*
X78654762Y-79891476D02*
X78630953Y-79939095D01*
X78630953Y-79939095D02*
X78607143Y-79962904D01*
X78607143Y-79962904D02*
X78559524Y-79986714D01*
X78559524Y-79986714D02*
X78369048Y-79986714D01*
X78821429Y-79724809D02*
X79154762Y-80224809D01*
X79154762Y-79724809D02*
X78821429Y-80224809D01*
X79345238Y-80224809D02*
X79345238Y-79724809D01*
X79345238Y-79724809D02*
X79464286Y-79724809D01*
X79464286Y-79724809D02*
X79535714Y-79748619D01*
X79535714Y-79748619D02*
X79583333Y-79796238D01*
X79583333Y-79796238D02*
X79607143Y-79843857D01*
X79607143Y-79843857D02*
X79630952Y-79939095D01*
X79630952Y-79939095D02*
X79630952Y-80010523D01*
X79630952Y-80010523D02*
X79607143Y-80105761D01*
X79607143Y-80105761D02*
X79583333Y-80153380D01*
X79583333Y-80153380D02*
X79535714Y-80201000D01*
X79535714Y-80201000D02*
X79464286Y-80224809D01*
X79464286Y-80224809D02*
X79345238Y-80224809D01*
D12*
%TO.C,C68*%
X104740000Y-121195563D02*
X105804437Y-122260000D01*
X109260000Y-122260000D02*
X109260000Y-121060000D01*
X109260000Y-117740000D02*
X109260000Y-118940000D01*
X105804437Y-122260000D02*
X109260000Y-122260000D01*
X104740000Y-118804437D02*
X104740000Y-118940000D01*
X105804437Y-117740000D02*
X109260000Y-117740000D01*
X104250000Y-118190000D02*
X104250000Y-118690000D01*
X104740000Y-121195563D02*
X104740000Y-121060000D01*
X104000000Y-118440000D02*
X104500000Y-118440000D01*
X104740000Y-118804437D02*
X105804437Y-117740000D01*
%TO.C,J7*%
X84270000Y-81730000D02*
X81670000Y-81730000D01*
X89410000Y-84330000D02*
X89410000Y-79130000D01*
X81670000Y-79130000D02*
X89410000Y-79130000D01*
X81670000Y-84330000D02*
X81670000Y-83000000D01*
X84270000Y-84330000D02*
X89410000Y-84330000D01*
X84270000Y-84330000D02*
X84270000Y-81730000D01*
X83000000Y-84330000D02*
X81670000Y-84330000D01*
X81670000Y-81730000D02*
X81670000Y-79130000D01*
%TO.C,C24*%
X48590000Y-150345563D02*
X48590000Y-144590000D01*
X50152500Y-152437500D02*
X50152500Y-151650000D01*
X54345563Y-151410000D02*
X53060000Y-151410000D01*
X54345563Y-151410000D02*
X55410000Y-150345563D01*
X49654437Y-151410000D02*
X48590000Y-150345563D01*
X55410000Y-144590000D02*
X53060000Y-144590000D01*
X49758750Y-152043750D02*
X50546250Y-152043750D01*
X49654437Y-151410000D02*
X50940000Y-151410000D01*
X55410000Y-150345563D02*
X55410000Y-144590000D01*
X48590000Y-144590000D02*
X50940000Y-144590000D01*
%TO.C,C56*%
X113490000Y-146859420D02*
X113490000Y-147140580D01*
X114510000Y-146859420D02*
X114510000Y-147140580D01*
%TO.C,R48*%
X118237258Y-132477500D02*
X117762742Y-132477500D01*
X118237258Y-133522500D02*
X117762742Y-133522500D01*
%TO.C,C26*%
X76154437Y-124590000D02*
X81910000Y-124590000D01*
X74062500Y-126152500D02*
X74850000Y-126152500D01*
X75090000Y-130345563D02*
X75090000Y-129060000D01*
X75090000Y-130345563D02*
X76154437Y-131410000D01*
X75090000Y-125654437D02*
X76154437Y-124590000D01*
X81910000Y-131410000D02*
X81910000Y-129060000D01*
X74456250Y-125758750D02*
X74456250Y-126546250D01*
X75090000Y-125654437D02*
X75090000Y-126940000D01*
X76154437Y-131410000D02*
X81910000Y-131410000D01*
X81910000Y-124590000D02*
X81910000Y-126940000D01*
%TO.C,C37*%
X87154437Y-124590000D02*
X92910000Y-124590000D01*
X85062500Y-126152500D02*
X85850000Y-126152500D01*
X86090000Y-130345563D02*
X86090000Y-129060000D01*
X86090000Y-130345563D02*
X87154437Y-131410000D01*
X86090000Y-125654437D02*
X87154437Y-124590000D01*
X92910000Y-131410000D02*
X92910000Y-129060000D01*
X85456250Y-125758750D02*
X85456250Y-126546250D01*
X86090000Y-125654437D02*
X86090000Y-126940000D01*
X87154437Y-131410000D02*
X92910000Y-131410000D01*
X92910000Y-124590000D02*
X92910000Y-126940000D01*
%TO.C,SW3*%
X102705000Y-94190000D02*
X101435000Y-94190000D01*
X100165000Y-97810000D02*
X100165000Y-94190000D01*
X102395000Y-97810000D02*
X102395000Y-96603333D01*
X99495000Y-97810000D02*
X99495000Y-96603333D01*
X104180000Y-99410000D02*
X104180000Y-92590000D01*
X97420000Y-99410000D02*
X98730000Y-99410000D01*
X100330000Y-92590000D02*
X101270000Y-92590000D01*
X99975000Y-97810000D02*
X99975000Y-96603333D01*
X101795000Y-97810000D02*
X101795000Y-96603333D01*
X98895000Y-97810000D02*
X100165000Y-97810000D01*
X102705000Y-97810000D02*
X102705000Y-94190000D01*
X100330000Y-99410000D02*
X101270000Y-99410000D01*
X102275000Y-97810000D02*
X102275000Y-96603333D01*
X97180000Y-99650000D02*
X97180000Y-98267000D01*
X99375000Y-97810000D02*
X99375000Y-96603333D01*
X99735000Y-97810000D02*
X99735000Y-96603333D01*
X99855000Y-97810000D02*
X99855000Y-96603333D01*
X97420000Y-92590000D02*
X98730000Y-92590000D01*
X98895000Y-96603333D02*
X100165000Y-96603333D01*
X99015000Y-97810000D02*
X99015000Y-96603333D01*
X101675000Y-97810000D02*
X101675000Y-96603333D01*
X99255000Y-97810000D02*
X99255000Y-96603333D01*
X100165000Y-94190000D02*
X98895000Y-94190000D01*
X101435000Y-96603333D02*
X102705000Y-96603333D01*
X102870000Y-99410000D02*
X104180000Y-99410000D01*
X98895000Y-94190000D02*
X98895000Y-97810000D01*
X102635000Y-97810000D02*
X102635000Y-96603333D01*
X99615000Y-97810000D02*
X99615000Y-96603333D01*
X101435000Y-97810000D02*
X102705000Y-97810000D01*
X102155000Y-97810000D02*
X102155000Y-96603333D01*
X102870000Y-92590000D02*
X104180000Y-92590000D01*
X101435000Y-94190000D02*
X101435000Y-97810000D01*
X100095000Y-97810000D02*
X100095000Y-96603333D01*
X101555000Y-97810000D02*
X101555000Y-96603333D01*
X102035000Y-97810000D02*
X102035000Y-96603333D01*
X102515000Y-97810000D02*
X102515000Y-96603333D01*
X101915000Y-97810000D02*
X101915000Y-96603333D01*
X97180000Y-99650000D02*
X98563000Y-99650000D01*
X97420000Y-99410000D02*
X97420000Y-92590000D01*
X99135000Y-97810000D02*
X99135000Y-96603333D01*
%TO.C,G\u002A\u002A\u002A*%
G36*
X90075436Y-156029541D02*
G01*
X90144943Y-156035413D01*
X90203138Y-156044922D01*
X90323746Y-156079050D01*
X90437533Y-156126496D01*
X90543552Y-156186408D01*
X90640854Y-156257932D01*
X90728493Y-156340214D01*
X90805519Y-156432401D01*
X90870986Y-156533639D01*
X90923945Y-156643076D01*
X90951381Y-156718733D01*
X90968689Y-156777546D01*
X90981094Y-156831136D01*
X90989257Y-156884254D01*
X90993843Y-156941651D01*
X90995513Y-157008079D01*
X90995528Y-157035158D01*
X90994908Y-157087851D01*
X90993255Y-157129546D01*
X90990115Y-157164864D01*
X90985030Y-157198422D01*
X90977543Y-157234840D01*
X90974461Y-157248304D01*
X90938728Y-157368279D01*
X90889441Y-157481049D01*
X90827300Y-157585808D01*
X90753005Y-157681755D01*
X90667257Y-157768084D01*
X90570756Y-157843992D01*
X90464202Y-157908676D01*
X90355962Y-157958342D01*
X90323948Y-157970103D01*
X90301989Y-157975372D01*
X90286086Y-157974481D01*
X90272236Y-157967763D01*
X90269088Y-157965551D01*
X90264315Y-157961120D01*
X90260578Y-157954359D01*
X90257693Y-157943338D01*
X90255473Y-157926127D01*
X90253732Y-157900796D01*
X90252284Y-157865415D01*
X90250943Y-157818055D01*
X90249691Y-157764366D01*
X90248267Y-157704271D01*
X90246855Y-157657541D01*
X90245236Y-157621918D01*
X90243193Y-157595144D01*
X90240506Y-157574959D01*
X90236957Y-157559105D01*
X90232327Y-157545323D01*
X90227349Y-157533482D01*
X90215477Y-157509363D01*
X90204183Y-157490642D01*
X90198375Y-157483694D01*
X90188288Y-157471344D01*
X90193027Y-157463633D01*
X90212406Y-157460849D01*
X90212904Y-157460846D01*
X90246193Y-157457325D01*
X90288304Y-157448004D01*
X90334230Y-157434362D01*
X90378964Y-157417877D01*
X90415747Y-157400955D01*
X90481209Y-157359411D01*
X90534566Y-157309614D01*
X90576178Y-157250885D01*
X90606404Y-157182544D01*
X90625605Y-157103913D01*
X90634142Y-157014312D01*
X90634665Y-156988281D01*
X90632494Y-156923316D01*
X90624269Y-156868748D01*
X90608664Y-156820079D01*
X90584354Y-156772813D01*
X90560542Y-156736881D01*
X90547229Y-156717095D01*
X90541545Y-156702310D01*
X90542205Y-156685544D01*
X90547034Y-156663518D01*
X90552304Y-156625214D01*
X90552947Y-156578959D01*
X90549318Y-156531408D01*
X90541776Y-156489218D01*
X90536798Y-156472624D01*
X90525514Y-156441372D01*
X90483474Y-156442267D01*
X90436105Y-156449534D01*
X90379832Y-156469472D01*
X90314814Y-156502021D01*
X90297952Y-156511688D01*
X90250361Y-156539580D01*
X90185731Y-156525738D01*
X90136641Y-156518121D01*
X90077020Y-156513354D01*
X90011703Y-156511435D01*
X89945522Y-156512364D01*
X89883311Y-156516140D01*
X89829903Y-156522763D01*
X89814037Y-156525785D01*
X89749175Y-156539674D01*
X89702784Y-156511493D01*
X89666112Y-156491547D01*
X89625068Y-156472965D01*
X89583549Y-156457150D01*
X89545447Y-156445501D01*
X89514659Y-156439421D01*
X89501356Y-156439025D01*
X89483089Y-156442478D01*
X89472171Y-156451826D01*
X89463349Y-156471672D01*
X89463009Y-156472624D01*
X89453753Y-156510165D01*
X89448249Y-156556234D01*
X89446850Y-156604103D01*
X89449911Y-156647049D01*
X89452966Y-156663518D01*
X89458158Y-156687835D01*
X89458142Y-156704008D01*
X89451632Y-156719017D01*
X89439458Y-156736881D01*
X89404200Y-156794427D01*
X89380311Y-156853623D01*
X89367086Y-156917501D01*
X89363822Y-156989093D01*
X89367299Y-157047697D01*
X89381352Y-157135540D01*
X89406066Y-157212172D01*
X89441762Y-157278100D01*
X89488763Y-157333830D01*
X89547391Y-157379866D01*
X89595665Y-157406665D01*
X89647929Y-157428285D01*
X89702730Y-157445173D01*
X89727042Y-157450625D01*
X89758309Y-157456665D01*
X89784236Y-157461833D01*
X89800551Y-157465274D01*
X89803175Y-157465904D01*
X89806979Y-157471857D01*
X89799884Y-157485947D01*
X89793863Y-157494241D01*
X89779746Y-157517979D01*
X89767433Y-157547264D01*
X89764121Y-157558027D01*
X89754644Y-157582699D01*
X89739830Y-157600036D01*
X89716959Y-157611560D01*
X89683310Y-157618798D01*
X89649322Y-157622332D01*
X89605431Y-157621731D01*
X89566859Y-157611599D01*
X89531034Y-157590506D01*
X89495383Y-157557025D01*
X89464953Y-157519957D01*
X89422222Y-157470978D01*
X89379815Y-157437278D01*
X89337908Y-157418969D01*
X89301696Y-157415670D01*
X89277871Y-157420143D01*
X89268698Y-157429309D01*
X89274018Y-157443811D01*
X89290333Y-157461287D01*
X89325072Y-157493765D01*
X89350716Y-157519895D01*
X89370189Y-157543316D01*
X89386414Y-157567668D01*
X89402315Y-157596589D01*
X89407972Y-157607721D01*
X89433882Y-157653773D01*
X89461039Y-157688688D01*
X89492021Y-157713860D01*
X89529403Y-157730685D01*
X89575762Y-157740558D01*
X89633674Y-157744876D01*
X89662089Y-157745368D01*
X89749985Y-157745839D01*
X89749985Y-157849068D01*
X89749837Y-157891155D01*
X89749115Y-157920406D01*
X89747398Y-157939610D01*
X89744267Y-157951556D01*
X89739303Y-157959035D01*
X89732620Y-157964460D01*
X89715777Y-157973163D01*
X89697043Y-157974952D01*
X89672444Y-157969534D01*
X89640603Y-157957682D01*
X89533021Y-157907825D01*
X89437534Y-157850736D01*
X89351661Y-157784822D01*
X89306426Y-157743047D01*
X89220119Y-157647765D01*
X89147773Y-157545547D01*
X89089459Y-157436516D01*
X89045246Y-157320795D01*
X89025539Y-157248304D01*
X89017158Y-157209924D01*
X89011329Y-157175931D01*
X89007596Y-157141706D01*
X89005502Y-157102631D01*
X89004591Y-157054087D01*
X89004472Y-157035158D01*
X89005254Y-156964309D01*
X89008712Y-156904204D01*
X89015509Y-156850092D01*
X89026308Y-156797220D01*
X89041772Y-156740837D01*
X89048619Y-156718733D01*
X89092878Y-156604393D01*
X89150266Y-156497693D01*
X89219834Y-156399485D01*
X89300633Y-156310624D01*
X89391718Y-156231962D01*
X89492139Y-156164353D01*
X89600949Y-156108651D01*
X89717200Y-156065710D01*
X89796863Y-156044922D01*
X89856461Y-156035246D01*
X89926132Y-156029458D01*
X90000811Y-156027556D01*
X90075436Y-156029541D01*
G37*
%TO.C,C72*%
X100140580Y-131990000D02*
X99859420Y-131990000D01*
X100140580Y-133010000D02*
X99859420Y-133010000D01*
%TO.C,U2*%
X72700000Y-116300000D02*
X47300000Y-116300000D01*
X47300000Y-116300000D02*
X47300000Y-141700000D01*
X47300000Y-141700000D02*
X72700000Y-141700000D01*
X72700000Y-141700000D02*
X72700000Y-116300000D01*
%TO.C,G\u002A\u002A\u002A*%
G36*
X89943895Y-149413126D02*
G01*
X90026256Y-149449741D01*
X90093336Y-149510826D01*
X90133460Y-149571632D01*
X90164669Y-149629623D01*
X90164669Y-152043493D01*
X90164669Y-154457363D01*
X90133460Y-154515354D01*
X90105795Y-154559502D01*
X90075533Y-154597677D01*
X90068023Y-154605272D01*
X90002755Y-154648888D01*
X89921736Y-154677440D01*
X89835367Y-154688379D01*
X89760028Y-154680676D01*
X89671301Y-154645916D01*
X89599108Y-154587591D01*
X89568654Y-154549277D01*
X89526770Y-154488838D01*
X89526770Y-152042358D01*
X89526770Y-149595878D01*
X89570359Y-149533013D01*
X89633570Y-149466281D01*
X89713851Y-149422058D01*
X89808495Y-149401650D01*
X89845246Y-149400382D01*
X89943895Y-149413126D01*
G37*
G36*
X98024403Y-152851747D02*
G01*
X98121475Y-152876765D01*
X98150087Y-152888452D01*
X98238948Y-152941096D01*
X98320874Y-153011713D01*
X98387414Y-153092265D01*
X98416185Y-153141503D01*
X98443559Y-153219290D01*
X98459900Y-153311578D01*
X98463995Y-153405964D01*
X98454631Y-153490045D01*
X98451513Y-153502794D01*
X98412510Y-153595201D01*
X98349713Y-153681234D01*
X98268294Y-153755849D01*
X98173426Y-153814003D01*
X98104266Y-153841449D01*
X97992971Y-153864921D01*
X97877885Y-153869115D01*
X97766314Y-153854852D01*
X97665561Y-153822952D01*
X97596441Y-153784423D01*
X97566152Y-153764410D01*
X97546825Y-153754466D01*
X97545393Y-153754223D01*
X97542181Y-153767823D01*
X97539511Y-153805034D01*
X97537629Y-153860473D01*
X97536782Y-153928758D01*
X97536758Y-153942694D01*
X97536758Y-154131164D01*
X97620120Y-154131982D01*
X97709111Y-154139935D01*
X97773203Y-154161661D01*
X97812118Y-154196949D01*
X97825576Y-154245589D01*
X97820649Y-154283829D01*
X97809831Y-154312960D01*
X97791453Y-154334937D01*
X97761744Y-154350790D01*
X97716932Y-154361553D01*
X97653243Y-154368257D01*
X97566907Y-154371934D01*
X97493923Y-154373226D01*
X97409384Y-154373443D01*
X97331414Y-154372195D01*
X97266215Y-154369689D01*
X97219987Y-154366133D01*
X97203660Y-154363514D01*
X97148539Y-154338815D01*
X97115325Y-154301674D01*
X97103449Y-154257969D01*
X97112345Y-154213578D01*
X97141446Y-154174382D01*
X97190183Y-154146259D01*
X97225458Y-154137595D01*
X97290297Y-154127872D01*
X97290297Y-153616734D01*
X97290297Y-153334523D01*
X97539512Y-153334523D01*
X97545059Y-153424251D01*
X97575745Y-153499564D01*
X97631604Y-153560508D01*
X97712666Y-153607128D01*
X97733793Y-153615433D01*
X97801492Y-153631041D01*
X97882581Y-153636451D01*
X97963354Y-153631573D01*
X98027317Y-153617329D01*
X98111488Y-153575042D01*
X98174763Y-153517059D01*
X98215384Y-153447168D01*
X98231593Y-153369157D01*
X98221631Y-153286811D01*
X98203143Y-153238501D01*
X98154082Y-153169247D01*
X98084041Y-153118094D01*
X97995577Y-153086211D01*
X97891249Y-153074771D01*
X97848007Y-153076025D01*
X97743702Y-153093197D01*
X97659464Y-153129424D01*
X97596480Y-153183712D01*
X97555939Y-153255065D01*
X97539512Y-153334523D01*
X97290297Y-153334523D01*
X97290297Y-153105597D01*
X97222005Y-153097900D01*
X97162015Y-153080446D01*
X97120976Y-153047000D01*
X97101454Y-153002737D01*
X97106013Y-152952829D01*
X97129508Y-152911338D01*
X97142528Y-152897304D01*
X97158476Y-152887542D01*
X97182699Y-152881095D01*
X97220539Y-152877002D01*
X97277341Y-152874306D01*
X97346974Y-152872335D01*
X97536758Y-152867558D01*
X97536758Y-152920190D01*
X97536758Y-152972822D01*
X97585984Y-152935276D01*
X97627776Y-152909297D01*
X97682738Y-152882540D01*
X97720088Y-152867694D01*
X97812533Y-152846672D01*
X97917697Y-152841536D01*
X98024403Y-152851747D01*
G37*
G36*
X91930604Y-150076046D02*
G01*
X92011380Y-150108836D01*
X92076304Y-150164831D01*
X92110602Y-150213541D01*
X92150856Y-150282020D01*
X92150856Y-152044630D01*
X92150856Y-153807239D01*
X92107234Y-153877797D01*
X92050373Y-153943628D01*
X91975787Y-153991562D01*
X91890242Y-154019222D01*
X91800507Y-154024231D01*
X91730119Y-154010289D01*
X91653706Y-153977502D01*
X91596959Y-153932920D01*
X91552231Y-153871773D01*
X91512957Y-153804965D01*
X91512957Y-152043493D01*
X91512957Y-150282020D01*
X91553211Y-150213541D01*
X91609044Y-150142064D01*
X91679401Y-150094497D01*
X91766351Y-150069741D01*
X91831907Y-150065360D01*
X91930604Y-150076046D01*
G37*
G36*
X100783437Y-152853157D02*
G01*
X100904689Y-152888480D01*
X101013674Y-152944519D01*
X101106782Y-153018956D01*
X101180397Y-153109474D01*
X101229803Y-153210559D01*
X101251206Y-153304295D01*
X101255900Y-153407292D01*
X101244283Y-153508381D01*
X101216756Y-153596392D01*
X101215942Y-153598167D01*
X101160150Y-153689034D01*
X101083556Y-153771520D01*
X100992683Y-153840733D01*
X100894056Y-153891783D01*
X100794199Y-153919780D01*
X100785236Y-153921019D01*
X100735959Y-153927140D01*
X100692904Y-153932390D01*
X100682763Y-153933599D01*
X100649160Y-153934116D01*
X100599001Y-153931096D01*
X100554547Y-153926515D01*
X100431733Y-153897830D01*
X100318623Y-153844996D01*
X100219674Y-153771098D01*
X100139344Y-153679222D01*
X100099229Y-153611328D01*
X100075989Y-153561200D01*
X100061922Y-153519695D01*
X100054778Y-153475990D01*
X100052303Y-153419259D01*
X100052112Y-153384837D01*
X100052603Y-153360218D01*
X100280896Y-153360218D01*
X100283587Y-153435140D01*
X100307649Y-153508324D01*
X100354168Y-153576219D01*
X100424227Y-153635277D01*
X100472546Y-153662397D01*
X100513900Y-153680181D01*
X100552785Y-153690207D01*
X100599403Y-153694069D01*
X100663956Y-153693363D01*
X100669441Y-153693183D01*
X100734593Y-153689764D01*
X100780759Y-153683132D01*
X100817939Y-153670828D01*
X100856132Y-153650390D01*
X100864712Y-153645148D01*
X100914575Y-153607593D01*
X100961277Y-153561655D01*
X100979276Y-153539134D01*
X101006512Y-153494313D01*
X101019549Y-153451772D01*
X101022974Y-153396309D01*
X101022976Y-153394297D01*
X101009627Y-153304001D01*
X100971622Y-153224874D01*
X100912024Y-153159574D01*
X100833896Y-153110761D01*
X100740299Y-153081092D01*
X100652774Y-153072912D01*
X100550026Y-153083738D01*
X100462139Y-153114120D01*
X100390197Y-153160508D01*
X100335286Y-153219353D01*
X100298490Y-153287106D01*
X100280896Y-153360218D01*
X100052603Y-153360218D01*
X100053503Y-153315075D01*
X100058919Y-153263779D01*
X100070226Y-153220500D01*
X100089290Y-153174789D01*
X100089822Y-153173653D01*
X100155551Y-153066205D01*
X100241764Y-152977953D01*
X100346021Y-152910337D01*
X100465885Y-152864797D01*
X100598916Y-152842772D01*
X100653532Y-152840867D01*
X100783437Y-152853157D01*
G37*
G36*
X103569763Y-152846778D02*
G01*
X103691393Y-152871192D01*
X103798838Y-152918482D01*
X103895231Y-152989809D01*
X103937398Y-153031741D01*
X103999960Y-153110904D01*
X104043235Y-153195326D01*
X104070525Y-153292942D01*
X104082594Y-153380712D01*
X104093096Y-153492875D01*
X103604682Y-153496694D01*
X103116268Y-153500513D01*
X103159514Y-153560205D01*
X103207144Y-153610238D01*
X103266382Y-153651089D01*
X103272927Y-153654440D01*
X103305645Y-153669153D01*
X103337426Y-153678961D01*
X103375194Y-153684793D01*
X103425875Y-153687578D01*
X103496394Y-153688245D01*
X103524315Y-153688163D01*
X103621576Y-153686024D01*
X103699903Y-153679884D01*
X103769213Y-153668663D01*
X103823934Y-153655543D01*
X103899553Y-153636524D01*
X103953386Y-153626958D01*
X103991065Y-153626869D01*
X104018223Y-153636276D01*
X104040490Y-153655202D01*
X104041546Y-153656364D01*
X104074934Y-153708114D01*
X104079599Y-153756857D01*
X104055571Y-153802002D01*
X104032992Y-153822899D01*
X103999710Y-153840793D01*
X103945911Y-153861205D01*
X103879665Y-153881793D01*
X103809040Y-153900217D01*
X103742104Y-153914134D01*
X103697048Y-153920410D01*
X103609350Y-153928243D01*
X103543169Y-153932990D01*
X103491205Y-153934804D01*
X103446160Y-153933838D01*
X103400737Y-153930247D01*
X103373180Y-153927236D01*
X103255202Y-153901072D01*
X103145352Y-153852762D01*
X103048288Y-153785696D01*
X102968668Y-153703264D01*
X102911149Y-153608857D01*
X102900548Y-153583196D01*
X102881385Y-153509600D01*
X102871184Y-153422373D01*
X102870485Y-153333706D01*
X102878957Y-153263039D01*
X103133401Y-153263039D01*
X103142655Y-153274786D01*
X103168346Y-153282555D01*
X103213038Y-153287168D01*
X103279294Y-153289448D01*
X103369678Y-153290217D01*
X103473573Y-153290297D01*
X103591954Y-153289823D01*
X103683153Y-153288346D01*
X103748969Y-153285777D01*
X103791201Y-153282031D01*
X103811649Y-153277021D01*
X103814270Y-153273886D01*
X103802301Y-153236922D01*
X103770462Y-153193964D01*
X103724847Y-153151916D01*
X103680530Y-153122451D01*
X103639909Y-153101621D01*
X103603934Y-153088978D01*
X103562898Y-153082542D01*
X103507095Y-153080329D01*
X103473573Y-153080184D01*
X103380180Y-153085113D01*
X103307018Y-153101672D01*
X103246665Y-153132765D01*
X103191699Y-153181302D01*
X103178622Y-153195712D01*
X103153948Y-153224324D01*
X103138020Y-153246493D01*
X103133401Y-153263039D01*
X102878957Y-153263039D01*
X102879826Y-153255789D01*
X102885146Y-153234708D01*
X102928694Y-153136669D01*
X102996786Y-153045245D01*
X103085029Y-152965158D01*
X103189035Y-152901125D01*
X103200710Y-152895516D01*
X103256182Y-152872072D01*
X103307940Y-152857278D01*
X103367553Y-152848549D01*
X103430816Y-152844082D01*
X103569763Y-152846778D01*
G37*
G36*
X95504481Y-152744676D02*
G01*
X95501570Y-152842654D01*
X95496493Y-152915350D01*
X95487760Y-152966471D01*
X95473878Y-152999723D01*
X95453355Y-153018812D01*
X95424701Y-153027445D01*
X95389901Y-153029338D01*
X95338916Y-153020579D01*
X95303877Y-152992683D01*
X95283200Y-152943224D01*
X95275301Y-152869772D01*
X95275114Y-152853410D01*
X95275114Y-152753881D01*
X94999658Y-152753881D01*
X94724201Y-152753881D01*
X94724201Y-152920605D01*
X94724201Y-153087328D01*
X94825685Y-153087328D01*
X94927169Y-153087328D01*
X94927169Y-153035927D01*
X94938491Y-152982292D01*
X94968128Y-152942250D01*
X95009585Y-152919449D01*
X95056368Y-152917536D01*
X95100251Y-152938727D01*
X95126981Y-152973444D01*
X95145159Y-153028773D01*
X95155350Y-153107291D01*
X95158155Y-153203310D01*
X95155457Y-153305344D01*
X95147014Y-153381795D01*
X95131500Y-153435736D01*
X95107589Y-153470240D01*
X95073952Y-153488383D01*
X95032989Y-153493265D01*
X94982126Y-153480917D01*
X94946780Y-153444428D01*
X94927730Y-153384629D01*
X94927169Y-153380670D01*
X94919920Y-153326541D01*
X94822061Y-153322254D01*
X94724201Y-153317967D01*
X94724201Y-153492602D01*
X94724201Y-153667237D01*
X95021404Y-153667237D01*
X95318607Y-153667237D01*
X95319426Y-153591124D01*
X95327881Y-153505810D01*
X95350316Y-153441368D01*
X95385403Y-153399596D01*
X95431814Y-153382292D01*
X95470961Y-153385859D01*
X95501316Y-153397302D01*
X95523989Y-153416897D01*
X95540199Y-153448598D01*
X95551162Y-153496360D01*
X95558097Y-153564134D01*
X95562221Y-153655876D01*
X95562997Y-153684680D01*
X95568229Y-153899201D01*
X94983116Y-153898056D01*
X94847622Y-153897453D01*
X94722721Y-153896240D01*
X94611404Y-153894487D01*
X94516667Y-153892268D01*
X94441503Y-153889655D01*
X94388905Y-153886720D01*
X94361869Y-153883534D01*
X94360229Y-153883048D01*
X94322441Y-153855443D01*
X94296598Y-153810542D01*
X94289270Y-153769645D01*
X94302629Y-153725825D01*
X94339780Y-153692420D01*
X94396332Y-153673028D01*
X94409448Y-153671164D01*
X94477740Y-153663466D01*
X94477740Y-153210559D01*
X94477740Y-152757652D01*
X94411006Y-152750130D01*
X94353396Y-152737712D01*
X94317938Y-152713022D01*
X94298702Y-152671010D01*
X94294669Y-152651058D01*
X94294927Y-152603585D01*
X94315610Y-152565076D01*
X94344677Y-152529166D01*
X94926905Y-152525063D01*
X95509133Y-152520959D01*
X95504481Y-152744676D01*
G37*
G36*
X96730466Y-152870076D02*
G01*
X96821764Y-152871706D01*
X96888512Y-152877159D01*
X96935035Y-152887665D01*
X96965663Y-152904457D01*
X96984722Y-152928764D01*
X96991311Y-152944248D01*
X96999350Y-153000630D01*
X96980306Y-153046711D01*
X96934281Y-153082277D01*
X96923718Y-153087290D01*
X96896165Y-153103116D01*
X96854158Y-153131503D01*
X96802603Y-153168663D01*
X96746406Y-153210810D01*
X96690474Y-153254156D01*
X96639712Y-153294913D01*
X96599028Y-153329294D01*
X96573326Y-153353512D01*
X96566833Y-153362785D01*
X96577678Y-153376582D01*
X96607242Y-153403919D01*
X96650894Y-153441147D01*
X96704005Y-153484613D01*
X96761944Y-153530667D01*
X96820080Y-153575657D01*
X96873785Y-153615933D01*
X96918426Y-153647844D01*
X96949375Y-153667737D01*
X96959460Y-153672389D01*
X97009793Y-153695546D01*
X97037314Y-153736153D01*
X97043836Y-153782007D01*
X97033914Y-153836049D01*
X97013318Y-153864334D01*
X96998745Y-153875025D01*
X96979269Y-153882568D01*
X96950013Y-153887498D01*
X96906096Y-153890349D01*
X96842639Y-153891655D01*
X96761130Y-153891952D01*
X96674941Y-153891608D01*
X96612863Y-153890220D01*
X96570016Y-153887254D01*
X96541522Y-153882174D01*
X96522501Y-153874448D01*
X96508942Y-153864334D01*
X96482631Y-153822980D01*
X96477264Y-153772668D01*
X96491350Y-153722808D01*
X96523396Y-153682809D01*
X96539368Y-153672464D01*
X96548657Y-153663273D01*
X96543492Y-153649211D01*
X96520854Y-153626284D01*
X96477726Y-153590499D01*
X96476911Y-153589847D01*
X96431479Y-153554736D01*
X96401909Y-153536161D01*
X96382331Y-153531463D01*
X96366876Y-153537982D01*
X96365226Y-153539230D01*
X96340053Y-153559253D01*
X96302887Y-153589242D01*
X96280007Y-153607843D01*
X96219317Y-153657333D01*
X96261884Y-153697097D01*
X96296121Y-153744399D01*
X96305046Y-153793822D01*
X96289739Y-153839057D01*
X96251277Y-153873794D01*
X96230106Y-153883178D01*
X96199307Y-153888807D01*
X96147510Y-153893185D01*
X96082090Y-153896213D01*
X96010420Y-153897788D01*
X95939874Y-153897810D01*
X95877825Y-153896178D01*
X95831648Y-153892790D01*
X95811530Y-153888915D01*
X95765189Y-153859229D01*
X95742071Y-153812366D01*
X95739041Y-153780972D01*
X95749175Y-153728007D01*
X95776098Y-153688197D01*
X95814596Y-153668312D01*
X95826622Y-153667237D01*
X95848070Y-153657758D01*
X95886764Y-153631250D01*
X95938881Y-153590609D01*
X96000602Y-153538731D01*
X96028743Y-153514046D01*
X96201273Y-153360854D01*
X96050402Y-153231340D01*
X95993801Y-153183966D01*
X95943793Y-153144364D01*
X95905007Y-153116040D01*
X95882074Y-153102495D01*
X95879232Y-153101826D01*
X95854452Y-153093396D01*
X95822288Y-153072988D01*
X95820734Y-153071779D01*
X95789156Y-153030581D01*
X95780308Y-152980804D01*
X95794114Y-152931779D01*
X95822084Y-152898849D01*
X95840169Y-152886235D01*
X95860261Y-152877778D01*
X95887956Y-152872845D01*
X95928850Y-152870802D01*
X95988538Y-152871014D01*
X96055361Y-152872425D01*
X96134078Y-152874615D01*
X96189076Y-152877335D01*
X96225628Y-152881512D01*
X96249009Y-152888073D01*
X96264491Y-152897945D01*
X96276771Y-152911338D01*
X96300928Y-152962222D01*
X96298914Y-153017170D01*
X96276632Y-153060796D01*
X96248811Y-153096164D01*
X96314875Y-153149737D01*
X96351730Y-153178424D01*
X96379325Y-153197693D01*
X96389814Y-153202878D01*
X96404693Y-153193886D01*
X96434194Y-153171017D01*
X96463752Y-153146216D01*
X96499440Y-153114374D01*
X96516032Y-153094400D01*
X96516704Y-153079597D01*
X96504632Y-153063265D01*
X96503621Y-153062145D01*
X96481045Y-153017862D01*
X96479556Y-152966522D01*
X96498235Y-152919583D01*
X96516624Y-152899910D01*
X96535997Y-152887021D01*
X96559155Y-152878424D01*
X96592062Y-152873289D01*
X96640680Y-152870782D01*
X96710973Y-152870073D01*
X96730466Y-152870076D01*
G37*
G36*
X99348973Y-153051084D02*
G01*
X99348973Y-153667237D01*
X99522263Y-153667237D01*
X99597336Y-153668628D01*
X99662200Y-153672447D01*
X99710145Y-153678167D01*
X99731758Y-153683733D01*
X99769499Y-153714536D01*
X99787209Y-153757920D01*
X99785132Y-153805735D01*
X99763508Y-153849832D01*
X99725913Y-153880440D01*
X99702101Y-153885174D01*
X99653658Y-153889206D01*
X99584943Y-153892525D01*
X99500313Y-153895118D01*
X99404125Y-153896975D01*
X99300737Y-153898083D01*
X99194505Y-153898432D01*
X99089789Y-153898010D01*
X98990944Y-153896806D01*
X98902328Y-153894807D01*
X98828298Y-153892003D01*
X98773213Y-153888381D01*
X98741429Y-153883931D01*
X98738539Y-153883048D01*
X98696567Y-153854211D01*
X98673887Y-153810832D01*
X98672164Y-153761392D01*
X98693063Y-153714370D01*
X98703165Y-153702822D01*
X98719136Y-153688275D01*
X98736454Y-153678349D01*
X98760679Y-153672162D01*
X98797370Y-153668835D01*
X98852089Y-153667487D01*
X98927880Y-153667237D01*
X99117009Y-153667237D01*
X99117009Y-153168795D01*
X99117009Y-152670353D01*
X98977378Y-152664246D01*
X98911933Y-152660839D01*
X98868625Y-152656302D01*
X98840607Y-152648823D01*
X98821028Y-152636589D01*
X98803405Y-152618215D01*
X98774324Y-152568474D01*
X98774092Y-152519251D01*
X98799112Y-152473131D01*
X98829159Y-152434931D01*
X99089066Y-152434931D01*
X99348973Y-152434931D01*
X99348973Y-153051084D01*
G37*
G36*
X102500990Y-152852836D02*
G01*
X102549975Y-152869957D01*
X102606269Y-152900942D01*
X102656093Y-152940409D01*
X102693250Y-152982284D01*
X102711542Y-153020494D01*
X102712443Y-153029160D01*
X102699517Y-153084586D01*
X102665013Y-153129206D01*
X102635629Y-153147111D01*
X102609249Y-153155715D01*
X102584858Y-153155043D01*
X102553444Y-153143115D01*
X102508057Y-153119095D01*
X102461268Y-153095140D01*
X102421843Y-153078422D01*
X102400173Y-153072831D01*
X102366983Y-153081365D01*
X102317307Y-153104619D01*
X102257198Y-153139073D01*
X102192707Y-153181206D01*
X102129887Y-153227497D01*
X102118037Y-153236960D01*
X102023802Y-153313341D01*
X102019731Y-153490289D01*
X102015660Y-153667237D01*
X102215450Y-153667451D01*
X102316676Y-153669118D01*
X102391548Y-153673820D01*
X102439047Y-153681479D01*
X102451243Y-153685881D01*
X102488118Y-153718366D01*
X102504564Y-153762431D01*
X102501320Y-153809843D01*
X102479126Y-153852367D01*
X102438724Y-153881770D01*
X102433454Y-153883762D01*
X102405344Y-153888488D01*
X102353742Y-153892337D01*
X102283279Y-153895316D01*
X102198587Y-153897433D01*
X102104297Y-153898694D01*
X102005041Y-153899106D01*
X101905451Y-153898676D01*
X101810156Y-153897410D01*
X101723790Y-153895317D01*
X101650983Y-153892402D01*
X101596367Y-153888673D01*
X101564574Y-153884136D01*
X101559875Y-153882460D01*
X101515235Y-153845688D01*
X101496004Y-153796510D01*
X101494857Y-153776824D01*
X101501879Y-153730034D01*
X101524674Y-153697735D01*
X101566657Y-153677929D01*
X101631242Y-153668618D01*
X101682152Y-153667237D01*
X101784589Y-153667237D01*
X101784589Y-153386274D01*
X101784589Y-153105311D01*
X101698146Y-153099058D01*
X101628463Y-153088310D01*
X101583181Y-153066348D01*
X101559021Y-153030596D01*
X101552626Y-152984650D01*
X101559176Y-152939044D01*
X101582976Y-152906453D01*
X101590825Y-152899910D01*
X101609164Y-152887586D01*
X101630999Y-152879152D01*
X101661893Y-152873888D01*
X101707413Y-152871073D01*
X101773123Y-152869986D01*
X101822789Y-152869863D01*
X102016553Y-152869863D01*
X102016553Y-152942351D01*
X102017851Y-152983715D01*
X102021172Y-153009960D01*
X102023768Y-153014840D01*
X102038529Y-153007100D01*
X102069323Y-152987059D01*
X102099881Y-152965833D01*
X102210339Y-152897588D01*
X102312816Y-152856261D01*
X102409103Y-152841471D01*
X102500990Y-152852836D01*
G37*
G36*
X105342543Y-152852836D02*
G01*
X105391527Y-152869957D01*
X105447821Y-152900942D01*
X105497646Y-152940409D01*
X105534802Y-152982284D01*
X105553094Y-153020494D01*
X105553996Y-153029160D01*
X105541070Y-153084586D01*
X105506565Y-153129206D01*
X105477182Y-153147111D01*
X105450802Y-153155715D01*
X105426411Y-153155043D01*
X105394996Y-153143115D01*
X105349609Y-153119095D01*
X105302821Y-153095140D01*
X105263396Y-153078422D01*
X105241726Y-153072831D01*
X105208536Y-153081365D01*
X105158860Y-153104619D01*
X105098750Y-153139073D01*
X105034259Y-153181206D01*
X104971439Y-153227497D01*
X104959589Y-153236960D01*
X104865354Y-153313341D01*
X104861283Y-153490289D01*
X104857213Y-153667237D01*
X105057003Y-153667451D01*
X105158228Y-153669118D01*
X105233101Y-153673820D01*
X105280599Y-153681479D01*
X105292796Y-153685881D01*
X105329671Y-153718366D01*
X105346116Y-153762431D01*
X105342872Y-153809843D01*
X105320679Y-153852367D01*
X105280276Y-153881770D01*
X105275006Y-153883762D01*
X105246896Y-153888488D01*
X105195294Y-153892337D01*
X105124831Y-153895316D01*
X105040139Y-153897433D01*
X104945850Y-153898694D01*
X104846594Y-153899106D01*
X104747003Y-153898676D01*
X104651709Y-153897410D01*
X104565343Y-153895317D01*
X104492536Y-153892402D01*
X104437920Y-153888673D01*
X104406126Y-153884136D01*
X104401427Y-153882460D01*
X104356787Y-153845688D01*
X104337557Y-153796510D01*
X104336409Y-153776824D01*
X104343432Y-153730034D01*
X104366227Y-153697735D01*
X104408209Y-153677929D01*
X104472794Y-153668618D01*
X104523705Y-153667237D01*
X104626142Y-153667237D01*
X104626142Y-153386274D01*
X104626142Y-153105311D01*
X104539699Y-153099058D01*
X104470016Y-153088310D01*
X104424734Y-153066348D01*
X104400573Y-153030596D01*
X104394178Y-152984650D01*
X104400729Y-152939044D01*
X104424529Y-152906453D01*
X104432378Y-152899910D01*
X104450717Y-152887586D01*
X104472551Y-152879152D01*
X104503446Y-152873888D01*
X104548966Y-152871073D01*
X104614676Y-152869986D01*
X104664341Y-152869863D01*
X104858105Y-152869863D01*
X104858105Y-152942351D01*
X104859404Y-152983715D01*
X104862724Y-153009960D01*
X104865320Y-153014840D01*
X104880082Y-153007100D01*
X104910876Y-152987059D01*
X104941433Y-152965833D01*
X105051892Y-152897588D01*
X105154369Y-152856261D01*
X105250656Y-152841471D01*
X105342543Y-152852836D01*
G37*
G36*
X88942039Y-150401982D02*
G01*
X88961359Y-150406846D01*
X89016311Y-150433335D01*
X89072076Y-150478640D01*
X89120123Y-150534127D01*
X89151920Y-150591163D01*
X89156138Y-150603953D01*
X89158993Y-150628787D01*
X89161569Y-150680075D01*
X89163869Y-150755336D01*
X89165896Y-150852094D01*
X89167650Y-150967869D01*
X89169134Y-151100183D01*
X89170350Y-151246556D01*
X89171300Y-151404511D01*
X89171986Y-151571569D01*
X89172409Y-151745250D01*
X89172572Y-151923078D01*
X89172477Y-152102572D01*
X89172126Y-152281254D01*
X89171520Y-152456646D01*
X89170662Y-152626270D01*
X89169554Y-152787645D01*
X89168197Y-152938294D01*
X89166593Y-153075738D01*
X89164746Y-153197499D01*
X89162655Y-153301098D01*
X89160324Y-153384056D01*
X89157755Y-153443895D01*
X89154949Y-153478135D01*
X89153850Y-153483823D01*
X89124758Y-153544049D01*
X89078001Y-153602335D01*
X89021899Y-153650198D01*
X88964772Y-153679152D01*
X88961359Y-153680140D01*
X88872033Y-153694104D01*
X88780701Y-153690265D01*
X88716887Y-153674996D01*
X88642157Y-153633814D01*
X88579962Y-153570733D01*
X88546664Y-153515011D01*
X88542214Y-153504341D01*
X88538283Y-153491547D01*
X88534840Y-153474867D01*
X88531853Y-153452536D01*
X88529289Y-153422792D01*
X88527116Y-153383870D01*
X88525302Y-153334009D01*
X88523814Y-153271443D01*
X88522621Y-153194410D01*
X88521691Y-153101147D01*
X88520990Y-152989889D01*
X88520488Y-152858874D01*
X88520152Y-152706337D01*
X88519949Y-152530517D01*
X88519848Y-152329648D01*
X88519816Y-152101968D01*
X88519815Y-152043493D01*
X88519837Y-151809019D01*
X88519924Y-151601778D01*
X88520107Y-151420008D01*
X88520419Y-151261948D01*
X88520890Y-151125834D01*
X88521553Y-151009904D01*
X88522438Y-150912397D01*
X88523579Y-150831551D01*
X88525005Y-150765602D01*
X88526749Y-150712790D01*
X88528843Y-150671351D01*
X88531318Y-150639524D01*
X88534205Y-150615546D01*
X88537537Y-150597656D01*
X88541344Y-150584091D01*
X88545660Y-150573089D01*
X88546216Y-150571850D01*
X88595568Y-150496143D01*
X88663876Y-150439693D01*
X88747091Y-150404110D01*
X88841162Y-150391003D01*
X88942039Y-150401982D01*
G37*
G36*
X90901434Y-150732330D02*
G01*
X90944852Y-150736224D01*
X90976709Y-150745012D01*
X91005713Y-150760575D01*
X91021292Y-150771083D01*
X91065661Y-150808553D01*
X91105878Y-150852754D01*
X91114270Y-150864258D01*
X91150514Y-150917800D01*
X91150514Y-152043498D01*
X91150514Y-153169195D01*
X91114270Y-153222691D01*
X91055804Y-153289736D01*
X90985529Y-153332859D01*
X90898916Y-153354472D01*
X90860885Y-153357541D01*
X90802935Y-153357970D01*
X90751063Y-153354714D01*
X90718264Y-153348904D01*
X90652230Y-153315282D01*
X90590992Y-153262138D01*
X90545100Y-153198846D01*
X90512614Y-153138071D01*
X90512614Y-152043493D01*
X90512614Y-150948915D01*
X90548859Y-150884319D01*
X90583928Y-150835911D01*
X90629622Y-150789962D01*
X90648021Y-150775586D01*
X90680975Y-150754036D01*
X90710340Y-150740927D01*
X90745037Y-150734183D01*
X90793988Y-150731728D01*
X90837749Y-150731449D01*
X90901434Y-150732330D01*
G37*
G36*
X87916967Y-151397456D02*
G01*
X88000520Y-151423603D01*
X88071059Y-151473343D01*
X88089609Y-151492401D01*
X88123107Y-151537195D01*
X88149019Y-151585373D01*
X88155690Y-151603911D01*
X88160456Y-151636331D01*
X88164336Y-151692769D01*
X88167329Y-151768263D01*
X88169434Y-151857854D01*
X88170650Y-151956583D01*
X88170975Y-152059488D01*
X88170410Y-152161610D01*
X88168952Y-152257990D01*
X88166602Y-152343666D01*
X88163357Y-152413680D01*
X88159218Y-152463071D01*
X88155864Y-152482445D01*
X88125318Y-152547607D01*
X88074801Y-152608975D01*
X88012769Y-152657039D01*
X87990136Y-152668852D01*
X87912160Y-152691235D01*
X87825163Y-152695441D01*
X87741128Y-152681739D01*
X87691464Y-152662157D01*
X87619611Y-152608279D01*
X87566733Y-152533519D01*
X87534408Y-152440189D01*
X87532092Y-152428439D01*
X87526985Y-152383095D01*
X87523250Y-152312494D01*
X87520980Y-152220346D01*
X87520264Y-152110360D01*
X87521195Y-151986259D01*
X87522820Y-151875217D01*
X87524527Y-151789073D01*
X87526709Y-151723727D01*
X87529760Y-151675084D01*
X87534073Y-151639044D01*
X87540042Y-151611512D01*
X87548060Y-151588390D01*
X87558520Y-151565580D01*
X87562329Y-151557916D01*
X87613852Y-151481631D01*
X87680744Y-151429428D01*
X87764699Y-151400213D01*
X87816967Y-151393659D01*
X87916967Y-151397456D01*
G37*
G36*
X86964463Y-151733020D02*
G01*
X87006389Y-151750505D01*
X87079440Y-151802583D01*
X87132731Y-151869645D01*
X87166342Y-151946840D01*
X87180351Y-152029316D01*
X87174839Y-152112222D01*
X87149886Y-152190705D01*
X87105571Y-152259914D01*
X87041975Y-152314997D01*
X86996720Y-152338382D01*
X86897771Y-152365331D01*
X86800470Y-152365052D01*
X86762760Y-152357142D01*
X86686317Y-152329148D01*
X86629396Y-152289959D01*
X86583853Y-152234745D01*
X86546694Y-152155811D01*
X86530414Y-152068248D01*
X86534381Y-151979180D01*
X86557965Y-151895728D01*
X86600532Y-151825014D01*
X86622224Y-151802352D01*
X86696572Y-151752978D01*
X86783780Y-151724237D01*
X86875770Y-151717221D01*
X86964463Y-151733020D01*
G37*
G36*
X92942954Y-151738051D02*
G01*
X93018386Y-151775547D01*
X93081746Y-151831652D01*
X93128106Y-151905698D01*
X93138171Y-151931936D01*
X93154132Y-152021014D01*
X93146652Y-152112530D01*
X93117603Y-152198561D01*
X93068859Y-152271189D01*
X93054552Y-152285638D01*
X92986277Y-152331275D01*
X92902808Y-152359419D01*
X92813523Y-152367971D01*
X92735412Y-152357039D01*
X92647330Y-152319334D01*
X92577660Y-152260495D01*
X92534973Y-152195568D01*
X92517300Y-152152567D01*
X92508592Y-152109796D01*
X92507062Y-152055614D01*
X92508353Y-152022115D01*
X92513299Y-151960393D01*
X92522765Y-151916523D01*
X92539961Y-151879394D01*
X92557161Y-151853104D01*
X92619045Y-151787527D01*
X92693494Y-151743902D01*
X92775580Y-151721560D01*
X92860376Y-151719832D01*
X92942954Y-151738051D01*
G37*
G36*
X98293880Y-150493672D02*
G01*
X98363282Y-150499079D01*
X98411256Y-150510113D01*
X98441537Y-150528429D01*
X98457864Y-150555681D01*
X98463974Y-150593523D01*
X98464390Y-150609596D01*
X98454269Y-150661222D01*
X98421392Y-150698985D01*
X98376950Y-150721701D01*
X98364784Y-150730088D01*
X98348694Y-150748603D01*
X98327430Y-150779392D01*
X98299737Y-150824604D01*
X98264363Y-150886386D01*
X98220055Y-150966885D01*
X98165561Y-151068250D01*
X98099628Y-151192627D01*
X98075248Y-151238895D01*
X98017035Y-151349799D01*
X97963475Y-151452423D01*
X97915988Y-151544001D01*
X97875993Y-151621769D01*
X97844911Y-151682962D01*
X97824161Y-151724816D01*
X97815164Y-151744567D01*
X97814938Y-151745756D01*
X97830241Y-151751853D01*
X97863897Y-151763118D01*
X97884447Y-151769612D01*
X97938511Y-151796792D01*
X97966665Y-151836907D01*
X97969110Y-151890288D01*
X97966293Y-151903545D01*
X97957005Y-151931093D01*
X97942336Y-151952395D01*
X97918774Y-151968291D01*
X97882808Y-151979622D01*
X97830927Y-151987227D01*
X97759619Y-151991947D01*
X97665373Y-151994623D01*
X97580926Y-151995759D01*
X97488064Y-151996026D01*
X97402642Y-151995019D01*
X97329812Y-151992897D01*
X97274730Y-151989821D01*
X97242550Y-151985949D01*
X97239572Y-151985175D01*
X97192143Y-151960347D01*
X97166608Y-151919985D01*
X97159818Y-151867084D01*
X97164480Y-151827571D01*
X97180942Y-151798694D01*
X97212917Y-151778697D01*
X97264115Y-151765825D01*
X97338249Y-151758323D01*
X97395478Y-151755663D01*
X97553089Y-151750268D01*
X97612361Y-151630757D01*
X97671632Y-151511246D01*
X97470276Y-151118432D01*
X97409449Y-151000589D01*
X97359927Y-150906639D01*
X97320417Y-150834362D01*
X97289626Y-150781534D01*
X97266262Y-150745934D01*
X97249033Y-150725339D01*
X97237129Y-150717638D01*
X97190298Y-150693424D01*
X97164877Y-150649657D01*
X97159818Y-150608219D01*
X97163182Y-150566409D01*
X97175632Y-150535524D01*
X97200704Y-150514172D01*
X97241936Y-150500957D01*
X97302864Y-150494486D01*
X97387025Y-150493364D01*
X97447988Y-150494618D01*
X97533086Y-150498140D01*
X97593381Y-150504550D01*
X97633052Y-150515878D01*
X97656281Y-150534151D01*
X97667247Y-150561400D01*
X97670130Y-150599651D01*
X97670137Y-150602439D01*
X97663157Y-150649907D01*
X97638049Y-150685318D01*
X97631635Y-150691082D01*
X97597242Y-150713836D01*
X97565980Y-150724147D01*
X97564269Y-150724201D01*
X97555895Y-150727087D01*
X97553994Y-150737829D01*
X97559810Y-150759551D01*
X97574586Y-150795376D01*
X97599565Y-150848428D01*
X97635991Y-150921832D01*
X97668514Y-150986107D01*
X97709146Y-151064502D01*
X97745839Y-151132371D01*
X97776496Y-151186064D01*
X97799016Y-151221936D01*
X97811300Y-151236341D01*
X97812497Y-151236192D01*
X97822452Y-151220234D01*
X97843704Y-151182828D01*
X97873954Y-151128136D01*
X97910901Y-151060317D01*
X97952246Y-150983534D01*
X97955256Y-150977911D01*
X98087140Y-150731449D01*
X98040288Y-150719341D01*
X97984421Y-150696461D01*
X97952967Y-150661094D01*
X97942709Y-150609534D01*
X97942694Y-150607024D01*
X97949245Y-150561418D01*
X97973045Y-150528828D01*
X97980894Y-150522285D01*
X98000011Y-150509541D01*
X98022870Y-150500973D01*
X98055326Y-150495776D01*
X98103233Y-150493146D01*
X98172446Y-150492275D01*
X98199313Y-150492237D01*
X98293880Y-150493672D01*
G37*
G36*
X102206405Y-150473912D02*
G01*
X102233541Y-150478991D01*
X102319214Y-150509037D01*
X102397309Y-150558031D01*
X102459268Y-150619984D01*
X102480290Y-150651712D01*
X102492818Y-150675417D01*
X102502192Y-150698485D01*
X102508963Y-150725599D01*
X102513682Y-150761443D01*
X102516902Y-150810701D01*
X102519171Y-150878058D01*
X102521043Y-150968198D01*
X102521659Y-151003282D01*
X102526595Y-151289612D01*
X102583934Y-151289612D01*
X102642393Y-151301585D01*
X102685522Y-151333721D01*
X102709238Y-151380347D01*
X102709459Y-151435788D01*
X102703437Y-151455686D01*
X102684713Y-151482535D01*
X102650064Y-151501670D01*
X102596098Y-151513955D01*
X102519422Y-151520256D01*
X102444955Y-151521575D01*
X102372206Y-151521077D01*
X102323765Y-151519151D01*
X102294954Y-151515144D01*
X102281095Y-151508407D01*
X102277512Y-151498288D01*
X102277512Y-151498277D01*
X102268709Y-151481853D01*
X102255294Y-151483506D01*
X102125127Y-151524280D01*
X101993842Y-151548491D01*
X101870026Y-151554880D01*
X101803512Y-151549721D01*
X101700280Y-151522956D01*
X101606610Y-151474245D01*
X101553315Y-151431042D01*
X101497433Y-151359795D01*
X101469862Y-151282388D01*
X101470462Y-151212721D01*
X101716651Y-151212721D01*
X101717994Y-151249527D01*
X101746950Y-151281670D01*
X101759218Y-151289770D01*
X101808439Y-151308065D01*
X101875821Y-151317627D01*
X101951749Y-151318032D01*
X102026604Y-151308854D01*
X102052797Y-151302757D01*
X102098719Y-151287916D01*
X102155824Y-151266240D01*
X102194850Y-151249801D01*
X102278913Y-151212534D01*
X102274588Y-151145965D01*
X102270263Y-151079395D01*
X102183276Y-151067642D01*
X102063499Y-151059187D01*
X101955002Y-151066780D01*
X101861642Y-151089543D01*
X101787276Y-151126601D01*
X101742466Y-151167932D01*
X101716651Y-151212721D01*
X101470462Y-151212721D01*
X101470583Y-151198700D01*
X101499577Y-151108610D01*
X101500155Y-151107363D01*
X101553956Y-151025221D01*
X101630754Y-150956703D01*
X101727308Y-150903094D01*
X101840374Y-150865683D01*
X101966710Y-150845754D01*
X102103074Y-150844594D01*
X102151878Y-150848784D01*
X102277512Y-150862589D01*
X102277512Y-150815706D01*
X102265002Y-150763662D01*
X102227536Y-150726239D01*
X102165206Y-150703457D01*
X102078106Y-150695335D01*
X101966328Y-150701891D01*
X101829966Y-150723145D01*
X101826959Y-150723726D01*
X101758595Y-150736378D01*
X101711874Y-150742958D01*
X101680144Y-150743742D01*
X101656755Y-150739008D01*
X101639731Y-150731511D01*
X101602246Y-150703556D01*
X101584785Y-150664483D01*
X101581843Y-150625155D01*
X101587047Y-150584687D01*
X101606410Y-150557008D01*
X101646415Y-150533951D01*
X101658265Y-150528840D01*
X101751933Y-150498870D01*
X101863558Y-150477528D01*
X101983165Y-150465678D01*
X102100773Y-150464184D01*
X102206405Y-150473912D01*
G37*
G36*
X104990540Y-150469153D02*
G01*
X105112169Y-150493566D01*
X105219615Y-150540856D01*
X105316007Y-150612184D01*
X105358175Y-150654115D01*
X105420736Y-150733278D01*
X105464011Y-150817701D01*
X105491301Y-150915317D01*
X105503370Y-151003087D01*
X105513873Y-151115249D01*
X105025458Y-151119069D01*
X104537044Y-151122888D01*
X104580290Y-151182579D01*
X104627921Y-151232613D01*
X104687159Y-151273463D01*
X104693703Y-151276814D01*
X104726422Y-151291527D01*
X104758202Y-151301335D01*
X104795971Y-151307167D01*
X104846652Y-151309952D01*
X104917170Y-151310620D01*
X104945091Y-151310538D01*
X105042352Y-151308399D01*
X105120680Y-151302258D01*
X105189989Y-151291037D01*
X105244710Y-151277918D01*
X105320329Y-151258898D01*
X105374162Y-151249333D01*
X105411842Y-151249243D01*
X105438999Y-151258651D01*
X105461267Y-151277576D01*
X105462322Y-151278738D01*
X105495710Y-151330489D01*
X105500376Y-151379231D01*
X105476348Y-151424377D01*
X105453768Y-151445274D01*
X105420486Y-151463167D01*
X105366688Y-151483579D01*
X105300441Y-151504168D01*
X105229816Y-151522592D01*
X105162880Y-151536508D01*
X105117824Y-151542784D01*
X105030127Y-151550618D01*
X104963945Y-151555365D01*
X104911981Y-151557178D01*
X104866936Y-151556213D01*
X104821513Y-151552622D01*
X104793957Y-151549610D01*
X104675978Y-151523447D01*
X104566128Y-151475137D01*
X104469064Y-151408071D01*
X104389444Y-151325639D01*
X104331925Y-151231231D01*
X104321324Y-151205570D01*
X104302161Y-151131975D01*
X104291961Y-151044748D01*
X104291262Y-150956080D01*
X104299734Y-150885414D01*
X104554177Y-150885414D01*
X104563431Y-150897160D01*
X104589122Y-150904929D01*
X104633814Y-150909543D01*
X104700070Y-150911823D01*
X104790454Y-150912592D01*
X104894349Y-150912671D01*
X105012730Y-150912198D01*
X105103929Y-150910720D01*
X105169745Y-150908152D01*
X105211977Y-150904406D01*
X105232425Y-150899396D01*
X105235046Y-150896260D01*
X105223078Y-150859296D01*
X105191238Y-150816338D01*
X105145624Y-150774290D01*
X105101306Y-150744825D01*
X105060685Y-150723995D01*
X105024710Y-150711353D01*
X104983674Y-150704917D01*
X104927872Y-150702703D01*
X104894349Y-150702558D01*
X104800957Y-150707488D01*
X104727794Y-150724046D01*
X104667441Y-150755140D01*
X104612475Y-150803676D01*
X104599398Y-150818086D01*
X104574724Y-150846699D01*
X104558796Y-150868867D01*
X104554177Y-150885414D01*
X104299734Y-150885414D01*
X104300603Y-150878164D01*
X104305922Y-150857083D01*
X104349471Y-150759043D01*
X104417562Y-150667620D01*
X104505806Y-150587532D01*
X104609811Y-150523500D01*
X104621486Y-150517891D01*
X104676958Y-150494446D01*
X104728716Y-150479653D01*
X104788329Y-150470924D01*
X104851593Y-150466456D01*
X104990540Y-150469153D01*
G37*
G36*
X99685424Y-150124642D02*
G01*
X99705020Y-150135844D01*
X99716901Y-150147538D01*
X99725220Y-150165721D01*
X99730816Y-150195584D01*
X99734527Y-150242316D01*
X99737190Y-150311107D01*
X99737997Y-150340136D01*
X99738867Y-150437452D01*
X99735027Y-150509920D01*
X99725570Y-150561437D01*
X99709589Y-150595902D01*
X99686176Y-150617211D01*
X99671901Y-150623960D01*
X99616760Y-150632565D01*
X99570234Y-150613884D01*
X99533307Y-150568606D01*
X99510687Y-150511428D01*
X99478439Y-150447676D01*
X99425168Y-150398137D01*
X99355914Y-150364312D01*
X99275713Y-150347702D01*
X99189604Y-150349808D01*
X99102626Y-150372131D01*
X99078084Y-150382542D01*
X99013905Y-150422589D01*
X98973925Y-150470007D01*
X98959457Y-150521645D01*
X98971811Y-150574352D01*
X98987810Y-150599305D01*
X99016290Y-150629297D01*
X99052400Y-150653645D01*
X99101227Y-150674436D01*
X99167858Y-150693761D01*
X99257379Y-150713708D01*
X99275049Y-150717273D01*
X99394958Y-150743698D01*
X99490465Y-150770772D01*
X99566144Y-150800199D01*
X99626570Y-150833680D01*
X99664174Y-150862084D01*
X99729050Y-150935721D01*
X99771358Y-151022953D01*
X99790021Y-151117914D01*
X99783965Y-151214736D01*
X99752113Y-151307553D01*
X99747454Y-151316415D01*
X99705594Y-151379487D01*
X99652637Y-151430797D01*
X99581806Y-151476079D01*
X99526437Y-151503414D01*
X99481686Y-151521804D01*
X99438183Y-151533743D01*
X99386843Y-151540860D01*
X99318582Y-151544785D01*
X99291059Y-151545651D01*
X99201276Y-151545532D01*
X99123583Y-151540401D01*
X99066297Y-151530808D01*
X99066267Y-151530800D01*
X99010255Y-151514129D01*
X98955149Y-151494748D01*
X98937924Y-151487782D01*
X98901204Y-151473584D01*
X98877989Y-151472385D01*
X98855538Y-151484862D01*
X98845359Y-151492698D01*
X98801731Y-151517297D01*
X98761418Y-151515869D01*
X98717253Y-151488078D01*
X98715506Y-151486586D01*
X98698035Y-151470548D01*
X98686456Y-151454254D01*
X98679557Y-151431702D01*
X98676128Y-151396891D01*
X98674956Y-151343820D01*
X98674829Y-151285140D01*
X98676622Y-151197986D01*
X98683202Y-151135761D01*
X98696369Y-151094552D01*
X98717924Y-151070447D01*
X98749666Y-151059534D01*
X98779513Y-151057648D01*
X98836879Y-151065158D01*
X98874769Y-151090669D01*
X98899355Y-151138651D01*
X98901720Y-151146183D01*
X98930321Y-151203402D01*
X98979778Y-151248559D01*
X99053149Y-151284053D01*
X99094176Y-151297337D01*
X99190788Y-151315026D01*
X99287505Y-151314419D01*
X99378021Y-151296829D01*
X99456031Y-151263570D01*
X99515231Y-151215954D01*
X99521575Y-151208323D01*
X99547675Y-151159110D01*
X99545761Y-151110942D01*
X99515672Y-151060268D01*
X99514791Y-151059216D01*
X99493477Y-151037950D01*
X99465781Y-151019522D01*
X99427573Y-151002467D01*
X99374723Y-150985319D01*
X99303102Y-150966611D01*
X99208580Y-150944880D01*
X99167069Y-150935799D01*
X99094221Y-150918444D01*
X99024442Y-150899090D01*
X98967114Y-150880480D01*
X98939155Y-150869238D01*
X98869057Y-150824400D01*
X98804692Y-150762093D01*
X98755722Y-150692275D01*
X98744144Y-150668233D01*
X98728383Y-150607006D01*
X98722870Y-150531880D01*
X98727590Y-150456072D01*
X98742530Y-150392803D01*
X98744447Y-150388004D01*
X98787798Y-150315306D01*
X98852405Y-150246332D01*
X98930747Y-150188356D01*
X98975693Y-150164378D01*
X99017870Y-150145976D01*
X99054482Y-150133930D01*
X99093668Y-150126923D01*
X99143566Y-150123639D01*
X99212314Y-150122761D01*
X99232991Y-150122763D01*
X99311116Y-150123752D01*
X99367766Y-150127149D01*
X99410426Y-150133955D01*
X99446582Y-150145174D01*
X99467700Y-150154179D01*
X99535686Y-150185377D01*
X99558645Y-150150337D01*
X99591760Y-150123638D01*
X99637660Y-150114712D01*
X99685424Y-150124642D01*
G37*
G36*
X95237933Y-150488613D02*
G01*
X95306814Y-150655691D01*
X95365451Y-150797979D01*
X95414757Y-150917450D01*
X95455646Y-151016078D01*
X95489028Y-151095836D01*
X95515818Y-151158697D01*
X95536927Y-151206635D01*
X95553268Y-151241622D01*
X95565753Y-151265633D01*
X95575296Y-151280641D01*
X95582808Y-151288619D01*
X95589202Y-151291541D01*
X95595391Y-151291379D01*
X95602287Y-151290107D01*
X95608342Y-151289612D01*
X95648151Y-151298623D01*
X95686344Y-151319659D01*
X95716654Y-151360180D01*
X95724446Y-151410623D01*
X95709128Y-151461933D01*
X95696862Y-151480100D01*
X95684949Y-151493186D01*
X95670557Y-151502566D01*
X95648856Y-151508995D01*
X95615015Y-151513225D01*
X95564202Y-151516011D01*
X95491585Y-151518105D01*
X95446776Y-151519103D01*
X95337011Y-151520156D01*
X95252692Y-151517583D01*
X95190428Y-151510752D01*
X95146825Y-151499032D01*
X95118490Y-151481790D01*
X95102029Y-151458395D01*
X95100487Y-151454613D01*
X95089227Y-151393791D01*
X95103436Y-151344055D01*
X95140653Y-151308698D01*
X95198417Y-151291016D01*
X95223713Y-151289612D01*
X95264474Y-151287913D01*
X95284003Y-151278854D01*
X95285218Y-151256490D01*
X95271039Y-151214879D01*
X95266291Y-151202919D01*
X95242971Y-151144634D01*
X94962034Y-151144634D01*
X94681097Y-151144634D01*
X94659156Y-151197147D01*
X94641908Y-151243895D01*
X94641366Y-151271161D01*
X94660906Y-151285210D01*
X94703903Y-151292310D01*
X94710786Y-151292992D01*
X94770044Y-151303802D01*
X94807103Y-151325381D01*
X94828091Y-151362323D01*
X94833949Y-151385300D01*
X94834987Y-151423742D01*
X94817254Y-151458880D01*
X94806567Y-151472092D01*
X94770272Y-151514326D01*
X94540644Y-151517305D01*
X94460647Y-151517809D01*
X94389937Y-151517252D01*
X94334022Y-151515757D01*
X94298414Y-151513444D01*
X94289270Y-151511789D01*
X94242264Y-151480695D01*
X94219310Y-151433414D01*
X94216781Y-151406117D01*
X94225119Y-151349891D01*
X94252201Y-151314436D01*
X94301127Y-151296108D01*
X94311831Y-151294435D01*
X94369619Y-151286684D01*
X94525244Y-150902265D01*
X94782192Y-150902265D01*
X94795774Y-150906207D01*
X94832859Y-150909464D01*
X94887959Y-150911720D01*
X94955585Y-150912661D01*
X94963413Y-150912671D01*
X95032066Y-150912275D01*
X95088786Y-150911194D01*
X95128083Y-150909587D01*
X95144467Y-150907615D01*
X95144635Y-150907387D01*
X95139437Y-150892816D01*
X95125351Y-150856992D01*
X95104637Y-150805429D01*
X95079554Y-150743642D01*
X95052362Y-150677145D01*
X95025323Y-150611452D01*
X95000696Y-150552076D01*
X94980740Y-150504532D01*
X94967716Y-150474335D01*
X94963892Y-150466419D01*
X94957500Y-150477517D01*
X94942530Y-150510153D01*
X94921220Y-150558960D01*
X94895808Y-150618572D01*
X94868528Y-150683625D01*
X94841620Y-150748752D01*
X94817319Y-150808587D01*
X94797864Y-150857765D01*
X94785489Y-150890919D01*
X94782192Y-150902265D01*
X94525244Y-150902265D01*
X94552437Y-150835094D01*
X94735255Y-150383504D01*
X94615194Y-150376255D01*
X94537317Y-150368196D01*
X94484244Y-150353434D01*
X94452093Y-150329509D01*
X94436986Y-150293961D01*
X94434469Y-150261651D01*
X94436590Y-150226175D01*
X94444762Y-150198621D01*
X94462205Y-150178000D01*
X94492137Y-150163324D01*
X94537779Y-150153604D01*
X94602351Y-150147852D01*
X94689072Y-150145080D01*
X94801161Y-150144299D01*
X94816757Y-150144292D01*
X95095896Y-150144292D01*
X95237933Y-150488613D01*
G37*
G36*
X96505699Y-150466336D02*
G01*
X96606100Y-150480228D01*
X96688541Y-150510770D01*
X96760841Y-150561333D01*
X96789452Y-150588721D01*
X96820677Y-150625359D01*
X96844455Y-150665609D01*
X96861718Y-150713892D01*
X96873400Y-150774629D01*
X96880433Y-150852242D01*
X96883750Y-150951152D01*
X96884361Y-151038533D01*
X96884361Y-151289612D01*
X96921264Y-151289612D01*
X96962078Y-151301999D01*
X96999742Y-151332793D01*
X97024595Y-151372436D01*
X97029338Y-151396500D01*
X97024327Y-151442166D01*
X97007021Y-151475720D01*
X96974010Y-151498796D01*
X96921884Y-151513028D01*
X96847235Y-151520050D01*
X96768379Y-151521575D01*
X96673100Y-151519173D01*
X96603093Y-151510879D01*
X96554947Y-151495057D01*
X96525253Y-151470073D01*
X96510602Y-151434294D01*
X96507420Y-151396500D01*
X96519946Y-151356134D01*
X96551080Y-151318883D01*
X96591163Y-151294303D01*
X96615494Y-151289612D01*
X96652397Y-151289612D01*
X96652397Y-151056928D01*
X96651433Y-150953814D01*
X96647777Y-150875532D01*
X96640284Y-150817960D01*
X96627809Y-150776976D01*
X96609208Y-150748458D01*
X96583337Y-150728283D01*
X96557665Y-150715810D01*
X96473621Y-150695837D01*
X96384239Y-150701659D01*
X96294805Y-150732089D01*
X96210607Y-150785943D01*
X96198396Y-150796284D01*
X96144977Y-150843186D01*
X96144977Y-151066399D01*
X96144977Y-151289612D01*
X96182175Y-151289612D01*
X96228931Y-151297935D01*
X96271940Y-151318674D01*
X96293357Y-151338900D01*
X96304699Y-151377022D01*
X96302104Y-151425111D01*
X96287451Y-151468831D01*
X96273981Y-151486708D01*
X96258370Y-151497887D01*
X96236889Y-151505807D01*
X96204442Y-151511137D01*
X96155930Y-151514545D01*
X96086255Y-151516698D01*
X96038393Y-151517569D01*
X95961671Y-151517833D01*
X95893257Y-151516313D01*
X95839424Y-151513274D01*
X95806443Y-151508983D01*
X95801604Y-151507513D01*
X95764627Y-151478175D01*
X95743405Y-151433923D01*
X95739764Y-151384667D01*
X95755535Y-151340319D01*
X95768084Y-151325813D01*
X95802139Y-151305693D01*
X95846583Y-151291583D01*
X95851446Y-151290711D01*
X95905765Y-151281892D01*
X95909696Y-151004920D01*
X95913627Y-150727948D01*
X95867154Y-150718653D01*
X95810883Y-150697686D01*
X95778411Y-150661001D01*
X95768037Y-150607024D01*
X95774587Y-150561418D01*
X95798387Y-150528828D01*
X95806236Y-150522285D01*
X95827579Y-150508392D01*
X95853464Y-150499512D01*
X95890571Y-150494579D01*
X95945580Y-150492529D01*
X95994706Y-150492237D01*
X96144977Y-150492237D01*
X96144977Y-150542955D01*
X96144977Y-150593673D01*
X96213841Y-150544821D01*
X96285620Y-150500660D01*
X96354755Y-150475011D01*
X96431863Y-150465019D01*
X96505699Y-150466336D01*
G37*
G36*
X100407306Y-150324533D02*
G01*
X100407306Y-150591760D01*
X100479375Y-150543262D01*
X100551509Y-150500171D01*
X100617651Y-150475148D01*
X100689365Y-150465113D01*
X100768028Y-150466336D01*
X100867065Y-150479856D01*
X100947117Y-150509153D01*
X101015216Y-150557209D01*
X101039958Y-150581577D01*
X101072067Y-150617246D01*
X101096422Y-150650073D01*
X101114190Y-150684854D01*
X101126534Y-150726387D01*
X101134620Y-150779465D01*
X101139613Y-150848886D01*
X101142678Y-150939443D01*
X101144162Y-151010531D01*
X101149358Y-151289612D01*
X101183586Y-151289612D01*
X101241072Y-151300434D01*
X101284539Y-151329246D01*
X101309713Y-151370565D01*
X101312323Y-151418905D01*
X101303850Y-151443955D01*
X101285879Y-151473243D01*
X101261334Y-151494243D01*
X101225557Y-151508253D01*
X101173888Y-151516573D01*
X101101666Y-151520504D01*
X101026364Y-151521361D01*
X100927116Y-151519720D01*
X100853218Y-151513475D01*
X100801178Y-151501032D01*
X100767506Y-151480797D01*
X100748713Y-151451178D01*
X100741308Y-151410581D01*
X100740754Y-151390962D01*
X100753973Y-151347731D01*
X100788737Y-151312947D01*
X100837700Y-151292555D01*
X100865939Y-151289612D01*
X100914726Y-151289612D01*
X100914645Y-151075770D01*
X100913581Y-150994950D01*
X100910716Y-150919979D01*
X100906446Y-150857802D01*
X100901170Y-150815361D01*
X100899258Y-150806808D01*
X100870167Y-150750840D01*
X100819524Y-150714063D01*
X100747715Y-150696711D01*
X100714917Y-150695259D01*
X100634672Y-150703241D01*
X100561950Y-150729674D01*
X100487727Y-150778101D01*
X100471971Y-150790687D01*
X100407306Y-150843675D01*
X100407306Y-151066643D01*
X100407306Y-151289612D01*
X100442868Y-151289612D01*
X100499458Y-151300473D01*
X100541252Y-151328935D01*
X100566339Y-151368813D01*
X100572806Y-151413923D01*
X100558741Y-151458081D01*
X100522232Y-151495103D01*
X100508790Y-151502815D01*
X100479765Y-151509925D01*
X100428914Y-151515291D01*
X100363359Y-151518845D01*
X100290221Y-151520520D01*
X100216621Y-151520250D01*
X100149680Y-151517969D01*
X100096520Y-151513610D01*
X100064262Y-151507107D01*
X100063933Y-151506976D01*
X100027075Y-151478283D01*
X100005832Y-151434357D01*
X100002050Y-151385185D01*
X100017578Y-151340756D01*
X100030413Y-151325813D01*
X100064467Y-151305691D01*
X100108911Y-151291577D01*
X100113775Y-151290704D01*
X100168094Y-151281879D01*
X100171906Y-150787467D01*
X100175719Y-150293055D01*
X100105593Y-150283752D01*
X100044412Y-150271066D01*
X100006103Y-150249796D01*
X99984831Y-150215449D01*
X99977568Y-150185178D01*
X99975446Y-150143915D01*
X99989375Y-150113294D01*
X100006236Y-150094615D01*
X100023017Y-150079128D01*
X100040552Y-150068653D01*
X100064589Y-150062211D01*
X100100873Y-150058825D01*
X100155150Y-150057516D01*
X100225426Y-150057306D01*
X100407306Y-150057306D01*
X100407306Y-150324533D01*
G37*
G36*
X103295743Y-150448923D02*
G01*
X103299601Y-150840541D01*
X103389186Y-150768045D01*
X103433537Y-150731614D01*
X103458861Y-150707499D01*
X103468710Y-150689821D01*
X103466633Y-150672702D01*
X103458057Y-150654027D01*
X103446557Y-150603539D01*
X103457988Y-150554702D01*
X103489288Y-150517205D01*
X103503972Y-150508733D01*
X103533984Y-150501926D01*
X103587834Y-150496670D01*
X103660391Y-150493323D01*
X103740508Y-150492237D01*
X103821918Y-150492622D01*
X103879777Y-150494235D01*
X103919522Y-150497759D01*
X103946591Y-150503880D01*
X103966424Y-150513284D01*
X103979038Y-150522285D01*
X104009257Y-150562744D01*
X104017254Y-150613148D01*
X104002336Y-150664018D01*
X103990651Y-150681333D01*
X103966232Y-150702248D01*
X103929565Y-150714698D01*
X103878399Y-150721271D01*
X103840469Y-150725390D01*
X103809523Y-150732768D01*
X103779209Y-150746769D01*
X103743174Y-150770755D01*
X103695067Y-150808090D01*
X103658525Y-150837678D01*
X103606553Y-150880729D01*
X103564158Y-150917227D01*
X103535693Y-150943327D01*
X103525509Y-150955185D01*
X103525511Y-150955197D01*
X103536292Y-150966962D01*
X103565421Y-150994420D01*
X103609309Y-151034302D01*
X103664368Y-151083338D01*
X103713534Y-151126512D01*
X103900361Y-151289612D01*
X103981205Y-151289612D01*
X104033148Y-151292150D01*
X104067393Y-151302014D01*
X104094968Y-151322572D01*
X104097634Y-151325197D01*
X104127856Y-151372209D01*
X104132771Y-151421728D01*
X104113910Y-151466633D01*
X104072803Y-151499803D01*
X104058873Y-151505552D01*
X104022138Y-151512697D01*
X103964276Y-151517676D01*
X103893024Y-151520477D01*
X103816117Y-151521092D01*
X103741292Y-151519510D01*
X103676284Y-151515720D01*
X103628829Y-151509713D01*
X103614834Y-151506136D01*
X103572148Y-151478162D01*
X103547496Y-151435392D01*
X103545076Y-151386951D01*
X103551281Y-151368014D01*
X103563581Y-151336920D01*
X103567808Y-151319461D01*
X103557658Y-151305304D01*
X103530187Y-151276517D01*
X103489862Y-151237600D01*
X103451688Y-151202501D01*
X103396210Y-151153608D01*
X103355369Y-151122667D01*
X103326926Y-151111435D01*
X103308644Y-151121670D01*
X103298285Y-151155131D01*
X103293611Y-151213573D01*
X103292383Y-151298756D01*
X103292352Y-151327631D01*
X103292352Y-151521575D01*
X103129252Y-151521361D01*
X103044013Y-151519403D01*
X102978475Y-151514024D01*
X102936676Y-151505601D01*
X102929909Y-151502815D01*
X102887808Y-151466686D01*
X102867263Y-151416343D01*
X102869826Y-151368463D01*
X102895427Y-151324786D01*
X102943314Y-151298222D01*
X103006022Y-151289825D01*
X103060388Y-151289612D01*
X103060388Y-150791308D01*
X103060388Y-150293005D01*
X102989940Y-150283659D01*
X102927047Y-150267308D01*
X102888113Y-150236666D01*
X102870598Y-150189219D01*
X102869018Y-150163878D01*
X102872274Y-150124413D01*
X102884631Y-150095899D01*
X102909979Y-150076634D01*
X102952203Y-150064916D01*
X103015192Y-150059044D01*
X103102833Y-150057316D01*
X103112503Y-150057306D01*
X103291886Y-150057306D01*
X103295743Y-150448923D01*
G37*
%TO.C,R45*%
X117762742Y-140522500D02*
X118237258Y-140522500D01*
X117762742Y-139477500D02*
X118237258Y-139477500D01*
%TO.C,J5*%
X98975000Y-70760000D02*
X98975000Y-60280000D01*
X119750000Y-71654338D02*
X120000000Y-71221325D01*
X129945000Y-70760000D02*
X98975000Y-70760000D01*
X129945000Y-60280000D02*
X129945000Y-70760000D01*
X120000000Y-71221325D02*
X120250000Y-71654338D01*
X120250000Y-71654338D02*
X119750000Y-71654338D01*
%TO.C,J9*%
X131330000Y-145730000D02*
X131330000Y-143130000D01*
X128670000Y-145730000D02*
X128670000Y-143130000D01*
X131330000Y-145730000D02*
X128670000Y-145730000D01*
X130000000Y-148330000D02*
X128670000Y-148330000D01*
X128670000Y-148330000D02*
X128670000Y-147000000D01*
X131330000Y-143130000D02*
X128670000Y-143130000D01*
%TO.C,D12*%
X76515000Y-79235000D02*
X78800000Y-79235000D01*
X76515000Y-77765000D02*
X76515000Y-79235000D01*
X78800000Y-77765000D02*
X76515000Y-77765000D01*
%TO.C,R46*%
X117762742Y-130522500D02*
X118237258Y-130522500D01*
X117762742Y-129477500D02*
X118237258Y-129477500D01*
%TO.C,C10*%
X71740000Y-157195563D02*
X72804437Y-158260000D01*
X76260000Y-158260000D02*
X76260000Y-157060000D01*
X76260000Y-153740000D02*
X76260000Y-154940000D01*
X72804437Y-158260000D02*
X76260000Y-158260000D01*
X71740000Y-154804437D02*
X71740000Y-154940000D01*
X72804437Y-153740000D02*
X76260000Y-153740000D01*
X71250000Y-154190000D02*
X71250000Y-154690000D01*
X71740000Y-157195563D02*
X71740000Y-157060000D01*
X71000000Y-154440000D02*
X71500000Y-154440000D01*
X71740000Y-154804437D02*
X72804437Y-153740000D01*
%TO.C,R37*%
X96262742Y-137022500D02*
X96737258Y-137022500D01*
X96262742Y-135977500D02*
X96737258Y-135977500D01*
%TO.C,C61*%
X122140580Y-129490000D02*
X121859420Y-129490000D01*
X122140580Y-130510000D02*
X121859420Y-130510000D01*
%TO.C,R39*%
X118237258Y-137477500D02*
X117762742Y-137477500D01*
X118237258Y-138522500D02*
X117762742Y-138522500D01*
%TO.C,R36*%
X78237258Y-99477500D02*
X77762742Y-99477500D01*
X78237258Y-100522500D02*
X77762742Y-100522500D01*
%TO.C,J1*%
X45190000Y-114540000D02*
X52810000Y-114540000D01*
X52810000Y-104380000D02*
X45190000Y-104380000D01*
X51540000Y-104380000D02*
X51540000Y-114540000D01*
X52810000Y-114540000D02*
X52810000Y-104380000D01*
X45190000Y-104380000D02*
X45190000Y-114540000D01*
%TO.C,U7*%
X91160000Y-88390000D02*
X91610000Y-88390000D01*
X84390000Y-95610000D02*
X84390000Y-95160000D01*
X84390000Y-88390000D02*
X84390000Y-88840000D01*
X91160000Y-95610000D02*
X91610000Y-95610000D01*
X91610000Y-95610000D02*
X91610000Y-95160000D01*
X84840000Y-88390000D02*
X84390000Y-88390000D01*
X84840000Y-95610000D02*
X84390000Y-95610000D01*
X84390000Y-88840000D02*
X83100000Y-88840000D01*
X91610000Y-88390000D02*
X91610000Y-88840000D01*
%TO.C,SW5*%
X99585000Y-83810000D02*
X99585000Y-82603333D01*
X101885000Y-83810000D02*
X101885000Y-82603333D01*
X98865000Y-83810000D02*
X100135000Y-83810000D01*
X102840000Y-85410000D02*
X104150000Y-85410000D01*
X98865000Y-80190000D02*
X98865000Y-83810000D01*
X104150000Y-85410000D02*
X104150000Y-78590000D01*
X100300000Y-85410000D02*
X101240000Y-85410000D01*
X102605000Y-83810000D02*
X102605000Y-82603333D01*
X101405000Y-82603333D02*
X102675000Y-82603333D01*
X94850000Y-78590000D02*
X96160000Y-78590000D01*
X100065000Y-83810000D02*
X100065000Y-82603333D01*
X94610000Y-85650000D02*
X95993000Y-85650000D01*
X96325000Y-80190000D02*
X96325000Y-83810000D01*
X97045000Y-83810000D02*
X97045000Y-82603333D01*
X102365000Y-83810000D02*
X102365000Y-82603333D01*
X94610000Y-85650000D02*
X94610000Y-84267000D01*
X99225000Y-83810000D02*
X99225000Y-82603333D01*
X102125000Y-83810000D02*
X102125000Y-82603333D01*
X96565000Y-83810000D02*
X96565000Y-82603333D01*
X94850000Y-85410000D02*
X96160000Y-85410000D01*
X102485000Y-83810000D02*
X102485000Y-82603333D01*
X96925000Y-83810000D02*
X96925000Y-82603333D01*
X101765000Y-83810000D02*
X101765000Y-82603333D01*
X101645000Y-83810000D02*
X101645000Y-82603333D01*
X96805000Y-83810000D02*
X96805000Y-82603333D01*
X99705000Y-83810000D02*
X99705000Y-82603333D01*
X101405000Y-80190000D02*
X101405000Y-83810000D01*
X96325000Y-82603333D02*
X97595000Y-82603333D01*
X102675000Y-80190000D02*
X101405000Y-80190000D01*
X97285000Y-83810000D02*
X97285000Y-82603333D01*
X97405000Y-83810000D02*
X97405000Y-82603333D01*
X97760000Y-85410000D02*
X98700000Y-85410000D01*
X101405000Y-83810000D02*
X102675000Y-83810000D01*
X97525000Y-83810000D02*
X97525000Y-82603333D01*
X100300000Y-78590000D02*
X101240000Y-78590000D01*
X96445000Y-83810000D02*
X96445000Y-82603333D01*
X94850000Y-85410000D02*
X94850000Y-78590000D01*
X102675000Y-83810000D02*
X102675000Y-80190000D01*
X99825000Y-83810000D02*
X99825000Y-82603333D01*
X100135000Y-83810000D02*
X100135000Y-80190000D01*
X96685000Y-83810000D02*
X96685000Y-82603333D01*
X102005000Y-83810000D02*
X102005000Y-82603333D01*
X102245000Y-83810000D02*
X102245000Y-82603333D01*
X100135000Y-80190000D02*
X98865000Y-80190000D01*
X97595000Y-80190000D02*
X96325000Y-80190000D01*
X102840000Y-78590000D02*
X104150000Y-78590000D01*
X97595000Y-83810000D02*
X97595000Y-80190000D01*
X96325000Y-83810000D02*
X97595000Y-83810000D01*
X99345000Y-83810000D02*
X99345000Y-82603333D01*
X98865000Y-82603333D02*
X100135000Y-82603333D01*
X97165000Y-83810000D02*
X97165000Y-82603333D01*
X98985000Y-83810000D02*
X98985000Y-82603333D01*
X101525000Y-83810000D02*
X101525000Y-82603333D01*
X99465000Y-83810000D02*
X99465000Y-82603333D01*
X99105000Y-83810000D02*
X99105000Y-82603333D01*
X99945000Y-83810000D02*
X99945000Y-82603333D01*
X97760000Y-78590000D02*
X98700000Y-78590000D01*
%TO.C,D13*%
X79485000Y-102265000D02*
X77200000Y-102265000D01*
X79485000Y-103735000D02*
X79485000Y-102265000D01*
X77200000Y-103735000D02*
X79485000Y-103735000D01*
%TO.C,D11*%
X76515000Y-82235000D02*
X78800000Y-82235000D01*
X76515000Y-80765000D02*
X76515000Y-82235000D01*
X78800000Y-80765000D02*
X76515000Y-80765000D01*
%TO.C,J4*%
X70000000Y-71221325D02*
X70250000Y-71654338D01*
X91025000Y-60280000D02*
X91025000Y-70760000D01*
X70250000Y-71654338D02*
X69750000Y-71654338D01*
X69750000Y-71654338D02*
X70000000Y-71221325D01*
X91025000Y-70760000D02*
X60055000Y-70760000D01*
X60055000Y-70760000D02*
X60055000Y-60280000D01*
%TO.C,C64*%
X91359420Y-143010000D02*
X91640580Y-143010000D01*
X91359420Y-141990000D02*
X91640580Y-141990000D01*
%TO.C,C67*%
X113490000Y-129359420D02*
X113490000Y-129640580D01*
X114510000Y-129359420D02*
X114510000Y-129640580D01*
%TO.C,R50*%
X118237258Y-144477500D02*
X117762742Y-144477500D01*
X118237258Y-145522500D02*
X117762742Y-145522500D01*
%TO.C,J3*%
X81590000Y-74670000D02*
X81590000Y-77330000D01*
X86730000Y-74670000D02*
X81590000Y-74670000D01*
X88000000Y-74670000D02*
X89330000Y-74670000D01*
X86730000Y-77330000D02*
X81590000Y-77330000D01*
X89330000Y-74670000D02*
X89330000Y-76000000D01*
X86730000Y-74670000D02*
X86730000Y-77330000D01*
%TO.C,R47*%
X118237258Y-142477500D02*
X117762742Y-142477500D01*
X118237258Y-143522500D02*
X117762742Y-143522500D01*
%TO.C,SW2*%
X110905000Y-94190000D02*
X109635000Y-94190000D01*
X108365000Y-97810000D02*
X108365000Y-94190000D01*
X110595000Y-97810000D02*
X110595000Y-96603333D01*
X107695000Y-97810000D02*
X107695000Y-96603333D01*
X112380000Y-99410000D02*
X112380000Y-92590000D01*
X105620000Y-99410000D02*
X106930000Y-99410000D01*
X108530000Y-92590000D02*
X109470000Y-92590000D01*
X108175000Y-97810000D02*
X108175000Y-96603333D01*
X109995000Y-97810000D02*
X109995000Y-96603333D01*
X107095000Y-97810000D02*
X108365000Y-97810000D01*
X110905000Y-97810000D02*
X110905000Y-94190000D01*
X108530000Y-99410000D02*
X109470000Y-99410000D01*
X110475000Y-97810000D02*
X110475000Y-96603333D01*
X105380000Y-99650000D02*
X105380000Y-98267000D01*
X107575000Y-97810000D02*
X107575000Y-96603333D01*
X107935000Y-97810000D02*
X107935000Y-96603333D01*
X108055000Y-97810000D02*
X108055000Y-96603333D01*
X105620000Y-92590000D02*
X106930000Y-92590000D01*
X107095000Y-96603333D02*
X108365000Y-96603333D01*
X107215000Y-97810000D02*
X107215000Y-96603333D01*
X109875000Y-97810000D02*
X109875000Y-96603333D01*
X107455000Y-97810000D02*
X107455000Y-96603333D01*
X108365000Y-94190000D02*
X107095000Y-94190000D01*
X109635000Y-96603333D02*
X110905000Y-96603333D01*
X111070000Y-99410000D02*
X112380000Y-99410000D01*
X107095000Y-94190000D02*
X107095000Y-97810000D01*
X110835000Y-97810000D02*
X110835000Y-96603333D01*
X107815000Y-97810000D02*
X107815000Y-96603333D01*
X109635000Y-97810000D02*
X110905000Y-97810000D01*
X110355000Y-97810000D02*
X110355000Y-96603333D01*
X111070000Y-92590000D02*
X112380000Y-92590000D01*
X109635000Y-94190000D02*
X109635000Y-97810000D01*
X108295000Y-97810000D02*
X108295000Y-96603333D01*
X109755000Y-97810000D02*
X109755000Y-96603333D01*
X110235000Y-97810000D02*
X110235000Y-96603333D01*
X110715000Y-97810000D02*
X110715000Y-96603333D01*
X110115000Y-97810000D02*
X110115000Y-96603333D01*
X105380000Y-99650000D02*
X106763000Y-99650000D01*
X105620000Y-99410000D02*
X105620000Y-92590000D01*
X107335000Y-97810000D02*
X107335000Y-96603333D01*
%TO.C,C9*%
X64440000Y-150355563D02*
X64440000Y-144600000D01*
X66002500Y-152447500D02*
X66002500Y-151660000D01*
X70195563Y-151420000D02*
X68910000Y-151420000D01*
X70195563Y-151420000D02*
X71260000Y-150355563D01*
X65504437Y-151420000D02*
X64440000Y-150355563D01*
X71260000Y-144600000D02*
X68910000Y-144600000D01*
X65608750Y-152053750D02*
X66396250Y-152053750D01*
X65504437Y-151420000D02*
X66790000Y-151420000D01*
X71260000Y-150355563D02*
X71260000Y-144600000D01*
X64440000Y-144600000D02*
X66790000Y-144600000D01*
%TO.C,C58*%
X113490000Y-132859420D02*
X113490000Y-133140580D01*
X114510000Y-132859420D02*
X114510000Y-133140580D01*
%TO.C,C73*%
X99859420Y-135010000D02*
X100140580Y-135010000D01*
X99859420Y-133990000D02*
X100140580Y-133990000D01*
%TO.C,C69*%
X96640580Y-131990000D02*
X96359420Y-131990000D01*
X96640580Y-133010000D02*
X96359420Y-133010000D01*
%TO.C,C20*%
X68654437Y-106590000D02*
X67590000Y-107654437D01*
X72847500Y-105562500D02*
X72847500Y-106350000D01*
X74410000Y-113410000D02*
X72060000Y-113410000D01*
X73241250Y-105956250D02*
X72453750Y-105956250D01*
X73345563Y-106590000D02*
X72060000Y-106590000D01*
X74410000Y-107654437D02*
X74410000Y-113410000D01*
X67590000Y-113410000D02*
X69940000Y-113410000D01*
X67590000Y-107654437D02*
X67590000Y-113410000D01*
X73345563Y-106590000D02*
X74410000Y-107654437D01*
X68654437Y-106590000D02*
X69940000Y-106590000D01*
%TO.C,R44*%
X117762742Y-150522500D02*
X118237258Y-150522500D01*
X117762742Y-149477500D02*
X118237258Y-149477500D01*
%TO.C,C70*%
X96740000Y-127195563D02*
X97804437Y-128260000D01*
X101260000Y-128260000D02*
X101260000Y-127060000D01*
X101260000Y-123740000D02*
X101260000Y-124940000D01*
X97804437Y-128260000D02*
X101260000Y-128260000D01*
X96740000Y-124804437D02*
X96740000Y-124940000D01*
X97804437Y-123740000D02*
X101260000Y-123740000D01*
X96250000Y-124190000D02*
X96250000Y-124690000D01*
X96740000Y-127195563D02*
X96740000Y-127060000D01*
X96000000Y-124440000D02*
X96500000Y-124440000D01*
X96740000Y-124804437D02*
X97804437Y-123740000D01*
%TO.C,C25*%
X56590000Y-150345563D02*
X56590000Y-144590000D01*
X58152500Y-152437500D02*
X58152500Y-151650000D01*
X62345563Y-151410000D02*
X61060000Y-151410000D01*
X62345563Y-151410000D02*
X63410000Y-150345563D01*
X57654437Y-151410000D02*
X56590000Y-150345563D01*
X63410000Y-144590000D02*
X61060000Y-144590000D01*
X57758750Y-152043750D02*
X58546250Y-152043750D01*
X57654437Y-151410000D02*
X58940000Y-151410000D01*
X63410000Y-150345563D02*
X63410000Y-144590000D01*
X56590000Y-144590000D02*
X58940000Y-144590000D01*
%TO.C,C34*%
X76154437Y-116590000D02*
X81910000Y-116590000D01*
X74062500Y-118152500D02*
X74850000Y-118152500D01*
X75090000Y-122345563D02*
X75090000Y-121060000D01*
X75090000Y-122345563D02*
X76154437Y-123410000D01*
X75090000Y-117654437D02*
X76154437Y-116590000D01*
X81910000Y-123410000D02*
X81910000Y-121060000D01*
X74456250Y-117758750D02*
X74456250Y-118546250D01*
X75090000Y-117654437D02*
X75090000Y-118940000D01*
X76154437Y-123410000D02*
X81910000Y-123410000D01*
X81910000Y-116590000D02*
X81910000Y-118940000D01*
%TO.C,R33*%
X77522500Y-84737258D02*
X77522500Y-84262742D01*
X76477500Y-84737258D02*
X76477500Y-84262742D01*
%TO.C,SW4*%
X110905000Y-80190000D02*
X109635000Y-80190000D01*
X108365000Y-83810000D02*
X108365000Y-80190000D01*
X110595000Y-83810000D02*
X110595000Y-82603333D01*
X107695000Y-83810000D02*
X107695000Y-82603333D01*
X112380000Y-85410000D02*
X112380000Y-78590000D01*
X105620000Y-85410000D02*
X106930000Y-85410000D01*
X108530000Y-78590000D02*
X109470000Y-78590000D01*
X108175000Y-83810000D02*
X108175000Y-82603333D01*
X109995000Y-83810000D02*
X109995000Y-82603333D01*
X107095000Y-83810000D02*
X108365000Y-83810000D01*
X110905000Y-83810000D02*
X110905000Y-80190000D01*
X108530000Y-85410000D02*
X109470000Y-85410000D01*
X110475000Y-83810000D02*
X110475000Y-82603333D01*
X105380000Y-85650000D02*
X105380000Y-84267000D01*
X107575000Y-83810000D02*
X107575000Y-82603333D01*
X107935000Y-83810000D02*
X107935000Y-82603333D01*
X108055000Y-83810000D02*
X108055000Y-82603333D01*
X105620000Y-78590000D02*
X106930000Y-78590000D01*
X107095000Y-82603333D02*
X108365000Y-82603333D01*
X107215000Y-83810000D02*
X107215000Y-82603333D01*
X109875000Y-83810000D02*
X109875000Y-82603333D01*
X107455000Y-83810000D02*
X107455000Y-82603333D01*
X108365000Y-80190000D02*
X107095000Y-80190000D01*
X109635000Y-82603333D02*
X110905000Y-82603333D01*
X111070000Y-85410000D02*
X112380000Y-85410000D01*
X107095000Y-80190000D02*
X107095000Y-83810000D01*
X110835000Y-83810000D02*
X110835000Y-82603333D01*
X107815000Y-83810000D02*
X107815000Y-82603333D01*
X109635000Y-83810000D02*
X110905000Y-83810000D01*
X110355000Y-83810000D02*
X110355000Y-82603333D01*
X111070000Y-78590000D02*
X112380000Y-78590000D01*
X109635000Y-80190000D02*
X109635000Y-83810000D01*
X108295000Y-83810000D02*
X108295000Y-82603333D01*
X109755000Y-83810000D02*
X109755000Y-82603333D01*
X110235000Y-83810000D02*
X110235000Y-82603333D01*
X110715000Y-83810000D02*
X110715000Y-82603333D01*
X110115000Y-83810000D02*
X110115000Y-82603333D01*
X105380000Y-85650000D02*
X106763000Y-85650000D01*
X105620000Y-85410000D02*
X105620000Y-78590000D01*
X107335000Y-83810000D02*
X107335000Y-82603333D01*
%TO.C,C19*%
X76154437Y-140590000D02*
X81910000Y-140590000D01*
X74062500Y-142152500D02*
X74850000Y-142152500D01*
X75090000Y-146345563D02*
X75090000Y-145060000D01*
X75090000Y-146345563D02*
X76154437Y-147410000D01*
X75090000Y-141654437D02*
X76154437Y-140590000D01*
X81910000Y-147410000D02*
X81910000Y-145060000D01*
X74456250Y-141758750D02*
X74456250Y-142546250D01*
X75090000Y-141654437D02*
X75090000Y-142940000D01*
X76154437Y-147410000D02*
X81910000Y-147410000D01*
X81910000Y-140590000D02*
X81910000Y-142940000D01*
%TO.C,C6*%
X83410000Y-107654437D02*
X83410000Y-113410000D01*
X81847500Y-105562500D02*
X81847500Y-106350000D01*
X77654437Y-106590000D02*
X78940000Y-106590000D01*
X77654437Y-106590000D02*
X76590000Y-107654437D01*
X82345563Y-106590000D02*
X83410000Y-107654437D01*
X76590000Y-113410000D02*
X78940000Y-113410000D01*
X82241250Y-105956250D02*
X81453750Y-105956250D01*
X82345563Y-106590000D02*
X81060000Y-106590000D01*
X76590000Y-107654437D02*
X76590000Y-113410000D01*
X83410000Y-113410000D02*
X81060000Y-113410000D01*
%TO.C,U15*%
X89500000Y-133115000D02*
X91700000Y-133115000D01*
X89500000Y-133115000D02*
X85900000Y-133115000D01*
X89500000Y-139885000D02*
X91700000Y-139885000D01*
X89500000Y-139885000D02*
X87300000Y-139885000D01*
%TO.C,J6*%
X81590000Y-99670000D02*
X81590000Y-102330000D01*
X86730000Y-99670000D02*
X81590000Y-99670000D01*
X88000000Y-99670000D02*
X89330000Y-99670000D01*
X86730000Y-102330000D02*
X81590000Y-102330000D01*
X89330000Y-99670000D02*
X89330000Y-101000000D01*
X86730000Y-99670000D02*
X86730000Y-102330000D01*
%TO.C,C2*%
X96740000Y-121195563D02*
X97804437Y-122260000D01*
X101260000Y-122260000D02*
X101260000Y-121060000D01*
X101260000Y-117740000D02*
X101260000Y-118940000D01*
X97804437Y-122260000D02*
X101260000Y-122260000D01*
X96740000Y-118804437D02*
X96740000Y-118940000D01*
X97804437Y-117740000D02*
X101260000Y-117740000D01*
X96250000Y-118190000D02*
X96250000Y-118690000D01*
X96740000Y-121195563D02*
X96740000Y-121060000D01*
X96000000Y-118440000D02*
X96500000Y-118440000D01*
X96740000Y-118804437D02*
X97804437Y-117740000D01*
%TO.C,C5*%
X59654437Y-106590000D02*
X58590000Y-107654437D01*
X63847500Y-105562500D02*
X63847500Y-106350000D01*
X65410000Y-113410000D02*
X63060000Y-113410000D01*
X64241250Y-105956250D02*
X63453750Y-105956250D01*
X64345563Y-106590000D02*
X63060000Y-106590000D01*
X65410000Y-107654437D02*
X65410000Y-113410000D01*
X58590000Y-113410000D02*
X60940000Y-113410000D01*
X58590000Y-107654437D02*
X58590000Y-113410000D01*
X64345563Y-106590000D02*
X65410000Y-107654437D01*
X59654437Y-106590000D02*
X60940000Y-106590000D01*
%TO.C,R51*%
X118237258Y-134477500D02*
X117762742Y-134477500D01*
X118237258Y-135522500D02*
X117762742Y-135522500D01*
%TO.C,C22*%
X101410000Y-107654437D02*
X101410000Y-113410000D01*
X99847500Y-105562500D02*
X99847500Y-106350000D01*
X95654437Y-106590000D02*
X96940000Y-106590000D01*
X95654437Y-106590000D02*
X94590000Y-107654437D01*
X100345563Y-106590000D02*
X101410000Y-107654437D01*
X94590000Y-113410000D02*
X96940000Y-113410000D01*
X100241250Y-105956250D02*
X99453750Y-105956250D01*
X100345563Y-106590000D02*
X99060000Y-106590000D01*
X94590000Y-107654437D02*
X94590000Y-113410000D01*
X101410000Y-113410000D02*
X99060000Y-113410000D01*
%TO.C,R32*%
X79522500Y-84737258D02*
X79522500Y-84262742D01*
X78477500Y-84737258D02*
X78477500Y-84262742D01*
%TO.C,C15*%
X55740000Y-157195563D02*
X56804437Y-158260000D01*
X60260000Y-158260000D02*
X60260000Y-157060000D01*
X60260000Y-153740000D02*
X60260000Y-154940000D01*
X56804437Y-158260000D02*
X60260000Y-158260000D01*
X55740000Y-154804437D02*
X55740000Y-154940000D01*
X56804437Y-153740000D02*
X60260000Y-153740000D01*
X55250000Y-154190000D02*
X55250000Y-154690000D01*
X55740000Y-157195563D02*
X55740000Y-157060000D01*
X55000000Y-154440000D02*
X55500000Y-154440000D01*
X55740000Y-154804437D02*
X56804437Y-153740000D01*
%TO.C,C57*%
X113490000Y-139859420D02*
X113490000Y-140140580D01*
X114510000Y-139859420D02*
X114510000Y-140140580D01*
%TO.C,C1*%
X112910000Y-107654437D02*
X112910000Y-113410000D01*
X111347500Y-105562500D02*
X111347500Y-106350000D01*
X107154437Y-106590000D02*
X108440000Y-106590000D01*
X107154437Y-106590000D02*
X106090000Y-107654437D01*
X111845563Y-106590000D02*
X112910000Y-107654437D01*
X106090000Y-113410000D02*
X108440000Y-113410000D01*
X111741250Y-105956250D02*
X110953750Y-105956250D01*
X111845563Y-106590000D02*
X110560000Y-106590000D01*
X106090000Y-107654437D02*
X106090000Y-113410000D01*
X112910000Y-113410000D02*
X110560000Y-113410000D01*
%TO.C,J11*%
X131330000Y-135730000D02*
X131330000Y-133130000D01*
X128670000Y-135730000D02*
X128670000Y-133130000D01*
X131330000Y-135730000D02*
X128670000Y-135730000D01*
X130000000Y-138330000D02*
X128670000Y-138330000D01*
X128670000Y-138330000D02*
X128670000Y-137000000D01*
X131330000Y-133130000D02*
X128670000Y-133130000D01*
%TO.C,C53*%
X122140580Y-147490000D02*
X121859420Y-147490000D01*
X122140580Y-148510000D02*
X121859420Y-148510000D01*
%TO.C,R40*%
X118237258Y-127477500D02*
X117762742Y-127477500D01*
X118237258Y-128522500D02*
X117762742Y-128522500D01*
%TO.C,J10*%
X144310000Y-120460000D02*
X136690000Y-120460000D01*
X144310000Y-120460000D02*
X144310000Y-150940000D01*
X137960000Y-120460000D02*
X137960000Y-150940000D01*
X136690000Y-150940000D02*
X144310000Y-150940000D01*
X136690000Y-120460000D02*
X136690000Y-150940000D01*
%TO.C,R52*%
X118237258Y-124477500D02*
X117762742Y-124477500D01*
X118237258Y-125522500D02*
X117762742Y-125522500D01*
%TO.C,J2*%
X139050000Y-95645000D02*
X141950000Y-95645000D01*
X139050000Y-102355000D02*
X141950000Y-102355000D01*
X137145000Y-97550000D02*
X137145000Y-100450000D01*
X143855000Y-97550000D02*
X143855000Y-100450000D01*
%TO.C,C55*%
X122140580Y-127490000D02*
X121859420Y-127490000D01*
X122140580Y-128510000D02*
X121859420Y-128510000D01*
%TO.C,R19*%
X123762742Y-99522500D02*
X124237258Y-99522500D01*
X123762742Y-98477500D02*
X124237258Y-98477500D01*
%TO.C,C31*%
X77740000Y-152195563D02*
X78804437Y-153260000D01*
X82260000Y-153260000D02*
X82260000Y-152060000D01*
X82260000Y-148740000D02*
X82260000Y-149940000D01*
X78804437Y-153260000D02*
X82260000Y-153260000D01*
X77740000Y-149804437D02*
X77740000Y-149940000D01*
X78804437Y-148740000D02*
X82260000Y-148740000D01*
X77250000Y-149190000D02*
X77250000Y-149690000D01*
X77740000Y-152195563D02*
X77740000Y-152060000D01*
X77000000Y-149440000D02*
X77500000Y-149440000D01*
X77740000Y-149804437D02*
X78804437Y-148740000D01*
%TO.C,C54*%
X122140580Y-137490000D02*
X121859420Y-137490000D01*
X122140580Y-138510000D02*
X121859420Y-138510000D01*
%TO.C,C36*%
X87154437Y-116590000D02*
X92910000Y-116590000D01*
X85062500Y-118152500D02*
X85850000Y-118152500D01*
X86090000Y-122345563D02*
X86090000Y-121060000D01*
X86090000Y-122345563D02*
X87154437Y-123410000D01*
X86090000Y-117654437D02*
X87154437Y-116590000D01*
X92910000Y-123410000D02*
X92910000Y-121060000D01*
X85456250Y-117758750D02*
X85456250Y-118546250D01*
X86090000Y-117654437D02*
X86090000Y-118940000D01*
X87154437Y-123410000D02*
X92910000Y-123410000D01*
X92910000Y-116590000D02*
X92910000Y-118940000D01*
%TO.C,C43*%
X115859420Y-92510000D02*
X116140580Y-92510000D01*
X115859420Y-91490000D02*
X116140580Y-91490000D01*
%TO.C,C74*%
X122540000Y-78195563D02*
X123604437Y-79260000D01*
X127060000Y-79260000D02*
X127060000Y-78060000D01*
X127060000Y-74740000D02*
X127060000Y-75940000D01*
X123604437Y-79260000D02*
X127060000Y-79260000D01*
X122540000Y-75804437D02*
X122540000Y-75940000D01*
X123604437Y-74740000D02*
X127060000Y-74740000D01*
X122050000Y-75190000D02*
X122050000Y-75690000D01*
X122540000Y-78195563D02*
X122540000Y-78060000D01*
X121800000Y-75440000D02*
X122300000Y-75440000D01*
X122540000Y-75804437D02*
X123604437Y-74740000D01*
%TO.C,C59*%
X122140580Y-149490000D02*
X121859420Y-149490000D01*
X122140580Y-150510000D02*
X121859420Y-150510000D01*
%TO.C,J12*%
X131330000Y-125230000D02*
X131330000Y-122630000D01*
X128670000Y-125230000D02*
X128670000Y-122630000D01*
X131330000Y-125230000D02*
X128670000Y-125230000D01*
X130000000Y-127830000D02*
X128670000Y-127830000D01*
X128670000Y-127830000D02*
X128670000Y-126500000D01*
X131330000Y-122630000D02*
X128670000Y-122630000D01*
%TO.C,X1*%
X98900000Y-135750000D02*
X98900000Y-139250000D01*
X98900000Y-139250000D02*
X103100000Y-139250000D01*
%TO.C,C42*%
X116140580Y-98490000D02*
X115859420Y-98490000D01*
X116140580Y-99510000D02*
X115859420Y-99510000D01*
%TO.C,U9*%
X47350000Y-75100000D02*
X74650000Y-75100000D01*
X74650000Y-75100000D02*
X74650000Y-102900000D01*
X74650000Y-102900000D02*
X47350000Y-102900000D01*
X47350000Y-102900000D02*
X47350000Y-75100000D01*
%TO.C,U13*%
X125470000Y-94850000D02*
X129070000Y-94850000D01*
X129108478Y-94838478D02*
G75*
G03*
X127270000Y-90400000I-1838478J1838478D01*
G01*
X127270000Y-90400000D02*
G75*
G03*
X125431522Y-94838478I0J-2600000D01*
G01*
%TO.C,C66*%
X113490000Y-136359420D02*
X113490000Y-136640580D01*
X114510000Y-136359420D02*
X114510000Y-136640580D01*
%TO.C,C62*%
X91359420Y-148010000D02*
X91640580Y-148010000D01*
X91359420Y-146990000D02*
X91640580Y-146990000D01*
%TO.C,R49*%
X118237258Y-122477500D02*
X117762742Y-122477500D01*
X118237258Y-123522500D02*
X117762742Y-123522500D01*
%TO.C,C71*%
X104740000Y-127195563D02*
X105804437Y-128260000D01*
X109260000Y-128260000D02*
X109260000Y-127060000D01*
X109260000Y-123740000D02*
X109260000Y-124940000D01*
X105804437Y-128260000D02*
X109260000Y-128260000D01*
X104740000Y-124804437D02*
X104740000Y-124940000D01*
X105804437Y-123740000D02*
X109260000Y-123740000D01*
X104250000Y-124190000D02*
X104250000Y-124690000D01*
X104740000Y-127195563D02*
X104740000Y-127060000D01*
X104000000Y-124440000D02*
X104500000Y-124440000D01*
X104740000Y-124804437D02*
X105804437Y-123740000D01*
%TO.C,J8*%
X144310000Y-69460000D02*
X144310000Y-89780000D01*
X136690000Y-69460000D02*
X136690000Y-89780000D01*
X136690000Y-89780000D02*
X144310000Y-89780000D01*
X144310000Y-69460000D02*
X136690000Y-69460000D01*
X137960000Y-89780000D02*
X137960000Y-69460000D01*
%TO.C,C65*%
X113490000Y-143359420D02*
X113490000Y-143640580D01*
X114510000Y-143359420D02*
X114510000Y-143640580D01*
%TO.C,C63*%
X91359420Y-145510000D02*
X91640580Y-145510000D01*
X91359420Y-144490000D02*
X91640580Y-144490000D01*
%TO.C,L2*%
X121700000Y-82300000D02*
X121700000Y-89700000D01*
X119400000Y-82300000D02*
X121700000Y-82300000D01*
X121700000Y-89700000D02*
X119400000Y-89700000D01*
X116600000Y-89700000D02*
X114300000Y-89700000D01*
X114300000Y-89700000D02*
X114300000Y-82300000D01*
X114300000Y-82300000D02*
X116600000Y-82300000D01*
%TO.C,C48*%
X131859420Y-99510000D02*
X132140580Y-99510000D01*
X131859420Y-98490000D02*
X132140580Y-98490000D01*
D13*
%TO.C,U14*%
X118625000Y-75375000D02*
X118625000Y-75650000D01*
X115375000Y-75375000D02*
X115375000Y-75550000D01*
X115375000Y-78625000D02*
X118625000Y-78625000D01*
X115375000Y-75550000D02*
X114300000Y-75550000D01*
X115375000Y-78625000D02*
X115375000Y-78350000D01*
X115375000Y-75375000D02*
X118625000Y-75375000D01*
X118625000Y-78625000D02*
X118625000Y-78350000D01*
D12*
%TO.C,D14*%
X97985000Y-137765000D02*
X95700000Y-137765000D01*
X97985000Y-139235000D02*
X97985000Y-137765000D01*
X95700000Y-139235000D02*
X97985000Y-139235000D01*
%TO.C,L1*%
X122700000Y-106300000D02*
X122700000Y-113700000D01*
X120400000Y-106300000D02*
X122700000Y-106300000D01*
X122700000Y-113700000D02*
X120400000Y-113700000D01*
X117600000Y-113700000D02*
X115300000Y-113700000D01*
X115300000Y-113700000D02*
X115300000Y-106300000D01*
X115300000Y-106300000D02*
X117600000Y-106300000D01*
%TO.C,C60*%
X122140580Y-139490000D02*
X121859420Y-139490000D01*
X122140580Y-140510000D02*
X121859420Y-140510000D01*
%TO.C,C27*%
X63740000Y-157195563D02*
X64804437Y-158260000D01*
X68260000Y-158260000D02*
X68260000Y-157060000D01*
X68260000Y-153740000D02*
X68260000Y-154940000D01*
X64804437Y-158260000D02*
X68260000Y-158260000D01*
X63740000Y-154804437D02*
X63740000Y-154940000D01*
X64804437Y-153740000D02*
X68260000Y-153740000D01*
X63250000Y-154190000D02*
X63250000Y-154690000D01*
X63740000Y-157195563D02*
X63740000Y-157060000D01*
X63000000Y-154440000D02*
X63500000Y-154440000D01*
X63740000Y-154804437D02*
X64804437Y-153740000D01*
%TO.C,C21*%
X92410000Y-107654437D02*
X92410000Y-113410000D01*
X90847500Y-105562500D02*
X90847500Y-106350000D01*
X86654437Y-106590000D02*
X87940000Y-106590000D01*
X86654437Y-106590000D02*
X85590000Y-107654437D01*
X91345563Y-106590000D02*
X92410000Y-107654437D01*
X85590000Y-113410000D02*
X87940000Y-113410000D01*
X91241250Y-105956250D02*
X90453750Y-105956250D01*
X91345563Y-106590000D02*
X90060000Y-106590000D01*
X85590000Y-107654437D02*
X85590000Y-113410000D01*
X92410000Y-113410000D02*
X90060000Y-113410000D01*
%TO.C,C18*%
X76154437Y-132590000D02*
X81910000Y-132590000D01*
X74062500Y-134152500D02*
X74850000Y-134152500D01*
X75090000Y-138345563D02*
X75090000Y-137060000D01*
X75090000Y-138345563D02*
X76154437Y-139410000D01*
X75090000Y-133654437D02*
X76154437Y-132590000D01*
X81910000Y-139410000D02*
X81910000Y-137060000D01*
X74456250Y-133758750D02*
X74456250Y-134546250D01*
X75090000Y-133654437D02*
X75090000Y-134940000D01*
X76154437Y-139410000D02*
X81910000Y-139410000D01*
X81910000Y-132590000D02*
X81910000Y-134940000D01*
%TO.C,R38*%
X118237258Y-147477500D02*
X117762742Y-147477500D01*
X118237258Y-148522500D02*
X117762742Y-148522500D01*
%TO.C,C76*%
X96359420Y-135010000D02*
X96640580Y-135010000D01*
X96359420Y-133990000D02*
X96640580Y-133990000D01*
%TO.C,R20*%
X128237258Y-98477500D02*
X127762742Y-98477500D01*
X128237258Y-99522500D02*
X127762742Y-99522500D01*
%TO.C,SW1*%
X76690000Y-95560000D02*
X76690000Y-89440000D01*
X80310000Y-95560000D02*
X76690000Y-95560000D01*
X80310000Y-89440000D02*
X80310000Y-95560000D01*
X76690000Y-89440000D02*
X80310000Y-89440000D01*
%TD*%
M02*
