M48
; DRILL file {KiCad 8.0.3} date 2024-07-08T00:41:43+0800
; FORMAT={-:-/ absolute / inch / decimal}
; #@! TF.CreationDate,2024-07-08T00:41:43+08:00
; #@! TF.GenerationSoftware,Kicad,Pcbnew,8.0.3
; #@! TF.FileFunction,Plated,1,2,PTH
FMAT,2
INCH
; #@! TA.AperFunction,Plated,PTH,ViaDrill
T1C0.0157
; #@! TA.AperFunction,Plated,PTH,ComponentDrill
T2C0.0295
; #@! TA.AperFunction,Plated,PTH,ComponentDrill
T3C0.0315
; #@! TA.AperFunction,Plated,PTH,ComponentDrill
T4C0.0354
; #@! TA.AperFunction,Plated,PTH,ComponentDrill
T5C0.0394
; #@! TA.AperFunction,Plated,PTH,ComponentDrill
T6C0.0433
; #@! TA.AperFunction,Plated,PTH,ComponentDrill
T7C0.0591
; #@! TA.AperFunction,Plated,PTH,ComponentDrill
T8C0.0598
; #@! TA.AperFunction,Plated,PTH,ComponentDrill
T9C0.0669
; #@! TA.AperFunction,Plated,PTH,ComponentDrill
T10C0.1260
%
G90
G05
T1
X1.8228Y-3.3189
X1.8228Y-3.3583
X1.8228Y-3.3976
X1.8228Y-3.437
X1.8228Y-3.4764
X1.8228Y-3.5157
X1.8228Y-3.5551
X1.8228Y-3.5945
X1.8228Y-3.6339
X1.8228Y-3.6732
X1.8228Y-3.7126
X1.8228Y-3.752
X1.8228Y-3.7913
X1.8228Y-3.8307
X1.8228Y-3.8701
X1.8228Y-3.9094
X1.8228Y-3.9488
X1.8228Y-3.9882
X1.8228Y-4.0276
X1.8504Y-5.0531
X1.8504Y-5.0925
X1.8504Y-5.5394
X1.8504Y-5.5787
X1.8504Y-5.7717
X1.8504Y-5.811
X1.8504Y-5.8504
X1.8504Y-5.8898
X1.8504Y-5.9291
X1.8504Y-5.9685
X1.8504Y-6.0079
X1.8583Y-3.3189
X1.8583Y-3.3583
X1.8583Y-3.3976
X1.8583Y-3.437
X1.8583Y-3.4764
X1.8583Y-3.5157
X1.8583Y-3.5551
X1.8583Y-3.5945
X1.8583Y-3.6339
X1.8583Y-3.6732
X1.8583Y-3.7126
X1.8583Y-3.752
X1.8583Y-3.7913
X1.8583Y-3.8307
X1.8583Y-3.8701
X1.8583Y-3.9094
X1.8583Y-3.9488
X1.8583Y-3.9882
X1.8583Y-4.0276
X1.8858Y-5.0531
X1.8858Y-5.0925
X1.8858Y-5.5394
X1.8858Y-5.5787
X1.8858Y-5.7717
X1.8858Y-5.811
X1.8858Y-5.8504
X1.8858Y-5.8898
X1.8858Y-5.9291
X1.8858Y-5.9685
X1.8858Y-6.0079
X1.8937Y-2.9075
X1.8937Y-2.9469
X1.8937Y-2.9862
X1.8937Y-3.0256
X1.9016Y-3.3189
X1.9016Y-3.3583
X1.9016Y-3.3976
X1.9016Y-3.437
X1.9016Y-3.4764
X1.9016Y-3.5157
X1.9016Y-3.5551
X1.9016Y-3.5945
X1.9016Y-3.6339
X1.9016Y-3.6732
X1.9016Y-3.7126
X1.9016Y-3.752
X1.9016Y-3.7913
X1.9016Y-3.8307
X1.9016Y-3.8701
X1.9016Y-3.9094
X1.9016Y-3.9488
X1.9016Y-3.9882
X1.9016Y-4.0276
X1.9291Y-2.9075
X1.9291Y-2.9469
X1.9291Y-2.9862
X1.9291Y-3.0256
X1.9291Y-5.0531
X1.9291Y-5.0925
X1.9291Y-5.9685
X1.9291Y-6.0079
X1.9358Y-5.6147
X1.937Y-3.3189
X1.937Y-3.3583
X1.937Y-3.3976
X1.937Y-3.437
X1.937Y-3.4764
X1.937Y-3.5157
X1.937Y-3.5551
X1.937Y-3.5945
X1.937Y-3.6339
X1.937Y-3.6732
X1.937Y-3.7126
X1.937Y-3.752
X1.937Y-3.7913
X1.937Y-3.8307
X1.937Y-3.8701
X1.937Y-3.9094
X1.937Y-3.9488
X1.937Y-3.9882
X1.937Y-4.0276
X1.9564Y-5.4111
X1.9646Y-5.0531
X1.9646Y-5.0925
X1.9646Y-5.9685
X1.9646Y-6.0079
X1.9724Y-2.9075
X1.9724Y-2.9469
X1.9724Y-2.9862
X1.9724Y-3.0256
X1.9803Y-3.6732
X1.9803Y-3.7126
X1.9803Y-3.752
X1.9803Y-3.7913
X1.9803Y-3.8307
X1.9803Y-3.8701
X1.9803Y-3.9094
X1.9803Y-3.9488
X1.9803Y-3.9882
X1.9803Y-4.0276
X2.0079Y-2.9075
X2.0079Y-2.9469
X2.0079Y-2.9862
X2.0079Y-3.0256
X2.0079Y-5.0531
X2.0079Y-5.0925
X2.0079Y-5.9685
X2.0079Y-6.0079
X2.0138Y-5.2677
X2.0138Y-5.3071
X2.0138Y-5.4252
X2.0138Y-5.4646
X2.0157Y-3.6732
X2.0157Y-3.7126
X2.0157Y-3.752
X2.0157Y-3.7913
X2.0157Y-3.8307
X2.0157Y-3.8701
X2.0157Y-3.9094
X2.0157Y-3.9488
X2.0157Y-3.9882
X2.0157Y-4.0276
X2.0409Y-5.8363
X2.0433Y-5.0531
X2.0433Y-5.0925
X2.0433Y-5.9685
X2.0433Y-6.0079
X2.0492Y-5.2677
X2.0492Y-5.3071
X2.0492Y-5.4252
X2.0492Y-5.4646
X2.0512Y-2.6732
X2.0512Y-2.7126
X2.0512Y-2.752
X2.0512Y-2.7913
X2.0512Y-2.8307
X2.0512Y-2.8701
X2.0512Y-2.9094
X2.0512Y-2.9488
X2.0512Y-2.9862
X2.0512Y-3.0256
X2.0591Y-3.6732
X2.0591Y-3.7126
X2.0591Y-3.752
X2.0591Y-3.7913
X2.0591Y-3.8307
X2.0591Y-3.8701
X2.0591Y-3.9094
X2.0591Y-3.9488
X2.0591Y-3.9882
X2.0591Y-4.0276
X2.0866Y-2.6732
X2.0866Y-2.7126
X2.0866Y-2.752
X2.0866Y-2.7913
X2.0866Y-2.8307
X2.0866Y-2.8701
X2.0866Y-2.9094
X2.0866Y-2.9488
X2.0866Y-2.9862
X2.0866Y-3.0256
X2.0866Y-5.0531
X2.0866Y-5.0925
X2.0866Y-5.9685
X2.0866Y-6.0079
X2.0866Y-6.0472
X2.0866Y-6.0866
X2.0866Y-6.126
X2.0866Y-6.1654
X2.0866Y-6.2047
X2.0866Y-6.2441
X2.0945Y-3.6732
X2.0945Y-3.7126
X2.0945Y-3.752
X2.0945Y-3.7913
X2.0945Y-3.8307
X2.0945Y-3.8701
X2.0945Y-3.9094
X2.0945Y-3.9488
X2.0945Y-3.9882
X2.0945Y-4.0276
X2.111Y-5.8363
X2.1201Y-4.1535
X2.1201Y-4.1929
X2.1201Y-4.2323
X2.1201Y-4.2717
X2.1201Y-4.311
X2.1201Y-4.3504
X2.1201Y-4.3898
X2.1201Y-4.4291
X2.1201Y-4.4685
X2.1201Y-4.5079
X2.1201Y-4.5472
X2.122Y-5.0531
X2.122Y-5.0925
X2.122Y-5.9685
X2.122Y-6.0079
X2.122Y-6.0472
X2.122Y-6.0866
X2.122Y-6.126
X2.122Y-6.1654
X2.122Y-6.2047
X2.122Y-6.2441
X2.1354Y-5.4594
X2.1378Y-3.6732
X2.1378Y-3.7126
X2.1378Y-3.752
X2.1378Y-3.7913
X2.1378Y-3.8307
X2.1378Y-3.8701
X2.1378Y-3.9094
X2.1378Y-3.9488
X2.1378Y-3.9882
X2.1378Y-4.0276
X2.1555Y-4.1535
X2.1555Y-4.1929
X2.1555Y-4.2323
X2.1555Y-4.2717
X2.1555Y-4.311
X2.1555Y-4.3504
X2.1555Y-4.3898
X2.1555Y-4.4291
X2.1555Y-4.4685
X2.1555Y-4.5079
X2.1555Y-4.5472
X2.1654Y-4.8563
X2.1654Y-4.8957
X2.1654Y-4.935
X2.1654Y-4.9744
X2.1654Y-5.0138
X2.1654Y-5.0531
X2.1654Y-5.0925
X2.1654Y-5.9685
X2.1654Y-6.0079
X2.1654Y-6.0472
X2.1654Y-6.0866
X2.1654Y-6.126
X2.1654Y-6.1654
X2.1654Y-6.2047
X2.1654Y-6.2441
X2.1732Y-3.6732
X2.1732Y-3.7126
X2.1732Y-3.752
X2.1732Y-3.7913
X2.1732Y-3.8307
X2.1732Y-3.8701
X2.1732Y-3.9094
X2.1732Y-3.9488
X2.1732Y-3.9882
X2.1732Y-4.0276
X2.2008Y-4.8563
X2.2008Y-4.8957
X2.2008Y-4.935
X2.2008Y-4.9744
X2.2008Y-5.0138
X2.2008Y-5.0531
X2.2008Y-5.0925
X2.2008Y-5.9685
X2.2008Y-6.0079
X2.2008Y-6.0472
X2.2008Y-6.0866
X2.2008Y-6.126
X2.2008Y-6.1654
X2.2008Y-6.2047
X2.2008Y-6.2441
X2.2087Y-2.7894
X2.2087Y-2.8307
X2.2087Y-2.8701
X2.2165Y-3.752
X2.2165Y-3.7913
X2.2165Y-3.8307
X2.2165Y-3.8701
X2.2165Y-3.9094
X2.2165Y-3.9488
X2.2165Y-3.9882
X2.2165Y-4.0276
X2.2244Y-5.1772
X2.2264Y-5.7874
X2.2264Y-5.8268
X2.2304Y-5.7021
X2.2441Y-2.7894
X2.2441Y-2.8307
X2.2441Y-2.8701
X2.2441Y-4.8563
X2.2441Y-4.8957
X2.2441Y-4.935
X2.2441Y-4.9744
X2.2441Y-5.0138
X2.2441Y-5.0531
X2.2441Y-5.0925
X2.2441Y-5.9685
X2.2441Y-6.0079
X2.2441Y-6.0472
X2.2441Y-6.0866
X2.2441Y-6.126
X2.2441Y-6.1654
X2.2441Y-6.2047
X2.2441Y-6.2441
X2.252Y-3.752
X2.252Y-3.7913
X2.252Y-3.8307
X2.252Y-3.8701
X2.252Y-3.9094
X2.252Y-3.9488
X2.252Y-3.9882
X2.252Y-4.0276
X2.2618Y-5.7874
X2.2618Y-5.8268
X2.2657Y-5.6339
X2.2657Y-5.6732
X2.2795Y-4.8563
X2.2795Y-4.8957
X2.2795Y-4.935
X2.2795Y-4.9744
X2.2795Y-5.0138
X2.2795Y-5.0531
X2.2795Y-5.0925
X2.2795Y-5.9685
X2.2795Y-6.0079
X2.2795Y-6.0472
X2.2795Y-6.0866
X2.2795Y-6.126
X2.2795Y-6.1654
X2.2795Y-6.2047
X2.2795Y-6.2441
X2.2874Y-2.7894
X2.2874Y-2.8307
X2.2874Y-2.8701
X2.2953Y-3.8307
X2.2953Y-3.8701
X2.2953Y-3.9094
X2.2953Y-3.9488
X2.2953Y-3.9882
X2.2953Y-4.0276
X2.3012Y-5.6339
X2.3012Y-5.6732
X2.3228Y-2.7894
X2.3228Y-2.8307
X2.3228Y-2.8701
X2.3228Y-5.9685
X2.3228Y-6.0079
X2.3228Y-6.0472
X2.3228Y-6.0866
X2.3228Y-6.126
X2.3228Y-6.1654
X2.3228Y-6.2047
X2.3228Y-6.2441
X2.3307Y-3.8307
X2.3307Y-3.8701
X2.3307Y-3.9094
X2.3307Y-3.9488
X2.3307Y-3.9882
X2.3307Y-4.0276
X2.3583Y-5.7874
X2.3583Y-5.8268
X2.3583Y-5.9685
X2.3583Y-6.0079
X2.3583Y-6.0472
X2.3583Y-6.0866
X2.3583Y-6.126
X2.3583Y-6.1654
X2.3583Y-6.2047
X2.3583Y-6.2441
X2.3661Y-2.752
X2.3661Y-2.7913
X2.3661Y-2.8307
X2.3661Y-2.8701
X2.3937Y-5.7874
X2.3937Y-5.8268
X2.4016Y-2.752
X2.4016Y-2.7913
X2.4016Y-2.8307
X2.4016Y-2.8701
X2.4016Y-5.9685
X2.4016Y-6.0079
X2.4016Y-6.0472
X2.4016Y-6.0866
X2.4016Y-6.126
X2.4016Y-6.1654
X2.4016Y-6.2047
X2.4016Y-6.2441
X2.4077Y-5.4441
X2.4173Y-3.6732
X2.4173Y-3.7126
X2.4173Y-3.752
X2.4173Y-3.7913
X2.4173Y-3.8307
X2.4173Y-3.8701
X2.4173Y-3.9094
X2.4173Y-3.9488
X2.4173Y-3.9882
X2.4173Y-4.0276
X2.437Y-5.9685
X2.437Y-6.0079
X2.437Y-6.0472
X2.437Y-6.0866
X2.437Y-6.126
X2.437Y-6.1654
X2.437Y-6.2047
X2.437Y-6.2441
X2.4449Y-2.752
X2.4449Y-2.7913
X2.4449Y-2.8307
X2.4449Y-2.8701
X2.4508Y-4.1535
X2.4508Y-4.1929
X2.4508Y-4.2323
X2.4508Y-4.2717
X2.4528Y-3.6732
X2.4528Y-3.7126
X2.4528Y-3.752
X2.4528Y-3.7913
X2.4528Y-3.8307
X2.4528Y-3.8701
X2.4528Y-3.9094
X2.4528Y-3.9488
X2.4528Y-3.9882
X2.4528Y-4.0276
X2.4803Y-2.752
X2.4803Y-2.7913
X2.4803Y-2.8307
X2.4803Y-2.8701
X2.4803Y-5.9685
X2.4803Y-6.0079
X2.4803Y-6.0472
X2.4803Y-6.0866
X2.4803Y-6.126
X2.4803Y-6.1654
X2.4803Y-6.2047
X2.4803Y-6.2441
X2.4862Y-4.1535
X2.4862Y-4.1929
X2.4862Y-4.2323
X2.4862Y-4.2717
X2.4902Y-4.5079
X2.4902Y-4.5472
X2.4902Y-4.5866
X2.4902Y-4.626
X2.4961Y-3.6732
X2.4961Y-3.7126
X2.4961Y-3.752
X2.4961Y-3.7913
X2.4961Y-3.8307
X2.4961Y-3.8701
X2.4961Y-3.9094
X2.4961Y-3.9488
X2.4961Y-3.9882
X2.4961Y-4.0276
X2.5157Y-5.9685
X2.5157Y-6.0079
X2.5157Y-6.0472
X2.5157Y-6.0866
X2.5157Y-6.126
X2.5157Y-6.1654
X2.5157Y-6.2047
X2.5157Y-6.2441
X2.5236Y-2.752
X2.5236Y-2.7913
X2.5236Y-2.8307
X2.5256Y-4.5079
X2.5256Y-4.5472
X2.5256Y-4.5866
X2.5256Y-4.626
X2.5295Y-4.1535
X2.5295Y-4.1929
X2.5295Y-4.2323
X2.5295Y-4.2717
X2.5315Y-3.6732
X2.5315Y-3.7126
X2.5315Y-3.752
X2.5315Y-3.7913
X2.5315Y-3.8307
X2.5315Y-3.8701
X2.5315Y-3.9094
X2.5315Y-3.9488
X2.5315Y-3.9882
X2.5315Y-4.0276
X2.5425Y-4.9606
X2.5591Y-2.752
X2.5591Y-2.7913
X2.5591Y-2.8307
X2.5591Y-5.9685
X2.5591Y-6.0079
X2.5591Y-6.0472
X2.5591Y-6.0866
X2.5591Y-6.126
X2.5591Y-6.1654
X2.5591Y-6.2047
X2.5591Y-6.2441
X2.565Y-4.1535
X2.565Y-4.1929
X2.565Y-4.2323
X2.565Y-4.2717
X2.5689Y-4.5079
X2.5689Y-4.5472
X2.5689Y-4.5866
X2.5689Y-4.626
X2.5748Y-3.7126
X2.5748Y-3.752
X2.5748Y-3.7913
X2.5748Y-3.8307
X2.5748Y-3.8701
X2.5748Y-3.9094
X2.5748Y-3.9488
X2.5748Y-3.9882
X2.5748Y-4.0276
X2.5809Y-4.9116
X2.5945Y-5.9685
X2.5945Y-6.0079
X2.5945Y-6.0472
X2.5945Y-6.0866
X2.5945Y-6.126
X2.5945Y-6.1654
X2.5945Y-6.2047
X2.5945Y-6.2441
X2.6024Y-2.752
X2.6024Y-2.7913
X2.6024Y-2.8307
X2.6043Y-4.5079
X2.6043Y-4.5472
X2.6043Y-4.5866
X2.6043Y-4.626
X2.6102Y-3.7126
X2.6102Y-3.752
X2.6102Y-3.7913
X2.6102Y-3.8307
X2.6102Y-3.8701
X2.6102Y-3.9094
X2.6102Y-3.9488
X2.6102Y-3.9882
X2.6102Y-4.0276
X2.626Y-5.3642
X2.6378Y-2.752
X2.6378Y-2.7913
X2.6378Y-2.8307
X2.6378Y-5.9685
X2.6378Y-6.0079
X2.6378Y-6.0472
X2.6378Y-6.0866
X2.6378Y-6.126
X2.6378Y-6.1654
X2.6378Y-6.2047
X2.6378Y-6.2441
X2.6535Y-3.7126
X2.6535Y-3.752
X2.6535Y-3.7913
X2.6535Y-3.8307
X2.6535Y-3.8701
X2.6535Y-3.9094
X2.6535Y-3.9488
X2.6535Y-3.9882
X2.6535Y-4.0276
X2.6654Y-4.3789
X2.6732Y-5.9685
X2.6732Y-6.0079
X2.6732Y-6.0472
X2.6732Y-6.0866
X2.6732Y-6.126
X2.6732Y-6.1654
X2.6732Y-6.2047
X2.6732Y-6.2441
X2.6835Y-3.489
X2.6835Y-3.539
X2.6886Y-3.2683
X2.689Y-3.7126
X2.689Y-3.752
X2.689Y-3.7913
X2.689Y-3.8307
X2.689Y-3.8701
X2.689Y-3.9094
X2.689Y-3.9488
X2.689Y-3.9882
X2.689Y-4.0276
X2.7126Y-3.1299
X2.7126Y-3.2283
X2.7126Y-3.311
X2.7156Y-5.1447
X2.7165Y-5.9685
X2.7165Y-6.0079
X2.7165Y-6.0472
X2.7165Y-6.0866
X2.7165Y-6.126
X2.7165Y-6.1654
X2.7165Y-6.2047
X2.7165Y-6.2441
X2.7323Y-3.9094
X2.7323Y-3.9488
X2.7323Y-3.9882
X2.7323Y-4.0276
X2.7323Y-4.7638
X2.752Y-5.9685
X2.752Y-6.0079
X2.752Y-6.0472
X2.752Y-6.0866
X2.752Y-6.126
X2.752Y-6.1654
X2.752Y-6.2047
X2.752Y-6.2441
X2.7677Y-3.9094
X2.7677Y-3.9488
X2.7677Y-3.9882
X2.7677Y-4.0276
X2.7894Y-4.1949
X2.7894Y-4.2343
X2.7894Y-4.374
X2.7894Y-4.4134
X2.7953Y-5.8898
X2.7953Y-5.9291
X2.7953Y-5.9685
X2.7953Y-6.0079
X2.7953Y-6.0472
X2.7953Y-6.0866
X2.7953Y-6.126
X2.7953Y-6.1654
X2.7953Y-6.2047
X2.7953Y-6.2441
X2.7972Y-4.9528
X2.7972Y-4.9921
X2.7972Y-5.0315
X2.7972Y-5.0709
X2.7972Y-5.1102
X2.7972Y-5.1496
X2.7972Y-5.189
X2.7972Y-5.2283
X2.7972Y-5.2677
X2.7972Y-5.3071
X2.7972Y-5.3465
X2.7972Y-5.3858
X2.811Y-3.9882
X2.811Y-4.0276
X2.8248Y-4.1949
X2.8248Y-4.2343
X2.8248Y-4.374
X2.8248Y-4.4134
X2.8307Y-5.8898
X2.8307Y-5.9291
X2.8307Y-5.9685
X2.8307Y-6.0079
X2.8307Y-6.0472
X2.8307Y-6.0866
X2.8307Y-6.126
X2.8307Y-6.1654
X2.8307Y-6.2047
X2.8307Y-6.2441
X2.8327Y-4.9528
X2.8327Y-4.9921
X2.8327Y-5.0315
X2.8327Y-5.0709
X2.8327Y-5.1102
X2.8327Y-5.1496
X2.8327Y-5.189
X2.8327Y-5.2283
X2.8327Y-5.2677
X2.8327Y-5.3071
X2.8327Y-5.3465
X2.8327Y-5.3858
X2.8386Y-2.752
X2.8386Y-2.7913
X2.8386Y-2.8327
X2.8425Y-4.749
X2.8465Y-3.9882
X2.8465Y-4.0276
X2.874Y-2.752
X2.874Y-2.7913
X2.874Y-2.8327
X2.874Y-5.8898
X2.874Y-5.9291
X2.874Y-5.9685
X2.874Y-6.0079
X2.874Y-6.0472
X2.874Y-6.0866
X2.874Y-6.126
X2.874Y-6.1654
X2.874Y-6.2047
X2.874Y-6.2441
X2.876Y-4.9528
X2.876Y-4.9921
X2.876Y-5.0315
X2.876Y-5.0709
X2.876Y-5.1102
X2.876Y-5.1496
X2.876Y-5.189
X2.876Y-5.2283
X2.876Y-5.2677
X2.876Y-5.3071
X2.876Y-5.3465
X2.876Y-5.3858
X2.876Y-5.4921
X2.876Y-5.5315
X2.876Y-5.5709
X2.876Y-5.6102
X2.876Y-5.6496
X2.876Y-5.689
X2.876Y-5.7283
X2.876Y-5.7677
X2.8898Y-3.9882
X2.8898Y-4.0276
X2.8917Y-2.9685
X2.8976Y-3.5705
X2.9055Y-3.0906
X2.9094Y-5.8898
X2.9094Y-5.9291
X2.9094Y-5.9685
X2.9094Y-6.0079
X2.9094Y-6.0472
X2.9094Y-6.0866
X2.9094Y-6.126
X2.9094Y-6.1654
X2.9094Y-6.2047
X2.9094Y-6.2441
X2.9114Y-4.9528
X2.9114Y-4.9921
X2.9114Y-5.0315
X2.9114Y-5.0709
X2.9114Y-5.1102
X2.9114Y-5.1496
X2.9114Y-5.189
X2.9114Y-5.2283
X2.9114Y-5.2677
X2.9114Y-5.3071
X2.9114Y-5.3465
X2.9114Y-5.3858
X2.9114Y-5.4921
X2.9114Y-5.5315
X2.9114Y-5.5709
X2.9114Y-5.6102
X2.9114Y-5.6496
X2.9114Y-5.689
X2.9114Y-5.7283
X2.9114Y-5.7677
X2.9173Y-2.752
X2.9173Y-2.7913
X2.9173Y-2.8327
X2.9252Y-3.9882
X2.9252Y-4.0276
X2.937Y-3.0906
X2.9528Y-2.752
X2.9528Y-2.7913
X2.9528Y-2.8327
X2.9528Y-5.8898
X2.9528Y-5.9291
X2.9528Y-5.9685
X2.9528Y-6.0079
X2.9528Y-6.0472
X2.9528Y-6.0866
X2.9528Y-6.126
X2.9528Y-6.1654
X2.9528Y-6.2047
X2.9528Y-6.2441
X2.9547Y-4.9528
X2.9547Y-4.9921
X2.9547Y-5.0315
X2.9547Y-5.0709
X2.9547Y-5.1102
X2.9547Y-5.1496
X2.9547Y-5.189
X2.9547Y-5.2283
X2.9547Y-5.2677
X2.9547Y-5.3071
X2.9547Y-5.3465
X2.9547Y-5.3858
X2.9547Y-5.4921
X2.9547Y-5.5315
X2.9547Y-5.5709
X2.9547Y-5.6102
X2.9547Y-5.6496
X2.9547Y-5.689
X2.9547Y-5.7283
X2.9547Y-5.7677
X2.9685Y-3.9882
X2.9685Y-4.0276
X2.9882Y-5.8898
X2.9882Y-5.9291
X2.9882Y-5.9685
X2.9882Y-6.0079
X2.9882Y-6.0472
X2.9882Y-6.0866
X2.9882Y-6.126
X2.9882Y-6.1654
X2.9882Y-6.2047
X2.9882Y-6.2441
X2.9902Y-4.9528
X2.9902Y-4.9921
X2.9902Y-5.0315
X2.9902Y-5.0709
X2.9902Y-5.1102
X2.9902Y-5.1496
X2.9902Y-5.189
X2.9902Y-5.2283
X2.9902Y-5.2677
X2.9902Y-5.3071
X2.9902Y-5.3465
X2.9902Y-5.3858
X2.9902Y-5.4921
X2.9902Y-5.5315
X2.9902Y-5.5709
X2.9902Y-5.6102
X2.9902Y-5.6496
X2.9902Y-5.689
X2.9902Y-5.7283
X2.9902Y-5.7677
X2.9925Y-2.8512
X2.9961Y-2.752
X2.9961Y-2.7913
X3.0039Y-3.9882
X3.0039Y-4.0276
X3.0315Y-2.752
X3.0315Y-2.7913
X3.0315Y-2.8307
X3.0315Y-5.8898
X3.0315Y-5.9291
X3.0315Y-5.9685
X3.0315Y-6.0079
X3.0315Y-6.0472
X3.0315Y-6.0866
X3.0315Y-6.126
X3.0315Y-6.1654
X3.0315Y-6.2047
X3.0315Y-6.2441
X3.0335Y-4.9528
X3.0335Y-4.9921
X3.0335Y-5.0315
X3.0335Y-5.0709
X3.0335Y-5.1102
X3.0335Y-5.1496
X3.0335Y-5.189
X3.0335Y-5.2283
X3.0335Y-5.2677
X3.0335Y-5.3071
X3.0335Y-5.3465
X3.0335Y-5.3858
X3.0335Y-5.4921
X3.0335Y-5.5315
X3.0335Y-5.5709
X3.0335Y-5.6102
X3.0335Y-5.6496
X3.0335Y-5.689
X3.0335Y-5.7283
X3.0335Y-5.7677
X3.0669Y-5.8898
X3.0669Y-5.9291
X3.0669Y-5.9685
X3.0669Y-6.0079
X3.0669Y-6.0472
X3.0669Y-6.0866
X3.0669Y-6.126
X3.0669Y-6.1654
X3.0669Y-6.2047
X3.0669Y-6.2441
X3.0689Y-4.9528
X3.0689Y-4.9921
X3.0689Y-5.0315
X3.0689Y-5.0709
X3.0689Y-5.1102
X3.0689Y-5.1496
X3.0689Y-5.189
X3.0689Y-5.2283
X3.0689Y-5.2677
X3.0689Y-5.3071
X3.0689Y-5.3465
X3.0689Y-5.3858
X3.0689Y-5.4921
X3.0689Y-5.5315
X3.0689Y-5.5709
X3.0689Y-5.6102
X3.0689Y-5.6496
X3.0689Y-5.689
X3.0689Y-5.7283
X3.0689Y-5.7677
X3.072Y-3.639
X3.072Y-3.689
X3.0748Y-2.752
X3.0748Y-2.7913
X3.0748Y-2.8307
X3.1102Y-2.752
X3.1102Y-2.7913
X3.1102Y-2.8307
X3.1535Y-2.752
X3.1535Y-2.7913
X3.1535Y-2.8307
X3.1535Y-2.8701
X3.1614Y-3.9882
X3.1614Y-4.0276
X3.189Y-2.752
X3.189Y-2.7913
X3.189Y-2.8307
X3.189Y-2.8701
X3.1969Y-3.9882
X3.1969Y-4.0276
X3.2178Y-3.1101
X3.2293Y-3.2559
X3.2293Y-3.2874
X3.2293Y-3.3622
X3.2323Y-2.7933
X3.2323Y-2.8307
X3.2323Y-2.8701
X3.2353Y-4.5235
X3.2402Y-3.9882
X3.2402Y-4.0276
X3.251Y-4.7274
X3.2677Y-2.7933
X3.2677Y-2.8307
X3.2677Y-2.8701
X3.2756Y-3.9882
X3.2756Y-4.0276
X3.311Y-2.7933
X3.311Y-2.8307
X3.311Y-2.8701
X3.322Y-3.0689
X3.322Y-3.1181
X3.3465Y-2.7933
X3.3465Y-2.8307
X3.3465Y-2.8701
X3.3858Y-2.752
X3.3858Y-2.7913
X3.3898Y-2.8307
X3.3898Y-2.8701
X3.3965Y-5.4004
X3.4094Y-5.0394
X3.4161Y-5.7461
X3.4183Y-4.3356
X3.4213Y-2.752
X3.4213Y-2.7913
X3.4252Y-2.8307
X3.4252Y-2.8701
X3.4252Y-3.4321
X3.4406Y-5.2551
X3.442Y-3.7926
X3.4443Y-4.4331
X3.4606Y-3.6614
X3.4646Y-2.752
X3.4646Y-2.7913
X3.4685Y-2.8307
X3.4685Y-2.8701
X3.4685Y-3.7756
X3.4724Y-3.5787
X3.4902Y-3.0315
X3.4902Y-3.0984
X3.4921Y-3.6614
X3.4961Y-3.2835
X3.4961Y-3.311
X3.4961Y-3.3386
X3.4961Y-3.3661
X3.4961Y-3.4528
X3.4969Y-3.7921
X3.5Y-2.752
X3.5Y-2.7913
X3.5039Y-2.8307
X3.5039Y-2.8701
X3.5098Y-5.7776
X3.512Y-5.2549
X3.5126Y-5.039
X3.5236Y-3.2835
X3.5236Y-3.311
X3.5236Y-3.3386
X3.5236Y-3.3661
X3.5236Y-3.4528
X3.5236Y-3.6496
X3.5236Y-3.6772
X3.5236Y-3.7748
X3.5384Y-4.4892
X3.5496Y-4.0764
X3.5512Y-3.2835
X3.5512Y-3.311
X3.5512Y-3.3386
X3.5512Y-3.3661
X3.5512Y-3.6496
X3.5512Y-3.6772
X3.5516Y-4.3612
X3.5525Y-3.7887
X3.5724Y-5.4413
X3.5724Y-5.7096
X3.5787Y-3.2835
X3.5787Y-3.311
X3.5787Y-3.6496
X3.5846Y-2.8996
X3.5866Y-3.9626
X3.5945Y-2.9606
X3.6063Y-2.752
X3.6063Y-2.7913
X3.6063Y-2.8307
X3.6063Y-2.8701
X3.6063Y-3.2835
X3.6063Y-3.311
X3.6181Y-3.1299
X3.6417Y-2.752
X3.6417Y-2.7913
X3.6417Y-2.8307
X3.6417Y-2.8701
X3.6417Y-3.4685
X3.6457Y-4.3524
X3.6667Y-4.4636
X3.6669Y-4.4134
X3.6675Y-3.5041
X3.6693Y-3.4055
X3.6713Y-5.4669
X3.6788Y-3.8527
X3.6803Y-3.252
X3.6839Y-5.122
X3.685Y-2.752
X3.685Y-2.7913
X3.685Y-2.8307
X3.685Y-2.8701
X3.6929Y-3.6181
X3.6957Y-5.7878
X3.6959Y-3.5177
X3.7126Y-4.352
X3.7148Y-3.2677
X3.7197Y-3.3967
X3.7205Y-2.752
X3.7205Y-2.7913
X3.7205Y-2.8307
X3.7205Y-2.8701
X3.7205Y-3.6181
X3.7307Y-5.7886
X3.7394Y-3.7882
X3.7402Y-4.3118
X3.748Y-3.6181
X3.7638Y-2.752
X3.7638Y-2.7913
X3.7638Y-2.8307
X3.7638Y-2.8701
X3.7736Y-3.3967
X3.7756Y-3.6181
X3.7768Y-4.3612
X3.7992Y-2.752
X3.7992Y-2.7913
X3.7992Y-2.8307
X3.7992Y-2.8701
X3.7992Y-3.8839
X3.8031Y-3.6181
X3.8182Y-3.8156
X3.8346Y-3.2402
X3.8356Y-3.2726
X3.8374Y-5.4925
X3.8374Y-5.761
X3.8425Y-2.752
X3.8425Y-2.7913
X3.8425Y-2.8307
X3.8425Y-2.8701
X3.8543Y-3.4685
X3.878Y-2.752
X3.878Y-2.7913
X3.878Y-2.8307
X3.878Y-2.8701
X3.8803Y-5.0339
X3.8819Y-3.9972
X3.8898Y-4.3622
X3.8937Y-3.8307
X3.8937Y-3.8661
X3.8937Y-3.9016
X3.8976Y-3.6693
X3.8976Y-3.6969
X3.9049Y-5.6437
X3.9252Y-3.6969
X3.9252Y-3.8307
X3.9252Y-3.8661
X3.9252Y-3.9016
X3.9315Y-5.0346
X3.9646Y-3.3386
X3.9646Y-3.3661
X3.9646Y-3.3937
X3.9659Y-5.4205
X3.9803Y-2.752
X3.9803Y-2.7913
X3.9803Y-2.8307
X3.9803Y-2.8701
X3.9862Y-3.685
X3.9921Y-3.3386
X3.9921Y-3.3661
X3.9921Y-3.3937
X4.0087Y-4.9087
X4.0157Y-2.752
X4.0157Y-2.7913
X4.0157Y-2.8307
X4.0157Y-2.8701
X4.0177Y-3.685
X4.0197Y-3.3386
X4.0197Y-3.3661
X4.0197Y-3.3937
X4.0315Y-5.2555
X4.0335Y-3.5443
X4.0492Y-3.685
X4.0591Y-2.752
X4.0591Y-2.7913
X4.0591Y-2.8307
X4.0591Y-2.8701
X4.085Y-3.6457
X4.0945Y-2.752
X4.0945Y-2.7913
X4.0945Y-2.8307
X4.0945Y-2.8701
X4.1006Y-5.713
X4.1028Y-5.1055
X4.1028Y-5.2559
X4.1319Y-3.5059
X4.1378Y-2.7913
X4.1378Y-2.8307
X4.1378Y-2.8701
X4.1693Y-5.4669
X4.1728Y-5.2374
X4.1732Y-2.7913
X4.1732Y-2.8307
X4.1732Y-2.8701
X4.2165Y-2.7913
X4.2165Y-2.8307
X4.2165Y-2.8701
X4.252Y-2.7913
X4.252Y-2.8307
X4.252Y-2.8701
X4.2565Y-3.2695
X4.2614Y-5.7096
X4.2628Y-3.5413
X4.2628Y-3.6831
X4.287Y-5.7886
X4.2953Y-2.752
X4.2953Y-2.7913
X4.2953Y-2.8307
X4.2953Y-2.8701
X4.3031Y-3.7756
X4.3031Y-3.815
X4.3031Y-3.8543
X4.3031Y-3.8937
X4.3031Y-3.9331
X4.3031Y-3.9724
X4.3031Y-4.0118
X4.3031Y-4.0512
X4.3209Y-3.565
X4.322Y-5.7886
X4.3224Y-4.8799
X4.3307Y-2.752
X4.3307Y-2.7913
X4.3307Y-2.8307
X4.3307Y-2.8701
X4.3386Y-3.7756
X4.3386Y-3.815
X4.3386Y-3.8543
X4.3386Y-3.8937
X4.3386Y-3.9331
X4.3386Y-3.9724
X4.3386Y-4.0118
X4.3386Y-4.0512
X4.3567Y-3.2695
X4.374Y-2.752
X4.374Y-2.7913
X4.374Y-2.8307
X4.374Y-2.8701
X4.374Y-3.5039
X4.3819Y-3.7756
X4.3819Y-3.815
X4.3819Y-3.8543
X4.3819Y-3.8937
X4.3819Y-3.9331
X4.3819Y-3.9724
X4.3819Y-4.0118
X4.3819Y-4.0512
X4.4094Y-2.752
X4.4094Y-2.7913
X4.4094Y-2.8307
X4.4094Y-2.8701
X4.4134Y-3.1457
X4.4134Y-3.185
X4.4134Y-3.2244
X4.4134Y-3.2638
X4.4134Y-3.3031
X4.4134Y-3.3425
X4.4173Y-3.7756
X4.4173Y-3.815
X4.4173Y-3.8543
X4.4173Y-3.8937
X4.4173Y-3.9331
X4.4173Y-3.9724
X4.4173Y-4.0118
X4.4173Y-4.0512
X4.4248Y-4.9276
X4.4382Y-5.047
X4.4488Y-3.1457
X4.4488Y-3.185
X4.4488Y-3.2244
X4.4488Y-3.2638
X4.4488Y-3.3031
X4.4488Y-3.3425
X4.4528Y-2.752
X4.4528Y-2.7913
X4.4528Y-2.8307
X4.4528Y-2.8701
X4.4882Y-2.752
X4.4882Y-2.7913
X4.4882Y-2.8307
X4.4882Y-2.8701
X4.4921Y-3.2244
X4.4921Y-3.2638
X4.4921Y-3.3031
X4.4921Y-3.3425
X4.4941Y-5.4205
X4.5276Y-3.2244
X4.5276Y-3.2638
X4.5276Y-3.3031
X4.5276Y-3.3425
X4.5315Y-2.752
X4.5315Y-2.7913
X4.5315Y-2.8307
X4.5315Y-2.8701
X4.5553Y-5.348
X4.5567Y-5.7917
X4.5669Y-2.752
X4.5669Y-2.7913
X4.5669Y-2.8307
X4.5669Y-2.8701
X4.572Y-5.5236
X4.5835Y-3.2689
X4.5945Y-4.9173
X4.6102Y-2.752
X4.6102Y-2.7913
X4.6102Y-2.8307
X4.6102Y-2.8701
X4.622Y-5.252
X4.6299Y-5.7917
X4.6457Y-2.752
X4.6457Y-2.7913
X4.6457Y-2.8307
X4.6457Y-2.8701
X4.6606Y-4.8803
X4.6831Y-3.2689
X4.689Y-2.752
X4.689Y-2.7913
X4.689Y-2.8307
X4.689Y-2.8701
X4.7244Y-2.752
X4.7244Y-2.7913
X4.7244Y-2.8307
X4.7244Y-2.8701
X4.7313Y-5.1854
X4.7362Y-3.0669
X4.7362Y-3.1063
X4.7362Y-3.1457
X4.7362Y-3.185
X4.7362Y-3.2244
X4.7362Y-3.2638
X4.7362Y-3.3031
X4.7362Y-3.3425
X4.7579Y-5.4669
X4.7677Y-2.752
X4.7677Y-2.7913
X4.7677Y-2.8307
X4.7677Y-2.8701
X4.7717Y-3.0669
X4.7717Y-3.1063
X4.7717Y-3.1457
X4.7717Y-3.185
X4.7717Y-3.2244
X4.7717Y-3.2638
X4.7717Y-3.3031
X4.7717Y-3.3425
X4.8031Y-2.752
X4.8031Y-2.7913
X4.8031Y-2.8307
X4.8031Y-2.8701
X4.815Y-3.0669
X4.815Y-3.1063
X4.815Y-3.1457
X4.815Y-3.185
X4.815Y-3.2244
X4.815Y-3.2638
X4.815Y-3.3031
X4.815Y-3.3425
X4.8205Y-3.4872
X4.8465Y-2.752
X4.8465Y-2.7913
X4.8465Y-2.8307
X4.8465Y-2.8701
X4.8504Y-3.0669
X4.8504Y-3.1063
X4.8504Y-3.1457
X4.8504Y-3.185
X4.8504Y-3.2244
X4.8504Y-3.2638
X4.8504Y-3.3031
X4.8504Y-3.3425
X4.874Y-3.748
X4.874Y-3.7835
X4.874Y-3.8189
X4.8812Y-5.7937
X4.8819Y-2.752
X4.8819Y-2.7913
X4.8819Y-2.8307
X4.8819Y-2.8701
X4.9055Y-3.748
X4.9055Y-3.7835
X4.9055Y-3.8189
X4.9071Y-3.4866
X4.9094Y-3.2685
X4.9127Y-5.7937
X4.913Y-5.4941
X4.9252Y-2.752
X4.9252Y-2.7913
X4.9252Y-2.8307
X4.9252Y-2.8701
X4.9528Y-3.6299
X4.9528Y-3.6654
X4.9528Y-3.7008
X4.9528Y-3.748
X4.9528Y-3.7835
X4.9528Y-3.8189
X4.9606Y-2.752
X4.9606Y-2.7913
X4.9606Y-2.8307
X4.9606Y-2.8701
X4.9843Y-3.6299
X4.9843Y-3.6654
X4.9843Y-3.7008
X4.9843Y-3.748
X4.9843Y-3.7835
X4.9843Y-3.8189
X5.0039Y-2.752
X5.0039Y-2.7913
X5.0039Y-2.8307
X5.0039Y-2.8701
X5.0094Y-3.2685
X5.0236Y-5.047
X5.0315Y-4.9173
X5.0394Y-2.752
X5.0394Y-2.7913
X5.0394Y-2.8307
X5.0394Y-2.8701
X5.0394Y-3.8819
X5.0394Y-3.9173
X5.0394Y-3.9528
X5.0598Y-3.2689
X5.0598Y-3.3083
X5.0709Y-3.8819
X5.0709Y-3.9173
X5.0709Y-3.9528
X5.0827Y-2.752
X5.0827Y-2.7913
X5.0827Y-2.8307
X5.0827Y-2.8701
X5.0945Y-5.4067
X5.1093Y-3.4291
X5.1094Y-3.2685
X5.1142Y-3.6299
X5.1142Y-3.6654
X5.1142Y-3.7008
X5.1142Y-3.748
X5.1142Y-3.7835
X5.1142Y-3.8189
X5.1181Y-2.752
X5.1181Y-2.7913
X5.1181Y-2.8307
X5.1181Y-2.8701
X5.1232Y-5.6071
X5.1299Y-5.563
X5.1457Y-3.6299
X5.1457Y-3.6654
X5.1457Y-3.7008
X5.1457Y-3.748
X5.1457Y-3.7835
X5.1457Y-3.8189
X5.1557Y-5.7787
X5.1614Y-2.7913
X5.1614Y-2.8307
X5.1614Y-2.8701
X5.1614Y-2.9094
X5.1614Y-2.9488
X5.1614Y-2.9882
X5.1614Y-3.0276
X5.1614Y-3.0669
X5.1614Y-3.1063
X5.1614Y-3.1457
X5.1614Y-3.185
X5.1614Y-3.2244
X5.1614Y-3.2638
X5.1614Y-3.3031
X5.1614Y-3.3425
X5.1614Y-3.3819
X5.1969Y-2.7913
X5.1969Y-2.8307
X5.1969Y-2.8701
X5.1969Y-2.9094
X5.1969Y-2.9488
X5.1969Y-2.9882
X5.1969Y-3.0276
X5.1969Y-3.0669
X5.1969Y-3.1063
X5.1969Y-3.1457
X5.1969Y-3.185
X5.1969Y-3.2244
X5.1969Y-3.2638
X5.1969Y-3.3031
X5.1969Y-3.3425
X5.1969Y-3.3819
X5.1969Y-3.748
X5.1969Y-3.7835
X5.1969Y-3.8189
X5.2283Y-3.748
X5.2283Y-3.7835
X5.2283Y-3.8189
X5.2402Y-2.7913
X5.2402Y-2.8307
X5.2402Y-2.8701
X5.2402Y-2.9094
X5.2402Y-2.9488
X5.2402Y-2.9882
X5.2402Y-3.0276
X5.2402Y-3.0669
X5.2402Y-3.1063
X5.2402Y-3.1457
X5.2402Y-3.185
X5.2402Y-3.2244
X5.2402Y-3.2638
X5.2402Y-3.3031
X5.2402Y-3.3425
X5.2402Y-3.3819
X5.2417Y-3.9665
X5.2756Y-2.7913
X5.2756Y-2.8307
X5.2756Y-2.8701
X5.2756Y-2.9094
X5.2756Y-2.9488
X5.2756Y-2.9882
X5.2756Y-3.0276
X5.2756Y-3.0669
X5.2756Y-3.1063
X5.2756Y-3.1457
X5.2756Y-3.185
X5.2756Y-3.2244
X5.2756Y-3.2638
X5.2756Y-3.3031
X5.2756Y-3.3425
X5.2756Y-3.3819
X5.2795Y-3.9173
X5.2953Y-3.6161
X5.2953Y-3.6437
X5.3189Y-2.6732
X5.3189Y-2.7126
X5.3189Y-2.752
X5.3189Y-2.7913
X5.3189Y-2.8307
X5.3189Y-2.8701
X5.3189Y-2.9094
X5.3189Y-2.9488
X5.3189Y-2.9882
X5.3189Y-3.0276
X5.3189Y-3.0669
X5.3189Y-3.1063
X5.3228Y-3.6161
X5.3228Y-3.6437
X5.3543Y-2.6732
X5.3543Y-2.7126
X5.3543Y-2.752
X5.3543Y-2.7913
X5.3543Y-2.8307
X5.3543Y-2.8701
X5.3543Y-2.9094
X5.3543Y-2.9488
X5.3543Y-2.9882
X5.3543Y-3.0276
X5.3543Y-3.0669
X5.3543Y-3.1063
X5.3976Y-2.6732
X5.3976Y-2.7126
X5.3976Y-2.752
X5.3976Y-2.7913
X5.3976Y-2.8307
X5.3976Y-2.8701
X5.3976Y-2.9094
X5.3976Y-2.9488
X5.4Y-3.4433
X5.4331Y-2.6732
X5.4331Y-2.7126
X5.4331Y-2.752
X5.4331Y-2.7913
X5.4331Y-2.8307
X5.4331Y-2.8701
X5.4331Y-2.9094
X5.4331Y-2.9488
X5.4764Y-2.6732
X5.4764Y-2.7126
X5.4764Y-2.752
X5.4764Y-2.7913
X5.4764Y-2.8307
X5.4764Y-2.8701
X5.4764Y-2.9094
X5.4764Y-2.9488
X5.4764Y-3.7559
X5.4764Y-3.7953
X5.4764Y-3.8346
X5.4764Y-3.874
X5.4764Y-3.9134
X5.4764Y-3.9528
X5.5118Y-2.6732
X5.5118Y-2.7126
X5.5118Y-2.752
X5.5118Y-2.7913
X5.5118Y-2.8307
X5.5118Y-2.8701
X5.5118Y-2.9094
X5.5118Y-2.9488
X5.5118Y-3.7559
X5.5118Y-3.7953
X5.5118Y-3.8346
X5.5118Y-3.874
X5.5118Y-3.9134
X5.5118Y-3.9528
X5.5551Y-2.6732
X5.5551Y-2.7126
X5.5551Y-2.752
X5.5551Y-2.7913
X5.5551Y-2.8307
X5.5551Y-2.8701
X5.5551Y-2.9094
X5.5551Y-2.9488
X5.5551Y-3.5591
X5.5551Y-3.5984
X5.5551Y-3.6378
X5.5551Y-3.6772
X5.5551Y-3.7165
X5.5551Y-3.7559
X5.5551Y-3.7953
X5.5551Y-3.8346
X5.5551Y-3.874
X5.5551Y-3.9134
X5.5551Y-3.9528
X5.5906Y-2.6732
X5.5906Y-2.7126
X5.5906Y-2.752
X5.5906Y-2.7913
X5.5906Y-2.8307
X5.5906Y-2.8701
X5.5906Y-2.9094
X5.5906Y-2.9488
X5.5906Y-3.5591
X5.5906Y-3.5984
X5.5906Y-3.6378
X5.5906Y-3.6772
X5.5906Y-3.7165
X5.5906Y-3.7559
X5.5906Y-3.7953
X5.5906Y-3.8346
X5.5906Y-3.874
X5.5906Y-3.9134
X5.5906Y-3.9528
X5.6319Y-3.874
X5.6319Y-3.9134
X5.6319Y-3.9528
X5.6339Y-2.6732
X5.6339Y-2.7126
X5.6339Y-2.752
X5.6339Y-2.7913
X5.6339Y-2.8307
X5.6339Y-2.8701
X5.6339Y-2.9094
X5.6339Y-2.9488
X5.6339Y-3.3622
X5.6339Y-3.4016
X5.6339Y-3.4409
X5.6339Y-3.4803
X5.6339Y-3.5197
X5.6339Y-3.5591
X5.6339Y-3.5984
X5.6339Y-3.6378
X5.6339Y-3.6772
X5.6339Y-3.7165
X5.6339Y-3.7559
X5.6339Y-3.7953
X5.6339Y-3.8346
X5.6673Y-3.874
X5.6673Y-3.9134
X5.6673Y-3.9528
X5.6693Y-2.6732
X5.6693Y-2.7126
X5.6693Y-2.752
X5.6693Y-2.7913
X5.6693Y-2.8307
X5.6693Y-2.8701
X5.6693Y-2.9094
X5.6693Y-2.9488
X5.6693Y-3.3622
X5.6693Y-3.4016
X5.6693Y-3.4409
X5.6693Y-3.4803
X5.6693Y-3.5197
X5.6693Y-3.5591
X5.6693Y-3.5984
X5.6693Y-3.6378
X5.6693Y-3.6772
X5.6693Y-3.7165
X5.6693Y-3.7559
X5.6693Y-3.7953
X5.6693Y-3.8346
T2
X3.1205Y-4.2795
X3.1705Y-4.2795
X3.2205Y-4.2795
T3
X3.6079Y-5.3094
X3.6079Y-5.5866
X3.7079Y-5.3094
X3.7079Y-5.5866
X3.8079Y-5.3094
X3.8079Y-5.5866
X4.1984Y-5.3094
X4.1984Y-5.5866
X4.2984Y-5.3094
X4.2984Y-5.5866
X4.3984Y-5.3094
X4.3984Y-5.5866
X4.789Y-5.3094
X4.789Y-5.5866
X4.889Y-5.3094
X4.889Y-5.5866
X4.989Y-5.3094
X4.989Y-5.5866
T4
X1.8858Y-4.7232
X1.8858Y-4.9594
X1.9843Y-4.7232
X1.9843Y-4.9594
X2.0827Y-4.7232
X2.0827Y-4.9594
T5
X1.9213Y-2.7386
X1.9213Y-2.8386
X2.2122Y-3.0157
X2.3122Y-3.0157
X2.3689Y-4.9608
X2.4122Y-3.0157
X2.4689Y-4.9608
X2.5122Y-3.0157
X2.5591Y-2.6772
X2.6136Y-2.5654
X2.6681Y-2.6772
X2.7226Y-2.5654
X2.7772Y-2.6772
X2.8317Y-2.5654
X2.8862Y-2.6772
X2.9407Y-2.5654
X2.9953Y-2.6772
X3.3906Y-4.647
X3.3906Y-4.747
X3.6583Y-5.861
X3.7465Y-3.0955
X3.7583Y-5.861
X3.8465Y-3.0955
X3.9465Y-3.0955
X4.0126Y-3.8898
X4.0126Y-3.9898
X4.1126Y-3.8898
X4.1126Y-3.9898
X4.2126Y-3.8898
X4.2126Y-3.9898
X4.2488Y-5.8602
X4.3488Y-5.8602
X4.485Y-2.6772
X4.5079Y-3.7913
X4.5079Y-3.8913
X4.5079Y-3.9913
X4.5396Y-2.5654
X4.5941Y-2.6772
X4.6486Y-2.5654
X4.7031Y-2.6772
X4.7577Y-2.5654
X4.8122Y-2.6772
X4.8394Y-5.8602
X4.8667Y-2.5654
X4.9213Y-2.6772
X4.9394Y-5.8602
T6
X2.9579Y-4.2512
X2.9579Y-4.3512
X2.9579Y-4.4512
X3.0917Y-3.8248
X3.0917Y-4.002
X3.3476Y-3.8248
X3.3476Y-4.002
T7
X5.5236Y-3.1496
T8
X1.9291Y-4.2512
X1.9291Y-4.4512
X3.6075Y-6.1398
X3.6417Y-2.5197
X3.8075Y-6.1398
X3.8417Y-2.5197
X4.198Y-6.1398
X4.398Y-6.1398
X4.7886Y-6.1398
X4.9886Y-6.1398
X5.5512Y-4.252
X5.5512Y-4.452
X5.5512Y-4.652
X5.5512Y-4.852
T9
X5.4236Y-3.0496
X5.4236Y-3.2496
X5.6236Y-3.0496
X5.6236Y-3.2496
T10
X2.285Y-2.6654
X3.2693Y-2.6654
X4.211Y-2.6654
X5.1953Y-2.6654
M30
